<svg width="1856" height="652" viewBox="0 0 1856 652" fill="none" xmlns="http://www.w3.org/2000/svg">
<path opacity="0.1" d="M1546.31 645.382C1544.18 645.382 1542.41 643.702 1542.32 641.552C1542.23 639.342 1543.94 637.482 1546.15 637.382C1559.26 636.822 1572.46 635.412 1585.38 633.202C1587.55 632.832 1589.63 634.292 1590 636.472C1590.37 638.652 1588.91 640.722 1586.73 641.092C1573.48 643.362 1559.94 644.812 1546.49 645.382C1546.43 645.382 1546.37 645.382 1546.31 645.382ZM1496.4 643.562C1496.25 643.562 1496.09 643.552 1495.94 643.532C1495.25 643.452 1494.56 643.372 1493.88 643.292C1481.17 641.742 1468.47 639.432 1456.11 636.402C1453.96 635.872 1452.65 633.712 1453.18 631.562C1453.71 629.412 1455.87 628.102 1458.02 628.632C1470.07 631.582 1482.46 633.842 1494.85 635.352C1495.52 635.432 1496.19 635.512 1496.86 635.592C1499.05 635.842 1500.63 637.832 1500.38 640.022C1500.14 642.062 1498.41 643.562 1496.4 643.562ZM1634.44 628.802C1632.78 628.802 1631.22 627.762 1630.65 626.092C1629.94 624.002 1631.05 621.732 1633.14 621.012C1645.53 616.772 1657.79 611.692 1669.57 605.912C1671.55 604.942 1673.95 605.752 1674.92 607.742C1675.89 609.722 1675.07 612.122 1673.09 613.092C1661.01 619.022 1648.43 624.232 1635.72 628.582C1635.3 628.732 1634.87 628.802 1634.44 628.802ZM1409.66 620.842C1409.14 620.842 1408.62 620.742 1408.11 620.522C1395.71 615.292 1383.52 609.212 1371.87 602.432C1369.96 601.322 1369.31 598.872 1370.42 596.962C1371.53 595.052 1373.98 594.402 1375.89 595.512C1387.24 602.112 1399.13 608.042 1411.21 613.142C1413.25 614.002 1414.2 616.342 1413.34 618.382C1412.7 619.922 1411.22 620.842 1409.66 620.842ZM1714.29 588.042C1713.03 588.042 1711.8 587.452 1711.02 586.342C1709.75 584.532 1710.18 582.042 1711.98 580.772C1722.71 573.212 1733.06 564.892 1742.74 556.052C1744.37 554.562 1746.9 554.672 1748.39 556.312C1749.88 557.942 1749.76 560.472 1748.13 561.962C1738.2 571.032 1727.58 579.562 1716.58 587.312C1715.89 587.802 1715.09 588.042 1714.29 588.042ZM1332.83 574.512C1331.94 574.512 1331.04 574.212 1330.3 573.612C1319.89 565.102 1309.92 555.832 1300.65 546.052C1299.13 544.452 1299.2 541.922 1300.8 540.402C1302.4 538.882 1304.93 538.952 1306.45 540.552C1315.49 550.082 1325.21 559.122 1335.36 567.422C1337.07 568.822 1337.32 571.342 1335.92 573.052C1335.14 574.012 1333.99 574.512 1332.83 574.512ZM1779.56 526.532C1778.69 526.532 1777.81 526.242 1777.07 525.662C1775.34 524.282 1775.06 521.772 1776.44 520.042C1784.63 509.772 1792.23 498.882 1799.04 487.682C1800.19 485.792 1802.65 485.192 1804.54 486.342C1806.43 487.492 1807.03 489.952 1805.88 491.842C1798.9 503.332 1791.1 514.502 1782.7 525.042C1781.9 526.012 1780.74 526.532 1779.56 526.532ZM1272.15 508.472C1270.88 508.472 1269.62 507.862 1268.85 506.732C1261.23 495.632 1254.25 483.942 1248.1 471.992C1247.09 470.032 1247.86 467.612 1249.83 466.602C1251.79 465.592 1254.21 466.362 1255.22 468.332C1261.22 479.982 1268.02 491.382 1275.45 502.202C1276.7 504.022 1276.24 506.512 1274.41 507.762C1273.72 508.252 1272.93 508.472 1272.15 508.472ZM1824.91 449.132C1824.41 449.132 1823.9 449.042 1823.4 448.832C1821.35 448.002 1820.37 445.662 1821.2 443.622C1826.14 431.482 1830.35 418.902 1833.71 406.202C1834.28 404.062 1836.47 402.792 1838.6 403.362C1840.74 403.932 1842.01 406.122 1841.44 408.252C1837.99 421.272 1833.67 434.182 1828.61 446.632C1827.98 448.182 1826.48 449.132 1824.91 449.132ZM1232.39 428.112C1230.71 428.112 1229.14 427.042 1228.59 425.362C1224.4 412.572 1220.99 399.382 1218.46 386.182C1218.04 384.012 1219.47 381.912 1221.64 381.502C1223.8 381.082 1225.9 382.512 1226.32 384.682C1228.79 397.562 1232.11 410.412 1236.2 422.882C1236.89 424.982 1235.74 427.242 1233.65 427.932C1233.22 428.052 1232.8 428.112 1232.39 428.112ZM1846.54 362.102C1846.4 362.102 1846.27 362.092 1846.13 362.082C1843.93 361.852 1842.33 359.892 1842.56 357.692C1843.66 347.022 1844.21 336.212 1844.21 325.552C1844.21 323.142 1844.18 320.682 1844.12 318.252C1844.07 316.042 1845.82 314.212 1848.03 314.162C1850.23 314.142 1852.07 315.862 1852.12 318.072C1852.18 320.562 1852.21 323.082 1852.21 325.562C1852.21 336.492 1851.64 347.582 1850.52 358.522C1850.31 360.572 1848.57 362.102 1846.54 362.102ZM1216.93 339.792C1214.78 339.792 1213 338.082 1212.93 335.912C1212.84 332.732 1212.79 329.522 1212.79 326.352C1212.79 316.102 1213.29 305.712 1214.28 295.462C1214.49 293.262 1216.45 291.652 1218.64 291.862C1220.84 292.072 1222.45 294.032 1222.24 296.222C1221.28 306.222 1220.79 316.352 1220.79 326.352C1220.79 329.442 1220.84 332.582 1220.93 335.672C1221 337.882 1219.26 339.722 1217.05 339.792C1217.01 339.792 1216.97 339.792 1216.93 339.792ZM1842.99 272.492C1841.1 272.492 1839.42 271.142 1839.06 269.222C1836.68 256.332 1833.44 243.462 1829.43 230.962C1828.76 228.862 1829.91 226.602 1832.02 225.932C1834.12 225.262 1836.38 226.412 1837.05 228.522C1841.16 241.342 1844.48 254.552 1846.93 267.772C1847.33 269.942 1845.9 272.032 1843.72 272.432C1843.47 272.472 1843.23 272.492 1842.99 272.492ZM1226.91 250.662C1226.58 250.662 1226.24 250.622 1225.91 250.532C1223.77 249.982 1222.48 247.802 1223.04 245.662C1226.41 232.612 1230.64 219.672 1235.62 207.202C1236.44 205.152 1238.77 204.152 1240.82 204.972C1242.87 205.792 1243.87 208.122 1243.05 210.172C1238.19 222.332 1234.07 234.952 1230.78 247.672C1230.31 249.462 1228.69 250.662 1226.91 250.662ZM1814.28 187.562C1812.82 187.562 1811.41 186.762 1810.71 185.372C1804.79 173.682 1798.06 162.242 1790.7 151.372C1789.46 149.542 1789.94 147.052 1791.77 145.822C1793.6 144.582 1796.09 145.062 1797.32 146.892C1804.86 158.042 1811.77 169.772 1817.84 181.762C1818.84 183.732 1818.05 186.142 1816.08 187.142C1815.51 187.422 1814.89 187.562 1814.28 187.562ZM1261.49 167.912C1260.79 167.912 1260.08 167.732 1259.44 167.342C1257.54 166.212 1256.93 163.752 1258.06 161.852C1264.97 150.312 1272.69 139.092 1281.02 128.502C1282.38 126.762 1284.9 126.462 1286.64 127.832C1288.38 129.202 1288.68 131.712 1287.31 133.452C1279.19 143.772 1271.66 154.712 1264.92 165.962C1264.18 167.212 1262.85 167.912 1261.49 167.912ZM1762.85 114.092C1761.78 114.092 1760.72 113.662 1759.93 112.822C1750.96 103.242 1741.29 94.1322 1731.19 85.7622C1729.49 84.3522 1729.25 81.8322 1730.66 80.1322C1732.07 78.4322 1734.59 78.1922 1736.29 79.6022C1746.64 88.1822 1756.56 97.5222 1765.76 107.352C1767.27 108.962 1767.19 111.492 1765.57 113.002C1764.82 113.732 1763.83 114.092 1762.85 114.092ZM1318.06 98.2822C1316.98 98.2822 1315.91 97.8522 1315.12 97.0022C1313.62 95.3822 1313.72 92.8522 1315.34 91.3522C1325.22 82.2222 1335.78 73.6222 1346.72 65.8022C1348.52 64.5122 1351.01 64.9322 1352.3 66.7322C1353.59 68.5322 1353.17 71.0322 1351.37 72.3122C1340.7 79.9422 1330.4 88.3222 1320.77 97.2322C1320 97.9322 1319.03 98.2822 1318.06 98.2822ZM1692.89 57.9622C1692.2 57.9622 1691.5 57.7822 1690.86 57.4022C1679.55 50.7322 1667.71 44.7222 1655.65 39.5422C1653.62 38.6722 1652.68 36.3222 1653.55 34.2922C1654.42 32.2622 1656.77 31.3222 1658.8 32.1922C1671.17 37.5022 1683.32 43.6722 1694.92 50.5122C1696.82 51.6322 1697.45 54.0922 1696.33 55.9922C1695.59 57.2622 1694.26 57.9622 1692.89 57.9622ZM1391.84 47.3122C1390.37 47.3122 1388.96 46.5022 1388.26 45.0922C1387.27 43.1122 1388.08 40.7122 1390.05 39.7222C1402.09 33.7122 1414.63 28.4222 1427.32 23.9922C1429.41 23.2622 1431.69 24.3622 1432.42 26.4522C1433.15 28.5422 1432.05 30.8222 1429.96 31.5522C1417.59 35.8722 1405.37 41.0322 1393.63 46.8922C1393.05 47.1722 1392.44 47.3122 1391.84 47.3122ZM1609.93 23.8822C1609.61 23.8822 1609.28 23.8422 1608.95 23.7622C1596.28 20.5722 1583.22 18.1522 1570.15 16.5622C1568.8 16.4022 1567.46 16.2422 1566.11 16.0922C1563.91 15.8522 1562.33 13.8822 1562.57 11.6822C1562.81 9.48224 1564.79 7.90224 1566.98 8.14224C1568.36 8.29224 1569.74 8.45224 1571.12 8.62224C1584.52 10.2522 1597.91 12.7422 1610.9 16.0122C1613.04 16.5522 1614.34 18.7222 1613.8 20.8622C1613.35 22.6722 1611.72 23.8822 1609.93 23.8822ZM1476.91 19.1222C1475.01 19.1222 1473.32 17.7622 1472.98 15.8222C1472.59 13.6522 1474.04 11.5722 1476.22 11.1822C1489.45 8.82224 1502.98 7.28224 1516.43 6.62224C1518.62 6.51224 1520.51 8.21224 1520.62 10.4222C1520.73 12.6322 1519.03 14.5022 1516.82 14.6122C1503.71 15.2622 1490.52 16.7522 1477.62 19.0522C1477.38 19.1022 1477.14 19.1222 1476.91 19.1222Z" fill="#1F2348"/>
<path d="M1292.5 365.951C1314.59 365.951 1332.5 348.043 1332.5 325.951C1332.5 303.86 1314.59 285.951 1292.5 285.951C1270.41 285.951 1252.5 303.86 1252.5 325.951C1252.5 348.043 1270.41 365.951 1292.5 365.951Z" fill="url(#paint0_radial)"/>
<path d="M1652.5 158.102C1674.59 158.102 1692.5 140.193 1692.5 118.102C1692.5 96.0102 1674.59 78.1016 1652.5 78.1016C1630.41 78.1016 1612.5 96.0102 1612.5 118.102C1612.5 140.193 1630.41 158.102 1652.5 158.102Z" fill="url(#paint1_radial)"/>
<path d="M1772.5 365.951C1794.59 365.951 1812.5 348.043 1812.5 325.951C1812.5 303.86 1794.59 285.951 1772.5 285.951C1750.41 285.951 1732.5 303.86 1732.5 325.951C1732.5 348.043 1750.41 365.951 1772.5 365.951Z" fill="url(#paint2_radial)"/>
<path d="M1412.5 159.611C1434.59 159.611 1452.5 141.703 1452.5 119.611C1452.5 97.5199 1434.59 79.6113 1412.5 79.6113C1390.41 79.6113 1372.5 97.5199 1372.5 119.611C1372.5 141.703 1390.41 159.611 1412.5 159.611Z" fill="url(#paint3_radial)"/>
<path d="M1412.5 573.803C1434.59 573.803 1452.5 555.894 1452.5 533.803C1452.5 511.711 1434.59 493.803 1412.5 493.803C1390.41 493.803 1372.5 511.711 1372.5 533.803C1372.5 555.894 1390.41 573.803 1412.5 573.803Z" fill="url(#paint4_radial)"/>
<path d="M1652.5 573.803C1674.59 573.803 1692.5 555.894 1692.5 533.803C1692.5 511.711 1674.59 493.803 1652.5 493.803C1630.41 493.803 1612.5 511.711 1612.5 533.803C1612.5 555.894 1630.41 573.803 1652.5 573.803Z" fill="url(#paint5_radial)"/>
<path opacity="0.2" d="M1464.44 507.813C1463.06 507.813 1461.71 507.093 1460.97 505.813C1459.87 503.903 1460.52 501.453 1462.43 500.353L1718.56 352.473C1720.47 351.363 1722.92 352.023 1724.02 353.933C1725.12 355.843 1724.47 358.293 1722.56 359.393L1466.44 507.283C1465.81 507.643 1465.12 507.813 1464.44 507.813Z" fill="#1F2348"/>
<path opacity="0.2" d="M1382.52 485.862C1381.14 485.862 1379.79 485.142 1379.05 483.862L1319.02 379.892C1317.92 377.982 1318.57 375.532 1320.48 374.432C1322.39 373.322 1324.84 373.982 1325.94 375.892L1385.97 479.862C1387.07 481.772 1386.42 484.222 1384.51 485.322C1383.89 485.692 1383.2 485.862 1382.52 485.862Z" fill="#1F2348"/>
<path opacity="0.2" d="M1742.52 278.012C1741.14 278.012 1739.79 277.292 1739.05 276.012L1679.02 172.042C1677.92 170.132 1678.57 167.682 1680.48 166.582C1682.39 165.482 1684.84 166.132 1685.94 168.042L1745.97 272.012C1747.07 273.922 1746.42 276.372 1744.51 277.472C1743.89 277.842 1743.2 278.012 1742.52 278.012Z" fill="#1F2348"/>
<path opacity="0.2" d="M1682.48 485.862C1681.8 485.862 1681.11 485.692 1680.48 485.322C1678.57 484.222 1677.91 481.772 1679.02 479.862L1739.05 375.892C1740.15 373.982 1742.6 373.322 1744.51 374.432C1746.42 375.532 1747.08 377.982 1745.97 379.892L1685.94 483.862C1685.21 485.142 1683.87 485.862 1682.48 485.862Z" fill="#1F2348"/>
<path opacity="0.2" d="M1322.48 278.011C1321.8 278.011 1321.11 277.841 1320.48 277.471C1318.57 276.371 1317.91 273.921 1319.02 272.011L1378.4 169.171C1379.5 167.261 1381.95 166.601 1383.86 167.711C1385.77 168.811 1386.43 171.261 1385.32 173.171L1325.94 276.011C1325.21 277.301 1323.86 278.011 1322.48 278.011Z" fill="#1F2348"/>
<path opacity="0.2" d="M1412.5 477.801C1410.29 477.801 1408.5 476.011 1408.5 473.801V179.611C1408.5 177.401 1410.29 175.611 1412.5 175.611C1414.71 175.611 1416.5 177.401 1416.5 179.611V473.801C1416.5 476.011 1414.71 477.801 1412.5 477.801Z" fill="#1F2348"/>
<path opacity="0.2" d="M1720.56 299.972C1719.88 299.972 1719.19 299.802 1718.56 299.432L1463.09 151.932C1461.18 150.832 1460.52 148.382 1461.63 146.472C1462.73 144.562 1465.18 143.902 1467.09 145.012L1722.57 292.512C1724.48 293.612 1725.14 296.062 1724.03 297.972C1723.29 299.252 1721.94 299.972 1720.56 299.972Z" fill="#1F2348"/>
<path opacity="0.2" d="M1592.5 537.803H1472.5C1470.29 537.803 1468.5 536.013 1468.5 533.803C1468.5 531.593 1470.29 529.803 1472.5 529.803H1592.5C1594.71 529.803 1596.5 531.593 1596.5 533.803C1596.5 536.013 1594.71 537.803 1592.5 537.803Z" fill="#1F2348"/>
<path opacity="0.2" d="M1592.5 123.611H1472.5C1470.29 123.611 1468.5 121.821 1468.5 119.611C1468.5 117.401 1470.29 115.611 1472.5 115.611H1592.5C1594.71 115.611 1596.5 117.401 1596.5 119.611C1596.5 121.821 1594.71 123.611 1592.5 123.611Z" fill="#1F2348"/>
<path opacity="0.1" d="M347.92 644.733C345.85 644.733 344.1 643.133 343.94 641.033C343.77 638.833 345.42 636.913 347.62 636.743C360.71 635.743 373.86 633.893 386.69 631.243C388.86 630.793 390.97 632.193 391.42 634.353C391.87 636.513 390.48 638.633 388.31 639.083C375.15 641.803 361.66 643.703 348.23 644.723C348.13 644.733 348.02 644.733 347.92 644.733ZM297.98 644.603C297.87 644.603 297.76 644.603 297.65 644.593C296.96 644.533 296.26 644.473 295.57 644.413C282.83 643.293 270.06 641.413 257.61 638.803C255.45 638.353 254.06 636.233 254.51 634.073C254.96 631.913 257.08 630.533 259.24 630.973C271.38 633.513 283.83 635.353 296.27 636.443C296.95 636.503 297.62 636.563 298.3 636.613C300.5 636.793 302.14 638.723 301.96 640.923C301.8 643.013 300.05 644.603 297.98 644.603ZM435.44 625.193C433.83 625.193 432.31 624.213 431.7 622.613C430.92 620.543 431.95 618.233 434.02 617.453C446.26 612.803 458.34 607.313 469.92 601.133C471.87 600.093 474.29 600.833 475.33 602.783C476.37 604.733 475.63 607.153 473.68 608.193C461.8 614.523 449.41 620.163 436.85 624.933C436.39 625.113 435.91 625.193 435.44 625.193ZM210.52 624.813C210.05 624.813 209.56 624.733 209.09 624.553C196.52 619.743 184.13 614.073 172.26 607.693C170.31 606.643 169.58 604.223 170.63 602.273C171.67 600.323 174.1 599.593 176.05 600.643C187.62 606.853 199.69 612.383 211.95 617.073C214.01 617.863 215.05 620.173 214.26 622.243C213.65 623.833 212.13 624.813 210.52 624.813ZM513.87 581.773C512.66 581.773 511.46 581.223 510.68 580.183C509.35 578.423 509.7 575.913 511.46 574.583C521.92 566.673 531.98 558.013 541.37 548.843C542.95 547.303 545.48 547.333 547.03 548.913C548.57 550.493 548.54 553.023 546.96 554.573C537.33 563.973 527.01 572.853 516.29 580.973C515.56 581.503 514.71 581.773 513.87 581.773ZM132.18 581.103C131.33 581.103 130.48 580.833 129.76 580.283C119.07 572.123 108.79 563.193 99.2 553.743C97.63 552.193 97.6101 549.663 99.1601 548.083C100.71 546.513 103.24 546.493 104.82 548.043C114.17 557.263 124.2 565.973 134.62 573.923C136.38 575.263 136.71 577.773 135.37 579.533C134.57 580.563 133.38 581.103 132.18 581.103ZM577.03 518.103C576.2 518.103 575.36 517.843 574.65 517.313C572.88 515.993 572.51 513.493 573.83 511.713C581.67 501.173 588.9 490.033 595.33 478.603C596.41 476.673 598.85 475.993 600.78 477.073C602.7 478.153 603.39 480.593 602.31 482.523C595.72 494.243 588.3 505.663 580.26 516.483C579.46 517.543 578.25 518.103 577.03 518.103ZM69.3101 517.153C68.0801 517.153 66.87 516.593 66.09 515.523C58.1 504.693 50.7301 493.243 44.1801 481.503C43.1001 479.573 43.8 477.133 45.72 476.063C47.65 474.983 50.09 475.683 51.16 477.603C57.55 489.043 64.73 500.203 72.52 510.773C73.83 512.553 73.45 515.053 71.67 516.363C70.96 516.893 70.1301 517.153 69.3101 517.153ZM619.75 439.213C619.29 439.213 618.82 439.133 618.37 438.963C616.3 438.203 615.24 435.903 616 433.823C620.53 421.533 624.31 408.803 627.24 396.003C627.73 393.853 629.89 392.503 632.03 393.003C634.18 393.493 635.53 395.643 635.03 397.793C632.02 410.923 628.14 423.973 623.5 436.583C622.91 438.213 621.38 439.213 619.75 439.213ZM26.8701 438.173C25.2401 438.173 23.71 437.163 23.11 435.543C18.49 422.893 14.64 409.833 11.66 396.723C11.17 394.563 12.5201 392.423 14.6801 391.933C16.8301 391.443 18.98 392.793 19.47 394.953C22.37 407.733 26.1201 420.473 30.6301 432.793C31.3901 434.863 30.3201 437.163 28.2501 437.923C27.7901 438.103 27.3201 438.173 26.8701 438.173ZM8.43005 350.423C6.34005 350.423 4.58006 348.793 4.44006 346.673C4.01006 339.943 3.79004 333.093 3.79004 326.313C3.79004 319.653 4.00004 312.893 4.42004 306.203C4.56004 304.003 6.49003 302.323 8.66003 302.463C10.87 302.603 12.54 304.503 12.4 306.703C11.99 313.223 11.79 319.823 11.79 326.313C11.79 332.923 12 339.603 12.42 346.163C12.56 348.363 10.8901 350.273 8.68005 350.413C8.60005 350.423 8.52005 350.423 8.43005 350.423ZM631.87 262.073C630.03 262.073 628.38 260.803 627.97 258.933C625.15 246.123 621.48 233.373 617.06 221.013C616.31 218.933 617.4 216.643 619.48 215.903C621.56 215.153 623.85 216.243 624.59 218.323C629.13 230.993 632.89 244.083 635.78 257.223C636.25 259.383 634.89 261.513 632.73 261.993C632.44 262.043 632.16 262.073 631.87 262.073ZM15.4 261.013C15.11 261.013 14.82 260.983 14.53 260.913C12.37 260.433 11.0101 258.293 11.4901 256.143C14.4201 242.993 18.21 229.913 22.77 217.273C23.52 215.193 25.81 214.123 27.89 214.863C29.97 215.613 31.05 217.903 30.3 219.983C25.86 232.303 22.16 245.053 19.3 257.873C18.89 259.743 17.23 261.013 15.4 261.013ZM600.32 178.153C598.91 178.153 597.54 177.403 596.81 176.083C590.5 164.593 583.38 153.393 575.67 142.773C574.37 140.983 574.77 138.483 576.55 137.183C578.34 135.883 580.84 136.283 582.14 138.063C590.05 148.953 597.35 160.443 603.82 172.223C604.88 174.163 604.18 176.593 602.24 177.653C601.63 177.993 600.97 178.153 600.32 178.153ZM47.17 177.143C46.51 177.143 45.8501 176.983 45.2401 176.643C43.3101 175.573 42.6101 173.143 43.6801 171.203C50.1901 159.443 57.5401 147.963 65.5101 137.103C66.8201 135.323 69.32 134.933 71.1 136.243C72.88 137.553 73.27 140.053 71.96 141.833C64.19 152.423 57.0301 163.613 50.6801 175.083C49.9501 176.393 48.58 177.143 47.17 177.143ZM546.45 106.463C545.43 106.463 544.4 106.073 543.62 105.293C534.33 96.0131 524.36 87.2431 513.99 79.2231C512.24 77.8731 511.92 75.3631 513.27 73.6131C514.62 71.8631 517.13 71.5431 518.88 72.8931C529.52 81.1231 539.74 90.1231 549.27 99.6331C550.83 101.193 550.84 103.723 549.27 105.293C548.5 106.073 547.48 106.463 546.45 106.463ZM101.36 105.653C100.33 105.653 99.3001 105.253 98.5201 104.463C96.9701 102.893 96.98 100.363 98.55 98.8031C108.11 89.3431 118.38 80.3931 129.05 72.2031C130.8 70.8631 133.31 71.1931 134.66 72.9431C136 74.6931 135.67 77.2031 133.92 78.5531C123.51 86.5331 113.5 95.2631 104.18 104.483C103.39 105.263 102.37 105.653 101.36 105.653ZM474.63 52.7231C473.98 52.7231 473.33 52.5631 472.72 52.2331C461.2 45.9431 449.16 40.3331 436.93 35.5631C434.87 34.7631 433.85 32.4431 434.66 30.3831C435.46 28.3231 437.78 27.3031 439.84 28.1131C452.38 33.0031 464.73 38.7531 476.55 45.2131C478.49 46.2731 479.2 48.7031 478.14 50.6431C477.42 51.9631 476.05 52.7231 474.63 52.7231ZM173.38 52.2131C171.96 52.2131 170.58 51.4531 169.86 50.1131C168.81 48.1731 169.53 45.7431 171.47 44.6931C183.31 38.2831 195.66 32.5731 208.19 27.7131C210.25 26.9131 212.57 27.9431 213.36 30.0031C214.16 32.0631 213.14 34.3831 211.08 35.1731C198.87 39.9031 186.83 45.4731 175.28 51.7231C174.67 52.0631 174.02 52.2131 173.38 52.2131ZM390.58 21.4531C390.3 21.4531 390.02 21.4231 389.73 21.3631C376.95 18.6031 363.82 16.6231 350.71 15.4731C349.36 15.3531 348 15.2431 346.65 15.1431C344.45 14.9731 342.79 13.0631 342.96 10.8531C343.13 8.65306 345.04 7.00306 347.25 7.16306C348.63 7.26306 350.02 7.38306 351.41 7.50306C364.85 8.68306 378.31 10.7131 391.42 13.5431C393.58 14.0131 394.95 16.1431 394.49 18.2931C394.08 20.1731 392.42 21.4531 390.58 21.4531ZM257.48 21.1731C255.63 21.1731 253.97 19.8831 253.57 18.0031C253.11 15.8431 254.49 13.7131 256.65 13.2531C269.8 10.4431 283.27 8.46306 296.69 7.34306C298.89 7.16306 300.82 8.79306 301.01 11.0031C301.19 13.2031 299.56 15.1331 297.35 15.3231C284.27 16.4131 271.14 18.3431 258.32 21.0831C258.03 21.1431 257.75 21.1731 257.48 21.1731Z" fill="#1F2348"/>
<path d="M130.03 506.512C152.121 506.512 170.03 488.603 170.03 466.512C170.03 444.42 152.121 426.512 130.03 426.512C107.939 426.512 90.03 444.42 90.03 466.512C90.03 488.603 107.939 506.512 130.03 506.512Z" fill="url(#paint6_radial)"/>
<path d="M130.03 225.383C152.121 225.383 170.03 207.474 170.03 185.383C170.03 163.291 152.121 145.383 130.03 145.383C107.939 145.383 90.03 163.291 90.03 185.383C90.03 207.474 107.939 225.383 130.03 225.383Z" fill="url(#paint7_radial)"/>
<path d="M397.39 593.383C419.482 593.383 437.39 575.474 437.39 553.383C437.39 531.291 419.482 513.383 397.39 513.383C375.299 513.383 357.39 531.291 357.39 553.383C357.39 575.474 375.299 593.383 397.39 593.383Z" fill="url(#paint8_radial)"/>
<path d="M397.39 138.521C419.482 138.521 437.39 120.613 437.39 98.5215C437.39 76.4301 419.482 58.5215 397.39 58.5215C375.299 58.5215 357.39 76.4301 357.39 98.5215C357.39 120.613 375.299 138.521 397.39 138.521Z" fill="url(#paint9_radial)"/>
<path d="M562.62 366.453C584.712 366.453 602.62 348.545 602.62 326.453C602.62 304.362 584.712 286.453 562.62 286.453C540.529 286.453 522.62 304.362 522.62 326.453C522.62 348.545 540.529 366.453 562.62 366.453Z" fill="url(#paint10_radial)"/>
<path d="M849.26 366.453C871.351 366.453 889.26 348.545 889.26 326.453C889.26 304.362 871.351 286.453 849.26 286.453C827.169 286.453 809.26 304.362 809.26 326.453C809.26 348.545 827.169 366.453 849.26 366.453Z" fill="url(#paint11_radial)"/>
<path opacity="0.2" d="M130.03 410.513C127.82 410.513 126.03 408.723 126.03 406.513V245.383C126.03 243.173 127.82 241.383 130.03 241.383C132.24 241.383 134.03 243.173 134.03 245.383V406.513C134.03 408.723 132.24 410.513 130.03 410.513Z" fill="#1F2348"/>
<path opacity="0.2" d="M187.09 170.852C185.4 170.852 183.84 169.782 183.29 168.082C182.61 165.982 183.76 163.722 185.86 163.042L339.1 113.252C341.2 112.572 343.46 113.722 344.14 115.822C344.82 117.922 343.67 120.182 341.57 120.862L188.33 170.652C187.92 170.792 187.5 170.852 187.09 170.852Z" fill="#1F2348"/>
<path opacity="0.2" d="M527.62 281.772C526.38 281.772 525.16 281.202 524.38 280.122L429.4 149.392C428.1 147.602 428.5 145.102 430.28 143.802C432.07 142.502 434.57 142.902 435.87 144.682L530.85 275.412C532.15 277.202 531.75 279.702 529.97 281.002C529.26 281.522 528.44 281.772 527.62 281.772Z" fill="#1F2348"/>
<path opacity="0.2" d="M432.63 508.872C431.81 508.872 430.99 508.622 430.28 508.112C428.49 506.812 428.1 504.312 429.4 502.522L523.9 372.452C525.2 370.662 527.7 370.272 529.49 371.572C531.28 372.872 531.67 375.372 530.37 377.162L435.87 507.232C435.09 508.292 433.87 508.872 432.63 508.872Z" fill="#1F2348"/>
<path opacity="0.2" d="M340.33 538.842C339.92 538.842 339.5 538.782 339.09 538.642L185.84 488.852C183.74 488.172 182.59 485.912 183.27 483.812C183.95 481.712 186.21 480.562 188.31 481.242L341.56 531.032C343.66 531.712 344.81 533.972 344.13 536.072C343.59 537.772 342.02 538.842 340.33 538.842Z" fill="#1F2348"/>
<path opacity="0.2" d="M505.72 311.461C505.31 311.461 504.89 311.401 504.48 311.261L185.84 207.731C183.74 207.051 182.59 204.791 183.27 202.691C183.95 200.591 186.21 199.441 188.31 200.121L506.95 303.651C509.05 304.331 510.2 306.591 509.52 308.691C508.98 310.391 507.41 311.461 505.72 311.461Z" fill="#1F2348"/>
<path opacity="0.2" d="M187.09 451.972C185.4 451.972 183.84 450.902 183.29 449.212C182.61 447.112 183.76 444.852 185.86 444.172L504.19 340.742C506.29 340.062 508.55 341.212 509.23 343.312C509.91 345.412 508.76 347.672 506.66 348.352L188.33 451.782C187.91 451.912 187.5 451.972 187.09 451.972Z" fill="#1F2348"/>
<path opacity="0.2" d="M789.27 329.953H622.61C620.4 329.953 618.61 328.163 618.61 325.953C618.61 323.743 620.4 321.953 622.61 321.953H789.27C791.48 321.953 793.27 323.743 793.27 325.953C793.27 328.163 791.48 329.953 789.27 329.953Z" fill="#1F2348"/>
<defs>
<radialGradient id="paint0_radial" cx="0" cy="0" r="1" gradientUnits="userSpaceOnUse" gradientTransform="translate(1332.5 365.949) rotate(180) scale(80)">
<stop stop-color="#260133"/>
<stop offset="1" stop-color="#1F2348"/>
</radialGradient>
<radialGradient id="paint1_radial" cx="0" cy="0" r="1" gradientUnits="userSpaceOnUse" gradientTransform="translate(1692.5 158.113) rotate(180) scale(80)">
<stop stop-color="#260133"/>
<stop offset="1" stop-color="#1F2348"/>
</radialGradient>
<radialGradient id="paint2_radial" cx="0" cy="0" r="1" gradientUnits="userSpaceOnUse" gradientTransform="translate(1812.5 365.949) rotate(180) scale(80)">
<stop stop-color="#260133"/>
<stop offset="1" stop-color="#1F2348"/>
</radialGradient>
<radialGradient id="paint3_radial" cx="0" cy="0" r="1" gradientUnits="userSpaceOnUse" gradientTransform="translate(1452.5 159.617) rotate(180) scale(80)">
<stop stop-color="#EC991C"/>
<stop offset="1" stop-color="#E9B213"/>
</radialGradient>
<radialGradient id="paint4_radial" cx="0" cy="0" r="1" gradientUnits="userSpaceOnUse" gradientTransform="translate(1452.5 573.802) rotate(180) scale(80)">
<stop stop-color="#260133"/>
<stop offset="1" stop-color="#1F2348"/>
</radialGradient>
<radialGradient id="paint5_radial" cx="0" cy="0" r="1" gradientUnits="userSpaceOnUse" gradientTransform="translate(1692.5 573.802) rotate(180) scale(80)">
<stop stop-color="#260133"/>
<stop offset="1" stop-color="#1F2348"/>
</radialGradient>
<radialGradient id="paint6_radial" cx="0" cy="0" r="1" gradientUnits="userSpaceOnUse" gradientTransform="translate(170.03 506.517) rotate(180) scale(80)">
<stop stop-color="#260133"/>
<stop offset="1" stop-color="#1F2348"/>
</radialGradient>
<radialGradient id="paint7_radial" cx="0" cy="0" r="1" gradientUnits="userSpaceOnUse" gradientTransform="translate(170.03 225.382) rotate(180) scale(80)">
<stop stop-color="#260133"/>
<stop offset="1" stop-color="#1F2348"/>
</radialGradient>
<radialGradient id="paint8_radial" cx="0" cy="0" r="1" gradientUnits="userSpaceOnUse" gradientTransform="translate(437.39 593.386) rotate(180) scale(80)">
<stop stop-color="#260133"/>
<stop offset="1" stop-color="#1F2348"/>
</radialGradient>
<radialGradient id="paint9_radial" cx="0" cy="0" r="1" gradientUnits="userSpaceOnUse" gradientTransform="translate(437.39 138.529) rotate(180) scale(80)">
<stop stop-color="#260133"/>
<stop offset="1" stop-color="#1F2348"/>
</radialGradient>
<radialGradient id="paint10_radial" cx="0" cy="0" r="1" gradientUnits="userSpaceOnUse" gradientTransform="translate(602.622 366.451) rotate(180) scale(80)">
<stop stop-color="#260133"/>
<stop offset="1" stop-color="#1F2348"/>
</radialGradient>
<radialGradient id="paint11_radial" cx="0" cy="0" r="1" gradientUnits="userSpaceOnUse" gradientTransform="translate(889.262 366.459) rotate(180) scale(80)">
<stop stop-color="#EC991C"/>
<stop offset="1" stop-color="#E9B213"/>
</radialGradient>
</defs>
</svg>
