<svg xmlns="http://www.w3.org/2000/svg" width="269" height="124" fill="none" viewBox="0 0 269 124"><mask id="a" width="121" height="107" x="148" y="0" maskUnits="userSpaceOnUse" style="mask-type:alpha"><path fill="#f7931a" d="M233.754.223c3.567 0 6.884 1.9 8.667 5l25 43.333a9.98 9.98 0 0 1-.017 10l-11.833 20.509c-1.87 3.242-5.753 4.604-9.495 4.5q-.328-.01-.659-.01c-10.134 0-18.759 6.461-21.981 15.488-1.485 4.161-4.934 7.847-9.352 7.847h-30.33a10 10 0 0 1-8.666-5l-25-43.334a10.02 10.02 0 0 1 0-10l25.016-43.333a10.01 10.01 0 0 1 8.65-5z"/></mask><g mask="url(#a)"><path fill="url(#b)" d="m267.421 48.556-25-43.333c-1.784-3.1-5.1-5-8.667-5h-50a10.01 10.01 0 0 0-8.65 5l-25.017 43.333a10.02 10.02 0 0 0 0 10l25 43.333c1.784 3.1 5.1 5 8.667 5h50c3.567 0 6.867-1.916 8.65-5l25-43.333c1.8-3.083 1.8-6.9.017-10"/><path fill="url(#c)" d="M267.415 48.556 242.416 5.223a10 10 0 0 0-8.666-5h-49.998a10.01 10.01 0 0 0-8.649 5l-25.016 43.333a10.02 10.02 0 0 0 0 10l24.999 43.333a10 10 0 0 0 8.666 5h49.998c3.566 0 6.866-1.916 8.649-5l24.999-43.333c1.8-3.083 1.8-6.9.017-10"/><mask id="e" width="121" height="107" x="148" y="0" maskUnits="userSpaceOnUse" style="mask-type:alpha"><path fill="url(#d)" d="M267.415 48.556 242.416 5.223a10 10 0 0 0-8.666-5h-49.998a10.01 10.01 0 0 0-8.649 5l-25.016 43.333a10.02 10.02 0 0 0 0 10l24.999 43.333a10 10 0 0 0 8.666 5h49.998c3.566 0 6.866-1.916 8.649-5l24.999-43.333c1.8-3.083 1.8-6.9.017-10"/></mask><g fill-rule="evenodd" clip-rule="evenodd" mask="url(#e)"><path fill="#e9b213" d="M209.062 23.707c16.331 0 29.571 13.271 29.571 29.642s-13.24 29.642-29.571 29.642-29.57-13.271-29.57-29.642 13.239-29.642 29.57-29.642"/><path fill="#010101" d="M238.046 53.351c-.001 16.15-13.062 29.241-29.173 29.24a29.13 29.13 0 0 1-20.453-8.395c7.659 1.728 26.613 2.224 36.83-10.581 7.681-9.241 6.143-24.626 3.075-32.058a29.19 29.19 0 0 1 9.721 21.794" opacity=".2"/><path fill="#0582ca" d="M211.876 26.198a6.1 6.1 0 0 0-1.338 1.956c-.739 1.483.739 5.188 5.175 5.929 4.434.74 8.131 1.482 8.871-2.223.739-3.706-9.891-6.129-12.708-5.662"/><path fill="#fff" d="m211.116 27.229 14.209-19.083s-2.387 19.883-2.677 22.091c-1.019 4.587-14.326 4.587-11.532-3.008"/><path fill="#0582ca" d="M211.116 27.229c6.077 4.631 9.773-3.52 11.201-15.036l3.008-4.047s-2.387 19.883-2.677 22.091c-1.019 4.587-14.326 4.587-11.532-3.008"/><path fill="#0582ca" d="M219.407 16.046s1.478 3.12 4.775 1.311l.2-1.645s-2.499 1.482-4.125-.808zm-3.051 4.142s2.617 5.743 7.267 2.038l.184-1.482c-2.372 1.186-4.612.948-6.608-1.697zm6.638 7.27s-7.281 5.143-10.239-2.453l.969-1.297s3.467 5.929 9.455 2.224z"/><path fill="#fff" d="m169.436 46.68 1.774 17.786-1.774 1.482v2.445s0 1.26 1.774 1.705c1.848.37 5.248 1.482 10.497 1.037 2.809-.222 5.545-.963 8.132-2.149.739-.296 1.257-1.037 1.331-1.852l-.666-2.668-1.774-1.482-1.774-17.044"/><path fill="#e9b213" d="m171.283 46.829 1.848 17.564-2.735 2.222s0 .964 3.622 1.483c4.953 1.63 13.085-.075 15.45-1.408 1.848-.668.37-1.483.37-1.483l-1.848-2.222-1.848-16.897z"/><path fill="#fff" d="M178.124 44.459c4.85-.275 8.83.33 8.888 1.351s-3.828 2.073-8.679 2.348c-4.851.276-8.83-.329-8.887-1.35-.058-1.023 3.827-2.074 8.678-2.349"/><path fill="#e9b213" d="M190.503 66.096c.074 1.26-4.362 3.26-9.906 3.557s-10.202-1.186-10.276-2.371 4.362-2.52 9.98-2.815c5.619-.298 10.054.37 10.202 1.63"/><path fill="#ffd22d" d="M184.221 62.242c-.665.074-1.257-.37-1.405-1.038l-.813-9.633a1.17 1.17 0 0 1 1.183-1.186c.665-.074 1.257.37 1.331 1.037l.813 9.634c.074.667-.444 1.186-1.109 1.186m-4.364.74c-.665.074-1.256-.37-1.404-1.037l-.813-9.634c0-.667.517-1.186 1.182-1.186.666-.074 1.257.371 1.405 1.038l.739 9.634c.074.667-.443 1.185-1.109 1.185m-4.359 0c-.665.074-1.257-.37-1.405-1.038l-.813-9.633c0-.667.592-1.186 1.257-1.186.665-.074 1.257.37 1.404 1.038l.74 9.633a1.17 1.17 0 0 1-1.183 1.186"/><path fill="#fff" d="M171.871 48.089s-5.987 1.63-5.1-3.261c0 0-3.623-4.076.887-4.076 0 0 .887-3.26 4.509 0 0 0 3.623-5.706 7.245.815 0 0 2.735-3.26 4.509 1.63 0 0 5.619 1.78 1.479 3.78s-12.05 1.927-13.529 1.112"/><path fill="#ffefae" d="M172.76 47.719s-5.101 1.334-4.288-2.52c0 0-3.031-3.186.74-3.186 0 0 .739-2.594 3.844 0 0 0 3.031-4.52 6.136.667 0 0 2.291-2.594 3.844 1.26 0 0 4.731 1.482 1.257 2.964s-10.35 1.482-11.533.815"/><path fill="#03a9f4" d="M177.932 44.828s1.774-.593 1.256-2.149c-.074.074 1.627 1.408-1.256 2.15m-7.758-1.037c.887.519 1.996.37 2.809-.296 0 0-.444 1.926-2.809.296m2.734-.816a3.055 3.055 0 0 0 3.474 1.927s-2.587 1.778-3.474-1.927m7.465-1.186s1.331-.296 1.331 1.927-2.292 2.89-2.292 2.89.592-.667 1.405.074-1.109 1.26-1.109 1.26 4.731-.222 6.431-1.852-2.661-2.372-2.661-2.372 0-2.297-3.105-1.927"/><path fill="#010101" d="M224.583 53.722s0-8.151 4.066-8.151 4.066 7.855 4.066 7.855-3.4-7.855-8.132.296m-17.742.37s0-8.893 4.435-8.893c4.436 0 4.436 8.596 4.436 8.596s-3.696-8.596-8.871.297"/><path fill="#603813" d="M205.365 57.352h28.314s-.813 17.118-14.342 17.118c-3.696.149-7.171-1.408-9.536-4.298-4.288-5.04-4.436-12.82-4.436-12.82"/><path fill="#f15a24" d="M229.827 68.763c-2.365 3.483-6.283 5.558-10.496 5.41-3.697.148-7.172-1.408-9.537-4.298-4.288-5.04 23.582-6.15 20.033-1.112"/><path fill="#fff" d="M205.365 57.057h28.314c-.074 1.852-.37 3.705-.961 5.408 0 0-16.634 3.114-26.54-.221-.443-1.705-.739-3.409-.813-5.187"/><path fill="#444" d="M183.186 95.591h55.444s4.435 0 5.175-1.63c.739-1.63.739 2.445-5.175 3.335-5.914.889-49.53 0-55.444 0s-6.654-1.705 0-1.705"/><path fill="#919191" d="M175.057 96.554h55.444s4.434 0 5.175-1.63c.739-1.63.739 2.445-5.175 3.334s-49.53 0-55.444 0c-.592 0-1.627-.074-1.627-.074l-1.109-1.482c0-.074 1.627-.148 2.736-.148"/><path fill="#1f2348" d="m208.984 81.363-7.836 13.042s-.813 1.928 7.171 1.928H225.1s3.992-3.854 1.627-5.781-8.797-2.519-8.797-2.519l6.357-10.226s-5.618 3.852-15.303 3.556"/><path fill="#464d8a" d="m196.935 79.436-8.575 14.969s-.739 1.927 7.245 1.927h16.781s3.992-3.854 1.626-5.78-8.797-2.52-8.797-2.52l5.618-6.373c-.074 0-5.692.592-13.898-2.224"/><path fill="#03a9f4" d="m216.376 84.327 5.988 1.408c.223.074.296.222.296.445l-.073.37c-.074.223-.223.297-.444.297l-5.988-1.408c-.222-.074-.296-.223-.296-.445l.074-.371c0-.222.222-.296.443-.296m1.11-2.298 5.988 1.408c.221.074.295.222.295.445l-.074.37c-.074.223-.221.297-.443.297l-5.988-1.408c-.221-.074-.295-.222-.295-.445l.074-.371c.073-.222.221-.296.443-.296m-13.677 3.037 5.988 1.408c.222.074.297.223.297.445l-.075.37c-.074.223-.222.297-.443.297l-5.988-1.408c-.222-.074-.296-.223-.296-.444l.074-.37c0-.224.222-.298.443-.298m1.109-2.297 5.988 1.408c.222.075.296.223.296.445l-.074.371c-.073.223-.222.297-.444.297l-5.988-1.408c-.222-.074-.295-.223-.295-.445l.073-.37c.074-.223.296-.298.444-.298"/></g></g><rect width="33.333" height="33.333" x="228.75" y="90.223" fill="url(#f)" rx="16.667"/><path fill="#fff" fill-rule="evenodd" d="m239.397 115.652-2.07.555a.356.356 0 0 1-.438-.253l-.555-2.07a.37.37 0 0 1 .036-.272l.653-1.131-.684-1.155a.72.72 0 0 1-.1-.388.716.716 0 0 1 .833-.681l1.127.187.367-.635-.696-1.601a.71.71 0 0 1 .068-.693.71.71 0 0 1 .626-.306l1.453.087 1.168-2.024q.077-.142.14-.274l-1.608-2.743a.92.92 0 0 1 .002-.938l2.381-4.063a.96.96 0 0 1 .824-.47h4.763c.34 0 .656.179.826.47l2.382 4.063a.93.93 0 0 1 0 .938l-2.384 4.064a.96.96 0 0 1-.824.469h-3.073q-.084.18-.185.357l-4.815 8.34a.36.36 0 0 1-.217.167m5.788-15.876a1.798 1.798 0 1 0 0 3.596 1.798 1.798 0 0 0 0-3.596" clip-rule="evenodd"/><path fill="#fff" d="m247.474 116.673-1.516 1.516a.36.36 0 0 1-.505 0l-1.516-1.516a.35.35 0 0 1-.105-.252v-1.307l-1.17-.658a.72.72 0 0 1-.362-.678.6.6 0 0 1 .021-.125l.189-.329a.7.7 0 0 1 .252-.161l1.07-.401v-.733l-.402-.298 2.029-3.515h2.119v8.204a.36.36 0 0 1-.104.253M249.007 111.296v-3.477c.296-.196.55-.46.736-.777l1.27-2.165q.047.087.102.179l4.816 8.339a.35.35 0 0 1 .036.272l-.555 2.07a.35.35 0 0 1-.166.217.36.36 0 0 1-.271.036l-2.071-.555a.352.352 0 0 1-.217-.166l-.653-1.132-1.342.015a.71.71 0 0 1-.653-.406.71.71 0 0 1 .093-.763l.726-.883-.367-.635z"/><mask id="g" width="121" height="107" x="0" y="0" maskUnits="userSpaceOnUse" style="mask-type:alpha"><path fill="#f7931a" d="M85.004 0c3.567 0 6.884 1.9 8.667 5l25 43.333a9.98 9.98 0 0 1-.017 10l-11.833 20.51c-1.87 3.241-5.753 4.603-9.495 4.5a24 24 0 0 0-.659-.01c-10.134 0-18.759 6.46-21.981 15.488-1.485 4.161-4.934 7.846-9.352 7.846h-30.33a10 10 0 0 1-8.666-5l-25-43.334a10.02 10.02 0 0 1 0-10L26.355 5a10.01 10.01 0 0 1 8.649-5z"/></mask><g mask="url(#g)"><path fill="url(#h)" d="M118.671 48.333 93.671 5c-1.784-3.1-5.1-5-8.667-5h-50a10.01 10.01 0 0 0-8.65 5L1.338 48.333a10.02 10.02 0 0 0 0 10l25 43.334c1.783 3.1 5.1 5 8.666 5h50a10.01 10.01 0 0 0 8.65-5l25-43.334c1.8-3.083 1.8-6.9.017-10"/><path fill="#d94432" fill-rule="evenodd" d="M62.714 23.58c16.298 0 29.51 13.45 29.51 30.04 0 16.591-13.212 30.041-29.51 30.041-16.297 0-29.509-13.45-29.509-30.04 0-16.591 13.212-30.04 29.51-30.04" clip-rule="evenodd"/><path fill="#010101" fill-rule="evenodd" d="M91.633 53.619c0 16.366-13.035 29.634-29.112 29.632-7.637 0-14.967-3.055-20.412-8.507 7.643 1.75 26.559 2.254 36.754-10.724 7.665-9.365 6.13-24.956 3.069-32.489 6.182 5.616 9.712 13.653 9.701 22.088" clip-rule="evenodd" opacity=".3"/><path fill="#fff" fill-rule="evenodd" d="M41.165 17.946s1.77 4.506 3.984 3.604c2.213-.9 35.485-1.276 35.485-1.276l2.95-3.53s5.681-3.83 3.025 2.478c0 0-.811 1.352-1.549 2.704a9.7 9.7 0 0 0-1.032 2.553c-.074 1.052 1.253-2.102 1.253-2.102l2.804 4.58s1.844 3.455-1.327 3.155c-3.173-.3-5.165-2.628-6.124-3.83l-35.485 1.277s-4.795 6.158-6.934 5.933-1.919-2.329-.517-6.61c0 0 1.254-2.102 1.328-3.154.074-1.051-1.18 2.103-1.18 2.103s-2.435-5.707-2.656-6.759c-.517-2.779 2.434-6.834 5.975-1.126" clip-rule="evenodd"/><path fill="#21bca5" fill-rule="evenodd" d="M39.395 24.03s2.361-.525 1.255.451-3.173 3.905 2.73 1.802c5.901-2.102 34.82-2.027 34.82-2.027l2.065 1.727-35.041 1.502s-4.28 5.257-6.419 5.107c-2.14-.15-.516-5.257-.516-5.257zm46.252-8.336s1.697.826-.664 3.906c-2.36 3.079-4.647 3.98-.516 6.533s3.171.3 3.171.3l-2.36-3.98c0-.075 4.574-7.585.37-6.759" clip-rule="evenodd"/><path fill="#303030" fill-rule="evenodd" d="m29.14 81.332-1.18-9.688 1.475-.3 1.107 9.762s-.295 1.503-1.402.226" clip-rule="evenodd"/><path fill="#d8d8d8" fill-rule="evenodd" d="M38.218 47.385a6.73 6.73 0 0 1 .885 5.783l-.295 1.502 3.172.075c2.214.676 2.361 6.008.443 7.66-.811.45-1.55 1.052-2.213 1.653-.664.9-3.836 3.905-6.197 4.73-.443.151-1.328.602-2.434 1.052-4.427 1.803-12.837 4.431-14.239-4.881l.222-4.957c.147-2.478-1.107-4.28.59-9.012s6.492-5.483 10.033-4.506c0 0 .59.375 1.77-1.277s6.124-2.478 8.263 2.178" clip-rule="evenodd"/><path fill="#fff" fill-rule="evenodd" d="M32.536 69.465c-4.131 1.802-13.574 5.407-15.05-4.581l.295-5.033c.148-2.477-1.106-4.28.59-9.011s1.771-4.807 10.034-4.506c7.598.225 3.91 12.24 5.311 20.352 0 .826-.516 2.479-1.18 2.78" clip-rule="evenodd"/><path fill="#21bca5" fill-rule="evenodd" d="M34.094 68.789c2.36-.526-14.903 7.736-16.6-3.906l.222-4.956c.147-2.478-1.107-4.28.59-9.012s6.492-5.483 10.033-4.506c-10.918.675-6.197 23.957 5.755 22.38" clip-rule="evenodd"/><path fill="#21bca5" fill-rule="evenodd" d="M42.5 62.555s-6.124 5.406-8.41 6.308c-1.993.751-11.952 6.083-15.493-.376-.443-1.126-.885-2.327-1.107-3.53.664 1.652 4.205 3.155 7.82 3.23 4.87.226 8.263-3.23 11.287-2.703a29 29 0 0 1 5.902-2.93M28.11 34.652l6.296.218-3.948 4.916 1.6 6.118-5.762-2.403-5.123 3.605.32-6.337-4.909-3.932 6.083-1.64 2.134-6.008z" clip-rule="evenodd"/><path fill="#fff" fill-rule="evenodd" d="m26.08 34.322.96 1.53c.107.219.427.328.64.328l1.708.11c.428 0 .747.436.747.874 0 .217-.107.327-.214.545l-1.066 1.42c-.214.22-.214.438-.214.766l.427 1.747c.107.438-.107.875-.534.984H28l-1.6-.655c-.214-.11-.534-.11-.747.109l-1.494.983c-.32.218-.853.109-1.174-.22-.107-.108-.107-.326-.107-.545l.107-1.748c0-.328-.107-.546-.32-.764l-1.386-1.094c-.322-.217-.428-.764-.215-1.201.106-.109.32-.218.427-.327l1.707-.438c.215-.109.427-.218.534-.546l.64-1.64c.107-.436.64-.654 1.068-.546q.48 0 .64.328" clip-rule="evenodd"/><path fill="#000" fill-rule="evenodd" d="M60.498 50.614s0-9.012 4.426-9.012 4.427 8.704 4.427 8.704-3.689-8.704-8.853.308M78.207 50.24s0-8.262 4.058-8.262 4.057 7.976 4.057 7.976-3.379-7.976-8.115.286M74.025 64.952q-.569 0-1.108-.046c-.649-.044-.944 4.026-1.881 4.26-.936.232-1.268-4.792-1.874-4.98-1.747-.54-4.78-1.322-6.093-2.185-2.95-1.945-3.26-4.311-3.26-5.257 0-1.788 5.502 4.07 14.016 4.07h.34c5.82 0 9.428-1.9 10.069-2.253.642-.353 1.763-.488 1.763 1.2 0 .82-1.365 2.081-3.459 3.163-.539.277-.635 6.331-1.757 6.045-1.12-.284-1.275-4.799-1.955-4.61a17.6 17.6 0 0 1-4.801.593" clip-rule="evenodd" opacity=".7"/><path fill="#fff" fill-rule="evenodd" d="m68.559 60.031 1.896 8.547s.339 1.443 1.091 0c.752-1.441 1.845-7.81 1.845-7.81a19.3 19.3 0 0 1-4.832-.737" clip-rule="evenodd"/><path fill="#21bca5" fill-rule="evenodd" d="M70.827 62.263s.878-.383 0 6.316c0 0 0 .811.738 0 .59-1.44 1.83-7.81 1.83-7.81a14 14 0 0 1-3.217-.337z" clip-rule="evenodd"/><path fill="#fff" fill-rule="evenodd" d="m78.084 60.477 2.072 7.667s.901 1.758 1.314 0c.413-1.757 1.306-8.93 1.306-8.93s-1.115.617-4.692 1.263" clip-rule="evenodd"/><path fill="#21bca5" fill-rule="evenodd" d="M80.012 61.73s.79-.54 1.106 6.21a.65.65 0 0 0 .17.324c.118.105 1.247-8.735 1.247-8.735a35 35 0 0 1-3.482 1.262z" clip-rule="evenodd"/><path fill="#1f2348" fill-rule="evenodd" d="m61.97 83.06-.295 8.41s.812 1.954-7.155 1.954H37.773s-3.984-3.907-1.623-5.86c2.36-1.951 8.779-2.552 8.779-2.552l-1.918-4.957z" clip-rule="evenodd"/><path fill="#21bca5" fill-rule="evenodd" d="m47.812 82.46-6.123-.676c-.221 0-.369-.225-.295-.451l.074-.376c0-.225.221-.376.443-.3l6.123.676c.221 0 .369.226.295.451l-.074.377c-.074.15-.221.3-.443.3M48.403 84.338l-6.123-.677c-.221 0-.369-.225-.295-.451l.074-.376c0-.225.221-.376.442-.3l6.124.676c.22 0 .368.226.295.451l-.074.377c-.074.225-.295.375-.443.3" clip-rule="evenodd"/><path fill="#1f2348" fill-rule="evenodd" d="M54.227 92.672c1.588 0 2.877 1.31 2.877 2.929 0 1.617-1.289 2.929-2.877 2.929-1.589 0-2.877-1.312-2.877-2.93 0-1.617 1.288-2.928 2.877-2.928" clip-rule="evenodd"/><path fill="#fff" fill-rule="evenodd" d="M55.478 92.522c1.59 0 2.877 1.31 2.877 2.928s-1.288 2.93-2.877 2.93-2.877-1.312-2.877-2.93 1.288-2.928 2.877-2.928" clip-rule="evenodd"/><path fill="#21bca5" fill-rule="evenodd" d="M55.482 93.797c.897 0 1.623.74 1.623 1.652 0 .913-.726 1.652-1.623 1.652-.896 0-1.623-.739-1.623-1.652s.727-1.652 1.623-1.652" clip-rule="evenodd"/><path fill="#1f2348" fill-rule="evenodd" d="M42.427 92.672c1.589 0 2.877 1.31 2.877 2.929 0 1.617-1.288 2.929-2.877 2.929s-2.877-1.312-2.877-2.93c0-1.617 1.288-2.928 2.877-2.928" clip-rule="evenodd"/><path fill="#fff" fill-rule="evenodd" d="M43.678 92.522c1.589 0 2.877 1.31 2.877 2.928s-1.288 2.93-2.877 2.93-2.877-1.312-2.877-2.93 1.288-2.928 2.877-2.928" clip-rule="evenodd"/><path fill="#21bca5" fill-rule="evenodd" d="M43.676 93.797c.896 0 1.623.74 1.623 1.652 0 .913-.727 1.652-1.623 1.652s-1.623-.739-1.623-1.652.727-1.652 1.623-1.652" clip-rule="evenodd"/><path fill="#1f2348" fill-rule="evenodd" d="m63.893 83.06-1.18 8.41s-.738 1.954 7.23 1.954h16.746s3.983-3.906 1.623-5.86c-2.361-1.95-10.993-2.552-10.993-2.552l.443-4.205z" clip-rule="evenodd"/><path fill="#21bca5" fill-rule="evenodd" d="m73.703 81.632 6.124.376c.22 0 .368.226.368.376v.377c0 .224-.221.376-.368.376l-6.124-.376c-.222 0-.369-.227-.369-.377v-.376c0-.225.221-.451.369-.376M72.963 83.36l6.123.375c.22 0 .369.226.369.376v.377c0 .225-.222.375-.37.375l-6.122-.375c-.222 0-.37-.226-.37-.377v-.376c0-.225.147-.376.37-.376" clip-rule="evenodd"/><path fill="#1f2348" fill-rule="evenodd" d="M70.241 92.672c1.589 0 2.877 1.31 2.877 2.929 0 1.617-1.288 2.929-2.877 2.929s-2.878-1.312-2.878-2.93c0-1.617 1.29-2.928 2.878-2.928" clip-rule="evenodd"/><path fill="#fff" fill-rule="evenodd" d="M68.979 92.522c1.588 0 2.877 1.31 2.877 2.928s-1.289 2.93-2.877 2.93c-1.589 0-2.877-1.312-2.877-2.93s1.288-2.928 2.877-2.928" clip-rule="evenodd"/><path fill="#21bca5" fill-rule="evenodd" d="M68.988 93.797c.897 0 1.623.74 1.623 1.652 0 .913-.726 1.652-1.623 1.652s-1.623-.739-1.623-1.652.727-1.652 1.623-1.652" clip-rule="evenodd"/><path fill="#1f2348" fill-rule="evenodd" d="M82.04 92.672c1.588 0 2.877 1.31 2.877 2.929 0 1.617-1.29 2.929-2.878 2.929s-2.877-1.312-2.877-2.93c0-1.617 1.289-2.928 2.877-2.928" clip-rule="evenodd"/><path fill="#fff" fill-rule="evenodd" d="M80.783 92.522c1.589 0 2.877 1.31 2.877 2.928s-1.288 2.93-2.877 2.93-2.878-1.312-2.878-2.93 1.29-2.928 2.878-2.928" clip-rule="evenodd"/><path fill="#21bca5" fill-rule="evenodd" d="M80.785 93.797c.896 0 1.622.74 1.622 1.652 0 .913-.726 1.652-1.622 1.652s-1.623-.739-1.623-1.652.726-1.652 1.623-1.652" clip-rule="evenodd"/></g><rect width="33.333" height="33.333" x="80" y="90" fill="url(#i)" rx="16.667"/><path fill="#fff" fill-rule="evenodd" d="m90.647 115.429-2.07.555a.355.355 0 0 1-.438-.253l-.555-2.07a.36.36 0 0 1 .036-.271l.653-1.132-.684-1.155a.715.715 0 0 1 .733-1.069l1.127.188.367-.636-.696-1.6a.717.717 0 0 1 .694-1l1.453.087 1.168-2.024q.075-.143.14-.273l-1.608-2.744a.92.92 0 0 1 .002-.937l2.381-4.064a.96.96 0 0 1 .824-.469h4.763c.34 0 .656.178.826.469l2.382 4.064a.93.93 0 0 1 0 .937l-2.384 4.064a.96.96 0 0 1-.824.469h-3.073a5 5 0 0 1-.185.357l-4.815 8.34a.348.348 0 0 1-.217.167m5.788-15.876a1.798 1.798 0 1 0 0 3.596 1.798 1.798 0 0 0 0-3.596" clip-rule="evenodd"/><path fill="#fff" d="m98.724 116.451-1.516 1.515a.36.36 0 0 1-.505 0l-1.516-1.515a.358.358 0 0 1-.105-.253v-1.307l-1.17-.658a.72.72 0 0 1-.341-.803l.19-.328a.7.7 0 0 1 .251-.161l1.07-.401v-.734l-.402-.298 2.03-3.515h2.118v8.204a.35.35 0 0 1-.104.254M100.257 111.073v-3.477c.296-.196.55-.459.736-.776l1.27-2.166q.047.087.102.179l4.816 8.34a.362.362 0 0 1 .036.271l-.555 2.07a.35.35 0 0 1-.166.217.35.35 0 0 1-.271.036l-2.071-.555a.36.36 0 0 1-.217-.166l-.653-1.131-1.342.014a.71.71 0 0 1-.653-.406.71.71 0 0 1 .093-.763l.726-.882-.367-.636z"/><defs><radialGradient id="b" cx="0" cy="0" r="1" gradientTransform="matrix(-120.006 0 0 -106.667 268.756 106.889)" gradientUnits="userSpaceOnUse"><stop stop-color="#265dd7"/><stop offset="1" stop-color="#0582ca"/></radialGradient><radialGradient id="c" cx="0" cy="0" r="1" gradientTransform="matrix(-120 0 0 -106.667 268.75 106.889)" gradientUnits="userSpaceOnUse"><stop stop-color="#41a38e"/><stop offset="1" stop-color="#21bca5"/></radialGradient><radialGradient id="d" cx="0" cy="0" r="1" gradientTransform="matrix(-120 0 0 -106.667 268.75 106.889)" gradientUnits="userSpaceOnUse"><stop stop-color="#41a38e"/><stop offset="1" stop-color="#21bca5"/></radialGradient><radialGradient id="f" cx="0" cy="0" r="1" gradientTransform="translate(262.083 123.556)scale(-33.3333)" gradientUnits="userSpaceOnUse"><stop stop-color="#ec991c"/><stop offset="1" stop-color="#e9b213"/></radialGradient><radialGradient id="h" cx="0" cy="0" r="1" gradientTransform="matrix(-120.006 0 0 -106.667 120.006 106.667)" gradientUnits="userSpaceOnUse"><stop stop-color="#265dd7"/><stop offset="1" stop-color="#0582ca"/></radialGradient><radialGradient id="i" cx="0" cy="0" r="1" gradientTransform="translate(113.333 123.333)scale(-33.3333)" gradientUnits="userSpaceOnUse"><stop stop-color="#ec991c"/><stop offset="1" stop-color="#e9b213"/></radialGradient></defs></svg>