<svg xmlns="http://www.w3.org/2000/svg" width="220" height="32" fill="none" viewBox="0 0 220 32"><path fill="#fff" d="M27.263 10.221 25.09 2.287C24.636.642 22.918-.325 21.24.1L13.16 2.23c-1.244.329-2.33 1.142-2.962 2.225L.423 21.058c-.87 1.471-.356 3.367 1.145 4.219l11.14 6.309c1.5.851 3.435.348 4.285-1.123l9.776-16.604a4.7 4.7 0 0 0 .494-3.638M19.5 17.943l-2.508 4.276c-.178.31-.514.484-.87.504h-5.035c-.356 0-.692-.194-.87-.504l-2.527-4.276a.98.98 0 0 1 0-.987l2.528-4.277c.177-.31.513-.484.869-.503h5.036c.355 0 .691.193.869.503l2.508 4.277a.98.98 0 0 1 0 .987M21.496 6.68a1.914 1.914 0 0 1-2.33-1.316c-.277-.987.335-2.013 1.342-2.284a1.914 1.914 0 0 1 2.33 1.316c.277.987-.335 2.013-1.342 2.284M48.704 23.123q-2.011 0-3.456-.805a5.56 5.56 0 0 1-2.194-2.304q-.768-1.5-.768-3.53t.768-3.51a5.44 5.44 0 0 1 2.194-2.286q1.445-.822 3.456-.823 1.353 0 2.432.384a5.2 5.2 0 0 1 1.883 1.134l-.768 1.865q-.859-.694-1.664-.987-.786-.31-1.81-.311-1.956 0-2.999 1.189-1.024 1.17-1.024 3.346 0 2.175 1.024 3.364 1.043 1.19 3 1.189 1.023 0 1.81-.293.804-.31 1.663-1.024l.768 1.866a5.5 5.5 0 0 1-1.883 1.133q-1.08.402-2.432.403M55.023 22.94v-6.876q0-.585-.037-1.188a12 12 0 0 0-.091-1.17h2.212l.257 2.523h-.366q.183-.915.603-1.518a2.75 2.75 0 0 1 1.06-.896 3.1 3.1 0 0 1 1.354-.292q.33 0 .53.036.201.018.402.092l-.018 2.011a2.5 2.5 0 0 0-.603-.183 4 4 0 0 0-.604-.036q-.786 0-1.334.329-.53.33-.805.914-.255.585-.256 1.335v4.919zM62.59 27.09l-.53-1.81a8.7 8.7 0 0 0 1.445-.42q.585-.238.969-.622.385-.384.64-.987l.457-1.08-.055.897-4.023-9.363h2.432l2.89 7.205h-.53l2.907-7.205h2.304l-4.206 9.747q-.42.987-.914 1.627-.495.658-1.06 1.042a4.6 4.6 0 0 1-1.244.622 10 10 0 0 1-1.482.348M72.702 26.89V16.01a19 19 0 0 0-.146-2.305h2.212l.201 1.939h-.2q.273-.969 1.151-1.536.895-.585 2.067-.585 1.225 0 2.139.585.915.567 1.426 1.645.512 1.06.512 2.56t-.512 2.579-1.426 1.664q-.915.567-2.14.567-1.15 0-2.03-.567-.877-.567-1.17-1.518h.202v5.851zm4.645-5.523q1.096 0 1.755-.75.658-.768.658-2.304t-.658-2.285-1.755-.75q-1.08 0-1.738.75t-.658 2.285q0 1.536.658 2.304.659.75 1.738.75M87.902 23.123q-1.646 0-2.487-.86t-.841-2.578v-4.26H82.8v-1.72h1.774v-2.358l2.285-.586v2.944h2.469v1.72h-2.469v4.114q0 .95.366 1.334.367.384 1.006.384.347 0 .585-.054.255-.055.494-.147v1.81a3 3 0 0 1-.695.183 3.6 3.6 0 0 1-.713.074M94.96 23.123q-1.425 0-2.468-.586a4.1 4.1 0 0 1-1.628-1.664q-.566-1.078-.567-2.56 0-1.48.567-2.541.585-1.08 1.628-1.664 1.042-.585 2.468-.585 1.427 0 2.469.585 1.061.585 1.627 1.664.585 1.06.585 2.541 0 1.482-.585 2.56a3.97 3.97 0 0 1-1.627 1.664q-1.042.585-2.469.586m0-1.756q1.08 0 1.72-.75.64-.768.64-2.304t-.64-2.285q-.641-.75-1.72-.75t-1.718.75q-.64.75-.64 2.285t.64 2.304q.64.75 1.718.75M101.795 22.94V10.048h5.724q2.121 0 3.236 1.024t1.116 2.816q0 1.774-1.116 2.816-1.115 1.043-3.236 1.043h-3.365v5.193zm2.359-7.059h3.091q1.17 0 1.755-.512.585-.53.585-1.48 0-.952-.585-1.464-.585-.53-1.755-.53h-3.091zM116.928 23.123q-1.206 0-2.121-.567-.914-.585-1.426-1.664-.512-1.08-.512-2.579t.512-2.56q.512-1.078 1.426-1.645.915-.585 2.121-.585 1.171 0 2.048.585.897.567 1.189 1.536h-.201l.201-1.939h2.194l-.11 1.152q-.036.586-.036 1.152v6.93h-2.268l-.018-1.901h.22q-.293.951-1.189 1.518t-2.03.567m.64-1.756q1.08 0 1.737-.75.659-.768.659-2.304t-.659-2.285q-.657-.75-1.737-.75-1.078 0-1.737.75-.658.75-.658 2.285t.64 2.304q.659.75 1.755.75M124.43 27.09l-.531-1.81a8.7 8.7 0 0 0 1.445-.42q.585-.238.969-.622t.64-.987l.457-1.08-.055.897-4.022-9.363h2.432l2.889 7.205h-.531l2.908-7.205h2.304l-4.206 9.747q-.42.987-.914 1.627a4.5 4.5 0 0 1-1.061 1.042 4.6 4.6 0 0 1-1.243.622 10 10 0 0 1-1.481.348M134.541 22.94v-6.93q0-.568-.036-1.153-.037-.585-.11-1.152h2.212l.183 1.829h-.219q.384-.951 1.17-1.481.805-.53 1.902-.53t1.81.53q.732.512 1.024 1.609h-.292a3.17 3.17 0 0 1 1.261-1.554q.878-.585 2.012-.585 1.554 0 2.322.914.768.915.768 2.852v5.65h-2.286v-5.558q0-1.098-.365-1.573-.366-.493-1.171-.493-.95 0-1.499.676-.549.658-.549 1.792v5.157h-2.285v-5.56q0-1.096-.366-1.572-.366-.493-1.17-.493-.951 0-1.5.676-.53.658-.53 1.792v5.157zM155.449 23.123q-2.322 0-3.639-1.28t-1.316-3.511q0-1.445.567-2.524t1.572-1.682q1.024-.603 2.377-.603 1.335 0 2.231.566a3.53 3.53 0 0 1 1.353 1.591q.476 1.024.476 2.396v.603h-6.729v-1.207h5.101l-.31.256q0-1.28-.549-1.956-.53-.677-1.554-.677-1.134 0-1.756.805-.603.804-.603 2.249v.238q0 1.5.731 2.249.75.73 2.103.731.786 0 1.463-.201a4.3 4.3 0 0 0 1.317-.695l.676 1.536a4.8 4.8 0 0 1-1.572.823 6.3 6.3 0 0 1-1.939.293M161.005 22.94v-6.93q0-.568-.036-1.153t-.11-1.152h2.213l.183 1.829h-.22q.44-.97 1.298-1.481.86-.53 1.994-.53 1.627 0 2.45.914.822.915.823 2.852v5.65h-2.286V17.4q0-1.116-.439-1.59-.42-.495-1.28-.494-1.06 0-1.682.658-.622.659-.622 1.755v5.212zM175.973 23.123q-1.645 0-2.487-.86-.841-.86-.841-2.578v-4.26h-1.774v-1.72h1.774v-2.358l2.286-.586v2.944h2.468v1.72h-2.468v4.114q0 .95.365 1.334.367.384 1.006.384.348 0 .585-.054.257-.055.494-.147v1.81a3 3 0 0 1-.695.183 3.6 3.6 0 0 1-.713.074M184.153 22.94V10.048h2.358v10.899h6.071v1.993zM194.202 22.94v-9.235h2.286v9.235zm-.128-10.972v-2.23h2.542v2.23zM198.97 22.94v-6.93a18 18 0 0 0-.147-2.305h2.213l.183 1.829h-.22q.44-.97 1.299-1.481.86-.53 1.993-.53 1.628 0 2.45.914.823.915.823 2.852v5.65h-2.286V17.4q0-1.116-.439-1.59-.42-.495-1.28-.494-1.06 0-1.682.658-.621.659-.622 1.755v5.212zM209.988 22.94V9.48h2.285v8.156h.037l3.748-3.932h2.762l-4.663 4.883.018-.915 4.974 5.267h-2.835l-4.004-4.133h-.037v4.133z"/></svg>