<svg xmlns="http://www.w3.org/2000/svg" width="43" height="31" fill="none" viewBox="0 0 43 31"><path fill="#fff" d="M.455 11.525c2.03-8.144 10.278-13.1 18.42-11.07 8.145 2.03 13.1 10.28 11.07 18.422-2.03 8.144-10.278 13.098-18.423 11.068C3.38 27.915-1.576 19.668.455 11.525M14.108 7.79q-.57-.122-1.114-.249l.002-.009-2.404-.57-.464 1.77s1.291.282 1.267.3c.706.168.834.613.812.965l-.813 3.104c.048.011.112.03.181.055l-.184-.044-1.14 4.348c-.086.204-.306.51-.8.395 0 .019-1.266-.302-1.266-.302l-.865 1.9 2.268.537c.422.1.835.206 1.242.305l-.72 2.756 1.74.413.715-2.727q.712.184 1.388.343l-.711 2.714 1.743.413.721-2.75c2.973.535 5.209.319 6.15-2.238.758-2.06-.039-3.248-1.603-4.023 1.14-.25 1.998-.962 2.227-2.434.316-2.011-1.294-3.093-3.495-3.814l.715-2.724-1.745-.413-.694 2.652a77 77 0 0 0-1.396-.313l.7-2.67-1.744-.414zm-.02 7.3c1.182.282 4.971.837 4.408 2.984-.538 2.06-4.184.947-5.366.667zm1.306-4.982c.984.234 4.153.67 3.641 2.623-.491 1.873-3.525.922-4.51.689z"/><path fill="#fff" d="M33.127 12.28a9.06 9.06 0 1 1 0 18.12 9.06 9.06 0 0 1 0-18.12m2.46 4.34c.161-.29-.09-.459-.353-.29l-6.04 5.205c-.546.482 0 .482 0 .482h3.405l-1.863 3.695c-.29.546 0 .74.418.386l5.943-5.238c.546-.45 0-.45 0-.45H33.66z"/></svg>