<svg xmlns="http://www.w3.org/2000/svg" width="84" height="20" fill="none" viewBox="0 0 84 20"><g clip-path="url(#a)"><mask id="b" width="84" height="20" x="0" y="0" maskUnits="userSpaceOnUse" style="mask-type:luminance"><path fill="#fff" d="M83.064 0H0v19.556h83.064z"/></mask><g fill="#fff" mask="url(#b)"><path d="M8.144.001H0v19.556h4.072V.694l6.515 18.863h8.143V0h-4.072v18.863zM43.641.001h4.072v8.143L54.92 0h5.244l-8.03 9.044h3.356l5.757 10.511h-4.576L51.374 9.9l-3.661 4.124v5.533H43.64z"/><path fill-rule="evenodd" d="M24.984 19.557h-4.072L27.402 0h7.566l6.49 19.556h-4.071l-1.544-4.652H28.73l-1.486-2.16zM31.185.872l3.487 10.505h-6.973zM62.518 19.556h4.072l2.261-6.813 1.486 2.16h7.111l1.545 4.653h4.071L76.574 0h-7.566zm13.76-8.18L72.79.87l-3.486 10.505z" clip-rule="evenodd"/></g></g><defs><clipPath id="a"><path fill="#fff" d="M0 0h83.064v19.556H0z"/></clipPath></defs></svg>