<svg xmlns="http://www.w3.org/2000/svg" fill="none" viewBox="0 0 24 24"><mask id="a" width="24" height="24" x="0" y="0" maskUnits="userSpaceOnUse" style="mask-type:luminance"><path fill="#fff" d="M24 0H0v24h24V0Z"/></mask><g mask="url(#a)"><path fill="#fff" fill-rule="evenodd" d="M23.999 12c0 6.628-5.373 12-12 12-6.628 0-12-5.372-12-12 0-6.627 5.372-12 12-12 6.627 0 12 5.373 12 12Zm-9.21-6.634-8 6.893c-.724.639 0 .639 0 .639h4.51L8.83 17.79c-.383.724 0 .979.553.51l7.872-6.935c.724-.596 0-.596 0-.596h-4.553l2.553-5.021c.213-.383-.12-.607-.468-.383Z" clip-rule="evenodd"/></g></svg>