<svg xmlns="http://www.w3.org/2000/svg" width="1151" height="155" fill="none"><path fill="#fff" d="M285 37h15v87h-12l-47-61v61h-15V37h12l47 61V37ZM329 124V37h16v87h-16ZM448 37h12v87h-14V70l-23 54h-10l-24-54v54h-14V37h13l30 68 30-68ZM490 124V37h16v87h-16ZM613 104c-4 10-12 15-18 18l7 9 9 9-11 8-11-10-9-13h-4c-9 0-16-2-23-5-6-4-11-9-14-16-3-6-5-14-5-24 0-9 1-16 5-23 3-7 8-12 14-16 7-3 14-5 23-5s16 2 23 5c6 4 11 9 14 16 4 7 6 14 6 23 0 10-3 18-6 24Zm-56 0c4 6 11 9 19 9s15-3 20-9c4-5 6-13 6-24 0-10-2-18-6-23-5-6-12-9-20-9s-15 3-19 9c-5 5-7 13-7 23 0 11 2 19 7 24ZM718 124l-30-87h8l28 82h-4l29-82h6l28 82h-4l28-82h8l-30 87h-8l-26-79h2l-28 79h-7Zm132 1c-10 0-17-3-23-8-5-6-8-14-8-24 0-6 1-12 4-17a27 27 0 0 1 25-15c6 0 10 1 14 4 4 2 7 5 9 10 2 4 3 9 3 15v3h-49v-5h44l-2 2c0-7-1-13-5-17-3-4-8-6-14-6-7 0-12 2-16 7-3 5-5 11-5 19 0 9 2 15 6 19s10 7 17 7l10-2c4-1 7-3 10-6l3 5-10 7-13 2Zm69 0c-5 0-10-1-14-4s-7-7-9-13h2v16h-8V33h8v44h-2c2-5 5-9 9-12s9-4 14-4c6 0 11 1 15 4s7 6 9 11c3 5 4 10 4 17s-1 12-4 17c-2 5-5 9-9 11-4 3-9 4-15 4Zm-1-6c7 0 12-3 15-7 4-4 6-11 6-19s-2-15-6-19c-3-4-8-7-15-7-6 0-11 3-15 7s-5 11-5 19 1 15 5 19 9 7 15 7Zm65 6-13-2c-4-2-8-3-11-6l3-5a33 33 0 0 0 21 7c6 0 10-1 12-3 3-2 4-5 4-8s0-5-2-7l-9-3-11-3c-5-1-9-3-12-6-2-2-4-6-4-10 0-3 1-7 3-9l8-7 12-2 13 2 9 6-3 6-9-6-9-2c-6 0-9 1-12 4-3 2-4 4-4 8l2 6 8 4 11 3c6 1 10 3 13 5 3 3 4 6 4 10s-1 7-3 10l-8 6-13 2Zm41-1V62h8v62h-8Zm-1-77v-9h10v9h-10Zm49 78c-5 0-9-2-12-5s-5-8-5-15V68h-12v-6h12V45l8-3v20h18v6h-18v36l2 11c2 2 5 3 8 3a17 17 0 0 0 8-1v7h-4l-5 1Zm48 0c-9 0-17-3-22-8-6-6-9-14-9-24 0-6 2-12 4-17a27 27 0 0 1 25-15c6 0 11 1 14 4 4 2 7 5 9 10 2 4 3 9 3 15v3h-49v-5h45l-3 2c0-7-1-13-4-17-4-4-8-6-15-6-6 0-12 2-16 7-3 5-5 11-5 19 0 9 2 15 6 19s10 7 17 7l11-2 9-6 3 5c-2 3-6 5-10 7l-13 2Z"/><path fill="url(#a)" d="m162 74-34-59c-2-4-7-7-12-7H48a14 14 0 0 0-12 7L2 74a14 14 0 0 0 0 14l34 59a14 14 0 0 0 12 7h68a14 14 0 0 0 12-7l34-59a14 14 0 0 0 0-14Z"/><defs><radialGradient id="a" cx="0" cy="0" r="1" gradientTransform="matrix(164 0 0 164 123 152)" gradientUnits="userSpaceOnUse"><stop stop-color="#EC991C"/><stop offset="1" stop-color="#E9B213"/></radialGradient></defs></svg>
