<svg xmlns="http://www.w3.org/2000/svg" fill="none" viewBox="0 0 1151 155">
  <path fill="#fff" d="M284.655 36.862h14.961v87.269h-11.519l-47.038-60.858v60.858h-14.914V36.862h11.472l47.038 60.859V36.862ZM329.404 124.131V36.862h16.062v87.269h-16.062ZM447.569 36.862h12.62v87.269h-13.767V70.162l-23.519 53.969h-10.326l-23.519-53.969v53.969h-13.767V36.862h12.62l29.829 68.322 29.829-68.322ZM490.021 124.131V36.862h16.062v87.269h-16.062ZM613.376 104.246c-4.681 9.3-11.955 14.766-18.403 17.43.757 1.746 4.314 6.614 6.999 9.416 2.684 2.802 5.507 5.65 9.086 8.543l-10.899 8.612c-4.015-2.802-7.503-6.155-11.06-10.059-3.556-3.904-6.585-8.221-9.339-13.021-.665.046-2.524.115-3.694.115-8.88 0-16.291-1.814-22.693-5.42-6.402-3.629-11.289-8.819-14.662-15.616-3.098-6.178-5.094-14.423-5.094-23.747s1.721-16.948 5.14-23.746c3.419-6.775 8.329-11.988 14.731-15.616 6.402-3.629 13.882-5.42 22.578-5.42 8.697 0 16.292 1.814 22.693 5.42 6.402 3.628 11.289 8.818 14.662 15.616 3.396 6.798 5.094 14.422 5.094 23.746 0 9.324-2.042 17.592-5.139 23.747Zm-56.745.068c4.635 5.558 11.106 8.337 19.435 8.337 8.329 0 14.823-2.779 19.435-8.337 4.635-5.58 6.953-13.434 6.953-23.815 0-10.311-2.318-18.349-6.953-23.86-4.635-5.512-11.106-8.291-19.435-8.291-8.329 0-14.823 2.733-19.435 8.221-4.635 5.49-6.952 13.55-6.952 23.93 0 10.38 2.317 18.235 6.952 23.815ZM717.83 124l-30.137-87.074h8.028l27.914 81.64h-4.076l29.024-81.64h6.423l27.666 81.64h-3.705l28.53-81.64h7.658L784.648 124h-7.287L750.56 44.707h2.47L724.87 124h-7.04Zm131.878.988c-9.387 0-16.839-2.799-22.356-8.399-5.434-5.599-8.151-13.38-8.151-23.343 0-6.587 1.194-12.268 3.582-17.044 2.47-4.776 5.887-8.481 10.251-11.116 4.364-2.717 9.428-4.076 15.191-4.076 5.517 0 10.169 1.194 13.957 3.582 3.788 2.306 6.711 5.64 8.769 10.004 2.059 4.282 3.088 9.387 3.088 15.315v3.459h-49.404v-5.435h44.711l-2.1 1.606c0-6.999-1.606-12.474-4.817-16.427-3.211-4.035-7.987-6.052-14.327-6.052-6.752 0-12.022 2.347-15.809 7.04-3.788 4.611-5.682 10.746-5.682 18.403v.865c0 8.234 2.018 14.491 6.052 18.773 4.117 4.282 9.84 6.423 17.168 6.423 3.788 0 7.328-.577 10.622-1.73 3.293-1.152 6.464-3.128 9.51-5.928l3.088 5.558c-2.635 2.717-6.052 4.817-10.251 6.299-4.2 1.482-8.564 2.223-13.092 2.223Zm69.655 0c-5.764 0-10.704-1.441-14.821-4.323-4.035-2.964-6.752-7.04-8.152-12.227h1.359V124h-7.534V33.097h7.534v44.34h-1.359c1.4-5.105 4.117-9.099 8.152-11.98 4.117-2.965 9.057-4.447 14.821-4.447 5.599 0 10.416 1.318 14.451 3.953 4.117 2.552 7.287 6.216 9.51 10.992 2.305 4.693 3.458 10.416 3.458 17.168 0 6.587-1.153 12.268-3.458 17.044-2.306 4.776-5.517 8.44-9.634 10.992-4.035 2.553-8.81 3.829-14.327 3.829Zm-1.112-6.422c6.341 0 11.404-2.141 15.192-6.423 3.788-4.364 5.681-10.704 5.681-19.02 0-8.317-1.893-14.657-5.681-19.02-3.788-4.447-8.851-6.67-15.192-6.67-6.257 0-11.28 2.182-15.068 6.546-3.705 4.364-5.558 10.704-5.558 19.02 0 8.316 1.853 14.657 5.558 19.021 3.788 4.364 8.811 6.546 15.068 6.546Zm64.944 6.422c-4.776 0-9.263-.7-13.462-2.1-4.117-1.399-7.535-3.334-10.252-5.805l2.964-5.557c3.047 2.47 6.341 4.322 9.881 5.557 3.541 1.153 7.246 1.73 11.116 1.73 5.27 0 9.263-.988 11.98-2.965 2.718-1.976 4.076-4.652 4.076-8.028 0-2.635-.864-4.775-2.593-6.422-1.73-1.647-4.611-2.882-8.646-3.706l-11.116-2.346c-5.27-1.235-9.222-3.211-11.857-5.929-2.552-2.717-3.829-6.134-3.829-10.25 0-3.541.906-6.67 2.718-9.388 1.893-2.717 4.569-4.858 8.028-6.422 3.458-1.565 7.534-2.347 12.227-2.347 4.446 0 8.522.741 12.228 2.223 3.792 1.4 6.872 3.417 9.262 6.052l-3.21 5.435c-2.47-2.47-5.27-4.323-8.399-5.558-3.047-1.235-6.299-1.853-9.757-1.853-5.105 0-8.975 1.07-11.61 3.212-2.635 2.058-3.953 4.816-3.953 8.275 0 2.634.824 4.816 2.471 6.546 1.646 1.646 4.24 2.882 7.781 3.705l11.116 2.47c5.599 1.235 9.761 3.129 12.471 5.681 2.72 2.553 4.08 5.929 4.08 10.128 0 3.623-.99 6.793-2.97 9.51-1.97 2.635-4.73 4.653-8.271 6.052-3.54 1.4-7.698 2.1-12.474 2.1Zm41.025-.988V62.122h7.53V124h-7.53Zm-1.24-77.07v-9.386h10.13v9.386h-10.13Zm49.35 78.058c-5.52 0-9.76-1.647-12.72-4.94-2.88-3.294-4.33-8.358-4.33-15.192V68.174h-12.35v-6.052h12.35V44.83l7.54-2.47v19.76h18.28v6.053h-18.28v35.57c0 5.188.82 8.934 2.47 11.24 1.65 2.305 4.28 3.458 7.9 3.458 1.65 0 3.09-.165 4.33-.494 1.31-.329 2.43-.7 3.33-1.112v6.67c-.99.412-2.26.741-3.83.988-1.56.329-3.13.494-4.69.494Zm47.55 0c-9.38 0-16.83-2.799-22.35-8.399-5.44-5.599-8.15-13.38-8.15-23.343 0-6.587 1.19-12.268 3.58-17.044 2.47-4.776 5.89-8.481 10.25-11.116 4.36-2.717 9.43-4.076 15.19-4.076 5.52 0 10.17 1.194 13.96 3.582 3.79 2.306 6.71 5.64 8.77 10.004 2.06 4.282 3.09 9.387 3.09 15.315v3.459h-49.41v-5.435h44.71l-2.1 1.606c0-6.999-1.6-12.474-4.81-16.427-3.22-4.035-7.99-6.052-14.33-6.052-6.75 0-12.02 2.347-15.81 7.04-3.79 4.611-5.68 10.746-5.68 18.403v.865c0 8.234 2.02 14.491 6.05 18.773 4.12 4.282 9.84 6.423 17.17 6.423 3.79 0 7.33-.577 10.62-1.73 3.29-1.152 6.46-3.128 9.51-5.928l3.09 5.558c-2.64 2.717-6.05 4.817-10.25 6.299-4.2 1.482-8.57 2.223-13.1 2.223Z"/>
  <path fill="url(#a)" d="m162.175 74.156-34.17-59.312A13.693 13.693 0 0 0 116.16 8H47.82c-2.4 0-4.756.633-6.832 1.835a13.616 13.616 0 0 0-4.99 5.009L1.828 74.156a13.726 13.726 0 0 0 0 13.688l34.17 59.312A13.636 13.636 0 0 0 47.82 154h68.34c2.4 0 4.757-.633 6.833-1.835a13.613 13.613 0 0 0 4.989-5.009l34.17-59.312a13.667 13.667 0 0 0 .023-13.688Z"/>
  <path fill="url(#b)" fill-rule="evenodd" d="M76.735 31.018c-5.182-3.696-12.215-1.849-14.806 3.696l-2.961 8.131c-1.48 3.327-4.442 5.545-7.404 5.914l-8.883 1.11c-5.922.738-9.993 7.392-7.402 12.936l3.331 7.762c1.11 3.327.74 7.023-1.48 9.61l-5.183 6.653c-3.701 5.175-1.85 12.198 3.702 14.785l8.143 2.957c3.332 1.479 5.553 4.435 5.922 7.393l1.111 8.87c.74 5.914 7.403 9.61 12.956 7.393l7.773-3.327c3.33-1.109 7.032-.739 9.623 1.479l6.663 5.174c5.182 3.696 12.215 1.844 14.806-4.07l2.961-7.758c1.481-3.326 4.442-5.544 7.404-5.913l8.883-1.11c5.923-.738 9.624-7.392 7.403-12.936l-3.332-7.762c-1.11-3.327-.739-7.023 1.481-9.61l5.182-6.653c3.702-5.175 1.847-12.198-4.076-14.785L120.784 58a9.612 9.612 0 0 1-5.923-7.393l-1.11-8.87c-.74-5.914-7.403-9.98-12.955-7.393l-7.774 3.327c-3.331 1.109-7.032.739-9.624-1.478l-6.663-5.175Zm26.651 41.767a3.794 3.794 0 0 0-.485-5.718 3.805 3.805 0 0 0-4.697.173l-22.21 21.438-9.623-9.61a3.798 3.798 0 0 0-6.386 2.903 3.788 3.788 0 0 0 1.204 2.641L73.404 96.44c1.48 1.11 3.701 1.11 5.182 0l24.8-23.655Z" clip-rule="evenodd"/>
  <defs>
    <radialGradient id="a" cx="0" cy="0" r="1" gradientTransform="matrix(164.056 0 0 164.292 123.374 152.099)" gradientUnits="userSpaceOnUse">
      <stop stop-color="#EC991C"/>
      <stop offset="1" stop-color="#E9B213"/>
    </radialGradient>
    <radialGradient id="b" cx="0" cy="0" r="1" gradientTransform="rotate(135.33 51.488 47.634) scale(101.993 102.905)" gradientUnits="userSpaceOnUse">
      <stop offset=".188" stop-color="white"/>
      <stop offset=".613" stop-color="white" stop-opacity=".857"/>
      <stop offset="1" stop-color="white" stop-opacity=".6"/>
    </radialGradient>
  </defs>
</svg>
