<svg xmlns="http://www.w3.org/2000/svg" fill="none" viewBox="0 0 180 325"><path fill="currentColor" fill-rule="evenodd" stroke="#F4F4F6" stroke-linejoin="round" stroke-miterlimit="10" d="M117 57h1v-1 1h-1Zm0 0 1-1 1-1h-1l-1 1v1Zm3-3-1-1v1h1Zm0-1v-1h1v-1h1l-1 1-1 1Zm0 1h2l1-1h-3v1Zm2 1 1-1h1v1h-2Zm-2-9-1-2h1v1l1 1h-1Zm-3-8h-1v-2 1h-1l-1 1-1 2-1 1v1l-1 1v1l-1 1v1h-1v1h-1v-2h-1v1h-1l-1-1v-1h-1l-1-1h-5v1l1 1v2l-1-1h-5l-1 2h-2l-1 1h-1l-1 1v-1l-2-1v-1l-1-1-1-1v-3h1l-1-1 1-2v-1l1-1h-1v-1h-2l1-1v-2l-1-1-1 1v-1 1l-1 1-2 1-1 1h-3l-2 1-1 1v-1l-2 1h-1l-1-1h-2l-1-1 1 2h1v1h1l-1 2v2l1 1h3v1h-1l-2 1v1l-1 1-2 1v1h-2l-1 2h-2l-2-2-1-1h-1v-2l-1-1h-1l-1 1h-6v3h1l1 1-1 1h1v1l-1-1-3 1v2l1 1 1 1 1 2v2l-2 9v3h-2 1l-1-1h-2v1l-3 1h-2v1l-1 1h-2v3l-1 1v1l1 1-1 1h-2v5l1 1 2 4-1 1h3l1 1v1h2l2 1 2-2 1-1v7h7l1-1h3l1-1 1-2 1-1h2l1-1h1l1 1v-1l1 1v8h1l1 1v1h2v1h2l2 1h1l1 1h1l1 1h1l1 1v1h4l1 1 1 1-1 1 1 2-1 1 2 3v1l6 1 1 2v2h1l2 4 1 2-2 4v1l-1 1h1l-1 1 1 1v1l1 1v5h2v1h3l2-1 1 1 1 1 1 5v1h1l1-1 1 1h1v7h2v1l1 1v5h-1l-1 1-1 1-1 1h-1v1l-2 1v1h-1l-1 2h-1v1l-1 1v1l-1 1v2h-1l1 1 2-1v1l1 1h1l1 1v2h1l1-1 1 2h1l1 1h1v2l1-1 1 1 1 1 1 2h1v2l-1 1v1l1 1 1-1 1-1 1-3v-6h1v-1h2v-3h1v-1l-1-1v-1l1 1 1 1h1v1l-1 1-1 2h-1v1l-1 1h-1v1h-1v1h1l3-2 1-2 2-3v-2l1-2 2-3 1-2 1-1v-2h1v-2h-1v-4l-1-1v-1h1v-2h1l-1-1 1-1 1-1h1v-1l1-1 1-1 2-1 1-1h1l1-1h2v-1l2-1 1-1h-1l-1-1h3l1-1v1h-2v1h1l1-1h2v-1h1-1l1 1h4v-2l2-1h1l1-1v-3l1-1v-1l1-1v-1l1-1 1-2v-6l1-1 1-1v-17 1l-1-1 1-1v-2l1-1-1-1h-1v-1l1 1h2v1h-1v1l1-1h1l2-3v-2l1-1v-1l1-1 2-2 1-1 2-2 1-2 1-1 1-2v-8l-2-3v-2l-2-2-2 1h-1v-1h-1l-1-1-1-1h-1l-2-2-1-2h-1l-1-1h-1l-2-2h-5l-1 1v-1l-1-1v1l-1-1v1l-1-1v1l-1-1h-2l-2-1h-1l1 1h-1l-1 1v1l-1-1v1l-1 1v1-4l1-1h-1l1-1-1-1-1-1h-2l-1 1v-2h-1l-1-1v1-1h-1v-1l-1 1v-1h-2l-1-1v1h-1v-1h-1l-1 1v1l-1 1-1 1-1 1h-1v3h-1v4l-1-1v-2l1-1v-3l-1 1h-3v-1h3l1-1h2l1-1v-1l1-1v-2h-1l-1-1-1 1h-1l-2-1h-1l-1 1v2h-2l-1 1-1 2 1-2v-2l-1 1-1 1v1l-1 1 1-2v-1l1-1 1-2 1-1h1v-1l1-1 2-2v-3h-1l-1-1v-1l-1-2-1-2v-3Z" clip-rule="evenodd"/><path fill="currentColor" fill-rule="evenodd" stroke="#F4F4F6" stroke-linejoin="round" stroke-miterlimit="10" d="M104 44h1v1l1 1h1v-1h1v2h1v-1h1v-1l1-1v-1l1-1v-1l1-1 1-2 1-1v-1l-1-1v-1l-2-1-1-1-2-1-1-1h-1l-1 1h-1v1l-1 1v1l1 1v2h1v6l-1 1h-1Z" clip-rule="evenodd"/><path fill="currentColor" fill-rule="evenodd" stroke="#F4F4F6" stroke-linejoin="round" stroke-miterlimit="10" d="M97 46h1l1 1v-2l-1-1v-1h5l1 1h1l1-1v-6h-1v-2l-1-1v-1l1-1v-1l1-1-1-1H95l-1 1v2l-1 1h-1v2l-1 1v1h1v1l1 1v1h1v3h1v1l1 1 1 1Z" clip-rule="evenodd"/><path fill="currentColor" fill-rule="evenodd" stroke="#F4F4F6" stroke-linejoin="round" stroke-miterlimit="10" d="M81 32h2v3l-1 1h2v1h1l-1 1v1l-1 2 1 1h-1v3l1 1 1 1v1l2 1v1l1-1h1l1-1h2l1-2h4l-1-1-1-1v-1h-1v-3h-1v-1l-1-1v-1h-1v-1l1-1v-2h1l1-1v-4l-1-1-2-1v-1h-1l-1 1v1-4l-1-1-2-1-1-1v-1h-1v-1 1l-2 1v1h-1l-1 1v1l1 1h1v1l-1 1h-2v1l-1 1v1l1 2 2 1Z" clip-rule="evenodd"/><path fill="currentColor" fill-rule="evenodd" stroke="#F4F4F6" stroke-linejoin="round" stroke-miterlimit="10" d="m56 49 2 1 1 2h3v-2h2v-1l2-1 1-1v-1l2-1h1v-1h-2l-2-1v-2l1-2h-1v-1l-1-1-1-1 1 1h2l1 1h1l2-1v1l1-1 2-1h3l1-1 2-1 1-1v-1l-2-1-1-2v-1l1-1v-1h2l1-1v-1h-1l-1-1v-1l1-1h1l1-1 1-1v-1h-7 1v-1h1l1-1-1-1v-1h-2l-1-1h-1v-1h-1v1l-1-1v-1h-1v-1h3l1-1h-8l-1 1h-1l-1 1h-1l-1 1-2-2h-9V9h1l-1-1V7l-1-1-2 1-1-1h-1V4l-1-1h-1l-1 1v2l1-1h1v2l-1-1h-1v1h-2l-2 1v7l-1 1h-1v-1l-1-1v-1h1v-1l1-1V7h-1V6l1-1h1l1-1h-1l-2 1-1 2-1 1-1 1-2 2v5h1l1 3 1 1v3l1 1h1l1 1 1-1h1l1 1v-1h2l1 1 3 3h7v3l-1 1h-1v5h1v3l-1 2v1h1v1h1v2l1 2v1ZM51 2h1v2-1h-1V2Zm-3 0 1 1h1-1l-1-1Zm-3-1v1h1l-1-1Zm21 7 1-1 1 1 1-1v1h-3Z" clip-rule="evenodd"/><path fill="currentColor" fill-rule="evenodd" stroke="#F4F4F6" stroke-linejoin="round" stroke-miterlimit="10" d="M45 72v-2l2-9 1-2-1-2-2-1-1-1v-2l3-1 1 1v-2l-1-1h-1v-3h6l1-1h1l1 1v2h1v-1l-1-2v-2h-1v-1h-1v-1l1-2-1-2v-6h1l1-1v-3h-7l-3-3-1-1h-2v1l-1-1h-1l-1 1-1-1h-1l-1-1v-3l-1-2-1-2h-1v-5l2-2V8h1V7h1l1-2 2-1h1V2h-3v1h-2l1 1h-1l-1 1h-1l-1 1h-3l-1 1v2h-1V8h1-1l-1-1-2 1v1l-1 1-1 2 1 1-1 1h-1v1l-1 1h-1v1h-2l1 1v3h-1v-2l-1-1h-1v1l1 1-1 1v1h-1v4l1 1v-1l1 1v1h-1v1h1v1l-1 1 1 1-1 1v4h1v1h1l-1 1v1l-1 1-1 1-1 1-1 1-1 1-1 1-1 2 1 1 2 1 1 1h1l1 1v1h1l1 1h1l1 1 1-1v-1h1l1 1 1 1h2l1 1 1 1v1l1 1 2 1 1 1v1l1 1v2h3v-1h3l1 1 1-1h1l1 1h1v1l-2 4v1h2l1 1Z" clip-rule="evenodd"/><path fill="currentColor" fill-rule="evenodd" stroke="#F4F4F6" stroke-linejoin="round" stroke-miterlimit="10" d="m24 55-1-1-1-1h-2l1 1-1 1-1-1h-1l-1-1h-1v-1l-1-1h-1l-1-1-2-1h-1l-1 1-2 1H5l1 1v3l-2 1v1l1 1-1 1H3l-1 1 1 1v3H2l1 1 1 1 1 1v-2h1v-1 2l1-1H6h1v3l-1 1-1 1h1v1H5v2h1v-1l1 1h1l1 1 1 1h1l3-7v-1l4-1 2-1 3-3 1-3h1v-2l-1-1v-1ZM5 68v-1l1-1v2H5Z" clip-rule="evenodd"/><path fill="currentColor" fill-rule="evenodd" stroke="#F4F4F6" stroke-linejoin="round" stroke-miterlimit="10" d="M47 101h-4v-7l-1 1-2 2-2-1h-2v-1l-1-1h-3l1-1-2-4-1-1v-4l1-1h1l1-1-1-1v-1l1-1v-3h2l1-1 1-1h2l2-1v-1h2l1 1h1l-1-2h-2v-1l2-4v-1h-1l-1-1h-1l-1 1-1-1h-3v1h-3v-2l-1-1v-1l-1-1-2-1-1-1v-1l-1-1-1-1h-2v1l1 1v2h-1l-1 3-3 3-2 1-3 1-1 1-3 7h-1l-1-1-1-1H7v-1l-1 1H5v-2h1v-2l-1 1H4l-1 1-1 2-1 1v1h1v1H1v1h1l1 2H2l-1 1 1 1h1l1 1h1l1 2h1l1 2v1l1 1 1 1 1 1v1l1 1v2h1l1 2v1h-1l1 1 1 2 1 1v1l1 2h1v2h1v1l2 2v1l1 2v1h-1l1 1v1-1l1 1-1 1 2 1h1v1l1 1h1v1h2v1l2 1v1h1l1 1h1l1 1h2v1l1 1h1l1 1 1 1v1h1l1 2 1 1h1l1-1h1l1-1v-2h1v-1h-1l1-2 1-1v-1l-1-3 1-1v-1h-1v-1l1-1v-4l-1-1 1-1v-5l-3-5Z" clip-rule="evenodd"/><path fill="currentColor" fill-rule="evenodd" stroke="#F4F4F6" stroke-linejoin="round" stroke-miterlimit="10" d="m92 139 1-1v-1l2-4v-2l-2-4h-2v-2l-1-2h-6v-2l-2-3 1-1-1-1 1-2-1-1-1-1h-3l-1-1v-1h-2l-1-1h-1l-1-1h-1l-1-1h-3l-1-1-1-1-1-1h-1v-8l-1-1v1l-1-1h-1l-1 1h-1l-2 1-1 2-1 1h-2l-2 1h-3l3 5v5l-1 1 1 1v4l-1 1v1h1v1l-1 1 1 3v1l-1 1-1 2h1v2l1 1v2l1 1v1l2 2v3l-1 2 1 1 1 1 3 9h1l1-1 1-1v-1l2-2h1l1 1h1l1-1v1l2-1h1v3l1 1v-3l1-1h4l1 1v-2l1-2v-3l1-2v-2l1-1 5-1h5l2 2h1v1Z" clip-rule="evenodd"/><path fill="currentColor" fill-rule="evenodd" stroke="#F4F4F6" stroke-linejoin="round" stroke-miterlimit="10" d="M76 149v-2l1-2v-3l1-2v-2l1-1 5-1h5l2 2h1l1 1-1 1 1 1v1l1 1v6l2-1v1h3l2-1 1 1 1 1 1 5v1h1l2-1v1h1l1 1h-1v6h-1v4l-1 1v1l-2 1v1l-1 1h-1l-1 1h-2l-1-1-2-1-3 1h-1v-1l2-1v-4h1l1-1v-1l-1-1-1-1-1-1h-2l-2-1-1-2h-1l-1-1h-3v-2h-1l-1-1-3-2-1-2-1-1ZM98 184v1h1l2-1v1l1 1h1l1 1 1 2 1-1 1 2h1l1 1h1v2l1-1 1 1 1 1 1 2h1v2l-1 1v1h1v2h-1v2l-1 1-1 2h-2v1h-2v-1h-2l-1 1h-1v-1h-1l-1-1h-3l-1-1h-1l-1-2v-4l1-1-1-1v-5l1-1v-5l1-1v-1Z" clip-rule="evenodd"/><path fill="currentColor" fill-rule="evenodd" stroke="#F4F4F6" stroke-linejoin="round" stroke-miterlimit="10" d="m59 152 1-1v-1l2-2h1l1 1h1l1-1v1l2-1h1v3l1 1v-3l1-1h4l1 1 1 1 1 2 3 2 1 1h1v2h3l1 1h1l1 2 2 1h2l1 1 1 1 1 1v1l-1 1h-1v4l-1 1-1 1h1l3-1 2 1 2 1h1l1-1h1l1-1v-1l2-1v-1l1-1v-1l1-1-1-1v-1h3v1l1 1v6h-2v1h-1l-1 1h-1v1l-2 1v1h-1l-1 2h-1v2l-1 2h-1v2h-1v1l-1 1v5l-1 1v5l1 1-1 1v1l-1 1 1 2v3l2 1 1 1 2 1 1 1v1l-1 2v2h3v3l-1 1v2h-1v3l-2 1-2 1v-1 1l-3 1-2 1h-5l-1-1h-2v-1 4h1v2l-1 1v2h1v3l-1 1-2 1h-3l-1-2h-3l1-1h-1l-1 1v2h1v5h3l-1 1h2v-1h-1 1l1-1h1v4l-1 1h-1v-2h-2l-1 1 1 1h1v1l-2 1v2h-1l1 1v2l1 1-1 1-1 1v1h1v1h-3v1h-1l-1 1-1 1v1h-1v1l1 1v2l1 1h1l1 1 1 1h3v4h1l-1 1 1 1h-1l-1 1-1 1v1h-1l-1 1v2l-1 1h1v2l-1 1-1 1-1-1v2l-1 1v3l1 1v2l1 1h-1v1h1v1l2 1 1 1h-2l-1-1h-1v-1h-5l-2 1h-1l-2-1-1-1v-2h-1v-4h-1l-1 1-1 1-1-1-1-3v-5l1-1 1-2 1-2-1-2v-4l1-1-1-2 1-1-1-2v-4l1-1v-1l-1-2h-2l-1-1h2l1-1v-1l-1-1v1h-1v-2l-1-2v-3h-1l-1-1v-3l1-1v-2h-1v-8l-1-1v-2l2-2v-2h1v-1l-2-5v-6l1-1 1-1v-2l-1-1v-4l1-1 1-1v-2l-1-3-1-3v-1l-1-2-1-1v-4h1v-2l1-1v-2l-1-2v-3l1-3v-1l1-3 1-1h1l1-1h-1v-6l-1-1 1-1v-1l-1-1v-1l5-2 1-5-1-1Zm32 164v1l1-1h2l-1-1-1 1h-1Zm-17-13v1l2 2v2l-1-1v1l-1-5Zm1 5v1l1-1 1 1v2h1l1 1 1 1 3 1 2 1v1h1l2-1v2h-2l-1 1h-2l-2-1-1 1-1-1-2 1v-2h3v-1l-1 1h-3l-1-8Z" clip-rule="evenodd"/><path fill="currentColor" fill-rule="evenodd" stroke="#F4F4F6" stroke-linejoin="round" stroke-miterlimit="10" d="M77 318v-2h-2l-1-1h-2l-1-1v1h-1l-1-1v1l2 1h-1l-1-1-1 1h1-2v1h-2l1 1h1v-1h1l1 1 1 1h-1v1h1v1h1l-1-1h1v-1h-1l2-1h1l3 1v-1h1Zm-1-2-2-2h-2l-1-1h-1v-1l1-1h1l1-1v-1h-1l-1 1h-1l-1-1v-1h-1l1-1-1-1h2l1-1v-2h1v1l2-1 1 5 1 8Zm-3-14-1-1-1-1h-5l-2 1h-1l-2-1-1-1v-2l-1-1v-3h-1l-1 1h-1l-2-3v-5l1-1 1-2 1-2-1-2v-4l1-1-1-2v-1h1l-1-2v-4l1-1v-1l-1-2-1-1h-1v1l-1-1h2l1-1v-1l-1-1v1h-1v-2l-1-2v-3h-1v-1l-1-3 1-1v-2h-1v-8l-1-1v-2l2-2v-2h1v-1l-2-5v-6l1-1 1-1v-2l-1-1v-4l1-1 1-1v-2l-1-3-1-3v-1l-1-2-1-1v-4h1v-3h1v-2l-1-2v-3l1-3v-1l1-3 1-1h1l1-1h-1v-6l-1-1 1-1v-1l-1-1v-1l5-2 1-5-1-1-1 1h-1l-3-9-1-1-1-1 1-2v-3l-2-2v-1l-1-1 1-1-1-1-1-1v-1h-1v2l-1 1h-1l-1 1 1 1-1 1 1 1v9l1 1v3l-1 1 1 2v1h-1v3h1-1v5l1 1v3l-1 1v1l1 1v3l-1 1v4l-1 1v6l1 1h-1v1l1 1-1 1-1 1 1 1v1l1 2v2h-1v1l1 1v5l1 2v1l-1 1v2l-1 1v4l-1 1v4h-1v4h-2v3h1l1 1v2l1 2v1h1v2l-1 1v2h-1v1l1 1-1 1v3l2 2v1l1 1 1-1v-1h1l1 1 1-1-1 1-1 1 1 1 1-1v3h-1v-1 5l-1 1v1h1v2h-1v1h1l1 1v1h1v1l-1 1-1 1v3l-1 2v1h1-1v3h-1l1-1v-2h-2l1-1v-1h-4v1l1 1v1h-1v1l-1 1v1l1 1h1l-1-1v-1h1v-1 1l1 1h1v-1l1 1 1 1v1l-1 1h1v1l-1-1v2h4v1h-3v1l1 1 1 1v-1 1h-1l1 1-1 1v2l1 1v1l1 1v-3l1-1v1l-1 1v1h1l-1 1h-1l1 1h-1v3l1 1h2v1h-1l1 1 1-1v1h-1v1h-1l1 1 1 1 1-1v2h-1v1l1 1 1 1v-2h1v2-1l1-1-1-1h-1 2v1h1v-1h-2v-1h1l2 1v1l-1 1 1 2-1 1 1-1-1-2h-1v2-1h-1v1h-2 1v3h2l-1 1 1 1h2l-1-1 1-1-1-1v1-2l1 1 1-1v1l1-1 1 1h1l-1 1v-1h-1l-1 1h-1v2h-1l1 1 1 1v1h1v-2h1l-1-1h1l1-1v-1h2v1h-1v1h-1v1l1 1h-1v1-2h-1v1h-1l1 1 1 1h1l1 1h1v-8h1l1-1h1l1-1v-1l1-1 1 1Zm8 22 1-1-1 1Zm-35-75h-1l1 1 1 1h-1l-1 1 1 1h-3l1-1v-3l-1-1v-1l1-1-1-1 1-1 1 1 1 1v2h-1l1 1Zm1-2h1v1l-1-1Zm-5 8 1-1 1 1h-2Zm6 1v-1 1Zm-1 0v1-1h-1 1Zm-2-1h1l-1 1v-1Zm0 2h1-1Zm-1 1v-1h1v1h-1Zm0 1v1h-1l1-1Zm3 0v1-1Zm-1 0h1v1l-1-1Zm-2 6h1v1h-1v-1Zm0-5v-1h1v1h-1Zm-1 1h-1v-1h1v1Zm2 3h1v1l-1-1Zm1 1h1-1Zm2-7h1-1Zm1 0 1 1 1 1h-1v1h-1l-1 1v-3l1-1Zm-4 3v-1h2l-1 1h-1Zm1 1h-1 2-1Zm0 1h1l1 1-1 1v-1l-1-1Zm-1 2h1v1l-1-1Zm2 16v-1 1l-1-2h-1l1-1h1v1h1v2l1 1h-2v-1Zm-3-1v-1h1l1 2 1 1v1h-1l-1-2h1-2v-1Zm0 1h1v2-1h-1v-1Zm2 5h-1v-3h1v1l1 1h-1v1Zm1 3h-1v-2l1 1v1Zm2 0h-1v1l-1-1v-1l-1-2h2v-1l-1 1v-3h2v2l1 1v4h-1v-1Zm-1 4v-1h-1l1-1h1v1l-1 1Zm0 1v-1 1Zm1-1v2-2Zm1 0h1l1 1v1l-1-1h-1v-1Zm0 1 1 1 1 1-1 1-1-1v-2Zm0 5h-1v-1l1-1h-1l1-1v1h1l1 1h-1l-1 1Zm1 3h-1v-1l1-1h-1 1v2Zm0-1 1-1 1 1v1h-1v-1h-1Zm2 0 1 1h-1v-1Zm-1 3v-1l1-1v1l-1 1Zm3-2-1-1h-1v-2h1v1l1 1v1Zm-1 1v-1h1v1h-1Zm1 1-1-1 1 1Zm1 2h-1v-1h-1 2v1Zm2 4h-2l-1-1h-1l-1-1v-1h1l1 1v1h3v1h1l1 1h-1l-1-1Zm-2 1c-1 0 0 0 0 0h-1 1Zm5 4v-1 1Zm2 0h-1v-1h-2l-1-1h-1v-1h-1v-1h3l1 1h1v1l1-1 1 1h-1v1h-1l1 1Zm1 0h-1v1h1v-1Zm4-1v1h-3l-1-1h1v-1l2 1h1Zm2 0-1-1 1-1h-1v-2h-1v3l1 1h1Zm-3 6h1-1Zm0-1v-1l1 1h-1Zm15 4v-1h1v1h-1Zm-9-4h4l1-1h4v1h1l-1 1h-3v-1h-2l-1 1h2v1h1v2l-1-1h-1l-1-1v1h-2v-1h-1v-1h1v-1l-1 1v-1Z" clip-rule="evenodd"/></svg>