<svg xmlns="http://www.w3.org/2000/svg" width="472" height="200" fill="none" viewBox="0 0 472 200">
  <g clip-path="url(#a)">
    <path stroke="#fff" stroke-width="1.5" d="M.75 7.624A6.874 6.874 0 0 1 7.624.75h457.252a6.874 6.874 0 0 1 6.874 6.874v184.752a6.873 6.873 0 0 1-6.874 6.874H7.624a6.874 6.874 0 0 1-6.874-6.874V7.624Z" opacity=".2"/>
    <circle cx="137" cy="34" r="54" stroke="#fff" stroke-width="2" opacity=".1"/>
    <circle cx="5" cy="34" r="54" stroke="#fff" stroke-width="2" opacity=".1"/>
    <circle cx="269" cy="34" r="54" stroke="#fff" stroke-width="2" opacity=".1"/>
    <circle cx="467" cy="166" r="54" stroke="#fff" stroke-width="2" opacity=".1"/>
    <circle cx="71" cy="166" r="54" stroke="#fff" stroke-width="2" opacity=".1"/>
    <circle cx="203" cy="166" r="54" stroke="#fff" stroke-width="2" opacity=".1"/>
    <circle cx="335" cy="166" r="54" stroke="#fff" stroke-width="2" opacity=".1"/>
    <path stroke="#fff" stroke-linecap="round" stroke-linejoin="round" stroke-width="2" d="M280.355 44.659v7.693M272.662 44.659v7.693M264.969 44.659v7.693M257.275 44.659v7.693M288.048 39.53h-.026a15.693 15.693 0 0 0 8.976-14.105c0-6.436-5.129-14.104-16.669-14.104h-.026a20.123 20.123 0 0 0-11.539 5"/>
    <path stroke="#fff" stroke-linecap="round" stroke-linejoin="round" stroke-width="2" d="M249.583 39.53a15.67 15.67 0 0 1-9.001-14.104c-.026-6.437 5.129-14.13 16.669-14.13 9.206 0 16.668 11.54 24.361 12.822"/>
    <path stroke="#fff" stroke-linecap="round" stroke-linejoin="round" stroke-width="2" d="M249.582 39.53h38.466v15.386a2.572 2.572 0 0 1-2.564 2.565H252.121c-1.436-.026-2.564-1.154-2.564-2.59V39.502l.025.028ZM483.816 168.924a24.878 24.878 0 0 0 5.117-13.394 12.644 12.644 0 0 0-15.508-12.201A12.642 12.642 0 0 0 467 147.07a12.642 12.642 0 0 0-21.934 8.46 24.888 24.888 0 0 0 5.118 13.394 2.996 2.996 0 0 1 .376 3.087c-.992 2.234-4.363 17.986 2.089 17.986 6.162 0 .539-12.533 13.497-12.533h1.689c12.998 0 7.297 12.533 13.497 12.533 6.459 0 3.096-15.744 2.099-17.986a2.998 2.998 0 0 1 .385-3.087ZM-13.385 54.613a26 26 0 1 1 36.77 0 12.435 12.435 0 0 1-17.587 0l-9.59-9.593a2.261 2.261 0 0 0-3.19 3.197 4.525 4.525 0 1 1-6.403 6.396v0Z"/>
    <path stroke="#fff" stroke-linecap="round" stroke-linejoin="round" stroke-width="2" d="M16.982 27.436a3.391 3.391 0 1 1-4.799-4.793 3.391 3.391 0 0 1 4.8 4.793v0ZM20.825 38.486a2.26 2.26 0 1 0 0-4.522 2.26 2.26 0 0 0 0 4.522ZM11.395 50.619a4.522 4.522 0 1 1 6.394-6.396 4.522 4.522 0 0 1-6.394 6.396v0ZM3.4 20.24a3.391 3.391 0 1 1-4.794 4.8 3.391 3.391 0 0 1 4.793-4.8v0ZM79.929 163.25H53.893A2.893 2.893 0 0 0 51 166.143v14.464a2.893 2.893 0 0 0 2.893 2.893h26.036a2.893 2.893 0 0 0 2.892-2.893v-14.464a2.893 2.893 0 0 0-2.892-2.893ZM82.822 178.355l9.618 3.606a1.444 1.444 0 0 0 1.954-1.354v-13.183a1.442 1.442 0 0 0-1.269-1.432 1.43 1.43 0 0 0-.685.082l-9.618 3.606v8.675ZM58.232 169.036h15.911M58.232 157.464a7.232 7.232 0 1 0 0-14.464 7.232 7.232 0 0 0 0 14.464ZM77.036 157.464a5.785 5.785 0 1 0 0-11.57 5.785 5.785 0 0 0 0 11.57Z"/>
    <path stroke="#fff" stroke-linecap="round" stroke-miterlimit="10" stroke-width="2" d="M222.596 173.779h-40.192c-.776 0-1.404.661-1.404 1.477v8.325c0 .815.628 1.476 1.404 1.476h40.192c.776 0 1.404-.661 1.404-1.476v-8.325c0-.816-.628-1.477-1.404-1.477Z"/>
    <path fill="#fff" d="M191.222 166.729a1.41 1.41 0 1 0 .001-2.819 1.41 1.41 0 0 0-.001 2.819Z"/>
    <path stroke="#fff" stroke-linecap="round" stroke-miterlimit="10" stroke-width="2" d="M218.35 156.861h-31.702c-.784 0-1.419.661-1.419 1.476v13.965c0 .816.635 1.477 1.419 1.477h31.702c.784 0 1.42-.661 1.42-1.477v-13.965c0-.815-.636-1.476-1.42-1.476Z"/>
    <path stroke="#fff" stroke-linecap="round" stroke-miterlimit="10" stroke-width="2" d="M212.393 161.795h-5.617c-1.174 0-2.126.989-2.126 2.209v2.631c0 1.22.952 2.209 2.126 2.209h5.617c1.174 0 2.126-.989 2.126-2.209v-2.631c0-1.22-.952-2.209-2.126-2.209ZM200.385 156.57v-14.605c0-.478.466-.815.921-.668l2.934.944c.336.109.7.087 1.021-.06l2.243-1.03a.702.702 0 0 1 .568-.009l2.526 1.064c.319.135.675.147 1.002.036l2.656-.904a.703.703 0 0 1 .932.664v14.568"/>
    <path stroke="#fff" stroke-linecap="round" stroke-linejoin="round" stroke-width="2" d="m350.463 171.614-2.383 10.771a3.256 3.256 0 0 1-3.173 2.546h-19.168a3.244 3.244 0 0 1-3.173-2.546l-2.404-10.775"/>
    <path stroke="#fff" stroke-linecap="round" stroke-linejoin="round" stroke-width="2" d="M329.119 151.428c-7.413 1.509-14.119 5.794-14.119 13.19a7.293 7.293 0 0 0 13.813 3.286 7.247 7.247 0 0 0 2.677 2.939 7.253 7.253 0 0 0 7.647 0 7.251 7.251 0 0 0 2.676-2.939 7.294 7.294 0 0 0 12.25 1.248 7.287 7.287 0 0 0 1.563-4.534c0-7.392-6.706-11.679-14.123-13.19"/>
    <path stroke="#fff" stroke-linecap="round" stroke-linejoin="round" stroke-width="2" d="M335.315 156.806a6.25 6.25 0 1 0-.001-12.5 6.25 6.25 0 0 0 .001 12.5Z"/>
    <path stroke="#fff" stroke-linecap="round" stroke-linejoin="round" stroke-width="2" d="M335.317 144.306a5.53 5.53 0 0 1 1.563-4.688 5.526 5.526 0 0 1 4.687-1.563M328.17 168.952l2.458 15.98M342.46 168.952l-2.458 15.98M149.012 56.103a.96.96 0 0 1-.957.897h-23.069a.956.956 0 0 1-.957-.897l-1.855-29.712h28.695l-1.857 29.712ZM151.825 18.739h-30.609a.956.956 0 0 0-.956.956v5.74c0 .528.428.956.956.956h30.609a.957.957 0 0 0 .957-.957v-5.739a.957.957 0 0 0-.957-.956Z"/>
    <path stroke="#fff" stroke-linecap="round" stroke-linejoin="round" stroke-width="2" d="M150.869 18.74h-28.695l1.695-5.086a.953.953 0 0 1 .907-.654h23.492a.96.96 0 0 1 .907.654l1.694 5.085ZM122.65 34.043h27.74M123.367 45.522h26.345M131.738 39.783h9.565"/>
    <circle cx="401" cy="34" r="54" stroke="#fff" stroke-width="2" opacity=".1"/>
    <path stroke="#fff" stroke-linecap="round" stroke-linejoin="round" stroke-width="2" d="m390.755 30.684-2.047-2.04a8.874 8.874 0 0 1-11.848-11.812l2.783 2.775a2.955 2.955 0 0 0 4.204.028 2.952 2.952 0 0 0 .869-2.105 2.946 2.946 0 0 0-.885-2.099l-2.781-2.773a8.87 8.87 0 0 1 11.84 11.81l1.894 1.89M408.023 38.663l2.777 2.77a8.872 8.872 0 0 1 11.848 11.809l-2.783-2.774a2.959 2.959 0 0 0-5.029 2.09 2.954 2.954 0 0 0 .841 2.086l2.781 2.774a8.87 8.87 0 0 1-12.567-6.488 8.875 8.875 0 0 1 .727-5.321l-2.777-2.77"/>
    <path stroke="#fff" stroke-width="2" d="m406.1 32.981-3.97-3.97a.879.879 0 0 0-1.24 0l-22.077 22.076a3.506 3.506 0 0 0 0 4.96l.25.25a3.509 3.509 0 0 0 4.962 0L406.1 34.222a.874.874 0 0 0 0-1.24ZM415.811 31.538a2.838 2.838 0 0 0 1.97.787c.738 0 1.446-.283 1.969-.787l5.435-5.261A2.655 2.655 0 0 0 426 24.37c0-.715-.293-1.401-.815-1.907l-8.095-7.836a1.05 1.05 0 0 0-1.265-.138 8.051 8.051 0 0 1-5.03.823 7.909 7.909 0 0 1-4.487-2.35 1.068 1.068 0 0 0-.722-.28c-.269 0-.527.1-.722.28l-2.156 2.082a2.655 2.655 0 0 0-.815 1.907c0 .715.293 1.4.815 1.906l13.103 12.68Z"/>
  </g>
  <defs>
    <clipPath id="a">
      <path fill="#fff" d="M0 0h472v200H0z"/>
    </clipPath>
  </defs>
</svg>
