<svg xmlns="http://www.w3.org/2000/svg" width="254" height="32" fill="none" viewBox="0 0 254 32">
  <g clip-path="url(#a)">
    <path fill="#1F2348" fill-opacity=".7" d="M14.598 23.064v-3.559l3.767-3.767v7.326m1.78 0V18.04l1.779 1.36 2.197-1.883v5.547m1.57 0h4.291V12.389l-4.29 3.872"/>
    <path fill="#1F2348" fill-opacity=".35" d="m14.388 17.517-.837-1.047 4.814-4.604 3.454 3.244 6.174-5.547-1.046-1.256 4.29-.942-.836 4.187-1.256-.838-7.431 7.117-3.349-3.14-.314-.314s-3.244 3.35-3.454 3.245"/>
    <path fill="#1F2348" fill-opacity=".35" fill-rule="evenodd" d="M34.167 5.168c-3.663-1.151-8.582-1.256-13.606.104l-1.15-4.081c5.755-1.57 11.407-1.57 16.012-.105 4.605 1.36 8.372 4.291 9.523 8.687 1.152 4.395-.523 8.79-3.767 12.35-3.245 3.557-8.163 6.488-13.92 8.058l-1.046-4.082c5.128-1.36 9.314-3.872 11.93-6.802 2.617-2.93 3.56-5.861 2.826-8.478-.837-2.407-3.14-4.5-6.802-5.651Z" clip-rule="evenodd"/>
    <path fill="#1F2348" fill-opacity=".7" d="M58.342 24.948c2.303 0 4.082-.314 5.547-1.047l.105-4.081a9.34 9.34 0 0 1-4.71 1.255c-1.78 0-3.244-.523-4.29-1.674-1.047-1.151-1.57-2.617-1.57-4.5 0-1.884.523-3.454 1.674-4.605 1.151-1.152 2.616-1.675 4.395-1.675 1.57 0 3.14.419 4.396 1.151V5.586c-1.36-.523-2.93-.732-4.814-.732-3.035 0-5.547 1.046-7.43 2.93-1.885 1.884-2.827 4.396-2.827 7.535 0 2.93.838 5.233 2.512 7.012 1.675 1.78 4.082 2.617 7.012 2.617Zm15.803-10.78c.628 0 1.256.104 1.78.418h.104V10.82c-.21-.105-.628-.21-1.047-.21-1.779 0-3.035.942-3.663 2.826h-.104V10.82h-4.291v13.815h4.29V18.04c0-1.256.21-2.198.733-2.826.524-.732 1.256-1.046 2.198-1.046Zm12.349 11.617 5.652-14.966h-4.082l-2.616 8.478c-.21.627-.314 1.255-.42 1.779h-.104c-.104-.733-.209-1.36-.418-1.884l-2.617-8.373h-4.71l5.652 13.815-.733 1.674c-.418 1.047-1.255 1.57-2.302 1.57-.733 0-1.36-.209-1.884-.523v3.454c.628.209 1.465.314 2.512.314 2.721 0 4.71-1.78 6.07-5.338Zm30.036-.837c1.256 0 2.198-.21 2.826-.523V21.18c-.419.314-.942.419-1.36.419-1.152 0-1.675-.733-1.675-2.198v-5.547h3.14v-3.14h-3.14V6.529l-4.291 1.256v2.93h-2.198v3.14h2.198v6.384c0 3.14 1.465 4.71 4.5 4.71Z"/>
    <path fill="#1F2348" fill-opacity=".7" fill-rule="evenodd" d="m98.216 22.96-.105 7.953h-4.29V10.819h4.29v2.093h.105c1.047-1.57 2.512-2.407 4.396-2.407 1.779 0 3.14.628 4.186 1.884.942 1.256 1.465 2.93 1.465 5.023 0 2.303-.523 4.187-1.674 5.547-1.151 1.36-2.616 2.093-4.5 2.093-1.779-.104-3.036-.732-3.873-2.093Zm-.21-4.501v-1.151c0-1.047.315-1.884.942-2.722.524-.627 1.257-.941 2.094-.941 1.884 0 2.826 1.255 2.826 3.663 0 1.465-.314 2.511-.837 3.244-.628.733-1.361 1.151-2.303 1.151-.838 0-1.465-.314-1.989-.942-.523-.523-.732-1.36-.732-2.302Zm30.247 6.489c-2.303 0-4.082-.628-5.442-1.989-1.361-1.36-1.989-3.035-1.989-5.233 0-2.302.733-4.081 2.093-5.337 1.361-1.256 3.245-1.989 5.547-1.989 2.303 0 4.082.628 5.442 1.989 1.256 1.256 1.989 3.035 1.989 5.128 0 2.303-.628 4.082-1.989 5.442-1.465 1.36-3.349 1.989-5.651 1.989Zm-2.198-10.152c.523-.733 1.256-1.046 2.303-1.046 2.093 0 3.139 1.255 3.139 3.872 0 2.72-.942 4.081-3.035 4.081-2.198 0-3.244-1.36-3.244-3.977 0-1.255.314-2.197.837-2.93Z" clip-rule="evenodd"/>
    <path fill="#1F2348" fill-opacity=".35" d="M147.719 25.785c2.303 0 4.082-.313 5.547-1.046h.105v-4.082a9.34 9.34 0 0 1-4.71 1.256c-1.779 0-3.244-.523-4.291-1.674-1.046-1.152-1.57-2.617-1.57-4.5 0-1.884.524-3.454 1.675-4.605 1.151-1.152 2.616-1.675 4.395-1.675 1.57 0 3.14.419 4.396 1.151V6.424c-1.361-.523-2.93-.733-4.814-.733-3.035 0-5.547 1.047-7.431 2.93-1.884 1.885-2.826 4.396-2.826 7.536 0 2.93.838 5.233 2.512 7.012 1.675 1.78 4.082 2.616 7.012 2.616Zm43.015-.314h4.291V16.89c0-3.663-1.465-5.547-4.5-5.547-1.989 0-3.559.942-4.605 2.616-.733-1.779-1.989-2.616-3.977-2.616-.942 0-1.779.314-2.617.732a4.43 4.43 0 0 0-1.883 1.78h-.105v-2.198h-4.291V25.47h4.291v-7.64c0-.941.209-1.674.628-2.302a2.235 2.235 0 0 1 1.779-.837c1.465 0 2.198.942 2.198 2.93v7.954h4.291V17.83c0-.941.209-1.674.628-2.302.418-.628.942-.942 1.674-.942 1.465 0 2.198 1.047 2.198 3.035v7.85Zm46.781-10.465c.628 0 1.256.104 1.779.418h.105v-3.767c-.21-.105-.628-.21-1.047-.21-1.779 0-3.035.942-3.663 2.826h-.105v-2.616h-4.291V25.47h4.291v-6.593c0-1.256.21-2.093.733-2.826.523-.732 1.256-1.046 2.198-1.046Z"/>
    <path fill="#1F2348" fill-opacity=".35" fill-rule="evenodd" d="M162.79 25.786c-2.303 0-4.082-.628-5.442-1.989-1.361-1.256-1.989-3.035-1.989-5.233 0-2.302.733-4.081 2.093-5.337 1.361-1.256 3.245-1.989 5.547-1.989 2.302 0 4.082.628 5.442 1.989 1.256 1.256 1.989 3.035 1.989 5.128 0 2.302-.628 4.082-1.989 5.442-1.465 1.36-3.349 1.989-5.651 1.989Zm-2.198-10.152c.523-.733 1.256-1.047 2.302-1.047 2.093 0 3.035 1.256 3.14 3.873 0 2.72-.942 4.081-3.035 4.081-2.198 0-3.244-1.36-3.244-3.977 0-1.256.314-2.198.837-2.93Zm42.177 8.163-.105 7.954h-4.291V11.657h4.291v2.093h.105c1.046-1.57 2.511-2.407 4.395-2.407 1.779 0 3.14.628 4.186 1.884.942 1.255 1.466 2.93 1.466 5.023 0 2.303-.524 4.186-1.675 5.547-1.151 1.36-2.616 2.093-4.5 2.093-1.675-.105-3.035-.733-3.872-2.093Zm-.105-4.5v-1.152c0-1.046.419-2.093.942-2.72.523-.629 1.256-.943 2.093-.943 1.884 0 2.826 1.256 2.826 3.663 0 1.466-.314 2.512-.838 3.245-.523.732-1.36 1.151-2.302 1.151-.837 0-1.465-.314-1.988-.942-.524-.523-.733-1.36-.733-2.302Zm24.176 6.175h-4.082v-1.989h-.105c-.942 1.57-2.302 2.303-4.081 2.303-1.361 0-2.407-.419-3.14-1.152-.733-.732-1.151-1.779-1.151-3.035 0-2.72 1.57-4.186 4.814-4.605l3.768-.523c0-1.465-.838-2.302-2.512-2.302-1.675 0-3.244.523-4.71 1.465v-3.245a9.106 9.106 0 0 1 2.408-.837c1.046-.209 1.988-.314 2.825-.314 3.977 0 5.966 1.989 5.966 5.861v8.373Zm-3.977-6.594v.942c0 .837-.21 1.465-.733 1.989-.523.523-1.151.837-1.988.837-.524 0-1.047-.105-1.361-.419-.314-.314-.523-.628-.523-1.15 0-1.048.732-1.675 2.093-1.885l2.512-.314Zm30.56.837h-8.896c.104 1.989 1.36 3.036 3.767 3.036 1.57 0 2.826-.314 3.977-1.047v3.035c-1.256.733-2.93 1.047-5.023 1.047-2.198 0-3.977-.628-5.233-1.884-1.256-1.256-1.884-2.93-1.884-5.233 0-2.303.628-4.082 1.989-5.442 1.36-1.36 2.93-1.989 4.918-1.989 1.989 0 3.559.628 4.71 1.78 1.151 1.15 1.675 2.825 1.675 4.918v1.78Zm-6.175-5.546c1.57 0 2.407.942 2.407 2.93h-5.128c.104-.837.418-1.57.942-2.093.523-.523 1.046-.837 1.779-.837Z" clip-rule="evenodd"/>
    <path fill="#1F2348" fill-opacity=".7" d="M4.445 21.075c-.733-2.616.21-5.547 2.826-8.477 2.616-2.93 6.802-5.442 11.826-6.698L18.05 1.818c-5.756 1.57-10.675 4.5-13.92 8.059C.887 13.435-.787 17.83.364 22.227c1.151 4.395 4.92 7.325 9.524 8.686 4.605 1.465 10.256 1.465 16.012-.105l-1.15-4.081c-5.024 1.36-9.943 1.256-13.606.104-3.663-1.15-5.966-3.244-6.698-5.756Z"/>
  </g>
  <defs>
    <clipPath id="a">
      <path fill="#fff" d="M0 0h254v32H0z"/>
    </clipPath>
  </defs>
</svg>
