<svg xmlns="http://www.w3.org/2000/svg" fill="none" viewBox="0 0 24 24"><path fill="#fff" d="m22.161 7.666-1.63-5.95c-.34-1.234-1.628-1.96-2.887-1.64l-6.059 1.596A3.67 3.67 0 0 0 9.364 3.34L2.03 15.794a2.295 2.295 0 0 0 .86 3.164l8.354 4.731c1.125.639 2.577.262 3.214-.841l7.332-12.453a3.53 3.53 0 0 0 .37-2.729Zm-5.82 5.791-1.882 3.208a.789.789 0 0 1-.652.377H10.03a.756.756 0 0 1-.652-.377l-1.896-3.208a.735.735 0 0 1 0-.74l1.896-3.208a.789.789 0 0 1 .652-.377h3.777c.267 0 .519.145.652.377l1.881 3.208a.735.735 0 0 1 0 .74Zm1.495-8.447a1.436 1.436 0 0 1-1.748-.987c-.207-.74.252-1.51 1.008-1.713a1.436 1.436 0 0 1 1.747.987c.208.74-.252 1.51-1.007 1.713Z" opacity=".8"/></svg>