<svg xmlns="http://www.w3.org/2000/svg" fill="none" viewBox="0 0 38 40">
  <path fill="#25AE8F" fill-rule="evenodd" d="m11.86 20 12.167 11.85 7.642-7.542a3.617 3.617 0 0 1 2.366-.783c.857.03 1.675.364 2.309.942a3.358 3.358 0 0 1 .167 4.608l-10 9.85a3.617 3.617 0 0 1-2.418.917 3.617 3.617 0 0 1-2.416-.917L7.018 24.775v8.458c0 .9-.358 1.75-1 2.392a3.458 3.458 0 0 1-2.425 1 3.458 3.458 0 0 1-3.17-2.094 3.358 3.358 0 0 1-.263-1.298V6.767c0-.892.358-1.75 1-2.392a3.458 3.458 0 0 1 2.433-.992c.909 0 1.784.359 2.417 1a3.358 3.358 0 0 1 1.017 2.384v8.466L21.518.917A3.617 3.617 0 0 1 23.944 0c.9 0 1.759.333 2.417.917l10.142 10c.591.626.92 1.455.916 2.316a3.358 3.358 0 0 1-.916 2.309 3.617 3.617 0 0 1-2.417.916 3.617 3.617 0 0 1-2.416-.916l-7.8-7.384L11.86 20Zm12.167-3.383a3.467 3.467 0 0 0-1.892.608c-.555.38-.984.917-1.233 1.542a3.333 3.333 0 0 0-.25 1.941c.108.659.416 1.267.875 1.75a3.608 3.608 0 0 0 1.783.834c.66.11 1.338.034 1.959-.217.63-.24 1.175-.66 1.566-1.208.392-.545.61-1.196.625-1.867a3.336 3.336 0 0 0-.942-2.458 3.418 3.418 0 0 0-1.15-.717 3.5 3.5 0 0 0-1.341-.208Z" clip-rule="evenodd"/>
</svg>
