<svg xmlns="http://www.w3.org/2000/svg" fill="none" viewBox="0 0 40 40">
  <g fill="#606060" fill-rule="evenodd" clip-path="url(#a)" clip-rule="evenodd">
    <path d="m13.6 36.581-.059.084a4.667 4.667 0 0 1-2.367.908 4.168 4.168 0 0 1-.441.05h-.092a4.775 4.775 0 1 1 .1-9.55h.092a4.742 4.742 0 0 1 4.6 4.583v.292a5.824 5.824 0 0 1-.108.917c0 .125-.075.241-.117.358-.042.117-.092.333-.15.483-.058.15-.158.309-.25.467-.092.158-.1.2-.158.292-.059.091-.259.341-.392.508l-.125.142a4.644 4.644 0 0 1-.558.5l.025-.034Zm8.95-29.916a4.172 4.172 0 0 1-.067-.834c.013-.28.047-.558.1-.833l.083-.225a4.59 4.59 0 0 1 .217-.675c0-.092.083-.175.125-.267a5.2 5.2 0 0 1 .25-.45l.225-.333.183-.217c.19-.226.402-.433.634-.616l.033-.075a4.75 4.75 0 0 1 2.842-.984h.091a4.775 4.775 0 0 1-.091 9.542h-.1a4.716 4.716 0 0 1-4.392-3.375 5.002 5.002 0 0 1-.133-.658Z"/>
    <path d="M22.116 16.217c7.5 2.15 11.725 5 11.592 11.558v.109a10.65 10.65 0 0 1-6.517 10.075c-3.017 1.666-10.284 1.916-14.067 1.9a7.5 7.5 0 0 0 5-6.9v-.45a22.252 22.252 0 0 0 4.542-.842c1.775-.492 2.817-1.592 2.841-3.142v-.108c.042-2.1-1.216-3.2-7.416-4.95-7.434-2.092-12.234-4.3-12.092-11.8v-.108a10.608 10.608 0 0 1 6.042-9.575C14.79.292 19.657.092 22.558.134a7.559 7.559 0 0 0-2.742 5.641 8.17 8.17 0 0 0 .15 1.667 14.084 14.084 0 0 0-3.817.892 2.992 2.992 0 0 0-1.983 2.658v.1c-.05 2.5 1.533 3.333 7.942 5.125h.008Z"/>
  </g>
  <defs>
    <clipPath id="a">
      <path fill="#fff" d="M6 0h27.717v40H6z"/>
    </clipPath>
  </defs>
</svg>
