<svg width="2762mm" height="500mm" viewBox="0 0 2762 500" xmlns="http://www.w3.org/2000/svg"><defs><clipPath id="a"><path transform="matrix(.5 0 0 .5 0 8)" d="M251.6 17.3l63.5 110a32 32 0 0 1 0 32l-63.5 110.1a32 32 0 0 1-27.7 16h-127a32 32 0 0 1-27.8-16l-63.5-110a32 32 0 0 1 0-32l63.5-110a32 32 0 0 1 27.7-16H224a32 32 0 0 1 27.7 16z"/></clipPath><clipPath id="b"><path transform="matrix(.5 0 0 .5 0 8)" d="M251.6 17.3l63.5 110a32 32 0 0 1 0 32l-63.5 110.1a32 32 0 0 1-27.7 16h-127a32 32 0 0 1-27.8-16l-63.5-110a32 32 0 0 1 0-32l63.5-110a32 32 0 0 1 27.7-16H224a32 32 0 0 1 27.7 16z"/></clipPath><clipPath id="c"><path transform="matrix(.5 0 0 .5 0 8)" d="M251.6 17.3l63.5 110a32 32 0 0 1 0 32l-63.5 110.1a32 32 0 0 1-27.7 16h-127a32 32 0 0 1-27.8-16l-63.5-110a32 32 0 0 1 0-32l63.5-110a32 32 0 0 1 27.7-16H224a32 32 0 0 1 27.7 16z"/></clipPath><clipPath id="d"><path transform="matrix(.5 0 0 .5 0 8)" d="M251.6 17.3l63.5 110a32 32 0 0 1 0 32l-63.5 110.1a32 32 0 0 1-27.7 16h-127a32 32 0 0 1-27.8-16l-63.5-110a32 32 0 0 1 0-32l63.5-110a32 32 0 0 1 27.7-16H224a32 32 0 0 1 27.7 16z"/></clipPath><clipPath id="e"><path transform="matrix(.5 0 0 .5 0 8)" d="M251.6 17.3l63.5 110a32 32 0 0 1 0 32l-63.5 110.1a32 32 0 0 1-27.7 16h-127a32 32 0 0 1-27.8-16l-63.5-110a32 32 0 0 1 0-32l63.5-110a32 32 0 0 1 27.7-16H224a32 32 0 0 1 27.7 16z"/></clipPath><clipPath id="f"><path transform="matrix(.5 0 0 .5 0 8)" d="M251.6 17.3l63.5 110a32 32 0 0 1 0 32l-63.5 110.1a32 32 0 0 1-27.7 16h-127a32 32 0 0 1-27.8-16l-63.5-110a32 32 0 0 1 0-32l63.5-110a32 32 0 0 1 27.7-16H224a32 32 0 0 1 27.7 16z"/></clipPath></defs><g transform="translate(1416.9 77.8) scale(2.1612)" clip-path="url(#a)"><g color="#0582ca" fill="#fa7268"><path fill="#88b04b" d="M0 0h160v160H0z"/><circle cx="80" cy="80" r="40" fill="#0582ca"/><path d="M119.2 80a39.5 39.5 0 0 1-67.1 28.1c10.3 2.4 36 3 49.8-14.2 10.4-12.5 8.3-33.3 4.2-43.3A39.4 39.4 0 0 1 119.2 80z" fill="#010101" opacity=".1"/><path d="M43.8 62.3c-2.8.7-3.5-1.6.2-5.3a55.4 55.4 0 0 1 39-14c24 1 31 10 31 10s4 5-2.4 3.7c0 0-31-14.1-67.8 5.6z" fill="#743a4b"/><path d="M45.5 60.2A48.2 48.2 0 0 1 68 50c18-4 39.1 1.6 39.1 1.6s5.9 1.1 5.9 3.3-3 .2-3 .2c-24.3-5.3-47.7-5.6-66 8 0-.1-1-.7 1.5-2.9z" opacity=".2"/><ellipse transform="rotate(-24 94 37.3)" cx="94" cy="37.3" rx="14.8" ry="16.9" fill="#c1c1c1"/><ellipse transform="rotate(-24.3 94.7 36.2)" cx="94.7" cy="36.2" rx="14.1" ry="16.2" fill="#efefef"/><ellipse transform="rotate(-17 95.4 36.7)" cx="95.4" cy="36.7" rx="11.5" ry="13" fill="#fff"/><ellipse transform="rotate(-17 96.1 36.5)" cx="96.1" cy="36.5" rx="3.5" ry="4"/><path d="M93.2 34.2a7 7 0 0 1 3.6 2.2c1.5 1.7.8 4-1.2 3.9 3.4.7 4.6-2.7 3.3-5.9 0 0-2.5-4.1-5.7-.2z" fill="#010101" opacity=".3"/><path d="M42.8 68.7c1.6 2.3 2 5.1 1.2 7.7l-.4 2 4.3.1c3 .9 3.2 8 .6 10.2-1.1.6-2.1 1.4-3 2.2a25 25 0 0 1-8.4 6.3l-3.3 1.4c-6 2.4-17.4 5.9-19.3-6.5l.3-6.6c.2-3.3-1.5-5.7.8-12s8.8-7.3 13.6-6c0 0 .8.5 2.4-1.7s8.3-3.3 11.2 2.9z" fill="#d8d8d8"/><path d="M48.6 88.9s-8.3 7.2-11.4 8.4c-2.7 1-16.2 8.1-21-.5-.6-1.5-1.2-3.1-1.5-4.7.9 2.2 5.7 4.2 10.6 4.3 6.6.3 11.2-4.3 15.3-3.6 2.5-1.6 5.2-2.9 8-3.9z" fill="#010101" opacity=".2"/><g fill="none" stroke="#000" stroke-width=".5"><path d="M41 22l-16 9m24 26L27 70m19-43L19 42m29-8L16 52m25 19L28.5 27M45 65L32 20m3 52L24 34" stroke-linecap="round" stroke-linejoin="round"/><path d="M49 58L37 17" stroke-miterlimit="10"/><path d="M28 68l-8-28m30 1L18 59m35-12L21 65" stroke-linecap="round" stroke-linejoin="round"/></g><path d="M37 103.5l.5 7s.7 2.2-1.1 2.6 6.1.4 5.1-2.6a2 2 0 0 0-2-2l-.4-4.8z" opacity=".1"/><path d="M52.5 35.5c-1.7-9.2-9.7-17.8-17.9-19.4C33 15.8 20 41 12.3 53.5a50 50 0 0 0 9.2 15c9 14 11 15 12 28l1 12s-1 0-1 2 2 3 4 3 4-1 4-3a2 2 0 0 0-2-2l-1-12s-.6-20.2 8-31c8.5-10.6 8-19 6-30zm-18 48l-5-11s3 4 9 0zm-.1-15c-8.9.7-17.1-8.5-18.9-20.9C22 36 30 23 31.7 19.5c8.9.3 16.6 10.3 17.7 23.1 1.2 13.5-5.6 25.1-15 25.9z"/><path d="M34 16.4c3.2.2 5.8 2.5 8 4.6 6 6 8 10 9 21s-3.5 20.5-7.5 24.5-14 6-14 6a8 8 0 0 0 5 1c1.4-.3 2.8-.8 4.1-1.4l2.9 2.4c1.6-3.5 3.5-6.9 5.8-10a29 29 0 0 0 6.4-19.4c-.3-9-3-24.6-19.2-29z" fill="#010101" opacity=".1"/><path d="M35.1 98.1c-5.6 2.4-18.4 7.2-20.4-6.1l.4-6.7c.2-3.3-1.5-5.7.8-12s2.4-6.4 13.6-6c10.3.3 5.3 16.3 7.2 27.1 0 1.1-.7 3.3-1.6 3.7z" fill="#fff"/><path d="M37.2 97.2c3.2-.7-20.2 10.3-22.5-5.2l.3-6.6c.2-3.3-1.5-5.7.8-12s8.8-7.3 13.6-6c-14.8.9-8.4 31.9 7.8 29.8z" opacity=".1"/><path d="M87.2 94h21.2s-.6 11-10.8 11c-2.6.1-5.2-.9-7.1-2.7a13.7 13.7 0 0 1-3.3-8.3z" fill="#603813"/><path d="M105.5 101.3a10 10 0 0 1-7.9 3.5c-2.6.1-5.2-.9-7.1-2.7-3.2-3.3 17.7-4 15-.8z" fill="#f15a24"/><path d="M71.3 68h-1.8v4h1.8c1 .3 1.8 1.2 1.8 2.2V80s-.3 8.1 11.8 7.9c0 0-8.6.2-10-8.3v-5.4c0-.8-.6-1.5-1.3-1.8l-1.9-.4z" fill="#010101" opacity=".5"/><path d="M71.3 68v4l2 .2c.8.3 1.3 1 1.4 1.8v5.4s.9 9 10.8 8.5S95.7 78 95.7 78s0-4.5 2.2-4.5 2.3 4.5 2.3 4.5.4 9.9 10.3 9.9 10.3-8.5 10.3-8.5v-5.8c0-.7.6-1.3 1.3-1.3h1.9v-4l-21.8-.1c-.8.2-1.4.6-2 1.2l-2.1 2-2.2-2.1a3.4 3.4 0 0 0-2.7-1z" opacity=".5" stroke="#000" stroke-miterlimit="10"/><path d="M71.3 68v4l2 .2c.8.3 1.3 1 1.4 1.8v5.4s.9 9 10.8 8.5S95.7 78 95.7 78s0-4.5 2.2-4.5 2.3 4.5 2.3 4.5.4 9.9 10.3 9.9 10.3-8.5 10.3-8.5v-5.8c0-.7.6-1.3 1.3-1.3h1.9v-4l-21.8-.1c-.8.2-1.4.6-2 1.2l-2.1 2-2.2-2.1a3.4 3.4 0 0 0-2.7-1z" fill="none" stroke="#000" stroke-miterlimit="10"/><path d="M64.5 122.5s2.7 5.5 5.5 7.5c1.2.8 2.3 1.8 3.4 2.7v4.4c0 .4-10.2-3-8.9-14.6z" fill="#6d4716"/><path d="M63.8 122.5s5.5-1.4 8.9 2 3.4 8.2 1.4 8.2-2.1.7-10.3-10.2z" fill="#fff"/><path d="M37.9 106.8s4.8-8.2 19.1-.7 2.7 23.2 15.7 30.7c0 0-3.7 3.7-8.4-6-4.5-9.4-4.5-24.6-26.4-24z" fill="#99671d"/><path d="M72.7 136.8s-6.1 2.7-10.2-10.9-8.9-21.8-20.5-21.1c-1.6 0-3.2.6-4.4 1.7-5.5 5-1.3 19.6 4.4 24.2 6.8 5.4 21.8 10.9 28 8.9s2.7-2.8 2.7-2.8z" fill="#444"/><path d="M73.7 117.2l-1 7.4c-1.9-1.4-3.6-2.3-5-2.3l.7-6.2c1.7.5 3.4.8 5.3 1.1z" fill="#ffc866"/><path d="M39.3 109.6h11.6c.3 0 .5.2.5.5v.1c0 .3-.2.5-.5.5H39.3c-.3 0-.5-.2-.5-.5v-.1c0-.3.2-.5.5-.5zM38.2 112.7H53c.3 0 .5.2.5.5v.1c0 .3-.2.5-.5.5H38.2c-.3 0-.5-.2-.5-.5v-.1c0-.2.3-.5.5-.5zM38.2 115.9h17.9c.3 0 .5.2.5.5v.1c0 .3-.2.5-.5.5H38.2c-.3 0-.5-.2-.5-.5v-.1c0-.3.3-.5.5-.5zM39.3 119h17.9c.3 0 .5.2.5.5v.1c0 .3-.2.5-.5.5H39.3c-.3 0-.5-.2-.5-.5v-.1c0-.2.2-.5.5-.5zM40.3 122.2h17.9c.3 0 .5.2.5.5v.1c0 .3-.2.5-.5.5H40.3c-.3 0-.5-.2-.5-.5v-.1c0-.3.3-.5.5-.5zM42.4 125.3h17.9c.3 0 .5.2.5.5v.1c0 .3-.2.5-.5.5H42.4c-.3 0-.5-.2-.5-.5v-.1c0-.3.2-.5.5-.5zM44.5 128.5h15.8c.3 0 .5.2.5.5v.1c0 .3-.2.5-.5.5H44.5c-.3 0-.5-.2-.5-.5v-.1c0-.3.2-.5.5-.5zM48.7 131.6h13.7c.3 0 .5.2.5.5v.1c0 .3-.2.5-.5.5H48.7c-.3 0-.5-.2-.5-.5v-.1c0-.3.2-.5.5-.5zM54 134.8h9.5c.3 0 .5.2.5.5v.1c0 .3-.2.5-.5.5H54c-.3 0-.5-.2-.5-.5v-.1c0-.3.2-.5.5-.5z"/><circle cx="102.8" cy="123.9" r="15.5" fill="#fff"/><path d="M102.8 109.4a14.5 14.5 0 1 1 0 29 14.5 14.5 0 0 1 0-29m0-1c-8.6 0-15.5 6.9-15.5 15.5s6.9 15.5 15.5 15.5 15.5-6.9 15.5-15.5-7-15.5-15.5-15.5z" fill="url(#SVGID_1_)"/><path d="M118.3 123.9a15.5 15.5 0 0 1-28.1 9c23.3 5.6 23.3-18.7 19.1-23a15 15 0 0 1 9 14z" opacity=".1"/><path d="M111.2 122l-1.9 6.6c-.1.4-.4.6-.8.6l-6.8.2c-.4 0-.7-.2-.8-.6l-2.3-6.4c-.1-.4 0-.8.3-1l5.4-4.2a1 1 0 0 1 1 0l5.6 3.9c.2.2.4.5.3.9zM108.8 109.6l-4.2 3.2a1 1 0 0 1-1 0l-5.5-3.8c3.5-1.1 7.3-.9 10.7.6zM99.2 134.1l1.8 5.1c-2.2.1-9-2.8-10-5.2 0-.2.3-.2.6-.2l6.9-.2c.3 0 .6.2.7.5zM90.9 113.9l1.9 5.4c.1.3 0 .7-.3.9l-5.3 4.1c-.1-3.8 1.2-7.5 3.7-10.4zM110.8 137.2l1.4-4.7c.1-.3.4-.6.8-.6l3.2-.1c-1.4 2.2-3.2 4-5.4 5.4zM118 120.7l-1.7-1.1c-.3-.2-.4-.6-.3-.9l.6-1.9c.7 1.2 1.2 2.5 1.4 3.9zM100.8 129.4a.3.3 0 0 0-.2.2l-1.4 3.4a.3.3 0 1 0 .4.2l1.4-3.4a.3.3 0 0 0-.2-.4zM93.6 119.8a.3.3 0 0 0 0 .5l3.3 1.3a.3.3 0 1 0 .2-.4l-3.4-1.3a.3.3 0 0 0-.1 0zM115.3 118.7a.3.3 0 0 0-.1 0l-3.3 1.7a.3.3 0 1 0 .2.4l3.3-1.7a.3.3 0 0 0-.1-.4z"/><path d="M104 112.8a.3.3 0 0 0-.3.3l.2 3.7a.3.3 0 1 0 .5 0l-.2-3.7a.3.3 0 0 0-.3-.3zM109.5 128.8a.3.3 0 0 0-.2.5l2.6 2.6a.3.3 0 1 0 .4-.4l-2.6-2.6a.3.3 0 0 0-.2 0z"/></g></g><g transform="translate(580.1 77.8) scale(2.1612)" clip-path="url(#b)"><g color="#e9b213" fill="#88b04b"><path fill="#fa7268" d="M0 0h160v160H0z"/><circle cx="80" cy="80" r="40" fill="#e9b213"/><path d="M119.2 80a39.5 39.5 0 0 1-67.1 28.1c10.3 2.4 36 3 49.8-14.2 10.4-12.5 8.3-33.3 4.2-43.3A39.4 39.4 0 0 1 119.2 80z" fill="#010101" opacity=".1"/><path d="M33.6 59.8L68 21s2.1-3 6.4 0 44.5 27.4 44.5 27.4c1.5 1 1.1 2 1.3 2.8-.3 1.3-7.5-8.2-46.8-3.8C34 52.9 33.1 61.8 34.1 62.8s-.5-1-.5-3z" fill="#93505c"/><path d="M33.6 59.8L68 21s2.1-3 6.4 0c-3.2-1-23.3 27.5-27 31.8-13.7 4.5-14 9.2-13.2 9.9 1 1.1-.6-1-.6-3z" opacity=".1"/><path d="M42.9 64.6c-.3-10 64.4-16.3 67.5-8.5 2.6.8 15.9-4.8 6.4-7.2s-25.1-5.9-57.6.9-25.9 13.7-25.9 13.7 7.9 2.4 9.6 1.1z"/><path d="M139.5 61.5l-7.4 13.3-12.8 7.7s-.6 4.6-1 5.9c-1.1 4 20.1 2.3 22.3-1.7l-2.8-4.7 11.2-9.6c1.4-2.5.9-3.7-1.9-3.4l-10.9 8.1 6.8-13.4c.6-2.8-2-3.3-3.5-2.2z" fill="url(#side_15a)"/><path d="M139.5 61.5l-7.4 13.3-12.8 7.7s-.6 4.6-1 5.9c-1.1 4 20.1 2.3 22.3-1.7l-2.8-4.7 11.2-9.6c1.4-2.5.9-3.7-1.9-3.4l-10.9 8.1 6.8-13.4c.6-2.8-2-3.3-3.5-2.2z" fill="currentColor"/><path d="M119.4 82.4l6.3-9.8c.8-.9 1.8-1 3.1-.4a142.2 142.2 0 0 0 8.2 6.5s-.6 2.8-4.4 2L129 80s.6 3.1-3.4 3.7-6.2-1.3-6.2-1.3z" fill="currentColor"/><path d="M119.4 82.4l6.3-9.8c.8-.9 1.8-1 3.1-.4a142.2 142.2 0 0 0 8.2 6.5s-.6 2.8-4.4 2L129 80s.6 3.1-3.4 3.7-6.2-1.3-6.2-1.3z" fill="#010101" opacity=".1"/><path d="M25.8 63.7L34 77.3l14.6 7.6s.6 4.8 1 6.1c1.2 4.1-21.6 3-24-1l1.6-5.1-12.7-9.6c-1.6-2.5-.9-3.8 2.3-3.5l12.4 8.1-7.5-13.7c-.6-3 2.3-3.6 4.1-2.5z" fill="currentColor"/><path d="M48.4 84.8l-7.1-9.9c-.9-.9-2.1-1-3.6-.3 0 0-3.9 2.6-2.1 1.5S28 81.6 28 81.6s.6 2.9 5 2l4.4-.9s-.8 3.2 3.8 3.8 7.2-1.7 7.2-1.7z" fill="url(#side_15b)"/><path d="M48.4 84.8l-7.1-9.9c-.9-.9-2.1-1-3.6-.3 0 0-3.9 2.6-2.1 1.5S28 81.6 28 81.6s.6 2.9 5 2l4.4-.9s-.8 3.2 3.8 3.8 7.2-1.7 7.2-1.7z" fill="currentColor"/><g fill="#010101"><path d="M48.4 84.8l-7.1-9.9c-.9-.9-2.1-1-3.6-.3 0 0-3.9 2.6-2.1 1.5S28 81.6 28 81.6s.6 2.9 5 2l4.4-.9s-.8 3.2 3.8 3.8 7.2-1.7 7.2-1.7z" opacity=".1"/><path d="M48.4 84.8l-7.1-9.9c-.9-.9-2.1-1-3.6-.3 0 0-3.9 2.6-2.1 1.5S28 81.6 28 81.6c2.3-1.3 13.5-7.2 20.4 3.2z" opacity=".1"/><path d="M22 64.1c1.3 0 2.5.8 3 1.9l6.9 12.9 2.1-1.6L26 64a2.8 2.8 0 0 0-4 .1zm127 5c.3 1.3-1.2 2-2.2 2.7L136 80l1.9 1.8 11.1-9.4c.6-1 1.3-2.4 0-3.3zm-7.7-8.2s.5.9-.7 2.8l-7.2 11.7 2.5 1.9 7-13.3c0 .2 1-2.7-1.6-3zM13.7 73c1-.5 2 .2 3 1.1l10.8 7.7 2.3-1.4-13-8.5c-1.3-.2-2.8 0-3 1zm125.8 12S125 91 118 88l.4 1.1s3.3 2.5 12.5 1.2c0 0 8.1-1.3 9.1-3.3zM26.3 88.2s16.3 6 23.1 2.7c0 0 .4.9-.1 1.2-3.2 1.5-6 1.8-13.9 1.1 0 0-8-.7-9.8-3.2z" opacity=".1"/><path d="M77 81s0-12 6-12 6 11.6 6 11.6S84 69 77 81zm24-.5s0-11 5.5-11 5.5 10.6 5.5 10.6-4.6-10.6-11 .4z" opacity=".6"/></g><path d="M75 85.4h38.3s-1.1 23.1-19.4 23.1c-5 .2-9.7-1.9-12.9-5.8-5.8-6.8-6-17.3-6-17.3z" fill="#603813"/><path d="M108.1 100.8a16.5 16.5 0 0 1-14.2 7.3c-5 .2-9.7-1.9-12.9-5.8-5.8-6.8 31.9-8.3 27.1-1.5z" fill="#f15a24"/><path d="M75 85h38.3c-.1 2.5-.5 5-1.3 7.3 0 0-22.5 4.2-35.9-.3a33 33 0 0 1-1.1-7z" fill="#fff"/><path d="M46.4 101.1s-1.3 1.9-1.1 5.9c.7 9.7-2.1 19.5 3.5 26.4 5.6 7 16.7 11.8 22.9 8.4s5.6-15.3-1.4-20.2a21.8 21.8 0 0 1-4.4-4.7 40 40 0 0 1-19.5-15.8z" fill="#99671d"/><path d="M46.4 101.1s-1.3 1.9-1.1 5.9c.7 9.7-2.1 19.5 3.5 26.4 12.2 12.9 22.9 8.4 22.9 8.4-10.1 1.1-21.6-35.8-21.6-35.8a30 30 0 0 1-3.7-4.9z" fill="#6d4716"/><path d="M54.8 115.4c-4 0-7.3-3.3-7.3-7.3.1-1.3.5-2.7 1.1-3.8.1-.2 7.1 8.1 10.8 9.5 0-.1-1.3 1.2-4.6 1.6z" fill="#fff"/><path d="M58.8 113.3c-.8.3-1.7.5-2.6.6a6 6 0 0 1-5.9-6.3l.2-1.8a24 24 0 0 0 8.3 7.5z" opacity=".2"/><path d="M94 124.5s-2.8 5.5-5.5 7.5c-1.2.8-2.3 1.8-3.4 2.7v4.4c0 .4 10.2-3 8.9-14.6z" fill="#6d4716"/><path d="M94.6 124.5s-5.4-1.4-8.9 2c-3.4 3.4-3.4 8.2-1.4 8.2s2.2.7 10.3-10.2z" fill="#fff"/><path d="M120.5 108.8s-4.8-8.2-19.1-.7-2.7 23.2-15.7 30.7c0 0 3.7 3.6 8.4-5.9 4.6-9.3 4.6-24.7 26.4-24.1z" fill="#99671d"/><path d="M85.8 138.8s6.1 2.7 10.2-10.9 8.9-21.8 20.4-21.1c1.6 0 3.2.6 4.4 1.7 5.6 5 1.3 19.6-4.4 24.2-6.8 5.4-21.8 10.9-27.9 8.9s-2.7-2.8-2.7-2.8z" fill="#444"/><path d="M84.8 119.2l1 7.4c1.9-1.4 3.6-2.3 5-2.3l-.6-6.2c-1.8.5-3.6.8-5.4 1.1z" fill="#ffc866"/><path d="M119.2 112.6h-11.6c-.3 0-.5-.2-.5-.5v-.1c0-.3.2-.5.5-.5h11.6c.3 0 .5.2.5.5v.1c0 .3-.2.5-.5.5zm1.1 3.2h-14.7c-.3 0-.5-.2-.5-.5v-.1c0-.3.2-.5.5-.5h14.7c.3 0 .5.2.5.5v.1c0 .3-.3.5-.5.5zm0 3.1h-17.9c-.3 0-.5-.2-.5-.5v-.1c0-.3.2-.5.5-.5h17.9c.3 0 .5.2.5.5v.1c0 .3-.3.5-.5.5zm-1.1 3.2h-17.9c-.3 0-.5-.2-.5-.5v-.1c0-.3.2-.5.5-.5h17.9c.3 0 .5.2.5.5v.1c0 .2-.2.5-.5.5zm-1.1 3.1h-17.9c-.3 0-.5-.2-.5-.5v-.1c0-.3.2-.5.5-.5h17.9c.3 0 .5.2.5.5v.1c0 .3-.2.5-.5.5zm-2 3.2H98.2c-.3 0-.5-.2-.5-.5s.2-.5.5-.5h17.9c.3 0 .5.2.5.5 0 .2-.3.5-.5.5zm-2.1 3.1H98.2c-.3 0-.5-.2-.5-.5s.2-.5.5-.5H114c.3 0 .5.2.5.5v.1c0 .2-.3.4-.5.4zm-4.2 3.2H96.1c-.3 0-.5-.2-.5-.5v-.1c0-.3.2-.5.5-.5h13.7c.3 0 .5.2.5.5v.1c0 .2-.3.5-.5.5zm-5.3 3.1H95c-.3 0-.5-.2-.5-.5v-.1c0-.3.2-.5.5-.5h9.5c.3 0 .5.2.5.5v.1c0 .3-.2.5-.5.5z"/></g></g><g transform="translate(998.5 77.8) scale(2.1612)" clip-path="url(#c)"><g color="#795548" fill="#e9b213"><path fill="#0582ca" d="M0 0h160v160H0z"/><circle cx="80" cy="80" r="40" fill="#795548"/><path d="M119.2 80a39.5 39.5 0 0 1-67.1 28.1c10.3 2.4 36 3 49.8-14.2 10.4-12.5 8.3-33.3 4.2-43.3A39.4 39.4 0 0 1 119.2 80z" fill="#010101" opacity=".1"/><path d="M46.8 53.4S34 49 36 37c2-11 14-10 14-10a12 12 0 0 1 12-9c10 0 15 6 15 6s1-7 11-7c5.8-.1 11.1 3 14 8 0 0 13-3 17 6s-14.1 15.3-14.1 15.3-7.9-9.3-6.4-9.8c0 0-4.5 7.5-17.5.5 0 0-7 10-17 4 0 0-7 7.7-15 2.8z" fill="#fff"/><path d="M48 39s13 6 16-5c0 0 15 4 18-4 0 0 10 7 18 2 0 0 4.4 12.1 9.7 9.1A25.5 25.5 0 0 1 104 44l-56 3s-3.7-.2-4.8-1.1c0 0 5.8-.9 4.8-6.9z" opacity=".1"/><path d="M44.2 62.8c1-.8 23.9-19.2 66-7.1 0 0 3.8 1 3.8-1.7l-4-3.6s-10-9-11-14.4c0 0-9 6.3-17-.9 0 0-5 9-18 5.4 0 0-5 8.1-15 2.7 0 0-3 15.3-5 17.2s.2 2.4.2 2.4z" fill="#fff"/><path d="M45.5 60.2A48.2 48.2 0 0 1 68 50c18-4 39.1 1.6 39.1 1.6s5.9 1.1 5.9 3.3-3 .2-3 .2c-24.3-5.3-47.7-5.6-66 8 0-.1-1-.7 1.5-2.9zM64 40s1 8.6-1 10c0 0 0-8.6 1-10zm-14.6 3s.3 10.4-1.8 12c0 0 .7-10.3 1.8-12zm32.5-7.3a28 28 0 0 0 .3 7.1c.8 4.2 2.9 4.5 2.9 4.5-1.5.5-3.6-15.3-3.2-11.6zm17.8 3c.7 2.3 1.6 4.4 2.8 6.5 2 3.6 3.6 3.2 3.6 3.2-.9.9-8-13-6.4-9.7z" opacity=".1"/><path d="M46.7 67.2s-8.4.6-9.9 7.7c0 0-8.5.1-12.1 6.4L16 84.9l.2 3 17.4 18.8 1.4 4.9s4.2 4.9 9.3 5.6l6.7-6.7s-.4-5-2.4-5.8-7.3-3.5-8.3-3.4-6-12.6-6-12.6 12 6.7 16.6-6.2c0-.1 8.8-14.8-4.2-15.3zm70.4-.2l.5.2c3.3.9 5.8 3.5 6.7 6.8 0 0 8.5-.1 12.2 6l8.9 3.4-.1 3-16.9 19.3-1.2 5s-1.1 3-6.2 3.7l-9.8-4.4s.2-5 2.3-5.9 7.2-3.7 8.2-3.6 5.6-12.8 5.6-12.8-4.4 2.6-9 1.7C120 78 118 74 117.1 67z" fill="currentColor"/><path d="M37.7 96c.8 2 1.5 3.2 2.3 4.6-4.8 1-6.2 3-7 5.9l-4-4.3c1.3-4.4 4-5.8 8.7-6.2zm95.4 5c-1.6 1.5-2.5 2.6-3.6 3.8-2.5-4.2-4.8-4.7-7.9-4.4l2.7-5.4c4.5-.3 6.7 1.7 8.8 6z"/><path d="M46.7 67.2c6.3 3 5.1 14.5-2 13-.5 3-1.6 7.1-9.9 6-3 .8-5.7 1.2-5.7 1.2l9.1 14.8c6 1.6 10.5 4.3 12.8 8.3 0 0-.4-5-2.4-5.8s-7.5-3.4-8.5-3.5c-1-.4-5.9-12.6-5.9-12.6s12 6.9 16.7-6.1c-.1-.2 8.8-14.7-4.2-15.3zM117.4 69.4s4.8 2.8 5.8 6.8c0 0 7 1 9 6l3 1-11 19-8 5a11 11 0 0 0-3 3.8l-2-1s.1-5.8 3.2-6.2c2.6-1.3 6.5-3.4 7.6-3.4 2.2-4 3.7-8.4 5.3-12.7a13.7 13.7 0 0 1-9 1.7c1.2-7.1.8-13.2-.9-20z" fill="#010101" opacity=".1"/><path d="M117.2 66S81.4 54.5 44 63.5" fill="none" stroke="#000" stroke-linecap="round" stroke-linejoin="round" stroke-width=".5"/><path d="M101.5 63.4s.5 19.6 7 20.6c4.5 1.1 6.5-1.7 7-4.6s.4-11.4-1.8-14.3L101 62z" fill="#010101"/><ellipse transform="rotate(-3.1 85.3 72.7) scale(1.00001)" cx="85.3" cy="72.7" rx="7.7" ry="10.8" fill="#fff"/><ellipse cx="85.4" cy="74.5" rx="4.6" ry="5.5"/><circle cx="82.5" cy="71.5" r="2.5" fill="#fff"/><path d="M79 62.4c3.6-2.6 11.5 1.6 17 2.6 0 0-10.9-7.2-12.8-8.2S79 62.4 79 62.4z"/><path d="M106.9 90.8c-2.7-3-6.6-4.8-10.6-4.8h-.4c-10.6 1.1-18.1 10.4-15.3 15.3 2.5 5.5 19.9-8.3 27.8.6 2.3 1.3 3.7-1 3.2-3.4-.4-2.2-1.8-4.5-4.7-7.7z" fill="#010101" opacity=".6"/><path d="M80.8 95.6s-1.8 3.4-.3 5.7c2.5 5.5 19.9-8.3 27.8.6.4-2.9.5-5.9.4-8.8.1-.1-27.9 3.3-27.9 2.5z" fill="#fff"/><path d="M80.8 95.6s-1.8 3.4-.3 5.7c2.5 5.5 19.9-8.3 27.8.6.4-2.9.5-5.9.4-8.8.1-.1-27.9 3.3-27.9 2.5z" fill="#fff"/><path d="M88.8 117.9l.2 6.1c3.2 1.2 6.8 1.2 10 0l3.2-11.8s-7.7 4.6-13.4 5.7z" fill="#99671d"/><path d="M91 124.6S89.9 137 91 139s4.4 3 4.4 0 1.6-14.4 1.6-14.4l-3 .2c-1 0-2 0-3-.2z" fill="#f5f5f5"/><path d="M91 139c1.1 2 4.4 3 4.4 0s1.6-14.4 1.6-14.4l-3 .2s0 15.2-3 14.2z" opacity=".1"/><path d="M69.6 123.3s2.6 5.2 5.2 7.1L78 133v4.2c0 .4-9.8-2.8-8.4-13.9z" fill="#6d4716"/><path d="M68.9 123.3s5.2-1.3 8.4 2 3.2 7.8 1.3 7.8-1.9.6-9.7-9.8z" fill="#fff"/><path d="M44.2 108.4s4.5-7.8 18.2-.7S65 129.8 77.3 137c0 0-3.4 3.5-8-5.7-4.4-9-4.3-23.6-25.1-22.9z" fill="#99671d"/><path d="M77.3 137s-5.8 2.6-9.8-10.4S59 105.8 48 106.4c-1.6 0-3 .6-4.2 1.6-5.3 4.8-1.2 18.7 4.2 23.1 6.5 5.2 20.8 10.4 26.7 8.4s2.6-2.5 2.6-2.5z" fill="#444"/><path d="M78.2 118.2l-.9 7.1c-1.8-1.3-3.4-2.2-4.8-2.2l.6-5.9c1.7.5 3.4.8 5.1 1z" fill="#ffc866"/><path d="M45.5 111h11c.3 0 .5.2.5.5s-.2.5-.5.5h-11c-.3 0-.5-.2-.5-.5s.2-.5.5-.5zm-1 3h14c.3 0 .5.2.5.5s-.2.5-.5.5h-14c-.3 0-.5-.2-.5-.5s.2-.5.5-.5zm0 3h17c.3 0 .5.2.5.5s-.2.5-.5.5h-17c-.3 0-.5-.2-.5-.5s.2-.5.5-.5zm1 3h17c.3 0 .5.2.5.5s-.2.5-.5.5h-17c-.3 0-.5-.2-.5-.5s.2-.5.5-.5zm1 3h17c.3 0 .5.2.5.5s-.2.5-.5.5h-17c-.3 0-.5-.2-.5-.5s.2-.5.5-.5zm2 3h17c.3 0 .5.2.5.5s-.2.5-.5.5h-17c-.3 0-.5-.2-.5-.5s.2-.5.5-.5zm2 3h15c.3 0 .5.2.5.5s-.2.5-.5.5h-15c-.3 0-.5-.2-.5-.5s.2-.5.5-.5zm4 3h13c.3 0 .5.2.5.5s-.2.5-.5.5h-13c-.3 0-.5-.2-.5-.5s.2-.5.5-.5zm5 3h9c.3 0 .5.2.5.5s-.2.5-.5.5h-9c-.3 0-.5-.2-.5-.5s.2-.5.5-.5z"/><path d="M94.7 124.7c1.8-.2 2.5 0 4.3-.7l3.2-11.8-4.3 2.4s-.7 10.2-3.2 10z" opacity=".1"/></g></g><g transform="translate(2253.7 77.8) scale(2.1612)" clip-path="url(#d)"><g color="#e9b213" fill="#1a5493"><path fill="#fc8702" d="M0 0h160v160H0z"/><circle cx="80" cy="80" r="40" fill="#e9b213"/><path d="M119.2 80a39.5 39.5 0 0 1-67.1 28.1c10.3 2.4 36 3 49.8-14.2 10.4-12.5 8.3-33.3 4.2-43.3A39.4 39.4 0 0 1 119.2 80z" fill="#010101" opacity=".1"/><path d="M123.9 43.8c-5 1.2-7.2 4.8-13.7 5a4.6 4.6 0 0 1-2.9-1.7l-1-1.7s-1.7-14.7-2.9-17.1c-3.1-6.4-4-10.3-32.2-10.3-2.5-.2-5.1 0-7.6.5-8.8 1-16.5 4.4-13.6 13.6a81 81 0 0 0 3.9 16.2c-.6 1-1.5 1.9-2.5 2.4l-1.7.6c-3 .6-7.5-.2-12.9-1.6-11.1-2.8-10.7 6.4-8.4 9.5s7.3 4.5 15.5 2.1c11.2-3.4 27.5-7.5 41-8.3 15-.6 25.2 1 32.2 3.4 6.5 2.2 16.3-1.8 16.1-5.7s-4.3-8.1-9.3-6.9z" fill="#24425b"/><path d="M58.1 57.3c8.7-2.6 17.6-4.2 26.7-4.8 16.1-.8 33.7 3.9 33.7 3.9 2.1.7 4.5.8 6.6.1 0 0-24.1-9.5-40.9-8.2-8.4.7-24.9 5-24.9 5s-19.8 6.4-30.9 6.3c.2.2 3.2 7.6 29.7-2.3z" opacity=".1"/><path d="M51.4 38.9s33.3-13.2 53.5-4l1 7.4s-11.5-8-52.7 3.4z"/><path d="M83.5 19.1S44 13 50 32.1c1 6.7 2.8 13.2 5.3 19.4 0 0 12.7-2.1 18.2-4.2l-4.8-16.2c0 .1-3.7-11.1 14.8-12z" opacity=".1"/><path d="M42 66.5c-2.1-4-6.6-6.2-11-5.5-8 1-10 4-12 9s7 17 7 17l6 6c1 1 0 7 4 9s13 0 13-4-4-5-5-18l1-9z" fill="currentColor"/><path d="M42 66.5c-2.1-4-6.6-6.2-11-5.5 13 4 14 32 13 19l1-9z" opacity=".1"/><path d="M31 61c-8 1-10 4-12 9s7 17 7 17l6 6c1 1 0 7 4 9 1.8 1 6.6 1.1 10.2-.6 3.7-1.8 3-3.9 2-6.3 1 4.7-12.4 8.3-13.5.6C33.8 89.7 22 80.2 22 73c0-8 4.9-8.9 9-12z" fill="#010101" opacity=".1"/><path d="M44 74c-1-2-6-7-12-4s-3 10 1 14c2.3 2.3 4.8 4.5 7.4 6.5L44 92s3-1 0-5c-2.1-2.9-.9-5.8.1-7.6l.8-1.5C45 77 45 76 44 74z"/><path d="M44 74c-1.5-2.4-6.2-6.8-12-4-6 3-3 10 1 14 2.3 2.3 4.8 4.5 7.4 6.5L44 92c-13-7.2-19.2-27.2 0-18z" fill="#010101" opacity=".2"/><path d="M39 75c-2 0-4 3-2 6s6 3 6 3-1-.9.5-3.5S41 75 39 75z" fill="#010101" opacity=".5"/><path d="M114 61.1s14.3-7.4 19.7-1-5.5 18.1-5.5 24.5.5 9.3-5.3 12.1c-7.1 3.5-6.8-.7-6.8-.7-1.1 0 6.6-19-2.1-34.9z" fill="currentColor"/><path d="M118.6 59.2s9.9-1.5 11.6 4.4c2 6.7-3.8 11.7-4.8 16.7S125 87 124 92c-.4 2.8-2.4 5-5.1 5.9 0 0 9.7-1.1 9.3-9.6-.4-7.7 1.9-10.2 3.8-13.9 1.7-3.6 4.9-8.9 2-13.8-2.6-4.7-12-2.7-15.4-1.4z" fill="#010101" opacity=".1"/><path d="M118 69.7c.5-2 3.6-6.7 7.3-3.8 3.7 2.8 1.9 9.6-.6 13.4-1.4 2.2-3.2 5-4.6 6.2-.7.6-2.5 1.3-2.5 1.3s.3-1.5.5-4.6a48.7 48.7 0 0 0-.4-9.7c-.1-1.3-.3-1.6.2-2.8z"/><g fill="#010101"><path d="M118 69.7c0-.5 3.3-7 7.3-3.8 3.6 3 1.9 9.6-.6 13.4-1.4 2.2-3.3 5-4.6 6.2-.7.7-2.5 1.3-2.5 1.3 8.2-6.7 12.1-26 .3-17z" opacity=".2"/><path d="M121 70.7c1.2 0 2.5 2.8 1.2 5.7-1.2 2.9-4 3-4 3v-3.7c-.4-2.6 1.6-5 2.8-5z" opacity=".5"/><path d="M104.7 101.1c-2.8 3.2-6.9 5-11.1 5h-.4c-4.3 0-8.3-1.8-11.1-5-3-3.3-4.9-8.6-4.9-11 0-2.1 3.5.6 12.3 1.3l3.7.1h.5c7.9 0 12.8-2.5 13.7-3s2.4-.7 2.4 1.6-2.1 7.7-5.1 11z" opacity=".6"/></g><ellipse transform="rotate(-3.1 82.8 75.8) scale(1.00001)" cx="82.8" cy="75.8" rx="6.2" ry="8.6" fill="#fff"/><ellipse cx="82.9" cy="76.3" rx="3.7" ry="4.4"/><circle cx="80.5" cy="73.9" r="2" fill="#fff"/><path d="M77.7 67.3c3.5-4.1 7-4 10.4 0 0 0-4.8-9.6-10.4 0z"/><ellipse transform="rotate(-3.1 105.8 75.9) scale(1.00001)" cx="105.8" cy="75.9" rx="6.2" ry="8.6" fill="#fff"/><ellipse cx="105.9" cy="76.3" rx="3.7" ry="4.4"/><circle cx="103.5" cy="73.9" r="2" fill="#fff"/><path d="M100.7 67.3c3.5-4.1 7-4 10.4 0 0 0-4.8-9.6-10.4 0z"/><path d="M68.3 67h-1.8v4h1.8c1 .3 1.8 1.2 1.8 2.2V79s-.3 8.1 11.8 7.9c0 0-8.6.2-10-8.3v-5.4c0-.8-.6-1.5-1.3-1.8l-1.9-.4z" fill="#dd6901"/><path d="M68.3 67v4l2 .2c.8.3 1.3 1 1.4 1.8v5.4s.9 9 10.8 8.5S92.7 77 92.7 77s0-6.5 2.2-6.5 2.3 6.5 2.3 6.5.4 9.9 10.3 9.9 10.3-8.5 10.3-8.5v-5.8c0-.7.6-1.3 1.3-1.3h1.9v-4l-21.8-.1c-.8.2-1.4.6-2 1.2l-2.1 2-2.2-2.1a3.4 3.4 0 0 0-2.7-1z" fill="none" stroke="#000" stroke-miterlimit="10" stroke-width="2"/><path d="M90.1 96.5l-.2-4.3c3.3.4 6.7.3 10-.4l.2 4.2c.1.5-.2.7-.7.9l-4 .2-.4-3.4-.3 3.3-3.9.2c-.5-.1-.7-.3-.7-.7z" fill="#fff"/><path d="M86.8 118.7L108 109c5.8 10.7 5 19.9 0 28.1l-21.2-10.8c.9-1.1 1.9-5.2 0-7.6z"/><path d="M86.8 118.7L108 109c5.8 10.7 5 19.9 0 28.1l-21.2-10.8c.9-1.1 1.9-5.2 0-7.6z" opacity=".1"/><path d="M97.9 125.9l-7.1-1.6s-1.2-.1-1.1-.8 1.3-.5 1.3-.5l7.2.2c.7.1 1.2.8 1.1 1.5s-.7 1.2-1.4 1.2zm.3-5.9l-7.1 1.4s-1.1.4-1.3-.3 1-1 1-1l6.8-2.7a1 1 0 0 1 1.4.9v.1c.3.7-.1 1.3-.8 1.6z" fill="#010101" opacity=".5"/><path d="M79.1 117.7l-26-12c-5.5 9.6-5.5 21.2 0 34.6l26.1-13.4c-1.2-1.3-3.8-5.4-.1-9.2z"/><path d="M79.1 117.7l-26-12c-5.5 9.6-5.5 21.2 0 34.6l26.1-13.4c-1.2-1.3-3.8-5.4-.1-9.2z" fill="#fff" opacity=".1"/><circle cx="83.9" cy="122.1" r="6.7"/><path d="M66.8 127l9.1-2.2s1.6-.2 1.5-1c-.2-.6-1.8-.3-1.8-.3l-9.3.9c-.8 0-1.4.8-1.3 1.6.2.8 1 1.2 1.8 1zm-.5-7l9.3 1.5s1.5.4 1.7-.3-1.3-1-1.3-1l-8.9-2.7c-.8-.2-1.6.2-1.9 1-.2.7.3 1.4 1.1 1.6z" fill="#010101" opacity=".5"/></g></g><g transform="translate(1835.3 77.8) scale(2.1612)" clip-path="url(#e)"><g color="#1a5493" fill="#e9b213"><path fill="#21bca5" d="M0 0h160v160H0z"/><circle cx="80" cy="80" r="40" fill="#1a5493"/><path d="M119.2 80a39.5 39.5 0 0 1-67.1 28.1c10.3 2.4 36 3 49.8-14.2 10.4-12.5 8.3-33.3 4.2-43.3A39.4 39.4 0 0 1 119.2 80z" fill="#010101" opacity=".1"/><path d="M40.1 78.3S52 55.6 84.4 54.8c28.2-1.9 33.6 16.1 33.6 16.1 33.1-25 2.8-38.9 2.8-38.9a22.3 22.3 0 0 1-14.3 17.4C76.4 56.7 59 42.8 59 42.8s-10.5-12.1-21.2-9.2c-.1.3-10.2 1.5-12.4 15.5a26.4 26.4 0 0 0 14.7 29.2z" fill="#743a4b"/><path d="M40.9 33c-2.7.4-5.8.8-5.8 6.2 0 2.7 3.2 5.9 7.6 8.6S52 52.5 57 53.7l6.4 1.2c13.7-2.8 25.9-4.8 37.9-.9 0 0 31.8-12.8 21.3-20.8-4.2-3.8-11.4 1.8-16.7 5-3.4 2-5.9.9-5.9.9s-1.2-7.7-2-10.2c-2-6.6-5.8-13.8-23.8-13.8S58.9 26.3 58.9 26.3l.1 13.2c-1.7 0-4.4-1.1-7.7-3.1 0 0-5.5-3.7-10.4-3.4z" fill="#93505c"/><path d="M39.6 77.7s15-22.9 44.3-23.5 34.2 16.1 34.2 16.1L123 67S104 49.7 83 52c-34.8 2.3-48.5 21.9-48.5 21.9z" opacity=".6"/><path d="M82 15.8S59.7 11 58.8 24.2l.4 15c3.4.2 6.8 0 10.1-.6V25.4c.1 0-1.4-9.7 12.7-9.6z" fill="#743a4b"/><path d="M36.3 92.3L36 99c-.3-.3 2.7 2.3 5 0l-.4-7.8zm93.3 4.8l-.8 6.7c-.3-.3 2.5 2.5 5 .3l.1-6.1a6 6 0 0 1-4.3-.9zM34 42.2s.9-4.3 3.5-1.7 5.8 16.1 2.4 23.9c-.8 4.7-.6 5.7-.6 5.7-1.1.5-2.4.5-3.5 0z" fill="#e0e0e0"/><path d="M37.5 40.4S44 50 39.9 64.3c.5 5.7-.3-22.2-2.4-23.9z" fill="#fff" opacity=".1"/><path d="M34.6 42c.3 0 .5.2.5.5l1.7 26.9c0 .3-.2.5-.5.5s-.5-.2-.5-.5l-1.7-26.9c0-.2.2-.4.5-.5z" fill="#fff" opacity=".3"/><path d="M129.5 50.8l-.8 15.4s-.2 4.6 4.4 4.9 5.5-2.8 5.6-4.3l.8-15.4s-1.2.3-1.4 4.2-1.2 7.6-2 7.6h-.6c-.5 0-.9-.2-.8-2.4.2-3.1.5-9.2-.3-9.3s-1.3 9.2-1.3 9.2-.1 2.3-1.7 2.2-1.1-8.5-1.1-8.5.4-4-.8-3.6z" fill="#e0e0e0"/><path d="M139.5 51.3s-.9 3-1.4 10.7c0 0 0 8.4-2.6 8.7 0 0 2.8.4 3.3-8.8zm-5.1 8.9l.5-8.5s-.4 8.5-.1 10-.5 1.5-.5 1.5z" fill="#fff" opacity=".3"/><path d="M130.9 77l-2.4 7.8 2 .2 2.2-7.3z" fill="#e0e0e0"/><path d="M14.2 80.3l6.1-.9c1.7-.2 3.3.9 3.5 2.6s-.9 3.3-2.6 3.5l-6.1.9c-1.7.2-3.3-.9-3.5-2.6s.9-3.2 2.6-3.5z" fill="#ffb22d"/><path d="M27 68.2a7 7 0 0 0-1.7 5.9l.1 1.6s-7.9-2.3-7.6 4.2l.1 1.7c.2 5.3.8 7.8 4.1 9.7 3.6 2.1 4.2-1.4 6.5-.2s14.6 10.2 18.1-1.6l.5-5.2c.2-2.6 1.8-4.3.6-9.4s-6.1-6.6-10-6.1c0 0-.6.3-1.7-1.6s-6-3.5-9 1z" fill="#fff"/><path d="M28.4 91c-2.5-.9 14.7 10.2 18.1-1.6l.5-5.2c.2-2.6 1.8-4.3.6-9.4s-6.1-6.6-10-6.1C49 70.9 40.8 94.4 28.4 91z" opacity=".1"/><path d="M19 88.4c.8 1.1 1.8 2 2.9 2.8 3.6 2.1 4.2-1.4 6.5-.2 2 1.1 11.7 8 16.4 1.9.7-1.1 1.2-2.3 1.7-3.5-1 1.6-4.9 2.7-8.7 2.3-5.2-.5-8.3-4.6-11.5-4.4-5.4 2.1-7.3 1.1-7.3 1.1z" opacity=".2"/><path d="M25 80.4l4.4-.4c.2 0 .5.2.5.4s-.2.5-.4.5l-4.4.4c-.2 0-.5-.2-.5-.4s.1-.4.4-.5zm.2 1.8l4.4-.4c.2 0 .5.2.5.4s-.2.5-.4.5l-4.4.4c-.2 0-.5-.2-.5-.4 0-.3.2-.5.4-.5zm.3 1.7l4.4-.4c.2 0 .5.2.5.4s-.2.5-.4.5l-4.4.4c-.2 0-.5-.2-.5-.4s.1-.4.4-.5z" fill="#515151"/><path d="M124 73.5a6.8 6.8 0 0 0-1.6 5.8l.1 1.6-3.3-.3-1.4 7.7c.8.6 1.5 1.2 2.1 1.9.6 1 3.5 4.4 5.8 5.5l2.4 1.3c4.4 2.4 12.7 6 15.2-3.3l.4-5.1c.2-2.5 1.7-4.2.4-9.2s-6-6.3-9.8-5.8c0 0-.6.3-1.7-1.5s-5.8-3-8.6 1.4z" fill="#d8d8d8"/><path d="M127.2 96.5c4 2.3 13.4 7.1 16.1-2.8l.4-5.1c.2-2.5 1.7-4.2.4-9.2s-1.3-5-9.8-5.8c-7.8-.7-5.5 11.9-7.8 20-.3.8.1 2.5.7 2.9z" fill="#fff"/><path d="M125.7 95.7c-2.4-.8 14.4 9.6 17.6-1.9l.4-5.1c.2-2.5 1.7-4.2.4-9.2s-6-6.3-9.8-5.8c11.1 2 3.5 25-8.6 22z" opacity=".1"/><path d="M117.8 88.3s5.7 6.2 7.9 7.4c2 1 11.6 7.6 16 1.5a26 26 0 0 0 1.6-3.4c-.9 1.6-4.7 2.7-8.4 2.4-5.1-.3-8.1-4.3-11.3-4.1a26.3 26.3 0 0 0-5.8-3.8z" opacity=".2"/><path d="M94 85s4.8-2 8.2 0c.8.4.7 1.1 0 2 0 0-3.4 4-4.1 4s-4.8-4-4.8-4c-.6-1-.3-1.7.7-2z" fill="#3a3a3a"/><path d="M99.3 84.1c1 .2 2 .4 3 .9.8.4.7 1.1 0 2a22.1 22.1 0 0 1-4.1 4c1.9-3.2 2.6-6.3 1.1-6.9z" opacity=".2"/><path d="M96 100c1.6.2 2-5.8 2-9m-10 4.5s7.5 11 18 0" fill="none" stroke="#000" stroke-linecap="round" stroke-linejoin="round"/><path d="M79 82s0-12 6-12 6 11.6 6 11.6S86 70 79 82zm23 0s0-12 6-12 6 11.6 6 11.6-5-11.6-12 .4z" fill="#010101" opacity=".6"/><path d="M96 86s4-1 6 0z" fill="#fff" opacity=".3"/><path d="M93 90c-9.9-3.8-20.4-6.2-31-7m30.6 8.3c-12-2.8-27.7-1.2-27.7-1.2m27.6 3.1c-12.3-1-27.6 5-27.6 5M101 90a84.1 84.1 0 0 1 27-7m-26.7 8.3c10.5-2.8 24.1-1.2 24.1-1.2m-24 3.1c10.7-1 24 5 24 5" fill="none" stroke="#000" stroke-linecap="round" stroke-linejoin="round" stroke-width=".5"/><path d="M61 114.7a63.3 63.3 0 0 0 26.6 16c-7 2.5-8 6.5-9.6 12.3 0 0 15.4-3.3 17-7.7 0 0 6 6.8 18 5.8-2.2-5.8-9-12.2-18-13.5-2.7 0-4.2-6.8 3-12.6-22 8.7-37-.3-37-.3z" fill="currentColor"/><path d="M87.6 130.7C81 133 79.3 137.4 78 143c0 0 15.4-3.3 17-7.7 0 0 6 6.8 18 5.8-2.2-5.8-9-12.2-18-13.5 0 .4-.6 1-.6 2.2-1.6-.3-4.3.1-6.8 1z"/><path d="M91 128.5s14 4.8 22 12.6c-2.2-5.8-9-12.2-18-13.5-2.7 0-4.2-6.8 3-12.6a52 52 0 0 1-8.5 2.6c-2.5 8 1.5 10.9 1.5 10.9z" fill="#010101" opacity=".1"/></g></g><g transform="translate(161.7 77.8) scale(2.1612)" clip-path="url(#f)"><g color="#5961a8" fill="#88b04b"><path fill="#d94432" d="M0 0h160v160H0z"/><circle cx="80" cy="80" r="40" fill="#5961a8"/><path d="M119.2 80a39.5 39.5 0 0 1-67.1 28.1c10.3 2.4 36 3 49.8-14.2 10.4-12.5 8.3-33.3 4.2-43.3A39.4 39.4 0 0 1 119.2 80z" fill="#010101" opacity=".1"/><path d="M81.1 33.8s6.7 2.4 4.4 4.8-4.9-3.8-16.7-1.2S42 42 41 72.4l16.1 3.1s-3.3-12.1 6.7-12.1V51.3s20 10.9 33.4 6 27.8-36.2 3.3-39.9-19.4 16.4-19.4 16.4z" fill="#442a16"/><path d="M41 72.4l16.1 3.1s-3.3-12.1 6.7-12.1c0 0-10-10.9 0-12.1s20 10.9 33.4 6 27.8-36.2 3.3-39.9c9.2 13.9 6.2 21-6.1 25.9-10.9 4.4-21.4.9-33.2 5.1C46 52 41.5 67.1 41 72.4z" opacity=".1"/><path d="M105 50.6s6 6.5 7.2 10.5 3.6 1.3 3.6-2.6c0-7.4-3-10.4-5.9-14.4" fill="#442a16"/><path d="M105 50.6s6 6.5 7.2 10.5 3.6 1.3 3.6-2.6c1.1-5.2-5.9-14.4-5.9-14.4" opacity=".1"/><path d="M41.3 73.9L57 77.5v2l-15.5-4zm4 4.4l11.2 2.8.2 2-11.1-3.2z" fill="#754c24"/><path d="M137.1 64.3s7.2 6.3 6.3 15.2c0 0-1.8 9.2-2.4 10.5s-3.1 8.7-9.1 9.9l-4.1.5c-.8 1.3-1.8 2.4-3 3.3-2.4 2-6.6 2.5-7.8 1.9s-.6 1.3-1.9.7l-4.6-1.6c5-5.8 7.9-13.1 8.7-22.8l1.2-1.2 5.7-7.5c2.1-2.9 6.8-4.7 7.7-5.1 0 0-5.1 6.2-3.5 7.7s4.4.4 4.4.4 4.1-.3 2.4-11.9z"/><path d="M137.1 64.3s7.2 6.3 6.3 15.2c0 0-1.8 9.2-2.4 10.5s-3.1 8.7-9.1 9.9l-4.1.5c-1.8.6-3.9-.1-6-1.2 3.5 1 20.7-14.8 12.9-22.8 0 0 4.1-.5 2.4-12.1z" fill="#010101" opacity=".1"/><path d="M127.8 100.4c-.8 1.3-1.8 2.4-3 3.3-2.4 2-6.6 2.5-7.8 1.9s-.6 1.3-1.9.7l-4.6-1.6 1.7-2.4s1.9-.3 2-1c2.1 3.3 7.1-1.8 5.6-3.5 0 0 3.9 3.1 8 2.6z" fill="#010101" opacity=".2"/><path d="M129.7 77.3s-3.5-.8-5.4-.1c0 0 3.5-6.5 7.4-8.1 0 0-4 5.7-2 8.2z" fill="#fff" opacity=".2"/><path d="M19.9 64.3s-7.2 6.3-6.3 15.2c0 0 1.8 9.2 2.4 10.5s3.1 8.7 9.1 9.9l4.1.5c.8 1.3 1.8 2.4 3 3.3 2.5 2 6.5 2.5 7.8 1.9s.6 1.3 1.9.7 7-1.6 8.1-4.4c.6-1.7.6-3.7-.1-5.4 0 0-4.1-.5-5.7 1 0 0-.8-3.5-4.3-2.7 0 0 3.2-8.4-3.2-14.1L31 73.2c-2.1-2.9-6.8-4.7-7.7-5.1 0 0 5.1 6.2 3.5 7.7s-4.5.4-4.5.4-4.1-.3-2.4-11.9z"/><path d="M19.9 64.3s-7.2 6.3-6.3 15.2c0 0 1.8 9.2 2.4 10.5s3.1 8.7 9.1 9.9l4.1.5c1.8.6 3.9-.1 6-1.2-3.5 1-20.7-14.8-13-22.8.1 0-4-.5-2.3-12.1z" fill="#fff" opacity=".2"/><path d="M29.2 100.4c.8 1.3 1.8 2.4 3 3.3 2.5 2 6.5 2.5 7.8 1.9s.6 1.3 1.9.7 7-1.6 8.1-4.4c.6-1.7.6-3.7-.1-5.4-1.4 6.4-6.9 6.7-7.2 4.8-2.1 3.3-7.1-1.8-5.6-3.5.1 0-3.8 3.1-7.9 2.6z" fill="#010101" opacity=".2"/><path d="M29 77.9s2.6-1.4 4-1.1c0 0-2.9-5.6-5.9-6.4 0 0 3.3 4.7 1.9 7.5z" fill="#010101" opacity=".1"/><path d="M94 71c-7.4.5-8.9 4.8-8.9 4.8a21 21 0 0 0-2.4 9.2c0 4.3-.8 4 4.5 5.2 0 0-1 11 9.3 10.3v3.7c0 10.6 6.4 3.4 6.4 3.4s7.9-3.9 9.9-16.4S102.9 71 94 71zm.1 21.2l-.3-.2zm-.3-.1l-2.6-.9c.9.2 1.8.5 2.6.9zm.8.4c1.2.8 1.7 1.9 1.9 3.8a6 6 0 0 0-1.9-3.8z" opacity=".2"/><ellipse transform="rotate(-14.7 106.8 72.3)" cx="106.8" cy="72.3" rx="3.6" ry="5.1" fill="#42210b"/><ellipse transform="rotate(-81.6 83.7 72.4)" cx="83.7" cy="72.4" rx="5.7" ry="4" fill="#42210b"/><path d="M94.9 72c-6.7.4-8 4.4-8 4.4a19.1 19.1 0 0 0-2.2 8.4c0 3.9-.7 3.7 4.1 4.8 0 0-.9 10.1 8.4 9.6v3.4c0 9.8 5.8 3.1 5.8 3.1s7.1-3.6 8.9-15.1-9-18.6-17-18.6zm.1 19.6l-.3-.2zm-.3-.1l-2.3-.8c.8.1 1.6.4 2.3.8zm.7.4c1.1.8 1.5 1.8 1.7 3.5a5.1 5.1 0 0 0-1.7-3.5z" fill="#fbdb31"/><path d="M88.8 89.7s-.9 10.1 8.4 9.6c0 0 .8-6.5-2.4-7.8s-6-2-6-1.8z" opacity=".2"/><path d="M86.9 76.4s1.3-4 8-4.4c8 0 18.7 7.1 16.9 18.7s-8.9 15.1-8.9 15.1c8.9-16 5.2-30.5-16-29.4z" opacity=".1"/><path d="M90.3 79.1c-.7 1.4-1.2 2.9-1.6 4.4 0 .9 3.2-5.3 1.6-4.4zm1.3 0a14 14 0 0 0-.9 2.9c.1.5 2.2-3.7.9-2.9zM59.5 114.4c-.6-1-1.9-1.2-2.9-.6h-.1c-1.8 1.2-1.8 2.9-1.2 3.5l12.2 13.4 1.2 11.1s0 1.2 2.3 1.2 1.8-1.8 1.8-1.8l-.6-11.1 8.8-14c1.2-1.8-1.2-5.8-4.7-2.9L71.6 126 70 109.8a3 3 0 0 0-2.9-1.8c-2.3 0-2.3 2.3-2.3 3.5s2.9 15.2 2.9 15.2z"/><path d="M59.5 114.4c-.6-.2-1.2-.2-1.8 0-1.8 1.2 1.8 5.2 1.8 5.2l9.3 11.1 1.2 11.1s-.3 1.2 1.2 1.2c2-.3 1.8-1.8 1.8-1.8l-.6-11.1 8.8-14c1.2-1.8-.9-3.8-3.5-1.2l-5.8 12.8-1.9-17.9s0-1.2-2.3-1.2-1.8 2.9-1.8 2.9l2.9 16.9z" fill="#010101" opacity=".1"/><path d="M119 120.2c0-.6-.5-1.2-1.1-1.2l-11.1 2.9-2.1 2c1.7-1.9 3.1-3.9 4.4-6.1 1.2-2.3 2.3-1.8 2.3-1.8s2.9 0 3.5-1.8-.6-1.8-2.9-2.3c-1.5-.3-3 .1-4.1 1.2l-8.8 9.9-3.5-5.2 1.8-3.5c-1.8 2.3-12.2 5.2-12.2 5.2l5.2 1.2c2 1.7 3.8 3.7 5.2 5.8 1.8 2.9-2.3 14-2.3 14-.3 2.5 3.7 1.5 4.7-2.2.5-2.8 1.2-5.5 2-8.1 1.4.2 9.3 1.1 10.9 1.1.9 0 1.7-.7 1.8-1.7v-.1l-5.8-3.5c-.1.1 12.1-4.6 12.1-5.8z"/><path d="M99.8 126.7c2.3-1.8 6.6-8.3 9.2-12.1 2.2-1.6 4.9-2.2 6-.2-.5 1.8-3.5 1.8-3.5 1.8s-1.2-.6-2.3 1.8-5.8 8.2-7.6 9.3-3.6 11-3.6 11c-1 1.9-2 3-3.1 3z" opacity=".1"/><path d="M106.8 122l11.1-2.9c.6 0 1.2.5 1.2 1.1 0 1.2-12.2 5.8-12.2 5.8l5.8 3.5c0 .9-.7 1.7-1.7 1.8h-.1c-1.8 0-11.1-1.2-11.1-1.2l1.2-2.5z" fill="#010101" opacity=".2"/><path d="M92.4 118.2l5.3 7 1.5-2.1-3.6-5.1 1.4-2.9-4.6 2.5z" fill="#010101" opacity=".1"/></g></g></svg>