<svg width="64" height="64" viewBox="0 0 64 64" fill="none" xmlns="http://www.w3.org/2000/svg">
  <path d="M51.8 21.2 47.5 7.5A3.6 3.6 0 0 0 43 5.2a40.3 40.3 0 0 1-11 2.4c-3.8-.3-7.5-1.1-11-2.4a3.6 3.6 0 0 0-4.5 2.3l-4.3 13.7M61.6 27.3a1.8 1.8 0 0 1-.3 3.3A87.9 87.9 0 0 1 1.9 30a1.8 1.8 0 0 1 .5-2.7l9.8-6.1a112.6 112.6 0 0 0 39.6 0l9.8 6.1Z" stroke="#fff" stroke-width="3" stroke-linecap="round" stroke-linejoin="round"/>
  <g opacity=".4">
    <circle cx="19" cy="51" r="9" fill="#fff"/>
    <circle cx="45" cy="51" r="9" fill="#fff"/>
    <path d="M25 51a8.9 8.9 0 0 1 14 0" stroke="#fff" stroke-width="3"/>
  </g>
</svg>
