<svg fill="none" xmlns="http://www.w3.org/2000/svg" viewBox="0 0 120 120">
  <path d="M27.13 33.1a4.38 4.38 0 0 0-7.38-4.68s-5.35 9.15-7.73 12.51C3.07 53.58-.44 59.7 2.85 67.25c2.75 6.33 7.23 10.5 11 11.88 5.23 1.93 8.73 1.2 15.3-.8a14.24 14.24 0 0 1 4.64-.66c8.16.17 13.82 7 16.43 4.69 2.6-2.33 1.68-4.57-1.02-8.7-2.06-3.37-5.86-10.05-7.55-12.8l12.32-21.04a4.38 4.38 0 0 0-5.45-6.24c-.78.31-1.45.85-1.93 1.54M27.13 33.1 20.1 45.3m7.03-12.2 4.7-7.38a4.38 4.38 0 0 1 7.84 1.47 4.38 4.38 0 0 1-.46 3.23m0 0L28.75 47.98m10.46-17.56 3.13-5a4.55 4.55 0 0 1 6.04-1.34 4.23 4.23 0 0 1 1.37 6.04l-3.16 5m0 0L36.13 52.68m73.56-12.95a4.39 4.39 0 0 0 2.57 2.24 4.38 4.38 0 0 0 5.56-2.91 4.37 4.37 0 0 0-.38-3.4s-5.28-9.15-7.02-12.92c-6.5-14.05-10.14-20.19-18.26-21.07C85.31.93 79.42 2.78 76.4 5.3c-4.28 3.59-5.42 6.97-6.95 13.67a14.53 14.53 0 0 1-1.73 4.34c-4.2 6.99-12.95 8.46-12.24 11.91.72 3.46 3.12 3.55 8.06 3.46H78l3.94 6.8 8.54 14.12a4.38 4.38 0 1 0 7.76-4.06m11.46-15.82-7.08-12.16m7.08 12.16 4.07 7.74a4.38 4.38 0 0 1-6.69 5.42 4.4 4.4 0 0 1-1.07-1.35m0 0-10.02-17.8M106 51.54l2.78 5.22a4.53 4.53 0 0 1-1.89 5.9 4.2 4.2 0 0 1-4.86-.5 4.2 4.2 0 0 1-1.03-1.38l-2.77-5.23m0 0L88.2 37.75M53.6 90.8a4.38 4.38 0 1 1 .33-8.74H78.4c1.5-2.68 5.38-9.4 7.16-12.93 2.2-4.42 3.49-6.42 7-5.29 3.51 1.14.27 9.44 4.25 16.56a14.26 14.26 0 0 0 2.89 3.66c5.06 4.67 7.42 7.33 8.4 12.82.7 3.91-.62 9.84-4.7 15.5-4.82 6.61-11.93 6.7-27.34 5.35-4.11-.34-14.7-.34-14.7-.34a4.38 4.38 0 0 1-4.22-4.54 4.38 4.38 0 0 1 4.54-4.22M53.6 90.8l20.42.2m-20.42-.2-5.91-.19a4.23 4.23 0 0 0-4.53 4.21 4.52 4.52 0 0 0 4.2 4.54l5.92.2m0 0 20.42.17m-20.43-.17a4.38 4.38 0 0 0-4.35 2.48 4.39 4.39 0 0 0 .82 4.94 4.37 4.37 0 0 0 3.2 1.33l8.74.32m0 0h14.08" stroke="#0582ca" stroke-width="3" stroke-linecap="round" stroke-linejoin="round"/>
  <path opacity=".4" d="m55 37.5-13 23L51.5 79v2.5h27l10-18 3.5-1-15-24-22-1Z" fill="#0582ca"/>
</svg>