<svg xmlns="http://www.w3.org/2000/svg" fill="none" viewBox="0 0 79 68"><path fill="#1F2348" fill-rule="evenodd" d="M55.57 62.78a1.03 1.03 0 0 1-.036-.323l1.246-24.91-3.77 3.77a2.063 2.063 0 0 1-3.56-1.447 2.063 2.063 0 0 1 .642-1.47l5.103-5.103-5.103-5.103a2.064 2.064 0 0 1 2.918-2.92l4.175 4.176L58.613.878 40.276 5.11a3.1 3.1 0 0 1-1.446-.013l-16.8-4.2.749 29.965h4.124a2.064 2.064 0 0 1 0 4.127h-4.02l.686 27.494c.003.1-.01.2-.035.298l15.203 4.146a3.095 3.095 0 0 0 1.628 0l15.204-4.146.001-.001ZM20.831 35.545l.674 26.99c.002.076.012.151.03.225L7.623 66.238a3.094 3.094 0 0 1-3.84-2.843L2.73 42.897c.16-.024.32-.067.477-.131l4.839-1.983a2.063 2.063 0 1 0-1.565-3.82L2.51 38.592 1.004 9.23a3.094 3.094 0 0 1 2.18-3.116L19.967.95l.754 30.178-4.563 1.87a2.064 2.064 0 0 0 1.565 3.819l3.109-1.274h-.001ZM57.596 62.56l1.279-25.583 4.342 4.342a2.063 2.063 0 1 0 2.918-2.92l-5.103-5.102 5.103-5.104a2.065 2.065 0 1 0-2.918-2.918l-3.955 3.954L60.675.975 75.99 6.08a3.094 3.094 0 0 1 2.11 3.093l-2.78 54.222a3.095 3.095 0 0 1-3.84 2.843l-13.914-3.48c.016-.063.026-.13.03-.198ZM37.148 30.862a2.064 2.064 0 0 0 0 4.127h5.123a2.064 2.064 0 0 0 0-4.127h-5.123Z" clip-rule="evenodd"/></svg>