<svg xmlns="http://www.w3.org/2000/svg" width="64" height="64" fill="none" viewBox="0 0 64 64">
  <g clip-path="url(#clip0_169_7900)">
    <path stroke="#1f2348" stroke-linecap="round" stroke-linejoin="round" stroke-width="3" d="M2.5 13.5l5.5 5 5.5-5"/>
    <path stroke="#1f2348" stroke-linecap="round" stroke-linejoin="round" stroke-width="3" d="M21 2.5C13.75 2.522 7.978 8.82 8 16v2.5M61.5 50.5L56 45l-5.5 5.5"/>
    <path stroke="#1f2348" stroke-linecap="round" stroke-linejoin="round" stroke-width="3" d="M42.5 61.5c7.251-.022 13.522-6.32 13.5-13.5v-3"/>
    <path stroke="#1f2348" stroke-linecap="round" stroke-miterlimit="10" stroke-width="3" d="M19.5 62.5c9.941 0 18-8.059 18-18s-8.059-18-18-18-18 8.059-18 18 8.059 18 18 18z"/>
    <path stroke="#1f2348" stroke-linecap="round" stroke-miterlimit="10" stroke-width="3" d="M19.5 62.5c9.941 0 18-8.059 18-18s-8.059-18-18-18-18 8.059-18 18 8.059 18 18 18z"/>
    <g opacity=".4">
      <path stroke="#1f2348" stroke-linecap="round" stroke-linejoin="round" stroke-width="3" d="M38 40.992a20.06 20.06 0 004.5.508c11.046 0 20-8.954 20-20s-8.954-20-20-20-20 8.954-20 20c0 1.547.176 3.054.508 4.5"/>
      <path fill="#1f2348" d="M49 15.5c3.34 3.213 8.564 3.861 13 4-.579-9.898-9.513-18-19.5-18-9.675 0-19 9.5-19.5 22 9.497 1.12 20.205.3 26-8z"/>
    </g>
    <path stroke="#1f2348" stroke-linecap="round" stroke-linejoin="round" stroke-width="3.3" d="M4 36c8.536 8.578 21.854 11.139 33 6.5"/>
  </g>
  <defs>
    <clipPath id="clip0_169_7900">
      <path fill="#fff" d="M0 0h64v64H0z"/>
    </clipPath>
  </defs>
</svg>
