<svg width="2454" height="688" fill="none" xmlns="http://www.w3.org/2000/svg"><rect width="2454" height="688" rx="12" fill="#F4F4F4"/><rect x="104" y="104" width="480" height="480" rx="12" fill="#fff" filter="url(#filter0_d)"/><path d="M246.2 281l-18.5 27.5v18h-8.3v-18l-18.5-27.6h9.4l13.2 20.6 13.2-20.6h9.5zm11.4 46a18 18 0 0 1-8.7-2 14.3 14.3 0 0 1-5.8-5.9c-1.3-2.5-2-5.5-2-9 0-3.3.7-6.3 2-8.8 1.4-2.6 3.3-4.5 5.8-5.9a18 18 0 0 1 8.7-2c3.2 0 6.1.6 8.6 2 2.4 1.4 4.3 3.3 5.7 5.9 1.3 2.5 2 5.5 2 8.9 0 3.4-.7 6.4-2 9a13.9 13.9 0 0 1-5.7 5.8c-2.5 1.3-5.4 2-8.6 2zm0-6.3c2.7 0 4.7-.8 6.1-2.6 1.5-1.8 2.2-4.4 2.2-8 0-3.4-.7-6-2.2-7.8a7.4 7.4 0 0 0-6.1-2.7c-2.7 0-4.8.9-6.2 2.7-1.5 1.8-2.2 4.4-2.2 7.9s.7 6.1 2.1 8a7.6 7.6 0 0 0 6.2 2.5zm52.7-26.5v32.3h-7.8v-5c-1 1.8-2.4 3.2-4.1 4.1a12 12 0 0 1-6 1.4c-7.8 0-11.8-4.4-11.8-13.3v-19.5h8v19.6c0 2.3.4 4 1.4 5.1 1 1.2 2.4 1.7 4.5 1.7 2.3 0 4.2-.8 5.6-2.3a8.7 8.7 0 0 0 2-6.1v-18h8.2zm26-.8a9 9 0 0 1 3.3.5l-.1 7.3c-1.4-.5-2.8-.8-4.2-.8-2.8 0-4.9.8-6.3 2.4a9 9 0 0 0-2.1 6.2v17.5h-8v-23.2c0-3.4-.1-6.4-.5-9.1h7.5l.7 5.7c.8-2.1 2-3.7 3.8-4.8 1.7-1.1 3.7-1.7 6-1.7zm60.7 33.1l-4.6-10.7h-22.3l-4.6 10.7h-8.3l20.6-45.6h6.7l20.7 45.6H397zm-24.1-17h16.8l-8.4-19.6-8.4 19.5zm55.1-16.2a13.4 13.4 0 0 1 12.4 8.2 20 20 0 0 1 1.9 8.9c0 3.3-.6 6.2-1.8 8.7a13.5 13.5 0 0 1-12.5 8 13 13 0 0 1-6.3-1.6c-1.8-1-3.2-2.4-4.2-4.2v19h-8v-37c0-3.4-.1-6.4-.4-9.1h7.4l.7 5.5c.8-2 2.2-3.5 4.1-4.6 2-1.2 4.2-1.8 6.7-1.8zm-2.2 27.4c2.7 0 4.8-.9 6.2-2.6a12 12 0 0 0 2.2-7.7c0-3.4-.7-6-2.2-7.9a7.3 7.3 0 0 0-6.1-2.9c-2.7 0-4.8 1-6.3 2.8a12.4 12.4 0 0 0-2.2 7.8c0 3.4.8 6 2.2 7.9a7.5 7.5 0 0 0 6.2 2.6zm41.9-27.4c2.8 0 5.2.8 7.3 2.2a13 13 0 0 1 5.1 6 20 20 0 0 1 1.9 8.9c0 3.3-.6 6.2-1.8 8.7a13.5 13.5 0 0 1-12.5 8 13 13 0 0 1-6.3-1.6c-1.8-1-3.2-2.4-4.2-4.2v19h-8v-37c0-3.4-.1-6.4-.5-9.1h7.5l.7 5.5c.8-2 2.2-3.5 4.1-4.6 2-1.2 4.2-1.8 6.7-1.8zm-2.2 27.4c2.7 0 4.8-.9 6.2-2.6a12 12 0 0 0 2.2-7.7c0-3.4-.7-6-2.2-7.9a7.2 7.2 0 0 0-6.1-2.9c-2.8 0-4.8 1-6.3 2.8a12.4 12.4 0 0 0-2.2 7.8c0 3.4.8 6 2.2 7.9a7.5 7.5 0 0 0 6.2 2.6zm-263.9 91.9c-1.1 1-2.5 1.8-4.1 2.4a15 15 0 0 1-11.5-.7c-1.8-1-3.2-2.4-4.2-4.2-1-2-1.5-4.2-1.5-6.7s.5-4.7 1.5-6.6c1-2 2.3-3.4 4-4.4a11.7 11.7 0 0 1 11.4-.2 9 9 0 0 1 3.5 4c.9 1.8 1.3 4 1.3 6.4v.7h-18.2v-2.5h16l-1.3 1.7c.1-2.8-.5-5-1.6-6.4a6.2 6.2 0 0 0-5.1-2.3c-2.4 0-4.2.8-5.6 2.5-1.3 1.6-2 3.9-2 6.8 0 3.2.8 5.5 2.1 7.1a8 8 0 0 0 6.2 2.4 12.1 12.1 0 0 0 7.8-2.8l1.3 2.8zm5.6-2h5v4.9h-5v-5zm21.6 15.6c-3.6 0-6.8-.8-9.5-2.5l.7-3.2c1.5.9 3 1.5 4.3 2 1.3.3 2.8.5 4.5.5 2.3 0 4-.6 5.2-1.9 1.3-1.2 1.9-3 1.9-5.5v-6.5l.5-.6a8.1 8.1 0 0 1-4.8 5.5 10 10 0 0 1-4 .8c-2.2 0-4-.5-5.7-1.5-1.6-1-2.9-2.4-3.8-4.2-.9-1.8-1.3-4-1.3-6.3 0-2.4.4-4.5 1.3-6.3a11 11 0 0 1 3.8-4.2c1.6-1 3.5-1.5 5.7-1.5s4 .5 5.6 1.7a8 8 0 0 1 3.2 4.6l-.6-.6v-5.1h4v24c0 3.5-1 6.2-2.9 8-1.8 1.9-4.5 2.8-8 2.8zm-.5-14.7c2.4 0 4.2-.8 5.5-2.3 1.3-1.6 2-3.7 2-6.4s-.7-4.9-2-6.4a6.7 6.7 0 0 0-5.5-2.4 7 7 0 0 0-5.6 2.4 9.4 9.4 0 0 0-2 6.4c0 2.7.7 4.9 2 6.4a7.2 7.2 0 0 0 5.6 2.3zm18.2-1h5v5h-5v-5zm24.8 5v-34.2h3l21.8 29-1.2.4v-29.4h3.8v34.2h-3l-21.8-29 1-.3v29.3h-3.6zm35.3 0v-24.1h3.9v24.1h-3.9zm-.4-34.4h4.8v4.4h-4.8v-4.4zm11.8 34.4v-17.4a58.9 58.9 0 0 0-.3-6.7h3.7l.4 5-.5.3a8.1 8.1 0 0 1 3-4.4c1.4-1 3.1-1.5 5-1.5 2.4 0 4.2.6 5.5 1.7 1.3 1.2 2.1 3 2.5 5.3l-1.2-.6a9 9 0 0 1 3.1-4.7 9.2 9.2 0 0 1 5.6-1.7c2.7 0 4.7.8 6 2.4 1.4 1.5 2 4 2 7.1v15.2H349v-15c0-2.2-.4-3.8-1.2-4.9-.8-1-2.1-1.6-3.8-1.6a6 6 0 0 0-4.8 2.1 8.5 8.5 0 0 0-1.8 5.6v13.8h-3.8v-15c0-2.2-.5-3.8-1.3-4.9-.8-1-2-1.6-3.8-1.6a6 6 0 0 0-4.8 2.1 8.5 8.5 0 0 0-1.8 5.6v13.8H318zm42.2 0v-24.1h4v24.1h-4zm-.3-34.4h4.7v4.4h-4.7v-4.4zm33 44.8H389V409l.7.4a8 8 0 0 1-3.1 4.7 9.5 9.5 0 0 1-5.7 1.6 10 10 0 0 1-9.4-5.8 16.5 16.5 0 0 1 .1-13.2c.9-2 2.1-3.4 3.7-4.4a10.8 10.8 0 0 1 11.3 0 8 8 0 0 1 3 4.7l-.4-.8.5-5h3.6a58.7 58.7 0 0 0-.4 6.8v28zm-11.2-13.3c2.4 0 4.2-.8 5.5-2.4 1.3-1.6 1.9-4 1.9-6.9 0-3-.7-5.3-2-6.9a6.5 6.5 0 0 0-5.4-2.4 7 7 0 0 0-5.6 2.5c-1.3 1.7-2 4-2 6.9 0 3 .7 5.2 2 6.8a6.9 6.9 0 0 0 5.6 2.4zm42.6 3.3c-1.8 0-3.4-.2-5-.4-1.5-.4-3-.8-4.2-1.5-1.3-.7-2.5-1.5-3.6-2.4l1.5-3a17 17 0 0 0 5.2 3c1.8.6 3.8 1 6.1 1a11 11 0 0 0 6.4-1.7c1.5-1 2.2-2.6 2.2-4.5 0-1.2-.3-2.1-1.1-2.9a7.4 7.4 0 0 0-3-1.7l-4.5-1.2a58 58 0 0 1-4.6-1.2 21 21 0 0 1-4-1.8c-1-.7-2-1.6-2.6-2.7a8 8 0 0 1-1-4c0-2 .6-3.7 1.6-5.2a10 10 0 0 1 4.3-3.5 19 19 0 0 1 15 .7c1.3.6 2.4 1.4 3.4 2.4l-1.5 3a15 15 0 0 0-10.3-4c-2.7 0-4.8.6-6.3 1.7a5.5 5.5 0 0 0-2.2 4.7c0 1.2.3 2.2 1 3 .7.8 1.6 1.4 2.8 1.9l4.2 1.2 4.8 1.3c1.5.4 2.9 1 4 1.7 1.3.6 2.3 1.4 3 2.5.7 1 1 2.3 1 4 0 1.9-.5 3.6-1.5 5a10 10 0 0 1-4.4 3.4 17 17 0 0 1-6.7 1.2zm27.8 0c-2.1 0-4-.6-5.6-1.6a10 10 0 0 1-3.8-4.3 16.5 16.5 0 0 1 .1-13.2c.9-2 2.1-3.4 3.7-4.4a10.8 10.8 0 0 1 11.3 0 8 8 0 0 1 3 4.7l-.5.4v-6.1h3.8v24.1h-3.8v-6.2l.6.2a8 8 0 0 1-3.1 4.7 9.5 9.5 0 0 1-5.7 1.6zm.8-3.3c2.4 0 4.2-.8 5.5-2.4 1.3-1.6 1.9-4 1.9-6.9 0-3-.7-5.3-2-6.9a6.5 6.5 0 0 0-5.4-2.4 7 7 0 0 0-5.6 2.5c-1.3 1.7-2 4-2 6.9 0 3 .7 5.2 2 6.8a6.9 6.9 0 0 0 5.6 2.4zm15.4-18.2v-3h14.4v3h-14.4zm15.1-10.7c-.9-.2-1.7-.4-2.5-.4a5 5 0 0 0-2 .5c-.7.2-1.2.7-1.5 1.4-.4.7-.6 1.7-.6 3v27.3H473v-27.8c0-2.6.6-4.6 1.9-5.8a7 7 0 0 1 5.3-2 14 14 0 0 1 3.2.5v3.3zm24 29a15 15 0 0 1-15.6 1.7c-1.8-1-3.2-2.5-4.2-4.3-1-2-1.4-4.2-1.4-6.7s.4-4.7 1.4-6.6c1-2 2.3-3.4 4-4.4a11.7 11.7 0 0 1 11.5-.2c1.5 1 2.7 2.3 3.5 4 .8 1.8 1.2 4 1.2 6.4v.7h-18.2v-2.5h16l-1.3 1.7c.1-2.8-.4-5-1.6-6.4a6.2 6.2 0 0 0-5.1-2.3c-2.4 0-4.2.8-5.5 2.5-1.4 1.6-2 3.9-2 6.8 0 3.2.7 5.5 2 7.1a8 8 0 0 0 6.2 2.4 12.1 12.1 0 0 0 7.8-2.8l1.3 2.8z" fill="#1F2348"/><rect x="902" y="104" width="480" height="480" rx="12" fill="#fff" filter="url(#filter1_d)"/><rect x="914" y="116" width="456" height="456" rx="6" fill="url(#paint0_radial)"/><path d="M1015.7 326h7.7v45.5h-6.1l-24.6-32v32H985v-45.6h6.2l24.5 31.9v-31.9zm17 45.5v-32.3h8v32.3h-8zm-.5-47h9v7.9h-9v-7.9zm55.4 13.8c3.7 0 6.4 1.2 8.2 3.4 1.8 2.2 2.7 5.5 2.7 10v19.8h-8v-19.6c0-2.5-.5-4.4-1.3-5.5-.8-1.1-2.2-1.7-4.1-1.7-2.2 0-4 .8-5.3 2.4a10 10 0 0 0-1.8 6.4v18h-8v-19.6c0-2.5-.5-4.3-1.3-5.5a5.3 5.3 0 0 0-4.2-1.7c-2.2 0-4 .8-5.2 2.4a9.7 9.7 0 0 0-2 6.4v18h-7.8v-23.2c0-3.4-.2-6.4-.6-9.1h7.5l.6 5.1c1-2 2.3-3.4 4-4.4 1.8-1 3.9-1.6 6.2-1.6 5 0 8.1 2.1 9.6 6.2 1-2 2.5-3.4 4.4-4.5 2-1.1 4-1.7 6.4-1.7zm19.4 33.2v-32.3h8v32.3h-8zm-.5-47h8.9v7.9h-8.9v-7.9zm48.7 14.7c-.4 2.5-.6 5.6-.6 9.1v37h-8v-18.7c-1 1.7-2.4 3-4.2 4a14.5 14.5 0 0 1-13.7-.6 13.5 13.5 0 0 1-5-5.9 20.2 20.2 0 0 1-1.8-8.7c0-3.4.6-6.3 1.8-8.9 1.2-2.6 3-4.6 5.1-6a13 13 0 0 1 7.4-2.2c2.5 0 4.7.6 6.6 1.7a10 10 0 0 1 4.3 4.7l.5-5.5h7.6zm-16.8 26.5c2.7 0 4.7-.9 6.2-2.7 1.4-1.8 2.1-4.4 2.1-7.8 0-3.4-.7-6-2.1-7.8a7.5 7.5 0 0 0-6.3-2.8c-2.6 0-4.7 1-6.2 2.9a12.6 12.6 0 0 0-2.1 7.9c0 3.3.7 5.9 2.1 7.7a7.7 7.7 0 0 0 6.3 2.6zM1213 326h8.2v45.6h-8.1v-19.8h-23.4v19.8h-8.1V326h8v19h23.5v-19zm47 13.3v32.3h-7.8v-5c-1 1.8-2.4 3.2-4.1 4.1a12 12 0 0 1-6 1.4c-7.8 0-11.8-4.4-11.8-13.3v-19.5h8v19.6c0 2.3.5 4 1.4 5.1 1 1.2 2.5 1.7 4.5 1.7 2.3 0 4.2-.8 5.6-2.3a8.7 8.7 0 0 0 2.1-6.1v-18h8zm27.1-.9c2.8 0 5.3.8 7.4 2.2 2.2 1.3 3.9 3.3 5 5.8 1.3 2.5 1.9 5.4 1.9 8.8 0 3.3-.6 6.2-1.9 8.8a13.9 13.9 0 0 1-5 6 13 13 0 0 1-7.4 2.1c-2.4 0-4.5-.5-6.4-1.5-1.8-1-3.2-2.5-4.2-4.3v5.3h-7.8v-47.1h8V344c.9-1.7 2.3-3.1 4.1-4.1 1.9-1 4-1.6 6.3-1.6zm-2.1 27.4c2.6 0 4.7-.9 6.1-2.8 1.5-1.9 2.2-4.5 2.2-7.8 0-3.4-.7-6-2.2-7.7a7.4 7.4 0 0 0-6.2-2.8c-2.7 0-4.7 1-6.2 2.8a12.3 12.3 0 0 0-2.2 7.8c0 3.4.8 6 2.2 7.9a8 8 0 0 0 6.3 2.6z" fill="#fff"/><rect x="1700" y="104" width="650" height="208" rx="12" fill="#fff" filter="url(#filter2_d)"/><path d="M1815.6 190h7.7v45.5h-6.1l-24.6-32v32h-7.7v-45.6h6.2l24.5 31.9v-31.9zm17 45.5v-32.3h8v32.3h-8zm-.4-47h8.8v7.9h-8.8v-7.9zm55.3 13.8c3.7 0 6.4 1.2 8.2 3.4 1.8 2.2 2.7 5.5 2.7 10v19.8h-8v-19.6c0-2.5-.5-4.4-1.3-5.5-.8-1.1-2.2-1.7-4.1-1.7-2.2 0-4 .8-5.3 2.4a10 10 0 0 0-1.8 6.4v18h-8v-19.6a9 9 0 0 0-1.4-5.5c-.8-1.1-2.2-1.7-4-1.7-2.3 0-4 .8-5.3 2.4a9.7 9.7 0 0 0-2 6.4v18h-7.9v-23.2c0-3.4-.1-6.4-.5-9.1h7.5l.6 5.1c1-2 2.3-3.4 4-4.4 1.8-1 3.9-1.6 6.2-1.6 5 0 8.2 2.1 9.6 6.2 1-2 2.5-3.4 4.4-4.5 2-1.1 4-1.7 6.4-1.7zm19.4 33.2v-32.3h8v32.3h-8zm-.5-47h8.9v7.9h-8.9v-7.9zm48.7 14.7c-.4 2.5-.6 5.6-.6 9.1v37h-8v-18.7c-1 1.7-2.4 3-4.2 4a13 13 0 0 1-6.1 1.4 14 14 0 0 1-7.5-2 13.5 13.5 0 0 1-5.1-5.9 20.3 20.3 0 0 1-1.8-8.7c0-3.4.6-6.3 1.8-8.9 1.2-2.6 3-4.6 5.1-6a13 13 0 0 1 7.5-2.2c2.4 0 4.6.6 6.5 1.7a10 10 0 0 1 4.3 4.7l.5-5.5h7.6zm-16.8 26.5c2.7 0 4.7-.9 6.2-2.7 1.4-1.8 2.1-4.4 2.1-7.8 0-3.4-.7-6-2.1-7.8a7.5 7.5 0 0 0-6.2-2.8c-2.7 0-4.8 1-6.3 2.9a12.6 12.6 0 0 0-2.1 7.9c0 3.3.7 5.9 2.1 7.7a7.7 7.7 0 0 0 6.3 2.6zm82.6 5.8h-10l-21.3-21.3v21.3h-8.2v-45.6h8.2v20.4L2010 190h9.9l-22.2 22 23.2 23.6zm30.5-15.7H2029c.2 3.4 1 6 2.6 7.6 1.6 1.7 3.9 2.5 7 2.5a16 16 0 0 0 9.8-3.5l2.3 5.5a18.4 18.4 0 0 1-5.7 3c-2.2.7-4.5 1.1-6.8 1.1a17 17 0 0 1-12.5-4.5c-3-3-4.5-7-4.5-12.3 0-3.2.7-6.2 2-8.7a15.2 15.2 0 0 1 13.6-8.2c4.5 0 8 1.5 10.6 4.4a17 17 0 0 1 3.9 11.8v1.3zm-14.2-11.7a7 7 0 0 0-5.3 2 9.2 9.2 0 0 0-2.5 5.4h15c-.2-2.5-1-4.3-2.2-5.5a6.6 6.6 0 0 0-5-1.9zm51-5l-15 34.6c-1.8 4-4 7-6.6 8.7-2.6 1.9-5.9 3-9.8 3.7l-1.8-6.2c3-.6 5.3-1.5 6.8-2.6 1.6-1 2.8-2.5 3.7-4.6l1-2.4-13.4-31.1h8.4l9.3 23.2 9.5-23.2h7.9zm34.8 0v31.4c0 5-1.4 8.8-4.1 11.4-2.8 2.6-6.9 4-12.3 4-5 0-9.3-1.1-13.2-3.2l1.3-6c4 2 7.9 3 11.8 3 5.7 0 8.6-2.9 8.6-8.6v-6.4c-1 1.8-2.4 3.2-4.3 4.3a14.5 14.5 0 0 1-13.9-.4 14.1 14.1 0 0 1-5.1-5.7 19.1 19.1 0 0 1-1.8-8.4c0-3.2.6-6 1.8-8.4a13.6 13.6 0 0 1 12.7-7.8c2.3 0 4.5.6 6.3 1.6 1.9 1 3.3 2.4 4.3 4.1v-4.8h8zm-16.4 25.2c2.6 0 4.7-.8 6.2-2.6 1.5-1.7 2.3-4.2 2.3-7.2a11 11 0 0 0-2.3-7.3 7.8 7.8 0 0 0-6.2-2.6 8 8 0 0 0-6.3 2.6 10.8 10.8 0 0 0-2.2 7.3c0 3 .7 5.5 2.2 7.2a8 8 0 0 0 6.3 2.6zm54.5-25.1v32.3h-7.8v-5c-1 1.8-2.4 3.2-4.1 4.1a12 12 0 0 1-5.9 1.4c-7.9 0-11.8-4.4-11.8-13.3v-19.5h8v19.6c0 2.3.4 4 1.3 5.1 1 1.2 2.5 1.7 4.5 1.7 2.3 0 4.2-.8 5.6-2.3a8.7 8.7 0 0 0 2.1-6.1v-18h8.1zm39.6 0v32.3h-7.9v-5.2c-1 1.8-2.4 3.2-4.2 4.2a14.5 14.5 0 0 1-13.8-.5 13.5 13.5 0 0 1-5-5.9 20.2 20.2 0 0 1-1.8-8.7c0-3.4.6-6.3 1.8-8.9 1.2-2.6 3-4.6 5.1-6a13 13 0 0 1 7.4-2.2c2.4 0 4.5.6 6.3 1.6 1.8 1 3.3 2.4 4.2 4.1v-4.8h7.9zm-16.2 26.5c2.7 0 4.7-.9 6.2-2.7 1.4-1.8 2.1-4.4 2.1-7.8 0-3.4-.7-6-2.2-7.8a7.4 7.4 0 0 0-6.2-2.8c-2.6 0-4.7 1-6.2 2.9a12.6 12.6 0 0 0-2.1 7.9c0 3.3.7 5.9 2.1 7.7a7.7 7.7 0 0 0 6.3 2.6zm42.3-27.3a9 9 0 0 1 3.2.5v7.3c-1.4-.5-2.8-.8-4.3-.8-2.7 0-4.8.8-6.2 2.4a9 9 0 0 0-2.2 6.2v17.5h-7.9v-23.2c0-3.4-.2-6.4-.5-9.1h7.5l.6 5.7a9.3 9.3 0 0 1 3.9-4.8c1.7-1.1 3.7-1.7 6-1.7zm38-14v47.1h-8v-5.2a9.8 9.8 0 0 1-4.1 4.2c-1.9 1-4 1.5-6.3 1.5a13.4 13.4 0 0 1-12.6-8 21.2 21.2 0 0 1-1.7-9c0-3.3.6-6.2 1.8-8.7a13.5 13.5 0 0 1 12.5-8 12.3 12.3 0 0 1 10.4 5.5v-19.4h8zm-16.3 41.3c2.7 0 4.7-.9 6.2-2.7a12 12 0 0 0 2.2-7.8c0-3.4-.7-6-2.2-7.8a7.4 7.4 0 0 0-6.1-2.8c-2.7 0-4.8 1-6.3 2.8a12 12 0 0 0-2.2 7.7c0 3.3.8 6 2.2 7.8a7.5 7.5 0 0 0 6.2 2.8z" fill="#1F2348"/><rect x="1700" y="376" width="611" height="208" rx="12" fill="#fff" filter="url(#filter3_d)"/><path d="M1785 507.5v-45.6h8.2v38.8h21.3v6.8h-29.6zm63.3-15.7H1826c.2 3.4 1 6 2.5 7.6 1.6 1.7 4 2.5 7 2.5a16 16 0 0 0 9.9-3.5l2.3 5.5a18.5 18.5 0 0 1-5.7 3c-2.2.7-4.5 1.1-6.8 1.1a17 17 0 0 1-12.5-4.5c-3-3-4.5-7-4.5-12.3 0-3.2.6-6.2 2-8.7a14 14 0 0 1 5.5-6 16 16 0 0 1 8.2-2.2c4.4 0 7.9 1.5 10.5 4.4a17 17 0 0 1 3.9 11.8v1.3zM1834 480c-2.2 0-4 .6-5.3 2a9.2 9.2 0 0 0-2.5 5.4h15c-.3-2.5-1-4.3-2.3-5.5a6.6 6.6 0 0 0-5-1.9zm51.9-19.7v47.1h-8v-5.2a9.8 9.8 0 0 1-4.1 4.2c-1.9 1-4 1.5-6.3 1.5a13.4 13.4 0 0 1-12.6-8 21 21 0 0 1-1.8-9c0-3.3.6-6.2 1.8-8.7a13.5 13.5 0 0 1 12.6-8 12.3 12.3 0 0 1 10.4 5.5v-19.4h8zm-16.3 41.3c2.6 0 4.7-.9 6.1-2.7a12 12 0 0 0 2.3-7.8c0-3.4-.8-6-2.2-7.8a7.4 7.4 0 0 0-6.1-2.8c-2.7 0-4.8 1-6.3 2.8a12 12 0 0 0-2.2 7.7c0 3.3.7 6 2.2 7.8a7.5 7.5 0 0 0 6.2 2.8zm56.2-26.5v31.3c0 5-1.4 8.8-4.2 11.4-2.7 2.6-6.8 4-12.2 4-5 0-9.4-1.1-13.2-3.2l1.3-6c4 2 7.8 3 11.7 3 5.8 0 8.7-2.9 8.7-8.6v-6.4c-1 1.8-2.5 3.2-4.3 4.3a14.5 14.5 0 0 1-13.9-.4 14.2 14.2 0 0 1-5.1-5.7 19.3 19.3 0 0 1-1.8-8.4c0-3.2.6-6 1.8-8.4a13.6 13.6 0 0 1 12.6-7.8c2.4 0 4.5.6 6.4 1.6a10 10 0 0 1 4.3 4.1v-4.8h7.9zm-16.5 25.1c2.7 0 4.8-.8 6.3-2.6 1.5-1.7 2.3-4.2 2.3-7.2a11 11 0 0 0-2.3-7.3 7.8 7.8 0 0 0-6.3-2.6 8 8 0 0 0-6.2 2.6 10.8 10.8 0 0 0-2.3 7.3c0 3 .8 5.5 2.3 7.2a7.9 7.9 0 0 0 6.3 2.6zm53.4-8.5h-22.2c.1 3.4 1 6 2.5 7.6 1.6 1.7 4 2.5 7 2.5a16 16 0 0 0 9.9-3.5l2.3 5.5a18.4 18.4 0 0 1-5.7 3 23 23 0 0 1-6.8 1.1 17 17 0 0 1-12.5-4.5c-3-3-4.5-7-4.5-12.3 0-3.2.6-6.2 2-8.7a14 14 0 0 1 5.5-6c2.4-1.4 5.1-2.2 8.1-2.2 4.5 0 8 1.5 10.5 4.4a17 17 0 0 1 4 11.8v1.3zm-14.2-11.7c-2.1 0-3.9.6-5.2 2a9.2 9.2 0 0 0-2.6 5.4h15c-.2-2.5-1-4.3-2.2-5.5a6.6 6.6 0 0 0-5-1.9zm38.4-5.7a9 9 0 0 1 3.2.5v7.3c-1.4-.5-2.8-.8-4.3-.8-2.7 0-4.8.8-6.3 2.4a9 9 0 0 0-2 6.2v17.5h-8v-23.2c0-3.4-.2-6.4-.5-9.1h7.5l.6 5.7a9.3 9.3 0 0 1 3.9-4.8c1.7-1.1 3.7-1.7 6-1.7zm56.5-12.5h7.7v45.6h-6.1l-24.6-32v32h-7.7v-45.6h6.2l24.5 31.9v-31.9zm48 13.3v32.3h-8v-5.2a9.8 9.8 0 0 1-4.1 4.2 14.5 14.5 0 0 1-13.8-.5 13.5 13.5 0 0 1-5-5.9 20.2 20.2 0 0 1-1.8-8.7c0-3.4.5-6.3 1.7-8.9 1.3-2.6 3-4.6 5.2-6a13.4 13.4 0 0 1 13.7-.6 11 11 0 0 1 4.2 4.1v-4.8h7.8zm-16.2 26.5c2.6 0 4.6-.9 6.1-2.7 1.4-1.8 2.2-4.4 2.2-7.8 0-3.4-.8-6-2.2-7.8a7.4 7.4 0 0 0-6.2-2.8c-2.6 0-4.7 1-6.2 2.9a12.6 12.6 0 0 0-2.2 7.9c0 3.3.7 5.9 2.2 7.7a7.7 7.7 0 0 0 6.3 2.6zm43.4-27.4c7.7 0 11.5 4.5 11.5 13.4v19.8h-8V488c0-2.5-.4-4.4-1.4-5.5-1-1.2-2.5-1.8-4.6-1.8-2.4 0-4.4.8-5.9 2.4a8.5 8.5 0 0 0-2.2 6.1v18.3h-8v-23.2c0-3.4-.1-6.4-.4-9.1h7.4l.6 5.3c1.1-2 2.6-3.5 4.5-4.6 2-1 4-1.6 6.5-1.6zm34.7 33.7a18 18 0 0 1-8.7-2 14.2 14.2 0 0 1-5.8-5.9c-1.3-2.5-2-5.5-2-9 0-3.3.7-6.3 2-8.8 1.4-2.6 3.3-4.5 5.8-5.9a18 18 0 0 1 8.7-2c3.2 0 6 .6 8.6 2 2.4 1.4 4.3 3.3 5.7 5.9 1.3 2.5 2 5.5 2 8.9 0 3.4-.7 6.4-2 9a14 14 0 0 1-5.7 5.8c-2.5 1.3-5.4 2-8.6 2zm0-6.3c2.7 0 4.7-.8 6.1-2.6 1.5-1.8 2.2-4.4 2.2-8 0-3.4-.7-6-2.2-7.8a7.4 7.4 0 0 0-6.1-2.7c-2.7 0-4.8.9-6.2 2.7-1.5 1.8-2.2 4.4-2.2 7.9s.7 6.1 2.1 8a7.6 7.6 0 0 0 6.2 2.5zm56.8 6.4c-3.5 0-6.8-.5-9.9-1.4-3-1-5.6-2.3-7.7-4l2.8-6a24.9 24.9 0 0 0 14.9 4.8c3 0 5.5-.6 7.2-1.7a5.2 5.2 0 0 0 2.7-4.7c0-1.7-.9-3-2.5-3.9-1.6-.9-4.2-1.8-7.9-2.6a33 33 0 0 1-12.4-4.8 10 10 0 0 1-4-8.6c0-2.6.8-5 2.2-7.1 1.5-2.1 3.5-3.8 6.2-5a27.8 27.8 0 0 1 18.4-.3 19 19 0 0 1 7 4l-2.7 6a21 21 0 0 0-13.4-4.9c-3 0-5.3.7-7 1.9a5.7 5.7 0 0 0-2.6 5c0 1.7.8 3 2.3 4a27 27 0 0 0 7.8 2.7c3.8.8 6.9 1.8 9.3 2.9 2.3 1 4.2 2.4 5.5 4 1.2 1.6 1.9 3.7 1.9 6.2a12 12 0 0 1-2.2 7.1 14 14 0 0 1-6.3 4.7c-2.7 1.1-6 1.7-9.6 1.7z" fill="#1F2348"/><path d="M799 324l20 20-20 20m16-20h-52m-76 20l-20-20 20-20m-16 20h98.4M1597 188l20 20-20 20m16-20h-52m-76 20l-20-20 20-20m-16 20h98.4m29.6 252l20 20-20 20m16-20h-52m-76 20l-20-20 20-20m-16 20h98.4" opacity=".2" stroke="#1F2348" stroke-width="8" stroke-linecap="round" stroke-linejoin="round"/><defs><filter id="filter0_d" x="84" y="94" width="520" height="520" filterUnits="userSpaceOnUse" color-interpolation-filters="sRGB"><feFlood flood-opacity="0" result="BackgroundImageFix"/><feColorMatrix in="SourceAlpha" values="0 0 0 0 0 0 0 0 0 0 0 0 0 0 0 0 0 0 127 0"/><feOffset dy="10"/><feGaussianBlur stdDeviation="10"/><feColorMatrix values="0 0 0 0 0 0 0 0 0 0 0 0 0 0 0 0 0 0 0.111158 0"/><feBlend in2="BackgroundImageFix" result="effect1_dropShadow"/><feBlend in="SourceGraphic" in2="effect1_dropShadow" result="shape"/></filter><filter id="filter1_d" x="882" y="94" width="520" height="520" filterUnits="userSpaceOnUse" color-interpolation-filters="sRGB"><feFlood flood-opacity="0" result="BackgroundImageFix"/><feColorMatrix in="SourceAlpha" values="0 0 0 0 0 0 0 0 0 0 0 0 0 0 0 0 0 0 127 0"/><feOffset dy="10"/><feGaussianBlur stdDeviation="10"/><feColorMatrix values="0 0 0 0 0 0 0 0 0 0 0 0 0 0 0 0 0 0 0.111158 0"/><feBlend in2="BackgroundImageFix" result="effect1_dropShadow"/><feBlend in="SourceGraphic" in2="effect1_dropShadow" result="shape"/></filter><filter id="filter2_d" x="1680" y="94" width="690" height="248" filterUnits="userSpaceOnUse" color-interpolation-filters="sRGB"><feFlood flood-opacity="0" result="BackgroundImageFix"/><feColorMatrix in="SourceAlpha" values="0 0 0 0 0 0 0 0 0 0 0 0 0 0 0 0 0 0 127 0"/><feOffset dy="10"/><feGaussianBlur stdDeviation="10"/><feColorMatrix values="0 0 0 0 0 0 0 0 0 0 0 0 0 0 0 0 0 0 0.111158 0"/><feBlend in2="BackgroundImageFix" result="effect1_dropShadow"/><feBlend in="SourceGraphic" in2="effect1_dropShadow" result="shape"/></filter><filter id="filter3_d" x="1680" y="366" width="651" height="248" filterUnits="userSpaceOnUse" color-interpolation-filters="sRGB"><feFlood flood-opacity="0" result="BackgroundImageFix"/><feColorMatrix in="SourceAlpha" values="0 0 0 0 0 0 0 0 0 0 0 0 0 0 0 0 0 0 127 0"/><feOffset dy="10"/><feGaussianBlur stdDeviation="10"/><feColorMatrix values="0 0 0 0 0 0 0 0 0 0 0 0 0 0 0 0 0 0 0.111158 0"/><feBlend in2="BackgroundImageFix" result="effect1_dropShadow"/><feBlend in="SourceGraphic" in2="effect1_dropShadow" result="shape"/></filter><radialGradient id="paint0_radial" cx="0" cy="0" r="1" gradientUnits="userSpaceOnUse" gradientTransform="rotate(180 685 286) scale(456)"><stop stop-color="#260133"/><stop offset="1" stop-color="#1F2348"/></radialGradient></defs></svg>
