<svg xmlns="http://www.w3.org/2000/svg" width="2861" height="80" fill="none" viewBox="0 0 2861 80">
  <g clip-path="url(#a)">
    <mask id="b" width="91" height="80" x="0" y="0" maskUnits="userSpaceOnUse" style="mask-type:alpha">
      <path fill="#fff" d="M89.62 36.25 70.871 3.75a7.516 7.516 0 0 0-6.5-3.75H26.876a7.48 7.48 0 0 0-6.488 3.75L1.64 36.25a7.511 7.511 0 0 0 0 7.5l18.748 32.5A7.48 7.48 0 0 0 26.875 80h37.497a7.48 7.48 0 0 0 6.487-3.75l18.749-32.5a7.481 7.481 0 0 0 .012-7.5Z"/>
    </mask>
    <g mask="url(#b)">
      <path fill="#F0F0F0" d="M91-4.999H0V86h91V-4.999Z"/>
      <path fill="#6DA544" d="M91-5H0v30.333h91V-5Z"/>
      <path fill="#D80027" d="M91 55.667H0V86h91V55.667Z"/>
      <path fill="#F0F0F0" d="M11.87 22.696H7.913v5.34h3.957v-5.34Zm-7.913 0H0v5.34h3.957v-5.34Zm15.827 0h-3.957v5.34h3.957v-5.34Zm7.913 0H23.74v5.34h3.957v-5.34Zm7.911 0H31.65v5.34h3.957v-5.34Zm7.913 0h-3.956v5.34h3.956v-5.34Zm7.914 0h-3.957v5.34h3.957v-5.34Zm7.913 0h-3.956v5.34h3.956v-5.34Zm7.913 0h-3.956v5.34h3.956v-5.34Zm7.913 0h-3.956v5.34h3.956v-5.34Zm7.911 0H79.13v5.34h3.956v-5.34Zm7.915 0h-3.957v5.34h3.956v-5.34ZM11.87 53.062H7.913v5.242h3.957v-5.242Zm-7.913 0H0v5.242h3.957v-5.242Zm15.827 0h-3.957v5.242h3.957v-5.242Zm7.913 0H23.74v5.242h3.957v-5.242Zm7.911 0H31.65v5.242h3.957v-5.242Zm7.913 0h-3.956v5.242h3.956v-5.242Zm7.914 0h-3.957v5.242h3.957v-5.242Zm7.913 0h-3.956v5.242h3.956v-5.242Zm7.913 0h-3.956v5.242h3.956v-5.242Zm7.913 0h-3.956v5.242h3.956v-5.242Zm7.911 0H79.13v5.242h3.956v-5.242Zm7.915 0h-3.957v5.242h3.956v-5.242Z"/>
      <path fill="#D80027" d="M56.829 31.4h-4.564c.038.502.059 1.008.059 1.517 0 3.374-.843 6.645-2.314 8.973-.453.718-1.216 1.732-2.236 2.417V31.4h-4.55v12.906c-1.02-.684-1.783-1.698-2.236-2.416-1.47-2.328-2.314-5.599-2.314-8.974 0-.509.022-1.015.06-1.516h-4.565a25.25 25.25 0 0 0-.045 1.516c0 9.356 4.996 16.684 11.375 16.684s11.375-7.328 11.375-16.684c0-.511-.016-1.017-.045-1.516Z"/>
      <path fill="url(#c)" d="M89.62 36.25 70.871 3.75a7.516 7.516 0 0 0-6.5-3.75H26.876a7.48 7.48 0 0 0-6.488 3.75L1.64 36.25a7.511 7.511 0 0 0 0 7.5l18.748 32.5A7.48 7.48 0 0 0 26.875 80h37.497a7.48 7.48 0 0 0 6.487-3.75l18.749-32.5a7.481 7.481 0 0 0 .012-7.5Z"/>
    </g>
    <g clip-path="url(#d)">
      <mask id="e" width="91" height="80" x="130" y="0" maskUnits="userSpaceOnUse" style="mask-type:alpha">
        <path fill="#fff" d="m219.621 36.25-18.749-32.5A7.513 7.513 0 0 0 194.373 0h-37.497a7.482 7.482 0 0 0-6.488 3.75l-18.748 32.5a7.508 7.508 0 0 0 0 7.5l18.748 32.5a7.482 7.482 0 0 0 6.488 3.75h37.497a7.48 7.48 0 0 0 6.487-3.75l18.749-32.5a7.48 7.48 0 0 0 .012-7.5Z"/>
      </mask>
      <g mask="url(#e)">
        <path fill="#D80027" d="M164.747-6.546h-35.745v93.091h93.091v-93.09h-57.346Z"/>
        <path fill="#FFDA44" d="m175.546 19.4 4.782 14.709h15.454l-12.509 9.09 4.782 14.692-12.509-9.073-12.509 9.073 4.782-14.691-12.509-9.091h15.454l4.782-14.71Z"/>
        <path fill="url(#f)" d="m219.621 36.25-18.749-32.5A7.513 7.513 0 0 0 194.373 0h-37.497a7.482 7.482 0 0 0-6.488 3.75l-18.748 32.5a7.508 7.508 0 0 0 0 7.5l18.748 32.5a7.482 7.482 0 0 0 6.488 3.75h37.497a7.48 7.48 0 0 0 6.487-3.75l18.749-32.5a7.48 7.48 0 0 0 .012-7.5Z"/>
      </g>
    </g>
    <mask id="g" width="91" height="80" x="260" y="0" maskUnits="userSpaceOnUse" style="mask-type:alpha">
      <path fill="#fff" d="m349.607 36.25-18.749-32.5a7.516 7.516 0 0 0-6.5-3.75h-37.497a7.48 7.48 0 0 0-6.487 3.75l-18.749 32.5a7.513 7.513 0 0 0 0 7.5l18.749 32.5a7.48 7.48 0 0 0 6.487 3.75h37.497a7.48 7.48 0 0 0 6.487-3.75l18.749-32.5a7.482 7.482 0 0 0 .013-7.5Z"/>
    </mask>
    <g mask="url(#g)">
      <path fill="#FFDA44" d="M352.076 24.545h-93.091v30.91h93.091v-30.91Z"/>
      <path fill="#D80027" d="M258.985-6.546h93.091v31.091h-93.091v-31.09Zm0 62.001h93.091v31.09h-93.091v-31.09Z"/>
      <path fill="url(#h)" d="m349.607 36.25-18.749-32.5a7.516 7.516 0 0 0-6.5-3.75h-37.497a7.48 7.48 0 0 0-6.487 3.75l-18.749 32.5a7.513 7.513 0 0 0 0 7.5l18.749 32.5a7.48 7.48 0 0 0 6.487 3.75h37.497a7.48 7.48 0 0 0 6.487-3.75l18.749-32.5a7.482 7.482 0 0 0 .013-7.5Z"/>
    </g>
    <mask id="i" width="91" height="80" x="390" y="0" maskUnits="userSpaceOnUse" style="mask-type:alpha">
      <path fill="#fff" d="m479.593 36.25-18.749-32.5A7.516 7.516 0 0 0 454.345 0h-37.498a7.48 7.48 0 0 0-6.487 3.75l-18.749 32.5a7.513 7.513 0 0 0 0 7.5l18.749 32.5a7.48 7.48 0 0 0 6.487 3.75h37.498a7.482 7.482 0 0 0 6.487-3.75l18.748-32.5a7.482 7.482 0 0 0 .013-7.5Z"/>
    </mask>
    <g mask="url(#i)">
      <path fill="#6DA544" d="M388.972-6.546v93.091h93.091v-93.09h-93.091Zm46.545 69.819c-12.854 0-23.273-10.419-23.273-23.273 0-12.855 10.419-23.273 23.273-23.273 12.855 0 23.273 10.418 23.273 23.273s-10.418 23.273-23.273 23.273Z"/>
      <path fill="#D80027" d="M458.79 40c0 12.854-10.419 23.273-23.273 23.273-12.855 0-23.273-10.419-23.273-23.273 0-12.855 10.418-23.273 23.273-23.273 12.854 0 23.273 10.418 23.273 23.273Z"/>
      <path fill="url(#j)" d="m479.593 36.25-18.749-32.5A7.516 7.516 0 0 0 454.345 0h-37.498a7.48 7.48 0 0 0-6.487 3.75l-18.749 32.5a7.513 7.513 0 0 0 0 7.5l18.749 32.5a7.48 7.48 0 0 0 6.487 3.75h37.498a7.482 7.482 0 0 0 6.487-3.75l18.748-32.5a7.482 7.482 0 0 0 .013-7.5Z"/>
    </g>
    <mask id="k" width="91" height="80" x="520" y="0" maskUnits="userSpaceOnUse" style="mask-type:alpha">
      <path fill="#fff" d="M609.579 36.25 590.83 3.75a7.516 7.516 0 0 0-6.5-3.75h-37.497a7.48 7.48 0 0 0-6.487 3.75l-18.749 32.5a7.513 7.513 0 0 0 0 7.5l18.749 32.5a7.48 7.48 0 0 0 6.487 3.75h37.497a7.48 7.48 0 0 0 6.487-3.75l18.749-32.5a7.482 7.482 0 0 0 .013-7.5Z"/>
    </mask>
    <g mask="url(#k)">
      <path fill="#F0F0F0" d="m561.013 40-2.164 2.945a7.243 7.243 0 0 1-.618-2.945 7.18 7.18 0 0 1 .618-2.946L561.013 40Zm2.254 3.89 1.472 3.346a7.268 7.268 0 0 1-5.109-2.945l3.637-.4Zm1.472-11.127-1.472 3.346-3.637-.4a7.23 7.23 0 0 1 5.109-2.946Zm3.001 11.127 3.636.4a7.266 7.266 0 0 1-5.109 2.946l1.473-3.345Zm0-7.781-1.473-3.346a7.266 7.266 0 0 1 5.109 2.946l-3.636.4Zm4.418.945c.4.91.618 1.891.618 2.946a7.18 7.18 0 0 1-.618 2.945L569.994 40l2.164-2.946Z"/>
      <path fill="#F0F0F0" d="M518.958 24.491v31.036h93.091V24.491h-93.091Zm46.545 27.145c-6.418 0-11.636-5.218-11.636-11.636 0-6.418 5.218-11.636 11.636-11.636 6.419 0 11.637 5.218 11.637 11.636 0 6.418-5.218 11.636-11.637 11.636Z"/>
      <path fill="#FF9811" d="M518.958-6.546h93.091v31.037h-93.091V-6.546Z"/>
      <path fill="#6DA544" d="M518.958 55.509h93.091v31.036h-93.091V55.51Z"/>
      <path fill="#0052B4" d="M565.504 28.364c-6.437 0-11.637 5.218-11.637 11.636 0 6.418 5.2 11.636 11.637 11.636 6.418 0 11.636-5.218 11.636-11.636 0-6.418-5.218-11.636-11.636-11.636ZM558.231 40a7.18 7.18 0 0 1 .618-2.945L561.013 40l-2.164 2.946a7.18 7.18 0 0 1-.618-2.946Zm1.4 4.273 3.636-.4 1.473 3.345c-2.109-.2-3.927-1.309-5.109-2.945Zm3.636-8.164-3.636-.4a7.266 7.266 0 0 1 5.109-2.945l-1.473 3.345ZM572.776 40a7.18 7.18 0 0 1-.618 2.946L569.994 40l2.164-2.945c.4.89.618 1.89.618 2.945Zm-1.4-4.273-3.636.4-1.473-3.345c2.109.2 3.927 1.309 5.109 2.945Zm-5.109 11.51 1.473-3.346 3.636.4a7.23 7.23 0 0 1-5.109 2.945Z"/>
      <path fill="url(#l)" d="M609.579 36.25 590.83 3.75a7.516 7.516 0 0 0-6.5-3.75h-37.497a7.48 7.48 0 0 0-6.487 3.75l-18.749 32.5a7.513 7.513 0 0 0 0 7.5l18.749 32.5a7.48 7.48 0 0 0 6.487 3.75h37.497a7.48 7.48 0 0 0 6.487-3.75l18.749-32.5a7.482 7.482 0 0 0 .013-7.5Z"/>
    </g>
    <path fill="#000" d="M720.816 3.75A7.48 7.48 0 0 0 714.329 0h-37.497a7.48 7.48 0 0 0-6.487 3.75L657.208 26.5h76.745L720.816 3.75Z"/>
    <path fill="#D00" d="M657.37 53.775h76.407l5.8-10.025a7.513 7.513 0 0 0 0-7.5l-5.625-9.75h-76.744l-5.625 9.75a7.513 7.513 0 0 0 0 7.5l5.787 10.025Z"/>
    <path fill="#FFCE00" d="M670.343 76.25A7.48 7.48 0 0 0 676.83 80h37.498a7.48 7.48 0 0 0 6.487-3.75l12.961-22.462h-76.407l12.974 22.462Z"/>
    <path fill="url(#m)" d="m739.577 36.25-18.749-32.5a7.516 7.516 0 0 0-6.5-3.75h-37.497a7.48 7.48 0 0 0-6.487 3.75l-18.749 32.5a7.513 7.513 0 0 0 0 7.5l18.749 32.5a7.48 7.48 0 0 0 6.487 3.75h37.497a7.482 7.482 0 0 0 6.488-3.75l18.748-32.5a7.482 7.482 0 0 0 .013-7.5Z"/>
    <mask id="n" width="91" height="80" x="780" y="0" maskUnits="userSpaceOnUse" style="mask-type:alpha">
      <path fill="#fff" d="m869.565 36.25-18.749-32.5a7.516 7.516 0 0 0-6.5-3.75h-37.497a7.48 7.48 0 0 0-6.487 3.75l-18.749 32.5a7.513 7.513 0 0 0 0 7.5l18.749 32.5a7.48 7.48 0 0 0 6.487 3.75h37.497a7.48 7.48 0 0 0 6.487-3.75l18.749-32.5a7.482 7.482 0 0 0 .013-7.5Z"/>
    </mask>
    <g mask="url(#n)">
      <path fill="#F0F0F0" d="M872.034 24.545h-93.091v30.91h93.091v-30.91Z"/>
      <path fill="#D80027" d="M778.943-6.546h93.091v31.091h-93.091v-31.09Z"/>
      <path fill="#0052B4" d="M778.943 55.455h93.091v31.09h-93.091v-31.09Z"/>
      <path fill="url(#o)" d="m869.565 36.25-18.749-32.5a7.516 7.516 0 0 0-6.5-3.75h-37.497a7.48 7.48 0 0 0-6.487 3.75l-18.749 32.5a7.513 7.513 0 0 0 0 7.5l18.749 32.5a7.48 7.48 0 0 0 6.487 3.75h37.497a7.48 7.48 0 0 0 6.487-3.75l18.749-32.5a7.482 7.482 0 0 0 .013-7.5Z"/>
      <path fill="url(#p)" d="m869.565 36.25-18.749-32.5a7.516 7.516 0 0 0-6.5-3.75h-37.497a7.48 7.48 0 0 0-6.487 3.75l-18.749 32.5a7.513 7.513 0 0 0 0 7.5l18.749 32.5a7.48 7.48 0 0 0 6.487 3.75h37.497a7.48 7.48 0 0 0 6.487-3.75l18.749-32.5a7.482 7.482 0 0 0 .013-7.5Z"/>
    </g>
    <mask id="q" width="91" height="80" x="910" y="0" maskUnits="userSpaceOnUse" style="mask-type:alpha">
      <path fill="#fff" d="m999.551 36.25-18.749-32.5A7.516 7.516 0 0 0 974.303 0h-37.498a7.48 7.48 0 0 0-6.487 3.75l-18.749 32.5a7.513 7.513 0 0 0 0 7.5l18.749 32.5a7.48 7.48 0 0 0 6.487 3.75h37.498a7.482 7.482 0 0 0 6.487-3.75l18.748-32.5a7.472 7.472 0 0 0 .013-7.5Z"/>
    </mask>
    <g mask="url(#q)">
      <path fill="#F0F0F0" d="M908.93-6.546v93.091h93.09v-93.09h-93.09ZM974.385 52.8c-7.073 5.109-16.928 3.509-22.037-3.545-5.109-7.073-3.509-16.928 3.546-22.037a15.803 15.803 0 0 1 11.582-2.818 12.91 12.91 0 0 0-5.855 2.327c-5.745 4.146-7.036 12.164-2.891 17.91 4.146 5.745 12.164 7.036 17.909 2.89a12.796 12.796 0 0 0 4.037-4.818c-.655 3.89-2.819 7.564-6.291 10.09Zm5.818-20.382-2.309 4.146-.564-4.728-4.673-.927 4.31-2-.564-4.727 3.236 3.49 4.309-2-2.309 4.146 3.237 3.491-4.673-.89Z"/>
      <path fill="#496E2D" d="M894.873-6.546v93.091h107.147v-93.09H894.873Z"/>
      <path fill="#F0F0F0" d="M964.982 47.475c-5.746 4.145-13.764 2.854-17.909-2.891-4.146-5.746-2.855-13.764 2.89-17.91a12.833 12.833 0 0 1 5.855-2.326c-3.945-.582-8.091.29-11.582 2.818-7.073 5.109-8.654 14.982-3.545 22.036 5.109 7.073 14.982 8.655 22.036 3.546a15.722 15.722 0 0 0 6.309-10.11 12.932 12.932 0 0 1-4.054 4.837Zm-.255-23.291 3.237 3.49 4.309-2-2.309 4.146 3.236 3.491-4.673-.927-2.309 4.164-.563-4.728-4.673-.927 4.309-1.982-.564-4.727Z"/>
      <path fill="url(#r)" d="m999.551 36.25-18.749-32.5A7.516 7.516 0 0 0 974.303 0h-37.498a7.48 7.48 0 0 0-6.487 3.75l-18.749 32.5a7.513 7.513 0 0 0 0 7.5l18.749 32.5a7.48 7.48 0 0 0 6.487 3.75h37.498a7.482 7.482 0 0 0 6.487-3.75l18.748-32.5a7.472 7.472 0 0 0 .013-7.5Z"/>
    </g>
    <mask id="s" width="91" height="80" x="1040" y="0" maskUnits="userSpaceOnUse" style="mask-type:alpha">
      <path fill="#fff" d="m1129.54 36.25-18.75-32.5a7.522 7.522 0 0 0-6.5-3.75h-37.5a7.494 7.494 0 0 0-6.49 3.75l-18.74 32.5a7.499 7.499 0 0 0 0 7.5l18.74 32.5a7.494 7.494 0 0 0 6.49 3.75h37.5c2.67 0 5.15-1.425 6.49-3.75l18.74-32.5a7.499 7.499 0 0 0 .02-7.5Z"/>
    </mask>
    <g mask="url(#s)">
      <path fill="#F0F0F0" d="M1069.95-6.546v93.091h31.03v-93.09h-31.03Z"/>
      <path fill="#0052B4" d="M1069.95-6.546h-31.03v93.091h31.03v-93.09Z"/>
      <path fill="#D80027" d="M1132.01-6.546h-31.03v93.091h31.03v-93.09Z"/>
      <path fill="url(#t)" d="m1129.54 36.25-18.75-32.5a7.522 7.522 0 0 0-6.5-3.75h-37.5a7.494 7.494 0 0 0-6.49 3.75l-18.74 32.5a7.499 7.499 0 0 0 0 7.5l18.74 32.5a7.494 7.494 0 0 0 6.49 3.75h37.5c2.67 0 5.15-1.425 6.49-3.75l18.74-32.5a7.499 7.499 0 0 0 .02-7.5Z"/>
    </g>
    <mask id="u" width="91" height="80" x="1170" y="0" maskUnits="userSpaceOnUse" style="mask-type:alpha">
      <path fill="#fff" d="m1259.52 36.25-18.75-32.5a7.51 7.51 0 0 0-6.5-3.75h-37.49a7.482 7.482 0 0 0-6.49 3.75l-18.75 32.5a7.499 7.499 0 0 0 0 7.5l18.75 32.5a7.482 7.482 0 0 0 6.49 3.75h37.49c2.68 0 5.15-1.425 6.49-3.75l18.75-32.5a7.475 7.475 0 0 0 .01-7.5Z"/>
    </mask>
    <g mask="url(#u)">
      <path fill="#F0F0F0" d="M1199.93-6.546v93.091h31.03v-93.09h-31.03Z"/>
      <path fill="#6DA544" d="M1199.93-6.546h-31.03v93.091h31.03v-93.09Z"/>
      <path fill="#D80027" d="M1261.99-6.546h-31.03v93.091h31.03v-93.09Z"/>
      <path fill="url(#v)" d="m1259.95 36.25-18.75-32.5a7.51 7.51 0 0 0-6.5-3.75h-37.49a7.482 7.482 0 0 0-6.49 3.75l-18.75 32.5a7.499 7.499 0 0 0 0 7.5l18.75 32.5a7.482 7.482 0 0 0 6.49 3.75h37.49c2.68 0 5.15-1.425 6.49-3.75l18.75-32.5a7.475 7.475 0 0 0 .01-7.5Z"/>
    </g>
    <mask id="w" width="91" height="80" x="1300" y="0" maskUnits="userSpaceOnUse" style="mask-type:alpha">
      <path fill="#fff" d="m1389.51 36.25-18.75-32.5a7.522 7.522 0 0 0-6.5-3.75h-37.5a7.466 7.466 0 0 0-6.48 3.75l-18.75 32.5a7.499 7.499 0 0 0 0 7.5l18.75 32.5a7.466 7.466 0 0 0 6.48 3.75h37.5c2.67 0 5.15-1.425 6.49-3.75l18.75-32.5a7.475 7.475 0 0 0 .01-7.5Z"/>
    </mask>
    <g mask="url(#w)">
      <path fill="#F0F0F0" d="M1390.52-5h-90v90h90V-5Z"/>
      <path fill="#D80027" d="M1390.52 6.25h-90V17.5h90V6.25Zm0 22.5h-90V40h90V28.75Zm0 22.5h-90V62.5h90V51.25Zm0 22.5h-90V85h90V73.75Z"/>
      <path fill="#0052B4" d="M1345.52-5h-45v45h45V-5Z"/>
      <path fill="#FFDA44" d="M1331.4 29.168c-4.74 0-8.59-3.847-8.59-8.593 0-4.745 3.85-8.592 8.59-8.592 1.48 0 2.88.374 4.09 1.032A10.536 10.536 0 0 0 1328.1 10c-5.84 0-10.58 4.735-10.58 10.575 0 5.841 4.74 10.576 10.58 10.576 2.88 0 5.48-1.151 7.39-3.016a8.548 8.548 0 0 1-4.09 1.033Z"/>
      <path fill="#FFDA44" d="m1333.83 14.533 1.52 3.19 3.45-.796-1.55 3.181 2.77 2.197-3.45.778.01 3.536-2.75-2.212-2.76 2.212.01-3.536-3.45-.778 2.77-2.197-1.55-3.181 3.45.796 1.53-3.19Z"/>
      <path fill="url(#x)" d="m1389.94 36.25-18.75-32.5a7.522 7.522 0 0 0-6.5-3.75h-37.5a7.494 7.494 0 0 0-6.49 3.75l-18.74 32.5a7.499 7.499 0 0 0 0 7.5l18.74 32.5a7.494 7.494 0 0 0 6.49 3.75h37.5c2.67 0 5.15-1.425 6.49-3.75l18.74-32.5a7.499 7.499 0 0 0 .02-7.5Z"/>
    </g>
    <mask id="y" width="91" height="80" x="1430" y="0" maskUnits="userSpaceOnUse" style="mask-type:alpha">
      <path fill="#fff" d="m1519.49 36.25-18.74-32.5a7.522 7.522 0 0 0-6.5-3.75h-37.5a7.482 7.482 0 0 0-6.49 3.75l-18.75 32.5a7.548 7.548 0 0 0 0 7.5l18.75 32.5a7.482 7.482 0 0 0 6.49 3.75h37.5c2.67 0 5.15-1.425 6.48-3.75l18.75-32.5a7.475 7.475 0 0 0 .01-7.5Z"/>
    </mask>
    <g mask="url(#y)">
      <path fill="#6DA544" d="M1521.96 24.545h-93.09v30.91h93.09v-30.91Z"/>
      <path fill="#000" d="M1428.87-6.546h93.09v31.091h-93.09v-31.09Z"/>
      <path fill="#F0F0F0" d="M1428.87 55.455h93.09v31.09h-93.09v-31.09Z"/>
      <path fill="#D80027" d="M1428.87 86.545 1475.42 40l-46.55-46.546v93.091Z"/>
      <path fill="#FFDA44" d="m1432.87 2.727 1.64 2.364 2.73-.91-1.82 2.183 1.82 2.363-2.73-.909-1.82 2.364.18-2.91-2.72-.908 2.72-.91V2.728Zm0 67.091 1.64 2.364 2.73-.91-1.82 2.364 1.82 2.364-2.73-.91-1.82 2.183.18-2.728-2.72-.909 2.72-.909v-2.909Z"/>
      <path fill="url(#z)" d="m1519.49 36.25-18.74-32.5a7.522 7.522 0 0 0-6.5-3.75h-37.5a7.482 7.482 0 0 0-6.49 3.75l-18.75 32.5a7.548 7.548 0 0 0 0 7.5l18.75 32.5a7.482 7.482 0 0 0 6.49 3.75h37.5c2.67 0 5.15-1.425 6.48-3.75l18.75-32.5a7.475 7.475 0 0 0 .01-7.5Z"/>
    </g>
    <mask id="A" width="91" height="80" x="1560" y="0" maskUnits="userSpaceOnUse" style="mask-type:alpha">
      <path fill="#fff" d="m1649.48 36.25-18.75-32.5a7.51 7.51 0 0 0-6.5-3.75h-37.5a7.466 7.466 0 0 0-6.48 3.75l-18.75 32.5a7.499 7.499 0 0 0 0 7.5l18.75 32.5a7.466 7.466 0 0 0 6.48 3.75h37.5c2.68 0 5.15-1.425 6.49-3.75l18.75-32.5a7.475 7.475 0 0 0 .01-7.5Z"/>
    </mask>
    <g mask="url(#A)">
      <path fill="#F0F0F0" d="M1619.82 42.818a14.66 14.66 0 0 1-2.38 5.618c-4.54-5.69-11.54-9.345-19.38-9.345-2.55 0-5.02.381-7.35 1.109v-.182c0-2.055.42-4.018 1.2-5.8 1.99-.4 4.04-.636 6.15-.636 8.53-.019 16.25 3.527 21.76 9.236Z"/>
      <path fill="#6DA544" d="M1558.86-6.546v93.091h93.09v-93.09h-93.09Zm46.54 72.273L1570.5 40l34.9-25.727L1640.31 40l-34.91 25.727Z"/>
      <path fill="#0052B4" d="M1605.4 54.691c-8.05 0-14.6-6.473-14.69-14.509.11 8.036 6.64 14.51 14.69 14.51Zm9.9-3.836Zm2.14-2.418c-.07.109-.14.218-.24.327.08-.127.17-.218.24-.327Zm2.38-5.618Zm.11-.582c.11-.728.17-1.473.17-2.237 0-8.109-6.59-14.69-14.7-14.69-6.05 0-11.25 3.654-13.49 8.89h-.01c2.25-5.236 7.45-8.89 13.5-8.89 8.11 0 14.7 6.581 14.7 14.69 0 .764-.06 1.51-.17 2.237Z"/>
      <path fill="#FFDA44" d="M1605.4 14.273 1570.5 40l34.9 25.727L1640.31 40l-34.91-25.727Zm0 40.418c-8.1 0-14.69-6.582-14.69-14.691 0-8.11 6.59-14.69 14.69-14.69 8.11 0 14.7 6.58 14.7 14.69s-6.59 14.69-14.7 14.69Z"/>
      <path fill="#0052B4" d="M1598.06 39.073c-2.56 0-5.02.382-7.35 1.11.11 8.035 6.64 14.508 14.69 14.508 4.99 0 9.39-2.473 12.04-6.273-4.54-5.672-11.54-9.345-19.38-9.345Zm21.76 3.745c.18-.909.28-1.854.28-2.818 0-8.109-6.59-14.69-14.7-14.69-6.05 0-11.25 3.672-13.5 8.89 1.98-.418 4.05-.636 6.16-.636 8.53 0 16.25 3.545 21.76 9.254Z"/>
      <path fill="url(#B)" d="m1649.48 36.25-18.75-32.5a7.51 7.51 0 0 0-6.5-3.75h-37.5a7.466 7.466 0 0 0-6.48 3.75l-18.75 32.5a7.499 7.499 0 0 0 0 7.5l18.75 32.5a7.466 7.466 0 0 0 6.48 3.75h37.5c2.68 0 5.15-1.425 6.49-3.75l18.75-32.5a7.475 7.475 0 0 0 .01-7.5Z"/>
    </g>
    <mask id="C" width="91" height="80" x="1690" y="0" maskUnits="userSpaceOnUse" style="mask-type:alpha">
      <path fill="#fff" d="m1779.47 36.25-18.75-32.5a7.522 7.522 0 0 0-6.5-3.75h-37.5a7.494 7.494 0 0 0-6.49 3.75l-18.75 32.5a7.548 7.548 0 0 0 0 7.5l18.75 32.5a7.494 7.494 0 0 0 6.49 3.75h37.5c2.67 0 5.15-1.425 6.49-3.75l18.74-32.5a7.499 7.499 0 0 0 .02-7.5Z"/>
    </mask>
    <g mask="url(#C)">
      <path fill="#D80027" d="M1688.85-6.546v93.091h93.09v-93.09h-93.09Z"/>
      <path fill="#F0F0F0" d="M1735.34 42.236 1728.43 40h.02l6.89 2.236Zm4.27-5.872-4.26-5.855v-.018l4.26 5.873Zm6.91 9.509-6.91-2.237-4.27 5.873v-.018l4.27-5.873 6.91 2.255Zm-29.38-23.946c-9.26.473-16.68 7.891-17.13 17.127.44-9.236 7.87-16.654 17.13-17.127Zm7.52 32.727.7-.054c-.24.036-.48.054-.7.054Zm.69-.054c1.93-.218 3.73-.8 5.33-1.71-.03.037-.07.074-.11.11a14.52 14.52 0 0 1-5.22 1.6Zm5.33-27.527a14.622 14.622 0 0 0-6.27-1.746c2.25.11 4.38.71 6.25 1.727l.02.019Z"/>
      <path fill="#F0F0F0" d="m1747.5 30.491 4.25 5.873 6.91-2.236-4.27 5.872 4.27 5.873-6.91-2.236-4.27 5.872v-7.273L1740.57 40l6.91-2.236.02-7.273Z"/>
      <path fill="#F0F0F0" d="M1735.85 54.691c-8.11 0-14.7-6.582-14.7-14.69 0-8.11 6.59-14.692 14.7-14.692 2.52 0 4.9.636 6.98 1.764-3.26-3.182-7.73-5.164-12.64-5.164-9.98 0-18.07 8.091-18.07 18.073 0 9.982 8.09 18.073 18.07 18.073 4.93 0 9.38-1.964 12.64-5.164-2.06 1.164-4.44 1.8-6.98 1.8Z"/>
      <path fill="url(#D)" d="m1779.47 36.25-18.75-32.5a7.522 7.522 0 0 0-6.5-3.75h-37.5a7.494 7.494 0 0 0-6.49 3.75l-18.75 32.5a7.548 7.548 0 0 0 0 7.5l18.75 32.5a7.494 7.494 0 0 0 6.49 3.75h37.5c2.67 0 5.15-1.425 6.49-3.75l18.74-32.5a7.499 7.499 0 0 0 .02-7.5Z"/>
    </g>
    <mask id="E" width="91" height="80" x="1820" y="0" maskUnits="userSpaceOnUse" style="mask-type:alpha">
      <path fill="#fff" d="m1909.45 36.25-18.75-32.5a7.51 7.51 0 0 0-6.5-3.75h-37.49a7.482 7.482 0 0 0-6.49 3.75l-18.75 32.5a7.499 7.499 0 0 0 0 7.5l18.75 32.5a7.482 7.482 0 0 0 6.49 3.75h37.49c2.68 0 5.15-1.425 6.49-3.75l18.75-32.5a7.475 7.475 0 0 0 .01-7.5Z"/>
    </mask>
    <g mask="url(#E)">
      <path fill="#D80027" d="M1818.83-6.546v93.091h93.09v-93.09h-93.09Zm45.9 26.28 3.48 2.535 3.49-2.534-1.33 4.1 3.49 2.529h-4.31l-1.34 4.101-1.33-4.101h-4.31l3.49-2.535-1.33-4.095Zm-15.42 26.033-9.3 6.758 3.55-10.936-9.3-6.758h11.49l3.56-10.935 3.55 10.935h11.5l-9.3 6.758 3.55 10.936-9.3-6.758Zm22.39 14.498-3.49-2.534-3.48 2.534 1.33-4.1-3.49-2.529h4.31l1.33-4.1 1.34 4.1h4.31l-3.49 2.535 1.33 4.094Zm4.79-12.523-1.33 4.1-1.33-4.1h-4.32l3.49-2.535-1.33-4.102 3.49 2.531 3.49-2.53-1.33 4.101 3.49 2.535h-4.32Zm.82-12.947 1.34 4.1-3.49-2.531-3.49 2.534 1.33-4.102-3.49-2.532h4.32l1.33-4.102 1.33 4.102h4.31l-3.49 2.53Z"/>
      <path fill="#FFDA44" d="m1849.31 23.896 3.55 10.935h11.5l-9.3 6.758 3.55 10.936-9.3-6.758-9.3 6.758 3.55-10.936-9.3-6.758h11.5l3.55-10.935Zm22.39 36.369-3.49-2.534-3.48 2.534 1.33-4.1-3.49-2.534h4.31l1.33-4.1 1.34 4.1h4.31l-3.49 2.534 1.33 4.1Zm9.1-12.523h-4.31l-1.33 4.1-1.33-4.1h-4.32l3.49-2.535-1.33-4.102 3.49 2.535 3.49-2.535-1.34 4.102 3.49 2.535Zm0-15.482-3.49 2.535 1.34 4.1-3.49-2.535-3.49 2.535 1.33-4.102-3.49-2.533h4.32l1.33-4.102 1.33 4.102h4.31Zm-9.1-12.526-1.33 4.1 3.49 2.535h-4.31l-1.34 4.102-1.33-4.102h-4.31l3.49-2.535-1.33-4.102 3.48 2.537 3.49-2.535Z"/>
      <path fill="url(#F)" d="m1909.45 36.25-18.75-32.5a7.51 7.51 0 0 0-6.5-3.75h-37.49a7.482 7.482 0 0 0-6.49 3.75l-18.75 32.5a7.499 7.499 0 0 0 0 7.5l18.75 32.5a7.482 7.482 0 0 0 6.49 3.75h37.49c2.68 0 5.15-1.425 6.49-3.75l18.75-32.5a7.475 7.475 0 0 0 .01-7.5Z"/>
    </g>
    <mask id="G" width="91" height="80" x="1950" y="0" maskUnits="userSpaceOnUse" style="mask-type:alpha">
      <path fill="#fff" d="m2039.44 36.25-18.75-32.5a7.522 7.522 0 0 0-6.5-3.75h-37.5a7.466 7.466 0 0 0-6.48 3.75l-18.75 32.5a7.499 7.499 0 0 0 0 7.5l18.75 32.5a7.466 7.466 0 0 0 6.48 3.75h37.5c2.67 0 5.15-1.425 6.49-3.75l18.75-32.5a7.475 7.475 0 0 0 .01-7.5Z"/>
    </mask>
    <g mask="url(#G)">
      <path fill="#F0F0F0" d="M2041.91 24.545h-93.09v30.91h93.09v-30.91Z"/>
      <path fill="#F0F0F0" d="M1980.28-6.546v93.091h31.03v-93.09h-31.03Z"/>
      <path fill="#6DA544" d="M1980.28-6.546h-31.03v93.091h31.03v-93.09Zm62.06 0h-31.03v93.091h31.03v-93.09Z"/>
      <path fill="url(#H)" d="m2039.87 36.25-18.75-32.5a7.522 7.522 0 0 0-6.5-3.75h-37.5a7.494 7.494 0 0 0-6.49 3.75l-18.74 32.5a7.499 7.499 0 0 0 0 7.5l18.74 32.5a7.494 7.494 0 0 0 6.49 3.75h37.5c2.67 0 5.15-1.425 6.49-3.75l18.74-32.5a7.499 7.499 0 0 0 .02-7.5Z"/>
    </g>
    <mask id="I" width="91" height="80" x="2080" y="0" maskUnits="userSpaceOnUse" style="mask-type:alpha">
      <path fill="#fff" d="m2169.42 36.25-18.74-32.5a7.522 7.522 0 0 0-6.5-3.75h-37.5a7.482 7.482 0 0 0-6.49 3.75l-18.75 32.5a7.548 7.548 0 0 0 0 7.5l18.75 32.5a7.482 7.482 0 0 0 6.49 3.75h37.5c2.67 0 5.15-1.425 6.48-3.75l18.75-32.5a7.475 7.475 0 0 0 .01-7.5Z"/>
    </mask>
    <g mask="url(#I)">
      <path fill="#F0F0F0" d="M2171.89 24.545h-93.09v30.91h93.09v-30.91Z"/>
      <path fill="#D80027" d="M2078.8-6.546h93.09v31.091h-93.09v-31.09Zm0 62.001h93.09v31.09h-93.09v-31.09Z"/>
      <path fill="url(#J)" d="m2169.42 36.25-18.74-32.5a7.522 7.522 0 0 0-6.5-3.75h-37.5a7.482 7.482 0 0 0-6.49 3.75l-18.75 32.5a7.548 7.548 0 0 0 0 7.5l18.75 32.5a7.482 7.482 0 0 0 6.49 3.75h37.5c2.67 0 5.15-1.425 6.48-3.75l18.75-32.5a7.475 7.475 0 0 0 .01-7.5Z"/>
      <path fill="url(#K)" d="m2169.42 36.25-18.74-32.5a7.522 7.522 0 0 0-6.5-3.75h-37.5a7.482 7.482 0 0 0-6.49 3.75l-18.75 32.5a7.548 7.548 0 0 0 0 7.5l18.75 32.5a7.482 7.482 0 0 0 6.49 3.75h37.5c2.67 0 5.15-1.425 6.48-3.75l18.75-32.5a7.475 7.475 0 0 0 .01-7.5Z"/>
    </g>
    <mask id="L" width="91" height="80" x="2210" y="0" maskUnits="userSpaceOnUse" style="mask-type:alpha">
      <path fill="#fff" d="m2299.41 36.25-18.75-32.5a7.51 7.51 0 0 0-6.5-3.75h-37.5a7.466 7.466 0 0 0-6.48 3.75l-18.75 32.5a7.499 7.499 0 0 0 0 7.5l18.75 32.5a7.466 7.466 0 0 0 6.48 3.75h37.5c2.68 0 5.15-1.425 6.49-3.75l18.75-32.5a7.475 7.475 0 0 0 .01-7.5Z"/>
    </mask>
    <g mask="url(#L)">
      <path fill="#F0F0F0" d="M2300.43 0h-90v90h90V0Z"/>
      <path fill="#338AF3" d="M2304.43 0h-98.01v12.25h98.01V0Zm-4 23.502h-90v11.25h90v-11.25Zm.99 44.998h-91.99V80h91.99V68.5Z"/>
      <path fill="#338AF3" d="M2260.32 1h-49.89v50.624h49.89V1.001Z"/>
      <path fill="#338AF3" d="M2300.43 46h-90v11.25h90V46Z"/>
      <path fill="#F0F0F0" d="M2260.32 17.5h-49.89v10h49.89v-10Z"/>
      <path fill="#F0F0F0" d="M2240.37 0h-10v46.762h10V0Z"/>
      <path fill="url(#M)" d="m2299.84 36.25-18.75-32.5a7.51 7.51 0 0 0-6.5-3.75h-37.5a7.466 7.466 0 0 0-6.48 3.75l-18.75 32.5a7.499 7.499 0 0 0 0 7.5l18.75 32.5a7.466 7.466 0 0 0 6.48 3.75h37.5c2.68 0 5.15-1.425 6.49-3.75l18.75-32.5a7.475 7.475 0 0 0 .01-7.5Z"/>
    </g>
    <mask id="N" width="91" height="80" x="2340" y="0" maskUnits="userSpaceOnUse" style="mask-type:alpha">
      <path fill="#fff" d="m2429.4 36.25-18.75-32.5a7.522 7.522 0 0 0-6.5-3.75h-37.5a7.494 7.494 0 0 0-6.49 3.75l-18.75 32.5a7.548 7.548 0 0 0 0 7.5l18.75 32.5a7.494 7.494 0 0 0 6.49 3.75h37.5c2.67 0 5.15-1.425 6.48-3.75l18.75-32.5a7.499 7.499 0 0 0 .02-7.5Z"/>
    </mask>
    <g mask="url(#N)">
      <path fill="#F0F0F0" d="M2338.77-6.546v93.091h93.1v-93.09h-93.1Zm46.55 69.819c-12.85 0-23.27-10.419-23.27-23.273 0-12.855 10.42-23.273 23.27-23.273s23.27 10.418 23.27 23.273-10.42 23.273-23.27 23.273Z"/>
      <path fill="#D80027" d="M2408.59 40c0 12.854-10.41 23.273-23.27 23.273-12.85 0-23.27-10.419-23.27-23.273 0-12.855 10.42-23.273 23.27-23.273 12.86 0 23.27 10.418 23.27 23.273Z"/>
      <path fill="url(#O)" d="m2429.4 36.25-18.75-32.5a7.522 7.522 0 0 0-6.5-3.75h-37.5a7.494 7.494 0 0 0-6.49 3.75l-18.75 32.5a7.548 7.548 0 0 0 0 7.5l18.75 32.5a7.494 7.494 0 0 0 6.49 3.75h37.5c2.67 0 5.15-1.425 6.48-3.75l18.75-32.5a7.499 7.499 0 0 0 .02-7.5Z"/>
    </g>
    <mask id="P" width="91" height="80" x="2470" y="0" maskUnits="userSpaceOnUse" style="mask-type:alpha">
      <path fill="#fff" d="m2559.38 36.25-18.75-32.5a7.51 7.51 0 0 0-6.5-3.75h-37.49a7.482 7.482 0 0 0-6.49 3.75l-18.75 32.5a7.499 7.499 0 0 0 0 7.5l18.75 32.5a7.482 7.482 0 0 0 6.49 3.75h37.49c2.68 0 5.15-1.425 6.49-3.75l18.75-32.5a7.475 7.475 0 0 0 .01-7.5Z"/>
    </mask>
    <g mask="url(#P)">
      <path fill="#F0F0F0" d="M2561.85-6.545h-93.09V40h93.09V-6.545Z"/>
      <path fill="#D80027" d="M2468.76 40h93.09v46.546h-93.09V40Z"/>
      <path fill="url(#Q)" d="m2559.38 36.25-18.75-32.5a7.51 7.51 0 0 0-6.5-3.75h-37.49a7.482 7.482 0 0 0-6.49 3.75l-18.75 32.5a7.499 7.499 0 0 0 0 7.5l18.75 32.5a7.482 7.482 0 0 0 6.49 3.75h37.49c2.68 0 5.15-1.425 6.49-3.75l18.75-32.5a7.475 7.475 0 0 0 .01-7.5Z"/>
    </g>
    <mask id="R" width="91" height="80" x="2600" y="0" maskUnits="userSpaceOnUse" style="mask-type:alpha">
      <path fill="#fff" d="m2689.37 36.25-18.75-32.5a7.522 7.522 0 0 0-6.5-3.75h-37.5a7.494 7.494 0 0 0-6.49 3.75l-18.74 32.5a7.499 7.499 0 0 0 0 7.5l18.74 32.5a7.494 7.494 0 0 0 6.49 3.75h37.5c2.67 0 5.15-1.425 6.49-3.75l18.74-32.5a7.499 7.499 0 0 0 .02-7.5Z"/>
    </mask>
    <g mask="url(#R)">
      <path fill="#D80027" d="M2598.74-6.543v93.09h93.1v-93.09h-93.1Zm71.82 54.91h-16.91v16.908h-16.72V48.366h-16.91V31.64h16.91V14.73h16.72v16.91h16.91v16.727Z"/>
      <path fill="#F0F0F0" d="M2670.56 31.636h-16.9v-16.91h-16.73v16.91h-16.91v16.727h16.91v16.909h16.73v-16.91h16.9V31.637Z"/>
      <path fill="url(#S)" d="m2689.37 36.25-18.75-32.5a7.522 7.522 0 0 0-6.5-3.75h-37.5a7.494 7.494 0 0 0-6.49 3.75l-18.74 32.5a7.499 7.499 0 0 0 0 7.5l18.74 32.5a7.494 7.494 0 0 0 6.49 3.75h37.5c2.67 0 5.15-1.425 6.49-3.75l18.74-32.5a7.499 7.499 0 0 0 .02-7.5Z"/>
    </g>
    <mask id="T" width="91" height="80" x="2730" y="0" maskUnits="userSpaceOnUse" style="mask-type:alpha">
      <path fill="#fff" d="m2819.55 36.25-18.75-32.5a7.51 7.51 0 0 0-6.5-3.75h-37.5a7.466 7.466 0 0 0-6.48 3.75l-18.75 32.5a7.499 7.499 0 0 0 0 7.5l18.75 32.5a7.466 7.466 0 0 0 6.48 3.75h37.5c2.68 0 5.15-1.425 6.49-3.75l18.75-32.5a7.475 7.475 0 0 0 .01-7.5Z"/>
    </mask>
    <g mask="url(#T)">
      <path fill="#6DA544" d="M2822.02 24.545h-93.09v30.91h93.09v-30.91Z"/>
      <path fill="#F0F0F0" d="M2728.93-6.546h93.09v31.091h-93.09v-31.09Z"/>
      <path fill="#D80027" d="M2728.93 55.455h93.09v31.09h-93.09v-31.09Z"/>
      <path fill="url(#U)" d="m2819.55 36.25-18.75-32.5a7.51 7.51 0 0 0-6.5-3.75h-37.5a7.466 7.466 0 0 0-6.48 3.75l-18.75 32.5a7.499 7.499 0 0 0 0 7.5l18.75 32.5a7.466 7.466 0 0 0 6.48 3.75h37.5c2.68 0 5.15-1.425 6.49-3.75l18.75-32.5a7.475 7.475 0 0 0 .01-7.5Z"/>
    </g>
    <g clip-path="url(#V)">
      <mask id="W" width="91" height="80" x="2860" y="0" maskUnits="userSpaceOnUse" style="mask-type:alpha">
        <path fill="#fff" d="m2949.54 36.25-18.75-32.5a7.522 7.522 0 0 0-6.5-3.75h-37.5a7.482 7.482 0 0 0-6.49 3.75l-18.75 32.5a7.548 7.548 0 0 0 0 7.5l18.75 32.5a7.482 7.482 0 0 0 6.49 3.75h37.5c2.67 0 5.15-1.425 6.48-3.75l18.75-32.5a7.499 7.499 0 0 0 .02-7.5Z"/>
      </mask>
      <g mask="url(#W)">
        <path fill="#D80027" d="M2894.66-6.546h-35.74v93.091h93.09v-93.09h-57.35Z"/>
        <path fill="url(#X)" d="m2949.54 36.25-18.75-32.5a7.522 7.522 0 0 0-6.5-3.75h-37.5a7.482 7.482 0 0 0-6.49 3.75l-18.75 32.5a7.548 7.548 0 0 0 0 7.5l18.75 32.5a7.482 7.482 0 0 0 6.49 3.75h37.5c2.67 0 5.15-1.425 6.48-3.75l18.75-32.5a7.499 7.499 0 0 0 .02-7.5Z"/>
      </g>
    </g>
  </g>
  <defs>
    <radialGradient id="c" cx="0" cy="0" r="1" gradientTransform="matrix(90.016 0 0 90.0223 68.32 78.966)" gradientUnits="userSpaceOnUse">
      <stop stop-color="#1D1D1B" stop-opacity=".3"/>
      <stop offset="1" stop-color="#E9B213" stop-opacity="0"/>
    </radialGradient>
    <radialGradient id="f" cx="0" cy="0" r="1" gradientTransform="matrix(90.016 0 0 90.0223 198.321 78.966)" gradientUnits="userSpaceOnUse">
      <stop stop-color="#1D1D1B" stop-opacity=".3"/>
      <stop offset="1" stop-color="#E9B213" stop-opacity="0"/>
    </radialGradient>
    <radialGradient id="h" cx="0" cy="0" r="1" gradientTransform="matrix(90.016 0 0 90.0223 328.306 78.966)" gradientUnits="userSpaceOnUse">
      <stop stop-color="#1D1D1B" stop-opacity=".3"/>
      <stop offset="1" stop-color="#E9B213" stop-opacity="0"/>
    </radialGradient>
    <radialGradient id="j" cx="0" cy="0" r="1" gradientTransform="matrix(90.016 0 0 90.0223 458.293 78.966)" gradientUnits="userSpaceOnUse">
      <stop stop-color="#1D1D1B" stop-opacity=".3"/>
      <stop offset="1" stop-color="#E9B213" stop-opacity="0"/>
    </radialGradient>
    <radialGradient id="l" cx="0" cy="0" r="1" gradientTransform="matrix(90.016 0 0 90.0223 588.278 78.966)" gradientUnits="userSpaceOnUse">
      <stop stop-color="#1D1D1B" stop-opacity=".3"/>
      <stop offset="1" stop-color="#E9B213" stop-opacity="0"/>
    </radialGradient>
    <radialGradient id="m" cx="0" cy="0" r="1" gradientTransform="matrix(90.016 0 0 90.0223 718.276 78.966)" gradientUnits="userSpaceOnUse">
      <stop stop-color="#1D1D1B" stop-opacity=".3"/>
      <stop offset="1" stop-color="#E9B213" stop-opacity="0"/>
    </radialGradient>
    <radialGradient id="o" cx="0" cy="0" r="1" gradientTransform="matrix(90.016 0 0 90.0223 848.264 78.966)" gradientUnits="userSpaceOnUse">
      <stop stop-color="#1D1D1B" stop-opacity=".3"/>
      <stop offset="1" stop-color="#E9B213" stop-opacity="0"/>
    </radialGradient>
    <radialGradient id="p" cx="0" cy="0" r="1" gradientTransform="matrix(90.016 0 0 90.0223 848.264 78.966)" gradientUnits="userSpaceOnUse">
      <stop stop-color="#1D1D1B" stop-opacity=".3"/>
      <stop offset="1" stop-color="#E9B213" stop-opacity="0"/>
    </radialGradient>
    <radialGradient id="r" cx="0" cy="0" r="1" gradientTransform="matrix(90.016 0 0 90.0223 978.251 78.966)" gradientUnits="userSpaceOnUse">
      <stop stop-color="#1D1D1B" stop-opacity=".3"/>
      <stop offset="1" stop-color="#E9B213" stop-opacity="0"/>
    </radialGradient>
    <radialGradient id="t" cx="0" cy="0" r="1" gradientTransform="matrix(90.016 0 0 90.0223 1108.24 78.966)" gradientUnits="userSpaceOnUse">
      <stop stop-color="#1D1D1B" stop-opacity=".3"/>
      <stop offset="1" stop-color="#E9B213" stop-opacity="0"/>
    </radialGradient>
    <radialGradient id="v" cx="0" cy="0" r="1" gradientTransform="matrix(90.016 0 0 90.0223 1238.65 78.966)" gradientUnits="userSpaceOnUse">
      <stop stop-color="#1D1D1B" stop-opacity=".3"/>
      <stop offset="1" stop-color="#E9B213" stop-opacity="0"/>
    </radialGradient>
    <radialGradient id="x" cx="0" cy="0" r="1" gradientTransform="matrix(90.016 0 0 90.0223 1368.64 78.966)" gradientUnits="userSpaceOnUse">
      <stop stop-color="#1D1D1B" stop-opacity=".3"/>
      <stop offset="1" stop-color="#E9B213" stop-opacity="0"/>
    </radialGradient>
    <radialGradient id="z" cx="0" cy="0" r="1" gradientTransform="matrix(90.016 0 0 90.0223 1498.19 78.966)" gradientUnits="userSpaceOnUse">
      <stop stop-color="#1D1D1B" stop-opacity=".3"/>
      <stop offset="1" stop-color="#E9B213" stop-opacity="0"/>
    </radialGradient>
    <radialGradient id="B" cx="0" cy="0" r="1" gradientTransform="matrix(90.016 0 0 90.0223 1628.18 78.966)" gradientUnits="userSpaceOnUse">
      <stop stop-color="#1D1D1B" stop-opacity=".3"/>
      <stop offset="1" stop-color="#E9B213" stop-opacity="0"/>
    </radialGradient>
    <radialGradient id="D" cx="0" cy="0" r="1" gradientTransform="matrix(90.016 0 0 90.0223 1758.17 78.966)" gradientUnits="userSpaceOnUse">
      <stop stop-color="#1D1D1B" stop-opacity=".3"/>
      <stop offset="1" stop-color="#E9B213" stop-opacity="0"/>
    </radialGradient>
    <radialGradient id="F" cx="0" cy="0" r="1" gradientTransform="matrix(90.016 0 0 90.0223 1888.15 78.966)" gradientUnits="userSpaceOnUse">
      <stop stop-color="#1D1D1B" stop-opacity=".3"/>
      <stop offset="1" stop-color="#E9B213" stop-opacity="0"/>
    </radialGradient>
    <radialGradient id="H" cx="0" cy="0" r="1" gradientTransform="matrix(90.016 0 0 90.0223 2018.57 78.966)" gradientUnits="userSpaceOnUse">
      <stop stop-color="#1D1D1B" stop-opacity=".3"/>
      <stop offset="1" stop-color="#E9B213" stop-opacity="0"/>
    </radialGradient>
    <radialGradient id="J" cx="0" cy="0" r="1" gradientTransform="matrix(90.016 0 0 90.0223 2148.12 78.966)" gradientUnits="userSpaceOnUse">
      <stop stop-color="#1D1D1B" stop-opacity=".3"/>
      <stop offset="1" stop-color="#E9B213" stop-opacity="0"/>
    </radialGradient>
    <radialGradient id="K" cx="0" cy="0" r="1" gradientTransform="matrix(90.016 0 0 90.0223 2148.12 78.966)" gradientUnits="userSpaceOnUse">
      <stop stop-color="#1D1D1B" stop-opacity=".3"/>
      <stop offset="1" stop-color="#E9B213" stop-opacity="0"/>
    </radialGradient>
    <radialGradient id="M" cx="0" cy="0" r="1" gradientTransform="matrix(90.016 0 0 90.0223 2278.54 78.966)" gradientUnits="userSpaceOnUse">
      <stop stop-color="#1D1D1B" stop-opacity=".3"/>
      <stop offset="1" stop-color="#E9B213" stop-opacity="0"/>
    </radialGradient>
    <radialGradient id="O" cx="0" cy="0" r="1" gradientTransform="matrix(90.016 0 0 90.0223 2408.1 78.966)" gradientUnits="userSpaceOnUse">
      <stop stop-color="#1D1D1B" stop-opacity=".3"/>
      <stop offset="1" stop-color="#E9B213" stop-opacity="0"/>
    </radialGradient>
    <radialGradient id="Q" cx="0" cy="0" r="1" gradientTransform="matrix(90.016 0 0 90.0223 2538.08 78.966)" gradientUnits="userSpaceOnUse">
      <stop stop-color="#1D1D1B" stop-opacity=".3"/>
      <stop offset="1" stop-color="#E9B213" stop-opacity="0"/>
    </radialGradient>
    <radialGradient id="S" cx="0" cy="0" r="1" gradientTransform="matrix(90.0161 0 0 90.0223 2668.07 78.966)" gradientUnits="userSpaceOnUse">
      <stop stop-color="#1D1D1B" stop-opacity=".3"/>
      <stop offset="1" stop-color="#E9B213" stop-opacity="0"/>
    </radialGradient>
    <radialGradient id="U" cx="0" cy="0" r="1" gradientTransform="matrix(90.016 0 0 90.0223 2798.25 78.966)" gradientUnits="userSpaceOnUse">
      <stop stop-color="#1D1D1B" stop-opacity=".3"/>
      <stop offset="1" stop-color="#E9B213" stop-opacity="0"/>
    </radialGradient>
    <radialGradient id="X" cx="0" cy="0" r="1" gradientTransform="matrix(90.016 0 0 90.0223 2928.23 78.966)" gradientUnits="userSpaceOnUse">
      <stop stop-color="#1D1D1B" stop-opacity=".3"/>
      <stop offset="1" stop-color="#E9B213" stop-opacity="0"/>
    </radialGradient>
    <clipPath id="a">
      <path fill="#fff" d="M0 0h2861v80H0z"/>
    </clipPath>
    <clipPath id="d">
      <path fill="#fff" d="M0 0h89.986v80H0z" transform="translate(130.637)"/>
    </clipPath>
    <clipPath id="V">
      <path fill="#fff" d="M0 0h89.986v80H0z" transform="translate(2860.55)"/>
    </clipPath>
  </defs>
</svg>
