<svg xmlns="http://www.w3.org/2000/svg" width="24" height="27" fill="none" viewBox="0 0 24 27">
  <path fill="#1F2348" d="M23.003 8.624 21.17 1.93C20.786.542 19.337-.275 17.92.085L11.105 1.88c-1.05.277-1.966.963-2.5 1.877L.357 17.768a2.582 2.582 0 0 0 .966 3.56l9.399 5.322c1.266.719 2.9.294 3.616-.947l8.248-14.01c.55-.93.7-2.04.417-3.069Zm-6.55 6.515-2.115 3.609c-.15.26-.434.408-.734.424H9.355a.85.85 0 0 1-.733-.424l-2.133-3.609a.827.827 0 0 1 0-.833l2.133-3.608c.15-.261.433-.408.733-.425h4.25c.3 0 .583.164.733.425l2.116 3.608c.15.245.15.572 0 .833Zm1.684-9.503a1.615 1.615 0 0 1-1.966-1.11c-.234-.833.283-1.698 1.133-1.927a1.615 1.615 0 0 1 1.966 1.11c.233.833-.283 1.699-1.133 1.927Z"/>
</svg>
