<svg xmlns="http://www.w3.org/2000/svg" width="462" height="254" fill="none" viewBox="0 0 462 254">
  <g clip-path="url(#a)">
    <path fill="#F1F1F1" d="M0 0h462v254H0z"/>
    <path fill="url(#b)" d="M183 213a4 4 0 0 1 4-4h87a4 4 0 0 1 4 4v87a4 4 0 0 1-4 4h-87a4 4 0 0 1-4-4v-87Z"/>
    <path fill="#fff" d="M256.901 251.235c0-1.574-.605-3.026-1.654-3.954l-4.316-3.792.201 1.17-.363.04-3.025.484-24.286 3.833v.04c.081.041.161.081.282.121.404.242.807.444 1.17.726.888.686 1.089 1.614.565 2.623a4.106 4.106 0 0 1-.767 1.089c-.887.928-2.178.928-3.227 0-.282-.242-.524-.525-.807-.807l.525 3.268.322 1.936-1.21.928-.928-5.93c-.08.121-.121.242-.161.322-.242.404-.444.848-.767 1.251-.564.726-1.573.968-2.38.605-.605-.242-1.089-.605-1.533-1.129-.322-.404-.443-.848-.443-1.332 0-.726.363-1.25.847-1.734.201-.202.443-.404.686-.646l-5.769.928h-.081l.202 1.291-2.179-1.573a1.323 1.323 0 0 0-.645-.283c-.121-.04-.242-.04-.363-.04s-.242 0-.363.04a2.831 2.831 0 0 0-.525.202c.081-1.089.565-2.098 1.291-2.743l1.856-1.614.524 3.389 5.89-.928c-.363-.202-.726-.363-1.049-.525-1.331-.766-1.654-2.097-.807-3.388a5.89 5.89 0 0 1 .646-.767c.645-.605 1.654-.766 2.42-.363.444.242.807.565 1.13.928.121.121.202.242.363.403l-.887-4.8v-.121l-.162-.928-.04-.162-6.536 1.049c-1.411.242-2.38 1.533-2.138 2.986l.323 1.936-2.34 2.057c-1.049.928-1.654 2.381-1.654 3.954V273.1c0 .484.041.928.162 1.331.363 2.017 1.855 3.55 3.63 3.55h44.659c2.057 0 3.711-1.977 3.711-4.478v-22.268Zm-4.478 2.057 2.098-1.533c.121-.081.242-.161.403-.161.444 0 .928.524.928 1.291v17.347a5.354 5.354 0 0 0-.807-.848l-8.794-6.817-3.227-2.502 9.399-6.777Zm-46.675-.363c0-.403.121-.767.323-1.009a.705.705 0 0 1 .564-.282c.121 0 .242.04.404.161l3.025 2.179.121.081 8.472 6.131-6.656 5.164-.121.081-5.245 4.034c-.322.282-.645.565-.887.928v-17.468Zm49.459 22.793a3.94 3.94 0 0 1-.686.726c-.403.283-.847.444-1.331.444h-44.699c-1.291 0-2.34-1.17-2.622-2.703-.041-.242-.041-.444-.041-.686 0-.363.041-.726.122-1.049.201-.927.685-1.694 1.331-2.218l4.962-3.833.081-.04 7.221-5.567.847-.646v-.04l1.21-.928 7.665-5.93c.484-.363 1.009-.565 1.533-.565.565 0 1.089.202 1.533.565l8.835 6.817.847.686 2.703 2.098 9.601 7.423c.605.484 1.049 1.21 1.291 2.057.081.323.121.646.162 1.009v.242a3.24 3.24 0 0 1-.565 2.138Zm.605-24.891-.04-.04c-.041-.04-.081-.04-.121-.081 0 0-.041 0-.041-.04-.04 0-.04-.041-.08-.041-.041 0-.081-.04-.121-.04h-.767c-.202.04-.444.162-.645.283l-1.654 1.21c-.081-.646-.202-1.251-.283-1.896 0-.121-.04-.283-.04-.404l-.847-4.639 3.348 2.945c.726.645 1.21 1.654 1.291 2.743.081.041.161.081.202.162-.041-.081-.121-.121-.202-.162Z"/>
    <path fill="#fff" d="M223.256 245.546c-.202.444-.565.807-.968 1.09-.646.443-1.331.847-2.017 1.25-.04.041-.121.041-.162.081-.04 0-.04-.04-.08-.04.08-.444.161-.928.282-1.372.162-.565.323-1.089.565-1.614.081-.242.282-.443.444-.645.201-.242.484-.323.807-.202.443.162.766.444 1.048.807.202.161.202.403.081.645Zm-4.68 4.479c-.08.403-.121.766-.202 1.089-.201.646-.363 1.291-.605 1.937-.121.282-.322.524-.524.726-.202.242-.525.322-.807.161a4.285 4.285 0 0 1-.887-.605c-.323-.282-.364-.565-.121-.968a2.47 2.47 0 0 1 .927-1.009c.686-.444 1.372-.847 2.058-1.291 0 0 .081 0 .161-.04Zm5.729 1.815c-.161.403-.444.726-.767 1.008-.242.202-.524.242-.766.04-.323-.242-.646-.484-.888-.766-.605-.686-1.048-1.493-1.452-2.3v-.121a15.7 15.7 0 0 1 1.331.283c.646.161 1.332.323 1.896.686.202.121.404.282.565.484.162.201.162.443.081.686Zm-6.011-3.591c-.242-.04-.403-.04-.565-.08-.807-.162-1.614-.323-2.34-.686-.282-.121-.564-.323-.806-.525-.323-.242-.364-.564-.162-.887.202-.323.404-.605.646-.888.201-.242.484-.282.766-.121.323.162.605.404.847.646.646.726 1.13 1.573 1.614 2.541Z"/>
    <path fill="#fff" d="M249.962 237.761c-.08-.404-.121-.807-.201-1.211-.041-.161-.081-.322-.162-.484-.484-1.008-1.573-1.654-2.743-1.452l-28.4 4.478v.121l.04.242.161 1.049v.081l.404 2.501.322 1.936c.081-.161.121-.282.162-.363.202-.363.363-.726.605-1.049.686-.887 1.775-1.129 2.743-.605.404.202.807.525 1.13.847.726.767.807 1.695.242 2.542-.242.403-.605.726-.928 1.129-.081.081-.121.162-.202.242l20.171-3.187 6.011-.968 1.331-.201h.162l-.848-5.648Zm-2.783 1.613-.282.686-.323.767a.318.318 0 0 1-.162.161c-.04 0-.04 0-.08.04l-1.533.202a.367.367 0 0 1-.283-.121l-.484-.605-.484-.646c-.081-.08-.081-.201-.04-.322l.04-.121.525-1.372c.04-.121.121-.161.242-.202l1.533-.201c.121 0 .201.04.282.121l.968 1.25c.081.121.121.242.081.363Z"/>
    <path fill="url(#c)" d="M183.342 106a4 4 0 0 1 4-4h87a4 4 0 0 1 4 4v87a4 4 0 0 1-4 4h-87a4 4 0 0 1-4-4v-87Z"/>
    <path fill="#fff" d="M235.029 123.923a.857.857 0 0 0-.602.23l-2.794 2.823a.863.863 0 0 0-.189.779l1.056 3.816a.915.915 0 0 0 .567.611l3.854 1.028a.937.937 0 0 0 .771-.226l2.775-2.831a.78.78 0 0 0 .189-.778l-1.018-3.816a1.005 1.005 0 0 0-.555-.616l-3.854-1.02h-.2Zm-9.05 6.476a.707.707 0 0 0-.386.116l-3.511 1.908a.846.846 0 0 0-.284.274.845.845 0 0 0-.132.373l-.151 4.006a.891.891 0 0 0 .386.686l3.395 2.098a.684.684 0 0 0 .771 0l3.515-1.907a.731.731 0 0 0 .413-.647l.154-4.007a.867.867 0 0 0-.385-.689l-3.361-2.095-.386-.116h-.038Zm-16.693 2.974a1.814 1.814 0 0 0-.983.269c-.52.27-.913.736-1.095 1.297a2.024 2.024 0 0 0 .15 1.678 2.137 2.137 0 0 0 1.284 1.071l4.987 1.6 1.773 17.911-1.133 6.371a2.31 2.31 0 0 0 0 .915c.104.312.272.599.494.841a1.977 1.977 0 0 0 1.661.778h27.038a2.392 2.392 0 0 0 1.588-.572c.408-.414.636-.974.636-1.558 0-.583-.228-1.143-.636-1.557-.429-.407-1-.626-1.588-.607h-24.521l.528-2.94h25.72c.51.01 1.007-.165 1.399-.495.372-.342.624-.797.717-1.296l1.773-10.264a2.125 2.125 0 0 0-.413-1.679 2.34 2.34 0 0 0-1.511-.841l-4.081-.514.077-.19.867-3.894a.712.712 0 0 0-.224-.779l-2.871-2.725a.874.874 0 0 0-.794-.191l-3.777 1.144a.777.777 0 0 0-.567.569l-.867 3.855a.782.782 0 0 0 .227.779l.605.611-17.598-1.986-.386-3.547a2.274 2.274 0 0 0-.455-1.219 1.877 1.877 0 0 0-1.021-.689l-6.418-2.021a1.535 1.535 0 0 0-.597-.125h.012Zm10.406 33.958a3.216 3.216 0 0 0-2.378.993 3.313 3.313 0 0 0-.735 1.119c-.167.42-.247.87-.236 1.322.001.898.354 1.759.983 2.394a3.342 3.342 0 0 0 2.37.994 3.252 3.252 0 0 0 2.358-.888c.316-.297.57-.654.749-1.051a3.35 3.35 0 0 0 .293-1.262v-.234a3.278 3.278 0 0 0-.972-2.406 3.272 3.272 0 0 0-2.428-.981h-.004Zm19.792 0a3.247 3.247 0 0 0-2.382.993 3.69 3.69 0 0 0 0 4.844 3.18 3.18 0 0 0 2.382.993 3.132 3.132 0 0 0 2.417-.993 3.295 3.295 0 0 0 .979-2.403 3.33 3.33 0 0 0-.879-2.38 3.28 3.28 0 0 0-2.289-1.054h-.228Z"/>
    <path fill="url(#d)" d="M-31-1a4 4 0 0 1 4-4h87a4 4 0 0 1 4 4v87a4 4 0 0 1-4 4h-87a4 4 0 0 1-4-4V-1Z"/>
    <path fill="#fff" d="M5.713 19.328a4.942 4.942 0 0 0-3.84 2.235L-9.18 40.508a4.818 4.818 0 0 0 0 4.391L1.872 63.87a4.943 4.943 0 0 0 3.841 2.235h22.109a4.947 4.947 0 0 0 3.845-2.234l11.052-18.945a4.818 4.818 0 0 0 0-4.392l-11.052-19.01a4.895 4.895 0 0 0-3.845-2.234l-22.11.038ZM27.43 31.01c.392 0 .784.194.784.862l-4.271 21.48a1.572 1.572 0 0 1-2.037.883 1.718 1.718 0 0 1-.198-.1l-9.903-7.525 11.483-10.424c.513-.43.315-.551.315-.551.038-.47-.784 0-.784 0L8.89 44.456l2.351 7.448.513-4.59 3.25 2.709-3.293 3.014a.78.78 0 0 1-.31.155h-.315a.315.315 0 0 1-.314-.237l-2.549-8.112-6.028-2.04s-.938-.354-1.02-1.017c-.082-.663 1.06-1.18 1.06-1.18L26.262 31.2v.082c.37-.157.765-.249 1.167-.271Z"/>
    <path fill="url(#e)" d="M76 54a4 4 0 0 1 4-4h87a4 4 0 0 1 4 4v87a4 4 0 0 1-4 4H80a4 4 0 0 1-4-4V54Z"/>
    <path fill="#fff" fill-rule="evenodd" d="M122.641 76.615a2.302 2.302 0 0 0-1.802-1.038h-10.248a2.287 2.287 0 0 0-1.802 1.038l-5.126 8.72a2.21 2.21 0 0 0 0 2.075l5.126 8.754a2.289 2.289 0 0 0 1.802 1.037h10.248a2.24 2.24 0 0 0 1.802-1.037l5.122-8.785a2.117 2.117 0 0 0 0-2.041l-5.122-8.723Zm21.051 11.972a2.382 2.382 0 0 0-1.802-1.038h-10.248a2.287 2.287 0 0 0-1.802 1.037l-5.122 8.79a2.186 2.186 0 0 0 0 2.075l5.122 8.755a2.29 2.29 0 0 0 1.802 1.037h10.248a2.288 2.288 0 0 0 1.802-1.037l5.126-8.755a2.139 2.139 0 0 0 0-2.04l-5.126-8.825Zm-20.923 12.041a2.17 2.17 0 0 0-1.728-1.037h-10.315a2.287 2.287 0 0 0-1.798 1.037l-5.091 8.789a2.142 2.142 0 0 0 0 2.041l5.126 8.754a2.383 2.383 0 0 0 1.798 1.038h10.249a2.33 2.33 0 0 0 1.797-1.038l5.127-8.789a2.208 2.208 0 0 0 0-2.075l-5.165-8.72Z" clip-rule="evenodd"/>
    <path fill="url(#f)" d="M398 54a4 4 0 0 1 4-4h87a4 4 0 0 1 4 4v87a4 4 0 0 1-4 4h-87a4 4 0 0 1-4-4V54Z"/>
    <path fill="#fff" fill-rule="evenodd" d="M444.641 76.615a2.302 2.302 0 0 0-1.802-1.038h-10.248a2.287 2.287 0 0 0-1.802 1.038l-5.126 8.72a2.21 2.21 0 0 0 0 2.075l5.126 8.754a2.289 2.289 0 0 0 1.802 1.037h10.248a2.24 2.24 0 0 0 1.802-1.037l5.122-8.785a2.117 2.117 0 0 0 0-2.041l-5.122-8.723Zm21.051 11.972a2.382 2.382 0 0 0-1.802-1.038h-10.248a2.287 2.287 0 0 0-1.802 1.037l-5.122 8.79a2.186 2.186 0 0 0 0 2.075l5.122 8.755a2.29 2.29 0 0 0 1.802 1.037h10.248a2.288 2.288 0 0 0 1.802-1.037l5.126-8.755a2.139 2.139 0 0 0 0-2.04l-5.126-8.825Zm-20.923 12.041a2.17 2.17 0 0 0-1.728-1.037h-10.315a2.287 2.287 0 0 0-1.798 1.037l-5.091 8.789a2.142 2.142 0 0 0 0 2.041l5.126 8.754a2.383 2.383 0 0 0 1.798 1.038h10.249a2.33 2.33 0 0 0 1.797-1.038l5.127-8.789a2.208 2.208 0 0 0 0-2.075l-5.165-8.72Z" clip-rule="evenodd"/>
    <path fill="#fff" fill-opacity=".15" d="M402 51h87v-2h-87v2Zm90 3v87h2V54h-2Zm-3 90h-87v2h87v-2Zm-90-3V54h-2v87h2Zm3 3a3 3 0 0 1-3-3h-2a5 5 0 0 0 5 5v-2Zm90-3a3 3 0 0 1-3 3v2a5 5 0 0 0 5-5h-2Zm-3-90a3 3 0 0 1 3 3h2a5 5 0 0 0-5-5v2Zm-87-2a5 5 0 0 0-5 5h2a3 3 0 0 1 3-3v-2Z"/>
    <path fill="url(#g)" d="M291 123a4 4 0 0 1 4-4h87a4 4 0 0 1 4 4v87a4 4 0 0 1-4 4h-87a4 4 0 0 1-4-4v-87Z"/>
    <g clip-path="url(#h)">
      <path fill="#fff" fill-rule="evenodd" d="M315.668 144.422a4.639 4.639 0 0 1 6.516-.754l15.641 12.394a4.636 4.636 0 0 1 0 7.27l-15.641 12.394a4.639 4.639 0 0 1-5.762-7.271l11.053-8.758-11.053-8.758a4.64 4.64 0 0 1-.754-6.517Zm46.23 14.174a4.64 4.64 0 0 1-.755 6.517l-11.053 8.758 11.053 8.758a4.64 4.64 0 0 1-5.761 7.271l-15.641-12.394a4.637 4.637 0 0 1 0-7.27l15.641-12.394a4.639 4.639 0 0 1 6.516.754Z" clip-rule="evenodd"/>
    </g>
    <path fill="#fff" fill-opacity=".15" d="M295 120h87v-2h-87v2Zm90 3v87h2v-87h-2Zm-3 90h-87v2h87v-2Zm-90-3v-87h-2v87h2Zm3 3a3 3 0 0 1-3-3h-2a5 5 0 0 0 5 5v-2Zm90-3a3 3 0 0 1-3 3v2a5 5 0 0 0 5-5h-2Zm-3-90a3 3 0 0 1 3 3h2a5 5 0 0 0-5-5v2Zm-87-2a5 5 0 0 0-5 5h2a3 3 0 0 1 3-3v-2Z"/>
    <path fill="url(#i)" d="M76 161a4 4 0 0 1 4-4h87a4 4 0 0 1 4 4v87a4 4 0 0 1-4 4H80a4 4 0 0 1-4-4v-87Z"/>
    <path fill="#fff" d="m110.713 227.684-.751-.575.876-1.612.877-1.611-5.008-8.737-5.008-8.778-1.907-.113-1.87-.118v-2.375l1.908-.117 1.907-.114 4.953-8.661 4.941-8.665-.955-1.569c-1.144-1.918-1.144-1.918 0-2.493l.955-.419.914 1.569.877 1.611h20.89l.914-1.649.951-1.594.764.386c1.027.575 1.027.881 0 2.568l-.764 1.376 5.008 8.779 5.029 8.778 1.907.113 1.869.118v2.375l-1.907.117-1.907.114-4.953 8.661-4.971 8.648.956 1.532c1.143 1.955 1.143 1.993 0 2.518l-.956.419-.913-1.603-.877-1.573h-21.04l-.23.692a8.47 8.47 0 0 1-.951 1.645l-.726.923-.802-.566Zm21.366-6.786-1.252-2.031h-13.746l-1.03 1.876-1.081 2.044c0 .079 4.119.155 9.151.155h9.148l-1.19-2.044Zm-17.877-1.38.876-1.763-3.317-5.786-3.339-5.791h-4.377l3.505 6.017 4.348 7.554c1.102 1.955 1.294 1.917 2.325-.231h-.021Zm25.234-5.749 4.328-7.591h-4.307l-3.338 5.749-3.318 5.791.956 1.8c1.218 2.337.759 2.799 5.717-5.749h-.038Zm-10.787 1.301-1.031-1.725-3.622-.151-3.58-.117-.881 1.611c-.364.595-.67 1.225-.914 1.88v.231h11.038l-1.01-1.729Zm-10.921-1.515.835-1.456-1.64-2.938-1.636-2.937h-4.457l.609.923 2.746 4.713 2.17 3.831.267-.382c.155-.151.647-.957 1.144-1.725l-.038-.029Zm15.971-1.725c.884-1.58 1.787-3.151 2.708-4.712l.609-.923h-4.461l-1.636 2.937-1.602 2.912 1.068 1.8 1.144 1.763 2.211-3.777h-.041Zm-7.775-.956c0-.387-1.79-3.45-2.02-3.45-.229 0-2.019 3.063-2.019 3.45 0 .113.913.226 2.019.226s2.02-.13 2.02-.243v.017Zm-4.916-3.068.914-1.611h-4.173l.952 1.649c.496.881 1.03 1.611 1.143 1.611.113 0 .689-.73 1.185-1.611l-.021-.038Zm8.117 0 .914-1.611h-4.077l.914 1.611c1.143 2.031 1.143 2.031 2.286 0h-.037Zm-17.381-9.811 3.318-5.753-.956-1.8c-1.219-2.337-.76-2.837-5.717 5.749l-4.269 7.574h4.306l3.318-5.77Zm5.262 2.682 1.561-2.837-1.143-1.762-1.069-1.763-2.17 3.831c-1.222 2.031-2.441 4.142-2.821 4.675l-.567.982 2.324-.113 2.325-.118 1.56-2.895Zm4.002 1.456c-1.143-1.993-1.143-1.993-2.287 0l-.918 1.649h4.119l-.914-1.649Zm8.154 0c-.492-.881-1.026-1.612-1.143-1.612-.117 0-.684.731-1.181 1.612l-.914 1.649h4.194l-.956-1.649Zm7.282.73-2.745-4.792-2.133-3.836-.267.349-1.143 1.762-.835 1.456 1.64 2.938 1.636 2.937h4.49l-.643-.814Zm3.89-5.178-4.349-7.604c-1.101-1.917-1.293-1.917-2.324.269l-.876 1.762 3.338 5.749 3.339 5.829h4.344l-3.472-6.005Zm-15.249 3.185c1.144-2.098 1.219-2.073-1.143-2.073s-2.287-.038-1.144 2.073c1.144 1.934 1.144 1.934 2.287-.017v.017Zm3.28-5.778c1.219-2.183 1.411-2.099-4.728-1.952l-5.337.114 1.068 1.724 1.027 1.792h7.094l.876-1.678Zm3.468-5.976 1.081-2.027c0-.075-4.119-.151-9.152-.151h-9.159l1.252 2.031 1.218 2.031h13.721l1.039-1.884Z"/>
    <path fill="url(#j)" d="M398 161a4 4 0 0 1 4-4h87a4 4 0 0 1 4 4v87a4 4 0 0 1-4 4h-87a4 4 0 0 1-4-4v-87Z"/>
    <path fill="#fff" d="m432.713 227.684-.751-.575.876-1.612.877-1.611-5.008-8.737-5.008-8.778-1.907-.113-1.869-.118v-2.375l1.907-.117 1.907-.114 4.953-8.661 4.941-8.665-.955-1.569c-1.144-1.918-1.144-1.918 0-2.493l.955-.419.914 1.569.877 1.611h20.89l.914-1.649.951-1.594.764.386c1.027.575 1.027.881 0 2.568l-.764 1.376 5.008 8.779 5.029 8.778 1.907.113 1.869.118v2.375l-1.907.117-1.907.114-4.953 8.661-4.971 8.648.956 1.532c1.143 1.955 1.143 1.993 0 2.518l-.956.419-.913-1.603-.877-1.573h-21.04l-.23.692a8.47 8.47 0 0 1-.951 1.645l-.726.923-.802-.566Zm21.366-6.786-1.252-2.031h-13.746l-1.03 1.876-1.081 2.044c0 .079 4.119.155 9.151.155h9.148l-1.19-2.044Zm-17.877-1.38.876-1.763-3.317-5.786-3.339-5.791h-4.377l3.505 6.017 4.348 7.554c1.102 1.955 1.294 1.917 2.325-.231h-.021Zm25.234-5.749 4.328-7.591h-4.307l-3.338 5.749-3.318 5.791.956 1.8c1.218 2.337.759 2.799 5.717-5.749h-.038Zm-10.787 1.301-1.031-1.725-3.622-.151-3.58-.117-.881 1.611c-.364.595-.67 1.225-.914 1.88v.231h11.038l-1.01-1.729Zm-10.921-1.515.835-1.456-1.64-2.938-1.636-2.937h-4.457l.609.923 2.746 4.713 2.17 3.831.267-.382c.155-.151.647-.957 1.144-1.725l-.038-.029Zm15.971-1.725c.884-1.58 1.787-3.151 2.708-4.712l.609-.923h-4.461l-1.636 2.937-1.602 2.912 1.068 1.8 1.144 1.763 2.211-3.777h-.041Zm-7.775-.956c0-.387-1.79-3.45-2.02-3.45-.229 0-2.019 3.063-2.019 3.45 0 .113.913.226 2.019.226s2.02-.13 2.02-.243v.017Zm-4.916-3.068.914-1.611h-4.173l.952 1.649c.496.881 1.03 1.611 1.143 1.611.113 0 .689-.73 1.185-1.611l-.021-.038Zm8.117 0 .914-1.611h-4.077l.914 1.611c1.143 2.031 1.143 2.031 2.286 0h-.037Zm-17.381-9.811 3.318-5.753-.956-1.8c-1.219-2.337-.76-2.837-5.717 5.749l-4.269 7.574h4.306l3.318-5.77Zm5.262 2.682 1.561-2.837-1.143-1.762-1.069-1.763-2.17 3.831c-1.222 2.031-2.441 4.142-2.821 4.675l-.567.982 2.324-.113 2.325-.118 1.56-2.895Zm4.002 1.456c-1.143-1.993-1.143-1.993-2.287 0l-.918 1.649h4.119l-.914-1.649Zm8.154 0c-.492-.881-1.026-1.612-1.143-1.612-.117 0-.684.731-1.181 1.612l-.914 1.649h4.194l-.956-1.649Zm7.282.73-2.745-4.792-2.133-3.836-.267.349-1.143 1.762-.835 1.456 1.64 2.938 1.636 2.937h4.49l-.643-.814Zm3.89-5.178-4.349-7.604c-1.101-1.917-1.293-1.917-2.324.269l-.876 1.762 3.338 5.749 3.339 5.829h4.344l-3.472-6.005Zm-15.249 3.185c1.144-2.098 1.219-2.073-1.143-2.073s-2.287-.038-1.144 2.073c1.144 1.934 1.144 1.934 2.287-.017v.017Zm3.28-5.778c1.219-2.183 1.411-2.099-4.728-1.952l-5.337.114 1.068 1.724 1.027 1.792h7.094l.876-1.678Zm3.468-5.976 1.081-2.027c0-.075-4.119-.151-9.152-.151h-9.159l1.252 2.031 1.218 2.031h13.721l1.039-1.884Z"/>
    <path fill="#fff" fill-opacity=".15" d="M402 158h87v-2h-87v2Zm90 3v87h2v-87h-2Zm-3 90h-87v2h87v-2Zm-90-3v-87h-2v87h2Zm3 3a3 3 0 0 1-3-3h-2a5 5 0 0 0 5 5v-2Zm90-3a3 3 0 0 1-3 3v2a5 5 0 0 0 5-5h-2Zm-3-90a3 3 0 0 1 3 3h2a5 5 0 0 0-5-5v2Zm-87-2a5 5 0 0 0-5 5h2a3 3 0 0 1 3-3v-2Z"/>
    <path fill="url(#k)" d="M291 231.461a5.461 5.461 0 0 1 5.461-5.461h84.078a5.461 5.461 0 0 1 5.461 5.461v84.078a5.461 5.461 0 0 1-5.461 5.461h-84.078a5.461 5.461 0 0 1-5.461-5.461v-84.078Z"/>
    <path fill="#fff" d="m364.401 271.273-11.039-19.296a4.418 4.418 0 0 0-3.826-2.227h-22.078a4.396 4.396 0 0 0-3.819 2.227L312.6 271.273a4.496 4.496 0 0 0 0 4.454l11.039 19.296a4.396 4.396 0 0 0 3.819 2.227h22.078a4.398 4.398 0 0 0 3.819-2.227l11.039-19.296a4.48 4.48 0 0 0 .007-4.454Z"/>
    <path fill="#fff" fill-opacity=".15" d="M296.461 227h84.078v-2h-84.078v2ZM385 231.461v84.078h2v-84.078h-2ZM380.539 320h-84.078v2h84.078v-2ZM292 315.539v-84.078h-2v84.078h2Zm4.461 4.461a4.46 4.46 0 0 1-4.461-4.461h-2a6.461 6.461 0 0 0 6.461 6.461v-2ZM385 315.539a4.46 4.46 0 0 1-4.461 4.461v2a6.461 6.461 0 0 0 6.461-6.461h-2ZM380.539 227a4.46 4.46 0 0 1 4.461 4.461h2a6.461 6.461 0 0 0-6.461-6.461v2Zm-84.078-2a6.461 6.461 0 0 0-6.461 6.461h2a4.46 4.46 0 0 1 4.461-4.461v-2Z"/>
    <path fill="url(#l)" d="M-31 106a4 4 0 0 1 4-4h87a4 4 0 0 1 4 4v87a4 4 0 0 1-4 4h-87a4 4 0 0 1-4-4v-87Z"/>
    <path fill="#fff" fill-rule="evenodd" d="M-4.71 153.254a27.988 27.988 0 0 0 3.766 11.56c1.563 2.311 3.717 3.93 6.728 5.816l3.042 1.776c1.704.963 3.61 2.085 5.69 3.365a3.172 3.172 0 0 0 3.35-.028c2.063-1.3 3.99-2.404 5.634-3.337l3.073-1.776c3.042-1.825 5.22-3.45 6.838-5.816a27.988 27.988 0 0 0 3.766-11.56c.786-6.123 1.267-13.739 1.41-19.202.044-1.705-1.344-3.07-3.045-3.195a39.809 39.809 0 0 1-17.564-5.566 3.403 3.403 0 0 0-3.495 0 39.829 39.829 0 0 1-17.56 5.565c-1.7.125-3.086 1.491-3.034 3.195.225 7.265 1.096 17.193 1.401 19.203Z" clip-rule="evenodd"/>
    <path fill="url(#m)" d="M-31 217.5a4 4 0 0 1 4-4h87a4 4 0 0 1 4 4v87a4 4 0 0 1-4 4h-87a4 4 0 0 1-4-4v-87Z"/>
    <path fill="#fff" d="m43.974 258.534-11.518-19.731c-.823-1.235-2.466-2.466-4.109-2.466H5.336c-1.648 0-3.29 1.231-4.11 2.466l-11.512 19.731c-.824 1.235-.824 3.697 0 4.932L1.23 283.197c.82 1.231 2.462 2.467 4.11 2.467h23.02c1.643 0 3.285-1.236 4.109-2.467l11.504-19.708c.823-1.258.823-3.72 0-4.955ZM33.03 268.558c0 1.077-.81 2.154-1.62 2.715l-12.947 7.548a3.454 3.454 0 0 1-3.24 0l-12.948-7.548c-.81-.543-1.62-1.62-1.62-2.715v-15.111c0-1.081.81-2.158 1.62-2.715l12.948-7.553a3.454 3.454 0 0 1 3.24 0l12.947 7.553c.81.539 1.62 1.616 1.62 2.715v15.111Z"/>
    <path fill="#fff" d="M26.78 250.039v21.903h-.117l-15.63-9.327-5.45 9.327H5.54v-21.903l15.748 9.399 5.494-9.399Z"/>
    <path fill="url(#n)" d="M183-1a4 4 0 0 1 4-4h87a4 4 0 0 1 4 4v87a4 4 0 0 1-4 4h-87a4 4 0 0 1-4-4V-1Z"/>
    <g clip-path="url(#o)">
      <path fill="#fff" d="m250.591 34.753-3.579-13.137c-.748-2.723-3.578-4.325-6.344-3.62l-13.306 3.524c-2.05.545-3.839 1.89-4.88 3.685l-16.104 27.49c-1.432 2.435-.586 5.575 1.887 6.985l18.349 10.445c2.472 1.41 5.661.576 7.06-1.859l16.104-27.49a7.829 7.829 0 0 0 .813-6.023Zm-12.786 12.784-4.131 7.08c-.293.513-.846.801-1.432.833h-8.296a1.66 1.66 0 0 1-1.432-.833l-4.164-7.08a1.629 1.629 0 0 1 0-1.634l4.164-7.081c.293-.513.846-.801 1.432-.833h8.296c.586 0 1.139.32 1.432.833l4.131 7.08c.293.481.293 1.122 0 1.635Zm3.286-18.648a3.151 3.151 0 0 1-3.839-2.178c-.455-1.634.553-3.332 2.213-3.781a3.151 3.151 0 0 1 3.839 2.179c.455 1.634-.553 3.332-2.213 3.78Z"/>
    </g>
    <path fill="url(#p)" d="M76-53a4 4 0 0 1 4-4h87a4 4 0 0 1 4 4v87a4 4 0 0 1-4 4H80a4 4 0 0 1-4-4v-87Z"/>
    <path fill="#fff" d="M129.181-32.71a.805.805 0 0 0-.564.213l-2.62 2.62a.8.8 0 0 0-.177.723l.99 3.541a.853.853 0 0 0 .531.568l3.614.954a.886.886 0 0 0 .723-.21l2.602-2.627a.723.723 0 0 0 .177-.723l-.954-3.541a.945.945 0 0 0-.521-.571l-3.613-.947h-.188Zm-8.485 6.01a.662.662 0 0 0-.361.108l-3.293 1.77a.8.8 0 0 0-.39.6l-.141 3.719a.83.83 0 0 0 .362.636l3.183 1.948a.649.649 0 0 0 .723 0l3.296-1.77a.68.68 0 0 0 .386-.6l.145-3.72a.801.801 0 0 0-.361-.639l-3.152-1.944-.361-.109h-.036Zm-15.651 2.76a1.712 1.712 0 0 0-.921.25c-.487.25-.856.683-1.027 1.203a1.85 1.85 0 0 0 .141 1.558 1.982 1.982 0 0 0 1.204.993l4.676 1.485 1.662 16.623-1.062 5.912c-.058.28-.058.57 0 .85.097.29.255.556.462.78a1.864 1.864 0 0 0 1.558.723h25.349a2.257 2.257 0 0 0 1.489-.531 2.046 2.046 0 0 0 0-2.891 2.08 2.08 0 0 0-1.489-.564h-22.99l.495-2.728h24.114c.479.01.944-.153 1.312-.46.349-.317.585-.739.672-1.203l1.663-9.525a1.956 1.956 0 0 0-.387-1.558 2.197 2.197 0 0 0-1.417-.78l-3.826-.477.072-.177.813-3.614a.662.662 0 0 0-.21-.723l-2.692-2.53a.823.823 0 0 0-.744-.176l-3.542 1.062a.726.726 0 0 0-.531.528l-.813 3.577a.722.722 0 0 0 .213.723l.568.567-16.501-1.843-.361-3.292a2.097 2.097 0 0 0-.426-1.13 1.765 1.765 0 0 0-.958-.64l-6.017-1.876a1.441 1.441 0 0 0-.56-.116h.011Zm9.757 31.515a3.036 3.036 0 0 0-2.23.922 3.09 3.09 0 0 0-.91 2.265 3.145 3.145 0 0 0 3.144 3.144 3.074 3.074 0 0 0 3.187-2.97v-.217a3.044 3.044 0 0 0-.911-2.233 3.08 3.08 0 0 0-2.276-.91h-.004Zm18.556 0a3.052 3.052 0 0 0-2.233.922 3.4 3.4 0 0 0 0 4.495 2.972 2.972 0 0 0 2.233.922 2.94 2.94 0 0 0 2.266-.922 3.044 3.044 0 0 0 .918-2.23 3.079 3.079 0 0 0-2.971-3.187h-.213Z"/>
    <path fill="#fff" fill-opacity=".15" d="M80-56h87v-2H80v2Zm90 3v87h2v-87h-2Zm-3 90H80v2h87v-2Zm-90-3v-87h-2v87h2Zm3 3a3 3 0 0 1-3-3h-2a5 5 0 0 0 5 5v-2Zm90-3a3 3 0 0 1-3 3v2a5 5 0 0 0 5-5h-2Zm-3-90a3 3 0 0 1 3 3h2a5 5 0 0 0-5-5v2Zm-87-2a5 5 0 0 0-5 5h2a3 3 0 0 1 3-3v-2Z"/>
    <path fill="url(#q)" d="M398-53a4 4 0 0 1 4-4h87a4 4 0 0 1 4 4v87a4 4 0 0 1-4 4h-87a4 4 0 0 1-4-4v-87Z"/>
    <path fill="#fff" d="M451.181-32.71a.805.805 0 0 0-.564.213l-2.62 2.62a.8.8 0 0 0-.177.723l.99 3.541a.853.853 0 0 0 .531.568l3.614.954a.886.886 0 0 0 .723-.21l2.602-2.627a.723.723 0 0 0 .177-.723l-.954-3.541a.945.945 0 0 0-.521-.571l-3.613-.947h-.188Zm-8.485 6.01a.662.662 0 0 0-.361.108l-3.293 1.77a.8.8 0 0 0-.39.6l-.141 3.719a.83.83 0 0 0 .362.636l3.183 1.948a.649.649 0 0 0 .723 0l3.296-1.77a.68.68 0 0 0 .386-.6l.145-3.72a.801.801 0 0 0-.361-.639l-3.152-1.944-.361-.109h-.036Zm-15.651 2.76a1.712 1.712 0 0 0-.921.25c-.487.25-.856.683-1.027 1.203a1.85 1.85 0 0 0 .141 1.558 1.982 1.982 0 0 0 1.204.993l4.676 1.485 1.662 16.623-1.062 5.912c-.058.28-.058.57 0 .85.097.29.255.556.462.78a1.864 1.864 0 0 0 1.558.723h25.349a2.257 2.257 0 0 0 1.489-.531 2.046 2.046 0 0 0 0-2.891 2.08 2.08 0 0 0-1.489-.564h-22.99l.495-2.728h24.114c.479.01.944-.153 1.312-.46.349-.317.585-.739.672-1.203l1.663-9.525a1.956 1.956 0 0 0-.387-1.558 2.197 2.197 0 0 0-1.417-.78l-3.826-.477.072-.177.813-3.614a.662.662 0 0 0-.21-.723l-2.692-2.53a.823.823 0 0 0-.744-.176l-3.542 1.062a.726.726 0 0 0-.531.528l-.813 3.577a.722.722 0 0 0 .213.723l.568.567-16.501-1.843-.361-3.292a2.097 2.097 0 0 0-.426-1.13 1.765 1.765 0 0 0-.958-.64l-6.017-1.876a1.441 1.441 0 0 0-.56-.116h.011Zm9.757 31.515a3.036 3.036 0 0 0-2.23.922 3.09 3.09 0 0 0-.91 2.265 3.145 3.145 0 0 0 3.144 3.144 3.074 3.074 0 0 0 3.187-2.97v-.217a3.044 3.044 0 0 0-.911-2.233 3.08 3.08 0 0 0-2.276-.91h-.004Zm18.556 0a3.052 3.052 0 0 0-2.233.922 3.4 3.4 0 0 0 0 4.495 2.972 2.972 0 0 0 2.233.922 2.94 2.94 0 0 0 2.266-.922 3.044 3.044 0 0 0 .918-2.23 3.079 3.079 0 0 0-2.971-3.187h-.213Z"/>
    <path fill="url(#r)" d="M291 16a4 4 0 0 1 4-4h87a4 4 0 0 1 4 4v87a4 4 0 0 1-4 4h-87a4 4 0 0 1-4-4V16Z"/>
    <path fill="#fff" d="M312.125 72.237a7.606 7.606 0 0 1-4.182-2.01 7.589 7.589 0 0 1-2.233-4.062c-.095-.427-.095-.949-.095-6.314v-5.834h3.279c3.278 0 3.326 0 3.564.142a1.748 1.748 0 0 1 0 3.13l-.286.143h-3.183v4.037c0 4.506 0 4.27.427 5.075a3.976 3.976 0 0 0 3.517 2.278c1.235.094 1.9.664 1.9 1.707 0 1.328-.998 1.898-2.756 1.708h.048Zm10.316-.048a1.835 1.835 0 0 1-.808-.521 543.855 543.855 0 0 1-5.992-15.754c-.333-1.613 1.806-2.656 2.946-1.423.238.237.238.332 1.858 4.506 1.901 4.938 1.758 4.744 2.423 4.744.855.095.808.19 2.614-4.559.855-2.23 1.568-4.174 1.663-4.269a1.725 1.725 0 0 1 1.211-.96 1.735 1.735 0 0 1 1.497.39c.285.285.38.475 1.996 4.744l1.568 4.132a1.072 1.072 0 0 0 1.758.19c.095-.095.855-2.04 1.71-4.322 1.806-4.696 1.663-4.411 1.996-4.743a1.744 1.744 0 0 1 2.851 1.565c-.095.475-5.802 15.47-6.039 15.754-.665.854-2.329.759-2.851-.237l-1.663-4.27-1.663-4.316a1.045 1.045 0 0 0-1.806.284 479.089 479.089 0 0 0-3.231 8.35 1.854 1.854 0 0 1-2.038.715Zm23.145 0a1.67 1.67 0 0 1-.856-.616c-.332-.475-.332 0-.285-8.681v-7.894l.143-.284a1.756 1.756 0 0 1 2.498-.664c.275.174.495.42.638.711l.142.285v7.927c0 8.965 0 8.206-.475 8.728a1.716 1.716 0 0 1-1.805.488Zm6.889 0a1.602 1.602 0 0 1-1.045-.948l-.143-.237V54.998l.143-.284c.618-1.328 2.661-1.328 3.136-.047.095.284.095.284.333.142 4.514-2.846 10.743 0 11.551 5.265.142.949.095 10.678 0 11.105a1.786 1.786 0 0 1-1.586 1.077 1.784 1.784 0 0 1-1.645-.982l-.143-.332v-5.218c0-5.84 0-5.408-.38-6.167a4.229 4.229 0 0 0-7.845.57l-.095.384v5.218l-.047 5.265-.143.285a1.81 1.81 0 0 1-2.091.948v-.038Zm18.204 0a2.42 2.42 0 0 1-.903-.806l-.143-.285V63.13c0-9.013-.047-8.258.38-8.78a1.765 1.765 0 0 1 2.851.374l.095.238v7.974l.048 7.969-.095.285a1.74 1.74 0 0 1-2.233.949v.051Zm-63.781-18.931a1.968 1.968 0 0 1-1.188-.95c-.095-.284-.095-.331-.095-2.893v-2.704h2.519c3.326 0 3.516.048 4.419.95 1.425 1.422 1.282 4.932-.191 5.502a34.973 34.973 0 0 1-5.464.047v.048Zm3.374-1.281a1.991 1.991 0 0 0 1.045-1.423c.048-.332.095-.332-1.853-.427-1.948-.095-1.901-.095-1.853.332a1.9 1.9 0 0 0 2.661 1.518Zm1.14-3.178a.518.518 0 0 0-.855-.38c-.333.285-.333.712 0 .474a.5.5 0 0 1 .618 0c.19.19.237.143.237-.094Zm-2.661 0c.19-.522-.807-.854-1.093-.332-.142.284 0 .474.238.237a.512.512 0 0 1 .523 0c.19.19.285.19.347.095h-.015Zm36.644 3.035a1.937 1.937 0 0 1-1.17-1.724 1.932 1.932 0 0 1 1.075-1.785c1.996-.95 3.802 1.707 2.139 3.177a2.048 2.048 0 0 1-2.044.332Zm25.284.048a1.9 1.9 0 0 1-1.471-2.042 1.898 1.898 0 0 1 1.851-1.706c1.805-.237 2.851 1.993 1.615 3.321a2.222 2.222 0 0 1-1.995.474v-.047Z"/>
  </g>
  <defs>
    <radialGradient id="b" cx="0" cy="0" r="1" gradientTransform="matrix(-95 0 0 -95 278 304)" gradientUnits="userSpaceOnUse">
      <stop stop-color="#260133"/>
      <stop offset="1" stop-color="#1F2348"/>
    </radialGradient>
    <radialGradient id="c" cx="0" cy="0" r="1" gradientTransform="matrix(-95 0 0 -95 278.342 197)" gradientUnits="userSpaceOnUse">
      <stop stop-color="#CC3047"/>
      <stop offset="1" stop-color="#D94432"/>
    </radialGradient>
    <radialGradient id="d" cx="0" cy="0" r="1" gradientTransform="matrix(-95 0 0 -95 64 90)" gradientUnits="userSpaceOnUse">
      <stop stop-color="#EC991C"/>
      <stop offset="1" stop-color="#E9B213"/>
    </radialGradient>
    <radialGradient id="e" cx="0" cy="0" r="1" gradientTransform="matrix(-95 0 0 -95 171 145)" gradientUnits="userSpaceOnUse">
      <stop stop-color="#FD6216"/>
      <stop offset="1" stop-color="#FC8701"/>
    </radialGradient>
    <radialGradient id="f" cx="0" cy="0" r="1" gradientTransform="matrix(-95 0 0 -95 493 145)" gradientUnits="userSpaceOnUse">
      <stop stop-color="#260133"/>
      <stop offset="1" stop-color="#1F2348"/>
    </radialGradient>
    <radialGradient id="g" cx="0" cy="0" r="1" gradientTransform="matrix(-95 0 0 -95 386 214)" gradientUnits="userSpaceOnUse">
      <stop stop-color="#FD6216"/>
      <stop offset="1" stop-color="#FC8701"/>
    </radialGradient>
    <radialGradient id="i" cx="0" cy="0" r="1" gradientTransform="matrix(-95 0 0 -95 171 252)" gradientUnits="userSpaceOnUse">
      <stop stop-color="#41A38E"/>
      <stop offset="1" stop-color="#21BCA5"/>
    </radialGradient>
    <radialGradient id="j" cx="0" cy="0" r="1" gradientTransform="matrix(-95 0 0 -95 493 252)" gradientUnits="userSpaceOnUse">
      <stop stop-color="#265DD7"/>
      <stop offset="1" stop-color="#0582CA"/>
    </radialGradient>
    <radialGradient id="k" cx="0" cy="0" r="1" gradientTransform="matrix(-95 0 0 -95 386 321)" gradientUnits="userSpaceOnUse">
      <stop stop-color="#EC991C"/>
      <stop offset="1" stop-color="#E9B213"/>
    </radialGradient>
    <radialGradient id="l" cx="0" cy="0" r="1" gradientTransform="matrix(-95 0 0 -95 64 197)" gradientUnits="userSpaceOnUse">
      <stop stop-color="#265DD7"/>
      <stop offset="1" stop-color="#0582CA"/>
    </radialGradient>
    <radialGradient id="m" cx="0" cy="0" r="1" gradientTransform="matrix(-95 0 0 -95 64 308.5)" gradientUnits="userSpaceOnUse">
      <stop stop-color="#CC3047"/>
      <stop offset="1" stop-color="#D94432"/>
    </radialGradient>
    <radialGradient id="n" cx="0" cy="0" r="1" gradientTransform="matrix(-95 0 0 -95 278 90)" gradientUnits="userSpaceOnUse">
      <stop stop-color="#265DD7"/>
      <stop offset="1" stop-color="#0582CA"/>
    </radialGradient>
    <radialGradient id="p" cx="0" cy="0" r="1" gradientTransform="matrix(-95 0 0 -95 171 38)" gradientUnits="userSpaceOnUse">
      <stop stop-color="#260133"/>
      <stop offset="1" stop-color="#1F2348"/>
    </radialGradient>
    <radialGradient id="q" cx="0" cy="0" r="1" gradientTransform="matrix(-95 0 0 -95 493 38)" gradientUnits="userSpaceOnUse">
      <stop stop-color="#FD6216"/>
      <stop offset="1" stop-color="#FC8701"/>
    </radialGradient>
    <radialGradient id="r" cx="0" cy="0" r="1" gradientTransform="matrix(-95 0 0 -95 386 107)" gradientUnits="userSpaceOnUse">
      <stop stop-color="#41A38E"/>
      <stop offset="1" stop-color="#21BCA5"/>
    </radialGradient>
    <clipPath id="a">
      <path fill="#fff" d="M0 0h462v254H0z"/>
    </clipPath>
    <clipPath id="h">
      <path fill="#fff" d="M0 0h48.239v48.239H0z" transform="translate(314.665 142.665)"/>
    </clipPath>
    <clipPath id="o">
      <path fill="#fff" d="M0 0h52.981v52.981H0z" transform="translate(201.27 17.836)"/>
    </clipPath>
  </defs>
</svg>
