<?xml version="1.0" encoding="utf-8"?>
<!-- Generator: Adobe Illustrator 25.4.2, SVG Export Plug-In . SVG Version: 6.00 Build 0)  -->
<svg version="1.1" id="Layer_1" xmlns="http://www.w3.org/2000/svg" xmlns:xlink="http://www.w3.org/1999/xlink" x="0px" y="0px"
	 viewBox="0 0 124 120" style="enable-background:new 0 0 124 120;" xml:space="preserve">
<style type="text/css">
	.st0{fill:#1F2348;}
	.st1{fill:none;stroke:#E9B213;stroke-width:5.168;stroke-linecap:round;stroke-linejoin:round;}
</style>
<path class="st0" d="M8.25,28.13c-3.48,0-6.23-0.75-8.25-2.25l1.48-3.8c0.96,0.7,2.03,1.24,3.21,1.63c1.2,0.36,2.4,0.54,3.6,0.54
	c0.94,0,1.66-0.15,2.16-0.43c0.5-0.31,0.76-0.74,0.76-1.27c0-0.46-0.18-0.81-0.54-1.05c-0.36-0.27-1-0.51-1.91-0.73l-2.99-0.72
	c-1.78-0.36-3.09-0.97-3.93-1.81c-0.82-0.84-1.23-1.97-1.23-3.37c0-1.14,0.32-2.14,0.97-3.01c0.67-0.89,1.6-1.59,2.77-2.1
	C5.54,9.25,6.9,9,8.47,9c1.32,0,2.59,0.2,3.82,0.62c1.2,0.37,2.33,0.94,3.35,1.67l-1.51,3.66c-0.89-0.63-1.86-1.13-2.88-1.49
	c-0.96-0.34-1.9-0.51-2.81-0.51c-0.89,0-1.59,0.16-2.09,0.47s-0.76,0.75-0.76,1.31c0,0.41,0.14,0.74,0.43,0.98
	c0.31,0.24,0.85,0.46,1.62,0.65l3.06,0.69c1.87,0.43,3.23,1.09,4.07,1.96c0.84,0.87,1.26,2.03,1.26,3.48c0,1.74-0.7,3.12-2.09,4.13
	C12.57,27.62,10.68,28.13,8.25,28.13C8.25,28.13,8.25,28.13,8.25,28.13z M25.72,28.13c-2.28,0-3.99-0.64-5.11-1.92
	s-1.69-3.21-1.69-5.8V9.47h5.44v11.05c0,1.14,0.23,1.98,0.68,2.54c0.48,0.53,1.21,0.8,2.2,0.8c1.1,0,2.01-0.39,2.7-1.16
	c0.7-0.77,1.05-1.8,1.05-3.08V9.47h5.48v18.37h-5.3v-3.66l0.47,0.04c-0.53,1.28-1.31,2.26-2.34,2.93
	C28.27,27.81,27.09,28.13,25.72,28.13C25.72,28.13,25.72,28.13,25.72,28.13z M40.5,35.67V14.73c0-0.87-0.02-1.74-0.07-2.61
	c-0.02-0.88-0.1-1.77-0.22-2.64h5.12l0.4,3.55h-0.22c0.38-1.23,1.13-2.21,2.23-2.93C48.87,9.36,50.18,9,51.67,9
	c1.58,0,2.98,0.41,4.18,1.23c1.22,0.8,2.19,1.93,2.88,3.41c0.7,1.45,1.04,3.13,1.04,5.04s-0.35,3.58-1.04,5
	c-0.7,1.42-1.66,2.52-2.88,3.3c-1.2,0.77-2.59,1.16-4.18,1.16c-1.49,0-2.8-0.35-3.93-1.05c-1.08-0.67-1.88-1.71-2.23-2.93l0.43-0.69
	v12.21H40.5C40.5,35.67,40.5,35.67,40.5,35.67z M50.12,23.96c1.35,0,2.38-0.45,3.1-1.34c0.72-0.92,1.08-2.23,1.08-3.95
	c0-1.71-0.37-3.06-1.12-4.02c-0.72-0.97-1.74-1.45-3.06-1.45c-1.37,0-2.41,0.47-3.13,1.41c-0.72,0.92-1.08,2.25-1.08,3.98
	c0,1.74,0.36,3.07,1.08,3.99S48.75,23.96,50.12,23.96z M78.97,25.88c-0.89,0.7-1.97,1.26-3.24,1.67c-1.25,0.38-2.55,0.58-3.86,0.58
	c-2.04,0-3.81-0.39-5.29-1.16c-1.43-0.74-2.61-1.89-3.39-3.3C62.4,22.25,62,20.56,62,18.6c0-1.88,0.38-3.55,1.15-5
	c0.77-1.45,1.81-2.57,3.13-3.37C67.63,9.41,69.19,9,70.97,9c1.71,0,3.18,0.39,4.43,1.16c1.25,0.75,2.21,1.82,2.88,3.22
	c0.67,1.38,1.01,3.02,1.01,4.93v0.8h-12.5l0.07-2.72h9.19l-1.4,1.12c0.02-1.55-0.28-2.7-0.9-3.48c-0.6-0.8-1.48-1.19-2.63-1.19
	c-1.25,0-2.22,0.46-2.92,1.38c-0.67,0.89-1.01,2.21-1.01,3.95c0,2.05,0.4,3.54,1.19,4.46C69.2,23.54,70.43,24,72.09,24
	c0.97,0,1.93-0.16,2.85-0.47c0.93-0.31,1.8-0.76,2.59-1.34L78.97,25.88C78.97,25.88,78.97,25.88,78.97,25.88z M82.35,27.84V14.73
	c0-0.87-0.02-1.74-0.07-2.61c-0.02-0.88-0.1-1.77-0.22-2.64h5.11l0.58,4.85l-0.58-0.29c0.29-1.64,0.97-2.89,2.05-3.73
	c1.07-0.83,2.39-1.28,3.75-1.27c0.41,0,0.77,0.04,1.08,0.11c0.34,0.07,0.62,0.16,0.86,0.25l-0.04,5c-0.89-0.41-1.78-0.62-2.67-0.62
	c-0.98,0-1.8,0.18-2.45,0.54c-0.63,0.37-1.14,0.91-1.48,1.56c-0.34,0.65-0.5,1.44-0.5,2.36v9.6H82.35L82.35,27.84z M8.25,66.29
	c-3.48,0-6.23-0.75-8.25-2.25l1.48-3.81c0.96,0.7,2.03,1.24,3.21,1.63c1.2,0.36,2.4,0.54,3.6,0.54c0.94,0,1.66-0.15,2.16-0.43
	c0.5-0.31,0.76-0.74,0.76-1.27c0-0.46-0.18-0.81-0.54-1.05c-0.36-0.27-1-0.51-1.91-0.72l-2.99-0.72c-1.78-0.36-3.09-0.97-3.93-1.81
	c-0.82-0.85-1.23-1.97-1.23-3.37c0-1.13,0.32-2.14,0.97-3.01c0.67-0.89,1.6-1.59,2.77-2.1c1.18-0.51,2.55-0.76,4.11-0.76
	c1.32,0,2.59,0.21,3.82,0.62c1.2,0.37,2.33,0.94,3.35,1.67l-1.51,3.66c-0.89-0.63-1.86-1.13-2.88-1.49
	c-0.96-0.34-1.9-0.51-2.81-0.51c-0.89,0-1.59,0.16-2.09,0.47s-0.76,0.75-0.76,1.31c0,0.41,0.14,0.74,0.43,0.98
	c0.31,0.24,0.85,0.46,1.62,0.65l3.06,0.69c1.87,0.44,3.23,1.09,4.07,1.96c0.84,0.87,1.26,2.03,1.26,3.48c0,1.74-0.7,3.12-2.09,4.13
	C12.57,65.79,10.67,66.29,8.25,66.29C8.25,66.29,8.25,66.29,8.25,66.29z M19.38,66V47.63h5.44V66H19.38z M19.16,39.01h5.87v5.15
	h-5.87L19.16,39.01L19.16,39.01z M29.26,66V52.89c0-0.87-0.02-1.74-0.07-2.61c-0.02-0.88-0.1-1.77-0.22-2.64h5.12l0.4,3.59
	l-0.4-0.15c0.5-1.23,1.27-2.19,2.31-2.86c1.06-0.7,2.32-1.05,3.78-1.05c1.66,0,2.97,0.44,3.93,1.3c0.99,0.85,1.63,2.14,1.94,3.88
	l-0.86-0.98c0.52-1.24,1.4-2.3,2.52-3.04c1.15-0.77,2.46-1.16,3.93-1.16c2.09,0,3.64,0.64,4.65,1.92c1.01,1.28,1.51,3.21,1.51,5.8
	V66h-5.44V55.06c0-1.26-0.2-2.17-0.61-2.75c-0.41-0.58-1.08-0.87-2.02-0.87c-1.08,0-1.93,0.4-2.56,1.2
	c-0.62,0.77-0.94,1.86-0.94,3.26V66h-5.44V55.06c0-1.26-0.2-2.17-0.61-2.75c-0.41-0.58-1.07-0.87-1.98-0.87
	c-1.11,0-1.97,0.4-2.6,1.2c-0.6,0.77-0.9,1.86-0.9,3.26V66C34.7,66,29.26,66,29.26,66z M62.08,73.83V52.89
	c0-0.87-0.02-1.74-0.07-2.61c-0.02-0.88-0.1-1.77-0.22-2.64h5.12l0.4,3.55h-0.22c0.38-1.23,1.13-2.21,2.23-2.93
	c1.13-0.72,2.44-1.09,3.93-1.09c1.59,0,2.98,0.41,4.18,1.23c1.22,0.8,2.18,1.93,2.88,3.4c0.7,1.45,1.04,3.13,1.04,5.04
	s-0.35,3.57-1.04,5c-0.7,1.42-1.66,2.52-2.88,3.3c-1.2,0.77-2.59,1.16-4.18,1.16c-1.49,0-2.8-0.35-3.93-1.05
	c-1.08-0.67-1.88-1.71-2.23-2.93l0.43-0.69v12.21L62.08,73.83C62.08,73.83,62.08,73.83,62.08,73.83z M71.7,62.13
	c1.35,0,2.38-0.45,3.1-1.34c0.72-0.92,1.08-2.23,1.08-3.95c0-1.71-0.37-3.06-1.12-4.02c-0.72-0.97-1.74-1.45-3.06-1.45
	c-1.37,0-2.41,0.47-3.14,1.41c-0.72,0.92-1.08,2.25-1.08,3.99c0,1.74,0.36,3.07,1.08,3.99C69.29,61.67,70.33,62.13,71.7,62.13
	C71.7,62.13,71.7,62.13,71.7,62.13z M84.84,66V39.34h5.44V66H84.84z M110.8,64.05c-0.89,0.7-1.97,1.26-3.24,1.67
	c-1.27,0.39-2.56,0.58-3.86,0.58c-2.04,0-3.81-0.39-5.29-1.16c-1.46-0.77-2.59-1.87-3.39-3.3c-0.79-1.43-1.19-3.12-1.19-5.07
	c0-1.88,0.39-3.55,1.15-5c0.77-1.45,1.81-2.57,3.13-3.37c1.34-0.82,2.9-1.23,4.68-1.23c1.71,0,3.18,0.39,4.43,1.16
	c1.25,0.75,2.21,1.82,2.88,3.22c0.67,1.38,1.01,3.02,1.01,4.93v0.8h-12.5l0.07-2.72h9.19l-1.4,1.12c0.02-1.55-0.28-2.71-0.9-3.48
	c-0.6-0.8-1.48-1.2-2.63-1.2c-1.25,0-2.22,0.46-2.92,1.38c-0.67,0.89-1.01,2.21-1.01,3.95c0,2.05,0.4,3.54,1.19,4.46
	c0.82,0.92,2.05,1.38,3.71,1.38c0.96,0,1.91-0.16,2.85-0.47c0.93-0.31,1.8-0.76,2.59-1.34C109.36,60.35,110.8,64.05,110.8,64.05z
	 M8.25,103.71c-3.48,0-6.23-0.75-8.25-2.25l1.48-3.8c0.96,0.7,2.03,1.24,3.21,1.63c1.2,0.36,2.4,0.54,3.6,0.54
	c0.94,0,1.66-0.14,2.16-0.43c0.5-0.31,0.76-0.74,0.76-1.27c0-0.46-0.18-0.81-0.54-1.05c-0.36-0.27-1-0.51-1.91-0.72l-2.99-0.72
	c-1.78-0.36-3.09-0.97-3.93-1.81c-0.82-0.85-1.23-1.97-1.23-3.37c0-1.14,0.32-2.14,0.97-3.01c0.67-0.89,1.6-1.59,2.77-2.1
	c1.18-0.51,2.55-0.76,4.11-0.76c1.32,0,2.59,0.21,3.82,0.61c1.2,0.37,2.33,0.94,3.35,1.67l-1.51,3.66
	c-0.89-0.63-1.86-1.13-2.88-1.49c-0.96-0.34-1.9-0.51-2.81-0.51c-0.89,0-1.59,0.16-2.09,0.47c-0.5,0.32-0.76,0.75-0.76,1.31
	c0,0.41,0.14,0.74,0.43,0.98c0.31,0.24,0.85,0.46,1.62,0.65l3.06,0.69c1.87,0.43,3.23,1.09,4.07,1.96c0.84,0.87,1.26,2.03,1.26,3.48
	c0,1.74-0.7,3.11-2.09,4.13C12.57,103.2,10.67,103.71,8.25,103.71C8.25,103.71,8.25,103.71,8.25,103.71z M24.75,103.42l-7.39-18.37
	h5.58l4.83,13.12h-0.9l4.79-13.11h3.71l4.83,13.11h-0.79l4.76-13.11h5.26l-7.39,18.37h-4.58l-5.33-13.73h2.38l-5.15,13.73
	C29.36,103.42,24.75,103.42,24.75,103.42z M58.82,103.71c-1.58,0-2.99-0.39-4.22-1.16s-2.17-1.87-2.85-3.3
	c-0.67-1.43-1.01-3.09-1.01-5s0.34-3.59,1.01-5.04c0.7-1.47,1.64-2.61,2.85-3.41c1.22-0.82,2.63-1.23,4.22-1.23
	c1.47,0,2.76,0.36,3.89,1.09c1.13,0.72,1.9,1.7,2.31,2.93l-0.43,0.29v-3.84h5.37v18.37h-5.37v-3.77l0.43,0.07
	c-0.38,1.23-1.21,2.27-2.31,2.93C61.58,103.36,60.29,103.71,58.82,103.71z M60.41,99.54c1.32,0,2.34-0.46,3.06-1.38
	c0.74-0.92,1.12-2.25,1.12-3.99c0-1.74-0.37-3.07-1.12-3.99c-0.72-0.94-1.74-1.41-3.06-1.41s-2.37,0.48-3.13,1.45
	c-0.74,0.97-1.12,2.31-1.12,4.02s0.36,3.03,1.08,3.95C57.98,99.09,59.04,99.54,60.41,99.54L60.41,99.54L60.41,99.54z M74.7,111.24
	V90.3c0-0.87-0.02-1.74-0.07-2.61c-0.02-0.88-0.1-1.77-0.22-2.64h5.12l0.4,3.55h-0.22c0.38-1.23,1.13-2.21,2.23-2.93
	c1.13-0.72,2.44-1.09,3.93-1.09c1.58,0,2.98,0.41,4.18,1.23c1.22,0.8,2.18,1.93,2.88,3.41c0.7,1.45,1.04,3.13,1.04,5.04
	c0,1.91-0.35,3.57-1.04,5c-0.7,1.43-1.66,2.52-2.88,3.3c-1.2,0.77-2.59,1.16-4.18,1.16c-1.49,0-2.8-0.35-3.93-1.05
	c-1.08-0.67-1.88-1.71-2.23-2.93l0.43-0.69v12.21L74.7,111.24C74.7,111.24,74.7,111.24,74.7,111.24z M84.32,99.54
	c1.35,0,2.38-0.45,3.1-1.34c0.72-0.92,1.08-2.24,1.08-3.95s-0.37-3.06-1.12-4.02c-0.72-0.97-1.74-1.45-3.06-1.45
	c-1.37,0-2.41,0.47-3.13,1.41c-0.72,0.92-1.08,2.25-1.08,3.99s0.36,3.07,1.08,3.99S82.95,99.54,84.32,99.54L84.32,99.54z"/>
<path class="st1" d="M108.48,28.15l11.18-8.86l-11.18-8.86 M117.33,85.32L117.33,85.32l-11.18,8.86l11.18,8.86"/>
</svg>
