<svg width="123" height="114" viewBox="0 0 123 114" fill="none" xmlns="http://www.w3.org/2000/svg">
  <path d="M59.6 58.3 67 37.8c1-2.9 4.5-4.5 7.3-3.5 3 1 4.5 4.5 3.6 7.4L72 58l5.8-16.3 3.8-11c1-2.8 4.5-4.4 7.4-3.4 2.8 1 4.4 4.4 3.5 7.3l-7.7 21.8 7.7-21.8 2.5-7.3c1-3 4.5-4.5 7.4-3.6 3.2 1.3 4.8 4.5 3.5 7.4l-2.5 7.4-7.7 21.7 7.7-21.7c1-3 4.5-4.5 7.3-3.6 3 1 4.5 4.5 3.6 7.4l-9.3 26a9.3 9.3 0 0 0-.3 5l.3 1.3" stroke="#1F2348" stroke-width="2" stroke-linejoin="round"/>
  <path d="M65.7 98c1.6 1.3 3.8 2.2 5.8 2.9l3.5 1.3A24 24 0 0 0 99.6 97l19.9-18.2a4.4 4.4 0 0 0 1-6.4c-1.3-1.6-3.6-2.2-5.5-1.6l-6 2.6a19 19 0 0 1-7.4 1.6 45 45 0 0 0-7.4.6c-3.5.6-6.7 1.6-10.3 3.5" stroke="#1F2348" stroke-width="2" stroke-linecap="round" stroke-linejoin="round"/>
  <path d="m37.8 65.4-8.3-21.5a5.5 5.5 0 0 1 3.2-7.4c2.9-1 6.4.4 7.4 3.2l4.1 11L50.6 67l-6.4-16.4a5.5 5.5 0 0 1 3.2-7.3c3-1.3 6.4.3 7.4 3.2l11.9 30.4a25.2 25.2 0 0 1-14.5 32.6l-3.5 1.3c-8.3 3.2-17.9 1.6-25-4.1L3.7 89C1.3 87.8 1 85 2.3 82.6c1.3-1.6 3.5-2.5 5.4-1.9l6.4 3.5c2.6 1.3 5.5-1.2 4.5-3.8L7.7 52.2A5.5 5.5 0 0 1 11 45c3-1.3 6.5.3 7.4 3.2l8.3 21.4-8.3-21.4-2.9-7a5.5 5.5 0 0 1 3.2-7.4c3-1 6.4.3 7.4 3.2l2.9 7 9 21.5ZM54.5 16.7 58 5.2M35.3 23.7l-9.6-7M44.2 18.3 37.5 1" stroke="#1F2348" stroke-width="2" stroke-linecap="round" stroke-linejoin="round"/>
</svg>
