<svg width="64" height="64" fill="none" xmlns="http://www.w3.org/2000/svg"><g opacity=".4" stroke="#1F2348" stroke-width="3" stroke-linecap="round" stroke-linejoin="round"><path d="M40.188 11.113c.48-1.443-.32-3.205-1.763-3.686-1.442-.48-3.204.32-3.685 1.763l-1.843 5.127L31.001 20m9.187-8.887-2.885 8.171m2.885-8.171 1.922-5.448c.481-1.442 2.243-2.243 3.686-1.763 1.442.48 2.243 2.243 1.762 3.686m0 0-3.845 10.895m3.845-10.896 1.282-3.685c.48-1.442 2.243-2.243 3.685-1.762 1.602.64 2.404 2.243 1.763 3.685L53.006 9.51m0 0L49.16 20.406M53.006 9.51c.48-1.442 2.243-2.243 3.685-1.762 1.442.48 2.243 2.243 1.763 3.685l-4.647 12.978c-.32.802-.32 1.763-.16 2.564l.16.641"/><path d="M43.233 29.855c1.762-.961 3.364-1.442 5.127-1.762.8-.16 2.403-.32 3.685-.32s2.564-.321 3.685-.802l3.045-1.282c.961-.32 2.083 0 2.724.801.8.962.64 2.404-.481 3.205l-9.934 9.133c-2.53 2.29-5.786 3.491-9.084 3.265"/></g><path d="m23.754 33.425-5.051-13.017c-.777-1.748.194-3.885 1.943-4.468 1.748-.583 3.885.194 4.468 1.943l2.526 6.605 3.885 9.909-3.885-9.909c-.777-1.748.194-3.885 1.943-4.468 1.748-.777 3.885.194 4.468 1.943l7.188 18.456c3.109 7.772-.777 16.709-8.742 19.817l-2.137.777c-5.052 1.943-10.88.972-15.154-2.526L2.966 47.802c-1.36-.777-1.554-2.526-.777-3.886.777-.971 2.137-1.554 3.303-1.165l3.885 2.137c1.555.777 3.303-.777 2.72-2.332L5.492 25.46c-.777-1.749.194-3.886 1.942-4.469 1.749-.777 3.886.195 4.469 1.943l5.051 13.017-5.051-13.017-1.749-4.274c-.777-1.749.195-3.886 1.943-4.469 1.749-.583 3.886.195 4.469 1.943l1.748 4.274 5.44 13.017Z" stroke="#1F2348" stroke-width="3" stroke-linecap="round" stroke-linejoin="round"/></svg>