<svg xmlns="http://www.w3.org/2000/svg" width="64" height="64" fill="none" viewBox="0 0 64 64">
  <path stroke="#1f2348" stroke-linecap="round" stroke-miterlimit="10" stroke-width="3" d="M60.509 46.5H3.49c-1.1 0-1.991.938-1.991 2.095v11.81c0 1.157.892 2.095 1.991 2.095H60.51c1.1 0 1.991-.938 1.991-2.095v-11.81c0-1.157-.892-2.095-1.991-2.095z"/>
  <path fill="#1f2348" d="M16 36.5a2 2 0 100-4 2 2 0 000 4z"/>
  <path stroke="#1f2348" stroke-linecap="round" stroke-miterlimit="10" stroke-width="3" d="M56.5 46.5V24.595c0-1.157-.902-2.095-2.014-2.095H9.514c-1.112 0-2.014.938-2.014 2.095V46.5"/>
  <path stroke="#1f2348" stroke-linecap="round" stroke-miterlimit="10" stroke-width="3" d="M46.035 29.5h-7.968A3.067 3.067 0 0035 32.567v3.866a3.067 3.067 0 003.067 3.067h7.968A2.966 2.966 0 0049 36.534v-.169l.05-3.73v-.17c-.01-1.648-1.367-2.965-3.015-2.965z"/>
  <path fill="#1f2348" d="M30 22.5c-.552 0-1-.442-1-.994V1.384A.998.998 0 0130.316.44l3.948 1.315a2 2 0 001.445-.07L39.094.18a1 1 0 01.812 0l3.385 1.505a2 2 0 001.445.07L48.684.439A.998.998 0 0150 1.384v20.122a.995.995 0 01-1 .994H30z" opacity=".4"/>
</svg>
