<svg width="64" height="64" viewBox="0 0 64 64" fill="none" xmlns="http://www.w3.org/2000/svg">
  <path d="M28 0a3 3 0 0 0-3 3v8h23a6 6 0 0 1 6 6v17h7a3 3 0 0 0 3-3V3a3 3 0 0 0-3-3Z" fill="#fff" fill-opacity=".4"/>
  <path d="M15 14a3 3 0 0 0-3 3v11.5h25.5a3 3 0 0 1 3 3V48H48a3 3 0 0 0 3-3V17a3 3 0 0 0-3-3H15z" fill="#fff" fill-opacity=".4"/>
  <path d="M1.5 31.5a3 3 0 0 1 3-3h33a3 3 0 0 1 3 3v28a3 3 0 0 1-3 3h-33a3 3 0 0 1-3-3z" stroke="#fff" stroke-width="3"/>
  <path d="m30 40-8.4 11.1a2.2 2.2 0 0 1-3.3.3L14 47" stroke="#fff" stroke-width="3" stroke-linecap="round" stroke-linejoin="round"/>
</svg>
