<svg xmlns="http://www.w3.org/2000/svg" width="139" height="32" fill="none" viewBox="0 0 139 32"><g fill="#fff" clip-path="url(#a)"><path d="M31.272 24.853h-2.878V6.803h2.878v7.273c.89-1.438 2.46-2.355 4.395-2.355 3.663 0 6.252 2.905 6.252 6.694 0 3.788-2.59 6.72-6.226 6.72-1.963 0-3.534-.94-4.421-2.378zm3.845-2.538c2.199 0 3.82-1.779 3.82-3.899s-1.621-3.87-3.82-3.87a3.885 3.885 0 0 0 0 7.769M47.333 24.853h-2.878V6.803h2.878zM58.841 23.048c-.679 1.228-1.857 2.088-3.633 2.088-2.825 0-4.654-2.118-4.654-4.968v-8.184h2.875v7.403c0 1.75 1.021 2.928 2.696 2.928 1.621 0 2.642-1.099 2.724-2.748v-7.583h2.85v12.87h-2.858zM67.16 19.386c.287 1.857 1.83 3.14 3.926 3.14a8.2 8.2 0 0 0 4.499-1.413v2.852a9.73 9.73 0 0 1-4.711 1.178c-3.792 0-6.617-2.771-6.617-6.72 0-3.793 2.748-6.696 6.46-6.696s6.12 2.799 6.12 6.199a6 6 0 0 1-.182 1.464zm-.027-2.224h6.933c-.053-1.804-1.492-3.035-3.377-3.035-1.937 0-3.374 1.36-3.556 3.035M88.268 24.382c-.785.471-2.067.758-3.088.758-4.002 0-6.774-2.956-6.774-6.721s2.772-6.696 6.774-6.696c1.021 0 2.303.263 3.088.707v3.088a5.18 5.18 0 0 0-3.088-.992 3.899 3.899 0 0 0 0 7.795 5.06 5.06 0 0 0 3.088-.993zM96.927 11.722a6.597 6.597 0 0 1 6.695 6.694 6.63 6.63 0 0 1-4.117 6.226 6.6 6.6 0 0 1-2.578.495c-3.795 0-6.696-2.956-6.696-6.721s2.901-6.694 6.696-6.694m0 10.6c2.17 0 3.765-1.753 3.765-3.898s-1.594-3.899-3.765-3.899-3.795 1.753-3.795 3.897c0 2.143 1.65 3.892 3.795 3.892zM115.995 22.77a5.13 5.13 0 0 1-4.421 2.381c-3.663 0-6.252-2.956-6.252-6.72 0-3.766 2.589-6.696 6.282-6.696a5.07 5.07 0 0 1 4.395 2.355V6.804h2.85v18.059h-2.854zm-3.846-8.22a3.806 3.806 0 0 0-3.845 3.87 3.847 3.847 0 0 0 4.613 3.739 3.85 3.85 0 0 0 3.006-3.029 3.845 3.845 0 0 0-3.774-4.584zM124.256 19.386c.286 1.857 1.829 3.14 3.926 3.14a8.2 8.2 0 0 0 4.499-1.413v2.852a9.73 9.73 0 0 1-4.711 1.178c-3.793 0-6.619-2.771-6.619-6.72 0-3.793 2.748-6.696 6.462-6.696s6.126 2.799 6.126 6.199c0 .493-.061.985-.183 1.464zm-.028-2.224h6.937c-.051-1.804-1.49-3.029-3.376-3.029-1.931 0-3.37 1.355-3.555 3.029z"/><g opacity=".5"><path d="m2.118 9.91 10.55 6.084 6.3-3.627a1.41 1.41 0 0 0 0-2.446L2.118.196A1.41 1.41 0 0 0 0 1.412v9.718a1.41 1.41 0 0 1 2.118-1.22M18.968 19.63l-6.3-3.626-.003.002L2.118 22.09A1.412 1.412 0 0 1 0 20.87v9.719a1.413 1.413 0 0 0 2.118 1.223l16.85-9.73a1.408 1.408 0 0 0 0-2.445z"/><path fill-rule="evenodd" d="M12.669 16.008 2.118 22.093a1.41 1.41 0 0 1-1.41-.002 1.41 1.41 0 0 0 1.41-.002l10.547-6.083z" clip-rule="evenodd"/></g><path d="m2.118 22.093 10.55-6.085-10.55-6.085A1.41 1.41 0 0 0 0 11.13v9.74a1.414 1.414 0 0 0 2.118 1.223M135.534 7.724h.687c.424 0 .727.22.727.604a.57.57 0 0 1-.491.571c.279.124.532.499.612 1.015h-.31c-.106-.54-.392-.909-.695-.909h-.227v.91h-.305zm.687.286h-.392v.71h.392c.238 0 .417-.123.417-.362 0-.24-.179-.348-.417-.348"/><path fill-rule="evenodd" d="M136.125 6.975a1.875 1.875 0 1 0 0 3.749 1.875 1.875 0 0 0 0-3.75M134 8.85a2.125 2.125 0 1 1 4.25 0 2.125 2.125 0 0 1-4.25 0" clip-rule="evenodd"/></g><defs><clipPath id="a"><path fill="#fff" d="M0 0h139v32H0z"/></clipPath></defs></svg>