<svg xmlns="http://www.w3.org/2000/svg" width="224" height="64" fill="none" viewBox="0 0 224 64">
  <circle cx="32" cy="32" r="32" fill="#fff"/>
  <path stroke="#0582CA" stroke-linecap="round" stroke-linejoin="round" stroke-width="3" d="m39.68 45.761-1.083.456a10.51 10.51 0 0 1-4.08.824v0C28.707 47.041 24 42.333 24 36.525V28.39c0-6.135 4.974-11.109 11.109-11.109v0c1.64 0 3.26.364 4.743 1.064l.628.296M20.059 28.9h16.52m-16.52 6.722h13.96"/>
  <path fill="#fff" d="M112.5 2a30.5 30.5 0 1 0 0 61.001A30.5 30.5 0 0 0 112.5 2Z"/>
  <path stroke="#4180CC" stroke-linecap="round" stroke-linejoin="round" stroke-width="3" d="M103.312 25.467v-.051c0-5.374 4.289-9.714 9.662-9.714a9.647 9.647 0 0 1 9.662 9.662c-.052 5.322-4.34 9.662-9.714 9.662v5.166"/>
  <circle cx="113" cy="50.059" r="2.059" fill="#4180CC"/>
  <path fill="#fff" d="M192.5 2a30.501 30.501 0 1 0 0 61.002A30.501 30.501 0 0 0 192.5 2Z"/>
  <path stroke="#4180CC" stroke-linecap="round" stroke-linejoin="round" stroke-width="3" d="M183.312 25.467v-.051c0-5.374 4.289-9.714 9.662-9.714a9.647 9.647 0 0 1 9.662 9.662c-.052 5.322-4.34 9.662-9.714 9.662v5.166"/>
  <circle cx="193" cy="50.059" r="2.059" fill="#4180CC"/>
</svg>
