<svg xmlns="http://www.w3.org/2000/svg" fill="none" viewBox="0 0 107 33">
  <path fill="#1F2348" d="M34.95 25.105h2.207v-8.288l3.401 8.288h1.78l3.384-8.288v8.288h2.208V12.602h-2.706l-3.775 9.234-3.775-9.234h-2.725v12.503Zm19.022.14c2.724 0 4.683-1.965 4.683-4.644 0-2.679-1.959-4.643-4.683-4.643-2.742 0-4.7 1.964-4.7 4.643 0 2.68 1.958 4.644 4.7 4.644Zm0-1.893c-1.496 0-2.492-1.125-2.492-2.75 0-1.626.996-2.751 2.492-2.751 1.478 0 2.475 1.125 2.475 2.75 0 1.626-.997 2.75-2.475 2.75Zm10.025 1.893c2.724 0 4.683-1.965 4.683-4.644 0-2.679-1.959-4.643-4.683-4.643-2.742 0-4.701 1.964-4.701 4.643 0 2.68 1.959 4.644 4.7 4.644Zm0-1.893c-1.496 0-2.493-1.125-2.493-2.75 0-1.626.997-2.751 2.493-2.751 1.478 0 2.475 1.125 2.475 2.75 0 1.626-.997 2.75-2.475 2.75Zm5.807 1.75h2.19V20.19c0-1.321.855-2.286 2.083-2.286 1.122 0 1.87.858 1.87 2.09v5.108h2.19V19.53c0-2.108-1.317-3.573-3.348-3.573-1.281 0-2.296.554-2.795 1.537V16.1h-2.19v9.002Zm10.151.003h2.368v-4.751h2.636c2.6 0 4.149-1.608 4.149-3.876 0-2.269-1.55-3.876-4.15-3.876h-5.003v12.503Zm2.368-6.734v-3.786h2.529c1.389 0 1.959.893 1.959 1.893s-.57 1.893-1.96 1.893h-2.528Zm10.99-2.414c-2.333 0-3.847 1.394-3.954 3.18h1.96c.035-.804.73-1.536 1.886-1.536 1.158 0 1.835.625 1.835 1.5 0 .357-.214.607-.66.607h-1.655c-2.012 0-3.366 1.09-3.366 2.84 0 1.554 1.211 2.697 2.992 2.697 1.282 0 2.315-.59 2.689-1.482v1.34h2.154v-5.788c0-2.036-1.602-3.358-3.882-3.358Zm-.446 7.663c-.819 0-1.389-.465-1.389-1.161 0-.786.624-1.304 1.55-1.304h2.012v.143c0 1.357-.802 2.322-2.173 2.322Zm13.191-7.518h-2.244l-2.065 6.18-2.084-6.18H97.44l3.277 9.002-1.264 3.643h2.083l1.389-4.072 3.134-8.573Zm-80.091 3.232c0 7.193-5.813 13.024-12.983 13.024C5.813 32.358 0 26.528 0 19.335S5.813 6.31 12.984 6.31c7.17 0 12.983 5.83 12.983 13.023ZM33.758 5.01a4.644 4.644 0 0 1-4.638 4.65 4.644 4.644 0 0 1-4.637-4.65A4.644 4.644 0 0 1 29.12.357a4.644 4.644 0 0 1 4.637 4.651Z" opacity=".4"/>
</svg>
