<svg xmlns="http://www.w3.org/2000/svg" fill="none" viewBox="0 0 41 40">
  <g clip-path="url(#a)">
    <path fill="#FDE937" d="M.333 0h40v40h-40V0Z"/>
    <path fill="#000" d="m39.512 20.517-2.48-3.204a.412.412 0 0 0-.302-.15H25.296v7.157h11.563a.308.308 0 0 0 .259-.129l2.416-3.094a.519.519 0 0 0-.022-.58Zm-8.801 2.537h-3.883v-4.666h3.796v1.182h-2.243v.538h1.985v1.14H28.38v.602h2.33v1.204Zm3.753 0-.798-1.247-.798 1.247h-1.79l1.682-2.344-1.64-2.3h1.77l.798 1.182.776-1.183h1.705l-1.618 2.258 1.725 2.408h-1.812v-.021Z"/>
    <path fill="#fff" fill-rule="evenodd" d="M26.823 23.053h3.883v-1.204h-2.33v-.602h1.985v-1.14h-1.985v-.538h2.244v-1.182h-3.797v4.666Zm6.839-1.247.798 1.247v.021h1.812l-1.726-2.408 1.618-2.258H34.46l-.777 1.183-.798-1.183h-1.769l1.64 2.301-1.683 2.344h1.79l.799-1.247Z" clip-rule="evenodd"/>
    <path fill="#000" fill-rule="evenodd" d="M2.093 21.576c.033.234.097.41.192.526.174.211.472.317.895.317.253 0 .459-.028.616-.084.3-.107.45-.305.45-.596a.44.44 0 0 0-.223-.393c-.149-.09-.382-.17-.7-.24l-.544-.122c-.534-.121-.903-.252-1.107-.394-.346-.237-.52-.607-.52-1.11 0-.46.168-.843.502-1.147.335-.304.826-.456 1.474-.456.54 0 1.002.143 1.384.43.382.287.582.703.601 1.249h-1.03c-.02-.31-.154-.529-.405-.659a1.355 1.355 0 0 0-.623-.128c-.277 0-.497.055-.662.167a.532.532 0 0 0-.247.466c0 .184.08.32.243.412.105.06.328.13.67.212l.884.212c.387.093.68.218.877.373.307.241.46.591.46 1.048 0 .47-.18.859-.538 1.169-.359.31-.865.465-1.52.465-.669 0-1.195-.153-1.578-.458-.383-.305-.575-.725-.575-1.26h1.024Zm3.511-1.47v-.707h.53V18.34h.982v1.06h.616v.707h-.616v2.006c0 .156.02.253.059.291.04.038.16.058.362.058a2.69 2.69 0 0 0 .195-.008v.742l-.47.018c-.469.016-.79-.065-.961-.244-.112-.114-.167-.29-.167-.526v-2.337h-.53Zm4.263-.024c-.23 0-.408.072-.534.216-.127.144-.207.339-.239.585h1.543c-.016-.263-.096-.462-.239-.598a.741.741 0 0 0-.53-.203Zm0-.819c.316 0 .6.06.853.178.254.118.463.305.627.56.15.226.245.487.29.784.025.174.036.425.03.753H9.07c.014.38.133.647.358.8a.845.845 0 0 0 .495.143c.204 0 .37-.058.498-.174a.826.826 0 0 0 .185-.261h1.013c-.025.225-.143.454-.352.686-.325.37-.78.554-1.365.554-.483 0-.909-.156-1.278-.467-.37-.31-.554-.817-.554-1.518 0-.657.167-1.161.5-1.512.333-.35.765-.526 1.297-.526Zm4.563 2.052c-.06.038-.124.07-.19.095a1.587 1.587 0 0 1-.263.068l-.223.042c-.209.037-.358.082-.45.136a.455.455 0 0 0-.229.421c0 .17.047.292.141.368a.53.53 0 0 0 .343.113c.214 0 .41-.063.59-.188.18-.126.274-.354.28-.686v-.37Zm-.603-.464c.184-.023.315-.052.394-.087.142-.06.212-.154.212-.282 0-.155-.054-.263-.162-.322-.108-.06-.266-.089-.475-.089-.234 0-.4.058-.498.174a.723.723 0 0 0-.14.349h-.957c.02-.332.114-.605.278-.819.263-.334.713-.501 1.352-.501a2.4 2.4 0 0 1 1.107.247c.323.165.484.476.484.933v1.742c0 .12.003.267.008.439.007.13.026.218.059.264a.355.355 0 0 0 .146.115v.146h-1.08a1.114 1.114 0 0 1-.063-.215 2.655 2.655 0 0 1-.027-.23 2.041 2.041 0 0 1-.474.38 1.425 1.425 0 0 1-.724.184c-.344 0-.628-.098-.852-.294-.224-.197-.336-.475-.336-.834 0-.467.18-.805.54-1.014.197-.114.487-.195.87-.244l.338-.042Zm3.49 2.31h-.992v-5.134h.992v5.133Zm.578-3.055v-.707h.53V18.34h.982v1.06h.616v.707h-.616v2.006c0 .156.02.253.06.291.039.038.16.058.361.058a2.692 2.692 0 0 0 .195-.008v.742l-.47.018c-.469.016-.79-.065-.961-.244-.111-.114-.167-.29-.167-.526v-2.337h-.53Zm4.86-.84c.233 0 .447.041.638.123.192.08.349.205.472.372a.99.99 0 0 1 .192.437c.023.15.035.395.035.733v2.23h-1.014v-2.31a1.02 1.02 0 0 0-.104-.494c-.091-.177-.263-.265-.516-.265-.262 0-.461.088-.597.263-.136.175-.204.425-.204.75v2.055h-.99v-5.116h.99v1.815c.144-.22.31-.375.5-.462a1.41 1.41 0 0 1 .597-.13Z" clip-rule="evenodd" opacity=".95"/>
  </g>
  <defs>
    <clipPath id="a">
      <path fill="#fff" d="M.333 0h40v40h-40z"/>
    </clipPath>
  </defs>
</svg>
