<svg xmlns="http://www.w3.org/2000/svg" fill="none" viewBox="0 0 311 184"><g filter="url(#a)" opacity=".7" style="mix-blend-mode:overlay"><circle cx="69.5" cy="69.5" r="45.5" fill="url(#b)"/></g><mask id="c" width="63" height="57" x="39" y="41" maskUnits="userSpaceOnUse" style="mask-type:luminance"><path fill="#fff" d="m88.23 44.2 12.5 22a6.5 6.5 0 0 1 0 6.4l-12.5 22.02a6.27 6.27 0 0 1-5.45 3.2h-25a6.27 6.27 0 0 1-5.44-3.2L39.84 72.6a6.51 6.51 0 0 1 0-6.4l12.5-22a6.28 6.28 0 0 1 5.45-3.2h25a6.27 6.27 0 0 1 5.44 3.2Z"/></mask><g mask="url(#c)"><path fill="#1F2348" d="M101.69 37.54H38.74v64h62.95v-64Z"/><path fill="#E9B213" d="M70.21 85.54c8.7 0 15.74-7.17 15.74-16 0-8.84-7.05-16-15.74-16-8.69 0-15.73 7.16-15.73 16 0 8.83 7.04 16 15.73 16Z"/><path fill="#010101" d="M85.64 69.54c0 3.1-.9 6.15-2.6 8.74a15.59 15.59 0 0 1-6.93 5.81 15.29 15.29 0 0 1-16.88-3.3c4.07.93 14.16 1.2 19.6-5.71 4.08-5 3.27-13.3 1.63-17.3a15.73 15.73 0 0 1 5.18 11.76Z" opacity=".1"/><path fill="#24425B" d="M87.5 55.06c-1.97.48-2.84 1.92-5.4 2a1.8 1.8 0 0 1-1.14-.68l-.4-.68s-.66-5.88-1.13-6.84c-1.22-2.56-1.58-4.12-12.67-4.12-.98-.08-2 0-2.99.2-3.46.4-6.5 1.76-5.35 5.44.3 2.2.8 4.38 1.53 6.48-.23.4-.59.76-.98.96l-.67.24c-1.18.24-2.95-.08-5.07-.64-4.37-1.12-4.21 2.56-3.3 3.8.9 1.24 2.86 1.8 6.09.84 4.4-1.36 10.82-3 16.13-3.32 5.9-.24 9.91.4 12.67 1.36 2.56.88 6.41-.72 6.33-2.28-.08-1.56-1.69-3.24-3.66-2.76Z"/><path fill="#795548" d="M61.6 60.46a46.77 46.77 0 0 1 10.5-1.92c6.34-.32 13.26 1.56 13.26 1.56.83.28 1.77.32 2.6.04 0 0-9.48-3.8-16.1-3.28-3.3.28-9.79 2-9.79 2s-7.79 2.56-12.16 2.52c.08.08 1.26 3.04 11.69-.92Z" opacity=".15"/><path fill="#795548" d="M58.95 53.1S72.05 47.8 80 51.5l.4 2.96s-4.53-3.2-20.74 1.36l-.7-2.72Z"/><path fill="#795548" d="M71.59 45.18s-15.54-2.44-13.18 5.2c.4 2.68 1.1 5.28 2.08 7.76 0 0 5-.84 7.16-1.68l-1.89-6.48c0 .04-1.45-4.44 5.83-4.8Z" opacity=".15"/><path fill="#42210B" d="M60.27 67.3s-4.56-.17-5.23-1.09c-.67-.92-2.28 2.56-2.28 2.56s-1.85 1.88-3.35 1.76a23.78 23.78 0 0 1-4.44-2.32l3.85 4.28 3.66.24.99-.96-.67 3.4.67 3.64.23-3.6 2.17-5.08 1.85.12.82 1.28.9.08c.09.04 2.01-1.4.83-4.32Zm25.34.71s2.67 1.88 4.13 1.76c.94-.08 4.48-2.32 4.48-2.32l-3.85 4.28-3.66.24-.98-.96.67 3.4-.67 3.64-.24-3.6-.4-.96c.45-1.79.62-3.63.52-5.48Z"/><path fill="#010101" d="m94.29 67.46-3.86 4.28-3.66.24-.98-.96.67 3.4-.67 3.64-.24-3.6-.43-.96.55-3.36 2.48.76c2.2.2 4.17-1.56 6.14-3.44Zm-49.42.8 3.86 4.28 3.66.24.98-.96-.67 3.4.67 3.64.24-3.6 2.16-5.08 1.85.12.83 1.28.9.08a3.35 3.35 0 0 0 1.14-2.32c0-.2-5.15-.6-5.15-.6l-4.33 3c-2.2.16-4.17-1.6-6.13-3.48Z" opacity=".7"/><path fill="#795548" d="M49.28 61.97s-1.03 7.09 4.17 6.48c0 0 4.05-3.76-4.17-6.48Zm2.44 20.65s4.91-2.64 2.12-5.76c-.04.04-4.29-.84-2.12 5.76Z"/><path fill="#795548" d="M49.08 75.94s4.37 1.84 4.84-1.72c.04.04-1.73-3.28-4.84 1.72Zm-5.98-7.68s3 4.4 5.55 1.36c0 0 .31-4.16-5.55-1.36Zm46.46-5.48s.79 5.4-3.18 4.96c0 0-3.11-2.88 3.18-4.96Zm.52 12.36s-4.37 1.84-4.84-1.72c0 .04 1.73-3.28 4.84 1.72Zm6.45-7.76s-3.23 4.72-5.98 1.48c0 0-.36-4.48 5.98-1.48Z"/><path fill="#010101" d="M49.28 61.97s-1.02 7.09 4.17 6.48l-4.17-6.48Zm2.44 20.65s4.91-2.64 2.12-5.76l-2.12 5.76Zm-2.64-6.68s4.37 1.84 4.84-1.72l-4.84 1.72Zm-5.98-7.69s3 4.4 5.55 1.36l-5.55-1.36Zm46.46-5.48s.79 5.4-3.18 4.96l3.18-4.96Zm.52 12.37s-4.37 1.84-4.84-1.72l4.84 1.72Zm6.45-7.77s-3.23 4.73-5.98 1.48l5.98-1.48Z" opacity=".2"/><path fill="#fff" d="M67.23 65.74s-1.96.92-1.77 2.16c.2 1.24 1.77.92 1.77-.16s.55-1.8 0-2Zm15.19-1.48s1.26-.36 1.69.28c.43.64-.47 1.16-.9.64-.44-.52-.99-.64-.8-.92Zm-15.94.16s-1.33-.04-1.57.72c-.23.76.75 1 1.02.4.28-.6.8-.88.55-1.12Z"/><g fill="#010101" opacity=".6"><path d="M81.98 77.98H68.45s.66-7.76 7.31-7.76a6 6 0 0 1 4.65 1.92c2.08 2.28 1.57 5.84 1.57 5.84ZM69.73 66.54a1.9 1.9 0 0 0 1.9-1.92 1.9 1.9 0 0 0-1.9-1.92 1.9 1.9 0 0 0-1.89 1.92 1.9 1.9 0 0 0 1.9 1.92ZM80.47 66.38c.95 0 1.73-.8 1.73-1.76 0-.98-.78-1.76-1.73-1.76-.96 0-1.74.78-1.74 1.76 0 .97.78 1.76 1.74 1.76Z"/></g><path fill="#795548" d="M80.17 60.94c1.14-.12 2.28 1.84 3.38 2.76 0 0-1.45-3-1.73-3.44-.28-.44-1.65.68-1.65.68Zm-9.68.28c-1.02-.48-2.75.92-4.1 1.44 0 0 2.37-2.32 2.8-2.64.43-.32 1.3 1.2 1.3 1.2Z"/><path fill="#99671D" d="M57 77.98s-.5.76-.43 2.36c.27 3.88-.83 7.8 1.38 10.56 2.2 2.8 6.57 4.72 9 3.36 2.44-1.36 2.2-6.12-.55-8.08a8.67 8.67 0 0 1-1.73-1.88A15.8 15.8 0 0 1 57 77.98Z"/><path fill="#6D4716" d="M57 77.98s-.5.76-.43 2.36c.27 3.88-.83 7.8 1.38 10.56 4.8 5.16 9 3.36 9 3.36-3.97.44-8.5-14.32-8.5-14.32-.54-.6-1.03-1.26-1.45-1.96Z"/><path fill="#fff" d="M60.3 83.7a2.91 2.91 0 0 1-2.87-2.92c.04-.52.2-1.08.43-1.52.04-.08 2.8 3.24 4.25 3.8 0-.04-.51.48-1.8.64Z"/><path fill="#795548" d="M61.87 82.86c-.31.12-.67.2-1.02.24a2.33 2.33 0 0 1-1.69-.76 2.4 2.4 0 0 1-.63-1.76l.08-.72a9.5 9.5 0 0 0 3.26 3Z" opacity=".2"/><path fill="#6D4716" d="M75.73 87.34s-1.1 2.2-2.17 3c-.47.32-.9.72-1.33 1.08v1.76c0 .16 4-1.2 3.5-5.84Z"/><path fill="#fff" d="M75.97 87.34s-2.12-.56-3.5.8c-1.34 1.36-1.34 3.28-.55 3.28.78 0 .86.28 4.05-4.08Z"/><path fill="#99671D" d="M86.14 81.06s-1.88-3.28-7.51-.28-1.06 9.28-6.18 12.28c0 0 1.46 1.44 3.3-2.36 1.82-3.72 1.82-9.88 10.4-9.64Z"/><path fill="#444" d="M72.48 93.06s2.4 1.08 4.01-4.36c1.62-5.44 3.5-8.72 8.03-8.44.63 0 1.26.24 1.73.68 2.2 2 .51 7.84-1.73 9.68-2.68 2.16-8.58 4.36-10.98 3.56-2.4-.8-1.06-1.12-1.06-1.12Z"/><path fill="#000" d="m72.1 85.22.4 2.96c.74-.56 1.41-.92 1.96-.92l-.23-2.48c-.71.2-1.42.32-2.13.44Z"/><path fill="#795548" d="M85.63 82.58h-4.56c-.12 0-.2-.08-.2-.2v-.04c0-.12.08-.2.2-.2h4.56c.12 0 .2.08.2.2v.04c0 .12-.08.2-.2.2Zm.43 1.28h-5.78c-.12 0-.2-.08-.2-.2v-.04c0-.12.08-.2.2-.2h5.78c.12 0 .2.08.2.2v.04c0 .12-.12.2-.2.2Zm0 1.24h-7.04c-.12 0-.2-.08-.2-.2v-.04c0-.12.08-.2.2-.2h7.04c.12 0 .2.08.2.2v.04c0 .12-.12.2-.2.2Zm-.43 1.28H78.6c-.12 0-.2-.08-.2-.2v-.04c0-.12.08-.2.2-.2h7.04c.12 0 .2.08.2.2v.04c0 .08-.08.2-.2.2Zm-.43 1.24h-7.04c-.12 0-.2-.08-.2-.2v-.04c0-.12.08-.2.2-.2h7.04c.12 0 .2.08.2.2v.04c0 .12-.08.2-.2.2Zm-.79 1.28h-7.04c-.12 0-.2-.08-.2-.2 0-.12.08-.2.2-.2h7.04c.12 0 .2.08.2.2 0 .08-.12.2-.2.2Zm-.82 1.24h-6.22c-.12 0-.2-.08-.2-.2 0-.12.08-.2.2-.2h6.22c.11 0 .2.08.2.2v.04c0 .08-.13.16-.2.16Zm-1.66 1.28h-5.39c-.11 0-.2-.08-.2-.2v-.04c0-.12.09-.2.2-.2h5.4c.11 0 .19.08.19.2v.04c0 .08-.12.2-.2.2Zm-2.08 1.24H76.1c-.12 0-.2-.08-.2-.2v-.04c0-.12.08-.2.2-.2h3.74c.12 0 .2.08.2.2v.04c0 .12-.08.2-.2.2Z"/></g><g style="mix-blend-mode:screen"><g filter="url(#d)"><path fill="url(#e)" fill-opacity=".6" d="m88.23 44.2 12.5 22a6.5 6.5 0 0 1 0 6.4l-12.5 22.01a6.27 6.27 0 0 1-5.45 3.2h-25a6.27 6.27 0 0 1-5.44-3.2l-12.5-22a6.51 6.51 0 0 1 0-6.4l12.5-22.01a6.28 6.28 0 0 1 5.45-3.2h25a6.27 6.27 0 0 1 5.44 3.2Z"/><path fill="#1F2348" fill-opacity=".2" d="m88.23 44.2 12.5 22a6.5 6.5 0 0 1 0 6.4l-12.5 22.01a6.27 6.27 0 0 1-5.45 3.2h-25a6.27 6.27 0 0 1-5.44-3.2l-12.5-22a6.51 6.51 0 0 1 0-6.4l12.5-22.01a6.28 6.28 0 0 1 5.45-3.2h25a6.27 6.27 0 0 1 5.44 3.2Z" style="mix-blend-mode:color-burn"/></g><path stroke="url(#f)" stroke-opacity=".3" stroke-width="2.41" d="m87.18 44.8 12.5 22c.92 1.61.92 3.6 0 5.21l-12.5 22.01a5.07 5.07 0 0 1-4.4 2.6h-25c-1.8 0-3.48-.99-4.4-2.6l-12.5-22a5.3 5.3 0 0 1 0-5.22l12.5-22a5.07 5.07 0 0 1 4.4-2.6h25c1.81 0 3.5.99 4.4 2.6Z"/></g><g filter="url(#g)" opacity=".7" style="mix-blend-mode:overlay"><circle cx="155.5" cy="114.5" r="45.5" fill="url(#h)"/></g><mask id="i" width="63" height="57" x="125" y="88" maskUnits="userSpaceOnUse" style="mask-type:luminance"><path fill="#fff" d="m174.23 91.2 12.5 22a6.5 6.5 0 0 1 0 6.4l-12.5 22.02a6.27 6.27 0 0 1-5.45 3.2h-25a6.27 6.27 0 0 1-5.44-3.2l-12.5-22.01a6.51 6.51 0 0 1 0-6.4l12.5-22.01a6.28 6.28 0 0 1 5.45-3.2h25a6.27 6.27 0 0 1 5.44 3.2Z"/></mask><g mask="url(#i)"><path fill="#1F2348" d="M187.69 84.53h-62.95v64h62.95v-64Z"/><path fill="#88B04B" d="M156.21 132.53c8.7 0 15.74-7.16 15.74-16 0-8.83-7.05-16-15.74-16-8.69 0-15.73 7.17-15.73 16 0 8.84 7.04 16 15.73 16Z"/><path fill="#010101" d="M171.64 116.53c0 3.11-.9 6.15-2.6 8.74a15.58 15.58 0 0 1-6.93 5.82 15.29 15.29 0 0 1-16.88-3.3c4.07.93 14.16 1.2 19.6-5.72 4.08-4.99 3.27-13.29 1.63-17.3a15.72 15.72 0 0 1 5.18 11.76Z" opacity=".1"/><path fill="#fff" d="M141.86 109.41s-2.95-.08-3.7-1.52a5.47 5.47 0 0 1-.04-1.4 18.34 18.34 0 0 1 6.53-10.9c3.4-2.72 7.64-4.1 11.96-3.9 12.59.4 17.31 13.2 16.52 17.2-.39 1.2-2.36 2-2.99 1.4-1.73-2.96-6.1-4.4-12.74-4.16-12.6 0-15.54 3.28-15.54 3.28Z"/><path fill="#795548" d="M157.39 92.53s6.3 3.2 7.08 10l-2.36 4c5.9 0 8.26 4 8.26 4s1.97 0 2.75-1.72c.28-2 .04-5.67-4.36-11.28 0 0-4.3-5.4-11.37-5.8 0 0-1.58.4 0 .8Z" opacity=".05"/><path fill="#795548" d="M141.9 109.3s-2.96-.05-3.63-1.45c-.55-.8 5.79-4.76 18.5-4.52 12.7.24 17.07 4.68 16.28 5.64-.78 1.64-2.95 1.56-2.95 1.56 0-.28-1.02-4.76-12.55-4.24-13.53.24-15.66 3-15.66 3Z" opacity=".2"/><path fill="#795548" d="M138.43 107.61s1.93 1.64 2.75 1.72l.48-.24-2.88-1.88-.35.4Zm2.44-1.8 3.03 2.32.9-.32-2.9-2.4-1.03.4Zm5.35-1.6 2 2.96 1.27-.24-1.85-3-1.42.28Zm6.22-.8.9 3.04 1.14-.08-.4-3.04-1.65.08Zm7.35.04-.5 2.84 1.1.04.9-2.72-1.5-.16Zm6.34 1.04-1.5 2.44.94.28 1.7-2.4-1.14-.32Zm5.39 2.28-3 1.64.99.64 3.15-1.28-1.14-1Z" opacity=".1"/><path fill="#795548" d="M162.6 101.33c1.78 0 3.23-1.7 3.23-3.8 0-2.1-1.45-3.8-3.23-3.8s-3.22 1.7-3.22 3.8c0 2.1 1.44 3.8 3.22 3.8ZM172.82 105.25a3.7 3.7 0 0 1-2.95-2.4 4.1 4.1 0 0 1 .28-3.52 17.5 17.5 0 0 1 2.67 5.92Zm-27.26-7.84c-.71 2-2.6 3.08-4.3 2.48l-.38-.2s1.96-3.2 4.64-4.8c.31.84.31 1.72.04 2.52Zm11.1-3.44c-.52 2.04-2.33 3.32-4.06 2.84-1.73-.48-2.64-2.36-2.24-4.32 2.32-.76 3.5-.76 6.13-.76.29.71.34 1.5.16 2.24Zm-12.24 10.64v-.08c.03-.98.44-1.9 1.14-2.58a3.62 3.62 0 0 1 2.6-1.02 3.7 3.7 0 0 1 3.53 2.44c-2.46.13-4.9.54-7.27 1.24ZM143.45 122.93c2.06 0 3.74-2.68 3.74-6 0-3.31-1.68-6-3.74-6-2.07 0-3.74 2.69-3.74 6 0 3.32 1.67 6 3.74 6Z"/><path fill="#010101" d="M147.19 116.93c0 3.32-1.66 6-3.74 6-2.09 0-3.74-2.68-3.74-6s1.57 0 7.48 0Z" opacity=".1"/><path fill="#795548" d="M142.25 122.93c2.06 0 3.73-2.68 3.73-6 0-3.31-1.67-6-3.73-6-2.07 0-3.74 2.69-3.74 6 0 3.32 1.67 6 3.74 6Z"/><path fill="#010101" d="M142.25 122.93c2.06 0 3.73-2.68 3.73-6 0-3.31-1.67-6-3.73-6-2.07 0-3.74 2.69-3.74 6 0 3.32 1.67 6 3.74 6Z" opacity=".6"/><path fill="#795548" d="M144.01 116.73c0 1.88-.94 3.4-2.12 3.4l-1.77.04c-.2-1.12-.31-2.28-.35-3.44 0-1.04.74-3.4.74-3.4h1.38c1.18 0 2.12 1.52 2.12 3.4Z"/><path fill="#795548" d="M140.44 120.13c1.18 0 2.13-1.52 2.13-3.4s-.95-3.4-2.13-3.4c-1.17 0-2.12 1.52-2.12 3.4s.95 3.4 2.13 3.4Z"/><path fill="#795548" d="m142.04 120.14 5.9 6.8 6.69 2 .4-.8-6.3-2-5.9-6.8s-1.18-.4-.79.8Z"/><path fill="#010101" d="M140.44 120.13c1.17 0 2.12-1.52 2.12-3.4s-.95-3.4-2.12-3.4c-1.18 0-2.13 1.52-2.13 3.4s.95 3.4 2.13 3.4Z" opacity=".4"/><path fill="#010101" d="m142.05 120.13 5.9 6.8 6.69 2 .39-.8-6.69-1.6-6.22-7.2c-.15.12-.23.36-.07.8Z" opacity=".1"/><path fill="#231100" d="m154 127.1 4.91 1.36c.52.16.83.68.71 1.24-.07.25-.24.47-.47.6a1 1 0 0 1-.75.12l-4.91-1.36a1.03 1.03 0 0 1-.6-.48 1.01 1.01 0 0 1 .35-1.39.96.96 0 0 1 .76-.1Z"/><path fill="#603813" d="M158.25 122.13h8.34s-.24 4.4-4.25 4.4a3.85 3.85 0 0 1-2.8-1.08c-1.25-1.32-1.29-3.32-1.29-3.32Z"/><path fill="#F15A24" d="M165.46 125.06a3.93 3.93 0 0 1-3.1 1.4 3.85 3.85 0 0 1-2.8-1.08c-1.26-1.32 6.97-1.6 5.9-.32Z"/><path fill="#795548" d="M157.08 117.5s-3.93-1.97-3.34-4.56c.59-2.6 3.97-.28 3.74-.36-.24-.08 2.44-2.16 3.34.31.67 2.44-3.1 5-3.74 4.6Zm9.76 0s-3.34-1.97-2.83-4.56c.47-2.6 3.38-.28 3.15-.36-.16-.08 2.12-2.16 2.87.31.59 2.44-2.64 5-3.15 4.6h-.04Z"/><path fill="#010101" d="M157.08 117.5s-3.93-1.96-3.34-4.56c.59-2.6 3.93-.24 3.74-.36-2.83-1.6-2.95 3.44-.4 4.92Zm9.76 0s-3.38-1.96-2.87-4.56c.51-2.6 3.34-.24 3.15-.36-2.36-1.6-2.48 3.44-.32 4.92h.04Z" opacity=".1"/><path fill="#795548" d="M148.15 130.3c-.23-.4-.75-.49-1.14-.25h-.04c-.7.48-.7 1.16-.47 1.4l4.8 5.36.47 4.44s0 .49.9.49c.91 0 .72-.73.72-.73l-.24-4.44 3.46-5.6c.47-.72-.47-2.32-1.85-1.16l-1.85 5.12-.63-6.48a1.2 1.2 0 0 0-1.14-.72c-.9 0-.9.92-.9 1.4 0 .48 1.14 6.08 1.14 6.08l-3.23-4.92Zm23.41 2.31c0-.24-.2-.48-.43-.48l-4.37 1.16-.82.8c.66-.76 1.22-1.56 1.73-2.44.47-.92.9-.72.9-.72s1.14 0 1.38-.72c.23-.72-.24-.72-1.14-.92a1.73 1.73 0 0 0-1.62.48l-3.46 3.96-1.38-2.08.71-1.4c-.7.92-4.8 2.08-4.8 2.08l2.05.48c.79.68 1.5 1.48 2.04 2.32.71 1.16-.9 5.6-.9 5.6-.12 1 1.46.6 1.85-.88.2-1.12.47-2.2.79-3.24.55.08 3.66.44 4.28.44.36 0 .67-.28.71-.68v-.04l-2.28-1.4c-.04.04 4.76-1.84 4.76-2.32Z"/><path fill="#010101" d="M148.16 130.3a1.07 1.07 0 0 0-.71 0c-.71.47.7 2.07.7 2.07l3.66 4.44.48 4.44s-.12.49.47.49c.79-.13.7-.73.7-.73l-.23-4.44 3.46-5.6c.48-.72-.35-1.51-1.37-.47l-2.28 5.12-.75-7.16s0-.49-.9-.49c-.91 0-.72 1.16-.72 1.16l1.15 6.77-3.66-5.6Zm12.94 1.51 2.09 2.8.59-.84-1.42-2.03.55-1.17-1.81 1v.25Z" opacity=".1"/><path fill="#795548" d="M164 135.22c.91-.72 2.6-3.32 3.63-4.84.86-.64 1.92-.88 2.36-.09-.2.72-1.38.72-1.38.72s-.47-.23-.9.73c-.44.95-2.29 3.27-3 3.72-.7.44-1.41 4.4-1.41 4.4-.4.75-.79 1.2-1.22 1.2l1.93-5.84Z" opacity=".1"/><path fill="#010101" d="m166.75 133.33 4.37-1.16c.24 0 .47.2.47.44 0 .48-4.8 2.32-4.8 2.32l2.28 1.4c0 .36-.27.68-.66.72h-.04c-.71 0-4.37-.48-4.37-.48l.47-1 2.28-2.24Z" opacity=".2"/></g><g style="mix-blend-mode:screen"><g filter="url(#j)"><path fill="url(#k)" fill-opacity=".6" d="m174.23 91.2 12.5 22a6.5 6.5 0 0 1 0 6.4l-12.5 22.02a6.27 6.27 0 0 1-5.45 3.2h-25a6.27 6.27 0 0 1-5.44-3.2l-12.5-22.01a6.51 6.51 0 0 1 0-6.4l12.5-22.01a6.28 6.28 0 0 1 5.45-3.2h25a6.27 6.27 0 0 1 5.44 3.2Z"/><path fill="#1F2348" fill-opacity=".2" d="m174.23 91.2 12.5 22a6.5 6.5 0 0 1 0 6.4l-12.5 22.02a6.27 6.27 0 0 1-5.45 3.2h-25a6.27 6.27 0 0 1-5.44-3.2l-12.5-22.01a6.51 6.51 0 0 1 0-6.4l12.5-22.01a6.28 6.28 0 0 1 5.45-3.2h25a6.27 6.27 0 0 1 5.44 3.2Z" style="mix-blend-mode:color-burn"/></g><path stroke="url(#l)" stroke-opacity=".3" stroke-width="2.41" d="m173.18 91.8 12.5 22c.92 1.61.92 3.6 0 5.21l-12.5 22.01a5.07 5.07 0 0 1-4.4 2.6h-25c-1.8 0-3.49-.99-4.4-2.6l-12.5-22a5.3 5.3 0 0 1 0-5.22l12.5-22a5.07 5.07 0 0 1 4.4-2.6h25c1.81 0 3.5.99 4.4 2.6Z"/></g><g filter="url(#m)" opacity=".7" style="mix-blend-mode:overlay"><circle cx="241.5" cy="69.5" r="45.5" fill="url(#n)"/></g><mask id="o" width="64" height="57" x="210" y="41" maskUnits="userSpaceOnUse" style="mask-type:luminance"><path fill="#fff" d="m259.8 44.58 12.5 21.93a6.45 6.45 0 0 1 0 6.38L259.8 94.8a6.27 6.27 0 0 1-5.45 3.19h-25a6.27 6.27 0 0 1-5.44-3.19L211.4 72.9a6.47 6.47 0 0 1 0-6.38l12.5-21.93a6.28 6.28 0 0 1 5.45-3.19h25a6.27 6.27 0 0 1 5.44 3.2Z"/></mask><g mask="url(#o)"><path fill="#FA7268" d="M273.26 37.94H210.3v63.77h62.95V37.94Z"/><path fill="#1A5493" d="M241.78 85.76c8.7 0 15.74-7.13 15.74-15.94 0-8.8-7.05-15.94-15.74-15.94-8.69 0-15.73 7.14-15.73 15.94s7.04 15.94 15.73 15.94Z"/><path fill="#010101" d="M257.2 69.82c0 3.1-.9 6.13-2.6 8.71-1.69 2.58-4.1 4.6-6.92 5.8a15.34 15.34 0 0 1-16.88-3.3c4.07.93 14.16 1.2 19.6-5.69 4.08-4.97 3.27-13.24 1.63-17.24a15.66 15.66 0 0 1 5.18 11.72Z" opacity=".1"/><path fill="#0582CA" d="M240.16 49.02c.04.88-1.06 2.15-1.06 2.15s-.6-1.11-1.42-1.51c-.82-.4-1.57.4-1.18.6l.79 1.87-1.03.04a3.5 3.5 0 0 1-2.36-1.34 3.6 3.6 0 0 1 3.2-5.8 3.62 3.62 0 0 1 3.07 3.99Z"/><path fill="#010101" d="M240.17 49.02c.04.88-1.06 2.15-1.06 2.15l-.63-1.08c.39 0 1.41-2.9.82-3.86a3.6 3.6 0 0 1 .87 2.79Z" opacity=".25"/><path fill="#93505C" d="M236.27 50.3s1.46 2.27 1.9 4.1c.23.88.39 1.75.46 2.67.4 1.6 3.15.8 3.15-.4 0 0-2.4-5.54-3.54-6.77-1.02-1.56-2.44-.48-1.97.4Z"/><path fill="#303030" d="m223.88 84.53-.63-5.14.79-.16.59 5.18s-.16.8-.75.12Z"/><path fill="#D8D8D8" d="M228.71 66.51c.63.92.79 2.04.47 3.07l-.15.8 1.69.04c1.18.36 1.26 3.19.23 4.07a6.5 6.5 0 0 0-1.18.87 9.85 9.85 0 0 1-3.3 2.51l-1.3.56c-2.36.96-6.84 2.35-7.6-2.59l.13-2.63c.08-1.32-.6-2.27.31-4.78.9-2.51 3.46-2.91 5.35-2.4 0 0 .32.2.94-.67.63-.88 3.27-1.32 4.41 1.15Z"/><path fill="#fff" d="M225.7 78.23c-2.2.96-7.24 2.87-8.03-2.43l.16-2.67c.08-1.32-.6-2.27.31-4.78.9-2.51.95-2.55 5.35-2.4 4.06.13 2.09 6.5 2.84 10.8 0 .45-.28 1.32-.63 1.48Z"/><path fill="#0582CA" d="M226.52 77.87c1.26-.27-7.94 4.11-8.85-2.07l.12-2.63c.08-1.31-.59-2.27.31-4.78.9-2.51 3.47-2.91 5.36-2.4-5.83.37-3.31 12.72 3.06 11.88Z" opacity=".05"/><path fill="#0582CA" d="M231 74.57s-3.26 2.87-4.48 3.34c-1.07.4-6.38 3.23-8.27-.2-.23-.6-.47-1.23-.59-1.87.36.88 2.25 1.68 4.17 1.72 2.6.12 4.41-1.72 6.02-1.44.99-.64 2.05-1.16 3.15-1.55Z" opacity=".16"/><path fill="#0582CA" d="m223.3 59.74 3.38.12-2.09 2.63.83 3.23-3.07-1.28-2.75 1.91.2-3.34-2.6-2.08 3.22-.87 1.18-3.2 1.7 2.88Z"/><path fill="#fff" d="m222.24 59.58.5.8c.09.12.25.2.4.2l.87.04c.23 0 .4.23.4.47l-.09.28-.59.8c-.11.08-.11.2-.11.4l.23.92c.04.2-.04.43-.27.51h-.32l-.82-.4a.35.35 0 0 0-.4.08l-.79.52a.53.53 0 0 1-.63-.08c-.07-.08-.07-.2-.07-.32l.07-.91c0-.16-.07-.28-.2-.4l-.74-.64c-.16-.12-.2-.4-.12-.64l.24-.16.9-.24a.53.53 0 0 0 .32-.27l.31-.88c.08-.24.36-.36.6-.28.15 0 .27.04.3.16v.04Z" opacity=".5"/><path fill="#0582CA" d="M247.3 71.82s1.88-.8 3.22 0c.32.15.28.43 0 .8 0 0-1.34 1.59-1.61 1.59-.28 0-1.89-1.6-1.89-1.6-.24-.4-.12-.68.27-.8Z"/><path fill="#3A3A3A" d="M249.39 71.46c.39.08.78.16 1.18.35.31.16.27.44 0 .8-.47.6-1.01 1.14-1.62 1.6.75-1.28 1.03-2.51.44-2.75Z" opacity=".2"/><path stroke="#000" stroke-linecap="round" stroke-linejoin="round" stroke-width="3.13" d="M248.09 77.8c.62.07.78-2.32.78-3.6m-3.93 1.8s2.95 4.38 7.08 0"/><path fill="#010101" d="M241.4 70.62s0-4.78 2.35-4.78c2.36 0 2.36 4.62 2.36 4.62s-1.97-4.62-4.72.16Zm9.04 0s0-4.78 2.36-4.78 2.36 4.62 2.36 4.62-1.97-4.62-4.72.16Z" opacity=".6"/><path fill="#fff" d="M248.09 72.21s1.57-.4 2.36 0h-2.36Z" opacity=".3"/><path stroke="#000" stroke-linecap="round" stroke-linejoin="round" stroke-width="1.56" d="M246.91 73.8a42.76 42.76 0 0 0-12.2-2.78m12.05 3.3c-4.72-1.1-10.9-.47-10.9-.47m10.86 1.23c-4.84-.4-10.86 2-10.86 2m14.2-3.27a32.75 32.75 0 0 1 10.62-2.8m-10.5 3.32c4.13-1.12 9.48-.48 9.48-.48m-9.44 1.23c4.2-.4 9.44 2 9.44 2"/><path fill="#000" d="M234.3 83.65a24.84 24.84 0 0 0 10.47 6.38c-2.75 1-3.15 2.59-3.78 4.9 0 0 6.06-1.31 6.7-3.07 0 0 2.35 2.71 7.07 2.31-.86-2.3-3.54-4.86-7.08-5.38-1.06 0-1.65-2.7 1.18-5.02-8.65 3.47-14.56-.12-14.56-.12Z"/><path fill="#0582CA" d="M244.78 90.03c-2.6.84-3.27 2.67-3.78 4.9 0 0 6.06-1.31 6.69-3.07 0 0 2.36 2.71 7.08 2.31-.87-2.3-3.54-4.86-7.08-5.38 0 .16-.24.4-.24.88a5.8 5.8 0 0 0-2.67.4v-.04Z"/><path fill="#010101" d="M246.1 89.15s5.5 1.92 8.66 5.03c-.87-2.32-3.54-4.87-7.08-5.38-1.07 0-1.66-2.72 1.17-5.03-1.08.44-2.2.8-3.34 1.04-.98 3.19.6 4.34.6 4.34Z" opacity=".1"/></g><g style="mix-blend-mode:screen"><g filter="url(#p)"><path fill="url(#q)" fill-opacity=".6" d="m259.8 44.19 12.5 21.92a6.45 6.45 0 0 1 0 6.38l-12.5 21.93a6.27 6.27 0 0 1-5.45 3.19h-25a6.27 6.27 0 0 1-5.44-3.2L211.4 72.5a6.47 6.47 0 0 1 0-6.38l12.5-21.92a6.28 6.28 0 0 1 5.45-3.19h25a6.27 6.27 0 0 1 5.44 3.19Z"/><path fill="#1F2348" fill-opacity=".2" d="m259.8 44.19 12.5 21.92a6.45 6.45 0 0 1 0 6.38l-12.5 21.93a6.27 6.27 0 0 1-5.45 3.19h-25a6.27 6.27 0 0 1-5.44-3.2L211.4 72.5a6.47 6.47 0 0 1 0-6.38l12.5-21.92a6.28 6.28 0 0 1 5.45-3.19h25a6.27 6.27 0 0 1 5.44 3.19Z" style="mix-blend-mode:color-burn"/></g><path stroke="url(#r)" stroke-opacity=".3" stroke-width="2.41" d="m258.75 44.78 12.5 21.93c.92 1.6.92 3.58 0 5.19l-12.5 21.92a5.07 5.07 0 0 1-4.4 2.58h-25c-1.8 0-3.49-.98-4.4-2.58l-12.5-21.92a5.26 5.26 0 0 1 0-5.19l12.5-21.93a5.08 5.08 0 0 1 4.4-2.58h25c1.81 0 3.5.98 4.4 2.58Z"/></g><defs><linearGradient id="e" x1="43.95" x2="89.79" y1="43.13" y2="100.79" gradientUnits="userSpaceOnUse"><stop stop-color="#CCE8FE"/><stop offset=".24" stop-color="#CDA0FF"/><stop offset=".4" stop-color="#8489F5"/><stop offset=".71" stop-color="#CDF1FF"/><stop offset="1" stop-color="#B591E9"/></linearGradient><linearGradient id="f" x1="43.95" x2="89.79" y1="43.13" y2="100.79" gradientUnits="userSpaceOnUse"><stop stop-color="#CCE8FE"/><stop offset=".24" stop-color="#CDA0FF"/><stop offset=".4" stop-color="#8489F5"/><stop offset=".71" stop-color="#CDF1FF"/><stop offset="1" stop-color="#B591E9"/></linearGradient><linearGradient id="k" x1="129.95" x2="175.79" y1="90.13" y2="147.79" gradientUnits="userSpaceOnUse"><stop stop-color="#CCE8FE"/><stop offset=".24" stop-color="#CDA0FF"/><stop offset=".4" stop-color="#8489F5"/><stop offset=".71" stop-color="#CDF1FF"/><stop offset="1" stop-color="#B591E9"/></linearGradient><linearGradient id="l" x1="129.95" x2="175.79" y1="90.13" y2="147.79" gradientUnits="userSpaceOnUse"><stop stop-color="#CCE8FE"/><stop offset=".24" stop-color="#CDA0FF"/><stop offset=".4" stop-color="#8489F5"/><stop offset=".71" stop-color="#CDF1FF"/><stop offset="1" stop-color="#B591E9"/></linearGradient><linearGradient id="q" x1="215.52" x2="261.15" y1="43.12" y2="100.73" gradientUnits="userSpaceOnUse"><stop stop-color="#CCE8FE"/><stop offset=".24" stop-color="#CDA0FF"/><stop offset=".4" stop-color="#8489F5"/><stop offset=".71" stop-color="#CDF1FF"/><stop offset="1" stop-color="#B591E9"/></linearGradient><linearGradient id="r" x1="215.52" x2="261.15" y1="43.12" y2="100.73" gradientUnits="userSpaceOnUse"><stop stop-color="#CCE8FE"/><stop offset=".24" stop-color="#CDA0FF"/><stop offset=".4" stop-color="#8489F5"/><stop offset=".71" stop-color="#CDF1FF"/><stop offset="1" stop-color="#B591E9"/></linearGradient><filter id="a" width="139" height="139" x="0" y="0" color-interpolation-filters="sRGB" filterUnits="userSpaceOnUse"><feFlood flood-opacity="0" result="BackgroundImageFix"/><feBlend in="SourceGraphic" in2="BackgroundImageFix" result="shape"/><feGaussianBlur result="effect1_foregroundBlur_1313_5938" stdDeviation="12"/></filter><filter id="d" width="62.57" height="59.22" x="39" y="41" color-interpolation-filters="sRGB" filterUnits="userSpaceOnUse"><feFlood flood-opacity="0" result="BackgroundImageFix"/><feBlend in="SourceGraphic" in2="BackgroundImageFix" result="shape"/><feColorMatrix in="SourceAlpha" result="hardAlpha" values="0 0 0 0 0 0 0 0 0 0 0 0 0 0 0 0 0 0 127 0"/><feOffset dy="2.41"/><feGaussianBlur stdDeviation="4.81"/><feComposite in2="hardAlpha" k2="-1" k3="1" operator="arithmetic"/><feColorMatrix values="0 0 0 0 0 0 0 0 0 0 0 0 0 0 0 0 0 0 0.05 0"/><feBlend in2="shape" result="effect1_innerShadow_1313_5938"/></filter><filter id="g" width="139" height="139" x="86" y="45" color-interpolation-filters="sRGB" filterUnits="userSpaceOnUse"><feFlood flood-opacity="0" result="BackgroundImageFix"/><feBlend in="SourceGraphic" in2="BackgroundImageFix" result="shape"/><feGaussianBlur result="effect1_foregroundBlur_1313_5938" stdDeviation="12"/></filter><filter id="j" width="62.57" height="59.22" x="125" y="88" color-interpolation-filters="sRGB" filterUnits="userSpaceOnUse"><feFlood flood-opacity="0" result="BackgroundImageFix"/><feBlend in="SourceGraphic" in2="BackgroundImageFix" result="shape"/><feColorMatrix in="SourceAlpha" result="hardAlpha" values="0 0 0 0 0 0 0 0 0 0 0 0 0 0 0 0 0 0 127 0"/><feOffset dy="2.41"/><feGaussianBlur stdDeviation="4.81"/><feComposite in2="hardAlpha" k2="-1" k3="1" operator="arithmetic"/><feColorMatrix values="0 0 0 0 0 0 0 0 0 0 0 0 0 0 0 0 0 0 0.05 0"/><feBlend in2="shape" result="effect1_innerShadow_1313_5938"/></filter><filter id="m" width="139" height="139" x="172" y="0" color-interpolation-filters="sRGB" filterUnits="userSpaceOnUse"><feFlood flood-opacity="0" result="BackgroundImageFix"/><feBlend in="SourceGraphic" in2="BackgroundImageFix" result="shape"/><feGaussianBlur result="effect1_foregroundBlur_1313_5938" stdDeviation="12"/></filter><filter id="p" width="62.57" height="59.01" x="210.57" y="41" color-interpolation-filters="sRGB" filterUnits="userSpaceOnUse"><feFlood flood-opacity="0" result="BackgroundImageFix"/><feBlend in="SourceGraphic" in2="BackgroundImageFix" result="shape"/><feColorMatrix in="SourceAlpha" result="hardAlpha" values="0 0 0 0 0 0 0 0 0 0 0 0 0 0 0 0 0 0 127 0"/><feOffset dy="2.41"/><feGaussianBlur stdDeviation="4.81"/><feComposite in2="hardAlpha" k2="-1" k3="1" operator="arithmetic"/><feColorMatrix values="0 0 0 0 0 0 0 0 0 0 0 0 0 0 0 0 0 0 0.05 0"/><feBlend in2="shape" result="effect1_innerShadow_1313_5938"/></filter><radialGradient id="b" cx="0" cy="0" r="1" gradientTransform="rotate(90 0 69.5) scale(45.5)" gradientUnits="userSpaceOnUse"><stop stop-color="#fff" stop-opacity="0"/><stop offset=".5" stop-color="#fff"/><stop offset="1" stop-color="#fff" stop-opacity=".2"/></radialGradient><radialGradient id="h" cx="0" cy="0" r="1" gradientTransform="rotate(90 20.5 135) scale(45.5)" gradientUnits="userSpaceOnUse"><stop stop-color="#fff" stop-opacity="0"/><stop offset=".5" stop-color="#fff"/><stop offset="1" stop-color="#fff" stop-opacity=".2"/></radialGradient><radialGradient id="n" cx="0" cy="0" r="1" gradientTransform="rotate(90 86 155.5) scale(45.5)" gradientUnits="userSpaceOnUse"><stop stop-color="#fff" stop-opacity="0"/><stop offset=".5" stop-color="#fff"/><stop offset="1" stop-color="#fff" stop-opacity=".2"/></radialGradient></defs></svg>