<svg xmlns="http://www.w3.org/2000/svg" fill="none" viewBox="0 0 483 186"><g filter="url(#a)" opacity=".7" style="mix-blend-mode:overlay"><circle cx="327.5" cy="116.5" r="45.5" fill="url(#b)"/></g><mask id="c" width="63" height="57" x="297" y="88" maskUnits="userSpaceOnUse" style="mask-type:luminance"><path fill="#fff" d="m346.23 91.2 12.5 22a6.5 6.5 0 0 1 0 6.4l-12.5 22.02a6.27 6.27 0 0 1-5.45 3.2h-25a6.27 6.27 0 0 1-5.44-3.2l-12.5-22.01a6.51 6.51 0 0 1 0-6.4l12.5-22.01a6.28 6.28 0 0 1 5.45-3.2h25a6.27 6.27 0 0 1 5.44 3.2Z"/></mask><g mask="url(#c)"><path fill="#FC8702" d="M359.67 84.53h-62.94v64h62.94v-64Z"/><path fill="#5961A8" d="M328.2 132.53c8.69 0 15.73-7.16 15.73-16 0-8.83-7.04-16-15.73-16-8.7 0-15.74 7.17-15.74 16 0 8.84 7.05 16 15.74 16Z"/><path fill="#010101" d="M343.64 116.53c0 3.11-.9 6.15-2.6 8.74a15.58 15.58 0 0 1-6.93 5.82 15.29 15.29 0 0 1-16.88-3.3c4.07.93 14.16 1.2 19.6-5.72 4.08-4.99 3.27-13.29 1.63-17.3a15.72 15.72 0 0 1 5.18 11.76Z" opacity=".1"/><path fill="#795548" d="M327.44 92.77c-7.16.44-12.78 2.32-12.62 4.2.15 1.88 6.1 3.09 13.25 2.64 7.16-.44 12.79-2.32 12.63-4.2-.15-1.88-6.13-3.08-13.26-2.64Zm.52 5.8c-6.42.36-11.73-.44-11.85-1.84-.11-1.4 4.96-2.84 11.41-3.24 6.46-.4 11.73.44 11.85 1.84.11 1.4-4.96 2.84-11.41 3.24Z" opacity=".1"/><path fill="#FFF800" d="M327.44 92.37c-7.16.44-12.78 2.32-12.62 4.2.15 1.88 6.1 3.08 13.25 2.64 7.16-.44 12.79-2.32 12.63-4.2-.15-1.88-6.13-3.08-13.26-2.64Zm.52 5.8c-6.42.36-11.73-.44-11.85-1.84-.11-1.4 4.96-2.84 11.41-3.24 6.46-.4 11.73.44 11.85 1.84.11 1.4-4.96 2.84-11.41 3.24Z"/><path fill="#000" d="M348.18 109.73c-.9-.8-6.17-.2-6.17-.2l.35.76.9 1.96c.99-.44 2.05-.8 3.07-.96 0 .04.75 7.64-.04 8.44-.78.8-3.3 1.33-3.3 1.33l-.24.67-.39 1.05s6.69.55 6.69-4.25c.27-6.52.23-7.84-.9-8.8h.03Zm-41.78 1.96s-1.85.12-2.55.53c-.2.08-.16.4.07.6a9.26 9.26 0 0 1 3.15 4.4c1.34 3.4 1.34 6.67 5.43 8.16 4.1 1.48 5.82 0 5.82 0s2.8-3.64-.35-7.16c0 0-.63-.64-1.85-.25-1.42.48-2.95.77-4.56-2.28-1.66-3-2.44-4.36-5.16-4Z"/><path fill="#fff" d="M306.49 113.05c1.4-.08 2.53-.46 2.5-.83-.01-.38-1.18-.61-2.59-.52-1.4.08-2.53.46-2.5.83.02.38 1.18.61 2.59.52ZM314.6 118.54c2.04.4 3.53.04 4.12.72a6 6 0 0 0-.74-1.04 1.82 1.82 0 0 0-1.81-.24c-4.3 1.6-4.57-3.8-6.93-5.64 2.4 2.84 2.25 5.6 5.35 6.2Z" opacity=".3"/><path fill="#fff" d="M342.02 109.53s5.74-.67 6.33.4c-.9-.32-2.36-.16-3.46 0l-2.52.33-.35-.73Z" opacity=".4"/><path fill="#010101" d="M304.5 113.33c1.86 1.6 2.33 3.16 2.6 3.88 1.3 3.4 1.3 6.68 5.4 8.16 4.09 1.48 5.82 0 5.82 0s2.08-2.4.67-5.6c0 0 1.53 4.4-3.11 4.4-2.13-.04-4.13-.36-5.7-2.4-2.1-2.72-3.08-7.6-5.67-8.44Z" opacity=".16"/><path fill="#010101" d="M306.53 112.73c1.04-.07 1.87-.28 1.86-.48 0-.2-.86-.3-1.9-.23-1.05.06-1.88.27-1.87.47.01.2.87.3 1.9.24Z" opacity=".35"/><path fill="#010101" d="M308.43 112.25c.2.36-1.9.48-1.9.48.17-.44.13-.68-.03-.68 0 0 1.73-.12 1.93.2Z" opacity=".35"/><path fill="#010101" d="M346.33 111.3s.75 7.63-.04 8.43c-.79.8-3.3 1.32-3.3 1.32l-.24.68s3.46-.48 4.33-1.64c.86-1.16.4-7.16.4-7.16s.1-2.12-1.15-1.64Z" opacity=".5"/><path fill="#795548" d="M333.7 118.53s1.9-.8 3.24 0c.31.16.27.44 0 .8 0 0-1.34 1.6-1.62 1.6-.27 0-1.89-1.6-1.89-1.6-.23-.4-.11-.67.28-.8Z"/><path fill="#3A3A3A" d="M335.8 118.17c.4.08.79.16 1.18.36.31.16.28.44 0 .8-.47.6-1 1.14-1.61 1.6.75-1.28 1.02-2.52.43-2.76Z" opacity=".2"/><path stroke="#000" stroke-linecap="round" stroke-linejoin="round" stroke-width="3.13" d="M334.5 124.53c.64.08.8-2.32.8-3.6m-3.94 1.8s2.95 4.4 7.08 0"/><path fill="#010101" d="M327.8 117.33s0-4.8 2.37-4.8c2.36 0 2.36 4.64 2.36 4.64s-1.97-4.64-4.72.16Zm9.05 0s0-4.8 2.36-4.8 2.36 4.64 2.36 4.64-1.96-4.64-4.72.16Z" opacity=".6"/><path fill="#fff" d="M334.5 118.93s1.57-.4 2.36 0h-2.36Z" opacity=".3"/><path stroke="#000" stroke-linecap="round" stroke-linejoin="round" stroke-width="1.56" d="M333.32 120.53a42.6 42.6 0 0 0-12.2-2.8m12.04 3.33c-4.72-1.13-10.9-.48-10.9-.48m10.86 1.23c-4.83-.4-10.85 2-10.85 2m14.2-3.28a32.64 32.64 0 0 1 10.62-2.8m-10.5 3.33c4.13-1.13 9.48-.48 9.48-.48m-9.44 1.23c4.2-.4 9.44 2 9.44 2"/><path fill="#795548" d="M328.2 140.62c6.94 0 12.58-1.56 12.58-3.49 0-1.92-5.64-3.48-12.59-3.48s-12.59 1.56-12.59 3.48c0 1.93 5.64 3.49 12.6 3.49Z" opacity=".3"/><path fill="#795548" d="M328.2 138.3c3.69 0 6.68-.74 6.68-1.64 0-.91-2.99-1.64-6.68-1.64-3.7 0-6.7.73-6.7 1.64 0 .9 3 1.64 6.7 1.64Z" opacity=".6"/></g><g style="mix-blend-mode:screen"><g filter="url(#d)"><path fill="url(#e)" fill-opacity=".6" d="m346.23 91.43 12.5 22.01a6.49 6.49 0 0 1 0 6.4l-12.5 22a6.27 6.27 0 0 1-5.45 3.2h-25a6.27 6.27 0 0 1-5.44-3.2l-12.5-22a6.51 6.51 0 0 1 0-6.4l12.5-22a6.28 6.28 0 0 1 5.45-3.2h25a6.27 6.27 0 0 1 5.44 3.2Z"/><path fill="#1F2348" fill-opacity=".2" d="m346.23 91.43 12.5 22.01a6.49 6.49 0 0 1 0 6.4l-12.5 22a6.27 6.27 0 0 1-5.45 3.2h-25a6.27 6.27 0 0 1-5.44-3.2l-12.5-22a6.51 6.51 0 0 1 0-6.4l12.5-22a6.28 6.28 0 0 1 5.45-3.2h25a6.27 6.27 0 0 1 5.44 3.2Z" style="mix-blend-mode:color-burn"/></g><path stroke="url(#f)" stroke-opacity=".3" stroke-width="2.41" d="m345.18 92.03 12.5 22c.92 1.62.92 3.6 0 5.22l-12.5 22a5.07 5.07 0 0 1-4.4 2.6h-25c-1.8 0-3.48-.99-4.4-2.6l-12.5-22a5.3 5.3 0 0 1 0-5.22l12.5-22a5.07 5.07 0 0 1 4.4-2.6h25c1.81 0 3.5.99 4.4 2.6Z"/></g><g filter="url(#g)" opacity=".7" style="mix-blend-mode:overlay"><circle cx="413.5" cy="69.5" r="45.5" fill="url(#h)"/></g><mask id="i" width="64" height="57" x="382" y="41" maskUnits="userSpaceOnUse" style="mask-type:luminance"><path fill="#fff" d="m431.8 44.2 12.5 22a6.5 6.5 0 0 1 0 6.4l-12.5 22.01a6.27 6.27 0 0 1-5.45 3.2h-25a6.27 6.27 0 0 1-5.44-3.2l-12.5-22a6.51 6.51 0 0 1 0-6.4l12.5-22.01a6.28 6.28 0 0 1 5.45-3.2h25a6.27 6.27 0 0 1 5.44 3.2Z"/></mask><g mask="url(#i)"><path fill="#D94432" d="M445.26 37.53H382.3v64h62.95v-64Z"/><path fill="#21BCA5" d="M413.78 85.53c8.7 0 15.74-7.16 15.74-16 0-8.83-7.05-16-15.74-16-8.69 0-15.73 7.17-15.73 16 0 8.84 7.04 16 15.73 16Z"/><path fill="#010101" d="M429.2 69.53c0 3.11-.9 6.15-2.6 8.74a15.59 15.59 0 0 1-6.92 5.82 15.28 15.28 0 0 1-16.88-3.3c4.07.93 14.16 1.2 19.6-5.72 4.08-4.99 3.27-13.29 1.63-17.3a15.96 15.96 0 0 1 5.17 11.76Z" opacity=".1"/><path fill="#825105" d="M413.99 54.7s-1.38-7.13-2.84-9.05c-.08-.08-.67-.2-1.61.24l-.08.08s1.02 1.04 3.54 8.72c0 0 .99.52.99 0Z"/><path fill="#F4B145" d="M410.33 45.97c.48-.04.86-.16.85-.27-.01-.1-.4-.17-.88-.13-.48.04-.86.16-.85.27.01.11.4.17.88.13Z"/><path fill="#88B04B" d="M412.69 54.05s.27-.04.47-.56c.2-.76-.2-1.52-.94-1.76-.79-.2-1.14-.96-1.7-1.68-.54-.72-2.51-1.88-5.86-1.8-3.34.08-4-1.2-4.28-1.44-.28-.24-.32 2.4 1.18 4.36 1.5 1.96 3.65 3.32 6.13 2.04 2.48-1.28 3.62-.08 3.62-.08s.87.96 1.38.92Z"/><path fill="#010101" d="M412.69 54.05s.27-.04.47-.56c.2-.76-.2-1.52-.94-1.76-.8-.2-1.15-.96-1.7-1.68s-2.51-1.92-5.86-1.8c-3.85.12-4.4-1.88-4.33-1.36 1.19 4.6 9.01 1.68 12.36 7.16Z" opacity=".2"/><path fill="#303030" d="m395.88 84.3-.63-5.17.79-.16.59 5.2s-.16.8-.75.12Z"/><path fill="#D8D8D8" d="M400.71 66.21c.63.92.79 2.04.47 3.08l-.15.8 1.69.04c1.18.36 1.26 3.2.23 4.08a6.5 6.5 0 0 0-1.18.88 9.85 9.85 0 0 1-3.3 2.52l-1.3.56c-2.36.96-6.85 2.36-7.6-2.6l.13-2.64c.07-1.32-.6-2.28.31-4.8.9-2.52 3.46-2.92 5.35-2.4 0 0 .32.2.94-.68.63-.88 3.27-1.32 4.41 1.16Z"/><path fill="#fff" d="M397.7 77.97c-2.2.96-7.24 2.88-8.03-2.44l.16-2.68c.08-1.32-.6-2.28.31-4.8.9-2.52.95-2.56 5.35-2.4 4.06.12 2.09 6.52 2.84 10.84 0 .44-.28 1.32-.63 1.48Z"/><path fill="#88B04B" d="M398.52 77.62c1.26-.28-7.94 4.12-8.85-2.08l.12-2.64c.08-1.32-.59-2.28.31-4.8.9-2.52 3.47-2.92 5.35-2.4-5.82.36-3.3 12.76 3.07 11.92Z" opacity=".05"/><path fill="#88B04B" d="M403 74.3s-3.26 2.88-4.48 3.36c-1.07.4-6.38 3.24-8.27-.2-.23-.6-.47-1.24-.59-1.88.36.88 2.25 1.68 4.17 1.72 2.6.12 4.41-1.72 6.02-1.44.99-.64 2.05-1.17 3.15-1.57Z" opacity=".16"/><path fill="#88B04B" d="m395.3 59.41 3.38.12-2.09 2.64.83 3.24-3.07-1.28-2.75 1.92.2-3.36-2.6-2.08 3.22-.88 1.18-3.2 1.7 2.88Z"/><path fill="#fff" d="m394.24 59.25.5.8c.09.12.25.2.4.2l.87.04c.23 0 .4.24.4.48l-.09.28-.59.8c-.12.08-.12.2-.12.4l.24.92c.04.2-.04.44-.27.52h-.32l-.82-.4a.35.35 0 0 0-.4.08l-.79.52a.53.53 0 0 1-.63-.08c-.07-.08-.07-.2-.07-.32l.07-.92c0-.16-.07-.28-.2-.4l-.74-.64c-.16-.12-.2-.4-.12-.64l.24-.16.9-.24a.53.53 0 0 0 .32-.28l.31-.88a.47.47 0 0 1 .6-.28c.15 0 .27.04.3.16v.04Z" opacity=".5"/><path fill="#010101" d="M412.21 68.34s0-4.8 2.36-4.8 2.36 4.64 2.36 4.64-1.97-4.64-4.72.16Zm9.44-.2s0-4.4 2.17-4.4c2.16 0 2.16 4.24 2.16 4.24s-1.8-4.24-4.33.16Z" opacity=".6"/><g fill="#88B04B" opacity=".2"><path d="M411.81 73.97c-.08-.6.16-1.16.55-1.56 0 0 4.25 0 5.12-1.84.86-1.84 1.69-4.04 3.1-3.12 2.25 1.32 1.97 3.12 3.39 4.04 1.41.92 2.83 2.28 4.8 2.28 1.97 0 2.28.2 2.28.84 0 .64-.87 1.88-2.56 1.24-1.69-.64-4.09-1.72-7.79-.16s-1.96 1.88-4.25.92a28.31 28.31 0 0 1-4.64-2.64Z"/><path d="m412.9 74.57-.24 1.16.86 1.44s2.56 0 3.42.88c.87.88 5.4 2 8.23 1.16 2.83-.84 2.63-3.44 2.63-3.44s-5 2.16-8.7.84c-.36.28-.77.49-1.21.6-.87-.28-1.73-.6-2.6-1-.9-.4-1.69-.96-2.4-1.64Z"/><path d="M428.05 75.33s-2.28-.88-3.98-.56c-1.33.2-2.63.52-3.89 1.04 1.65.68 5.35-.48 7.87-.48Z"/></g><path fill="#EB5273" d="M428.07 75.33s-2.28-.88-3.98-.56c-1.69.32-3.54.72-4.44 1.36 0 0 .94.68 2.83.52 1.89-.16 4.76-.72 5.59-1.32Z"/><path fill="#FBDB31" d="m412.2 73.9.55-1.45s4.25 0 5.12-1.72c.86-1.72 1.69-3.76 3.1-2.88 1.42.88 1.97 2.88 3.39 3.76 1.42.88 2.83 1.72 4.8 1.72 1.97 0 2.24.56 2.24 1.16 0 .6-.86 1.72-2.55 1.16-1.7-.56-4.1-1.6-7.8-.16-3.7 1.44-1.96 1.72-4.24.88a32.13 32.13 0 0 1-4.6-2.48Z"/><path fill="#88B04B" d="m412.2 73.9.55-1.44c1.81 1.29 3.82 2.26 5.94 2.88 1.7-2 8.5-2 12.75-.88.04.56-.86 1.72-2.56 1.16-1.69-.56-4.09-1.6-7.79-.16-3.7 1.44-1.96 1.72-4.24.88a27.17 27.17 0 0 1-4.65-2.44Z" opacity=".05"/><path fill="#88B04B" d="m418.42 70.73-.27.88 2 1.72c.16.16.4.16.56 0 .27-.28-.87-1.44-.87-1.44l-.83-1.16c-.15-.16-.39-.16-.59 0 .04 0 .04 0 0 0Z"/><path fill="#FBDB31" d="m413.3 74.57-.23.76.87 1.44s2.55 0 3.42.88c.86.88 5.39 2 8.22 1.16 2.83-.84 2.64-3.44 2.64-3.44s-5 2.16-8.7.84c-.36.28-.78.49-1.22.6-.86-.28-1.73-.6-2.6-1-1.37-.6-2.4-1.24-2.4-1.24Z"/><path fill="#88B04B" d="m413.3 74.57-.23.76.87 1.44s2.55 0 3.42.88c.86.88 5.39 2 8.22 1.16 2.83-.84 2.64-3.44 2.64-3.44s-5 2.16-8.7.84c-.36.28-.78.49-1.22.6-.86-.28-1.73-.6-2.6-1-1.37-.6-2.4-1.24-2.4-1.24Z" opacity=".2"/><path fill="#EDEDED" d="m406.3 83.61 1.42 2.04s2.44 1.6 6.61 1.44c5.15-.28 6.88-1.44 6.88-1.44l1.15-2.92s-6.3 4.36-16.06.88Z"/><path fill="#EDEDED" d="M409.02 89.93c.23.21.5.38.79.48 2.4 1.04 8.26 1 9.52-.48l.86-3.84c-3.86 1.01-7.9 1.01-11.76 0l.59 3.84Z"/><path fill="#EDEDED" d="M409.95 91.02a6.43 6.43 0 0 0 4.6 1.92c2.88 0 4.02-1.92 4.02-1.92v-.44s-4.29 1.52-8.62-.2v.64Z"/><path fill="#88B04B" d="m414.34 87.1.63-.05c2.16 0 4.3-.47 6.25-1.4l1.14-2.92s-2.8 1.96-7.55 2.2c.94.44-.47 2.16-.47 2.16Z" opacity=".05"/><path fill="#88B04B" d="M409.97 91.02a6.43 6.43 0 0 0 4.6 1.92c2.87 0 4.01-1.92 4.01-1.92v-.44s-4.28 1.52-8.61-.2v.64Z" opacity=".3"/><path fill="#88B04B" d="M413.04 86.93c.12.12-2.52 1.56-4.29 1.48l.12.4s3.81-.4 5-2l-.83.12Zm6.6 1.92c.48.28-4.04 2.68-6.29 2.36l1.58-.04s3.54-.16 4.72-1.8v-.52Zm-.15-2.56s-5.27 4.12-10.07 3.92l.63.24s4.29.64 10.15-4.16h-.71Z"/><g fill="#88B04B" opacity=".15"><path d="M414.19 91.13c2.2.04 4.44-.36 5.15-1.2l.87-3.84c-1.85.4-3.74.64-5.63.72.36.6.04 2.32-.4 4.32Z"/><path d="M414.62 86.81c4.01 0 5.4-.6 5.4-.6l-.25.6s-6.6 1.44-11.17-.28v-.44s2 .72 6.02.72Z"/></g></g><g style="mix-blend-mode:screen"><g filter="url(#j)"><path fill="url(#k)" fill-opacity=".6" d="m431.8 44.2 12.5 22a6.5 6.5 0 0 1 0 6.4l-12.5 22.01a6.27 6.27 0 0 1-5.45 3.2h-25a6.27 6.27 0 0 1-5.44-3.2l-12.5-22a6.51 6.51 0 0 1 0-6.4l12.5-22.01a6.28 6.28 0 0 1 5.45-3.2h25a6.27 6.27 0 0 1 5.44 3.2Z"/><path fill="#1F2348" fill-opacity=".2" d="m431.8 44.2 12.5 22a6.5 6.5 0 0 1 0 6.4l-12.5 22.01a6.27 6.27 0 0 1-5.45 3.2h-25a6.27 6.27 0 0 1-5.44-3.2l-12.5-22a6.51 6.51 0 0 1 0-6.4l12.5-22.01a6.28 6.28 0 0 1 5.45-3.2h25a6.27 6.27 0 0 1 5.44 3.2Z" style="mix-blend-mode:color-burn"/></g><path stroke="url(#l)" stroke-opacity=".3" stroke-width="2.41" d="m430.75 44.8 12.5 22c.92 1.61.92 3.6 0 5.21l-12.5 22.01a5.07 5.07 0 0 1-4.4 2.6h-25c-1.8 0-3.48-.99-4.4-2.6l-12.5-22a5.3 5.3 0 0 1 0-5.22l12.5-22a5.07 5.07 0 0 1 4.4-2.6h25c1.81 0 3.5.99 4.4 2.6Z"/></g><g filter="url(#m)" opacity=".7" style="mix-blend-mode:overlay"><circle cx="241.5" cy="69.5" r="45.5" fill="url(#n)"/></g><mask id="o" width="63" height="58" x="211" y="41" maskUnits="userSpaceOnUse" style="mask-type:luminance"><path fill="#fff" d="m260.23 44.72 12.5 22a6.5 6.5 0 0 1 0 6.4l-12.5 22.01a6.27 6.27 0 0 1-5.45 3.2h-25a6.27 6.27 0 0 1-5.44-3.2l-12.5-22a6.51 6.51 0 0 1 0-6.4l12.5-22.01a6.28 6.28 0 0 1 5.45-3.2h25a6.27 6.27 0 0 1 5.44 3.2Z"/></mask><g mask="url(#o)"><path fill="#88B04B" d="M273.67 38.05h-62.94v64h62.94v-64Z"/><path fill="#D94432" d="M242.2 86.05c8.69 0 15.73-7.16 15.73-16s-7.04-16-15.73-16c-8.7 0-15.74 7.16-15.74 16s7.05 16 15.74 16Z"/><path fill="#010101" d="M257.64 70.05c0 3.11-.9 6.15-2.6 8.74a15.59 15.59 0 0 1-6.93 5.82 15.29 15.29 0 0 1-16.88-3.3c4.07.92 14.16 1.2 19.6-5.72 4.08-4.99 3.27-13.3 1.63-17.3a15.73 15.73 0 0 1 5.18 11.76Z" opacity=".1"/><path fill="#fff" d="M263.04 57.57c-.74-3.44-4-5.04-11.09-3.8-2.12-2.92-6.22-8.12-8.97-9.72l-1.45-.8-8.38-.08a8 8 0 0 0-2.84.6s-.27 1.2-.75 1.64c-1.14.96 2.01 1.36 2.01 1.36l-.79 1.2 1.58.8v1.2c.7 2.76-.12 5.6-.12 5.6s.47.64-6.77.16c-7.24-.48-5.7 8.64-.59 7.84l3.5-.4a66.28 66.28 0 0 0 19.44-3.76c1.5-.4 2.99-.64 4.52-.76a14.82 14.82 0 0 1 3.62 4.08l.12-.08-.08.04c0 .08 7.83-1.52 7.04-5.12Zm-8.45 1.2c.66.08 1.25.36 1.77.8a5.9 5.9 0 0 0-1.77-.8Z"/><path fill="#795548" d="M252.35 58.65a13.19 13.19 0 0 1 3.62 4.2s2.48-1.12.63-3.2c0 0-.63-1.2-4.25-1Z" opacity=".5"/><path fill="#795548" d="M225.6 63.41s12.98-.36 22.35-4c0 0 6.57-1.84 8.54.16 1.96 2-.36 3.2-.36 3.2s7.87-1.6 7.08-5.2c-.78-3.6-4.33-5.2-12.2-3.6-7.86 1.6-7.31 6.92-25.4 9.44Z" opacity=".25"/><path fill="#795548" d="M238.63 43.25c4.32 4.64 8.65 10.24 7.47 12.64 1.97-1 3.19-1.68 5.86-2.12a73.23 73.23 0 0 0-3.62-4.84s-4.96-5.28-6.92-5.68h-2.8Z" opacity=".1"/><path fill="#795548" d="M232.12 55.65c3.54.8 11.48-.8 17.9-4.6l-3.39-3.96c-.2.8-12.07 3.08-14.28 3.36.36 1.4.08 3.12-.23 5.2Z"/><path fill="#FFE000" d="m238.22 48.45 5.16-1.52c.78-.24 1.57.24 1.8 1l1.3 4.56c.24.8-.23 1.6-.98 1.84l-5.15 1.52a1.46 1.46 0 0 1-1.81-1l-1.3-4.56c-.24-.8.24-1.6.98-1.84Z"/><path fill="#795548" d="m239.8 49.45 2.79-.8c.59-.16 1.18.16 1.38.76l.74 2.64c.16.6-.15 1.2-.74 1.4l-2.8.8c-.59.16-1.18-.16-1.37-.76l-.75-2.68c-.16-.6.16-1.2.75-1.36Z"/><path fill="#000" d="M229.1 64.93s-3.3.24-3.9 3.08c0 0-3.34.04-4.75 2.56l-3.43 1.44.08 1.2 6.85 7.52.55 1.96s1.65 1.96 3.66 2.24l2.63-2.68s-.15-2-.94-2.32c-.79-.32-2.87-1.4-3.27-1.36-.39.04-2.36-5.04-2.36-5.04s4.72 2.68 6.53-2.48c0-.04 3.47-5.92-1.65-6.12Zm27.7-.08.2.08a3.8 3.8 0 0 1 2.63 2.72s3.34-.04 4.8 2.4l3.5 1.36-.04 1.2-6.65 7.72-.47 2s-.43 1.2-2.44 1.48l-3.85-1.76s.08-2 .9-2.36c.83-.36 2.83-1.48 3.23-1.44.4.04 2.2-5.12 2.2-5.12s-1.73 1.04-3.54.68c.67-4.56-.12-6.16-.47-8.96Z"/><path fill="#795548" d="M225.56 76.45c.32.8.6 1.28.9 1.84-1.88.4-2.43 1.2-2.75 2.36l-1.57-1.72c.51-1.76 1.57-2.32 3.42-2.48Zm37.54 2c-.63.6-.99 1.04-1.42 1.52-.99-1.68-1.89-1.88-3.1-1.76l1.05-2.16c1.77-.12 2.64.68 3.47 2.4Z"/><path fill="#010101" d="M229.1 64.93c2.48 1.2 2.01 5.8-.82 5.2-.16 1.16-.6 2.84-3.86 2.4-1.22.32-2.24.48-2.24.48l3.58 5.92c2.32.64 4.13 1.72 5.03 3.32 0 0-.15-2-.94-2.32-.79-.32-2.95-1.4-3.34-1.4-.4-.16-2.32-5.04-2.32-5.04s4.72 2.72 6.57-2.44c-.04-.08 3.46-5.88-1.66-6.12Z" opacity=".1"/><path fill="#010101" d="M256.92 65.81s1.9 1.12 2.28 2.72c0 0 2.76.4 3.55 2.4l1.18.4-4.33 7.6-3.15 2c-.5.41-.9.93-1.18 1.52l-.79-.4s.04-2.32 1.26-2.48c1.03-.52 2.56-1.36 3-1.36.86-1.6 1.45-3.36 2.08-5.08a5.31 5.31 0 0 1-3.54.68c.47-2.84.31-5.24-.36-8Z" opacity=".15"/><path fill="#42210B" d="M253.55 68.4c.8 0 1.45-.76 1.45-1.71s-.65-1.72-1.45-1.72c-.8 0-1.46.77-1.46 1.72s.66 1.72 1.46 1.72Z"/><path stroke="#42210B" stroke-linecap="round" stroke-linejoin="round" stroke-width="6.26" d="M240.67 72.97s1.1 5.36 7.24 5.08c6.3-.32 6.5-5.44 6.5-5.44"/><path stroke="#42210B" stroke-linecap="round" stroke-linejoin="round" stroke-width="7.82" d="M240.48 65.33a3.62 3.62 0 0 1 3.42 2.48c-1.26-.84-1.65-1.12-3.54-.24"/><path fill="#795548" d="M246.34 87.05s1.96 0 1.57-.8c-.16-.36-1.54-1.04-1.54-1.04l-.94.12c.94.8 1.18 1.36.9 1.72Z" opacity=".1"/><path fill="#795548" d="M245.75 87.17s-.43 1.44.79 1.68c2.36.4 2.75 2.4 2.36 3.2-.79 2-6.3 3.2-8.66-.8-2.36-4-2.36-4.4-6.3-4.8-3.93-.4-4.71 2-4.71 2 0 .8.39.4.39.4a3.82 3.82 0 0 1 3.93-2c3.54.4 4.33 1.2 4.72 2 .4.8 1.97 4.4 4.73 5.2 2.75.8 5.5 0 6.3-2 .78-2-1.3-3.4-2.37-3.6-.31-.08-.7 0-.79-1.12v-.08c0-.8-.39-.08-.39-.08Z" opacity=".3"/><path fill="#795548" d="M243.96 87.45c.4.8 2.36-.4 2.36-.4s1.97 0 1.58-.8c-.16-.36-1.54-1.04-1.54-1.04l-1.88.24s-.71 1.56-.52 2Z"/><path fill="#fff" d="M246.13 87.17s-.44 1.44.78 1.68c2.36.4 2.76 2.4 2.36 3.2-.78 2-6.3 3.2-8.65-.8-2.36-4-2.36-4.4-6.3-4.8-3.93-.4-4.72 2-4.72 2 0 .8.4.4.4.4a3.82 3.82 0 0 1 3.93-2c3.54.4 4.33 1.2 4.72 2 .4.8 1.97 4.4 4.72 5.2 2.75.8 5.5 0 6.3-2 .78-2-1.3-3.4-2.36-3.6-.32-.08-.71 0-.8-1.12v-.08c0-.8-.38-.08-.38-.08Z"/><path fill="#795548" d="M243.97 87.45c.4.8 1.57-.4 2.36-.4.79 0 1.97 0 1.57-.8-.59.2-2.95 1-3.93 1.2Z" opacity=".1"/></g><g style="mix-blend-mode:screen"><g filter="url(#p)"><path fill="url(#q)" fill-opacity=".6" d="m260.23 44.2 12.5 22a6.5 6.5 0 0 1 0 6.4l-12.5 22.01a6.27 6.27 0 0 1-5.45 3.2h-25a6.27 6.27 0 0 1-5.44-3.2l-12.5-22a6.51 6.51 0 0 1 0-6.4l12.5-22.01a6.28 6.28 0 0 1 5.45-3.2h25a6.27 6.27 0 0 1 5.44 3.2Z"/><path fill="#1F2348" fill-opacity=".2" d="m260.23 44.2 12.5 22a6.5 6.5 0 0 1 0 6.4l-12.5 22.01a6.27 6.27 0 0 1-5.45 3.2h-25a6.27 6.27 0 0 1-5.44-3.2l-12.5-22a6.51 6.51 0 0 1 0-6.4l12.5-22.01a6.28 6.28 0 0 1 5.45-3.2h25a6.27 6.27 0 0 1 5.44 3.2Z" style="mix-blend-mode:color-burn"/></g><path stroke="url(#r)" stroke-opacity=".3" stroke-width="2.41" d="m259.18 44.8 12.5 22c.92 1.61.92 3.6 0 5.21l-12.5 22.01a5.07 5.07 0 0 1-4.4 2.6h-25c-1.8 0-3.49-.99-4.4-2.6l-12.5-22a5.3 5.3 0 0 1 0-5.22l12.5-22a5.07 5.07 0 0 1 4.4-2.6h25c1.81 0 3.5.99 4.4 2.6Z"/></g><g filter="url(#s)" opacity=".7" style="mix-blend-mode:overlay"><circle cx="69.5" cy="69.5" r="45.5" fill="url(#t)"/></g><mask id="u" width="63" height="57" x="39" y="41" maskUnits="userSpaceOnUse" style="mask-type:luminance"><path fill="#fff" d="m88.23 44.2 12.5 22a6.5 6.5 0 0 1 0 6.4l-12.5 22.01a6.27 6.27 0 0 1-5.45 3.2h-25a6.27 6.27 0 0 1-5.44-3.2l-12.5-22a6.51 6.51 0 0 1 0-6.4l12.5-22.01a6.28 6.28 0 0 1 5.45-3.2h25a6.27 6.27 0 0 1 5.44 3.2Z"/></mask><g mask="url(#u)"><path fill="#1F2348" d="M101.69 37.54H38.74v64h62.95v-64Z"/><path fill="#E9B213" d="M70.21 85.54c8.7 0 15.74-7.17 15.74-16 0-8.84-7.05-16-15.74-16-8.69 0-15.73 7.16-15.73 16 0 8.83 7.04 16 15.73 16Z"/><path fill="#010101" d="M85.64 69.53c0 3.11-.9 6.16-2.6 8.75a15.59 15.59 0 0 1-6.93 5.81 15.29 15.29 0 0 1-16.88-3.3c4.07.93 14.16 1.2 19.6-5.72 4.08-4.98 3.27-13.29 1.63-17.3a15.73 15.73 0 0 1 5.18 11.76Z" opacity=".1"/><path fill="#24425B" d="M87.5 55.06c-1.97.48-2.84 1.92-5.4 2a1.8 1.8 0 0 1-1.14-.68l-.4-.68s-.66-5.88-1.13-6.84c-1.22-2.56-1.58-4.12-12.67-4.12-.98-.08-2 0-2.99.2-3.46.4-6.5 1.76-5.35 5.44.3 2.2.8 4.38 1.53 6.48-.23.4-.59.76-.98.96l-.67.24c-1.18.24-2.95-.08-5.07-.64-4.37-1.12-4.21 2.56-3.3 3.8.9 1.24 2.86 1.8 6.09.84 4.4-1.36 10.82-3 16.13-3.32 5.9-.24 9.91.4 12.67 1.36 2.56.88 6.41-.72 6.33-2.28-.08-1.56-1.69-3.24-3.66-2.76Z"/><path fill="#795548" d="M61.6 60.46a46.77 46.77 0 0 1 10.5-1.92c6.34-.32 13.26 1.56 13.26 1.56.83.28 1.77.32 2.6.04 0 0-9.48-3.8-16.1-3.28-3.3.28-9.79 2-9.79 2s-7.79 2.56-12.16 2.52c.08.08 1.26 3.04 11.69-.92Z" opacity=".15"/><path fill="#795548" d="M58.95 53.1S72.05 47.8 80 51.5l.4 2.96s-4.53-3.2-20.74 1.36l-.7-2.72Z"/><path fill="#795548" d="M71.59 45.18s-15.54-2.44-13.18 5.2c.4 2.68 1.1 5.28 2.08 7.76 0 0 5-.84 7.16-1.68l-1.89-6.48c0 .04-1.45-4.44 5.83-4.8Z" opacity=".15"/><path fill="#42210B" d="M60.27 67.3s-4.56-.17-5.23-1.09c-.67-.92-2.28 2.56-2.28 2.56s-1.85 1.88-3.35 1.76a23.78 23.78 0 0 1-4.44-2.32l3.85 4.28 3.66.24.99-.96-.67 3.4.67 3.64.23-3.6 2.17-5.08 1.85.12.82 1.28.9.08c.09.04 2.01-1.4.83-4.32Zm25.34.71s2.67 1.88 4.13 1.76c.94-.08 4.48-2.32 4.48-2.32l-3.85 4.28-3.66.24-.98-.96.67 3.4-.67 3.64-.24-3.6-.4-.96c.45-1.79.62-3.63.52-5.48Z"/><path fill="#010101" d="m94.29 67.46-3.86 4.28-3.66.24-.98-.96.67 3.4-.67 3.64-.24-3.6-.43-.96.55-3.36 2.48.76c2.2.2 4.17-1.56 6.14-3.44Zm-49.42.8 3.86 4.28 3.66.24.98-.96-.67 3.4.67 3.64.24-3.6 2.16-5.08 1.85.12.83 1.28.9.08a3.35 3.35 0 0 0 1.14-2.32c0-.2-5.15-.6-5.15-.6l-4.33 3c-2.2.16-4.17-1.6-6.13-3.48Z" opacity=".7"/><path fill="#795548" d="M49.28 61.97s-1.03 7.09 4.17 6.48c0 0 4.05-3.76-4.17-6.48Zm2.44 20.65s4.91-2.64 2.12-5.76c-.04.04-4.29-.84-2.12 5.76Z"/><path fill="#795548" d="M49.08 75.94s4.37 1.84 4.84-1.72c.04.04-1.73-3.28-4.84 1.72Zm-5.98-7.68s3 4.4 5.55 1.36c0 0 .31-4.16-5.55-1.36Zm46.46-5.48s.79 5.4-3.18 4.96c0 0-3.11-2.88 3.18-4.96Zm.52 12.36s-4.37 1.84-4.84-1.72c0 .04 1.73-3.28 4.84 1.72Zm6.45-7.76s-3.23 4.72-5.98 1.48c0 0-.36-4.48 5.98-1.48Z"/><path fill="#010101" d="M49.28 61.97s-1.02 7.09 4.17 6.48l-4.17-6.48Zm2.44 20.65s4.91-2.64 2.12-5.76l-2.12 5.76Zm-2.64-6.68s4.37 1.84 4.84-1.72l-4.84 1.72Zm-5.98-7.69s3 4.4 5.55 1.36l-5.55-1.36Zm46.46-5.48s.79 5.4-3.18 4.96l3.18-4.96Zm.52 12.37s-4.37 1.84-4.84-1.72l4.84 1.72Zm6.45-7.77s-3.23 4.73-5.98 1.48l5.98-1.48Z" opacity=".2"/><path fill="#fff" d="M67.23 65.74s-1.96.92-1.77 2.16c.2 1.24 1.77.92 1.77-.16s.55-1.8 0-2Zm15.19-1.48s1.26-.36 1.69.28c.43.64-.47 1.16-.9.64-.44-.52-.99-.64-.8-.92Zm-15.94.16s-1.33-.04-1.57.72c-.23.76.75 1 1.02.4.28-.6.8-.88.55-1.12Z"/><g fill="#010101" opacity=".6"><path d="M81.98 77.98H68.45s.66-7.76 7.31-7.76a6 6 0 0 1 4.65 1.92c2.08 2.28 1.57 5.84 1.57 5.84ZM69.73 66.54a1.9 1.9 0 0 0 1.9-1.92 1.9 1.9 0 0 0-1.9-1.92 1.9 1.9 0 0 0-1.89 1.92 1.9 1.9 0 0 0 1.9 1.92ZM80.47 66.38c.95 0 1.73-.8 1.73-1.76 0-.98-.78-1.76-1.73-1.76-.96 0-1.74.78-1.74 1.76 0 .97.78 1.76 1.74 1.76Z"/></g><path fill="#795548" d="M80.17 60.94c1.14-.12 2.28 1.84 3.38 2.76 0 0-1.45-3-1.73-3.44-.28-.44-1.65.68-1.65.68Zm-9.68.28c-1.02-.48-2.75.92-4.1 1.44 0 0 2.37-2.32 2.8-2.64.43-.32 1.3 1.2 1.3 1.2Z"/><path fill="#99671D" d="M57 77.98s-.5.76-.43 2.36c.27 3.88-.83 7.8 1.38 10.56 2.2 2.8 6.57 4.72 9 3.36 2.44-1.36 2.2-6.12-.55-8.08a8.67 8.67 0 0 1-1.73-1.88A15.8 15.8 0 0 1 57 77.98Z"/><path fill="#6D4716" d="M57 77.98s-.5.76-.43 2.36c.27 3.88-.83 7.8 1.38 10.56 4.8 5.16 9 3.36 9 3.36-3.97.44-8.5-14.32-8.5-14.32-.54-.6-1.03-1.26-1.45-1.96Z"/><path fill="#fff" d="M60.3 83.7a2.91 2.91 0 0 1-2.87-2.92c.04-.52.2-1.08.43-1.52.04-.08 2.8 3.24 4.25 3.8 0-.04-.51.48-1.8.64Z"/><path fill="#795548" d="M61.87 82.86c-.31.12-.67.2-1.02.24a2.33 2.33 0 0 1-1.69-.76 2.4 2.4 0 0 1-.63-1.76l.08-.72a9.5 9.5 0 0 0 3.26 3Z" opacity=".2"/><path fill="#6D4716" d="M75.73 87.34s-1.1 2.2-2.17 3c-.47.32-.9.72-1.33 1.08v1.76c0 .16 4-1.2 3.5-5.84Z"/><path fill="#fff" d="M75.97 87.34s-2.12-.56-3.5.8c-1.34 1.36-1.34 3.28-.55 3.28.78 0 .86.28 4.05-4.08Z"/><path fill="#99671D" d="M86.14 81.06s-1.88-3.28-7.51-.28-1.06 9.28-6.18 12.28c0 0 1.46 1.44 3.3-2.36 1.82-3.72 1.82-9.88 10.4-9.64Z"/><path fill="#444" d="M72.48 93.06s2.4 1.08 4.01-4.36c1.62-5.44 3.5-8.72 8.03-8.44.63 0 1.26.24 1.73.68 2.2 2 .51 7.84-1.73 9.68-2.68 2.16-8.58 4.36-10.98 3.56-2.4-.8-1.06-1.12-1.06-1.12Z"/><path fill="#000" d="m72.1 85.22.4 2.96c.74-.56 1.41-.92 1.96-.92l-.23-2.48c-.71.2-1.42.32-2.13.44Z"/><path fill="#795548" d="M85.63 82.58h-4.56c-.12 0-.2-.08-.2-.2v-.04c0-.12.08-.2.2-.2h4.56c.12 0 .2.08.2.2v.04c0 .12-.08.2-.2.2Zm.43 1.28h-5.78c-.12 0-.2-.08-.2-.2v-.04c0-.12.08-.2.2-.2h5.78c.12 0 .2.08.2.2v.04c0 .12-.12.2-.2.2Zm0 1.24h-7.04c-.12 0-.2-.08-.2-.2v-.04c0-.12.08-.2.2-.2h7.04c.12 0 .2.08.2.2v.04c0 .12-.12.2-.2.2Zm-.43 1.28H78.6c-.12 0-.2-.08-.2-.2v-.04c0-.12.08-.2.2-.2h7.04c.12 0 .2.08.2.2v.04c0 .08-.08.2-.2.2Zm-.43 1.24h-7.04c-.12 0-.2-.08-.2-.2v-.04c0-.12.08-.2.2-.2h7.04c.12 0 .2.08.2.2v.04c0 .12-.08.2-.2.2Zm-.79 1.28h-7.04c-.12 0-.2-.08-.2-.2 0-.12.08-.2.2-.2h7.04c.12 0 .2.08.2.2 0 .08-.12.2-.2.2Zm-.82 1.24h-6.22c-.12 0-.2-.08-.2-.2 0-.12.08-.2.2-.2h6.22c.11 0 .2.08.2.2v.04c0 .08-.13.16-.2.16Zm-1.66 1.28h-5.39c-.11 0-.2-.08-.2-.2v-.04c0-.12.09-.2.2-.2h5.4c.11 0 .19.08.19.2v.04c0 .08-.12.2-.2.2Zm-2.08 1.24H76.1c-.12 0-.2-.08-.2-.2v-.04c0-.12.08-.2.2-.2h3.74c.12 0 .2.08.2.2v.04c0 .12-.08.2-.2.2Z"/></g><g style="mix-blend-mode:screen"><g filter="url(#v)"><path fill="url(#w)" fill-opacity=".6" d="m88.23 44.2 12.5 22a6.5 6.5 0 0 1 0 6.4l-12.5 22.01a6.27 6.27 0 0 1-5.45 3.2h-25a6.27 6.27 0 0 1-5.44-3.2l-12.5-22a6.51 6.51 0 0 1 0-6.4l12.5-22.01a6.28 6.28 0 0 1 5.45-3.2h25a6.27 6.27 0 0 1 5.44 3.2Z"/><path fill="#1F2348" fill-opacity=".2" d="m88.23 44.2 12.5 22a6.5 6.5 0 0 1 0 6.4l-12.5 22.01a6.27 6.27 0 0 1-5.45 3.2h-25a6.27 6.27 0 0 1-5.44-3.2l-12.5-22a6.51 6.51 0 0 1 0-6.4l12.5-22.01a6.28 6.28 0 0 1 5.45-3.2h25a6.27 6.27 0 0 1 5.44 3.2Z" style="mix-blend-mode:color-burn"/></g><path stroke="url(#x)" stroke-opacity=".3" stroke-width="2.41" d="m87.18 44.8 12.5 22c.92 1.61.92 3.6 0 5.21l-12.5 22.01a5.07 5.07 0 0 1-4.4 2.6h-25c-1.8 0-3.48-.99-4.4-2.6l-12.5-22a5.3 5.3 0 0 1 0-5.22l12.5-22a5.07 5.07 0 0 1 4.4-2.6h25c1.81 0 3.5.99 4.4 2.6Z"/></g><g filter="url(#y)" opacity=".7" style="mix-blend-mode:overlay"><circle cx="155.5" cy="116.5" r="45.5" fill="url(#z)"/></g><mask id="A" width="63" height="57" x="125" y="88" maskUnits="userSpaceOnUse" style="mask-type:luminance"><path fill="#fff" d="m174.23 91.2 12.5 22a6.5 6.5 0 0 1 0 6.4l-12.5 22.02a6.27 6.27 0 0 1-5.45 3.2h-25a6.27 6.27 0 0 1-5.44-3.2l-12.5-22.01a6.51 6.51 0 0 1 0-6.4l12.5-22.01a6.28 6.28 0 0 1 5.45-3.2h25a6.27 6.27 0 0 1 5.44 3.2Z"/></mask><g mask="url(#A)"><path fill="#5F4B8B" d="M187.67 84.53h-62.94v64h62.94v-64Z"/><path fill="#21BCA5" d="M156.2 132.53c8.69 0 15.73-7.16 15.73-16 0-8.83-7.04-16-15.73-16-8.7 0-15.74 7.17-15.74 16 0 8.84 7.05 16 15.74 16Z"/><path fill="#010101" d="M171.64 116.53c0 3.11-.9 6.15-2.6 8.74a15.58 15.58 0 0 1-6.93 5.82 15.29 15.29 0 0 1-16.88-3.3c4.07.93 14.16 1.2 19.6-5.72 4.08-4.99 3.27-13.29 1.63-17.3a15.72 15.72 0 0 1 5.18 11.76Z" opacity=".1"/><path fill="#FA7268" d="M157.7 101.9c-.3.29-.54.64-.7 1.03-.4.8.39 2.8 2.75 3.2 2.36.4 4.33.8 4.72-1.2.4-2-5.27-3.32-6.77-3.04Z" opacity=".2"/><path fill="#fff" d="m157.3 102.45 7.56-10.32-1.41 11.92c-.55 2.48-7.64 2.48-6.14-1.6Z"/><path fill="#FA7268" d="M157.3 102.45c3.23 2.48 5.2-1.92 5.95-8.16l1.61-2.16-1.41 11.92c-.55 2.48-7.64 2.48-6.14-1.6Z" opacity=".15"/><path fill="#FA7268" d="M163.59 102.53s-3.86 2.8-5.43-1.28l.5-.68s1.86 3.2 5.04 1.2l-.11.76Zm-3.5-3.88s1.37 3.08 3.85 1.08l.12-.8c-1.3.64-2.48.52-3.54-.92l-.44.64Zm1.6-2.24s.8 1.68 2.56.68l.08-.88s-1.34.8-2.2-.4l-.43.6Z"/><path fill="#fff" d="M170.5 123.01c-1.06 3.12 5.04-.12 4.92-.48-.35-.36-1.65-.48-1.65-.48.86 0 1.72-.08 2.56-.24 1.42-.24 2.2-1.32 2.08-1.68-.11-.36-2.08-.48-2.08-.48.94 0 1.89-.16 2.8-.48 1.17-.48 1.88-1.44 1.4-1.68a3.11 3.11 0 0 0-1.17-.24c1.3-.12 2.8-1.2 3.03-1.92.23-.72-.95-.24-.95-.24-2.79.48-6.65-1.56-6.65-1.56s-.23-1.2-.94-1.44c-.7-.24-.94-.24-1.65.96-.16.24-.4.48-.63.68l-.2.16a22.1 22.1 0 0 1-.86 9.12Zm-28.56.44c-3.1 1.56-5.1-.16-5-.56.36-.44 1.66-.56 1.66-.56a14 14 0 0 1-2.6-.28c-1.41-.28-2.24-1.56-2.12-2 .12-.44 2.12-.56 2.12-.56-.98 0-1.92-.2-2.83-.56-1.18-.56-1.89-1.72-1.41-2 .35-.2.78-.28 1.18-.28-1.3-.16-2.84-1.44-3.07-2.28-.24-.84.94-.28.94-.28 2.83.56 6.77-1.84 6.77-1.84s.23-1.44.94-1.72.95-.28 1.66 1.12c.7 1.4 5 3.72 5 3.72l2.16.56s2.35-.4 1.17.8c-1.17 1.2-1.57.8-2.36 1.6-.78.8-.9 3.48-4.2 5.12Z"/><path fill="#FA7268" d="M145.57 117.34s-4.72-1.6-6.3-2.8c-1.57-1.2-7.08.4-7.08.4s2.37 1.6 4.33 1.6l-3.14.8s2.75 2.4 5.11 2l-2.75 1.2c1.37 1 3.1 1.28 4.72.8l-1.18 1.6s2.75 1.2 5.11-2.8c2.36-4 2.76-2.8 1.18-2.8Zm26.05-1.12a8.38 8.38 0 0 0 1.65-.92c1.41-1.08 6.3.36 6.3.36s-2.1 1.44-3.86 1.44l2.79.72s-2.44 2.12-4.56 1.76l2.44 1.08a4.91 4.91 0 0 1-4.21.72l1.06 1.44c-.83.28-1.77.16-2.52-.32.83-2.36.83-3.56.9-6.28Z" opacity=".05"/><path fill="#FA7268" d="M168.55 111.86c.24 1.08-.23 2.11-.98 2.28-.75.16-1.57-.6-1.81-1.69-.24-1.08.24-2.12.98-2.28.28-.03 3.11.13 3.11.13s-1.42 1-1.3 1.56Zm-12.08-.56c-.23 1.23.28 2.36 1.1 2.52.83.16 1.74-.68 2.01-1.88.28-1.2-.23-2.36-1.1-2.52-.24-.05-3.97-.05-4.17.03-.35.13 2.68 1.48 2.16 1.84Z"/><path fill="#010101" d="M168.74 117.18c-3.03 4.12-8.34 3.84-13.14 0 0 0 .67 6.16 7.08 6.16 2.09 0 3.5-.64 4.49-1.52 2.04-1.84 1.57-4.64 1.57-4.64Z" opacity=".6"/><path fill="#000" d="M171.08 135.46c-1.97-2.36-3.9-1-4.68-.28-.47-.4-.9-.84-1.26-1.36l-2.24-3.28c-1.49.84-3.12 1.4-4.8 1.64l1.42 4.4s-1.97.28-1.97 1.36.86 2.48 3.38 1.36c2.52-1.12 5.08-.28 7.32.28s4.8-.28 4.8-1.92c0-1.28-.51-2.24-1.97-2.2Zm-16.64-.56-.31-2.88s-3.94-.56-6.46-2.28c0 0-1.33 5.16-2.71 5.96a1.55 1.55 0 0 0-2.13.52 1.58 1.58 0 0 0 .52 2.18c.24.14.5.22.78.22.24 0 .52-.08.71-.2a2.1 2.1 0 0 0 1.75 1.04 2.06 2.06 0 0 0 1.8-.96 2.1 2.1 0 0 0 2.8 1.04c.42-.2.77-.56.97-1a2.39 2.39 0 0 0 1.46 1.11 2.34 2.34 0 0 0 1.8-.27 2.37 2.37 0 0 0 1.1-1.49 2.43 2.43 0 0 0-.27-1.83 2.23 2.23 0 0 0-1.8-1.16Z"/><path fill="#fff" d="M172.72 137.3c-1.03-1.05-3.11-1.2-3.11-1.2.48-.24 1-.36 1.53-.37.87-.04 1.58.68 1.58 1.56Zm-14.13-5.13s1.54 3.56 1.15 4.76c0 0 .74-3.2.39-4.08-.35-.88-1.53-.68-1.53-.68Zm-10.7-2.08s-1.3 4.48-2.47 5.2c0 0 2.83-2.24 3.18-3.36.36-1.12-.7-1.84-.7-1.84Zm7.91 6.8c-1.02-1.04-1.8-1.32-3.1 0 0-.88.7-1.56 1.53-1.56.82 0 1.57.68 1.57 1.56Zm-4.48.84c-.75-.76-1.3-.96-2.25 0a1.12 1.12 0 1 1 2.25-.12v.12Zm-3.66-.56c-.55-.56-.99-.72-1.7 0a.84.84 0 0 1 .58-.76.8.8 0 0 1 .33-.04c.43 0 .75.36.79.8Zm-2.44 0c-.51-.96-1.02-1.28-2.16-.64.15-.6.74-1 1.33-.84.6.16.99.76.83 1.36v.12Z" opacity=".2"/><path fill="#010101" d="M157.54 137.94c0 1.08.86 2.48 3.38 1.36 2.52-1.13 5.08-.28 7.32.28s4.8-.28 4.8-1.93c-3.46 2.09-3.86.48-9.76.73-3.15 0-4.72 1.76-5.74-.44Zm-4.68 1.04c2.04-.16 3.06-.72 2.87-3.36a2.26 2.26 0 0 1-1.24 3.72c-.52.1-1.06 0-1.52-.28-.07 0-.07-.04-.11-.08Zm-3.5.16c1.65-.12 2.43-.6 2.28-2.68.74.63.82 1.75.2 2.48-.64.72-1.74.84-2.44.2 0 .04-.05 0-.05 0Zm-3.59-.24c1.46-.08 2.17-.52 2.05-2.37a1.56 1.56 0 0 1-.22 2.6 1.51 1.51 0 0 1-1.7-.15l-.13-.08Zm-2.43-.77c1.18-.07 1.77-.4 1.65-1.91.55.44.63 1.24.2 1.8-.44.56-1.22.64-1.78.2l-.07-.09Zm8.53-6.6.32 2.93c-2-.17-4.01.23-5.78 1.11a15.5 15.5 0 0 1 5.86-.31s1.1-.72 2.2-.36l-.35-2.97a8.52 8.52 0 0 1-2.25-.4Zm14.52 3.65c.79-.72 2.72-2.09 4.68.28 0 .03-3.46 1.07-4.68-.28Z" opacity=".1"/></g><g style="mix-blend-mode:screen"><g filter="url(#B)"><path fill="url(#C)" fill-opacity=".6" d="m174.23 91.2 12.5 22a6.5 6.5 0 0 1 0 6.4l-12.5 22.02a6.27 6.27 0 0 1-5.45 3.2h-25a6.27 6.27 0 0 1-5.44-3.2l-12.5-22.01a6.51 6.51 0 0 1 0-6.4l12.5-22.01a6.28 6.28 0 0 1 5.45-3.2h25a6.27 6.27 0 0 1 5.44 3.2Z"/><path fill="#1F2348" fill-opacity=".2" d="m174.23 91.2 12.5 22a6.5 6.5 0 0 1 0 6.4l-12.5 22.02a6.27 6.27 0 0 1-5.45 3.2h-25a6.27 6.27 0 0 1-5.44-3.2l-12.5-22.01a6.51 6.51 0 0 1 0-6.4l12.5-22.01a6.28 6.28 0 0 1 5.45-3.2h25a6.27 6.27 0 0 1 5.44 3.2Z" style="mix-blend-mode:color-burn"/></g><path stroke="url(#D)" stroke-opacity=".3" stroke-width="2.41" d="m173.18 91.8 12.5 22c.92 1.61.92 3.6 0 5.21l-12.5 22.01a5.07 5.07 0 0 1-4.4 2.6h-25c-1.8 0-3.49-.99-4.4-2.6l-12.5-22a5.3 5.3 0 0 1 0-5.22l12.5-22a5.07 5.07 0 0 1 4.4-2.6h25c1.81 0 3.5.99 4.4 2.6Z"/></g><defs><linearGradient id="e" x1="301.95" x2="347.79" y1="90.36" y2="148.02" gradientUnits="userSpaceOnUse"><stop stop-color="#CCE8FE"/><stop offset=".24" stop-color="#CDA0FF"/><stop offset=".4" stop-color="#8489F5"/><stop offset=".71" stop-color="#CDF1FF"/><stop offset="1" stop-color="#B591E9"/></linearGradient><linearGradient id="f" x1="301.95" x2="347.79" y1="90.36" y2="148.02" gradientUnits="userSpaceOnUse"><stop stop-color="#CCE8FE"/><stop offset=".24" stop-color="#CDA0FF"/><stop offset=".4" stop-color="#8489F5"/><stop offset=".71" stop-color="#CDF1FF"/><stop offset="1" stop-color="#B591E9"/></linearGradient><linearGradient id="k" x1="387.52" x2="433.36" y1="43.13" y2="100.79" gradientUnits="userSpaceOnUse"><stop stop-color="#CCE8FE"/><stop offset=".24" stop-color="#CDA0FF"/><stop offset=".4" stop-color="#8489F5"/><stop offset=".71" stop-color="#CDF1FF"/><stop offset="1" stop-color="#B591E9"/></linearGradient><linearGradient id="l" x1="387.52" x2="433.36" y1="43.13" y2="100.79" gradientUnits="userSpaceOnUse"><stop stop-color="#CCE8FE"/><stop offset=".24" stop-color="#CDA0FF"/><stop offset=".4" stop-color="#8489F5"/><stop offset=".71" stop-color="#CDF1FF"/><stop offset="1" stop-color="#B591E9"/></linearGradient><linearGradient id="q" x1="215.95" x2="261.79" y1="43.13" y2="100.79" gradientUnits="userSpaceOnUse"><stop stop-color="#CCE8FE"/><stop offset=".24" stop-color="#CDA0FF"/><stop offset=".4" stop-color="#8489F5"/><stop offset=".71" stop-color="#CDF1FF"/><stop offset="1" stop-color="#B591E9"/></linearGradient><linearGradient id="r" x1="215.95" x2="261.79" y1="43.13" y2="100.79" gradientUnits="userSpaceOnUse"><stop stop-color="#CCE8FE"/><stop offset=".24" stop-color="#CDA0FF"/><stop offset=".4" stop-color="#8489F5"/><stop offset=".71" stop-color="#CDF1FF"/><stop offset="1" stop-color="#B591E9"/></linearGradient><linearGradient id="w" x1="43.95" x2="89.79" y1="43.13" y2="100.79" gradientUnits="userSpaceOnUse"><stop stop-color="#CCE8FE"/><stop offset=".24" stop-color="#CDA0FF"/><stop offset=".4" stop-color="#8489F5"/><stop offset=".71" stop-color="#CDF1FF"/><stop offset="1" stop-color="#B591E9"/></linearGradient><linearGradient id="x" x1="43.95" x2="89.79" y1="43.13" y2="100.79" gradientUnits="userSpaceOnUse"><stop stop-color="#CCE8FE"/><stop offset=".24" stop-color="#CDA0FF"/><stop offset=".4" stop-color="#8489F5"/><stop offset=".71" stop-color="#CDF1FF"/><stop offset="1" stop-color="#B591E9"/></linearGradient><linearGradient id="C" x1="129.95" x2="175.79" y1="90.13" y2="147.79" gradientUnits="userSpaceOnUse"><stop stop-color="#CCE8FE"/><stop offset=".24" stop-color="#CDA0FF"/><stop offset=".4" stop-color="#8489F5"/><stop offset=".71" stop-color="#CDF1FF"/><stop offset="1" stop-color="#B591E9"/></linearGradient><linearGradient id="D" x1="129.95" x2="175.79" y1="90.13" y2="147.79" gradientUnits="userSpaceOnUse"><stop stop-color="#CCE8FE"/><stop offset=".24" stop-color="#CDA0FF"/><stop offset=".4" stop-color="#8489F5"/><stop offset=".71" stop-color="#CDF1FF"/><stop offset="1" stop-color="#B591E9"/></linearGradient><filter id="a" width="139" height="139" x="258" y="47" color-interpolation-filters="sRGB" filterUnits="userSpaceOnUse"><feFlood flood-opacity="0" result="BackgroundImageFix"/><feBlend in="SourceGraphic" in2="BackgroundImageFix" result="shape"/><feGaussianBlur result="effect1_foregroundBlur_1323_5283" stdDeviation="12"/></filter><filter id="d" width="62.57" height="59.22" x="297" y="88.23" color-interpolation-filters="sRGB" filterUnits="userSpaceOnUse"><feFlood flood-opacity="0" result="BackgroundImageFix"/><feBlend in="SourceGraphic" in2="BackgroundImageFix" result="shape"/><feColorMatrix in="SourceAlpha" result="hardAlpha" values="0 0 0 0 0 0 0 0 0 0 0 0 0 0 0 0 0 0 127 0"/><feOffset dy="2.41"/><feGaussianBlur stdDeviation="4.81"/><feComposite in2="hardAlpha" k2="-1" k3="1" operator="arithmetic"/><feColorMatrix values="0 0 0 0 0 0 0 0 0 0 0 0 0 0 0 0 0 0 0.05 0"/><feBlend in2="shape" result="effect1_innerShadow_1323_5283"/></filter><filter id="g" width="139" height="139" x="344" y="0" color-interpolation-filters="sRGB" filterUnits="userSpaceOnUse"><feFlood flood-opacity="0" result="BackgroundImageFix"/><feBlend in="SourceGraphic" in2="BackgroundImageFix" result="shape"/><feGaussianBlur result="effect1_foregroundBlur_1323_5283" stdDeviation="12"/></filter><filter id="j" width="62.57" height="59.22" x="382.57" y="41" color-interpolation-filters="sRGB" filterUnits="userSpaceOnUse"><feFlood flood-opacity="0" result="BackgroundImageFix"/><feBlend in="SourceGraphic" in2="BackgroundImageFix" result="shape"/><feColorMatrix in="SourceAlpha" result="hardAlpha" values="0 0 0 0 0 0 0 0 0 0 0 0 0 0 0 0 0 0 127 0"/><feOffset dy="2.41"/><feGaussianBlur stdDeviation="4.81"/><feComposite in2="hardAlpha" k2="-1" k3="1" operator="arithmetic"/><feColorMatrix values="0 0 0 0 0 0 0 0 0 0 0 0 0 0 0 0 0 0 0.05 0"/><feBlend in2="shape" result="effect1_innerShadow_1323_5283"/></filter><filter id="m" width="139" height="139" x="172" y="0" color-interpolation-filters="sRGB" filterUnits="userSpaceOnUse"><feFlood flood-opacity="0" result="BackgroundImageFix"/><feBlend in="SourceGraphic" in2="BackgroundImageFix" result="shape"/><feGaussianBlur result="effect1_foregroundBlur_1323_5283" stdDeviation="12"/></filter><filter id="p" width="62.57" height="59.22" x="211" y="41" color-interpolation-filters="sRGB" filterUnits="userSpaceOnUse"><feFlood flood-opacity="0" result="BackgroundImageFix"/><feBlend in="SourceGraphic" in2="BackgroundImageFix" result="shape"/><feColorMatrix in="SourceAlpha" result="hardAlpha" values="0 0 0 0 0 0 0 0 0 0 0 0 0 0 0 0 0 0 127 0"/><feOffset dy="2.41"/><feGaussianBlur stdDeviation="4.81"/><feComposite in2="hardAlpha" k2="-1" k3="1" operator="arithmetic"/><feColorMatrix values="0 0 0 0 0 0 0 0 0 0 0 0 0 0 0 0 0 0 0.05 0"/><feBlend in2="shape" result="effect1_innerShadow_1323_5283"/></filter><filter id="s" width="139" height="139" x="0" y="0" color-interpolation-filters="sRGB" filterUnits="userSpaceOnUse"><feFlood flood-opacity="0" result="BackgroundImageFix"/><feBlend in="SourceGraphic" in2="BackgroundImageFix" result="shape"/><feGaussianBlur result="effect1_foregroundBlur_1323_5283" stdDeviation="12"/></filter><filter id="v" width="62.57" height="59.22" x="39" y="41" color-interpolation-filters="sRGB" filterUnits="userSpaceOnUse"><feFlood flood-opacity="0" result="BackgroundImageFix"/><feBlend in="SourceGraphic" in2="BackgroundImageFix" result="shape"/><feColorMatrix in="SourceAlpha" result="hardAlpha" values="0 0 0 0 0 0 0 0 0 0 0 0 0 0 0 0 0 0 127 0"/><feOffset dy="2.41"/><feGaussianBlur stdDeviation="4.81"/><feComposite in2="hardAlpha" k2="-1" k3="1" operator="arithmetic"/><feColorMatrix values="0 0 0 0 0 0 0 0 0 0 0 0 0 0 0 0 0 0 0.05 0"/><feBlend in2="shape" result="effect1_innerShadow_1323_5283"/></filter><filter id="y" width="139" height="139" x="86" y="47" color-interpolation-filters="sRGB" filterUnits="userSpaceOnUse"><feFlood flood-opacity="0" result="BackgroundImageFix"/><feBlend in="SourceGraphic" in2="BackgroundImageFix" result="shape"/><feGaussianBlur result="effect1_foregroundBlur_1323_5283" stdDeviation="12"/></filter><filter id="B" width="62.57" height="59.22" x="125" y="88" color-interpolation-filters="sRGB" filterUnits="userSpaceOnUse"><feFlood flood-opacity="0" result="BackgroundImageFix"/><feBlend in="SourceGraphic" in2="BackgroundImageFix" result="shape"/><feColorMatrix in="SourceAlpha" result="hardAlpha" values="0 0 0 0 0 0 0 0 0 0 0 0 0 0 0 0 0 0 127 0"/><feOffset dy="2.41"/><feGaussianBlur stdDeviation="4.81"/><feComposite in2="hardAlpha" k2="-1" k3="1" operator="arithmetic"/><feColorMatrix values="0 0 0 0 0 0 0 0 0 0 0 0 0 0 0 0 0 0 0.05 0"/><feBlend in2="shape" result="effect1_innerShadow_1323_5283"/></filter><radialGradient id="b" cx="0" cy="0" r="1" gradientTransform="rotate(90 105.5 222) scale(45.5)" gradientUnits="userSpaceOnUse"><stop stop-color="#fff" stop-opacity="0"/><stop offset=".5" stop-color="#fff"/><stop offset="1" stop-color="#fff" stop-opacity=".2"/></radialGradient><radialGradient id="h" cx="0" cy="0" r="1" gradientTransform="rotate(90 172 241.5) scale(45.5)" gradientUnits="userSpaceOnUse"><stop stop-color="#fff" stop-opacity="0"/><stop offset=".5" stop-color="#fff"/><stop offset="1" stop-color="#fff" stop-opacity=".2"/></radialGradient><radialGradient id="n" cx="0" cy="0" r="1" gradientTransform="rotate(90 86 155.5) scale(45.5)" gradientUnits="userSpaceOnUse"><stop stop-color="#fff" stop-opacity="0"/><stop offset=".5" stop-color="#fff"/><stop offset="1" stop-color="#fff" stop-opacity=".2"/></radialGradient><radialGradient id="t" cx="0" cy="0" r="1" gradientTransform="rotate(90 0 69.5) scale(45.5)" gradientUnits="userSpaceOnUse"><stop stop-color="#fff" stop-opacity="0"/><stop offset=".5" stop-color="#fff"/><stop offset="1" stop-color="#fff" stop-opacity=".2"/></radialGradient><radialGradient id="z" cx="0" cy="0" r="1" gradientTransform="rotate(90 19.5 136) scale(45.5)" gradientUnits="userSpaceOnUse"><stop stop-color="#fff" stop-opacity="0"/><stop offset=".5" stop-color="#fff"/><stop offset="1" stop-color="#fff" stop-opacity=".2"/></radialGradient></defs></svg>