<svg xmlns="http://www.w3.org/2000/svg" fill="none" viewBox="0 0 175 207"><path fill="currentColor" fill-rule="evenodd" stroke="#F4F4F6" stroke-miterlimit="10" d="m130 25-1-1 1-1-1-1-1-2v-1l-1-1v1h-5l1 1-1-1v-1h-3v1-1h1-2l-1 1h-1v1h-1l-1-1h-3l-1-1h-5v7l1 21h30l-1-1h-1v-1h-2v-3h1v-1h-1v-1h-1l-1-2v-1l-2-3v-2l-1-1v-1l-2-2-1-1v-3 1h1v2l1 1 1 1 1 1 1 1v-4l1-1Z" clip-rule="evenodd"/><path fill="currentColor" stroke="#F4F4F6" stroke-miterlimit="10" d="M141 57h-2v-1l-1-1v-1l-1-1v-5 1l-1-1v-2h-30v6h-2v12h-2v2l-1 1h-1v4l-1 1v1l1-1v3h1l1 1h-1v1h1l-1 1h1l1 1v2h1l1-1h2v-1h2l1 1v1h4l2 1v-1l1-1h1v-1h1l1 1h2l1-1 1-1 1-1v-2l-1-1h3v4h1l1 1v2h1l1-1v-2l1-1v-2l1-1h1v-2h1v-1l1-1v-5l1-1v-4h1v-1h1l1-1 1-1Z"/><path fill="currentColor" stroke="#F4F4F6" stroke-miterlimit="10" d="m129 79-1-1-1-1v-4h-1v1h-2l1 1v2l-1 1-1 1-1 1h-2l-1-1h-1v2h-2v1h-2v-1h-4v-1l-1-1h-2v1h-2v1h-2v2h2v1l1 1h1l1 1v1h-1l1 1h2v2h1v1h1l1 1h-1l1 1h1v1l1 1h3l1-1 1 1v1h1v1h1v1-1h3v1h1v-1h3v-1h1l1-1v-1h1v-1l1-1v-2h-1v-1h-1v-1l-1-1-1-1h-1l-1-1h1v-1h2v-3h-1v-2Z"/><path fill="currentColor" fill-rule="evenodd" stroke="#F4F4F6" stroke-miterlimit="10" d="M133 92v-2h-1v-1h-1v-1l-1-1-1-1h-1l-1-1h1v-1h2v-3l1-1v-3h1v-2h1l1-1v-2h1v-1l1-1v-2h2v-2h1v1h2v-1l1 1h2v1h1l1 1h1v1h1l1 1 1 1 1 1-1 1v2l-1 1h3v1l1 2h1l-1 1 1 1h1v1l8 2h3l-8 8h-3v1h-2v1h-1l-1 1h-1l-1 1-1-1v-1l-2 1h-1l-1 1v1h-1v-1h-3l-1-1-1-1h-3v-2l-1-1v1l-1-1Z" clip-rule="evenodd"/><path fill="currentColor" fill-rule="evenodd" stroke="#F4F4F6" stroke-miterlimit="10" d="m151 73-1-1-1-1-1-1h-1v-1h-1l-1-1h-1v-1h-2l-1-1v1h-2v-1h-1v2h-2v-3l1-1v-4h1v-1h1l1-1 1-1v1l1 3 1 2v1l1 1v1-2l1 1v1h1l1 1h1l1 1v1h1v1l1 1v1h2l-1 1h-1Z" clip-rule="evenodd"/><path fill="currentColor" fill-rule="evenodd" stroke="#F4F4F6" stroke-miterlimit="10" d="M152 77h-3l1-1v-2l2-1 1-1v3h-2l1 1h1l-1 1Zm-2 19h1l1-1h1v-1h2v-1h3l8-8h-3l-8-2v-1h-1l-1-1 1-1h-1l-1-2v-1h1v-1l2 2 1 1h2v-1h4l2-1h2l1-1v1h1l1-1h2l1-1v-1 1-1l1 1h1-1v4h1-1v3l-1 1-1 1v1l-1 1v1l-2 3-1 2-1 3-1 1-2 2-2 3-2 1h-1l-1 1-2 2-2 2v1h-1v1l-2 2-2-2V99l2-3Z" clip-rule="evenodd"/><path fill="currentColor" fill-rule="evenodd" stroke="#F4F4F6" stroke-miterlimit="10" d="m130 96 1-1 1-1v-1l1-1 1 1v1l1 1h3l1 1 1 1h3v1h1v-1l1-1h1l2-1v1l1 1 1-1-2 3v10l2 2-1 1v1h-1l-1 1h-1v1l-1 1v2l-1 2h-1l-3-3h-1v-1l-9-6h-1v-3l1-1v-1h1v-1h1l1-1v-3h-1v-1l-1-1v-2h-1Zm-6 14h2-2Z" clip-rule="evenodd"/><path fill="currentColor" fill-rule="evenodd" stroke="#F4F4F6" stroke-miterlimit="10" d="M130 107v-1l1-1v-1h1l1-1v-3h-1v-1l-1-1v-2h-2v1h-3v1h-1v-1h-3v5l-1 2-1 1v1l-1 1v4h2v-1 1-1h8l1-3Zm-29-30h1l-1 1h1l1 1v4h2v1l1 1h1v1h1v1h-1l1 1h2v2h1v1h1v1l1 1v1-1h-1v1l-1-1h-3v1h-2v-1h-1l-1 1h-1l-1 1v-1h-1v1h-1l1 1h-2v-1h-1v1l-1-1h-1l-1-1h-1l-1-1v1-1l-1 1-1 1v2h-3l-1 1-1 1-1 2v-2h-1v-1h-1v-1l-1-1v-1h-1v-5l1-1v-1l1-1v-1h1v1h1l1-1v-1 1h2l1-1h2v-1h1v-1h-1l1-1h1l1 1 1-1h1l1-1h-1l1-1v-1h1v-1h1v-1h2Zm3-24v-1h2l-1-27v-8h-3v-1h-2v-1h-1l-1-1h-2v1h-3v2h-1v1l1 1v2l-1 1-1 1-1-1-1-1h-1l-1-1-2-1h-3l-1-2-1-1-1-1h-2l-1-1-2 1-1-1h-1v1l-1 1-1 1v1h-1v3l-1 1h-1v1l1 1v9h-1v1l1 1v1h1v3h2l1 1 1 1v1l5 2 5-2 21 11Z" clip-rule="evenodd"/><path fill="currentColor" fill-rule="evenodd" stroke="#F4F4F6" stroke-miterlimit="10" d="M67 22h1l1-1v-1l-1-1h1v-1h1v-1l1-1 1-1v-1h-1v-2h-1v1l-1-1h-1v-2l1-1 1-1V6h-1V4l1-1V2l-1 1h-1V1h-2l-1 1h-1v8h-1l-1 1v1l1 1v1l1 1 1 1 1 1 1 5Zm3-10Z" clip-rule="evenodd"/><path fill="currentColor" fill-rule="evenodd" stroke="#F4F4F6" stroke-miterlimit="10" d="M74 42h-1v-1l-1-1-1-1h-2v-3h-1v-1l-1-1v-1h1v-9l-1-1v-1l-1-5-1-1-1-1-1-1-1-1h1l-1-1v-1l1-1h1V2h-1l-1 1V2h-1l-1 1V2h-2v1h-2V2h-4v1h-4l-2 1h-1v1l-1 1V5h-1v1h-1l-1 1-1 1h-1 1v6l1 1h1v2h-4l-1 1v1h-1v2l-1 1-3 2-2 1h-3l-2 1-1 1-1 1v3l9 7 17 11v2h2l1 1 1 1-1 1h3l4-1 3-3 12-8Z" clip-rule="evenodd"/><path fill="currentColor" fill-rule="evenodd" stroke="#F4F4F6" stroke-miterlimit="10" d="M23 30v-2l1-1 1-1 2-1h3l2-1 3-2 1-1 1-1v-2l1-1h4v-2h-1l-1-1V8h-2l-1-1h-5V5h-2v3h-1v2l-1 1h-1v1h-1l-1 1-1 1h-1l-1 1v2l-1 1v1l-1 1 1 1v2l-2 2v1l-1 1-2 2h-3v1h10ZM23 31v-1H13l-1 1v1h-1l-1 1-1 1v1l-2 3-1 2-1 1v1l-1 1v1l-1 1v2H2v1h10v-5l1-1h2v-7h8v-4Z" clip-rule="evenodd"/><path fill="currentColor" fill-rule="evenodd" stroke="#F4F4F6" stroke-miterlimit="10" d="M2 48h10v-5l1-1h2v-7h8v-4l9 7h-3l2 24h1l-1 3h-9v-1h-1v1l-1-1v-1l-2 1v1l-1-1v-1h-1v2l-1 1h-1l-1-1h-1v-2h-1v-1l-1 1v-1l-1-1H6l-1 1H4l-1 1v-2l1-1v-6l-1-1h1v-2l-1-1v-1l-1 1v-2Z" clip-rule="evenodd"/><path fill="currentColor" fill-rule="evenodd" stroke="#F4F4F6" stroke-miterlimit="10" d="M14 66h1l1-1v-2h1v2h1v-1l1-1h1v2l1-1 1 1 9-1 1-2-1-1-2-23h3l17 11v2h2l1 1 1 1-1 1h3v8l-1 1v1h-1l-1 1h-3v1h-4v-1h-1l-2 1-1 1-2 1-1 1h-1l-1 1h-1l-1 1v1h-1v2h-1v2h-1v1h1l-1 1v1l-1-1h-4l-1 1v-1l-1-1h-1l1-1v-1h-1v-2h-2l-1 1h-3v-1l-1-1h1v-1h-1v-1h-1v-1h-1l1-2h-1v-1Z" clip-rule="evenodd"/><path fill="currentColor" fill-rule="evenodd" stroke="#F4F4F6" stroke-miterlimit="10" d="m31 78 1-1h-1v-1h1v-2h1v-2h1v-1l1-1h1l1-1h1l1-1 2-1 1-1 2-1h1v1h1-1v2l2 2v1l1 1 1-1h1v3l-1 1h-1v1l-1 1-3-1h-1l-1 1h-5l1 1v2h-3v-1h-2l-1-1h-1ZM3 63l1-1h1l1-1h3l1 1v1l1-1v1h1v2h1l1 1v3l1 1v1l1-1v1h1l-1 1v1h1v1-1h-4l-1-1H6v1H3v-1H2h1v1l1-1H2v-1h2v-1h2l1-1v1h3-1l-1-1H7l-1-1v1l-1 1H3v-1H2h1v-1H2v-1l-1-1 1-1 1-2Z" clip-rule="evenodd"/><path fill="currentColor" fill-rule="evenodd" stroke="#F4F4F6" stroke-miterlimit="10" d="M2 71h2v-1h2l1-1v1h3-1l-1-1H7l-1-1v1l-1 1H3h1v1H3l-1-1v1Zm1 2h3v-1h4v3l-1 1H8v1H7v-1H6v-1H5h2l-1-1v1H5v-1H4v-1H3Z" clip-rule="evenodd"/><path fill="currentColor" fill-rule="evenodd" stroke="#F4F4F6" stroke-miterlimit="10" d="M8 77v-1h1l1-1v-3h2l1 1h4v1h3l1-1h1l1 1v1h1v1l-1 1h1l1 1v1h-1v1l1 1h-1l1 1v1l-1 1h1v1l-1 2v1l-1 1v1l-4 1-1-1-1-1 1-1v-6l-1-1v-2h-2l-1 1-1 1-1 1-1-1-1-1v-1H8v-2Z" clip-rule="evenodd"/><path fill="currentColor" fill-rule="evenodd" stroke="#F4F4F6" stroke-miterlimit="10" d="M13 87Zm-1-5 1-1 1-1 1-1h2v2l1 1v6l-1 1h-1l-2-1v-1h-1v-1l-1-1v-3Z" clip-rule="evenodd"/><path fill="currentColor" fill-rule="evenodd" stroke="#F4F4F6" stroke-miterlimit="10" d="M16 88v-1h1l1-1h-1l1-1v-1h3v2l1 1 1-1v1h1v1l-1 1v1h2v1h1v4l-3-1-2-1-2-2-1-1-1-1v-1h-1Z" clip-rule="evenodd"/><path fill="currentColor" fill-rule="evenodd" stroke="#F4F4F6" stroke-miterlimit="10" d="M26 95v-4h-1v-1h-2v-1l1-1v-1l1-2v-1h-1l1-1v-1l-1-1h1l-1-1v-1h1l1-1h4l1 1v-1h1l1 1h2v1h3v2h1v2l-1 1-1 1v5l1 1v1h-1v-1l-1 1h-6v1h-2v1h-2Z" clip-rule="evenodd"/><path fill="currentColor" fill-rule="evenodd" stroke="#F4F4F6" stroke-miterlimit="10" d="M37 93h1v-1h-1v-6l1-1 1-1v-1l-1-1v-4l-1-1h5l1-1h1v1l1 1 1 1v11h1v1h-1l-1 1-2 1h-1l-2 1h-1l-2-1Z" clip-rule="evenodd"/><path fill="currentColor" fill-rule="evenodd" stroke="#F4F4F6" stroke-miterlimit="10" d="m47 77-3-1v1l1 1 1 1v11h1v1l2-1V80l-1-1-1-1v-1Z" clip-rule="evenodd"/><path fill="currentColor" fill-rule="evenodd" stroke="#F4F4F6" stroke-miterlimit="10" d="M50 73v1l-1 1h-1v1l-1 1v1h1v1l1 1v10h1l2-1v1-6h-1l1-1v-1h1v-2h1v-4l-1-1h1l-1-1-1-1-1-1v1h-1Zm31-30 3-1 20 11v11h-2v2l-1 1h-1v4l-1 1v1l1-1v3h1l1 1h-1v1h-2v1h-1v1h-1v1l-1 1v1h-1l-1 1-1-1h-2v1h1v1h-1v1h-2l-1 1h-2v-1 1l-1 1h-1l-1-1v-2h-1l-1-1-1-1v-2h3l-1-1v-1h-1v-1h1v-3h-1v-2l-2-1-1-1v-4h1l4-5v-9l1-1v-1l-2-2v-1l-1-3v-1Zm-6 28Z" clip-rule="evenodd"/><path fill="currentColor" fill-rule="evenodd" stroke="#F4F4F6" stroke-miterlimit="10" d="m54 75-1-1-1-1-1-1v1h-1v-2h-1l-1 1-1-1v-1l-2-2v-2h4v-1h3l1-1h1v-1l1-1v-8l4-1 3-3 12-8 4 1 1 1 2-1 1 4v1l2 2v1l-1 1v9l-4 5h-1v4l-1-1v1h-1v1h-3l-1-1-1 1h-2l-1 1h-2l-1-1-1-1-1 1h-2v-1h-1l-1-1h-4v1h-1v1l1 1h-1v1h-1l1 1v1Z" clip-rule="evenodd"/><path fill="currentColor" fill-rule="evenodd" stroke="#F4F4F6" stroke-miterlimit="10" d="m79 71-1-1-1-1v1h-1v1h-7v1h-3l-1-1-1-1-1 1h-2v-1h-1l-1-1h-4v1h-1v1l1 1h-1v5l1 1h-1v2h-1v2h-1v8h1l1-1 1 1 2 2v2l1 1 1 1h3v-1h3v-1l1 1v-2h1v-2l1-1 1-1 1-1v1h1l1 1 1-1v-1h1v-1l1-1v-1l1-1v-2l1-1 1-1v-3h1v-1h2v-1h-1v-3h-1v-1ZM65 98l1-1v2h-1v-1Z" clip-rule="evenodd"/><path fill="currentColor" fill-rule="evenodd" stroke="#F4F4F6" stroke-miterlimit="10" d="M66 95v-2h1v-2l1-1 1-1 1-1v1h1l1 1 1-1v-1h1v-1l1-1v-1l1-1v-2l1-1 1-1v-2l1-1v-1h2v-1h-1v-3l-1-1 2 1v2h1v5h1v1h-3v2l1 1 1 1h1v3l-1 1v1l-1 1v5h1v1l1 1v1h1v1h1v2l-1 1h1-8v-1h-5v1h-3v-3l-1-1v-1h1l-1-1-1 1v-1l-1-1Z" clip-rule="evenodd"/><path fill="currentColor" fill-rule="evenodd" stroke="#F4F4F6" stroke-miterlimit="10" d="M72 102v-1h5v3h3v2h-1v3h1v2l-1 2v1h-2l-1-1v-1l-1 1v1h-3l1 1h-1 2v2h-2v1h-1v-1h-1v-1l-1-1-1-1-1-1v-2l-1-1v-1h1v-2h2l-1-1h-1l1-1h4v-3Z" clip-rule="evenodd"/><path fill="currentColor" fill-rule="evenodd" stroke="#F4F4F6" stroke-miterlimit="10" d="M68 105h4v-3h-3l-1 1v2Zm4 13v-1h2v-2h-2 1l-1-1h3v-1l1-1v1l1 1h2v-1l1-2v-2h-1v-3h1v-2h-3v-2h7l1-1 1-2 1-1 1-1h3v3l-2 1 1 1v1h-1v4l-1 1v2h-1v1h-1l-1 1v1l-1 1 1 1-1 1v2h-1v1l-1 1-1 1-1-1v-1l-1 1h-1v1-1h-2v-1 1h-2v1-1h-1v-1h-1v-1Z" clip-rule="evenodd"/><path fill="currentColor" fill-rule="evenodd" stroke="#F4F4F6" stroke-miterlimit="10" d="M77 120h-1v-1 1h-2v3h1v-1l1-1 1-1Zm44-10h9l9 6 1 1 3 3v1l-1 1v2l1 1v1l1-1v2h-1v5h1v2l1 1h1v2l-1-1v1h-1v1h-3v1l-1-1h-1v1h-3l-1 1v-1h-4l-1 2v-6l-1-1-1-1v1-1h-1l-1-1h-1l-1-1h-1v-1h-2v-2l-2-3-1-3v-2h1l1-1 1-1 1-1v-2h-1v-1h1v-3h-1v-1Z" clip-rule="evenodd"/><path fill="currentColor" fill-rule="evenodd" stroke="#F4F4F6" stroke-miterlimit="10" d="M119 111h2v-1 1h1v3h-1v-1h-1v2h-2v-1h-1v-2h1l1-1Z" clip-rule="evenodd"/><path fill="currentColor" fill-rule="evenodd" stroke="#F4F4F6" stroke-miterlimit="10" d="M118 120h1l1-1 1-1 1-1v-2h-1v-2h-1v2h-2v-1h-1v2l1 4Z" clip-rule="evenodd"/><path fill="currentColor" fill-rule="evenodd" stroke="#F4F4F6" stroke-miterlimit="10" d="M74 123h1v-1l1-1 1-1h1v1-1h1l1-1v1l1 1 1-1 1-1v-1h1v-2l1-1-1-1 1-1v-1l1-1h1v-1h1v-2l1-1v-4h1v-1l-1-1 2-1v-5h1v-1l1-1v1-1l1 1h1l1 1h1l1 1v-1h1v1h2l-1-1h1v-1h1v1l1-1h1l1-1h1v1h2v-1h3l1 1v-1h1l1 1v1h4v-1h1l1 1v1h1v1h1v5l-1 2-1 1-1 2v4l-1 1h-1v4l1 6 1 3 2 3v2l-4 1-1 2v4h-1v3h1v1h1v1h1v-1h1v3h-3v-1l-1-1-1-1h-1v-1h-1v-1h-1v1h-3v-1h-1v-1h-1l-1 1v-1h-5v-2h-1 1v-1h-1v-2h-1l1-1v-1h-1l1-1-1-1h1v-2h-3v-1h-1v1h-2l-1 1v1h-2v1l-1-1h-2v-2h-1v-4l-3 1h-3l-1-1v1h-2v-1l-1 1h-2v-1Zm53 10h1l1 1 1 1v6l1 3 1 1 1 1 1 1v2h-1 1l-1 1h1v1l-1 1-1 1v2-1h-1v-1h-1v-3l1-1v-1l-1-1h-2v-1h-1v-1h-1 1v-2l1-1v-8h-1v-1Z" clip-rule="evenodd"/><path fill="currentColor" fill-rule="evenodd" stroke="#F4F4F6" stroke-miterlimit="10" d="M104 138h1v1h1v-1h1v1h1v1h3l1-1v1h1v1h1l1 1 1 1v1h3v-3h-1v1h-1v-1h-1v-1h-1v-3h1v-4l1-2 4-1h2v1h1l1 1h1l1 1v1h1v8h-1v2h-1v1h1v1h-1l-1 1h-1l-2 1h-1l-1 1v1h-2l-1 1h-1v2h-1l-2 1-1 2-1 1h-1l-1-1-1 1-1-1h-2v-1 1h-3l-1-1-1-1h-1v-11h5v-5Z" clip-rule="evenodd"/><path fill="currentColor" fill-rule="evenodd" stroke="#F4F4F6" stroke-miterlimit="10" d="M102 156v-1h-1l-1-1-1-1v-10h5v-5h-4v-3h-1v-2h-1l1-1v-1h-1l1-1-1-1h1v-2h-3v-1h-1v1h-2l-1 1v1h-2v1l-1-1h-2v-2h-1v-4l-3 1h-3l-1-1v1h-2v-1l-1 1h-1v1l1 2v2l1 1v1l-1 1h1v3l1 1v4l-1 2-1 1-1 2-1 1v3l-1 1v5h2v-1h2v1h1l1 1v-1h11v1h2v1-1h2l1 1h3l4-1Zm5 0 1 1 1-1 1 1h2v-1l1-2 2-1h1v-2h1l1-1h2v1h1l1 1v-1l1 1 1 1h1l1 1v5l-1 1h1v3h-1v2l-1 1v1l-2 3-1-1h-3l-1-1v1l-1-1v-1h-3v-1h-1v-2l-1-1h1-1l-1-1-1-1v-1h-1v-2h-1v-2Z" clip-rule="evenodd"/><path fill="currentColor" fill-rule="evenodd" stroke="#F4F4F6" stroke-miterlimit="10" d="M107 156v2h1v2h1v1-1 1l1 1 1 1h1l-1 1h1v2h1v1h2l1 1 1 1h-2v1h-2v1h-1v1h-1l-1 1v2h-1v1h-2v3h-3l-1-1h-3v2h-2v1h-1v1h-3v-1l1-1-1-2v-1h-1v-9h3v-10h4l1-1h1v2l1-1v-1h2l1-1h1Z" clip-rule="evenodd"/><path fill="currentColor" fill-rule="evenodd" stroke="#F4F4F6" stroke-miterlimit="10" d="M93 177v-9h3v-10h4l1-1h1v2l1-1v-1h2l1-1h1-1l-1-1v1l-1-1-6 2h-3l-1-1-1 1v-1h-1v1-1h-2l-1-1H79v1l-1-1h-1v-1h-2v1h-2v2l1 2 1 1 1 3v2l2 2 1 2v5l1 2v4l1 1h-1v1h1v2l1 1 1 1 1 1v-1h1v-1 1h1v1l1 1h3v-1h1v-1h2v-9Zm62 2h1l1-1 2-1v1l1-1h1v-2l1-1v-2l1-1v-3h1v-1l1-1v-3h1v-3l1-1v-2l1-1v-3h1l-1-1v-2h1v1h1v-6l-1-1v-1l-1-1v-2l-1 1h1l-1 1v-1h-1l1 1v2l-1 1v-1 1l-1 1v-1h-1v1h1v1h-1 1v1h-1l-1 1v-1h-1 1v1h-1v1h1-1v-1l-1 1v1l-1 1v-1h-2v1-1l-1 1v-1l-1 1h-1v1l-1 1v6l1 1v1l-1 1v1h-1v2h-1v1l-1 1v2l1 1v6h1v1l1-1v1h1v1Zm11-36v-1 1Zm0 1Zm-1 0h1-1Zm4 11v-2 2Zm-47 15 2-3v-1l1-1v-2h1v-3h-1l1-1v-5l-1-1h-1l-1-1-1-1v1l-1-1h-1v-2l1-1h1l2-1h1l1-1h2v1h2l1 1v1l-1 1v3h1v1h1v1-2l1-1 1-1v-1h-1l1-1h-1 1v-2l-1-1-1-1-1-1-1-3 1-2h4v1l1-1h3v-1h5v-1h1v-1l1 1v-1 10h-1v1h1v2h-1 1l-1 1-1 1v1h-1l1 1-2 1h-1l-1 1h-2l-1 1v1h-1v1l-1 1h-1v1l-2 1h-1v1h-1v2l1 1h-1 1v4l1-1v4h-1v1h1l-1 1v1l-1 1h-1l-3 1v1h-1l-1 1v2-1h1v2h-2v-2h-1v-2l1-1v-2l-1-1v-4Z" clip-rule="evenodd"/><path fill="currentColor" fill-rule="evenodd" stroke="#F4F4F6" stroke-miterlimit="10" d="M122 180h1v2h-1 1l-1 1h-1l-1-1v-3h2v1Z" clip-rule="evenodd"/><path fill="currentColor" fill-rule="evenodd" stroke="#F4F4F6" stroke-miterlimit="10" d="M84 187h1v-1h-1 1v-1l1 1v1l1 1h3l1-1 1-1h1v-9h1v1l1 2-1 1v1h2v-1l1 1v-1h1v-1h1l1-2h3l1 1h3v-3h2v-1h1v-2l1-1h1v-1h1v-1h2v-1h1l1-1 1 1h3l1 1v4l1 1v2l-1 1v2-1h-2v2h-1l1 1 1 1h1l1-1h-1 3-1v3l-1 1v1l-1 1h-1v1l-1 1v1h-1v1l-2 2v2h-2v1l-2 2h-1v1l-2 1v1h-2v1h-3v1h-1v-1l-1 1h-1l-1-1-1 1h-4v1h-4v1h-1l-1-1h-1v-1h-1v1l-1-1 1-1h-1l1-1-1-1-1-1v-1h2v-1l-1-1v-2l-1-1v-2l-1-1v-2l-1-1v-1Zm27 5v1h2v-1h1l1-1v-3h-1v-1 1l-1-1v1h-2v1l-1 1v1l1 1Z" clip-rule="evenodd"/><path fill="currentColor" fill-rule="evenodd" stroke="#F4F4F6" stroke-miterlimit="10" d="m111 192-1-1v-1l1-1v-1h2v-1l1 1v-1 1h1v1l1 1h-1v1l-1 1h-1v1h-2v-1Z" clip-rule="evenodd"/></svg>