<svg xmlns="http://www.w3.org/2000/svg" fill="none" viewBox="0 0 271 244"><path fill="currentColor" d="M151 113v3h-2l-1 1h-5l-2-1h1l1-1h-2v1-3h2v-1l1-1v1l-1 1h2v-2h3l1 1h2v1Zm24-74v-1h-1v1h1Zm1-2h-1l1 1v-1Zm-1 4Zm-9-10Zm-3-3v1-1Zm5 4Zm7 11Zm1 0h1l-1-1v1Zm-13 30v-1 1Zm0 1h1-1Zm0-1v1-1Zm73-15-2-1 1 1h1Zm17 41-1 2-1 1v3l-1 1v2l2 2-1 2h-1l-1-1h-1l-2-1v1h-1l1 2-1 2 1 1v2h1c2 1 1 1 1 2v3l-1-1-2 1v2l-2 1h1c0 1-2 1-1 2h1l-1 1-1 1h-1l1 2-1 1v4h1v-1h1l1 1v3l-1 1c1 0 1 0 0 0l1 1v1h-1v1l-1 1h-5v1s1 0 0 0l-1 1 1 1-1-1v3h-2l1 1v1l-1 2 1 1h1l1 1h2v3h1v2h1v1l-2 1h-2l1 1-1 1 1 2h-1v1h-2v2h1v1l-4-4-2-1h-1v-1h-5v-1h-1v-1 1h-2l-1-1-1-1h-2v-1h1-1v-1h3v-3h1l-1-1v-1l1-1c0 1 0 0 0 0v1s0 1 0 0v-2l-1-1v1h-1v-2h-1 2v-1h2v-1l-1 1v-1l1-1v-1h1v-2l-1 1h-1v1-1h-1v2h-1v-4h1v-2l1-1h3v-1h-1l1-1-1-1v-2h-1v-2s0 1 0 0c1 0 0 0 0 0h-1v-1h1v-1s0 1 0 0v-1h-1l1-1-1-1v1h-3v-1h-5l1 1h-2l-1-1h-1v-1l-1 1h-1v1h-4v1-1h-1l-1-1h1l-1-1v-1h-1l-1-1h-1v1l-1-1v1h-1v-2h-1v-1h1l-1-1v-1h-1v-1h-1v-1h-2v1h-1v1h-3l1 1h-1v1h-2v-1h-1v-3c-1 0 0 0 0 0h-1 1l-1-1h-1v-1h1v-1h3v-2h1c-1 0 0 0 0 0v-1h-1l-1-1-1-1-1 1v-2h-2v-1h-1v-1h-1v-1h-2v-1l1-1v-2h-1v-2l-1-1h-3l-1 1h-1v-1h-2v1-1h-2v-1c-1 0 0 0 0 0l-1-1v-1h-1v-1h-1v-4h-1v-3l-1-1v-3h-1v-1h-1v-2h2v-2l1-1h-1v-1l-1-1h1v-1l1 1v-1h1v-1h1v-1h2l-1 1c0-1 0 0 0 0h2v-1h-1v-1h-2v1h-1v-1s-1 0 0 0h-2v-1h1-1v-2s1 0 0 0v1h-1v1h-1v-1h1v-2h1v-2h1v-1l1-2v-1l1-1-1 1v-1l1-1v1-2l1-1v-1h1v-4h-1v-1h-1v-1h-1l-1-1h-1v-4l-1-1h-1v-3l-1 1v-3h-1v-3h1l-1-2v-1h-1v-2h-1v-1h-1v1-2h-1v-1h1v-2l1-2-1-1-1-1v-1h-2v-1l-1-1v-3h-1 1v-1h1v-2h1v-2h2v-2l1 1v-1h1l-1-1h3v2h-2v-1 1h2v1-1h1v1l1 1h-1v1-1h1v-2h6a2 2 0 0 1 1 0h1v1h1l1 1h2v1h1s0-1 0 0h3-1c0-1 0 0 0 0h2v1h2v1l1 1h1v1l1 1v3h-1v2l-1 1v1h-1v1h-2v1h-10l-1-1-1 1v-1l-1 1-1-1h-1v-1h-2v1-1h1v1h1v1h1l1 1h-1 2v2h-1 1v-1h1v1l1-1v1h2v1l1 1h-1l1 1v1h-1v1h1v1h1v2h1v2-1 1h3c0 1 0 0 0 0h1v1h3l1 1s0-1 0 0v-1l1-1v-1l-1-1v-1l-1 1h-1 1-2v-1h-1c1 0 0 0 0 0l-1-1v-1h1v-1h-1 1l1-1 1 1h1s0 1 0 0h1v1h-1 1v-1h3l1 1v-1h1l-1-1h1s-1 0 0 0v-1 1-1h-1v-1 1h1-1v-1h-1l-1-1v-3l1-1v-2h1v-2l1-1v-1h4v2-2l1 1-1-2 1 1v2h1v1l1 1v1h1v1h3v1l1 1 1 1h1l1 1 1 1 1 1h3l1 1v1a44 44 0 0 0 3 1h1l1 1h2v1s-1 0 0 0l1 1h4v1l1 2h2l2 1h1v1l2 2s-1-1 0 0l2 2v1c1 2 3 1 2 2v1l1 1 1 1v1-1 2l1 1v1l1 1v2l-1 2 2 2v2l1 1v1l1 1h-1l-3-1-2 2v1l-1 1h1v1l-1 1h2l-1 1v1h-1 1v2s-1 0 0 0v1-1 1h1v1h1-1v1h-1v1s1 0 0 0v1l-1 1h-2v1h1v1h1-1v2h-1v1s1 0 0 0l1 1h2c0 1 0 2 1 1h1v1l1 2 1 1h1l1-1h1c1-1 0-2 1-1l1-2h1l2 1 1-1h3l1 1 2-1v1h1l1 1-1 1v2Zm-61-75Z"/><path fill="currentColor" d="M212 154s1 0 0 0h1-1v1-1ZM208 158s1 0 0 0h1v-1 1s0 1 0 0h-1Z"/><path fill="currentColor" d="M200 166h-1l1-1v-1l1-1h1v-1h1v-3 1-1h1v1h3v1-1h1v1-1 1h2v2h2l-1-1h-1v-1h-1v-1h-1v-1 1l-1-1h1-1l1-1v1l1 1 1 1 1 1h1v1-1h1v-1h1l1-1h1l1 1h-1v3h-4v1l-1 1v1h-2v2l-1 1-1 1h-1l-1-1h-1 1v-3h-1l-1-1v1-1h-3Z"/><path fill="currentColor" d="M156 157h-1l-1-1v-3s1 0 0 0v-1h1v-1h1l-1-1v-4h1v-2h1v-1l1-1v-1h1v-3h-1v-1l-1-1v-2h-1 2v-1h1v-2l1 1v-1h2v-1h3l1 1h6v1l1-1 1-1v1h1v-1l1 1 1-1h1v1l1-1h1l1-1h1v1h1v-1h-1v-1h1v-2h1v-1h1v-1h3v-2h3v-1h1v-1h2l1 1v1h1v1l1 1h-1v1l1 1v1l1-1h3l1 1h-1l1 1v2h6v-1h1v-1h1v1h1l1 1h1v-1h5c0 1 0 0 0 0h1v1h1l1-1v2h1s-1 0 0 0v1h-1v2h1-1v1h1v1l1 1v3l-1 1h-2v2l-1 1v4h-2v1l-1 1h-1v2c-1 0 0 0 0 0l-1 1v-1h-1v1h-2v1h-1c1 0 0 0 0 0v1h-1v1h1-1v1-1l-1 1v1h-1v2h-1v-1h-1s1 0 0 0c0 0 0-1 0 0h-1 1-1c0 1 0 0 0 0h-1l-1 1v1l-1-1v1-1l-1 1h-2 2v1h-6v-1s-1 0 0 0h2v1l1-1h-2v-1h1-3 2v-1 1l2-1h-2v-2h-1 1v2h-2v-1 1h-1 1l-1 1v-2h-1v-1 1l1 1v1h-1v2l-1 1v2h-1v2h-1v-1s1 0 0 0v2l-1-1v1h1v2h-1v-1h-1v1h-1v1h-3v-1h-1 1l1-1v-2l1-1v-2h-1v-1l1-1v1l1-1 1 1v-1h1v-2h-2v-1h-1v-1h1l-1-1v1-1h-1l-1-1h1v-1l-1-1h-1v-1h-4v-1h-3v1-1 1h-2 1-1v1h-1v1l-1 1h-1v1h-2l-1 1h-1v-1h-7l-1 1c0-1 0 0 0 0l-1-1ZM184 203h1-1Zm-7 3h-1v1h1v-1Zm7-3Zm1-1h-1 1Zm-7 7s-1 0 0 0Zm-1-5h2v-1h2-1v1h-1v1h-1v1h1l-1 1h1v-1l1-1v-1h1l1-1 1-1v-2h2l1-1h2s0-1 0 0h1v-1l1 1v-3s0 1 0 0h-4v-1h-1v-2h-1l-1 1h-1l-1-1h-1v1h-1v1h-1s1 0 0 0v1l1 1v2h-1v3h-1v2Zm11-2h1v-1l-1 1Zm3-3Zm-1 28h1-1s0-1 0 0h-2l-1 1h2v-1h1Zm-9-16s0 1 0 0Zm18 18s1 0 0 0Zm69-32h-1v-1h-1v-1h-1v-1s-1 0 0 0v-2h-1v-1h-1v-2l-1-1-1-1v-1h-1 1v-1l1-2v-1h-5l-1-1v-3l-1-1h-1v-1h-1l-1-1h-1l-1-1v2h-3l-1 1h-1l-1 1v1l-1 1-1 1-1 1-1 1h-3l-1 1h-1l-1 1h-1v1h-4v-1h-1v1h-5v1h-1v-1h-1v-1h-1 1l-1-1v1h-1l-1 1-1-1h-1v-1h-1l-1 1h-2v1h-4l-1 1-1 1h-1l-1 1v1h-1v1l-1 1h-1v1h-1v2h-5v1h-4v1h-1v1l1 1h1v1h-1l-1 1v1l1-1s0 1 0 0h1l-1 1h-3l-1 1h-1l1-1h-2v1h1l-2 1h-1v-1h-1v1h-1l-1 1-1 1v1l-1 1v3h2v-1h2s0-1 0 0v1h-1v1h1v2h1v1h-1v1h1v1h2-3v1-2h-1v2-1 2h4v1h1v1h-1v1h1v2h1s0-1 0 0v-1 1c1 0 0 0 0 0h1v1h-2v1h3l1-1h1l1-1v1h-1l-1 1 1 1h-1 1v1l1-1v-1h1-1 1s1 0 0 0h1c0 1 0 0 0 0l1 1v-1h1v2h2c0 1 0 0 0 0l2 1v-1h1l1-1h1v-4h1l2-1h1v1h4v1h1v1h4v-1h2v-1h1l1-1h-1 1l1-1h-1 1v-1l1-2h5v-1c0-1 0 0 0 0l1-1v-1h1l1 1h-1v2h-1v1h1v1h1v1h-1 2v-2h1v-1l-1-1v-3h3v1l1-1h1l1-1 1-1h1v-1h2l1 1h1c0-1 0 0 0 0l3-2 2-1 1-1v-1l2-1 3-1 1-1h1v-1l1-1h1v1h1v-2l1-1h2v-1l1 1h1l1-1v-1h1l1 1v1l1-1v-1h1l-1-1Zm-53 11v1s-1 0 0 0h-1l-1-1h-1v-2h1l-1-1h1v2h1v-1 1h1v1Zm44-16v1h1l-1 1v1h-4v-2l1-1h1l1-1h-1l1-1h2l-1 1v1Zm-69 36h1-1Zm9 1ZM106 168l-1-1v1h-2v-1h-1v-2l1-1h-1v-1h-1v-1h-2v-1h-1v2l-1-1-1 1h-1l-1-1v1h-1v1l-1-1v1h-1v2h-1v1l-1 1-1 1v2h-1 1l1-1h2v3h4v-1h1l-1-1h1l1-1h1v3h1v1h1v-3h1v-1h1v1h2v1-3h1v1-2h1c-1 0 0 0 0 0ZM131 169v-1h-2v1h-4l-1 1h-1v1-1h-4v1h-1v1h1v1l-1 1h1v1l1 1v1h-1 1v1h1v-1h2v-1h1v1h3v-2h1v-3h1v-1h2-1v-1h1v-1Z"/><path fill="currentColor" fill-rule="evenodd" d="m144 151-1-1v-1h-1v1h-1v1h-1v-1h-2v1h-1v2h-1v1h-1l-1 1-1-1v1h-1v1s0-1 0 0v3h1l1 1v1h6v-1l1-1h2v-1h2l1-1h1v-1l1-1h3v1h3v-4h1v-1s0-1 0 0l-1-1h-1v-1h-4l-1 1h-3v1h-1Z" clip-rule="evenodd"/><path fill="currentColor" d="m161 189-1-1h-1v-2h-1v-2l1-1v-1l-1-1v-1h1-2v1h-1v-1h-3v-1h1v-1h-1v-1h-1v-1h-1l-1-1v-1h-1v-1l-1-1h-1v-1h-3l-1 1h-1v1h-1 1v3h1l-1 1h2v1h-1v2h1v4h1v1h1v1h-1v1h1v1l-1 1 1 1 1 1h1v1s1 0 0 0h2v-1h1v-1h2v1h1v1h1v1h1v3-1h2v-1h1v1l1-1-1-1v-2h1v-1h1v-1Zm-8-9Z"/><path fill="currentColor" d="M188 171v-1h-1c1 0 0 0 0 0h-2v1h-3v-1h-1 1-1v-1h-1 1v-1h-1v-7h-1v-1h-1v-1h-1l-1-1v-1h-1v-1l-1-1v-1h-1v-1h-1v1h-1l-1 2h-1v1-1 1h-2l-1 1h-1v-1h-7l-1 1c0-1 0 0 0 0l-1 1h-1v1h-1v2l-1 1v3c-1 0 0 0 0 0h-1v2h-1v2h-2v1h-1c0-1 0 0 0 0h-1v1h1l1 1v1h1v1l1 1s0 1 0 0h1v1h1v1h1v1h-1v1h3v1h1v-1h2-1v1l1 1 1 1h1l-1 1v1h7l1-1h5v-1l1-1v-1h2l2-1h4v1h3v-5l1-1v-1h1v-1h1v-2Zm-13 8Zm11-5-1 1c1 0 0 0 0 0v-1h1ZM30 191l-1-1v-2h-6v-1l-1 1v-3h-1s0 1 0 0h-1v1h-1v1h-1s1 0 0 0v1s1 0 0 0v1l1 1h-1v4-1 1h-1 1l-1 1v1h-1v2l-1 1v1h-1v1l-1 1h-1v2s-1 0 0 0l-1 1v2h1v2l1-1v1-1h1v1-1 1c-1 0-1 0 0 0v1h-1v2h-1 1v1l-1 1v1l-1 1v2l2-1v1h2v1h2l1-1v-1h1-1v-1l1-1h1v-1h2v-1h-1v-2h-1v-1h1v-1l1-1h1v-1l-1-1v-2l-1-1 1-1v1h2v-1h1v-2h-1l1-1h1v-5h1c0 1 0 0 0 0l1-1h1v-1h1v-1Zm-4 4ZM6 217H5c0-1 0 0 0 0l-1-1v2h2l1-1H6Zm-5 3v1h1v-1H1Zm0 1h1-1v1h1l-1-1Zm6 3v1-1Zm2-1Zm-1 1v1h1l-1-1Zm8 3-1-1v1l-1-1v1h2Zm0 2v1c0-1 0 0 0 0v-1Zm-5-6c0 1 0 0 0 0h-1v1h1v-1Zm-2 1H8h1ZM159 139v-1l-1-1-1-1v-2h-1v-4c0 1 0 0 0 0h-2v-1h1v-1l1-1h1v-3h-1v-3h-1v-2s-1 0 0 0l-1-1v-1l-1-1h-4l-1 1h-5l-2-1v1h-1l-1 1v-1h1l1-1h-1v1h-1v1h-2v-1h-1v-2h1v1-1h-5l-1 1h-1v1h-1v1h-1v1h-2l-1 1h-2v1h-2v1h1l1-1v1h-1l1 1v2-1l-1-1v-1h-1v1l1 1v1h-1v4h1v4h1l-1 1v2h1v2h1v1l-1 2h1v-1l1 1h1v1h2v1l1-1 1 1-1 1 1 1v1h2v-2h1v1h1l1-1v2l1 1v-1l1 1h1v1h1v1h1v2h1v-2h2v1l1 1h1v-1h3v-1h4v1h2v1h2l-1-1v-4l1-1v-1h1v-1l1-1v-1h1v-2Z"/><path fill="currentColor" d="M187 162v-2h-1c0-1-1 0 0 0h-1v-1h-1v-1h1l-1-1s0 1 0 0h-1l-1-1 1-1-1-1v-1 1h-1v-1h-3v-1h-4c0 1 0 0 0 0l-1 1h-1 1-1v1h2v1l1 1v1h1v1l1 1h1v1h1v1l1 1v6h1v1h-1l1 1h1l1-1v-2l1-1v-2h-1v-1l1-1v1l1-1 1 1v-1h1v1-1c1 0 0 0 0 0Z"/><path fill="currentColor" fill-rule="evenodd" d="M123 239h1v1-1 1l-1-1ZM124 240h1v1h-1v-1Z" clip-rule="evenodd"/><path fill="currentColor" d="M163 200v-2l-1-1v-1h-2v-1h-1v-1l-1 1h-2v1h-2v1-1l-1 1h-1v2h-1v5h1v1h1l1 1h2v-1h2v-1l1-1h3v-2c0 1 0 0 0 0h1v-1Z"/><path fill="currentColor" fill-rule="evenodd" d="m164 107-1-1v-1c1 0 0 0 0 0l-1-1h-1v-1h-1v-1l-1 1-1-1s0 1 0 0h-1v-1h-1v1h-2v1-1c0 1 0 0 0 0h-3l-1 1v-1l-1 1h-2l-1 1h-1v2h-1v2l1 1-1-1v3-1h1v-1 1h1v1h2l1 1h2v3l1 1h2v2h2l1-1v1l1-1h1v-1h1v-1h1v1h1v-2h-1l1-1v-1l-1-1 1-1h1v-1l1-1v-1Z" clip-rule="evenodd"/><path fill="currentColor" d="M150 93h-1 1Zm15 0h-1v-1h-2l-1 1h-1v-1h-1l-1-1h-1v-1h-2v1h-1l-1 1v2l1 1v2h-1v1h-2l-1-2h-1v-1h-1v-1h-1l-1 1h-1v1l-1 1v3h-1v4h1v2h1v-2h1l1-1h4v-1l1 1v-1h2v1s0-1 0 0l1-1h1v-1l1 1v1l1-1v1l2-1v1h1v-1h1v1-1l-1-1v-1h1l1-1v-2s-1 0 0 0v-2l1-1c0 1 0 0 0 0h1c-1 0 0 0 0 0v-1ZM156 193h-1v-1h-1v-1h-1l-1-1h-1v1l-1 1v1h-2v1h1v2l1 1h1v2h1v-2h1v-1h1v1-1h2-1v-1h1v-2ZM31 119h1v-1h-2v1h1Zm1 6v-1 1Zm0-1c1 0 1 0 0 0Zm16-9Zm-5-14h1-1Zm-1 2v-1 1Zm9 5h-1v-1c0 1 0 0 0 0h1v-3l-1-1h-3v1-1h1l-1-1v-1 1h-1v1l-1 1s0-1 0 0v-1h1v-1h-1v1-1h-2v1h-1v1h-1v1h1v1-1 1h-1l-1 1h1v1h-1v-1h-1v-1h-2v-1h-1v4h-1v1h-1v1c0-1 0 0 0 0h-1 2l-1 1h1v1h2v1l-1-1v1h-1v2h-3l1 1h1v-1 1h2v-1h1l-1 1h1-5l1 1h-1v1s0 1 0 0l-1 1h-1v1h2l-1 1h-1 3l-1 1h-1 1-1v1h6v-1h1-1l1 1 1-1h1v-1h1l1 1v-1h1v1-1h1v1h1v-2h1v-1l1-1v-2s1 0 0 0v-1h1v-5 1l1-1h1v-1h1v-2 2-2Zm-17 5 1 1v-1h-1Zm1-7h1v-1l-1 1v1-1Zm0 6v1-1Zm-1-3h-1 1Zm1 0h-1 1Zm0-2v2-1l1-1h-2 1ZM270 175l-1-1-1-1v-2l-2-1h-2l-3-3-1 1h-2l-3 2-2-1h-2l-1-1-2-1-1 1h-2l-1 1-1-1h-2l-3-1h-1v1h-2v1a4 4 0 0 1 1 1v1h4l3 1v1l1 1 1 2v1h1l1-1h3v-2l1 1h1v1h2v1h1l1 1v3l3-2 2-1h1l1-1 1-2 2 1h3c1 0 2 1 1-1ZM29 36h1-1Zm22-5-1-1v-1h-1v-1h1v-1h-1v-1h1v-1h1-2v1-1h-1 1v-1h-1v-1h-1v1h-1s0 1 0 0h-3v-1h-1c0-1 0 0 0 0v2l-1 1v-1h1v-3h-3v1l-1 1v-3h-1v2h-1l-1 1 1-1v-1h-1v1h-1v1h-1 1v-1h-1 1v-2c-1 0 0 0 0 0v-1 1h1v-4h-1v-2 1l-1-1h-1l1 1 1 1h-1v-1 3s-1 0 0 0v-1l-1 1s0-1 0 0v-1s1 0 0 0v-1c0 1 0 0 0 0v-1h-1v1-1h-1v2-1h-1v1h1v1h-1v-2h-1v2-1h-1l1 1v1h3l-1 1h1v-1 1h1-1 1v1h1-2l-1 1c0-1 0-1 0 0l1 1h1-1v1-1h-1v-1h-1v1-1h-1c-1 0 0 0 0 0h-2v-1 1h-1 2v1-1 1h1v1h1v1h-1v1c1 0 0 0 0 0h2-1v1h-1 1l1 1v-1l-2 1s1 0 0 0v1l-1-1h-2v1h1v1h2v1c0-1 0 0 0 0l1-1v1h1-1v1h1s0-1 0 0v2h1v1h1v1l1 1h8v-1h4v1-1h2v-1h1v-1 1h1v-1h1l-1-1h1c0 1 0 0 0 0 1 0 0 0 0 0v-1h1-1l1-1c-1 0-1 0 0 0v-1ZM28 18h1-1Zm1 12Zm0 0Zm10-6-1-1v1h1Zm-1-3Zm-8 2h-1 1Zm0-2Zm0 0h1-1Z"/><path fill="currentColor" fill-rule="evenodd" d="m157 158-1-1h-1l-1-1h-3v-1h-3l-1 1v1h-1v1h-3v1h-2l-1 1v1h-6v-1l-1 1h1v1h-3l1 1v1h-1v3h-1l1 1h-1 1v2h1l1 1v1h1l1 1h1v1h4v-1h2v-1h1l1-1h4v-1l1 1v-1h2v-2l1-1v-2h1l-1-1h1v-2h1l-1-1h1v-1l1-1h1v-1h1Z" clip-rule="evenodd"/><path fill="currentColor" d="M167 215Zm2-2v1-1Zm-1 2h1v-1h-1v1Zm1-1v1-1Zm-1 1h-1 1Zm6 16v-1h-1v1h1Zm-1-3 1-1h-1v1Zm-2-6c1 0 0 0 0 0Zm1 0h1v-1h-1l-1-1v-2h-3v-1h-1v-1s-1 0 0 0h-2v1h-1v1l1-1 1 1h1v1h1v1h3v2h1Zm-7-7v1-1Zm2 0h-1 1Zm5 10v-1 1Zm3-20c-1 0 0 0 0 0h1-1Zm-2 7h1v-1h-1v1Zm1 12v1-1Zm-4-11h-1 1Zm2 19Zm1-6v-1h-1v1h1Zm-1-11h-1v1s1 0 0 0h1v1h1v-1h-1 1l-1-1v1-1Zm1-7v1h1v1-1 1h1v-2h-1s-1 0 0 0h-1Zm-3-3h1v-2 1h-1v1Zm7 21v-1h-1 1v1Zm0-9v1-1Zm-1 6c0 1 0 1 0 0h-1s0 1 0 0v-1h-2 1v1l1 1h2l-1-1Zm-4 7Zm12-6v-1 1Zm0 1v-1 1Zm-1 2v-1 1Zm-1-4h1v-1h-1v1Zm0 0Zm1 10h1v-1l-1 1Zm0-9v1-1Zm0-2h2v-1h-1s1 0 0 0h-1s0 1 0 0v1Zm-1 5Zm2 6Zm-1-4h-1l1 1v-1Zm-2 3v-1h-1v1h1Zm-4-4v-1h-1v1h-1v1h1v-1h1Zm1 2v-1h-1v1h1Zm-3-1-1-1v1h1c-1 0 0 0 0 0Zm4 3v-1h-1v1-1 1h1Zm3-2Zm-7-4v-1 1Zm-1 3v1c0-1 0 0 0 0v-1Zm4 9s0-1 0 0Zm3-16v1h-1v1h1v-1s0 1 0 0h1v-1h-1Zm-1 5v-1h-1v1h1Zm1 1v-1l-1 1v1l1-1Zm4-5h-1 1v1-1Zm-2 17h1-1Zm-13-14v-1c0 1 0 0 0 0v1Zm3 17h1-1Zm8-2h1-1Zm4-11v1-1Zm-1 8h-1v1-1l-1 1h-1v-1h-1v1l-1-1v1h-2v-1h-1l-1 1h-1l-1-1v1-1h-2v-1s0 1 0 0v2l-1-1v3h1l1-1 1 1v-1h2l1 1 1 1v-1h1c0 1 0 0 0 0h2l1-1h3v-2Zm-17-13v-1 1Zm0-1Zm1 0h-1l1 1v-1Zm2 0v1h1v-1l-1-1v-2c0-1 0 0 0 0v-1h-2v-1h-2v-1 1l-1-1h-2v-1h2v-1h-1v-2h1v1h1-1v1h1v-2h-1v-1h-1v-1l-1-1v-1h-1v-3l1-1v2c0-1 0 0 0 0h1s1 0 0 0h1v2h2v-1h-1v-1h-1 2v1h1v1-1h1l-1-1h-1v-1h2v1h1v-1h-2v-1 1h-1v-2h1l1-1v-1h3v-1h5v1-1h1v-3h1v-2l-1-1h-1v3h-3v1h-2l-1-1v1h-1l-1-1h-2v1h-2l-1 1h-2v2l-1-1v1h-2l-1 1v1h-4v3h-1v3h-1v1h-1l1 1h-1v1h-1v1h1v1s1 0 0 0h1v1h1v1h1v-1h2v1h-2v1l-1-1v3-1h1v-1c1 0 0 0 0 0h1v1h-1 1v1h1v1h1v-1 1h1l1-1h3v-1l1 1h2v1c0-1 0 0 0 0h1-2l1 1h-1v-1h-3l-1-1h-1v1h-2v2l-1 1h1v1h1l1 1v3l1 1v1h1v-2h1v1h1v2l1 1v-3h1v1l1-1v2h1v-2c-1 0 0 0 0 0a3 3 0 0 0 0-1h-1v-2h-1v-1l-1-1h2v2h1v-1h1-1l1-1s0 1 0 0h-1l1-1h-1s0 1 0 0h-1v-1l-1-1h2v-1h1v1h1v1h1Zm15 7Zm-17-8h-1v1l1-1Zm19 4v-1l-1 1v1h-1 1l1-1Zm2 3v1l1-1h-1Zm1-2Zm0 2Zm-2-1v1h1l-1-1Zm4 0v-1 1h-1l-1 1v3h1v-2h1v-2Zm-38-23Zm33 22v1-1Zm-12 3h1l-1-1v1Zm11-5h-1v-1h-1l1 1v1l1-1Zm1 10v1h-1 1v-1Zm0-8h-1 1Zm1 7v-2s-1 0 0 0v1h-1v2h1-1 1v-1Zm-9-7h-1v1h1v-1c0 1 0 0 0 0Zm-29-13s-1 0 0 0l-1-1v-1c1 0 0 0 0 0h-1v1h1v1l1 1v-1Zm29-3h-1v1h1v-1l1 1h-1v1h2v-1s-1 0 0 0h1-1v-1h-1v-1h-1v1Zm-32 1Zm4 4h-1 1Zm0 0Zm29 0h1-1Zm-3 13h-1 1Zm1-5v-1h-1v1h1Zm0-8 1 1v2h1v-3h-2Zm0 9v1h-1 1v1h1v-2h-1Zm-24-2h1v-1h-1v-1h-1v-1 1h-1v1h1v1h1Zm15 3h-1v1l1-1Zm-3 6h1-1Zm2 3 1 1-1-1Zm0-10c0-1 0 0 0 0Zm0 4c0-1 0 0 0 0h1-1Zm-1 4s-1 0 0 0h-1v1h1v-1Zm-13-13s1 0 0 0Zm0 0Zm6 11h1-1Zm-7-11v1h1v-1h-1Zm3 5-1-1h-1v1h1v1-1h1Zm4 6ZM92 188ZM158 75ZM157 75s1 0 0 0h1-1ZM157 75ZM157 75ZM156 75h1-1ZM156 75h1-1ZM156 75ZM156 75ZM156 76v-1 1ZM155 76ZM154 77ZM154 77ZM154 77ZM148 80h1v-1 1h-1ZM147 80h1-1ZM147 80c0 1 0 1 0 0ZM146 46l1-1h1v1h-1c0 1 0 0 0 0h-1ZM147 79ZM147 79l1 1h-1v-1ZM146 80ZM146 80ZM146 80c0-1 0 0 0 0ZM145 80h1-1ZM145 79v-1h1l1-1v2h-2ZM145 78ZM145 78ZM145 78ZM145 79v-1 1ZM145 78c-1 0 0 0 0 0ZM144 78l1-1h-1l1 1v-1 1h-1ZM144 79v-1 1ZM144 79ZM144 79ZM144 78c-1 0 0 0 0 0ZM144 77h-1 1v1-1ZM143 80c1 0 0 0 0 0h1-1ZM143 79l1-1v1h-1ZM143 81ZM143 77v-1 1ZM143 78v-1 1ZM143 78ZM143 77ZM143 78ZM143 78ZM143 77ZM143 78s-1 0 0 0ZM143 55h-1 1v-1h1v1h-1ZM143 79ZM142 55h1-1ZM142 56ZM142 76v1-1ZM142 58ZM142 79v-1 1ZM142 70ZM142 77c0 1 0 1 0 0ZM142 77h-1l1-1v1ZM141 76h1-1ZM141 72c0 1 0 0 0 0s1 0 0 0ZM141 58h1-1ZM141 76ZM141 74s1 0 0 0c0-1 0 0 0 0 1 0 0 0 0 0 0 1 0 1 0 0ZM141 77ZM141 77c0 1 0 1 0 0ZM141 81ZM141 81v-1 1ZM141 58h-1l1-1v1ZM140 78h1-1ZM141 58h-1l1 1v-1ZM140 79v-1s0 1 0 0v1ZM140 78ZM140 60ZM140 80v-1 1ZM140 79ZM140 61l-1-1h1v1c-1 0 0 0 0 0ZM139 58h1v1l-1-1ZM139 61c1 0 1 0 0 0ZM139 64v-1 1ZM139 62ZM139 80h1-1ZM139 79c1 0 0 0 0 0ZM139 58ZM139 78ZM139 79v-1 1ZM139 59h1v1l-1-1s0 1 0 0ZM139 78ZM139 79ZM139 79s0 1 0 0ZM138 61h1-1ZM138 80h1-1ZM138 78h1v1h-1v1h-1v-2h1ZM137 78h-1 1ZM136 79h1v1l-1-1ZM136 79Z"/><path fill="currentColor" d="M138 23h3l1-1h1v1h2v-3h1l-1-1v-4h1v-2h2v-1h1v1h1v1h2v5h-1s1 0 0 0h1v4h1v1h2v1l1 1h1l-1 2v3h-1v1h1v1h1v1h1v2h1v1l1 1-1 1v3h1v2h1v3h2v4c-1 0 0 0 0 0l1 1 1 1h1l1 1h1v4l-1 1v1l-1 1v1l-1 1v2l-1 1v1h-1v3h-1v1h-1v2h1-2v1h-2s1 0 0 0c0 0 0 1 0 0h-1v1h-1v-1 1l-1 1h-1v1h-2v1h-2v1h-1v-1l-1 1v1c0-1 0 0 0 0h-1 1l-1-1h1-1v-2h-1v1l-1-1h1-2s0-1 0 0v-1h-1s0 1 0 0h-1v-3h-1l1-1h-1l1-1c-1 0 0 0 0 0l-1-1h1l-1-1h1v1-1h-1v-2h-1v-1h1v-1h-1c0-1 0 0 0 0v-2h-1v-1l1-1v-3 1h1v-1c1 0 0 0 0 0v1h1v-3h1-1 1v-1 1-1h1v-2c1 0 0 0 0 0h1v-2h1v-2h1v-2h1v-1 1h1l-1-1h1v-1c0 1 0 0 0 0h-1v-2l-1-1v1-1h-1v-1h-2v-1h-1v-5l-1-1v-3h-1v-4l-1-1h-1v-1h-2v-1h-1v-1h-1v-1h-1l1-1v1-2h1l1 1 1 1v1Z"/><path fill="currentColor" fill-rule="evenodd" d="M151 83h-1 1Zm-2 0s0 1 0 0Zm2 0h-1 1Zm-6 4h1v1h1v-1h1v-1l-1-1h-1v1h-1v1Zm7-6Zm2 0s0-1 0 0Zm-1 0Zm1 0v-1h-1l1 1Zm-5 4h-1v1h1v-1Zm0 4s0-1 0 0l-1-1h-2v1h-1v1-1h-1l1 1v1l1 1h-1 1-1l1 1v-2h2v-1l1-1Zm2 2h1-1Zm13-1-1-1v-3h-1v-1h-1v-2h2v-2l1-1h-9v1h-2l-1 1h-1v1h-1l-1 1v1h1l-1 1s1 0 0 0h1l-1 1h2-1v2h1v1h2v-1 3h1v-1h1v-1h2v1h2v1h1v1h1l1-1h2v-1c0-1 0 0 0 0v-1Zm-1-2Zm-14-1v1s0 1 0 0v1h1l-1-1v-1Zm-4 3h-1 1Zm2 1v1-1Zm1-5Zm-1 1h1-1Z" clip-rule="evenodd"/><path fill="currentColor" d="M105 115v-1l-1-1h1v-2l1-1h-1 1v-1h1v-3h1l-1 1h2v-1h1l-1-1h-1c0-1 0 0 0 0v-1h-1v1-1s1 0 0 0v-2l1-1v-4h1-3v1l-1 1v1c0-1 0 0 0 0h-4v2h-1v1h1v1l1-1h-1v-1h1v-1h5v1-1h-3v3h-1v-1h1-2v2l-1-1h-1v-1 3-1 3-1 1h1l-1 1v2-1l1 1v4h4Zm1-12h1v1h-1v-1Zm-6 7Zm8-1h1v-1h-1v1s0 1 0 0Zm-6-7-1 1h1l1-1s-1 0 0 0h-1Zm1 0h1-1Zm9 7 1 1v-2 1h-1Zm-2-9h1v-1h-1v1Zm0 8v1h1-1v-1Zm-2 0c-1 0 0 0 0 0Zm-7 3Zm0 2v1-1Zm0-1Zm0 0v-1h-1 1v1Zm10 3v-1 1Zm1 0h-1v1-1h-2l1 1h-1 1v1h2v-2Zm1 0h-1v2h1v-2Zm-3-2v1-1Zm14 0h-2v1h1l1 1v-2Zm-13 2Zm4-5v-2l-1-1h-1v3h-1v-2h-1v1l-1 1v-1h-1v1h1c-1 0 0 0 0 0h-1 1c0 1 0 0 0 0v3h2v1h-1 1l1 1 1-1-1-1h2v-1h-1v-1h1v-1Zm-8-1v1-1Zm8 5h-1v1h-1 2v-1Zm-6 0v-1 2h-1v1h1v-2Zm-2 0h-1 1Zm0 0c0 1 0 0 0 0Zm0 0h2v-3h-1v-1 1s0 1 0 0h-1 1l-1-1v1-1 1h-2v1h1l-1 1h1s1 0 0 0v1h1Zm-1 0h-1v1h1v-1Zm2 0v1-1Zm-1 1v1h1l-1-1ZM60 61c0 1 0 1 0 0Zm0 2v-1h-1v1l1 1v-1Zm-2-5h1-1Zm3 2c0-1 0 0 0 0Zm0-2v-1 1-1h-1v1h-1v1h1v1h1v-1s-1 0 0 0h-1v-1s1 0 0 0v1h1v-1Zm1 0v-1 1h-1v1h1v-1h1-1Zm-1 2h-1v1h1v-1Zm-1 0Zm0 0ZM139 149c1 0 0 0 0 0v-2h-2l-1-1v1c0-1 0 0 0 0l-1-1v-1c0 1 0 0 0 0v-1 1h-2v-1h-1v2h-2v-4l-2 1v-1h-2v-1l-2-1v1h-2v-1l-1 1h1-1v1h-2v1h-1v1h-3v1h-1v1-1h-1v2h1l1 1h-1v1h1v2l1 1h1v1h1v1h1v1h1v2h2v-1l1 1h1v-2l1-1h1l1 1h4l1 1c0-1 0 0 0 0 1 0 0 0 0 0l1-1 1-1v1l1-1h1v-1h1v-2h1v-1h2l-1-1Zm-8-3Zm0 0Zm0 0Z"/><path fill="currentColor" fill-rule="evenodd" d="m224 225-1 1h-1v1h-1v1h-1l-1 1h-3v2h-1v1h-2l1 1v1h2v1l1-1 1 1v-1l1-1h1v-1h1v-1h1l1-1h-1l-1-1h1v-1l1-1v-1s1 0 0 0h1v-1ZM125 184v1-1Zm0 1h-1 1c-1 0 0 0 0 0Zm1 2v-1 1Zm-1-3Zm-1 0s0 1 0 0Zm1 1Zm1 1-1-1v1h1Zm-1-4v-1h-1v1h1Zm-2-2h1v1l1-1h-1v-1h-1v1Zm-1 3h1-1v-1 1Zm1-2h-1 1v2h1l-1-1v-2 1Zm0-2h-1v1h1v-1Zm1 6c0-1 0 0 0 0Zm0-1h-1 1Zm0-1h-1v-1 2h1v-1Zm-1 0h-1l1 1v-1Zm11 11v1l1-1h-1Zm0-3-1-1h-1v1h2Zm-1 1h2-2v-1h-1v1h1Zm-2-2h1-1Zm13-12v-1h-1v-1h-1v-3h-2v1h-4v-1h-1l-1-1h-1v-1h-1v-1h-2l1 1h-2v1c0-1 0 0 0 0h-1v3h-1v2h-3v-1s0 1 0 0h-1v1h-2v1h-2v-1c0 1 0 0 0 0v3h1v2h1v-1h1v-2l1-1s0 1 0 0v1s1 0 0 0h1l1 1v3h1v1h1v1-1h-1v-1h-1v-1h-1l1 1v1h1v1s0-1 0 0v1l1 1s1 0 0 0v-1 1h1v1h1l1 1v1h1v-1h1v1h2v1h1v1h1l1 1h1-2c0-1 0 0 0 0h-1v-1 1h1l1 1h2v1h1l1 1h1-1v-1a6 6 0 0 0-1 0l-1-1h-1v-2h-1v-1h-1v-1h-1l-1-1v-1h-1v-1h-1v-1l-1-1v-1h-1v-2h-1v-3l1 1h2v-1h5l1 1v-1h4v1h1v-1c1 0 0 0 0 0v-1h1Zm-17 2Zm3-4Zm1-1Zm1-1Zm2 2Zm8 0Zm-7 17h-2v1h2v-1Zm3 1h-2 1c0 1 0 0 0 0v1h1v-1Zm-10-6Zm-2-1v-1h-1v1h1Zm1 1v-1 1h1-1Zm2 1h-1 1Zm0-1v1-1Zm2 2s-1 0 0 0Zm1 1v-1h-1l1 1Zm-2 2h1-1Z" clip-rule="evenodd"/><path fill="currentColor" d="M91 144v-1h-1v-2h-2v-1l1-1v-1h-1c1 0 0 0 0 0v-1h-1v-1h-1l-1-1v1h-2v1h-2v-1h-1v1-1h-2v1h-2v2h1v1h2v1l1 1v1h2v2h3-1l1 1v1l1 1v1h3-1 1v-2h-1l1-1v-1h1l1-1Z"/><path fill="currentColor" d="m91 148-1-1v-2h-1v1l-1 1h1v2h-1 2l1-1c-1 0 0 0 0 0s0-1 0 0Z"/><path fill="currentColor" fill-rule="evenodd" d="M185 182v-1h-3v-1h-1v1h-1v1h-1v1-1l-1 1v-1h-3v-1h-1v1l-1 1v1h-5l-1 1h-2l-1-1v1h-4 1l-1-1 1-1h-1l-1-1v1l-1 1v2h1v1l1 1 1 1v1h-1v1h-1v2h1v1l-1 1h1v1h2v1l1 1v3h1s0-1 0 0l2-1h1v-1h3v1h1v-1l2 1h1v-1h3v-3h1v-1h1v-1h1l1-1h1v1h1l1-1h1l-1-1-1-1v-1h-1v-1h1v-5h2v-1 1-1l1-1h-1Z" clip-rule="evenodd"/><path fill="currentColor" d="M188 114h-1l-1-1-1-1-1 1v-2h-2v-1h-1v-1h-1v-1h-2v-1l1-1v-2h-1v-2l-1-1h-3l-1 1h-1v-1h-2v1-1h-3v1h-1v2l-1-1-1 1-1 1v2h1v2h-1v1h-1l-1 1 1 1-1 1v1h1v2h-1v-1h-1v1h-2l1 1h-1l-1 1h-3l1 1v2h1v3h1v3h-1l-1 1v1l-1 1h2v4h2v-1h1v-2l1 1v-1h2l1-1h3v1h6v1h1v-1h1v-1 1h1v-1h1v1h1v-1h1v1h1v-1h1l1-1h1v1h1v-4h1v-1h1v-1h2l-1-1h-1v-3h-1v-1l-1-1h1v-1h1v1h1v-1h1v-2h1c-1 0 0 0 0 0v-1Z"/><path fill="currentColor" fill-rule="evenodd" d="M146 185h-1v-1h-1v-4h-2c0-1 0 0 0 0v-1h-4v1l-1-1h-5v1h-2l-1-1h-1v1h1-1v1h1l1 1v2h1v2h1v1h1v1h1v1h1l1 1v2h1v1h1l1 1 1 1v-1 1h2v-1h-1v-2h1v-2h2l-1-1 1-1v1h1l1-1v-1h-1v-1h1v-1ZM102 165v1c0 1 0 0 0 0s1 0 0 0v-1" clip-rule="evenodd"/><path fill="currentColor" d="M150 192h-2v-1h-1l-1-1s0 1 0 0l-1-1h-1v-1l-1 1v1h1-1l-1 1v1h-1v2h1v1h-2 1v1h2-1s0 1 0 0h1v1h1v1l1 1h1v1-2l-1-1h1v-1l1-1v1h1v-1h1v-1h-1v-1h2v-1ZM65 192h1v1h-1v-1Z"/><path fill="currentColor" d="M154 207v-1l-1-1h-1v-1h-1v-7h-1l-1-1v-1h-1v1l-1-1-1 1v4h1v1h-1v1h1l-1 1 1 1h-1v1h1v1s-1 0 0 0h-1v2h1v2-1h-1v1h1v1h2v1l1 1v1h1v-1h1v-2h1v-2h1s-1 0 0 0h-1l1-1v-1ZM134 161h-1l1-1h-1v-1h-1v-3l-1-1h-4l-1-1h-2v2l-1 1-1-1v1h-2v-1 1h-2v2h-2v5-1l-1-1v1h-1l-1-1s0 1 0 0v1h-2l-1 1h-2v-1h-2v2h-2v-2h-1v1l-1 1v2h1l1 1h1v-1h1v1h2v-1h4v-1h1v2h1v1h1l1 1h7v1-1h1l1-1h4v-1h2v-1h-1 1v-1c1 0 0 0 0 0v-2h1v-2h-1 3v-1ZM74 211h2v2l-1-1h-1v-1ZM69 216v1-1ZM68 212h1v-1h2v1h1s-1 0 0 0v2h-1v1h-1v1l-1-1v-1h-1 1l-1-1v1l-1-1v-1h1ZM62 218v-1 1h1-1c0 1 0 0 0 0s0 1 0 0ZM62 217h-1v-1l1-1h1v1l-1 1ZM39 232h-1v-1h1v1ZM49 223h-2v1h-1l-1 1v1l-1 1v1h-1v-1h-3l-2-1h-4v-1h-2l-1 1h-3l-1 1v1-1 1h-3v-1l-1-1v-2l-1-1h1v-2h-1v-1h-1v-2 1h-3v-1h1v-3h1v-1h2v-1h-1v-2s-1 0 0 0v-2l1-1h1v-2h-1v-3h-1 1-1 3v-1h1v-3h1v-3h1v-1h-1 1v-1h1v-1h1l1-1v-1h-1v-3 1h-1v-1h-5v-1l-1 1v-1h1v-1h-1v-1 1h-1v-1 1h-2v-1h1v-1h1-1v-2h1-2l1-1h-1v-2s0 1 0 0v-1h1l1-1h1v1h1v-1 1-1h1v1-2h4v1h1v1h2l1 1h3v1h2v1h2v1h5l1 1h1v1l1-1 1 1h1v1h2v-1l1 1v1h1l-1 1h2v1h1v1h2l1 1h2v1c0-1 0 0 0 0h1l1-1h1l1 1h1v2h2v1h2v1h1v-1h3v2h-1v3h-2v1h-2v1h-1l-2 1h-4v2h-1 1l-1 1h-1v1h-1v1h-1v1c-1 0 0 0 0 0h-1v1l-1 1v1h-1v1h1v1c-1 0 0 0 0 0v2l1 1v1h-1v1h-2v1s-1 0 0 0l-1 1v1h-1v1c-1 0 0 0 0 0v1-1 1h-2ZM15 231v1h-1l1-1ZM14 232v2h-1v1h-1l1-1v-1l1-1ZM9 235h1v-1 2H9v-1ZM6 235v-1h1v-1s1 0 0 0h1v1H7c1 0 0 0 0 0v1H6ZM6 235H5v-1l1 1ZM5 233H4v1-1c0-1 0 0 0 0h1ZM4 236H3h1ZM135 84h-1v1l1-1Zm2 10c0-1 0 0 0 0h-2v1-1 1h-1v2h-1v2l1 1c-1 0 0 0 0 0v1h1v-2h1l-1-1h1v-3h1v-1Zm-2-10v-1 1Zm0 0v1-1Zm4-39v1h1l-1-1Zm0 1c1 0 0 0 0 0Zm-5 40h1-1Zm3 6v-1h-1v1h1Zm-3-6 1-1-1 1Zm-5 6Zm1 7h-1 1l-1 1v1l-1 1v4h1v-5l1-1v-2 1Zm-18 4v1-1Zm3 7 1 1-1-1Zm-3-16v1-1Zm0 0 1-1h-2v1h1Zm22-7h-1s1 1 0 0h1Zm-5 9c0-1 0-1 0 0Zm0-3v-1 1Zm4-5v1-1Zm6-43h1-1Zm5-3s0 1 0 0Zm-10 38Zm-4-13Zm3-6h-1 1Zm12-20h-1v-1h-1v-5l-1-1v-3h-1v-4h-1v-1h-1v-1h-2v-1h-1v-1h-1l-1-1h-1 1v1l-1 1v1c1 0 0 0 0 0v1h-1l-1-1h-2c0 1 0 1 0 0v4h-2l-1 1v2h-1v2l1 1-1 1-1 1v1h-1v3h-2v6h-1v2l-1 1v2h1v3h-4v1l-1 1-1 1h1v1h-1v8h1v4l1 1 1 1-1 1v1h-1v3h1v1h-1v3h-2c0 1 0 0 0 0v6l-1 1v-1l-1-1v5h1v1l1-1v2l-1 1 1 1h-1 1v3l1-1v3l1 1v1l1 1c0-1 0-1 0 0v1s0-1 0 0h-1l1 1h-1v2h1v2h1-1v1c0 1 0 0 0 0v1h4l1-1v-3h1l1-1h-1 4-1 2v-4h1v-4l1-1-1-1h1-1v-1h1-1v-1c0-1 0 0 0 0h1v-1h-1v-1h1v1-2l-1-1 1 1v-2h-2 2v1-1h1-1 1l-1-1h1v1-1l1 1c0-1 0 0 0 0v-1h1-1v-2 1s1 0 0 0h1l-1-1h1v2-1h1v-1 1-1l1-1h-1s1 0 0 0h1v-1h1-1c-1 0 0 0 0 0h-1s-1 0 0 0l1-1 1-1c-1 0 0 0 0 0v-1h-1 1v-1 1-1l-1-1h-1l1-1h-1l-1-1v-1h-1v1-1h-1v-2h-1v-5h1v1-5l-1-1 1 1v-1h-1 1v1-1l1-1v-1l-1-1 1 1v-1 1h1v-1h-1 1v-1h-1 1v-1h1v-1 1h1v-2h1v-1h2v-1l1-1v-2h1v-2h1-1v-1l-1-1v-1h1-1l1-1v-2h1v-2c0 1 0 0 0 0v1h1v-1h-1l1-1h-1 3v-1 1h1v-1h1Zm-16 43h1v1-1h1v1c0-1 0 0 0 0v-1s0-1 0 0v-1h-1 1v1s1 0 0 0v1h2l-1 1v-1h-1l1 1h-2v-1h-1c0-1 0-1 0 0h-1 1-3 1l1-1v1-1h1Zm9-38c0-1 0 0 0 0Zm2-2Zm-25 65h1v-1l-1 1Zm29-66Zm-16 41v1-1Zm3 2v-1h-1l1 1Zm9-42Zm-11 41h1-1Zm4-6h1l-1-1v1Zm8-35Zm0-1v-1 1Zm0 0v1-1Zm0 1s-1 0 0 0Zm1-2v1-1Zm0 0Zm2 0Zm0 1Zm-2-1h-1v1l1-1Z"/><path fill="currentColor" fill-rule="evenodd" d="M118 37Zm1-2Zm0-1h1-1Zm-2 5v-1 1Zm-9 16Zm9-15v-1l-1 1h1Zm0-2Zm8-16v1-1Zm-4 11h-1 1Zm4-10h-1 1Zm1 0h-1 1Zm-3 0 1-1v-2 1h-1v2Zm-6 17h-1v1h1c-1 0 0 0 0 0v-1Zm5-17h-1 1Zm-1 4v1-1Zm-4 3v-1h1s-1 0 0 0h1v-1h2v-1h1v-1h-1v1-1 1-1l-1 1v1-1l-1 1v-1 1-1h-1v1l-1 1v-1 2Zm3-5h1l1-1-1 1v1c0-1 0 0 0 0h1v-1h1v-1h-1 1l-1-1v-1 2-1 1h-2s1 0 0 0v1Zm-4 14h1-1Zm-1 0s-1 0 0 0Zm0 6Zm-2 3c0 1 0 0 0 0Zm1-3v-1h1-1v1Zm1 1h-1 1Zm0-14Zm0 8s1 0 0 0Zm1-2c-1 0 0 1 0 0Zm-1 6h1v-1l-1 1Zm1-4Zm0-2Zm0 1Zm0-8Zm11-9Zm-11 19-1 1h1v-1Zm0 1-1 1h1s-1 0 0 0l1-1c0 1 0 0 0 0h-1Zm-7 13v-1l-1 1h1Zm8-17Zm22-27v-1 1Zm-4 2h1l-1-1v1Zm-2 3v-1 1Zm4-4v1h1v-1h-1s1 0 0 0Zm-3 3v1-1Zm1-2v-1l-1 1h1Zm-1 2v-1 1Zm-1 0v-1h1-1v1Zm6-1v-1 1Zm-3-3v1h1v-1h1v-1h1V9h-1s1 0 0 0v1-1 1h-1c1 0 0 0 0 0s0 1 0 0h-1v1Zm6-4h-1 1Zm-3 6v-2h-1v1l1 1Zm4-4h1-1Zm-1-2h1v1-1h1c0-1 0-1 0 0h-1V6v1l-1-1v1Zm-1 0Zm-1 4v-1l-1-1v1l1 1Zm0-4h-1 1Zm0 1h-1 1Zm-14 14h1v-1h1v-2h-1v-1 1h-1 1-1l1 1h-1v1-1 2Zm2-3h1l1-1v-1h-1 1l-1 1h-1 1-1v1Zm1-1v-1 1Zm-1 0Zm1-2 1-1h-1v1Zm0 1v-1 1Zm-2 2 1-1h-1v1Zm-1 4v1-1Zm1 1v-1h-1l1 1Zm4-10v1h1l-1-1Zm-1 0h-1v1h1v-1Zm2 1Zm0-1v-1 1Zm0 0Zm-1 2h1v-1l-1 1Zm0-2v1-1Zm-1 2h-1 1v1h1v-2h-1v1Zm0-2v1-1Zm-15 27v1-1ZM93 70h1-1Zm1-1h-1 1Zm-1 8-1-1 1 1Zm14 11h1-1Zm5-37Zm0 0c-1 0 0 0 0 0Zm-12 12Zm0 0h1-1Zm22-22Zm-11 48Zm0 0Zm11-48Zm0 0Zm3-1Zm-13 9v-1 1h-1v1-1l1 1v-1Zm9-6Zm15-28ZM93 72v1-1Zm2 8v-1 1Zm-2-1v1h1l-1-1v1-1Zm0-9 1-1h-1v1Zm9-9h1-1Zm-9 25h1v-1 1h-1c0-1 0 0 0 0Zm42-72v1-1Zm8-2Zm-31 38c0 1 0 1 0 0Zm7-13Zm0-2Zm3-3v-1 1Zm-7 13v2h-1 1v-2Zm0-1c0 1 0 0 0 0Zm10-18h-1 1v-1 1Zm31-13-1-1h-1l-1 1h1l-1-1h-1v-1h-2 3v-1h1V9h1V8h-2V7v1-1h-2l-1-1h-1v3h-1l1-1h-2 1V7h1V6h-1V5v1h-1s0-1 0 0h-1 1-1v1h1l-1 1v2l-1 1V7l-1 1v3h-1v2h-1v-1h1V8h1-1l-1-1v1l1 1-1-1c0-1 0 0 0 0h-1s0-1 0 0v1-1h-1v1h1v1c-1-1 0 0 0 0h-1l1 1h-1l-1 1v2h1l-1 1v-1 1l-1-1c1 0 1 0 0 0v-1h-1v1-1h-1v1l-1-1v1-1h-1v1h1v1l1-1v1c0 1 0 0 0 0v1h-1v-1c-1 0 0 0 0 0v1h-1v1-2 1h-1 1l-1 1v1h1-1v1-4 1h-1v1-1 3-2h-2v1h1l-1 1h1c-1 0 0 0 0 0v1s1 0 0 0v-1h-1v-1s0 1 0 0l-1 1 1 1h-1s1 0 0 0v-1c-1 0 0 0 0 0v1h-1l1 1c-1 0 0 0 0 0h-1v1l-1 1h1-1 1c-1 0 0 0 0 0v1h-1 1-2v1h-1v-2h-1l1 1-1-1v1h1-1v1c-1 0-1 0 0 0v-2h-1v2h-1v2l1-1v1l1-1v1-2h1v1-1 1h2c0-1 0 0 0 0v-1 1h-2v1h-1l1 1v1l-1-1v-1 1h-1v1h-1v1-1h2-1 1-1l-2 1h1v1h-1 2v-1l1 1-1-1v1h-1 1l-1 1h2-1v1s0-1 0 0v-1h-2v1l-1 1h3v1-1h-4v1h1v-1 2-1s-1 0 0 0v1h-1c0-1 0 0 0 0h-1l1 1h-1c0 1 0 0 0 0v1c0-1 0 0 0 0v1-1h1l-1 1s0-1 0 0h-1v1h1l-1 1v-1 1h1-2v1h1v1h1-1v-1l-1 1v1h-1v1h1v1h-1c1 0 0 0 0 0s0 1 0 0v2h1v-1 1h-1v-1 1l-1-1v1h-1 1v1l-1-1v1h-1v1h1v-1 2h-1l1 1v-1 1h-1v-1 1h1-1v1-2h-1v1h-1 1-1v1h-1c0 1 0 0 0 0v1l-1 1h1-1v1-1l-1 1h1-1v1h1v-1 2-1h-1l-1 1v1-1h-1v1h-1v1h-1v-1 2h1v1-1h-1v-1l-1 1h1v1h1v1l-1-1v-1h-1c-1 0-1 0 0 0v-1h-1v1-1h-1v1h-1 1v1h1v1-1h2l-1 1h-1v1-1h-1s0-1 0 0h-2v-1 1h-1 2v2h1-1v-1h-1v2-2h-2v1l1 1h-1v-1 1l-1-1v1h-1l1-1c0 1 0 0 0 0v1h1v-1h-1v1l-1-1v2-1h-1l1 1h1v1h2-1 1-2v-1h-1v1h-1v1h1l-1 1h1c0 1 0 0 0 0h-1v1s0-1 0 0v1h1-1l1 1v-1h2v1h1-5 1-1v1h1v1l-1-1v1-1 1h1-1l1 1c-1 0 0 0 0 0h1v-1 1h-1l1 1v-2h1v1h-1v1h-1v-1h-1 1v3h1v1h1v-1c0-1 0 0 0 0 0-1 0 0 0 0l1-1-1 1v1h-1v2h-1v-1 1h-1 1v-1c0 1 0 0 0 0v-1h-1 1-1v1h1-1v1c0 1 0 0 0 0v1l-1 1h1v1-1l1 1v-1 1-1h1c-1-1 0 0 0 0v-1 4h-1v-1 1h-1v2h1v1h1v1h1v1h1-1v1h2v1-1l1 1h1v-1h1v1-1h1v-1h1l1-1v-1h1v-1h1l-1-1h2v-1l1 1c0-1 0 0 0 0l1-1v-1 1-1h1l-1-1v-1h1v-1h-1v-2h1v1s1 0 0 0v5h2v2h1v-1h1v-2l-1-1v-1h1v-2h2v-7h1v-3l-1-1h-1v-2c1 0 0 0 0 0l1-1v-1c-1 0 0 0 0 0h-1v-9l1-1v-1h1v-1h4v-2l-1-1-1-1h1v-2h1v-2h1v-1h-1 1v-4h-1l1-1h2v-3h1v-2h1v-4h1v-3h3v-4 1-1h2c0 1 0 0 0 0l1 1h1v-4h2v-2h1l1 1v1h1v1h3v-1h1v1h2v-1l1-1v-7h2s0-1 0 0v-1h1v-1h1v1h1v1h1l1 1v3h1v-2l1-1c0 1 0 0 0 0v-1h2v-1ZM94 82h1-1Zm2 1v1h-1v1h1-1v1-2l1-1Zm1-5c-1 0 0 0 0 0Zm15-21h-1l-1 1h1l-1 1h1s-1 0 0 0h-3v-1h2v-1h2v-1h-1 1v-1 1s-1 0 0 0v1Zm-1 0c1 0 0 0 0 0Zm42-44Zm-43 75v-1 1h1-1ZM99 62h1-1Zm-1 0Zm-1 2h-1 1Zm0-1h1-1Zm3 0-1-1v1h1Zm7-7Zm-10 8Zm0 0h1-1v-1 1Zm0 1v-1 1Zm1-1Zm1-1h-1 1Zm7-6Zm-2 2 1-1h1v-1h-1c1 0 0 0 0 0h-1v2Zm-1 0h1l-1-1h-1v1h1Zm4-2Zm-3 0h1v-1 1h-1Zm1 2h-1 1Zm-2 0h1-1Zm1 0h-1l1 1v-1ZM92 73Zm0 0h1v-1h-1v1-1 1Zm0 3v-1 1Zm12 15h-1 1ZM89 81Zm3-4v1l1 1v-2c-1 0-1 0 0 0h-1v-1 1Zm1 8h-1l1 1v-1Zm0-6h-1l1 1h-1 1v-1Zm-1 0h1-1Zm1-9Zm0 1Zm1-3v-1h-1v1s-1 0 0 0h1Zm2-4h-1v1l1-1Zm-3 7Zm0-2v-1 1s-1 0 0 0Zm3-4v-1 1Zm-4 6ZM76 1h-1s0 1 0 0l-1 1v1l1-1h1V1Z" clip-rule="evenodd"/><path fill="currentColor" d="M90 123h1-1s-1 0 0 0Zm-2 1 1-1h-1v1Zm4-1h-1 1Zm-5 1h1-1Zm6-1s0-1 0 0c0-1 0-1 0 0Zm0 0Zm-11 10h1v1h1-1v-1h-1Zm5-8v-1l-1 2 1-1Zm-4 11h-3v1-1h1v1h1l1-1Zm12-11v-1h-1v-1h-2l-2 1h-1v1h-1l1 1-1 1h2-1v2h-1v1h-1v-2h1l-1-1h1l-1-1h1v-1 1h-2v1l-1 1v2h-1v1l-1 1v1h1s-1 0 0 0v1h1-2s0 1 0 0v1h-1c0-1 0 0 0 0h1c0 1 0 0 0 0h-2v-1h-1v1h1s0 1 0 0v1h4v-1l1 1h1v1h1v1h1v1l-1 1 1 1v-1h1-1v-1l1-1c1 0 0 0 0 0l1-1v-1c-1 0 0 0 0 0h-1v-2h1v-1h1v1l1-1v-1h1v-1l1-1h-1l-1-1h2v-4Zm-5 9v1-1Zm1-5h-2 1v-1l1 1Zm-10 5v1h1s0-1 0 0v-1h-1Zm0 0h1c0 1 0 1 0 0h1-1l-1-1v1ZM127 221h1-1ZM127 222ZM126 223c1 0 0 0 0 0v1-1ZM126 222v1-1ZM124 222h1v1h-1v-1ZM123 223h1s-1 0 0 0h-1ZM122 210c0-1 0 0 0 0h1c-1 0-1 0 0 0h-1ZM121 209v-1 1ZM118 222ZM117 207ZM117 207ZM117 207v1h-1l1-1ZM116 207v1-1ZM123 226h2v-1h2l1-1v1h1v-1h1v1h-1v1c0 1 0 0 0 0v1h-1v1l-1 1v2h1v2l-1 1v1h-2l-1-1-1-1s0-1 0 0l-1-1h-2v-1h-1l-1-1h-1l-1-1-1 1v-1h-1v-2s1 0 0 0l1-1h1v-1 1h1v-1h2v1h4ZM115 243h1-1ZM114 226v1-1ZM114 227h-1 1ZM112 226l1 1-1-1ZM112 235v-1 1s1 0 0 0ZM108 198v1-1ZM107 198c1 0 1 0 0 0ZM105 198h-1 1ZM105 195h-1s0-1 0 0v-1l1 1v-1h1l-1 1v1-1ZM104 196ZM103 193h-1 1ZM102 207ZM102 207v1-1ZM101 207h1-1ZM100 205h1v1l-1-1ZM100 205ZM95 219h1-1v1-1ZM95 206h1-1ZM95 218v1l-1-1h1Z"/><path fill="currentColor" d="M95 207h1v1l1-1 1-1h1v-1h1v1h1v1l1 1v3h-1v1l1 1h-1v6h-1v-1h-1l-1 1v1h-2v-1h-1v-3l1-1v-1 1-1h-1v-1h1-1v-1h1v-1h-1v-2h-1v-1l1-1ZM142 214h-1v-1h-1v-2h-2l-1-1h-1 1-2v1h-1v3h-1l1 1h1v1h1v1h1l-1 1h1v2h-2l-1 1v3h-1v1h-1v2h-2v-3l1-1-1-1 1-1h1v-1l-1-1v-3h-1v-2l-1-1h-1s-1 0 0 0h-1v-1h-1v-3h-3v1-1l1-1-1 1v-1h-1v1h-1v-1h1v-1h-1v-1h-1v-1h-3l-1-1h-1v-1h-1c0-1 0 0 0 0v-1h-1v-1h-1v-1h-1v-2h-2l-1-1h1l-1-1-1-1v-1h-1v-2l-1-1v-3s-1 0 0 0l-1-1h-1v-1 1-1h-1l-1-1h-1l-1-1h-1l-1 1-1 1v1h-1v1h-2v-2h1-2v-1h-2v-3l1-1-1-1v-1h-1l1-1h2l-1-1h1-1v-2h-1v-1s1 0 0 0h2l1-1h2l1-1v-1l1-1h1v2l1 1v1l1 1v-3h1v-2h1v1h2v1h1l-1-1v-1h1s0-1 0 0h1-1l1-1v-1h1l1 1v-1h1v-1h4s0-1 0 0h1-1v1h1v1h1v1h4v1h-1v2h1v3h-2v1h-1l-1 1v-1h-1v1l-1 1h1v1l1 1v1h-1s-1 0 0 0l-1 1h1v3h1v1h1l1 1 1 1 1 1h1v2h1v2a4 4 0 0 0 0 1l1 1v1h1v1h1v1h1v1h1l1 1h2l1-1h1s0 1 0 0l1 1v1h-1l-1 1 1 1h2v1h2v1h2v1h1v1h2l1 1 1 1 1 1v3h-1ZM99 122Zm11-4s0-1 0 0h-1c1 0 0 0 0 0h1Zm-12 4h-1 1Zm20-5h-1 1Zm-21 5h-1 1Zm19-4h1v-1l-1 1Zm4 3h-1l1 1h1v-1h-1v-1h-1v1h1Zm-3-3v1h2v-2h-1v1-1h-1v1Zm-21 4h-1 1Zm-1 0c-1 0 0 0 0 0h-1 1Zm5-5 1 1h-1v-1Zm24 21s-1 0 0 0l-1-1v-1h-1v-1s0 1 0 0v-1l1-1h-1v-4h-1v-4h1v-1l-1-1v-1 1h-1v-1h-1v-2h-1v1-1l-1-1-1-1v1h-1s0-1 0 0v-1h1-2v1l-1 1h-1l-1 1h-2v-1h1v-2l-2 1v-1h-1c-1 0 0 0 0 0h-2 1v-2h-1v-1h-5l1-1h-1v2-1h1v2l1-1v2h-1s0 1 0 0v1h1l-1 1h1-1v1h1v1h1-2c0-1 0-1 0 0h-1v1h-1v1-2h-3l-1 1v2s1 0 0 0h1v2h-1v2h-2l1 1h1v1h-1v1h-1v1l-1 1h-1v-1 1h-1v2c0-1 0 0 0 0h1v1l-1 1h1l-1 1h-1v1h1v1h-1 1v2h1v1l-1 1-1 1h1v2h1l-1 1c1 0 0 0 0 0v2h1l1 1h1l1 1v-1 1c1 0 0 0 0 0h3v2h-1c0 1 0 0 0 0v1l-1 2v1h-1v3l1 1h1l1-1 1 1v-2 1h3v1h1v1h1v-1l1 1v1h1c-1 0 0 0 0 0l1-1v-1h1s0 1 0 0l1 1h2l1-1h2v-1c0 1 0 0 0 0v1h1l1-1v1h1v1-4c-1 0 0 0 0 0v-1h1l1-1v-1h2v-1l-1-1v-1h-1v-1h-1c0-1 0 0 0 0l-1-1h-1v-2c-1 0 0 0 0 0l-1-1v-2h-1v-2 1h1v-1h1v-1h2l1-1h1v-1h2v-2h1v1h1l1-2v-1Zm-24-22h1-1Zm-6 7-1-1v1h1Zm6-7v1-1Zm1 1v1-1Z"/><path fill="currentColor" d="M88 192h-1c0 1 0 1 0 0l1 1v-1Zm-37-35h-1v1h1v-1Zm-7-9v1-1Zm6 8-1-1 1 1Zm7 12h-1v-1 2h1v-1Zm44 30v-5l-1 1v1h-1v1h-1v1h-1v4l1-1v1h-1v1h1v1h1v1h1v-2h1v-4Zm-45-32v1h1v-1h-2 1Zm41-11v-2h-2v-1h-1v1l-1-1h-1l-1-1v-1h-1v-1h-4v-1l-1-1v-1l-1-1h1-3v-2h-2v-1l-1-1v-1h-2v-1h-1v-2l-1 1h-3v5h-1v1h-4v1h-1v1h-1l1 1h-3v-1h-2l-1-1 1-1h-2v-1h-1v1s0 1 0 0v6h1-3v1-1l-1-1s0 1 0 0l-1 1h-1v-2s-1 0 0 0h-1v-1l-1 1v-1l-1 1h-5v2h2c0 1 0 0 0 0h-1v1-1l1 1h-2v1h1v1c0 1 0 0 0 0l1 1v-1h1v1h1s0 1 0 0v1h1l1 1v1-1h1v1h1v2h1v1h1l-1 1v1l1 1v1l1 1h1v5-1h-1v1l1 1h1v4h1-1v-3h-1v-1 1l-1 1v2l-1 1c1 0 0 0 0 0h1v1h-1v2l-1 1v2l-1 1v1h-2l1 1v1h1l-1 1h2v1h1v1h1c-1 0 0 0 0 0h2v1h2l1 1v-1h2l1 1h1v1h1v1h1l1 1h5-1v-2h1v-2l1-1h1l1-1h2v1h3c0 1 0 0 0 0v1h2v1h2v1h2-1 1s0-1 0 0l1-1h1v-1l1-1h1v-1h1l1-1v-2l-1 1v-1h-2v-3l1-1h-1l-1-1v-2h2v-3h-1v-1l1-1v-3h-3v1h-1 1v-2l1-1v-2h1v-1h1v-1h1l-1-1h1l1 1v-1h1v-4h1v-3h1v-1h1Zm-44 7c0 1 0 0 0 0Zm0-2v1h1v-1h-1ZM75 73v-1h1v1h-1ZM75 73c1 0 0 0 0 0ZM75 75v-1 1ZM74 74c1 0 0 0 0 0ZM74 73l1-1v2h-1v-1ZM74 73ZM73 75h-1l1-1v1-2c0 1 0 0 0 0h1v4h-1v-2 1-1ZM72 74s1 0 0 0ZM72 80l-1-1h1v1ZM71 76v-1 1ZM69 80ZM68 81c0-1 0 0 0 0h1s-1 0 0 0h-1ZM68 82v-1 1ZM68 81h-1 1ZM67 80h1-1ZM67 80v1-1ZM67 82c0-1 0-1 0 0ZM66 84v-1h1v1h-1ZM66 81s1 0 0 0h1-1ZM66 83ZM66 83Z"/><path fill="currentColor" d="M66 82h-1l1-1 1 1c-1 0 0 0 0 0s1 0 0 0c0 1 0 0 0 0h1l-1 1-1-1v1-1Z"/><path fill="currentColor" d="M65 82c0 1 0 0 0 0l1 1h-1v-1ZM63 137ZM60 137h2v1h-1v-1h-1ZM57 147l-1-1h1v1ZM56 145v-1 1ZM55 84h1-1v1-1ZM55 145v-1 1c0-1 0 0 0 0ZM55 90h-1v-1h1v-1 2ZM54 96h1-1ZM54 112v-1h1v-1s0 1 0 0v2s0-1 0 0h-1ZM54 102v-1h1v2h-1v-1ZM53 117h1v1h1-1v1-1h-1v-1ZM53 86ZM54 84l-1-1 1 1ZM53 93h1s-1 0 0 0h-1ZM53 93ZM52 92h1v1-1h-1ZM53 101c0-1 0 0 0 0ZM52 99l1-1h1l-1 1h-1Z"/><path fill="currentColor" d="m52 89 1-1v1-1 1h1v-2 1l1 1h-1v2l1-1v1c0 1 0 0 0 0v1h-1v-1h1-2v-2h-1ZM52 86v-1 1ZM52 85ZM52 100v-1h1v1h-1ZM52 91c1 0 0 0 0 0ZM52 86h1v-1h-1 1-1v-1l1-1v1h1v-1h2v1h-1v1h-1 1-1v1h-1l-1 1v-1ZM52 86ZM51 97l1-1h1c0-1 0 0 0 0l-1-1 1-1v1l1 1v1h-3ZM51 98s1 0 0 0h1v-1 2l-1-1ZM52 86h-1 1ZM51 87v-1h1v1h-1ZM51 94h1-1ZM50 87h2-1v1h-1l1-1h-1ZM51 89l-1-1h1v1ZM50 100v-1h2v2h-2l1-1h-1ZM50 95l1-1v1h-1ZM50 103h1-1ZM50 90v-2 3-1ZM49 92v-2l1 1h-1v1ZM49 92h-1 1Z"/><path fill="currentColor" d="M44 137h1v-1h2v-1h1v-1h1v-1h1v-1h1v-1h2l1 1h2v-1h1v-1h1-1l-1 1h-2v-1h-1v-1h-2 1v-1h-3l1-1h-1v1-1h-1 1v-1h-1 1v-1h1v1-1h2v-1h1v-1h1l-1-1h1v-1l-1-1v1h-2l1-1h1v-1h1v-1h4s0 1 0 0v1-1l1 1v-1l-1-1s1 0 0 0h1l1-1h-1v-1h1v-2h-1v1-1c0-1 0 0 0 0l-1-1h1l-1-1v-1h1v-1l1-1h-2v1h-1v-1h-1v-1 2l-1-1-1-1v2-1h-1v-2h1v1-2h1v-1h1v-2h-1 1v-2 1h1v-1h-1v-1 2l-1-1v2-1h-1l1-2-1 1v-1 2l-1 1v2c0-1 0 0 0 0h-1v-2h1v-1h1-1v-1l1-1s-1 0 0 0v-1c-1 0-1 0 0 0v-1h1v-1h1v-1h-1v1h-1v-1s-1 0 0 0l-1-1h2-1v-1s1 0 0 0h2-1v-1h1-1l1-1s0 1 0 0h-1 1v-1 1h-1v-2h1v1h1l-1-1v-1 1-2 1h1v-1l1 1-1-1h1l-1-1h1v-1h1v-1l1-1 1 1h-1 1v1l1-1v1-1h1v1l1-1 1 1v-1 1l1-1v1h-1l1 1h-1v1h-1v1h-2v1h-1 2-1v1h-2 2-1v1h-1 2l2-1v1h4v1h1l-1 1v1h-1v2h-1v1h-1v2h-3 2v1l-1 1h-3 1v1h2v-1l1 1 1 1 1 2s0-1 0 0l1 1-1 1v2h1v3l1 1h1v3h1l-1 1c1 0 0 0 0 0a2 2 0 0 0 1 1v1h-1v-1h-2v1h2v1h1v3l-1 1 1 1 1-1h2v1h1v1l1 1v1l-1 1v2h-2v-1 2h-2 1v1h-1v1-1l-1 1h1-1c1 0 0 0 0 0h1l1 1h-1 1v-1c0 1 0 0 0 0h2v1h-1v1s0 1 0 0l-1 1-1 1v-1l-1 1h-3v-1h-1v1l-1-1v1h-1v-1h-1v-1h-1v1h-2c-1 0 0 0 0 0v1l-1-1h-1v1-1l-1-1h-3s1 0 0 0v2h-1v1-1h-1v-1h-3l-1 1c0-1 0 0 0 0v-1l-1 1s1 0 0 0v1l-1-1h-1v-1ZM41 137v1h-1l1-1ZM40 137h1-1ZM40 138Z"/><path fill="currentColor" fill-rule="evenodd" d="M114 187v1h1v-1h-1Z" clip-rule="evenodd"/><path stroke="#F4F4F6" stroke-linejoin="round" stroke-miterlimit="10" d="M221 146v1-1h1l1-1v2h-1v1l-1 1v1l1-1v1h-2v1h-2 1v2h1v-1l1 1v2c0 1 0 0 0 0v-1s0 1 0 0l-1 1v1l1 1h-1v3h-3v1h1-1v1h2l1 1 1 1h2v-1 1h1v1h5v1h1l2 1 4 4v-1h-1v-2h2v-1h1l-1-2 1-1-1-1h2l2-1v-1h-1v-2h-1v-3h-2l-1-1h-1l-1-1 1-2v-1l-1-1h2v-3l1 1-1-1 1-1c1 0 0 0 0 0v-1h5l1-1v-1h1v-1l-1-1c1 0 1 0 0 0l1-1v-3l-1-1h-1v1h-1v-4l1-1-1-2h1l1-1 1-1h-1c-1-1 1-1 1-2h-1l2-1v-2l2-1 1 1v-3c0-1 1-1-1-2h-1v-2l-1-1 1-2-1-2h1v-1l2 1h1l1 1h1l1-2-2-2v-2l1-1v-3l1-1 1-2v-2l1-1-1-1h-1v-1l-2 1-1-1h-3l-1 1-2-1h-1l-1 2c-1-1 0 0-1 1h-1l-1 1h-1l-1-1-1-2v-1h-1c-1 1-1 0-1-1h-2l-1-1c1 0 0 0 0 0v-1h1v-2h1-1v-1h-1v-1h2l1-1v-1c1 0 0 0 0 0v-1h1v-1h1-1v-1h-1v-1 1-1c-1 0 0 0 0 0v-2h-1 1v-1l1-1h-2l1-1v-1h-1l1-1v-1l2-2 3 1h1l-1-1v-1l-1-1v-2l-2-2 1-2v-2l-1-1v-1l-1-1v-2m-13 90Zm0 0h-1v2h-1v-4h1v-2l1-1h3v-1h-1l1-1-1-1v-2h-1v-2s0 1 0 0c1 0 0 0 0 0h-1v-1h1v-1m0 0c0 1 0 0 0 0Zm0 0v-1h-1l1-1-1-1v1h-3v-1h-5l1 1h-2l-1-1h-1v-1l-1 1h-1v1h-4v1-1h-1l-1-1h1l-1-1v-1h-1l-1-1h-1v1l-1-1v1h-1v-2h-1v-1h1l-1-1v-1h-1v-1h-1v-1h-2v1h-1v1h-3l1 1h-1v1h-2v-1h-1v-3c-1 0 0 0 0 0h-1 1l-1-1h-1v-1h1v-1h3v-2h1c-1 0 0 0 0 0v-1h-1l-1-1-1-1-1 1v-2h-2v-1h-1v-1h-1v-1h-2v-1l1-1v-2h-1v-2l-1-1h-3l-1 1h-1v-1h-2v1-1h-2v-1c-1 0 0 0 0 0l-1-1v-1h-1v-1h-1v-4h-1v-3l-1-1v-3h-1v-1h-1v-2h2v-2l1-1h-1v-1l-1-1h1v-1l1 1v-1h1v-1h1v-1h2l-1 1m0 0s0-1 0 0Zm0 0h2v-1h-1v-1h-2v1h-1v-1s-1 0 0 0h-2v-1h1-1v-2s1 0 0 0v1h-1v1h-1v-1h1v-2h1v-2h1v-1l1-2v-1l1-1-1 1v-1l1-1v1-2l1-1v-1h1v-4h-1v-1h-1v-1h-1l-1-1h-1v-4l-1-1h-1v-3l-1 1v-3h-1v-3h1l-1-2v-1h-1v-2h-1v-1h-1v1-2h-1v-1h1v-2l1-2-1-1-1-1v-1h-2v-1l-1-1v-3h-1 1v-1h1v-2h1v-2h2v-2l1 1v-1h1l-1-1h3v2h-2v-1 1h2v1-1h1v1l1 1h-1v1-1h1v-2h6a2 2 0 0 1 1 0h1v1h1l1 1h2v1h1s0-1 0 0h3-1c0-1 0 0 0 0h2v1h2v1l1 1h1v1l1 1v3h-1v2l-1 1v1h-1v1h-2v1h-10l-1-1-1 1v-1l-1 1-1-1h-1v-1h-2v1-1h1v1h1v1h1l1 1h-1 2v2h-1 1v-1h1v1l1-1v1h2v1l1 1h-1l1 1v1h-1v1h1v1h1v2h1v2-1 1h3c0 1 0 0 0 0h1v1h3l1 1s0-1 0 0v-1l1-1v-1l-1-1v-1l-1 1h-1 1-2v-1h-1c1 0 0 0 0 0l-1-1v-1h1v-1h-1 1l1-1 1 1h1s0 1 0 0h1v1h-1 1v-1h3l1 1v-1h1l-1-1h1s-1 0 0 0v-1m0 0v1-1Zm0 0h-1v-1 1h1-1v-1h-1l-1-1v-3l1-1v-2h1v-2l1-1v-1h4v2-2l1 1-1-2 1 1v2h1v1l1 1v1h1v1h3v1l1 1 1 1h1l1 1 1 1 1 1h3l1 1v1a44 44 0 0 0 3 1h1l1 1h2v1s-1 0 0 0l1 1h4v1l1 2h2l2 1h1v1l2 2s-1-1 0 0l2 2v1c1 2 3 1 2 2v1l1 1 1 1v1-1m0 0Zm-3 21h1m-40-53Zm-39 156Zm0 0ZM37 117h-1l1-1h-1v1h-2v-1 1h-1l-1-1h3v-2h1v-1l1 1v-1h-2v-1h-1l1-1h-2 1s0-1 0 0v-1h1v-1h1v-4h1v1h2v1h1v1h1v-1h-1l1-1h1v-1 1-1h-1v-1h1v-1h1v-1h2v1-1h1v1h-1v1c0-1 0 0 0 0l1-1v-1h1v-1 1l1 1h-1v1-1h3l1 1v3h-1s0 1 0 0v1h1v2-2 2h-1v1h-1l-1 1v-1 5h-1v1c1 0 0 0 0 0v2l-1 1v1h-1v2h-1v-1h-1v1-1h-1v1l-1-1h-1v1h-1l-1 1-1-1h1-1v1h-6v-1h1-1 1l1-1h-3 1l1-1h-2v-1h1l1-1c0 1 0 0 0 0v-1h1l-1-1h5Zm0 0Zm-2-97v1h-1v-1 1s-1 0 0 0v2h-1 1v1h-1 1v-1h1v-1h1v1l-1 1 1-1h1v-2h1v3l1-1v-1h3v3h-1v1l1-1v-2s0-1 0 0h1v1h3c0 1 0 0 0 0h1v-1h1v1h1v1h-1 1v1-1h2-1v1h-1v1h1v1h-1v1h1v1l1 1v1c-1 0-1 0 0 0l-1 1h1-1v1s1 0 0 0c0 0 0 1 0 0h-1l1 1h-1v1h-1v-1 1h-1v1h-2v1-1h-4v1h-8l-1-1v-1h-1v-1h-1v-2c0-1 0 0 0 0h-1v-1h1-1v-1l-1 1s0-1 0 0v-1h-2v-1h-1v-1h2l1 1v-1c1 0 0 0 0 0l2-1v1l-1-1h-1 1v-1h1-2s1 0 0 0v-1h1v-1h-1v-1h-1v-1 1-1h-2 1v-1m9-2Zm0 0v-3h-1v-2 1l-1-1h-1l1 1 1 1h-1v-1 3m0 0c-1 0 0 0 0 0Zm0 0v-1l-1 1m0 0s0-1 0 0Zm0 0v-1s1 0 0 0v-1c0 1 0 0 0 0v-1h-1v1-1h-1v2-1h-1v1h1v1h-1v-2h-1v1m0 0Zm0 0v1-1h-1l1 1v1h3l-1 1h1v-1 1h1-1 1v1h1-2l-1 1c0-1 0-1 0 0l1 1h1-1v1-1h-1v-1h-1v1-1h-1c-1 0 0 0 0 0h-2v-1m0 0Zm141 203h1l-1 1h1c0 1 0 0 0 0l-1 1h1-1v1h-1v-2h-2l1 1v1h1v2h1v1s-1 0 0 0v2h-1v-2l-1 1v-1h-1v3l-1-1v-2h-1v-1h-1v2h-1v-1l-1-1v-3l-1-1h-1v-1h-1l1-1v-2h2v-1h1l1 1h3v1h1l-1-1h2-1s0-1 0 0v-1h-2l-1-1v1h-3l-1 1h-1v-1 1h-1v-1h-1v-1h-1 1v-1h-1s1 0 0 0v1h-1v1-3l1 1v-1h2v-1h-2v1h-1v-1h-1v-1h-1c1 0 0 0 0 0v-1h-1v-1h1v-1h1l-1-1h1v-1h1v-3h1v-3h4v-1l1-1h2v-1l1 1v-2h2l1-1h2v-1h2l1 1h1v-1l1 1h2v-1h3v-3h1l1 1v2h-1v3h-1v1-1h-5v1h-3v1l-1 1h-1v2h1v-1 1h2v1h-1v-1h-2v1h1l1 1h-1v1-1h-1v-1h-2 1v1h1v1h-2v-2h-1c1 0 0 0 0 0h-1s0-1 0 0v-2l-1 1v3h1v1l1 1v1h1v1h1v2h-1v-1h1-1v-1h-1v2h1v1h-2v1h2l1 1v-1 1h2v1h2v1s0-1 0 0v2l1 1v1h-1v-1h-1v-1h-1v-1h-1v1h-2l1 1v1h1Zm0 0c0 1 0 0 0 0Zm-6-141v1h1v1h1v3l1 1v1s0-1 0 0v1h-2l-1 1h-1v-1h-1v-1h-2v-1h-2v1h-1v1h-1v-3 1h-2v-1h-1v-2h1-2l1-1h-1c1 0 0 0 0 0l1-1h-1v-1l1-1h1v-1h1l1-1h2v-1h9l-1 1v2h-2v1Zm0 0Zm2 4Zm0 0Zm-56 16h1v1s0-1 0 0h1l1 1h-1v1h-2l1-1h-1v3h-1v1h-1 1l-1 1v2h-1l1 1v1h-4v-4l-1-1v1-2l1-1h-1v-1 1-3 1-3 1h1l1 1v-2h2-1v1h1v-3h3v1-1h-5v1h-1v1h1l-1 1v-1h-1v-1h1v-2h4s0-1 0 0v-1l1-1v-1h3-1v4l-1 1v2c1 0 0 0 0 0Zm0 0v1-1ZM60 60Zm0 0Zm66 127v-1 1Zm0 0v-1h-1v1h1Zm5-12Zm0 0Zm3 1Zm-3 14c-1 0 0 0 0 0Zm0 0h1v1l-1-1Zm-29-25v1c0 1 0 0 0 0s1 0 0 0v-1m9-77v-1l1 1v1l1-1v-6s0 1 0 0h2v-3h1v-1h-1v-3h1v-1l1-1-1-1-1-1v-4h-1v-8h1v-1h-1l1-1 1-1v-1h4v-3h-1v-2l1-1v-2h1v-6h2v-3h1v-1l1-1 1-1-1-1v-2h1v-2l1-1h2v-4c0 1 0 1 0 0h2l1 1h1v-1s1 0 0 0v-1l1-1v-1h-1 1l1 1h1v1h1v1h2v1h1v1h1v4h1v3l1 1v5h1v1h1-1v1h-1v-1 1h-3 1l-1 1h1v1h-1v-1s0 1 0 0v2h-1v1m-28 42Zm0 0v1m0 0Zm0 0v3h1v1l1-1v2l-1 1 1 1h-1 1v3l1-1v3l1 1v1l1 1c0-1 0-1 0 0v1s0-1 0 0h-1l1 1h-1v2h1v2h1-1v1c0 1 0 0 0 0v1h4l1-1v-3h1l1-1h-1 4-1 2v-4h1v-4l1-1-1-1h1-1v-1h1-1v-1c0-1 0 0 0 0h1v-1h-1v-1h1v1-2l-1-1m0 0Zm0 0 1 1v-2h-2 2v1-1h1-1 1l-1-1h1v1-1l1 1c0-1 0 0 0 0v-1h1-1v-2 1s1 0 0 0h1l-1-1h1v2-1h1v-1 1-1l1-1h-1m0 0c1 0 0 0 0 0m0 0h1v-1h1-1c-1 0 0 0 0 0h-1s-1 0 0 0l1-1 1-1c-1 0 0 0 0 0v-1h-1m-1 4Zm1-4h1v-1 1-1l-1-1h-1l1-1h-1l-1-1v-1h-1v1-1h-1v-2h-1v-5h1v1-5l-1-1 1 1v-1h-1 1v1-1l1-1v-1l-1-1 1 1v-1 1h1v-1h-1 1v-1h-1 1v-1h1v-1 1h1v-2h1v-1h2v-1l1-1v-2h1v-2h1-1v-1l-1-1v-1h1-1l1-1v-1m-5 36Zm5-36v-1m-10 40c0-1 0-1 0 0h1v1h2l-1-1h1v1l1-1h-2v-1c1 0 0 0 0 0v-1h-1 1v1c0-1 0 0 0 0v1s0-1 0 0v-1h-1v1-1h-2v1-1l-1 1h-1 2m1 0Zm0 0h-1m0 0h1m-1 0h1m0 0Zm14-78V6v1h1c0-1 0-1 0 0h-1v1-1h-1V6l1 1Zm0 0Zm-11 8Zm0 0v1h-1l1-1Zm-10 26Zm0 0Zm26-33h1l-1 1h1V6h1l1 1h2v1-1 1h2v1h-1v1h-1v1h-3 2v1h1l1 1h-1l1-1h1l1 1v1h-2v1s0 1 0 0l-1 1v2h-1v-3l-1-1h-1v-1h-1v-1h-1v1h-1v1c0-1 0 0 0 0h-2v7l-1 1v1h-2v-1h-1v1h-3v-1h-1v-1l-1-1h-1v2h-2v4h-1l-1-1s0 1 0 0h-2v1-1 4h-3v3h-1v4h-1v2h-1v3h-2l-1 1h1v4h-1m28-38Zm0 0h-1 1V7h1V6h-1V5v1h-1s0-1 0 0h-1 1-1v1h1l-1 1v2l-1 1V7l-1 1v3h-1v2h-1v-1h1V8h1-1l-1-1v1l1 1-1-1c0-1 0 0 0 0h-1s0-1 0 0v1-1h-1v1h1v1c-1-1 0 0 0 0h-1l1 1h-1l-1 1v2h1l-1 1v-1 1l-1-1c1 0 1 0 0 0v-1h-1v1-1h-1v1l-1-1v1-1h-1v1h1v1l1-1v1c0 1 0 0 0 0v1h-1v-1c-1 0 0 0 0 0v1h-1v1-2 1h-1 1l-1 1v1h1-1v1-4 1h-1v1-1 3-2h-2v1h1l-1 1h1c-1 0 0 0 0 0v1s1 0 0 0v-1h-1v-1s0 1 0 0l-1 1 1 1h-1s1 0 0 0v-1c-1 0 0 0 0 0v1h-1l1 1c-1 0 0 0 0 0h-1v1l-1 1h1-1 1c-1 0 0 0 0 0v1h-1 1-2v1h-1v-2h-1l1 1-1-1v1h1-1v1c-1 0-1 0 0 0v-2h-1v2h-1v2l1-1v1l1-1v1-2h1v1-1 1h2c0-1 0 0 0 0v-1 1h-2v1h-1l1 1v1l-1-1v-1 1h-1v1h-1v1-1h2-1 1-1l-2 1h1v1h-1 2v-1l1 1-1-1v1h-1 1l-1 1h2-1v1s0-1 0 0v-1h-2v1l-1 1h3v1-1h-4v1h1v-1 2-1s-1 0 0 0v1h-1c0-1 0 0 0 0h-1l1 1h-1c0 1 0 0 0 0v1c0-1 0 0 0 0v1-1h1l-1 1s0-1 0 0h-1v1h1l-1 1v-1 1h1-2v1h1v1h1-1v-1l-1 1v1h-1v1h1v1h-1c1 0 0 0 0 0s0 1 0 0v2h1v-1 1h-1v-1 1l-1-1v1h-1 1v1l-1-1v1h-1v1h1v-1 2h-1l1 1v-1 1h-1v-1 1h1-1v1-2h-1v1h-1 1-1v1h-1c0 1 0 0 0 0v1l-1 1h1-1v1-1l-1 1h1-1v1h1v-1 2-1h-1l-1 1v1-1h-1v1h-1v1h-1v-1 2h1v1-1h-1v-1l-1 1h1v1h1v1l-1-1v-1h-1c-1 0-1 0 0 0v-1h-1v1-1h-1v1h-1 1v1h1v1-1h2l-1 1h-1v1-1h-1s0-1 0 0h-2v-1 1h-1 2v2h1-1v-1h-1v2-2h-2v1l1 1h-1v-1 1l-1-1v1h-1l1-1c0 1 0 0 0 0v1h1v-1h-1v1l-1-1v2-1h-1l1 1h1v1h2-1 1-2v-1h-1v1h-1v1h1l-1 1h1c0 1 0 0 0 0h-1v1s0-1 0 0v1h1-1l1 1v-1h2v1h1-5 1-1v1h1v1l-1-1v1-1 1h1-1l1 1c-1 0 0 0 0 0h1v-1m0 0v1h-1l1 1v-2h1v1h-1v1h-1v-1h-1 1v3h1v1h1v-1c0-1 0 0 0 0 0-1 0 0 0 0l1-1m-2-3Zm2 3Zm0 0-1 1v1h-1v2h-1v-1 1h-1 1v-1c0 1 0 0 0 0v-1h-1 1-1v1h1-1v1c0 1 0 0 0 0v1l-1 1h1v1-1l1 1v-1 1-1h1c-1-1 0 0 0 0v-1 4h-1v-1 1h-1v2h1v1h1v1h1v1h1-1v1h2v1-1l1 1h1v-1h1v1-1h1v-1h1l1-1v-1h1v-1h1l-1-1h2v-1l1 1c0-1 0 0 0 0l1-1v-1m0 0Zm0 0v1-1h1l-1-1v-1h1v-1h-1v-2h1v1s1 0 0 0v5h2v2h1v-1h1v-2l-1-1v-1h1v-2h2v-7h1v-3l-1-1h-1v-2c1 0 0 0 0 0l1-1v-1c-1 0 0 0 0 0h-1v-9l1-1v-1h1v-1h4v-2l-1-1-1-1h1v-2h1v-2h1v-1h-1m0 0h1m-13 12v1h3c-1 0 0 0 0 0h-1l1-1h-1l1-1h1v-1c-1 0 0 0 0 0v-1 1h-1 1v1h-2v1h-2Zm0 0Zm45-45Zm0 0ZM97 64h-1 1Zm0 0Zm-5 9Zm0 0v-1 1-1h1v1h-1Zm4-9h-1v1l1-1Zm0 0v1-1Zm10 106h-1c0-1 0 0 0 0h-1v1l1 1h-1v-1h-2v-1h-1v2h-1v3l-1-1v-1l-1-1v-2h-1l-1 1v1l-1 1h-2l-1 1h-2c1 0 0 0 0 0v1h1v2h1-1l1 1h-2l-1 1h1v1l1 1-1 1v3h2v1h2-1v2h2v-1h1v-1l1-1 1-1h1l1 1h1l1 1h1v1-1 1h1l1 1c-1 0 0 0 0 0a15 15 0 0 1 0 2v1l1 1v2h1v1l1 1 1 1h-1l1 1h2v2h1v1h1v1h1v1s0-1 0 0h1v1h1l1 1h3v1h1v1h1v1h-1v1h1v-1h1v1l1-1-1 1v1-1h3v3h1v1h1c-1 0 0 0 0 0h1l1 1v2h1v3l1 1v1h-1l-1 1 1 1-1 1v3h2v-2h1v-1h1v-3l1-1h2v-2h-1l1-1h-1v-1h-1v-1h-1l-1-1h1v-3h1v-1h2-1 1l1 1h2v2h1v1h2v-3l-1-1-1-1-1-1h-2v-1h-1v-1h-2v-1h-2v-1h-2l-1-1 1-1h1v-1l-1-1c0 1 0 0 0 0h-1l-1 1h-2l-1-1h-1v-1h-1v-1h-1v-1h-1v-1l-1-1v-3h-1v-2h-1l-1-1-1-1-1-1h-1v-1h-1v-3h-1l1-1c-1 0 0 0 0 0h1v-1l-1-1v-1h-1l1-1v-1h1v1l1-1h1v-1h2v-3h-1v-2h1v-1h-4v-1h-1v-1h-1v-1h1-1c0-1 0 0 0 0h-4v1h-1v1l-1-1h-1v1l-1 1h1Zm0 0Zm0-52h1s-1 0 0 0h1v1l2-1v2h-1v1h2l1-1h1l1-1v-1h2-1v1c0-1 0 0 0 0h1v-1l1 1 1 1v1-1h1v2h1v1h1v-1 1l1 1v1h-1v4h1v4h1l-1 1v1c0 1 0 0 0 0v1h1v1l1 1c-1 0 0 0 0 0v1l-1 2h-1v-1h-1v2h-2v1h-1l-1 1h-2v1h-1v1h-1v-1 2h1v2l1 1s-1 0 0 0v2h1l1 1s0-1 0 0h1v1h1v1l1 1v1h-2v1l-1 1h-1v1s-1 0 0 0v4-1h-1v-1l-1 1h-1v-1s0 1 0 0v1h-2l-1 1h-2l-1-1c0 1 0 0 0 0h-1v1l-1 1s-1 0 0 0h-1v-1l-1-1v1h-1v-1h-1v-1h-3v-1 2l-1-1-1 1h-1l-1-1v-3h1v-1l1-2v-1s0 1 0 0h1v-2h-3s1 0 0 0v-1 1l-1-1h-1l-1-1h-1v-2s1 0 0 0l1-1h-1v-2h-1l1-1 1-1v-1h-1v-2h-1 1v-1h-1v-1h1l1-1h-1l1-1v-1h-1s0-1 0 0v-2h1v-1 1h1l1-1v-1h1v-1h1v-1h-1l-1-1h2v-2h1v-2h-1c1 0 0 0 0 0v-2l1-1h3v2-1h1v-1h1c0-1 0-1 0 0h2-1v-1h-1v-1h1-1l1-1h-1v-1c0 1 0 0 0 0h1m4 0h-1 1Zm0 0v-2h-1v-1h-5l1-1h-1v2-1h1v2l1-1v2m0 0Zm-45 12v1h-1v1h-2l-1-1h-2v1h-1v1h-1v1h-1v1h-1v1h-2v1h-1v1h1l1 1v-1c1 0 0 0 0 0l1-1v1s0-1 0 0l1-1h3v1h1v1-1h1v-2c1 0 0 0 0 0h3l1 1v1-1h1l1 1v-1s-1 0 0 0h2v-1h1v1h1v1h1v-1l1 1v-1h1v1h3l1-1v1l1-1 1-1c0 1 0 0 0 0v-1h1v-1h-2s0 1 0 0v1h-1 1l-1-1h-1s1 0 0 0h1-1l1-1v1-1h1v-1h-1 2v-1m-15-1h1-1Zm0 0-1 1h-2v-1h-1v-1h-2 1v-1h-3l1-1h-1v1-1h-1 1v-1h-1 1v-1h1v1-1h2v-1h1v-1h1l-1-1h1v-1l-1-1v1h-2l1-1h1v-1h1v-1h4s0 1 0 0v1m0 0Zm0 0v-1l1 1v-1l-1-1s1 0 0 0h1l1-1h-1v-1h1v-2h-1v1-1c0-1 0 0 0 0l-1-1h1l-1-1v-1h1v-1l1-1h-2v1h-1v-1h-1v-1 2l-1-1-1-1v2-1h-1v-2h1v1-2h1v-1h1v-2h-1 1v-2 1h1v-1h-1v-1 2l-1-1v2-1h-1l1-2-1 1v-1 2l-1 1v2c0-1 0 0 0 0h-1v-2h1v-1h1-1v-1l1-1s-1 0 0 0v-1c-1 0-1 0 0 0v-1h1v-1h1v-1h-1v1h-1v-1s-1 0 0 0l-1-1h2-1v-1s1 0 0 0h2-1v-1h1-1l1-1s0 1 0 0h-1 1v-1 1h-1v-2h1v1h1l-1-1v-1 1-2 1h1v-1l1 1-1-1h1l-1-1h1v-1h1v-1l1-1 1 1h-1 1v1l1-1v1-1h1v1l1-1 1 1v-1 1l1-1v1h-1l1 1h-1v1h-1v1h-2v1h-1 2-1v1h-2 2-1v1h-1 2l2-1v1h4v1h1l-1 1v1h-1v2h-1v1h-1v2h-3 2v1l-1 1h-3 1v1h2v-1l1 1 1 1 1 2s0-1 0 0l1 1-1 1v2h1v3l1 1h1v3h1l-1 1c1 0 0 0 0 0a2 2 0 0 0 1 1v1h-1v-1h-2v1h2v1h1v3l-1 1 1 1 1-1h2v1h1v1l1 1v1l-1 1v2h-2m0 0v-1 1Zm0 0Zm79-18v3h-2l-1 1h-5l-2-1h1l1-1h-2v1-3h2v-1l1-1v1l-1 1h2v-2h3l1 1h2v1Zm24-74v-1h-1v1h1Zm1-2h-1l1 1v-1Zm-1 4Zm-9-10Zm-3-3v1-1Zm5 4Zm7 11Zm1 0h1l-1-1v1Zm-13 30v-1 1Zm0 1h1-1Zm0-1v1-1Zm73-15-2-1 1 1h1Zm-24 96s1 0 0 0h1-1v1-1Zm-4 4s1 0 0 0h1v-1 1s0 1 0 0h-1Zm-8 8h-1l1-1v-1l1-1h1v-1h1v-3 1-1h1v1h3v1-1h1v1-1 1h2v2h2l-1-1h-1v-1h-1v-1h-1v-1 1l-1-1h1-1l1-1v1l1 1 1 1 1 1h1v1-1h1v-1h1l1-1h1l1 1h-1v3h-4v1l-1 1v1h-2v2l-1 1-1 1h-1l-1-1h-1 1v-3h-1l-1-1v1-1h-3Zm-44-9h-1l-1-1v-3s1 0 0 0v-1h1v-1h1l-1-1v-4h1v-2h1v-1l1-1v-1h1v-3h-1v-1l-1-1v-2h-1 2v-1h1v-2l1 1v-1h2v-1h3l1 1h6v1l1-1 1-1v1h1v-1l1 1 1-1h1v1l1-1h1l1-1h1v1h1v-1h-1v-1h1v-2h1v-1h1v-1h3v-2h3v-1h1v-1h2l1 1v1h1v1l1 1h-1v1l1 1v1l1-1h3l1 1h-1l1 1v2h6v-1h1v-1h1v1h1l1 1h1v-1h5c0 1 0 0 0 0h1v1h1l1-1v2h1s-1 0 0 0v1h-1v2h1-1v1h1v1l1 1v3l-1 1h-2v2l-1 1v4h-2v1l-1 1h-1v2c-1 0 0 0 0 0l-1 1v-1h-1v1h-2v1h-1c1 0 0 0 0 0v1h-1v1h1-1v1-1l-1 1v1h-1v2h-1v-1h-1s1 0 0 0c0 0 0-1 0 0h-1 1-1c0 1 0 0 0 0h-1l-1 1v1l-1-1v1-1l-1 1h-2 2v1h-6v-1s-1 0 0 0h2v1l1-1h-2v-1h1-3 2v-1 1l2-1h-2v-2h-1 1v2h-2v-1 1h-1 1l-1 1v-2h-1v-1 1l1 1v1h-1v2l-1 1v2h-1v2h-1v-1s1 0 0 0v2l-1-1v1h1v2h-1v-1h-1v1h-1v1h-3v-1h-1 1l1-1v-2l1-1v-2h-1v-1l1-1v1l1-1 1 1v-1h1v-2h-2v-1h-1v-1h1l-1-1v1-1h-1l-1-1h1v-1l-1-1h-1v-1h-4v-1h-3v1-1 1h-2 1-1v1h-1v1l-1 1h-1v1h-2l-1 1h-1v-1h-7l-1 1c0-1 0 0 0 0l-1-1Zm28 46h1-1Zm-7 3h-1v1h1v-1Zm7-3Zm1-1h-1 1Zm-7 7s-1 0 0 0Zm-1-5h2v-1h2-1v1h-1v1h-1v1h1l-1 1h1v-1l1-1v-1h1l1-1 1-1v-2h2l1-1h2s0-1 0 0h1v-1l1 1v-3s0 1 0 0h-4v-1h-1v-2h-1l-1 1h-1l-1-1h-1v1h-1v1h-1s1 0 0 0v1l1 1v2h-1v3h-1v2Zm11-2h1v-1l-1 1Zm3-3Zm-1 28h1-1s0-1 0 0h-2l-1 1h2v-1h1Zm-9-16s0 1 0 0Zm18 18s1 0 0 0Zm69-32h-1v-1h-1v-1h-1v-1s-1 0 0 0v-2h-1v-1h-1v-2l-1-1-1-1v-1h-1 1v-1l1-2v-1h-5l-1-1v-3l-1-1h-1v-1h-1l-1-1h-1l-1-1v2h-3l-1 1h-1l-1 1v1l-1 1-1 1-1 1-1 1h-3l-1 1h-1l-1 1h-1v1h-4v-1h-1v1h-5v1h-1v-1h-1v-1h-1 1l-1-1v1h-1l-1 1-1-1h-1v-1h-1l-1 1h-2v1h-4l-1 1-1 1h-1l-1 1v1h-1v1l-1 1h-1v1h-1v2h-5v1h-4v1h-1v1l1 1h1v1h-1l-1 1v1l1-1s0 1 0 0h1l-1 1h-3l-1 1h-1l1-1h-2v1h1l-2 1h-1v-1h-1v1h-1l-1 1-1 1v1l-1 1v3h2v-1h2s0-1 0 0v1h-1v1h1v2h1v1h-1v1h1v1h2-3v1-2h-1v2-1 2h4v1h1v1h-1v1h1v2h1s0-1 0 0v-1 1c1 0 0 0 0 0h1v1h-2v1h3l1-1h1l1-1v1h-1l-1 1 1 1h-1 1v1l1-1v-1h1-1 1s1 0 0 0h1c0 1 0 0 0 0l1 1v-1h1v2h2c0 1 0 0 0 0l2 1v-1h1l1-1h1v-4h1l2-1h1v1h4v1h1v1h4v-1h2v-1h1l1-1h-1 1l1-1h-1 1v-1l1-2h5v-1c0-1 0 0 0 0l1-1v-1h1l1 1h-1v2h-1v1h1v1h1v1h-1 2v-2h1v-1l-1-1v-3h3v1l1-1h1l1-1 1-1h1v-1h2l1 1h1c0-1 0 0 0 0l3-2 2-1 1-1v-1l2-1 3-1 1-1h1v-1l1-1h1v1h1v-2l1-1h2v-1l1 1h1l1-1v-1h1l1 1v1l1-1v-1h1l-1-1Zm-53 11v1s-1 0 0 0h-1l-1-1h-1v-2h1l-1-1h1v2h1v-1 1h1v1Zm44-16v1h1l-1 1v1h-4v-2l1-1h1l1-1h-1l1-1h2l-1 1v1Zm-69 36h1-1Zm9 1Zm-93-61-1-1v1h-2v-1h-1v-2l1-1h-1v-1h-1v-1h-2v-1h-1v2l-1-1-1 1h-1l-1-1v1h-1v1l-1-1v1h-1v2h-1v1l-1 1-1 1v2h-1 1l1-1h2v3h4v-1h1l-1-1h1l1-1h1v3h1v1h1v-3h1v-1h1v1h2v1-3h1v1-2h1c-1 0 0 0 0 0Zm25 1v-1h-2v1h-4l-1 1h-1v1-1h-4v1h-1v1h1v1l-1 1h1v1l1 1v1h-1 1v1h1v-1h2v-1h1v1h3v-2h1v-3h1v-1h2-1v-1h1v-1Zm13-18-1-1v-1h-1v1h-1v1h-1v-1h-2v1h-1v2h-1v1h-1l-1 1-1-1v1h-1v1s0-1 0 0v3h1l1 1v1h6v-1l1-1h2v-1h2l1-1h1v-1l1-1h3v1h3v-4h1v-1s0-1 0 0l-1-1h-1v-1h-4l-1 1h-3v1h-1Zm17 38-1-1h-1v-2h-1v-2l1-1v-1l-1-1v-1h1-2v1h-1v-1h-3v-1h1v-1h-1v-1h-1v-1h-1l-1-1v-1h-1v-1l-1-1h-1v-1h-3l-1 1h-1v1h-1 1v3h1l-1 1h2v1h-1v2h1v4h1v1h1v1h-1v1h1v1l-1 1 1 1 1 1h1v1s1 0 0 0h2v-1h1v-1h2v1h1v1h1v1h1v3-1h2v-1h1v1l1-1-1-1v-2h1v-1h1v-1Zm27-18v-1h-1c1 0 0 0 0 0h-2v1h-3v-1h-1 1-1v-1h-1 1v-1h-1v-7h-1v-1h-1v-1h-1l-1-1v-1h-1v-1l-1-1v-1h-1v-1h-1v1h-1l-1 2h-1v1-1 1h-2l-1 1h-1v-1h-7l-1 1c0-1 0 0 0 0l-1 1h-1v1h-1v2l-1 1v3c-1 0 0 0 0 0h-1v2h-1v2h-2v1h-1c0-1 0 0 0 0h-1v1h1l1 1v1h1v1l1 1s0 1 0 0h1v1h1v1h1v1h-1v1h3v1h1v-1h2-1v1l1 1 1 1h1l-1 1v1h7l1-1h5v-1l1-1v-1h2l2-1h4v1h3v-5l1-1v-1h1v-1h1v-2Zm-13 8Zm11-5-1 1c1 0 0 0 0 0v-1h1ZM30 191l-1-1v-2h-6v-1l-1 1v-3h-1s0 1 0 0h-1v1h-1v1h-1s1 0 0 0v1s1 0 0 0v1l1 1h-1v4-1 1h-1 1l-1 1v1h-1v2l-1 1v1h-1v1l-1 1h-1v2s-1 0 0 0l-1 1v2h1v2l1-1v1-1h1v1-1 1c-1 0-1 0 0 0v1h-1v2h-1 1v1l-1 1v1l-1 1v2l2-1v1h2v1h2l1-1v-1h1-1v-1l1-1h1v-1h2v-1h-1v-2h-1v-1h1v-1l1-1h1v-1l-1-1v-2l-1-1 1-1v1h2v-1h1v-2h-1l1-1h1v-5h1c0 1 0 0 0 0l1-1h1v-1h1v-1Zm-4 4ZM6 217H5c0-1 0 0 0 0l-1-1v2h2l1-1H6Zm-5 3v1h1v-1H1Zm0 1h1-1v1h1l-1-1Zm6 3v1-1Zm2-1Zm-1 1v1h1l-1-1Zm8 3-1-1v1l-1-1v1h2Zm0 2v1c0-1 0 0 0 0v-1Zm-5-6c0 1 0 0 0 0h-1v1h1v-1Zm-2 1H8h1Zm150-85v-1l-1-1-1-1v-2h-1v-4c0 1 0 0 0 0h-2v-1h1v-1l1-1h1v-3h-1v-3h-1v-2s-1 0 0 0l-1-1v-1l-1-1h-4l-1 1h-5l-2-1v1h-1l-1 1v-1h1l1-1h-1v1h-1v1h-2v-1h-1v-2h1v1-1h-5l-1 1h-1v1h-1v1h-1v1h-2l-1 1h-2v1h-2v1h1l1-1v1h-1l1 1v2-1l-1-1v-1h-1v1l1 1v1h-1v4h1v4h1l-1 1v2h1v2h1v1l-1 2h1v-1l1 1h1v1h2v1l1-1 1 1-1 1 1 1v1h2v-2h1v1h1l1-1v2l1 1v-1l1 1h1v1h1v1h1v2h1v-2h2v1l1 1h1v-1h3v-1h4v1h2v1h2l-1-1v-4l1-1v-1h1v-1l1-1v-1h1v-2Zm28 23v-2h-1c0-1-1 0 0 0h-1v-1h-1v-1h1l-1-1s0 1 0 0h-1l-1-1 1-1-1-1v-1 1h-1v-1h-3v-1h-4c0 1 0 0 0 0l-1 1h-1 1-1v1h2v1l1 1v1h1v1l1 1h1v1h1v1l1 1v6h1v1h-1l1 1h1l1-1v-2l1-1v-2h-1v-1l1-1v1l1-1 1 1v-1h1v1-1c1 0 0 0 0 0Zm-64 77h1v1-1 1l-1-1Zm1 1h1v1h-1v-1Zm39-40v-2l-1-1v-1h-2v-1h-1v-1l-1 1h-2v1h-2v1-1l-1 1h-1v2h-1v5h1v1h1l1 1h2v-1h2v-1l1-1h3v-2c0 1 0 0 0 0h1v-1Zm1-93-1-1v-1c1 0 0 0 0 0l-1-1h-1v-1h-1v-1l-1 1-1-1s0 1 0 0h-1v-1h-1v1h-2v1-1c0 1 0 0 0 0h-3l-1 1v-1l-1 1h-2l-1 1h-1v2h-1v2l1 1-1-1v3-1h1v-1 1h1v1h2l1 1h2v3l1 1h2v2h2l1-1v1l1-1h1v-1h1v-1h1v1h1v-2h-1l1-1v-1l-1-1 1-1h1v-1l1-1v-1Zm-14-14h-1 1Zm15 0h-1v-1h-2l-1 1h-1v-1h-1l-1-1h-1v-1h-2v1h-1l-1 1v2l1 1v2h-1v1h-2l-1-2h-1v-1h-1v-1h-1l-1 1h-1v1l-1 1v3h-1v4h1v2h1v-2h1l1-1h4v-1l1 1v-1h2v1s0-1 0 0l1-1h1v-1l1 1v1l1-1v1l2-1v1h1v-1h1v1-1l-1-1v-1h1l1-1v-2s-1 0 0 0v-2l1-1c0 1 0 0 0 0h1c-1 0 0 0 0 0v-1Zm-9 100h-1v-1h-1v-1h-1l-1-1h-1v1l-1 1v1h-2v1h1v2l1 1h1v2h1v-2h1v-1h1v1-1h2-1v-1h1v-2ZM31 119h1v-1h-2v1h1Zm1 6v-1 1Zm0-1c1 0 1 0 0 0Zm16-9Zm-5-14h1-1Zm-1 2v-1 1Zm-8 10 1 1v-1h-1Zm1-7h1v-1l-1 1v1-1Zm0 6v1-1Zm-1-3h-1 1Zm1 0h-1 1Zm0-2v2-1l1-1h-2 1Zm235 68-1-1-1-1v-2l-2-1h-2l-3-3-1 1h-2l-3 2-2-1h-2l-1-1-2-1-1 1h-2l-1 1-1-1h-2l-3-1h-1v1h-2v1a4 4 0 0 1 1 1v1h4l3 1v1l1 1 1 2v1h1l1-1h3v-2l1 1h1v1h2v1h1l1 1v3l3-2 2-1h1l1-1 1-2 2 1h3c1 0 2 1 1-1ZM29 36h1-1Zm-1-18h1-1Zm1 12Zm0 0Zm10-6-1-1v1h1Zm-1-3Zm-8 2h-1 1Zm0-2Zm0 0h1-1Zm127 137-1-1h-1l-1-1h-3v-1h-3l-1 1v1h-1v1h-3v1h-2l-1 1v1h-6v-1l-1 1h1v1h-3l1 1v1h-1v3h-1l1 1h-1 1v2h1l1 1v1h1l1 1h1v1h4v-1h2v-1h1l1-1h4v-1l1 1v-1h2v-2l1-1v-2h1l-1-1h1v-2h1l-1-1h1v-1l1-1h1v-1h1Zm10 57Zm2-2v1-1Zm-1 2h1v-1h-1v1Zm1-1v1-1Zm-1 1h-1 1Zm6 16v-1h-1v1h1Zm-1-3 1-1h-1v1Zm-2-6c1 0 0 0 0 0Zm1 0h1v-1h-1l-1-1v-2h-3v-1h-1v-1s-1 0 0 0h-2v1h-1v1l1-1 1 1h1v1h1v1h3v2h1Zm-7-7v1-1Zm2 0h-1 1Zm5 10v-1 1Zm3-20c-1 0 0 0 0 0h1-1Zm-2 7h1v-1h-1v1Zm1 12v1-1Zm-4-11h-1 1Zm2 19Zm1-6v-1h-1v1h1Zm-1-11h-1v1s1 0 0 0h1v1h1v-1h-1 1l-1-1v1-1Zm1-7v1h1v1-1 1h1v-2h-1s-1 0 0 0h-1Zm-3-3h1v-2 1h-1v1Zm7 21v-1h-1 1v1Zm0-9v1-1Zm-1 6c0 1 0 1 0 0h-1s0 1 0 0v-1h-2 1v1l1 1h2l-1-1Zm-4 7Zm12-6v-1 1Zm0 1v-1 1Zm-1 2v-1 1Zm-1-4h1v-1h-1v1Zm0 0Zm1 10h1v-1l-1 1Zm0-9v1-1Zm0-2h2v-1h-1s1 0 0 0h-1s0 1 0 0v1Zm-1 5Zm2 6Zm-1-4h-1l1 1v-1Zm-2 3v-1h-1v1h1Zm-4-4v-1h-1v1h-1v1h1v-1h1Zm1 2v-1h-1v1h1Zm-3-1-1-1v1h1c-1 0 0 0 0 0Zm4 3v-1h-1v1-1 1h1Zm3-2Zm-7-4v-1 1Zm-1 3v1c0-1 0 0 0 0v-1Zm4 9s0-1 0 0Zm3-16v1h-1v1h1v-1s0 1 0 0h1v-1h-1Zm-1 5v-1h-1v1h1Zm1 1v-1l-1 1v1l1-1Zm4-5h-1 1v1-1Zm-2 17h1-1Zm-13-14v-1c0 1 0 0 0 0v1Zm3 17h1-1Zm8-2h1-1Zm4-11v1-1Zm-1 8h-1v1-1l-1 1h-1v-1h-1v1l-1-1v1h-2v-1h-1l-1 1h-1l-1-1v1-1h-2v-1s0 1 0 0v2l-1-1v3h1l1-1 1 1v-1h2l1 1 1 1v-1h1c0 1 0 0 0 0h2l1-1h3v-2Zm-17-13v-1 1Zm0-1Zm1 0h-1l1 1v-1Zm17 7Zm-17-8h-1v1l1-1Zm19 4v-1l-1 1v1h-1 1l1-1Zm2 3v1l1-1h-1Zm1-2Zm0 2Zm-2-1v1h1l-1-1Zm4 0v-1 1h-1l-1 1v3h1v-2h1v-2Zm-38-23Zm33 22v1-1Zm-12 3h1l-1-1v1Zm11-5h-1v-1h-1l1 1v1l1-1Zm1 10v1h-1 1v-1Zm0-8h-1 1Zm1 7v-2s-1 0 0 0v1h-1v2h1-1 1v-1Zm-9-7h-1v1h1v-1c0 1 0 0 0 0Zm-29-13s-1 0 0 0l-1-1v-1c1 0 0 0 0 0h-1v1h1v1l1 1v-1Zm29-3h-1v1h1v-1l1 1h-1v1h2v-1s-1 0 0 0h1-1v-1h-1v-1h-1v1Zm-32 1Zm4 4h-1 1Zm0 0Zm29 0h1-1Zm-3 13h-1 1Zm1-5v-1h-1v1h1Zm0-8 1 1v2h1v-3h-2Zm0 9v1h-1 1v1h1v-2h-1Zm-24-2h1v-1h-1v-1h-1v-1 1h-1v1h1v1h1Zm15 3h-1v1l1-1Zm-3 6h1-1Zm2 3 1 1-1-1Zm0-10c0-1 0 0 0 0Zm0 4c0-1 0 0 0 0h1-1Zm-1 4s-1 0 0 0h-1v1h1v-1Zm-13-13s1 0 0 0Zm0 0Zm6 11h1-1Zm-7-11v1h1v-1h-1Zm3 5-1-1h-1v1h1v1-1h1Zm4 6Zm-68-44Zm66-113Zm-1 0s1 0 0 0h1-1Zm0 0Zm0 0Zm-1 0h1-1Zm0 0h1-1Zm0 0Zm0 0Zm0 1v-1 1Zm-1 0Zm-1 1Zm0 0Zm0 0Zm-6 3h1v-1 1h-1Zm-1 0h1-1Zm0 0c0 1 0 1 0 0Zm-1-34 1-1h1v1h-1c0 1 0 0 0 0h-1Zm1 33Zm0 0 1 1h-1v-1Zm-1 1Zm0 0Zm0 0c0-1 0 0 0 0Zm-1 0h1-1Zm0-1v-1h1l1-1v2h-2Zm0-1Zm0 0Zm0 0Zm0 1v-1 1Zm0-1c-1 0 0 0 0 0Zm-1 0 1-1h-1l1 1v-1 1h-1Zm0 1v-1 1Zm0 0Zm0 0Zm0-1c-1 0 0 0 0 0Zm0-1h-1 1v1-1Zm-1 3c1 0 0 0 0 0h1-1Zm0-1 1-1v1h-1Zm0 2Zm0-4v-1 1Zm0 1v-1 1Zm0 0Zm0-1Zm0 1Zm0 0Zm0-1Zm0 1c-1 0 0 0 0 0Zm0-23h-1 1v-1h1v1h-1Zm0 24Zm-1-24h1-1Zm0 1Zm0 20v1-1Zm0-18Zm0 21v-1 1Zm0-9Zm0 7c0 1 0 1 0 0Zm0 0h-1l1-1v1Zm-1-1h1-1Zm0-4c0 1 0 0 0 0s1 0 0 0Zm0-14h1-1Zm0 18Zm0-2s1 0 0 0c0-1 0 0 0 0 1 0 0 0 0 0 0 1 0 1 0 0Zm0 3Zm0 0c0 1 0 1 0 0Zm0 4Zm0 0v-1 1Zm0-23h-1l1-1v1Zm-1 20h1-1Zm1-20h-1l1 1v-1Zm-1 21v-1s0 1 0 0v1Zm0-1Zm0-18Zm0 20v-1 1Zm0-1Zm0-18-1-1h1v1c-1 0 0 0 0 0Zm-1-3h1v1l-1-1Zm0 3c1 0 1 0 0 0Zm0 3v-1 1Zm0-2Zm0 18h1-1Zm0-1c1 0 0 0 0 0Zm0-21Zm0 20Zm0 1v-1 1Zm0-20h1v1l-1-1s0 1 0 0Zm0 19Zm0 1Zm0 0s0 1 0 0Zm-1-18h1-1Zm0 19h1-1Zm0-2h1v1h-1v1h-1v-2h1Zm-1 0h-1 1Zm-1 1h1v1l-1-1Zm0 0Zm2-56h3l1-1h1v1h2v-3h1l-1-1v-4h1v-2h2v-1h1v1h1v1h2v5h-1s1 0 0 0h1v4h1v1h2v1l1 1h1l-1 2v3h-1v1h1v1h1v1h1v2h1v1l1 1-1 1v3h1v2h1v3h2v4c-1 0 0 0 0 0l1 1 1 1h1l1 1h1v4l-1 1v1l-1 1v1l-1 1v2l-1 1v1h-1v3h-1v1h-1v2h1-2v1h-2s1 0 0 0c0 0 0 1 0 0h-1v1h-1v-1 1l-1 1h-1v1h-2v1h-2v1h-1v-1l-1 1v1c0-1 0 0 0 0h-1 1l-1-1h1-1v-2h-1v1l-1-1h1-2s0-1 0 0v-1h-1s0 1 0 0h-1v-3h-1l1-1h-1l1-1c-1 0 0 0 0 0l-1-1h1l-1-1h1v1-1h-1v-2h-1v-1h1v-1h-1c0-1 0 0 0 0v-2h-1v-1l1-1v-3 1h1v-1c1 0 0 0 0 0v1h1v-3h1-1 1v-1 1-1h1v-2c1 0 0 0 0 0h1v-2h1v-2h1v-2h1v-1 1h1l-1-1h1v-1c0 1 0 0 0 0h-1v-2l-1-1v1-1h-1v-1h-2v-1h-1v-5l-1-1v-3h-1v-4l-1-1h-1v-1h-2v-1h-1v-1h-1v-1h-1l1-1v1-2h1l1 1 1 1v1Zm13 60h-1 1Zm-2 0s0 1 0 0Zm2 0h-1 1Zm-6 4h1v1h1v-1h1v-1l-1-1h-1v1h-1v1Zm7-6Zm2 0s0-1 0 0Zm-1 0Zm1 0v-1h-1l1 1Zm-5 4h-1v1h1v-1Zm0 4s0-1 0 0l-1-1h-2v1h-1v1-1h-1l1 1v1l1 1h-1 1-1l1 1v-2h2v-1l1-1Zm2 2h1-1Zm-2-4v1s0 1 0 0v1h1l-1-1v-1Zm-4 3h-1 1Zm2 1v1-1Zm1-5Zm-1 1h1-1Zm-41 16h1v1h-1v-1Zm-6 7Zm8-1h1v-1h-1v1s0 1 0 0Zm-6-7-1 1h1l1-1s-1 0 0 0h-1Zm1 0h1-1Zm9 7 1 1v-2 1h-1Zm-2-9h1v-1h-1v1Zm0 8v1h1-1v-1Zm-2 0c-1 0 0 0 0 0Zm-7 3Zm0 2v1-1Zm0-1Zm0 0v-1h-1 1v1Zm10 3v-1 1Zm1 0h-1v1-1h-2l1 1h-1 1v1h2v-2Zm1 0h-1v2h1v-2Zm-3-2v1-1Zm14 0h-2v1h1l1 1v-2Zm-13 2Zm4-5v-2l-1-1h-1v3h-1v-2h-1v1l-1 1v-1h-1v1h1c-1 0 0 0 0 0h-1 1c0 1 0 0 0 0v3h2v1h-1 1l1 1 1-1-1-1h2v-1h-1v-1h1v-1Zm-8-1v1-1Zm8 5h-1v1h-1 2v-1Zm-6 0v-1 2h-1v1h1v-2Zm-2 0h-1 1Zm0 0c0 1 0 0 0 0Zm0 0h2v-3h-1v-1 1s0 1 0 0h-1 1l-1-1v1-1 1h-2v1h1l-1 1h1s1 0 0 0v1h1Zm-1 0h-1v1h1v-1Zm2 0v1-1Zm-1 1v1h1l-1-1ZM60 61c0 1 0 1 0 0Zm0 2v-1h-1v1l1 1v-1Zm-2-5h1-1Zm3 2c0-1 0 0 0 0Zm0-2v-1 1-1h-1v1h-1v1h1v1h1v-1s-1 0 0 0h-1v-1s1 0 0 0v1h1v-1Zm1 0v-1 1h-1v1h1v-1h1-1Zm-1 2h-1v1h1v-1Zm78 89c1 0 0 0 0 0v-2h-2l-1-1v1c0-1 0 0 0 0l-1-1v-1c0 1 0 0 0 0v-1 1h-2v-1h-1v2h-2v-4l-2 1v-1h-2v-1l-2-1v1h-2v-1l-1 1h1-1v1h-2v1h-1v1h-3v1h-1v1-1h-1v2h1l1 1h-1v1h1v2l1 1h1v1h1v1h1v1h1v2h2v-1l1 1h1v-2l1-1h1l1 1h4l1 1c0-1 0 0 0 0 1 0 0 0 0 0l1-1 1-1v1l1-1h1v-1h1v-2h1v-1h2l-1-1Zm-8-3Zm0 0Zm0 0Zm-1 0Zm94 79-1 1h-1v1h-1v1h-1l-1 1h-3v2h-1v1h-2l1 1v1h2v1l1-1 1 1v-1l1-1h1v-1h1v-1h1l1-1h-1l-1-1h1v-1l1-1v-1s1 0 0 0h1v-1Zm-99-41v1-1Zm0 1h-1 1c-1 0 0 0 0 0Zm0-1Zm-1 0s0 1 0 0Zm1 1Zm1 1-1-1v1h1Zm-1-4v-1h-1v1h1Zm-2-2h1v1l1-1h-1v-1h-1v1Zm-1 3h1-1v-1 1Zm1-2h-1 1v2h1l-1-1v-2 1Zm0-2h-1v1h1v-1Zm1 6c0-1 0 0 0 0Zm0-1h-1 1Zm0-1h-1v-1 2h1v-1Zm-1 0h-1l1 1v-1Zm11 11v1l1-1h-1Zm0-3-1-1h-1v1h2Zm-1 1h2-2v-1h-1v1h1Zm-2-2h1-1Zm13-12v-1h-1v-1h-1v-3h-2v1h-4v-1h-1l-1-1h-1v-1h-1v-1h-2l1 1h-2v1c0-1 0 0 0 0h-1v3h-1v2h-3v-1s0 1 0 0h-1v1h-2v1h-2v-1c0 1 0 0 0 0v3h1v2h1v-1h1v-2l1-1s0 1 0 0v1s1 0 0 0h1l1 1v3h1v1h1v1-1h-1v-1h-1v-1h-1l1 1v1h1v1s0-1 0 0v1l1 1s1 0 0 0v-1 1h1v1h1l1 1v1h1v-1h1v1h2v1h1v1h1l1 1h1-2c0-1 0 0 0 0h-1v-1 1h1l1 1h2v1h1l1 1h1-1v-1a6 6 0 0 0-1 0l-1-1h-1v-2h-1v-1h-1v-1h-1l-1-1v-1h-1v-1h-1v-1l-1-1v-1h-1v-2h-1v-3l1 1h2v-1h5l1 1v-1h4v1h1v-1c1 0 0 0 0 0v-1h1Zm-17 2Zm3-4Zm2-2Zm10 2Zm-7 17h-2v1h2v-1Zm3 1h-2 1c0 1 0 0 0 0v1h1v-1Zm-10-6Zm-1 0v-1 1h1-1Zm2 1h-1 1Zm0-1v1-1Zm1 5h1-1Zm-39-49v-1h-1v-2h-2v-1l1-1v-1h-1c1 0 0 0 0 0v-1h-1v-1h-1l-1-1v1h-2v1h-2v-1h-1v1-1h-2v1h-2v2h1v1h2v1l1 1v1h2v2h3-1l1 1v1l1 1v1h3-1 1v-2h-1l1-1v-1h1l1-1Zm0 4-1-1v-2h-1v1l-1 1h1v2h-1 2l1-1c-1 0 0 0 0 0s0-1 0 0Zm94 34v-1h-3v-1h-1v1h-1v1h-1v1-1l-1 1v-1h-3v-1h-1v1l-1 1v1h-5l-1 1h-2l-1-1v1h-4 1l-1-1 1-1h-1l-1-1v1l-1 1v2h1v1l1 1 1 1v1h-1v1h-1v2h1v1l-1 1h1v1h2v1l1 1v3h1s0-1 0 0l2-1h1v-1h3v1h1v-1l2 1h1v-1h3v-3h1v-1h1v-1h1l1-1h1v1h1l1-1h1l-1-1-1-1v-1h-1v-1h1v-5h2v-1 1-1l1-1h-1Zm3-68h-1l-1-1-1-1-1 1v-2h-2v-1h-1v-1h-1v-1h-2v-1l1-1v-2h-1v-2l-1-1h-3l-1 1h-1v-1h-2v1-1h-3v1h-1v2l-1-1-1 1-1 1v2h1v2h-1v1h-1l-1 1 1 1-1 1v1h1v2h-1v-1h-1v1h-2l1 1h-1l-1 1h-3l1 1v2h1v3h1v3h-1l-1 1v1l-1 1h2v4h2v-1h1v-2l1 1v-1h2l1-1h3v1h6v1h1v-1h1v-1 1h1v-1h1v1h1v-1h1v1h1v-1h1l1-1h1v1h1v-4h1v-1h1v-1h2l-1-1h-1v-3h-1v-1l-1-1h1v-1h1v1h1v-1h1v-2h1c-1 0 0 0 0 0v-1Zm-42 71h-1v-1h-1v-4h-2c0-1 0 0 0 0v-1h-4v1l-1-1h-5v1h-2l-1-1h-1v1h1-1v1h1l1 1v2h1v2h1v1h1v1h1v1h1l1 1v2h1v1h1l1 1 1 1v-1 1h2v-1h-1v-2h1v-2h2l-1-1 1-1v1h1l1-1v-1h-1v-1h1v-1Zm4 7h-2v-1h-1l-1-1s0 1 0 0l-1-1h-1v-1l-1 1v1h1-1l-1 1v1h-1v2h1v1h-2 1v1h2-1s0 1 0 0h1v1h1v1l1 1h1v1-2l-1-1h1v-1l1-1v1h1v-1h1v-1h-1v-1h2v-1Zm-85 0h1v1h-1v-1Zm89 15v-1l-1-1h-1v-1h-1v-7h-1l-1-1v-1h-1v1l-1-1-1 1v4h1v1h-1v1h1l-1 1 1 1h-1v1h1v1s-1 0 0 0h-1v2h1v2-1h-1v1h1v1h2v1l1 1v1h1v-1h1v-2h1v-2h1s-1 0 0 0h-1l1-1v-1Zm-20-46h-1l1-1h-1v-1h-1v-3l-1-1h-4l-1-1h-2v2l-1 1-1-1v1h-2v-1 1h-2v2h-2v5-1l-1-1v1h-1l-1-1s0 1 0 0v1h-2l-1 1h-2v-1h-2v2h-2v-2h-1v1l-1 1v2h1l1 1h1v-1h1v1h2v-1h4v-1h1v2h1v1h1l1 1h7v1-1h1l1-1h4v-1h2v-1h-1 1v-1c1 0 0 0 0 0v-2h1v-2h-1 3v-1Zm-60 50h2v2l-1-1h-1v-1Zm-5 5v1-1Zm-1-4h1v-1h2v1h1s-1 0 0 0v2h-1v1h-1v1l-1-1v-1h-1 1l-1-1v1l-1-1v-1h1Zm-6 6v-1 1h1-1c0 1 0 0 0 0s0 1 0 0Zm0-1h-1v-1l1-1h1v1l-1 1Zm-23 15h-1v-1h1v1Zm10-9h-2v1h-1l-1 1v1l-1 1v1h-1v-1h-3l-2-1h-4v-1h-2l-1 1h-3l-1 1v1-1 1h-3v-1l-1-1v-2l-1-1h1v-2h-1v-1h-1v-2 1h-3v-1h1v-3h1v-1h2v-1h-1v-2s-1 0 0 0v-2l1-1h1v-2h-1v-3h-1 1-1 3v-1h1v-3h1v-3h1v-1h-1 1v-1h1v-1h1l1-1v-1h-1v-3 1h-1v-1h-5v-1l-1 1v-1h1v-1h-1v-1 1h-1v-1 1h-2v-1h1v-1h1-1v-2h1-2l1-1h-1v-2s0 1 0 0v-1h1l1-1h1v1h1v-1 1-1h1v1-2h4v1h1v1h2l1 1h3v1h2v1h2v1h5l1 1h1v1l1-1 1 1h1v1h2v-1l1 1v1h1l-1 1h2v1h1v1h2l1 1h2v1c0-1 0 0 0 0h1l1-1h1l1 1h1v2h2v1h2v1h1v-1h3v2h-1v3h-2v1h-2v1h-1l-2 1h-4v2h-1 1l-1 1h-1v1h-1v1h-1v1c-1 0 0 0 0 0h-1v1l-1 1v1h-1v1h1v1c-1 0 0 0 0 0v2l1 1v1h-1v1h-2v1s-1 0 0 0l-1 1v1h-1v1c-1 0 0 0 0 0v1-1 1h-2Zm-34 8v1h-1l1-1Zm-1 1v2h-1v1h-1l1-1v-1l1-1Zm-5 3h1v-1 2H9v-1Zm-3 0v-1h1v-1s1 0 0 0h1v1H7c1 0 0 0 0 0v1H6Zm0 0H5v-1l1 1Zm-1-2H4v1-1c0-1 0 0 0 0h1Zm-1 3H3h1ZM135 84h-1v1l1-1Zm2 10c0-1 0 0 0 0h-2v1-1 1h-1v2h-1v2l1 1c-1 0 0 0 0 0v1h1v-2h1l-1-1h1v-3h1v-1Zm-2-10v-1 1Zm0 0v1-1Zm4-39v1h1l-1-1Zm0 1c1 0 0 0 0 0Zm-5 40h1-1Zm3 6v-1h-1v1h1Zm-3-6 1-1-1 1Zm-5 6Zm1 7h-1 1l-1 1v1l-1 1v4h1v-5l1-1v-2 1Zm-18 4v1-1Zm3 7 1 1-1-1Zm-3-16v1-1Zm0 0 1-1h-2v1h1Zm22-7h-1s1 1 0 0h1Zm-5 9c0-1 0-1 0 0Zm0-3v-1 1Zm4-5v1-1Zm6-43h1-1Zm5-3s0 1 0 0Zm-10 38Zm-4-13Zm3-6h-1 1Zm5-15c0-1 0 0 0 0Zm2-2Zm-25 65h1v-1l-1 1Zm29-66Zm-16 41v1-1Zm3 2v-1h-1l1 1Zm9-42Zm-11 41h1-1Zm4-6h1l-1-1v1Zm8-35Zm0-1v-1 1Zm0 0v1-1Zm0 1s-1 0 0 0Zm1-2v1-1Zm0 0Zm2 0Zm0 1Zm-2-1h-1v1l1-1Zm-24-5Zm1-2Zm0-1h1-1Zm-2 5v-1 1Zm-9 16Zm9-15v-1l-1 1h1Zm0-2Zm8-16v1-1Zm-4 11h-1 1Zm4-10h-1 1Zm1 0h-1 1Zm-3 0 1-1v-2 1h-1v2Zm-6 17h-1v1h1c-1 0 0 0 0 0v-1Zm5-17h-1 1Zm-1 4v1-1Zm-4 3v-1h1s-1 0 0 0h1v-1h2v-1h1v-1h-1v1-1 1-1l-1 1v1-1l-1 1v-1 1-1h-1v1l-1 1v-1 2Zm3-5h1l1-1-1 1v1c0-1 0 0 0 0h1v-1h1v-1h-1 1l-1-1v-1 2-1 1h-2s1 0 0 0v1Zm-4 14h1-1Zm-1 0s-1 0 0 0Zm0 6Zm-2 3c0 1 0 0 0 0Zm1-3v-1h1-1v1Zm1 1h-1 1Zm0-14Zm0 8s1 0 0 0Zm1-2c-1 0 0 1 0 0Zm-1 6h1v-1l-1 1Zm1-4Zm0-2Zm0 1Zm0-8Zm11-9Zm-11 19-1 1h1v-1Zm0 1-1 1h1s-1 0 0 0l1-1c0 1 0 0 0 0h-1Zm-7 13v-1l-1 1h1Zm8-17Zm22-27v-1 1Zm-4 2h1l-1-1v1Zm-2 3v-1 1Zm4-4v1h1v-1h-1s1 0 0 0Zm-3 3v1-1Zm1-2v-1l-1 1h1Zm-1 2v-1 1Zm-1 0v-1h1-1v1Zm6-1v-1 1Zm-3-3v1h1v-1h1v-1h1V9h-1s1 0 0 0v1-1 1h-1c1 0 0 0 0 0s0 1 0 0h-1v1Zm6-4h-1 1Zm-3 6v-2h-1v1l1 1Zm4-4h1-1Zm-2-2Zm-1 4v-1l-1-1v1l1 1Zm0-4h-1 1Zm0 1h-1 1Zm-14 14h1v-1h1v-2h-1v-1 1h-1 1-1l1 1h-1v1-1 2Zm2-3h1l1-1v-1h-1 1l-1 1h-1 1-1v1Zm1-1v-1 1Zm-1 0Zm1-2 1-1h-1v1Zm0 1v-1 1Zm-2 2 1-1h-1v1Zm-1 4v1-1Zm1 1v-1h-1l1 1Zm4-10v1h1l-1-1Zm-1 0h-1v1h1v-1Zm2 0v-1 1Zm0 0Zm-1 0v1-1Zm-1 2h-1 1v1h1v-2h-1v1Zm0-2v1-1Zm-15 27v1-1ZM93 70h1-1Zm1-1h-1 1Zm-1 8-1-1 1 1Zm14 11h1-1Zm14-45Zm-9 8Zm0 0c-1 0 0 0 0 0Zm-12 12Zm0 0h1-1Zm22-22Zm0 0Zm-11 48Zm0 0Zm14-49Zm-13 9v-1 1h-1v1-1l1 1v-1Zm24-34ZM93 72v1-1Zm2 8v-1 1Zm-2-1v1h1l-1-1v1-1Zm0-9 1-1h-1v1Zm9-9h1-1Zm-9 25h1v-1 1h-1c0-1 0 0 0 0Zm42-72v1-1Zm8-2Zm-31 38c0 1 0 1 0 0Zm7-13Zm0-2Zm3-3v-1 1Zm-7 13v2h-1 1v-2Zm0-1c0 1 0 0 0 0Zm10-18h-1 1v-1 1ZM94 82h1-1Zm2 1v1h-1v1h1-1v1-2l1-1Zm1-5c-1 0 0 0 0 0Zm14-21c1 0 0 0 0 0Zm-1 31v-1 1h1-1ZM99 62h1-1Zm-1 0Zm-1 1h1-1Zm3 0-1-1v1h1Zm7-7Zm-10 8h1-1v-1 1Zm0 1v-1 1Zm1-1Zm1-1h-1 1Zm7-6Zm-2 2 1-1h1v-1h-1c1 0 0 0 0 0h-1v2Zm-1 0h1l-1-1h-1v1h1Zm4-2Zm-3 0h1v-1 1h-1Zm1 2h-1 1Zm-2 0h1-1Zm1 0h-1l1 1v-1ZM92 76v-1 1Zm12 15h-1 1ZM89 81Zm3-4v1l1 1v-2c-1 0-1 0 0 0h-1v-1 1Zm1 8h-1l1 1v-1Zm0-6h-1l1 1h-1 1v-1Zm-1 0h1-1Zm1-9Zm0 1Zm1-3v-1h-1v1s-1 0 0 0h1Zm-1 3Zm0-2v-1 1s-1 0 0 0Zm-1 2ZM76 1h-1s0 1 0 0l-1 1v1l1-1h1V1Zm14 122h1-1s-1 0 0 0Zm-2 1 1-1h-1v1Zm4-1h-1 1Zm-5 1h1-1Zm6-1s0-1 0 0c0-1 0-1 0 0Zm0 0Zm-11 10h1v1h1-1v-1h-1Zm5-8v-1l-1 2 1-1Zm-4 11h-3v1-1h1v1h1l1-1Zm12-11v-1h-1v-1h-2l-2 1h-1v1h-1l1 1-1 1h2-1v2h-1v1h-1v-2h1l-1-1h1l-1-1h1v-1 1h-2v1l-1 1v2h-1v1l-1 1v1h1s-1 0 0 0v1h1-2s0 1 0 0v1h-1c0-1 0 0 0 0h1c0 1 0 0 0 0h-2v-1h-1v1h1s0 1 0 0v1h4v-1l1 1h1v1h1v1h1v1l-1 1 1 1v-1h1-1v-1l1-1c1 0 0 0 0 0l1-1v-1c-1 0 0 0 0 0h-1v-2h1v-1h1v1l1-1v-1h1v-1l1-1h-1l-1-1h2v-4Zm-5 9v1-1Zm1-5h-2 1v-1l1 1Zm-10 5v1h1s0-1 0 0v-1h-1Zm0 0h1c0 1 0 1 0 0h1-1l-1-1v1Zm46 87h1-1Zm0 1Zm-1 1c1 0 0 0 0 0v1-1Zm0-1v1-1Zm-2 0h1v1h-1v-1Zm-1 1h1s-1 0 0 0h-1Zm-1-13c0-1 0 0 0 0h1c-1 0-1 0 0 0h-1Zm-1-1v-1 1Zm-3 13Zm-1-15Zm0 0Zm0 0v1h-1l1-1Zm-1 0v1-1Zm7 19h2v-1h2l1-1v1h1v-1h1v1h-1v1c0 1 0 0 0 0v1h-1v1l-1 1v2h1v2l-1 1v1h-2l-1-1-1-1s0-1 0 0l-1-1h-2v-1h-1l-1-1h-1l-1-1-1 1v-1h-1v-2s1 0 0 0l1-1h1v-1 1h1v-1h2v1h4Zm-8 17h1-1Zm-1-17v1-1Zm0 1h-1 1Zm-2-1 1 1-1-1Zm0 9v-1 1s1 0 0 0Zm-4-37v1-1Zm-1 0c1 0 1 0 0 0Zm-2 0h-1 1Zm0-3h-1s0-1 0 0v-1l1 1v-1h1l-1 1v1-1Zm-1 1Zm-1-3h-1 1Zm-1 14Zm0 0v1-1Zm-1 0h1-1Zm-1-2h1v1l-1-1Zm0 0Zm-5 14h1-1v1-1Zm0-13h1-1Zm0 12v1l-1-1h1Zm0-11h1v1l1-1 1-1h1v-1h1v1h1v1l1 1v3h-1v1l1 1h-1v6h-1v-1h-1l-1 1v1h-2v-1h-1v-3l1-1v-1 1-1h-1v-1h1-1v-1h1v-1h-1v-2h-1v-1l1-1Zm4-85Zm11-4s0-1 0 0h-1c1 0 0 0 0 0h1Zm-12 4h-1 1Zm20-5h-1 1Zm-21 5h-1 1Zm19-4h1v-1l-1 1Zm4 3h-1l1 1h1v-1h-1v-1h-1v1h1Zm-3-3v1h2v-2h-1v1-1h-1v1Zm-21 4h-1 1Zm-1 0c-1 0 0 0 0 0h-1 1Zm5-5 1 1h-1v-1Zm0-1h1-1Zm-6 7-1-1v1h1Zm6-7v1-1Zm1 1v1-1Zm-13 75h-1c0 1 0 1 0 0l1 1v-1Zm-37-35h-1v1h1v-1Zm-7-9v1-1Zm6 8-1-1 1 1Zm7 12h-1v-1 2h1v-1Zm44 30v-5l-1 1v1h-1v1h-1v1h-1v4l1-1v1h-1v1h1v1h1v1h1v-2h1v-4Zm-45-32v1h1v-1h-2 1Zm41-11v-2h-2v-1h-1v1l-1-1h-1l-1-1v-1h-1v-1h-4v-1l-1-1v-1l-1-1h1-3v-2h-2v-1l-1-1v-1h-2v-1h-1v-2l-1 1h-3v5h-1v1h-4v1h-1v1h-1l1 1h-3v-1h-2l-1-1 1-1h-2v-1h-1v1s0 1 0 0v6h1-3v1-1l-1-1s0 1 0 0l-1 1h-1v-2s-1 0 0 0h-1v-1l-1 1v-1l-1 1h-5v2h2c0 1 0 0 0 0h-1v1-1l1 1h-2v1h1v1c0 1 0 0 0 0l1 1v-1h1v1h1s0 1 0 0v1h1l1 1v1-1h1v1h1v2h1v1h1l-1 1v1l1 1v1l1 1h1v5-1h-1v1l1 1h1v4h1-1v-3h-1v-1 1l-1 1v2l-1 1c1 0 0 0 0 0h1v1h-1v2l-1 1v2l-1 1v1h-2l1 1v1h1l-1 1h2v1h1v1h1c-1 0 0 0 0 0h2v1h2l1 1v-1h2l1 1h1v1h1v1h1l1 1h5-1v-2h1v-2l1-1h1l1-1h2v1h3c0 1 0 0 0 0v1h2v1h2v1h2-1 1s0-1 0 0l1-1h1v-1l1-1h1v-1h1l1-1v-2l-1 1v-1h-2v-3l1-1h-1l-1-1v-2h2v-3h-1v-1l1-1v-3h-3v1h-1 1v-2l1-1v-2h1v-1h1v-1h1l-1-1h1l1 1v-1h1v-4h1v-3h1v-1h1Zm-44 7c0 1 0 0 0 0Zm0-2v1h1v-1h-1Zm22-87v-1h1v1h-1Zm0 0c1 0 0 0 0 0Zm0 2v-1 1Zm-1-1c1 0 0 0 0 0Zm0-1 1-1v2h-1v-1Zm0 0Zm-1 2h-1l1-1v1-2c0 1 0 0 0 0h1v4h-1v-2 1-1Zm-1-1s1 0 0 0Zm0 6-1-1h1v1Zm-1-4v-1 1Zm-2 4Zm-1 1c0-1 0 0 0 0h1s-1 0 0 0h-1Zm0 1v-1 1Zm0-1h-1 1Zm-1-1h1-1Zm0 0v1-1Zm0 2c0-1 0-1 0 0Zm-1 2v-1h1v1h-1Zm0-3s1 0 0 0h1-1Zm0 2Zm0 0Zm0-1h-1l1-1 1 1c-1 0 0 0 0 0s1 0 0 0c0 1 0 0 0 0h1l-1 1-1-1v1-1Zm-1 0c0 1 0 0 0 0l1 1h-1v-1Zm-2 55Zm-3 0h2v1h-1v-1h-1Zm-3 10-1-1h1v1Zm-1-2v-1 1Zm-1-61h1-1v1-1Zm0 61v-1 1c0-1 0 0 0 0Zm0-55h-1v-1h1v-1 2Zm-1 6h1-1Zm0 16v-1h1v-1s0 1 0 0v2s0-1 0 0h-1Zm0-10v-1h1v2h-1v-1Zm-1 15h1v1h1-1v1-1h-1v-1Zm0-31Zm1-2-1-1 1 1Zm-1 9h1s-1 0 0 0h-1Zm0 0Zm-1-1h1v1-1h-1Zm1 9c0-1 0 0 0 0Zm-1-2 1-1h1l-1 1h-1Zm0-10 1-1v1-1 1h1v-2 1l1 1h-1v2l1-1v1c0 1 0 0 0 0v1h-1v-1h1-2v-2h-1Zm0-3v-1 1Zm0-1Zm0 15v-1h1v1h-1Zm0-9c1 0 0 0 0 0Zm0-5h1v-1h-1 1-1v-1l1-1v1h1v-1h2v1h-1v1h-1 1-1v1h-1l-1 1v-1Zm0 0Zm-1 11 1-1h1c0-1 0 0 0 0l-1-1 1-1v1l1 1v1h-3Zm0 1s1 0 0 0h1v-1 2l-1-1Zm1-12h-1 1Zm-1 1v-1h1v1h-1Zm0 7h1-1Zm-1-7h2-1v1h-1l1-1h-1Zm1 2-1-1h1v1Zm-1 11v-1h2v2h-2l1-1h-1Zm0-5 1-1v1h-1Zm0 8h1-1Zm0-13v-2 3-1Zm-1 2v-2l1 1h-1v1Zm0 0h-1 1Zm-8 45v1h-1l1-1Zm-1 0h1-1Zm0 1Zm74 49v1h1v-1h-1Z"/></svg>