<svg xmlns="http://www.w3.org/2000/svg" fill="none" viewBox="0 0 352 346"><path fill="currentColor" fill-rule="evenodd" stroke="#F4F4F6" stroke-linejoin="round" stroke-miterlimit="10" d="m273 313 1-1h1l-1 1h-1Zm0-2h-4v2h4l1-1h-1v-1ZM265 312h1v1l-1-1Zm-8-5v2l-1 1h1v1l-1 1 1 1h-1l1 1 1-1v-1h1v-1h1v1h1l1-1h3l1 1v-2h-1l-1-1h-3l1-1 1 1h1v-1h-1l-1-1h-5ZM286 41h1v-1l1-1v-1h1l-1 1h2v-1h-1l1-1v-2l1-1v2h-1v2h1v-1l1-1v-1h1v-1 1h1v-1h3v-1h1v-3h-1v1h-1l1-1v-2h-1v1h-2l2-1 1-1 1-1v-1h-1v-1h1v-1h1v-2h-1l-1 2v1h-1v-1l1-1v-2h-1l-1 1v-7l1-1v-1h-1v-1h-1v-1h-2l-1 1 1 1 1-1v1h1v1l-1 1-1-1h-1l1 1h-1l-1-1-1 1v2h1v2h-1v-1h-2v2-1h-1v-1 1l-1-1v2l1 1h1-1v1h2v2h-1v-1h-2v-1h-1v2h-1v2h2v1h-2v-1h-1v4-1h2l-1 1h2-1 1l1 1h-1 1l1 1h1-3l1 1h2-3l-1-1h-2v1l-1 1h1v1l-1-1v2h1v1h1-2v3-1h1v2h2v-1h1v2l1-2v-2l1-1v1l-1 1v3Zm1-25h2v1h-1v-1h-1Zm1 25v-1h1v1h-1Zm6-5v-1h1v-1l1 1h-1v1h-1Zm40-34 1-1v1h-1Zm-19 40v1-1Zm-10 7h1-1Zm-14-1v-1l1 1h-1Zm-4 9v-2 3h-2v-1h-2v-1h1v-2h-1l1 1h-1v1h-1v-2 2h-1v-1h-1l1-1v-2l-1 2v1-1 1h-1v-2l1-1v-1h1l1-1h1v-1l1 1h1v-1l1 1h2-1v-2h1-2v-1h1l-1-1v-1h1-1v-1h3l1 1v3l1 1h1v1-1h1l1 1v-1h1l1-1 1-1 1-1v-1l-1 1-1 1v1h-1l-1 1v-1h-1v1l-1-1v-1h1v-1l-1 1h-1v-1h1v-1l1 1v-1h-2 1v-1h2-1l1-1v-1h1-1l1-1v-1h1-1l-1 1v1l-1 1-1 1h-1v-1l1-1h-2l1 1h-2v-2l1-1 1-1 1-1 1-1h3v-1h1v1h1l1 1v1h1l1 1v-1h-1v-1h2v1-1l1-1h-1v1h-3v-1h-1l-1-1v-1h1v1l1-1v-1 1l-1-1 1-1v-4h-1v-1l1-1v1h1v-1h-1v-1l2-2 1-1v1l1 1 2 1v3l1 1v1-1l1 1v1-1h1-1v-1h-1v-1h1v-3h-1l1-1h1l1 1h5l1 1v-1h-2v-1h3l1-1 1 1h2-1v-1h-3v-1l1-1h1v-1l2-1 2-1-2 1h-1l-1 1v1h-1v-1 1h-2l1 1-1 1h-1l-2 1h-2l-1-1h-1v-1h1l1-1h1-3l1-1h-2v2h-3l-1-1h-1v-1l1-1 1-1 1-1h3l1 1h2v-1h-5l-1-1-1 1-1 1-1 1h-1v1l-1-1v-1h-1v-2l-1-1h4v1h4v-1h2v-1 1h-3l-1 1v-1l-1 1-1-1h-1l-1-1v1l-1-1v-1h2v-1h-1 1l1-1h2v-1h-2l-1 1h-1v-1l1-1h1V9h-1v1-1h-1v1h-1v1-2h-1 1V8h1l1-1h3v2l1-1V7v1-1l1-1h1v3l1 1V8l1-1v2l1 1V9h1v1-1 1h1V9l-1-1V7h-1V5l1 1h1V4l1-1v1h1v1h1v3l1-1v1l1-1V5h2l-1-1V3h1l1 1v3h1V6h-1V2h2v3l1-1 1 2V5l-1-1h1l-1-1 1-1h-1l1-1h1v2l1-1v1h1V2l1 1-1 1 1 1h-1 2V1h3v1h2v3h1V4l1-1h2v1h-1l1 1V4h1V3l1 1h1v2l1-1v1h1v1h1V6h1v1h1v1h-1v1h-1l-1 1-1-1v1h-1 4l1-1h1v1l1-1v2-1h1V9l1 1v1h-1l1 1v1h-1l-1 1h3v3l-1 1-1 1h-1v1h-2l-1 1h-2v1l-1-1h-2 1v1h-1v-1h-2l-1-1h-1l1 1h-1l2 1h1v1l-2 1h-6 1v1l1-1h5l1-1h2v2h-1l-2 1-1 1h-1l-1 1h-2v1h-2l-1 1-1 1h-1l-1 1v-2 1l-1 1h1v1h-2v-1l-1 1v-1l-1 1h2l1 1h-2l-1 1h1l-1 1h-3v-1h-1v-2 1l-1-1-1 1h1l1 1v2l-1-1v1h-3v-1l-1-1h-1l1 1 1 1h-2v-1h-1v1-1h-1v1h1l1 1h2l1 1h1-1v2h-1v-1h-1v-1l-1-1h-3 2l1 1h-3l-1-1 1 1v1l1-1v1-1h1v1h1v1h-1 2v3h-1v1h-1l-1-1h-1 1v1h1v1h-1v1l-1-1-1 1v-1h-1v1l2 1v1h-1v-1h-1v1h-1v-1h-2v1l-1 1h1v1h-1v1h-1l-1 1v-1l-1 1h-3l-1-2v-2 1h-1v1l1 1h-2v1l1-1h1l1 1v1-1h2v2h-1v1h1l-1 1h1v-1h2-1l1 1-1 1v1h-1l-1 1v-1h-1v1l-1 1v-1h-1l-1 1h-1v-3 1l-1-1v-1l-1-1h1v-1h-1v4l-1-1v1-1h-1l1-1v-2l-1 1v2h-1v-3 1h-1v1h-1Zm15 85v2-2Zm0-3h-1 1Zm-1-2v-1l1 1h-1Zm-5-43h1-1Zm1 1v-1h1l-1 1Zm-1 1v-1h1v1h-1Zm8 13h1-1Zm-1 0h1v-1 1h-1Zm-1 6Zm2 2 1 1v-1h-1Zm4 5v-1h1v1h-1Zm2 3v-1h1l-1 1Zm-15-62h1v-1l1-1h1l-1 1-1 1h1-2Zm-2-2v-1 1Zm-15-7h-1v-3h1l1 1-1 1v1Zm0-32v-1h1v-1h1v-1h-1v-1h-1l-1 1v1h1v1h-1l1 1Zm-7 17v-2h-1 1v-1l1 1v-2h-1 1l-1-1h1v-2h1v-1l1-1 1 1v1h1v2h1v3h-1v2h-1v1l-1-1h-3Zm6-1v-1 1Zm2 9v1h2v-2h-1v-1h-1v2Zm-1 0v1h1v-1h-1Zm-8-4v-1l1-1h4v1h1-1l1 1v-1l1 1v1h-1v1h-1l-1-1h-2v-1h-2Zm-6-10v1-1Zm0 4 1 1h2v-1l1-1v-1l1-1h-1l1-1v-1h1l1-1-1-1h1v-2h-2v-1h1v-3l-1 1h-1v1h-1v-1h1v-3h-1l-1-1h-1v1h-1v-1h-1v1l-1 1v1h2-1l-1 1v1l1-1h1v1h-1v1h1v1h-1v1h-1l-1-1h-1v1l-1 1h1v1h4-1v1h1v1l1 1v1l-1 2Zm-3-5h2-1v1l-1-1Zm-1 4 1-1h1l1 1v2l-1-1v1h-1v-1l-1-1Zm-7 4h2l-1 1-1-1Zm0 0v-3h1v-3h1v4l-1 1v1h-1Zm-6-13v-1l-1-1h1-3v-1l1-1h7v1l-1 1 1 1-1 1-1 1h-1v-1 1l-1-1v-2l-1 1v1Zm-8 4 1-1v-1h1l1-1h4v1h3l-1 1-2 1h-1v1h1v-1 1l-1 1v1h-4v-1l-1-1-1-1Zm0-2h1v-3h-1l-1 1v1l1 1Zm45 42h2v1h1l1-1 1 1h1v-2h1v-1 1h2l-1-1v-1 1h-1v-1h1v-1l1 1v-2h1l-1-1-1 1 1-1v-1h-2v-1h1-1v-1h-2l-1 1-1-1v-1l-1 1h-5v1h1-3l1-1-1-1v1h-1v-1h-1v-1h-1v1-2h-1v-1h1v-1h-3l1-1 1 1v-1h-1v-1l-1-1h1l1 1 1 1v-1 1h2v-1l-1-1-1-1v1-1l-1-1h1v1h1v-1l-1-1h-3l-1-1v1l-1 1v-1l1-1h1l-1-1v-2 1h-1v-2h-2l-1-1v1h-1v2l-1-1v1h1v1h1-1v1l1 1h-1v1h2v1h3l-1 1v2h1l-1 1v1l-1 1-1 1v1h-1v1h1l-1 1v2l1 1v-1h1v-1l1 1h-1v2h3v-1 1l1-1-1 1v1h1v1h2l1 1v-2 2h1v-1 1h1v-1l1-1v1h-1v1h1v-1l1-1-1 2h1l1 1v-1h1v1-1h1v-2h1v1l-1 1v1Zm-18-26Zm-1 4v-1 1Zm-13 5Zm8-9 1 1v-1h-1Zm-4 0v1h1v-1l1 1 1-1h-3Zm-4 2v-1h-1l-1-1h1v-2h1v2h1-1l1 1-1 1Zm-1 2h2v-2h-4v1h1l1 1Zm-2 1h4v-1h-2v1l-1-1h-1v1Zm0 1h2l1-1h1v1h-2v1l-1-1h-1Zm-13-17v-1h1v1h-1Zm-3 2v-1h1v1h1v1h-1v-1h-1Zm-19 1-1-1h1v1Zm2 3v-1 1Zm1-1v-2h2l-1 1v1l-1 1h2l1-1v-1h1v-1 2h1v-2h1v-2h2v-2h2v1l-1 1v1h-1l-1 2h1v1h1v-1l1-1h2l1-1v-1l1-1v-1 1h1l-1-1v-1h2v-1 1h1v-4h-1v1l-1 1h1-2v-2h-1v1l-1-1h-1l-1 1h-1l-1 1-1 1h-1l-1 1h-2v1h-1l-1 1v-1l-1 1h-1l-1 1h-1v1h1-1v2l1-1h1v1l1 1Zm51 32h1-1Zm-6-13h-1 1v1h-1 1l-1 1v-1l-1 1v1h-1 1v1-1 1h1v1h1v1h1v1h1v-1h1v-2l1-1v-2h-1v-1l-1-1h-1l-1 1h1-1Zm4-4v-1 1Zm-1 3v-2h1v1l-1 1Zm-3-2h-1 1Zm-1 1Zm0 1v-1h1v1h-1Zm-1 1v-1h1v1h-1Zm-1 0Zm-6 1-1-1v-1h1v-1h-1 1v-1h1v1l1-1h-1 3v-1h-4l-1-1h-2v-1l1 1v-1h1-1 1v-1h1v2-2h1l-1-1h1v-1h1-1v-1l1-1v1h1v4h1v-1h1v-1l-1-1 1 1v-1h-1v-2h1v-1h2v1-1l1 1-1 1v1l1-1v-1h1v-1l1 1v1h-1 1v2l-1 1v1l-1 1-1 1-1 1h1l-1 1v1-1h-1v1h-1v1h1-1l1 1h-1v-1 1h-3v-1l-1 1Zm-35-16v-1h1l1-1h1v-1h3l-1 1h-1l-1 2h-1v1h-1v-1h-1Zm26 12 1-1 1-1v3h-1v-1h-1Zm-21-1v-2h9v-1h-3v-1 1h-3v-1h1v-1h-1v1-1 1h-1l-1 1h-1v-1h1-1v-1 2l-1-1v-1h-1l-1-1h-1v-1h1v-1h5l1-1h-3l-1-1h1l1-1h4-1v-1h-2v-1l1-1h2l1 1v-1h-1v-1h4v1h-1v1h2v1h1v1h-1l1 1v2l-1-1v1h1v1l-1 1v1h1l1-1v1h2v1h1l-1-1h1v-1l-1-1v-1h2v-4h1v-1h1l1-2h1v2h-1v4l-1 1h1v1h-1l-1 1v1l1-1h1v-1l1 1v2-1h1v-1l1-1h1v4h-1l-1 1-1 1-1 1v1h-4v-1h-1v1h-1v-2 1h-2v1h-1v-1h-1v1-1l-1 1h-1v1h-5l-1-1-1-1Zm-32 18v-6h-1l-1-1h1l1-1 1-1 1-1h1l1-1v-1l1 1v-2l1-1 1-1 1-1h1v-1h1v-4l1-1 1 1 1-1 1 1h1l2-1 1 1 1 1 1 1v1l1-1v1l-1 1v1l2-1v-1h2l1 1v7h-4l-1 1h-1l-1 1h-4v1l-1 1v1h-2l-1-1v2h-1v1h-1v1l-1 1v1h-2l-1-1h1v-1h-1v1l-1 1h-3Zm69-8v1-1Zm-5 0v-1h1-1v1Zm-6 3h1l1 1h1v-1l1 1v-1h1l-1-1-1 1v-1 1l-1-1-1 1h-1Zm-3 20v-1h1v1h-1Zm-3-1v-1h-1v-5h-1v-2h-1v-1h-1v-4l1-1h2v1h1v2l1 1v-1l1-1v-2h1v1h1v-1h-1v-1 1h-1v-1l-1-1v-1h1l1 1v1-4h1v1h1v-1h1v1h2v1l1-1h1l1 1v1l-1 1v-1l-1 1h1v1l-1 1v-1l-1 1h-1l-1 1v1-1h1l1 1v3-1h1v2l-1 1h-1v1h-1v1h1-1l1 1h-2l-1 1h-2v-2l-1 1 1 1v1l-1 1h-1Zm9-13h1-1Zm0 2 1-1-1-1v2Zm0 1h-1 1Zm-21-12v1h1v-1h-1Zm3 7v-4l-1-1v-1h1v-1h2v1h2v1l1 1h-1v1h-1v1l-1 1h-1v1h-1Zm20 12-1-1h-1 1v-1h-1l1-1v-3l1-1v-1l1-1v-1l1-1v-1h1-1l1-1 1 1v-3h3l1 1v-1h1v1h1v1h3v1l1 1h-1v1h-1v1l-2 1v1h-1v1l-1 1-1 1h-2v-1h-3 1v2l-1 1h-1v1h-1v1Zm33 2h-1v-1h-1v-1l1-1v-1h-1l1-2v-2h1v1h1l1 1h3v1h1v5h1l-1 1h-1l-1-1h-4Zm-3 1v-1 1Zm1 1v-1 1Zm1 0v-1l1 1h-1Zm-33 12v-1 1Zm1 3v1l1-1h-1Zm0 0v1-1Zm10-2-1-1v1-1h2v1h-1Zm6 2Zm1 1v-1 1Zm1 0h1-1v-1 1Zm6 9v-1h1-1v1Zm-1 2v-2h1v1l-1 1Zm-3-9h-1 1Zm-1 0v-1 1Zm0 0v1h1v-1h-1Zm4-1v1h1v-1 1-1h1-1v-1h-1v1Zm6-1Zm-2 3v-1h1v1h-1Zm-2 4 1-1v-1h1v-1h-1l-1 1h-1v1h-1v1l1-1v1h1Zm4-1v-2h1v2h-1Zm3 5v-2 2Zm1-1v-1 1Zm1 1h-1 1Zm-2 2v1h2v-1h-1v-1l-1 1Zm-14 21v-1 1Zm-8-14Zm-2 3v-1h-1v-2l1 1v1h1v1h-1Zm-3 0v-3 3Zm0-14-1 1h1l1-1h-1Zm0 0v-2h1v2h-1Zm-26-6h-1 1Zm-23-6 1-1v1h-1Zm-1 0Zm0 3v-1l1 1h-1Zm0 0v-1 1Zm1 1v1h1v-1h-1Zm-1 4v-1l1-1v-1 2l-1 1Zm21-14v1-1Zm6-4v-1l1-1v2h-1Zm-7 9v-4 1h-2l-1 1v-1h1v-3 1h1v1h1v-2 1l1-1h1l-1 1h1v1-1l1-1v2h1v-1l1-1v-1h-1v-1h-1v-1l-1-1v-1l1-1h-1v1-1h-1v-2l-1-1v-1l1-1 1-2v-3l1-1v-3h1v-5l-1-1h-1v1-1h-1v-1h-1l1 1h-1v1h-1v3l-1 1v2h-1v2l-1 1h1-1v1h1-1v1h-1v1-1h-1l1-1h-1v-1l1-1v-2l1-1v-5h-2l1 1v1h-1v2-1 1h-1v-1 1h-1v-1h1-4v-1h2l1-1v-1l-1-1-1-1h-2l-1 1h1v1h-2v-1h-1v1-1h1v-1h1v-1h1v-3h-1v1h-2l-2 1-3 1h-2l-2 1-1 1v1h1-1l-1 1h-1v1l-1 1v1-1l1 1h-1 2v1h-2 1v1h1v-1 1h5v1h-2 1-6v1h-1v4h3l1 1v-1 1h5v1h1v1h1v2h1v1l-1-1h-3v-1h-2v-1h-7v1l-1 1v2h1-1l1 2 1 1h3v1h1v1h-1v1h-1v1h1v2h-1l1 1h1v-1h1v1h7v-1h1v-1h1v1l1-1v1h1l1-1h1v-1h1v-1h1v2h-1l1 1h1v1-1h1v1h-1v1h2v1l1-1v1h5Zm50 20 1-1h-1 1v-2l1-1 1-1h1v-1 1l1-1v1h1v3l-1 1-1 1h-4Zm-48-22v-1h1-1 1v-1 2h-1Zm-4 4v-1 1h-1 1Zm5-1v1h-1v-1h1v-1 1Zm1 0v-2 2Zm10 0v-1l1-1v2h-1v-1 1Zm-1-1h1v-1h-1v1Zm0 5 1-1h-1l1-2h-1v1-4h-1v-1l-1 1v-1h1v-2h-1l-1 1v2h-1v-1 2h-3l-1 1v1h1v-1l1 1v1-1l1 1h-1l1 1h1v1h1v1h1l1-1h1Zm56-4-1-1h2v1h-1Zm-2 50h-1l-1-1h-1v-1h-2l-1-1v-1h-1v-1h-1l-1-1h-1v-1h-1v-1l-1-1h1l1-1h-1v-1 1l-1-1 1-1-1 1v-1l-1-1v-2l-1 1v-1l-1 1v-2l-1 1v1l-1-1h-1v-1h-1v1h-1v1l-1-1v1h-1v-1l-1-1v1l-1-1v-2h1v-1h2v-1h-1v-1h1l1 1h1v1h3l1-1v1l1-1 1-1v2-1h1v-1l-1-1v-2h1v-1h2v-1h2-1v-1l1-1h2v-6h1v-1h-1v1-1h-1l-1-1h1v-2h-1v1h-1v-1l1-1h-1v-1h1l-1-1v1l-1 1v-1l-1 1h-2l1-1v-1 1h1l1-1v-1h-1v-2h-1v-1 1-1h1-1v-1h-1v1-2h1v-2h-1l-1-1-1-1h1v-2l-1 1v1-1h-1v2h1v3h-3v-1h-2v1l-1-1-1-1v-1h-1v-1h-1v1h1l1 1v2l-1-1h-1v-1h-3l-1-1 1-1h-1v1l-1-1h-1l1 1h-1l-1-1v-1l1-1h-1l-1 1v-1 1l-1-1h-2 1l-1-1-1-1h1l-1-1v-1h1v-1h2v1h3-1v-1l-1-1h-1l-1-1h-1l-1-1 1-1v-1h1v-2l1-1h1-1v-1l1-1v-1h1l1-1v1-1l1-1v-1h1l1-1v-1h1l1-1 2-1h3l1 1h1v1h-1l-1 1-1 1-1 1-1 1-1 1-1 1v3h-1v2h-1l1 1v3h1v1h-2 1v1h1-1v2l1-1v-1l1-1v-3h-1v-3 1h1v-1h1-1l1-1v1l1 1v-2h1v-1l-1 1h-1v-1l1-1h-1v-1l1-1v-1h1v1l1 1h1l-1-1v-1h-1 1v-1l1 1 1 1-1-1-1-1v-1h1v1h1v-1h1v2l1-1-1-1h2v-1h4v2l-1 1v1h1v1l-1 1v2h-1v1h-1v1-1h2-1l-1 1v1h-1l1 1h-1 1l1-1v-1 1h1v-1l1 1v-1h1v1l-1 1v1h-1 2-1l1-1v1h1l-1-1v-2h1v1l1 1h1v1-1l-1-1h-1v-1h1l1-1h2l1 1v1h2v2h-2l-1 1h2l-1 1v1h-1l1-1 1-1h2v2h-2l-1 1h1-1v1l1-1h1-1v1h-1 1v1h-1v1l1-1v-1l1-1v1l1-1 1-1v1l-1 1h-1v2-1l1-1h1v1h-1v1l-1 1h1v-1l1-1v1l-1 1v1-1h1v-1l1-1v-1h1v-1 1h1v2l1 1-1 1-1-1-1 1h-1v1h1l-1 1h2v-1h1v1-1l1-1 1 1h-1v1h-1v1h-2v2l1-1v-1h1l-1 1-1 1v1l1-1 1-1v-1h1v-1h2-1v1h-1v1-1h2v-1h1v1h1v2h-1v1h-3l-1 1h1l-1 1h1v-1l1-1h2v1h-1v1h-1l-1 1v-1l-1 1h2v-1h2l1-1v-1h1v2l1 1-1 1v-1h-2v1h-2 2v1h2v1h1v1h-2l-1-1h-2 2l-1 1h-2 3v1h-2 1v1h1-2l-1-1h-1v1h1l1 1-1-1v1h1v1h3v1h-1v-1l-1 1h-1 2-1v1l1-1v1h1v2-1h1-1v2-1h1v-1h1l-1 1v1-1h1v-1h1v1h-1v1h1v-1l1 1v1h-1 1v1h-1 1-2l1 1h1v-1h1l-1 1v1-1h1l1-1v1h-1v1h-1v1h1v-1h1l-1 1v1l1-1v-1 1h1v-1h1-1l1 1v-1 1h1v2h-1v-1h-1v1-1h1v1h-1v1h1-2v-1 1h-1v1h2l-1 1-1-1v2-1h-1v2-1h-1v-1 1h-1 1l-1 1v3h-1v-1h-1v-2 1l-1 1v-2h1-1v-2h1-2l1-1h1v-1h1v-1l-1 1h-1l-1 1h-1l1-1 1-1-1 1h-1v-1h-1 1v-1h-1v-1 1l-1-1v2l-1-1v1h1v2h-1v-1 1l-1-1v-1h-1v-1l-1 1h2v1h-1 1v2l-1 1h1v-1h1v1h-1 1v1h-1 1v2h1v-1 2h2l-1 1v1h1-1l1 1v2h1v1l-1 1v1-1h-1v-2 5-1h-1v2h1-1v-2 1h-1v-1l-1-1v1-1h-1 1l-1-1v-1 3-1l-1-1v-1h-1v-1 2-1l-1-1v-1h-2v1h1v2h1v1h1-1 1v1l1 1v2h1v1-1l1 1h-1v1Zm-45-14h2v3h1l1-1h1v-1l1-1v1-1h1v-1l1-1h1v1h1v2h1v1h3v-1h1-1v-1h1-1v-1 1l-1-1v1h-1l-1-1h2v-1h-1v-1h1-1v-2h-1v-1h-1v-1h-1v-1h-1l1-1h-1v-1l-1 1v1-4h-1l-1 1v1l-1 1v1l-1 1h1-1v1l-1 1v3h-2v2Zm4 9h1v-1h2l1-1h1v-1l1-1h-4v1h-1l-1 1 1 1h-1v1Zm44 3h1v1l1-1h-2Zm-13-4v2h1v-1l-1-1Zm13 8h-1v-1l1 1Zm-1 2v-1h-1v-1h2v1h-1v1Zm-13 8v1-1Zm0 0v1-1Zm0 0v1-1Zm4-4v-1l1-1v2h-1Zm-12-14 1 1h1l-1-1h-1Zm-4-4h1v-1h-1v-1h-1v1h1v1Zm-3 1h1v-1h-1v-1h-1v1l1 1Zm0 3h-1 1Zm-6 4v-1h1v-2h1v-1h-2v1h-1v3h1Zm-6 24v1-1Zm1 3v-1 1Zm-4-1 1-1h1l-1 1h-1Zm3 1v-1 1-1h1v-1h-1v1h-1l1-1h-1v1l-1 1v1-1h1l-1 1h1l1-1Zm-1 0 1-1-1 1Zm37 39h-1 1v-1l-1 1h1Zm13 3v-2 2Zm0 0h1-1Zm6-20v-1 1Zm-2 4v1h1v-1h-1Zm3 5v-1 1-1 1h1-1Zm-1 0h-1 1Zm-5 7h1-1Zm6-1h1-1Zm-6-11h-1v2h-1l-1 1v2h-1v2l-1-1v2h-1v-1 1h-1v1-1h2l-1 1v1h-1l-1 1v1h2l1-1v1h3v1-1h2v-1 1-1h1-1v1l1-1v2h-1 2v-1h1v1-1h1l-1 1h-1v1h-1l-1 1h2v-1h1v-1h1v1-1l1-1v-1 1h1l-1 1h1l-1 1v2l1-1v-1h1l-1 1v2-1h1v1l1-1v-2h1v-2l-1 1h-1v-1h1v-1h1-1l-1 1v1h-1v-3h2v-2 1h-1l-1 1v-1l1-1h-1v1-1h-1 1l1-1 1-1h-1l-1-1v1l-1 1v-1l1-1h-1v1h-1l-1 1v-1h1-2v-1l-1 1 1-1v-1 1h-1l1-1h1v-1 1h-1v-1h-1 1-1v1h-1v1-3h1v-1h1v-1h1v-2h1v-1h-1v1-1 1h-2v1h-1v1Zm-18 5h1l1 1h2v1l1-1v-1h-1l-1-1-1-1h-2l-1-1v2h1v1Zm1 13h-1v-1h-2v-1h-1v-2h1v2-1h1v1h3-1v2Zm4 2h-1v-2h-1 1v-1l1-1v-1h1v-1h1v1h-1 1l-1 1v1h1l-1 1h1v-1l1 1v1h-1l-1 1h-1v-1 1Zm-42-35v1-1Zm-1 7 1-1v1h-1Zm-5-5h1v-1h2v1h1v1h-2l-1-1v1-1 1l-1-1Zm-111 3h1v1l-1-1Zm-1-2v-1h1l-1 1Zm-3-2h1v-1l-1 1Zm-4-3v2h2-1l-1 1h1l-1 1h2v1h1l-1 1v1l1-1h1-1v2h2v2h1v1l1 1 2 1h1l-1-1v-3l-1-1v-2l-1-1v-1h-1l-1-1h-1l-1-1h-1v-1l-1-1h-1Zm5 2v-1l1 1h-1Zm-1-1h1-1Zm-3-12Zm2 6v-1 1Zm-1 1v2l1-1-1-1Zm1 0v-1h-1v1h1Zm0-1 1-1h1l1-1v1h-2v1h-1Zm0-3v-1 1Zm-1 0h1l-1-1v1Zm-1-2v2l1-1h-1v-1Zm0 0h1v1l1-1-1 1h1v-2h-1l-1 1Zm0-2 1 1v-1h-1Zm1-1h1v-1h1l-1 1h-1Zm-3-1 1 1 1 1h-1l-1-1v-1Zm1-1v1l1 1v1-3h-1Zm-1-1h1v1l1-1h-2Zm-5 1-1-1 1-2 1 1h1v1l-2 1h1l1-1h1v-1h1l-1 1-1 1v2h-1l-1 1h2-1v4h1v1h-1l-1-2v-1l-1-1h1v-1h-1l1-1h-1 1v-1h-1v-1h1Zm6-3v-1 1Zm55-88 1 1v-1h-1Zm-5-5h1v-1h-1v1Zm-19 2 1-1h-1v1Zm0 1v-1 1Zm-1 1v2h1l2-2h1v-1l-1-1v1h-1v1h-1v-1l-1 1Zm-2 2v-2 1l-1 1h1Zm0 0h1l-1-1v-1h1v-1l1 1v1l-1 1h1l-1 1-1-1Zm1 3v-2h-1v-1h-1v1l1 1 1 1Zm-6-10v1h1v-1h-1Zm-11 122h-1v-1l1-1h-2v-1 1-2l-1 1v-1h-1v-1h1v-1h1-2l1-1v-2 2h-2v-1 1h-2l1-1h1l1-1v-1 1h-1v1h-1v-1h-1 1-3v-1h2-1 1v-1h-2v-1 1h1v-1h-1 1v-1h2-1v-1h-1v1h-1v-1h1v-1l2-1v2l1-1h-1v-1h2l-1-1h-1v1-1l1-1v-1 1h-1l-1 1v1h-1v-1h-1v-1h2v-1h-1 1-1v-1l-1-1v-1h3-2v-2h1v-1h-1v1h-1l-1 1-1-1v-4h1v-2h2-1l1-1v-1h1v-1l-1 1-1 1 1-1v-2l1-1h-1 1v-1h-1v-2h-1v-1l-1-1v-1h-1 1v-1h-1l1-1v-7l-1-1v-3l-1-2 1-1v-1h-4l-1 1v1l-1 1h-2v-2l-1-3v-4h-1l-1 1-1-1h-2l32-60 2 1 1 1 1 1v2l1 1v-1 2l1 1v1l1-1v1h1v2h1l1 1v1l-1 1v1l1-2h1v-3l1-1h1v-1h3l1-1v-1h1v1-1h4l1-1v1-1h3v-1 1l1 1h-1l-1 1h-1l-1 1h-5v1h-2v1h-1l-1 1-1 1h1v1-1h1v-1h1l1-1 2-1h1l1-1v2-1h1l2-1h1v-1h2v1h-1l1 1v-1l2-1v-1l1 1v-1h1v-3h1v5l-1 1v3l1 1v1l1-1-1-1h2-1l1-1h1v1-1l-1-1h2v-1h1v1h-1v2l-1 1v1h1v1l1-1h1v-1l1-1h1l1 1h1v1l1 1v2l3 1v1l1 1h1v1h1l1 1v1h1v-1l-1-1 1 1h1v-1l1 1v2h1v3h-4v1h-1v1l1 1h1v1h2l1 1h1v-1l1 1 1-1v1l1-1v1l1-1h2v2h1l-1 1 1 1v-1h1l-1 1v6l1 1v1-5h1v1-2h1l-1-1 1-1v-3h2l1-1v1l1-1h1v1-2h2v-1h1-1v-1l-1 1h-1v1h-1v-1 1h-1v-1h-1v2l-1-1v-1h-1l1-1 1-1h6v5h1-1v1h1v1h2l1 1h-1 1v2l1-1v1l1 1 1-1h3l1 1h2v-2l1 1v1l1 1v1-2h-1v-3 1h1v-1h-1v-1h1v1l1-1h1v1-1l1 1h-1v1h1v1h-1 1l1-1h1v1h-1v1h-1v2h-1v-1 3h1v1-1 2h-1v-1l-1 1v-1 3l1-1-1-1h2v1-1l1-1h1l1-1-1 1v-1l-1 1v-2h1l-1-1 1-1v-1h2l2-1v-1h1l1-1v-3 1h-1v1-1h-1l1-1h1v-2h1v1l1-1-1-1h-1v-1h-1l-1-1h-1v-4h1l1-1h1v-1h-1v-2l1-1v-1h1v-1h2l-1 1h1l1-1v-1h-1v-1h1l1-1h2l-1 1h1l1 1h-1v1l1 1v3h-1v2l1 1-1 1h1l-1 1h1v2l-1-1v-1l-1 1h-1v1l1-1v1l-1 1h-1v2l1-1v1l1 1v-1h1v1h1l-1 1v-1h-1v1h1v4h-1v2h1v-1h1v-2h1v-1l1-1v-1 1h1v2l1 1-1 1 1 1h-1v1-1l-1 1v5l1 1-1 1h1v-1h1l1-1v-1l1-1 1-1 1-1v-1l1-1v-1l1 1h1v-1h-1l1-1v1-1l1 1v-1h-1v-2l1-1h-1 1v-2h2l1 1 1 1h2v1h-1l1 1v1h2v1h-1v1h-1 1v2h-2v1l-1-1h-1l1 1-1 1h1-1 1v1h-1v1h1v3l-1 1v1h-2v1h-1l-1 1h-1v1h-1v-1l-1-1h1v-1h-1v-2l-1 1h-1 1v1h1v4l-1-1v-1h-1l1 1h-1l-1-1v1-2h-2l-1-1v2l1 1v1h-1l-1 1v1h-1l-1 1h-3v-1h-1v-1h1-1v-2h-2l-1-1h-2v1h4v1h-1v1h1v1l1 1h1l1 1h2v1h-1l-1 1v1h-1l-2 2-1 1h-2v-1 1-1h-1 1l-1-1v2l-1-1v-1 4l-1-1v-1l-1 1h1l-1 1h-1v-1l-1-1h-1l-1-1v-1h-1v-1 1h-1v1h1v-1l1 2h1v1h-1 2v-1 2l1 1v2h-3l-1-1v-1l-1-1v2h1v3-1l-1 1v-1 1h1-2l1 1-1 1v-1 1-1h-1v1h-1 1v1h-1v-1h-1v1h1-1v1h-1v1l-1 1v1l-1 1h-1v1l-1-1v1h1l-1 1v1l-1 1-1 2h1v1l-1 1h-1l1 1v3l-1 1h-1l-1 1 1-1h1l1-1 1-2h2v8l-2 1h-1l1 1 2-1 2-1h1l1 1 1 1h1l1 1 1 1h1v1l1 1v1h1l1 1 1 1h1v1h1v1h3v1h4v1l-1 1v1l-1 1 1 1v1l-1 1v1l-1 1v1l1 1v1h1l-1 1h1l-1 1h2v3l-1 1h1l1-1 1 1v-1l1-1h1-1 1v2l1 1-1-1v-1l1-1h-1v-1h1v-1h1v-1l-1-1 1-1-1-1 1-1v-6h-1l1-1h2l1-1h1l1-1h1l1-1 1-1v-1h2v-1l-1-1v1-2h1v-2l-1-1v-3l-1-1v-1h-1v-2h1l1-2h1v-2h1v1-1h1v-2h-1l1-1h-1l1-1v-1h-1v-1l1-1 1-1v-1h1v-1h-1v-3h1v-1h2l1 1h2v1h-1 5v-1l1 1v1h1v2h1v1h1v1h-1l1 1h1v1h2v2l1-1v-1h1v1l-1 1-1 1v2-1 1h-3l1 1h2v1l-1 1v1l1 1v1l-1-1v1l1 1v-1h1v4h-1 1v-1l1-1v3-1l1-1h1v-1h1v1-1l1-1h1v2-2l1-1v-1h1v-1h1-1v-1l1-1v1-1l1-1v-1l1-1v1l1-1v1h-1l1 1h-1 1v1h-1 1v1h-1 1v2h-1 1l1 1h-1v1l-1-1v1h2l-1 1h1v1h-2 1l-1 1h2l1-1v1h-2v1h2v1h-1v1-1h1v1h1l-1 1h-1 1v1h1l-1 1h2l-1 1h-1v1h-2 1v1h1v1h-2 3v2l1-1v2l1-1v1h-1l-1 2h-1 1l1-1h1l-1 1h1v-1h1l-1 1h1v-1 1l-1 1h1v-1h2v1h-1 1l1 1v-1h1v1h-1 2v1h-3v1h-3v1l1-1h2l-1 1h-2l-1 1h-1l-1-1v1l1 1v1h1v-1h1v-1h1l1-1h2v-1h-1 3v2h-1v1h1v-1h2-1v1h2-1v1h1v1h-1 1l-1 1v1l-1-1v1h2l-1 1h1-1v1l-1 1h-1v1h-3l-1 1v-1h-1l1 1h-2 1-1v1l-1 1h-1v1h-1l-1 1v-1h-2l-1 1h-1v-1h-5v-1l-1 1-1-1v1h-1l-1-1-1 1v-1h-2l1 1h-1l-1 1h-1v2h-3v1h-1v1h-1v1h-1v1h-1l-1 1v1h-1l-1 1v1l-1 1-2 1h-1 1l1-1h2v-1l1-1h1v-1l2-1 1-1 2-1 1-1h2l1-1h3l1 1h1-1v1h2-1v1l-1 1-1 1h-1v-1h-1l-1 1v-1l-1 1h2l1 1 1-1h1v1l-1 2h-1 1v3h1v1h1v1h3v1h1l1-1v1h1v1h1v1l-1-1-1 1h-2l-1 1h-2v1h-1v-1l-1 1-1 1v1h-2v1h-1v-1h-1v-2l1-1 1-1h1l1-1h1l1 1v-1h2-2l-1-1v1h-1v-1h1l1-1h-1v1h-2v1h-2l1-1-1 1h-1l-1 1v-1h-2l1-1v-1h-1v-1l1-3v-1l-1-1h-2l-1-1v1l-1 1-1 1v1h-1v1l-1 1-1 1v1h-2v1l-8-1-1 1h-1l-1 1-1 1h-1v1l-2 1-6 2v1l-1 1-9 2h-1l1-1 1-1 1-1v-4l-2-9-1-2-1-1-11-5h-1v-1h-4v-1h-2v-1h-1l-1-1v1h-1v-1h-1v-1h-2l-70-8Z" clip-rule="evenodd"/><path fill="currentColor" fill-rule="evenodd" stroke="#F4F4F6" stroke-linejoin="round" stroke-miterlimit="10" d="M133 159v-1h-1v-2h-1v-1l-1-1v-1h-1 1v-1h-1l1-1v-8l-1-1v-2l-1-2 1-1v-1h-4l-1 1v1l-1 1h-2v-2l-1-3v-4h-1l-1 1-1-1h-2l32-60v-1h-1l-1-1v-2h-1v-1h-1v1l-1-1-1 1v-1 1-1 1l-1-1h-1l1-1h-1l-1-1h-1v-1h-1v1-1h-1v-1l-1-1-2 1-1 1 1-1 1-1 1-1h-1v-1h-2l-1 1h-1l-1 1 1-1v-2h-1l1-1-1-1 1-1-1-1-1-1v1l-1-1h-1l-1 1v-1h1v-3l-1 1v1-1l-1 1v1h-1v1-2h-1v1-1h-1v-1h3l1-1v-1h-1v-1h-2l-1 1-1 1h-2l-1-1v1l-1-1v1h-1v-1h1-2l-1 1v1h1-1l-1 1-1 1v1-1l1-1v-1l-2 1h-1v-1h-1l1 1h-3l-1 2-2 1h-1l-1 1-2 2h-1l-1 1h-3l-1-1h-2l-1 2h-1v1h-1v2l1 2v2l1 2-1 1v2h-1v1l1 1h1l1-1v1l1 1v1h-1v2h3l1 1h-1v1l-1 1v-1h-1l-1-1-1-1v-1l1-1v-1h-1v3l-1 1h2v2h-1v1-2h-1v1l-1 1-1-1h-1v-1l-1 1v-1h-1v-2l1-1v-1h-4l-1 1 1 1h-2v-1h-2l-1 1h-1v1h-2v1h-1l1-1h-1v1l1 1v1h1l1 1v1h1l1 1h-2v-1h-2v-1l-1 1 1 1v1h-1v2l1 2 1 1 1-1h3v1l1 1v-2h1l-1 1v1l1-1h1l1-1h1v-1l1 1 1-1h1l-1 1v1h-2v1h1v1l-1 1v1h-1v3h-2v1h-1l-1-1h-1l-1 1-2 1h-3v2h-1v1l-1-1h-1v1l-1-1-1 1v1h-1l-1 1v1h-2l1 1h-1l-1 1 1 1v1l-1 1h1v2l1-1v1h2v-1l1-1h1v1h-1l-1 1 1 1h-1l-1-1h-2l-1 1v4h1v1h-1l2 1h1l1-1v1-1l1-1v-1h1v-1l2-1v1l-1 1h-1v2l-1 1v3h-1v1h-1 1v1h1v1h-1v1h-2l1 1h1l1-1h1v-1h1l-1 1h1v1h1v-1 2h1l-1 1 1 1v-1l1-1v-1l1-1h1l-1 1h-1v1l1 1 1-1h2l1-1-1 1v1l-1 1h-1l-1 1v1h1v1l-1-1-1 1v1l-1 1v1h-1l-1 1h1-1l-2 1v1h-2v1h-2v1h-2v1l-1 1v1h-1 1l-1 1v-2h-3v1h-1v1h-1v1h-1v1h-2v1h1v-1 1h1v-1 1h1v-1 1l1-1h1v-2h2-1v2l1-1v-1 1l1-1v1h1v-1h1l1-1v1l-1 1h1v-2l1 1v-1h2v-1 1h1v-1h-1l1-1h2v-1h2v-1h2v-1h1l1-1h-1l1-1h1l1-1 1-1 1 1v-1h1v-1l1 1v-1h1v-1h1v-1h1v-1h2v-2h-1v-1l1-1v-1h3v1l1-1h-1v-1h2v-1l-1-1h-1 3v-1h1l1-1h1v-1h1l1-1 1-1h1l1-1-1 1 1 1 1-1h2v-1 1h-2l-1 2 1 1v1l-1-1h-1l-1-1v1h-2l-1 1v1l-1 1v1l-2 1v2l1-1h1l-1 1-1 1v-1l-1 1h-1v1l1 1v-1l1 1v-1h1l1-1v-1 1h1l1-1v1h1v-2h1l-1 1h1v-2h1l-1 1h1l1 1 1-1 1-1 1-1v-1h-1 1v-1h-1v-1h1v-1h2l-1 1 1 1v-1h1l-1 1 1-1h2l1-1v1h-2v1h1l1 1h-1l-1-1v1h1v1h-1 1v1h-1 2l1 1v-1l1 1h-1l1 1v-1h1v1l-1 1h1-1v1h4l1 1h2l-1 1h1v1h3l1-1v1h-1v2l-1-1v2h1v1h2l1-1-1 1v1h-1l1 1v3l1 1h2-1 1v-1h-1l1-1-1-1v-1h1v1h1l-1 1h1v2l1 1v-1 2l1-1v-3l1-1v-1l-1-1v-1l1 1 1-1-1 1v7h1v1h2l-1 1v2h-1v-1 2h-1v1h1v1h1-1l1 1v1h1-1v2h2l-1 1h-1l-1 1-1 1 1 1v-2h3-1 1v2l-1 1v1h-1 1v1h-1v1h1l1-1 1-1v-3h1Zm-8 3h-1 1Zm2 1h1v1l-1-1Zm1-1v1-1Zm0-1-1 1 1-1h-1 1Zm0-1h1-1l1-1v-1h1v2l-1 1v1h-1l1-1v-1l-1 1v-1Zm-5 2h1v2-1h-1v-1Zm0-1h1v1l-1-1Zm0 0v-1l1 1h-1Zm0-1v1-1Zm-1-3h1-1Zm2 1Zm0-1v-1h1v1h-1Zm1 1v-3l1 1v1l1 1-1 1h1l-1 1v-1 1h1v1h-1 1v1h-1v2h-1v-3h1-2v-1h1v-1h-1 1v-1Zm3-1v-1h1v1h-1Zm-1 1 1-1v1h-1Zm0-1 1-1v1h-1Zm-1-1 1-1h1v1h-2Zm1-2 1-1v2h-1v-1Zm-2 1v-1l1-1v-1h-1l1-1 1 1h1v1l-1 1v-1 1h-1l1 1h-2Zm-1-1v-2h1-1 1v1h1l-1 1-1 1v1h-1 1v-1l-1 1v-1h1v-1Zm0-5v1-1Zm-2 0h1l1 1v2h-1v3h-1v-2h1v-1l-1 1v-2h1v-1h-1v-1Zm-1 0h1v2h-1v-2Zm3 2v-1l1-1v-2h1v-3 1h1v4-3 3h-1v1-1l-1 1v1h-1Zm-1-7h1v2-1l1 1v1h-1v-1l-1-1v1l1 1 1 1h-1v1l-1-1v-1 2h-1v-2l-1-1h1v-2 1h1v-1Zm0 0v-1 1Zm-81-36h-1 1Zm-1 1h1l1 1-1 1-1-1v-1Zm29-10-1 1v1-1h-2v-1l2-1h1v1Zm0 0v-2h2v1l-2 1Zm5-4h1l1 1h-1l-1-1Zm28 28h1-1Zm-3 9 1-1-1 1Zm6-2h1-1Zm-4-6h1-1Zm1 2v-1 1h1l-1 1v-1Zm-5 3h1v-1l1-1h1v-1h1v1h-1l-1 1v1h-2Zm0-1 1-1v1h-1Zm2-2v-1h1v1h-1v1-1Zm0-3 1-1v1h-1ZM68 83h1-1ZM57 95l1-1v-1h-1v-2h-3v-1l1-1 1-2v2h1v1l1-1 1 1v1l1 1h-1l1 1 1 1h-3v1h-1Zm-3 19h3l1 1-1 1v1h-1v-1l-1 1v-1h-1v-2Zm36 9v-1h1v1h-1Zm-6 4h1-1Zm0 5h1-1v1-1Zm-2 3v-1h1v-1h1v1-1l1 1h-1l1 1h-3Zm-6 6h-1v-1l1-1-1-1h1v-1h2v1h1v-3h1v2-1h1v-1l1 1h-1v1h1v-1h1v1h-1l1 1h-3 1v1h-2 1v1h-2l-1 1v1h-1l1-1v-1 1l-1-1v1Zm-1 2Zm-2 1 1-1 1-1-1 1-1 1Zm-3 3v-1 1Zm-2-5h1-1Zm-11 5v-1l1 1h-1Zm0 0Zm2 2v1-1Zm-1 0 1-1v1h-1Zm-2 1 1-1v-1h1l-1 1-1 1Zm0-2-1-1h1v1Zm-3-1 1 1h-1v-1Zm-2 2v-1h1l-1 1Zm-2 1 1 1h-1v-1ZM1 160v1l1-1H1Zm1-1H1h1Zm0-2 1 1v-1H2Zm4 1-1-1H4v1h1v1-1h1Zm0 1h1v-1 1H6Zm3 0v-1H8v1h1Zm6-1h1v-1h-1v1h-2v1l1-1v1l1-1Zm1 1h2-2Zm5-1h-2 2Zm3 0v-1h-1l1 1Zm2-1-1-1v1h1Zm1 0v-1 1Zm0-1v-1 1Zm1 0Zm6-3v1l-1 1-1 1h-1v1h-1v-1l1-1 1-1h1l-1-1h2Zm4-2-1 1 1 1-1-1v1h-1v1h-2v1h2l1-1v1-1h1v-1h1v-2h-1Zm2 1v-1 1Zm3-1v1-1Zm-1 1v-1 1Zm0-1v-1 1Zm-1 0h-1l1 1v-1Zm25-24Zm-1 0h-1l1-1h1l-1 1Zm-21 22v-1 1l1-1 1-1v1l1-1h1l1 1h-1l1 1h-3l-1 1h-1v-1ZM240 311h3l1 1 1 1h-3v1l-1-1h-1v-1h-1v-1h1ZM256 312l1-1v-1h-1l1-1v-2h-5 1l1 1v1l1 1 1 1h-5l-1-1v1h-1l1 1h1v1-1h5Zm-2-6h1-1Zm-1 4v-1l1 1h-1ZM227 301v-1h1v2h-1v-1Zm-4-2 1 1h-2v1l1-1v1-1h1v-1l1 1v-1l1 1 1-1 1-1h2l1 1h-2 1l1 1h3l1 1h2l1 1v-1h1v2l1 1h2v1h1l-1 1h-1v1h7l1-1h1v-1h-1l-1-1h-2 1v-1h-1l-1-1h-1l-1-1v1-1h-2l-1-1-1-1h-2v-1h-2v-1h-3l-1-1h-2l-1 1h-2l-1 1h-1l-1 1ZM254 302v-1 1Zm-2 2h1l1-1v-1l-1 1h-1v1Zm2-5h1v1l-1-1Zm-2-1-1 1h1v-1Zm-2-1 1 1h-1v-1Zm-2-2 1 1v1l-1-1h1l-1-1Zm-2 0h1-1Zm5-2-1 1h1v-1Zm-3-1v2h1l-1-1v-1Zm-3-3 1 1 1 1-1 1v-2h-1v-1Zm-2-5 1 1v1h1v1h-1v1-3h-1v-1Zm-4 1h4-1l-1 1h-1l-1-1Zm4 6v-1h1v1h-1Zm-1 2Zm-1 0h1v1l-1-1Zm1 0v-2l-1-1v2l1 1Zm0 0v2l1-1h-1 1l-1-1ZM140 194l70 8h2v1h1l1 1h2l1 1h1v1h3v1h2l11 6 1 1 2 1 1 9v5l-1 1h-1v2l9-3h2v-2l5-1 2-2h1v-1l2-1 1-1h9l1-1h2v-1l1-1h1v-2h1l-1-1h1l1-1v-1h3l1 1v5h-1 1v2l1 1v1h1-1l-1 1v-1l-1 1h-3v-1l-1 1v1h-1v1-1l-1 1h-1v1l-1 1-1 1v2l-1 1h1v2h1v-2l1 1-1 1-1 1v-1h-1v1h-1v-2 2h-2v1l-1-1h-1l-1 1h-2v1h-1v4h-1v1l-1 1-1 1v-1l-1-1 1-1h-1l-1 1 1 1v4h-1v2h-1v1h-1l1-1v-1l1-1h-1v-1l-1 1v-4l1-1v-1 1l-1 1h-1 1v1h-1l1 1v1l-1 1v-1h-1v-1h-1l1-1-1 1 1 1h1v1h1v2l-1-1v1h1l-1 1h1l-1 1v-1h-1 1v1h1v3h-2v1h1l1 1v-1 1l-1 1h-1v-1 1l-1-1v1h1v1h-1 2l-1 1h-2l-1 1-1 1-1 1h-2l-1 2v1h-2v1h-3v2h-1v1l-1 1v7h1v5l1 1v4l-1 1v2h-2v-1h-1v-1h-1v-4 1-1 1h-1v-2h-1l1-1v-1h-1l1 1h-1v-2l1-1v-1l-1-1-1-1v-1l-1-1h-2v1h-2v-1h-1 1-1v-1 1l-1-1h-1 1-5v-1l-1 1h-3v1h-1v1-1l1 1h-1v1l1 1h1-1v1-1h-1v-1h-1v1h-3v-1h-1v-1h-1 1-1v1h-2v-1h-4v1h-1v-2 1h-1v2l-1 1h-2v1h-1l1-1h-1v1h-1l-1 1v-1 2h-1v3h-1l1 1v2l-1 1v-1h-2l-1-1h-1v-4l-1-1v-1h-1v-2h-1v-2l-1-1v-1h-4v1l-1 1v1h-1v-1h-2v-1h-1v-1h-1v-3l-1-1v-1h-1v-1h-1v-1h-5v1l-8-1-9-4v-1l-7 1v-2l-1-2v-1h-1l-1-1h-1v-1h-2v-1h-2v-1l1-1h-1v-1l-1-1v-2h-1v-2l1-1h-1v-3h1v-1h-1v-1h1v1-1h1-2v1h-1v-2l-1-2v-5l-1-1v-2l1-1v-1l1-1v-7h1v-2l1-1v-2l1-2v-1l1-2 1-1v-2h2l1 1v-1h-2l-1-1h1v-1l-1-1h1v-1h-1l1-1-1-1 1-1-1-1v-1l1-1 1 1h3v1h1l-1 1h-1v1h1v-1h1l-1 1v1h-1v1h1v-1l1-1v-1h1v-6Zm127 41h1-1Zm-8 3v-1h5v-1 1l-1-1v1-1h-1l-1 1-1-1v1h-1v1Zm-119-41-1 1v1h1l-1-1h1v-1Zm51 84 1-1-1 1Zm0 1v-1 1Zm-1 4v-3 3ZM239 344h-1v-3h1-1l-1-1-1-1h-1l-1 1v1h-1l-1 1 1 1v1h-1v1h-1v-2h-1v1l-1-1v-1h-1v-1h-2v-3h1v1h1-1 2l1 1h1l1-1 1-1h2v-1l1 1h2l1 1 1 1v1l1 1-1 1v1h-1Z" clip-rule="evenodd"/><path fill="currentColor" fill-rule="evenodd" stroke="#F4F4F6" stroke-linejoin="round" stroke-miterlimit="10" d="M226 341v1h-1v-1l-1-1v1h1v1h-1v-1h-1v-2h-1v-1h-1v-1l-1-1h-1l1 1v1l-1-1h-1v-1h-1l1-1v-2h4v1h1v1h1v-1 1l1 1v1h1l1 1h-1v3Z" clip-rule="evenodd"/><path fill="currentColor" fill-rule="evenodd" stroke="#F4F4F6" stroke-linejoin="round" stroke-miterlimit="10" d="M218 333h4v1h2l-1-1v-1l1-1h-1v1-1l1-1h-1v-1h1v1-4h1v-4h1-1v-1h-1v1h-1v1h-1l-1-1v1l-1 1-1 1h-4v2h-1v1h-1l1 1h1v2l1 1 1 1h1Z" clip-rule="evenodd"/><path fill="currentColor" fill-rule="evenodd" stroke="#F4F4F6" stroke-linejoin="round" stroke-miterlimit="10" d="M214 328v-1h1v-2h4l1-1 1-1v-1l1 1h1l1-1 1-1v1h1v-1h-1l-1-1 1 1h-3v-1h2l-1-1h-1v1l-1-1h-3v-1 1h-5l-1 1v-1 1h-1l-1 1-1 1v1l-1 1v2l1 1h2v1h1l1-1h1v1ZM209 313h1l1-1v-1h1v1-1 6l-1 1h-1v1h-1v-6Z" clip-rule="evenodd"/><path fill="currentColor" fill-rule="evenodd" stroke="#F4F4F6" stroke-linejoin="round" stroke-miterlimit="10" d="M206 326v-1l1-1h1l1-1v-1l1-1 1-1h1v-1h-3v-6h-4l-1 2h-1 1v1h1v1h1v1h-4l-1 3v3h1v1h3l1 1Z" clip-rule="evenodd"/><path fill="currentColor" fill-rule="evenodd" stroke="#F4F4F6" stroke-linejoin="round" stroke-miterlimit="10" d="M139 262h7v1l9 4 8 1v-2l4 1h1v1h1v1h1v1l1 1v1h1v1h-1l1 1v1h1v1h2v1h1v-1h1v-2h4v1h1v3h1v1l1 1v1l1 1v3l1 1h1v1h2v1h1v-1 2h-1v1-1 1h-1 1v1l-1 1v5l-1 1h1v4-1l-1-1v1h1v3h1l1 2v1h1v1l1 2h1l1 1 1 1h2l1-1h4v-1l1 1h-1l1 1h1v-2l1-1 1-1v-1l1-1v-2l1-1h-1l2-1h4v-1h1l2 1v-1l1 1v1l-1 1-1 2v1h-1v1h1l-1 1h1l-1 2v1h-1v-2l-1 1h-1v2h-6v2h-2 1v1h1v1h1v1h-3l-2 3v2h-1v-1h-1v-1l-2-1v-1h-1v-1h-1l1 1h1-1l-1-1h-1 1-2 1-1v1h-2l-1 1h-1l-1-1h-2l-1-1h-1l-1-1h-2v-1h-2l-1-1-1-1h-1l-1-1h-1l-1-1h-2v-1h-1v-1h-1v-1h-2v-1l-1-1v-1l-1-1h1l1-1h-1l1-1v-1l-1-2v-2l-1-1v-1l-1-1-1-1v-1l-1-1-1-1h-1 1v-1l-1-1h-1l-1-1h-1v-2l1-1v1-2h-2v-1h-1v-1l-1-1h1v-1h-2v-1l-1-1v-2h-1v-1h-1l1-1-1-1v-3l-1-1 1-1h-2v-1h-1l-1-1-1-1v1h1l-1 1v5l1 1v1h1v2h1v2h1v2h1v2h1v2-1h1v4l1 1v4h1v1-1h1v1l1 1v2l-1 1v-1h-1v-2h-1v-1h-1l-1-1v-1h-1l-1-1 1-1v-3l-1-1-1-1-1-1h1-3v-1h-1v-1l-1-1h3l-1-1h1v-2h-1v-1l-1-1v-1l-1-1v1l-1-1v-4h-1v-1l-1-1v-1h1l-1-1v-2l-1-1Zm14 28h1v-1h-1v1Zm1 1v1-1Zm35-1Zm0 1Zm-1 1h1v-1l-1 1Z" clip-rule="evenodd"/></svg>