<svg xmlns="http://www.w3.org/2000/svg" fill="none" viewBox="0 0 182 154"><path fill="currentColor" stroke="#F4F4F6" stroke-miterlimit="10" d="M61 25h1-1Zm-7 5Zm1-2v-1 1Zm14 2h1-1Zm-17 2h1-1 1-1Zm20-2v-1h-2v1h-1v2-1h-1v2-4h1l-1-1h-1v-2h-1l-1-1h-1v-1h-2l1 1h-1v1h-1v-1h1-1l-1 1h1-1 1-1v-1h-1 1-1v1h1-1v2h-1 1-1v-1 1-1 1h-1 1l-1-1h1v-1 1l-1-1v2h-1v1h-1v1l1-1v1h-1 1v1h-1v-1 1-1 1-1 1h-1 1-1v1h1v1-1 1h-1l1-1h-2v1-1 1h-1v1-1 2-1 1h1v-1 2h-1v1h2-4v-1 1h-1 1-1v-1h-1v1h1v1l-1-1v1h1-1 1-1v1h1v1h1v-1 1h-1 1v1l-1-1v1h1v1-1h-1v-1h-1v1h1v1-1 1h-1v1-1h-1v-2h-1v-2 1-2h-1v2h-1v1h-1v1h-1 1-1v5-1h1v1h-1v1h-1v1h-1v2h-1v2h-1v1h-1v1h-2l-1 1h-2v1l-1-1v1h-2v-1 1h-1v1h-3v1-1 1h-1v-1 1h-1v1h-5v-1 1h-1v1h-1v1h-2v1h-1v1h-1l-1 1h-1l-1 1-1 1v2H6h1v-1H6v1-3h1-1v1H5v2l-1 1v1h1v4H4v1l-1 1v3h1v3h1v1l1 1v1h1v3H5v-2 1H4v-1h1v-1H4v-1H3v1h1v2h1v2H4v-1 1-1H3v-2 2-2 1H2l1 1v1h1v1l1 1 1 1v3h1-1v1h1v2h1v2h1-1l1 1 1 1v6l1 1v2h1v2l1 1v1h1v3h-1 1l-1 1h1-1 1v1h-1v1-2 5l-1 1h-1v-1h-1v4l1 1v-1h1l1 1 1 1 1 1h2-1 1v1h-1 6v1-1h1v1-1h1-1 2-1 1v-1h1v-1h1v-1h1-1 2v1-1h2-1v-1h1v-1h1v-1h1v1h2v-1h7v1h1v-1 1h1v-1h2v1h1v-1h1v1-1h1v-1h1v-2h1v-1h2v-1h1l1-1h2v-1h1v-1h8l1-1h2l2-1 1-1V36v2-1 1-1 1-1 1h-1 1-1 1-1v1h1-1v-1h-1 1-1 1-1l1-1v-1 1-1h1-1 1-1 1v-6Zm-59 88v-1 1Zm56-87h-1v-1 1h1Zm-17 1ZM2 87v-2l-1-1v1l1 1v1Zm0-5v-1 1Zm10-22v-1 1ZM2 81v-1 1ZM150 151Zm-6-2h1-1Zm1 1h-1v-1 1h1Zm19-6-2-1h-1l-2-1h-1l-1-1v-3h-1v-1h-4v1h1-1v-1 1-1h-6v-1h-3v1l-1 1v-1h-1v-1h-1v-1h-1l-1-1h-1v-1h-1v-2h-1v-1h-2v1-1 1h-1v-2h-1 1v-1h-1v1-1h-1v-1h-2v1h-1v-1 1-1h-2v20l1 1 1 1h1l1-1v1h4v1h2v1h3v-1h1v-1h3v-1h-2 1v-1h2v-1 1h1v1h-1v1h-1l1 1v-1h1v-1h1v1h1-1v1h1v1-1h1v1-1h-1l1 1v1-1h1l1 1v1h1v-1h-1 1v-1h-1v1-1h-1 2v-1h2v-1h1l1-1v-1h2l1-1h7v-1h1l-1-1ZM105 133Zm-12-15h-1 1Zm4 7h-1v1h1v-1Zm7 7Zm5-3v1-1Zm4 7h-3v-1h1-4v1h-1v1h4v-1h2v1-1h1ZM72 86v29h5v-1h1v1h2l1-1h2v1h2v1h1v1h2v-1h1v1h2v1h1v-1h1v1h1v1h1l1 1h-1v1-1 2h1v1-1 1h1v-1 1h1-1 1v2h1v1h1v3h1-1v1h1-1v-1h-1v1h2v2h1v-1h1v1-1h-1 1v-2h1v-1h1v-1h1v-1h1v-1 1-1h2v-2h1v-2h1v1-3 1h1v3h-1 1v2h-1v1h-1v5l-1 1v-1h-1v1h-1 1-1v1h2v-1h1v1h1v-2h1v-4h1v2h1v1h1v1h-1v3h-1v1h2v-1h1v1-1h1-1 1-1 1v-1h1v1h-1 1v1h-1 1-1 1v-1h-1v1l1 1h1v2-1l-1-1-2-1h1v1h1l1 1v1l1 1v2l-1 1h1v1l1 1v1h1-1 1v1h1v1h2V86H72Z"/><path fill="currentColor" stroke="#F4F4F6" stroke-miterlimit="10" d="M151 51Zm10 7Zm4 9v-1 1Zm-7-11h1-1v-1 1Zm8 8h1-1Zm-5-7h-1 1v-1 1Zm-1-1v1-1 1l1-1h-1Zm10 17v2h1v-2 1h-1l1-1h-1Zm-3-8v-1 1Zm12 18-1 1 1 1v-2l1-1v-2h-1l1 1h-1v2Zm-8-8Zm7 8h1-1v-1 1Zm-11-16v1h1v-1h-1Zm13 25v1-1h1v-1h-1v1Zm-16-24Zm-47-28v-1 1Zm1 1h1v-1 1h-1Zm-1-2h2v-1h1-1v-1 1h-2v1Zm13-33h1V5h-1v1Zm51 87h-1v2h1v-2Zm0 4h-1v-3h-1v-9 1-1h-1v-2 1-2 1l-1-1-1-1v-1h-1v-1h-1v-2h-1v-1h-1 1-2v-1h-1v-1h-1v-2l-1-1h1-1v-1h1v-2h-1v1-2 1h-1 1v1h-1v-1h-1v-1h-1v-1 3-1h-1v-1 1-1h-1v-4 1h-1v-3h-1v-1 1-1h-1v-1h-1v-1h1v-1h-1v-1 1-1 1-1h-1v1-1h-1 1-1v-1h-1v-1h-1v1-1h-1v-2 1h-1v-1h-1v1-2 1h-1v-1h-2v-3h-1v-1h-1v-1l1-1v-3h-1v-2h-1v-1l-1-1v-4l-1-1v-4h-1v-1h-2v-2l-1 1v-1h-1v1l-1 1v-1h-1v-6l-1-1 1-1h-1v-1h-1v-4h-1v-1h-1v-1h1v-1h-1V9h-1V8v1h-2v6h-1v1h-1v2-1h1-1 1v1h1-1 1v1h-1 1-1v-1 1h-1v4l-1 1v1h1v7l-1 1v5h-1v1l-1 1v3h-2v1h-2v-1h-2v-1h-2v-2h-1v-1h-3l-1-1v48h13v15h36v-1h2v-1h6v1h1v1h1v1h1v-1h2v-2l1-1h4v-1h2ZM131 8h-1v1h1V8Zm17 39v1h1v-2l-1 1ZM131 6Zm0 2Zm19 41h1-1ZM133 2h-1 1Zm-2-1h-1 1Z"/><path fill="currentColor" d="M78 11v1h1v2h2v1l1-1 1-1v-2h-1v1-1h-1v1-1 1h-2v-1h-1Zm-1 3h2v-1 1-1h-1v-1h-1 1v1h-1v1-1 1Zm30 10Zm-8-9Zm0 0h-1 1Zm-1 1 1-1h-1v1Zm8-4v-1h1v-1h-1 1-1v2h-1 1Zm1 4v-1 1Zm-1-2Zm2 20h-1 1v-1 1Zm-3-20v1-1Zm-1 1h1-1Zm-1-1v-1h1-1v1Zm1-1h1v-1 1h-1Zm-17 3v-1 1Zm1-2v-1 1ZM75 30v-1 1Zm13-20v2-2ZM75 29h-1 1v1-1Zm17-16v-1 1-1 1Zm0 0Zm15 14v-1h1-2 1v-2h-1v-1 1h-1v2l1 1v-1h1v1Zm-1 7Zm-2-12v1-1 1-1Zm-2 8v-1 1Zm5 3Zm0 1h-1 1-1 1Zm-2-1 1 1v-1h-1 1-1Zm-1-9h1-1v-1 1h1-1Zm8 14-1-1v-1h-2v-1h-3v-1h-1v-1h-1v-1h-1v-1h-1v-1h-1v-1h-1 1v-1l1-1v-1h1v-2h1v-1h-1v1-3 1-1 1h1l-1-1h2v-1 2-1h1v-1h-1 1v-1h-1 1v-1h1-1l1-1v1-1h1-1v-1h-1 1-1v-1h-1 1v-1 1h-2v1h1v1h-2v-1h1-1v-1h1-1v1h-1v1-2h1-1 1v-1h-1v1h-1 1-1v1-1l-1 1h-2v-1h-3v-1 1-1h-1v1-1h-3 1v-1h-1v1-1h-1v-1h-1 1-1v1-1h-1v-1h-2 1-1 1v1h-1 1-1v-1 1-1h-1v1-1 1h1-1 1v1-1h2v1h1v1h-1 1l-1 1h1v1h-1v-1 2h-1 1v-1h-2v1-1h-3v-1h-1v1h-1v1h-1 1-1 1v1h-1v-1h-1v1h1v1h-1v-1h-1v2h-1v1h1v1h-1v1h-1v-1 2h-1l1 1h-1v1-1 1-1h-1v3h2-1v1h2-2v2h1-1v-1h-2v-1 2-1h-1v6h1-1v50h40V38Z"/><path stroke="#F4F4F6" stroke-miterlimit="10" d="M107 24Zm0 0ZM78 11v1h1v2h2v1l1-1 1-1v-2h-1v1-1h-1v1-1 1h-2v-1h-1Zm-1 3h2v-1 1-1h-1v-1h-1 1v1h-1v1-1 1Zm22 1Zm0 0h-1 1Zm-1 1 1-1h-1v1Zm8-4v-1h1v-1h-1 1-1v2h-1 1Zm1 4v-1 1Zm-1-2Zm2 20h-1 1v-1 1Zm-3-20v1-1Zm-1 1h1-1Zm-1-1v-1h1-1v1Zm1-1h1v-1 1h-1Zm-17 3v-1 1Zm1-2v-1 1ZM75 30v-1 1Zm13-20v2-2ZM75 29h-1 1v1-1Zm17-16v-1 1-1 1Zm0 0Zm15 14v-1h1-2 1v-2h-1v-1 1h-1v2l1 1v-1h1v1Zm-1 7Zm-2-12v1-1 1-1Zm-2 8v-1 1Zm5 3Zm0 1h-1 1-1 1Zm-2-1 1 1v-1h-1 1-1Zm-1-9h1-1v-1 1h1-1Zm8 14-1-1v-1h-2v-1h-3v-1h-1v-1h-1v-1h-1v-1h-1v-1h-1v-1h-1 1v-1l1-1v-1h1v-2h1v-1h-1v1-3 1-1 1h1l-1-1h2v-1 2-1h1v-1h-1 1v-1h-1 1v-1h1-1l1-1v1-1h1-1v-1h-1 1-1v-1h-1 1v-1 1h-2v1h1v1h-2v-1h1-1v-1h1-1v1h-1v1-2h1-1 1v-1h-1v1h-1 1-1v1-1l-1 1h-2v-1h-3v-1 1-1h-1v1-1h-3 1v-1h-1v1-1h-1v-1h-1 1-1v1-1h-1v-1h-2 1-1 1v1h-1 1-1v-1 1-1h-1v1-1 1h1-1 1v1-1h2v1h1v1h-1 1l-1 1h1v1h-1v-1 2h-1 1v-1h-2v1-1h-3v-1h-1v1h-1v1h-1 1-1 1v1h-1v-1h-1v1h1v1h-1v-1h-1v2h-1v1h1v1h-1v1h-1v-1 2h-1l1 1h-1v1-1 1-1h-1v3h2-1v1h2-2v2h1-1v-1h-2v-1 2-1h-1v6h1-1v50h40V38Z"/><path fill="currentColor" d="M181 100v-3l-1 1h-5v1h-1v2h-2v1h-1v-1h-1v-1h-3v-1h-4v1h-2v1h-36v26h2v1-1 1h1v-1h2v1h1v1-1h1v1h-1l1 1v1h1v-1 1-1h2v1h1v2h1v1h1l1 1h1v1h1v1h1v1l1-1v-1h3v1h5l1 1v-1h4v1h1v3l1 1h1l2 1h1l2 1 1 1v-5h1-1v-1h1v-3h1v-3h2-1v-1h1v-1h-1 1v-2 1-2h1v-1h1-1 1v-3 1-1h1v-1 1-1l1-1v-1h2v-1h-1 1l1-1h1-1v-1h1-1 1l-1-1h1v-1h1-1 1v-4h1v-5l1-1v-4h1-1 1v-2Zm-20 26v1-1Z"/><path stroke="#F4F4F6" stroke-miterlimit="10" d="M153 137h-1v1l-1-1h-5v-1h-3v1l-1 1v-1h-1v-1h-1v-1h-1l-1-1h-1v-1h-1v-2h-1v-1h-2v1-1 1h-1v-1l-1-1h1v-1h-1v1-1h-1v-1h-2v1h-1v-1 1-1h-2v-26h36v-1h2v-1h4v1h3v1h1v1h1v-1h2v-2h1v-1h5l1-1v5h-1 1-1v4l-1 1v5h-1v4h-1 1-1v1h-1l1 1h-1 1-1v1h1-1l-1 1h-1 1v1h-2v1l-1 1v1-1 1h-1v1-1 3h-1 1-1v1h-1v2-1 2h-1 1v1h-1v1h1-2v3h-1v3h-1v1h1-1v5l-1-1-2-1h-1l-2-1h-1l-1-1v-3h-1v-1h-3Zm8-11v1-1Z"/></svg>