<svg xmlns="http://www.w3.org/2000/svg" viewBox="0 0 984 368">
 <g fill-rule="evenodd" clip-rule="evenodd" enable-background="new" fill="currentColor">
        <path
            d="M105.35 203.15c-.17 1.02-1.36 2.12-2.71 2.71-1.36.51-2.37.17-2.2-.85a4.72 4.72 0 012.71-2.71c1.26-.34 2.28 0 2.2.85zM104.5 208.06c-.17 1.02-1.27 2.12-2.71 2.71-1.36.51-2.37.17-2.2-.85.17-1.02 1.27-2.2 2.71-2.71 1.44-.42 2.45-.08 2.2.85zM119.49 197.9c-.08.93-1.35 2.12-2.71 2.63-1.35.51-2.37.17-2.29-.76.08-.85 1.35-2.12 2.71-2.63 1.45-.43 2.38-.09 2.29.76zM118.73 202.81c-.08.93-1.35 2.12-2.71 2.63-1.35.51-2.37.17-2.29-.76.09-.93 1.36-2.12 2.71-2.63 1.53-.59 2.46-.26 2.29.76zM112.46 200.44c-.08.93-1.36 2.12-2.71 2.63-1.36.51-2.37.17-2.2-.85.08-.85 1.36-2.12 2.71-2.71 1.35-.26 2.29.08 2.2.93zM111.78 205.44c-.08.93-1.35 2.12-2.71 2.63-1.36.51-2.37.17-2.29-.76s1.36-2.12 2.71-2.71c1.36-.43 2.29-.09 2.29.84zM118.14 207.38c-.08.93-1.36 2.12-2.71 2.63-1.36.51-2.37.17-2.29-.76s1.36-2.12 2.71-2.63c1.44-.51 2.37-.17 2.29.76zM117.46 212.3c-.08.93-1.36 2.12-2.71 2.63-1.36.51-2.37.17-2.29-.76s1.27-2.12 2.71-2.63c1.36-.6 2.46-.26 2.29.76zM111.1 210.1c-.08.93-1.35 2.12-2.71 2.63-1.35.51-2.37.17-2.29-.76.09-.93 1.27-2.12 2.71-2.71 1.36-.52 2.46-.18 2.29.84zM131.61 211.45c-.09.85-1.36 2.12-2.71 2.63-1.36.51-2.46.17-2.29-.85.08-.93 1.35-2.12 2.71-2.63 1.35-.5 2.45-.17 2.29.85zM124.15 214.16c-.08.85-1.36 2.12-2.71 2.63-1.36.51-2.46.17-2.29-.85.08-.93 1.36-2.12 2.71-2.63 1.36-.5 2.46-.16 2.29.85z" />
    </g> 
</svg>
