<svg xmlns="http://www.w3.org/2000/svg" width="93" height="16" fill="none" viewBox="0 0 93 16"><path fill="url(#a)" d="m17.373 7.25-3.66-6.5a1.46 1.46 0 0 0-1.27-.75h-7.32C4.6 0 4.117.285 3.856.75l-3.66 6.5a1.53 1.53 0 0 0 0 1.5l3.66 6.5c.261.465.745.75 1.267.75h7.32c.523 0 1.006-.285 1.267-.75l3.66-6.5a1.53 1.53 0 0 0 .003-1.5"/><path fill="#fff" d="M30.379 3.246h1.59v9.5h-1.224L25.742 6.12v6.625h-1.586v-9.5h1.22l5.003 6.625zM35.138 12.746v-9.5h1.708v9.5zM47.704 3.246h1.342v9.5h-1.464V6.87l-2.501 5.875h-1.098L41.48 6.87v5.875h-1.464v-9.5h1.342l3.173 7.437z"/><rect width="21" height="15" x="72" fill="#fff" rx="2"/><path fill="#1f2348" d="M75.72 11V3.95h4.79v1.21h-3.23v1.72h3v1.2h-3V11zm5.791 0V3.95h1.37l2.45 5.5h-.32l2.45-5.5h1.36V11h-1.42V6.21h.4L85.611 11h-.9l-2.2-4.79h.42V11z"/><path fill="#fff" d="M52.219 12.746v-9.5h1.708v9.5zM65.337 10.58c-.498 1.013-1.271 1.608-1.957 1.898.08.19.459.72.744 1.025.286.305.586.615.967.93l-1.16.937c-.427-.305-.797-.67-1.176-1.095a8 8 0 0 1-.993-1.417c-.07.005-.268.012-.393.012-.944 0-1.732-.197-2.413-.59q-1.02-.591-1.56-1.7c-.329-.672-.541-1.57-.541-2.585s.183-1.845.546-2.585a3.9 3.9 0 0 1 1.567-1.7c.68-.395 1.476-.59 2.401-.59s1.733.198 2.414.59q1.02.591 1.559 1.7c.361.74.542 1.57.542 2.585s-.218 1.915-.547 2.585m-6.035.008q.739.907 2.067.907 1.33 0 2.067-.907c.493-.608.74-1.463.74-2.593 0-1.122-.247-1.997-.74-2.597q-.739-.902-2.067-.903-1.33 0-2.067.895c-.493.598-.74 1.475-.74 2.605s.247 1.985.74 2.593"/><defs><radialGradient id="a" cx="0" cy="0" r="1" gradientTransform="matrix(-17.5684 0 0 -16 17.568 16)" gradientUnits="userSpaceOnUse"><stop stop-color="#ec991c"/><stop offset="1" stop-color="#e9b213"/></radialGradient></defs></svg>