<svg xmlns="http://www.w3.org/2000/svg" fill="currentColor" viewBox="0 0 2795 544">
  <path d="m168.12 297.84-25.84-44.68a10.32 10.32 0 0 0-8.94-5.16H81.66a10.32 10.32 0 0 0-8.94 5.16l-25.84 44.68a10.34 10.34 0 0 0 0 10.32l25.84 44.68a10.32 10.32 0 0 0 8.94 5.16h51.68a10.32 10.32 0 0 0 8.94-5.16l25.84-44.68a10.34 10.34 0 0 0 0-10.32Z" opacity=".01"/>
  <path d="m168.12 421.84-25.84-44.68a10.32 10.32 0 0 0-8.94-5.16H81.66a10.32 10.32 0 0 0-8.94 5.16l-25.84 44.68a10.34 10.34 0 0 0 0 10.32l25.84 44.68a10.32 10.32 0 0 0 8.94 5.16h51.68a10.32 10.32 0 0 0 8.94-5.16l25.84-44.68a10.34 10.34 0 0 0 0-10.32Z" opacity=".02"/>
  <path d="m275.62 359.84-25.84-44.68a10.32 10.32 0 0 0-8.94-5.16h-51.68a10.32 10.32 0 0 0-8.94 5.16l-25.84 44.68a10.34 10.34 0 0 0 0 10.32l25.84 44.68a10.32 10.32 0 0 0 8.94 5.16h51.68a10.32 10.32 0 0 0 8.94-5.16l25.84-44.68a10.34 10.34 0 0 0 0-10.32Z" opacity=".03"/>
  <path d="m383.12 297.84-25.84-44.68a10.32 10.32 0 0 0-8.94-5.16h-51.68a10.32 10.32 0 0 0-8.94 5.16l-25.84 44.68a10.34 10.34 0 0 0 0 10.32l25.84 44.68a10.32 10.32 0 0 0 8.94 5.16h51.68a10.32 10.32 0 0 0 8.94-5.16l25.84-44.68a10.34 10.34 0 0 0 0-10.32Z" opacity=".02"/>
  <path d="m383.12 421.84-25.84-44.68a10.32 10.32 0 0 0-8.94-5.16h-51.68a10.32 10.32 0 0 0-8.94 5.16l-25.84 44.68a10.34 10.34 0 0 0 0 10.32l25.84 44.68a10.32 10.32 0 0 0 8.94 5.16h51.68a10.32 10.32 0 0 0 8.94-5.16l25.84-44.68a10.34 10.34 0 0 0 0-10.32Z" opacity=".04"/>
  <path d="m490.62 235.84-25.84-44.68a10.32 10.32 0 0 0-8.94-5.16h-51.68a10.32 10.32 0 0 0-8.94 5.16l-25.84 44.68a10.34 10.34 0 0 0 0 10.32l25.84 44.68a10.32 10.32 0 0 0 8.94 5.16h51.68a10.32 10.32 0 0 0 8.94-5.16l25.84-44.68a10.34 10.34 0 0 0 0-10.32Z" opacity=".03"/>
  <path d="m490.62 359.84-25.84-44.68a10.32 10.32 0 0 0-8.94-5.16h-51.68a10.32 10.32 0 0 0-8.94 5.16l-25.84 44.68a10.34 10.34 0 0 0 0 10.32l25.84 44.68a10.32 10.32 0 0 0 8.94 5.16h51.68a10.32 10.32 0 0 0 8.94-5.16l25.84-44.68a10.34 10.34 0 0 0 0-10.32Z" opacity=".01"/>
  <path d="m598.12 297.84-25.84-44.68a10.32 10.32 0 0 0-8.94-5.16h-51.68a10.32 10.32 0 0 0-8.94 5.16l-25.84 44.68a10.34 10.34 0 0 0 0 10.32l25.84 44.68a10.32 10.32 0 0 0 8.94 5.16h51.68a10.32 10.32 0 0 0 8.94-5.16l25.84-44.68a10.34 10.34 0 0 0 0-10.32Z" opacity=".02"/>
  <path d="m598.12 421.84-25.84-44.68a10.32 10.32 0 0 0-8.94-5.16h-51.68a10.32 10.32 0 0 0-8.94 5.16l-25.84 44.68a10.34 10.34 0 0 0 0 10.32l25.84 44.68a10.32 10.32 0 0 0 8.94 5.16h51.68a10.32 10.32 0 0 0 8.94-5.16l25.84-44.68a10.34 10.34 0 0 0 0-10.32Z" opacity=".03"/>
  <path d="m705.62 235.84-25.84-44.68a10.32 10.32 0 0 0-8.94-5.16h-51.68a10.32 10.32 0 0 0-8.94 5.16l-25.84 44.68a10.34 10.34 0 0 0 0 10.32l25.84 44.68a10.32 10.32 0 0 0 8.94 5.16h51.68a10.32 10.32 0 0 0 8.94-5.16l25.84-44.68a10.34 10.34 0 0 0 0-10.32Z" opacity=".06"/>
  <path d="m705.62 359.84-25.84-44.68a10.32 10.32 0 0 0-8.94-5.16h-51.68a10.32 10.32 0 0 0-8.94 5.16l-25.84 44.68a10.34 10.34 0 0 0 0 10.32l25.84 44.68a10.32 10.32 0 0 0 8.94 5.16h51.68a10.32 10.32 0 0 0 8.94-5.16l25.84-44.68a10.34 10.34 0 0 0 0-10.32Zm107.5-62-25.84-44.68a10.32 10.32 0 0 0-8.94-5.16h-51.68a10.32 10.32 0 0 0-8.94 5.16l-25.84 44.68a10.34 10.34 0 0 0 0 10.32l25.84 44.68a10.32 10.32 0 0 0 8.94 5.16h51.68a10.32 10.32 0 0 0 8.94-5.16l25.84-44.68a10.34 10.34 0 0 0 0-10.32Z" opacity=".02"/>
  <path d="m813.12 421.84-25.84-44.68a10.32 10.32 0 0 0-8.94-5.16h-51.68a10.32 10.32 0 0 0-8.94 5.16l-25.84 44.68a10.34 10.34 0 0 0 0 10.32l25.84 44.68a10.32 10.32 0 0 0 8.94 5.16h51.68a10.32 10.32 0 0 0 8.94-5.16l25.84-44.68a10.34 10.34 0 0 0 0-10.32Z" opacity=".03"/>
  <path d="m920.62 235.84-25.84-44.68a10.32 10.32 0 0 0-8.94-5.16h-51.68a10.32 10.32 0 0 0-8.94 5.16l-25.84 44.68a10.34 10.34 0 0 0 0 10.32l25.84 44.68a10.32 10.32 0 0 0 8.94 5.16h51.68a10.32 10.32 0 0 0 8.94-5.16l25.84-44.68a10.34 10.34 0 0 0 0-10.32Z" opacity=".01"/>
  <path d="m920.62 359.84-25.84-44.68a10.32 10.32 0 0 0-8.94-5.16h-51.68a10.32 10.32 0 0 0-8.94 5.16l-25.84 44.68a10.34 10.34 0 0 0 0 10.32l25.84 44.68a10.32 10.32 0 0 0 8.94 5.16h51.68a10.32 10.32 0 0 0 8.94-5.16l25.84-44.68a10.34 10.34 0 0 0 0-10.32Z" opacity=".06"/>
  <path d="m920.62 483.84-25.84-44.68a10.32 10.32 0 0 0-8.94-5.16h-51.68a10.32 10.32 0 0 0-8.94 5.16l-25.84 44.68a10.34 10.34 0 0 0 0 10.32l25.84 44.68a10.32 10.32 0 0 0 8.94 5.16h51.68a10.32 10.32 0 0 0 8.94-5.16l25.84-44.68a10.34 10.34 0 0 0 0-10.32Z" opacity=".03"/>
  <path d="m1028.12 297.84-25.84-44.68a10.32 10.32 0 0 0-8.94-5.16h-51.68a10.32 10.32 0 0 0-8.94 5.16l-25.84 44.68a10.34 10.34 0 0 0 0 10.32l25.84 44.68a10.32 10.32 0 0 0 8.94 5.16h51.68a10.32 10.32 0 0 0 8.94-5.16l25.84-44.68a10.34 10.34 0 0 0 0-10.32Z" opacity=".02"/>
  <path d="m1028.12 421.84-25.84-44.68a10.32 10.32 0 0 0-8.94-5.16h-51.68a10.32 10.32 0 0 0-8.94 5.16l-25.84 44.68a10.34 10.34 0 0 0 0 10.32l25.84 44.68a10.32 10.32 0 0 0 8.94 5.16h51.68a10.32 10.32 0 0 0 8.94-5.16l25.84-44.68a10.34 10.34 0 0 0 0-10.32Z" opacity=".04"/>
  <path d="m1135.62 359.84-25.84-44.68a10.32 10.32 0 0 0-8.94-5.16h-51.68a10.32 10.32 0 0 0-8.94 5.16l-25.84 44.68a10.34 10.34 0 0 0 0 10.32l25.84 44.68a10.32 10.32 0 0 0 8.94 5.16h51.68a10.32 10.32 0 0 0 8.94-5.16l25.84-44.68a10.34 10.34 0 0 0 0-10.32Z" opacity=".02"/>
  <path d="m1243.12 297.84-25.84-44.68a10.32 10.32 0 0 0-8.94-5.16h-51.68a10.32 10.32 0 0 0-8.94 5.16l-25.84 44.68a10.34 10.34 0 0 0 0 10.32l25.84 44.68a10.32 10.32 0 0 0 8.94 5.16h51.68a10.32 10.32 0 0 0 8.94-5.16l25.84-44.68a10.34 10.34 0 0 0 0-10.32Z" opacity=".01"/>
  <path d="m1243.12 421.84-25.84-44.68a10.32 10.32 0 0 0-8.94-5.16h-51.68a10.32 10.32 0 0 0-8.94 5.16l-25.84 44.68a10.34 10.34 0 0 0 0 10.32l25.84 44.68a10.32 10.32 0 0 0 8.94 5.16h51.68a10.32 10.32 0 0 0 8.94-5.16l25.84-44.68a10.34 10.34 0 0 0 0-10.32Z" opacity=".05"/>
  <path d="m1350.62 359.84-25.84-44.68a10.32 10.32 0 0 0-8.94-5.16h-51.68a10.32 10.32 0 0 0-8.94 5.16l-25.84 44.68a10.34 10.34 0 0 0 0 10.32l25.84 44.68a10.32 10.32 0 0 0 8.94 5.16h51.68a10.32 10.32 0 0 0 8.94-5.16l25.84-44.68a10.34 10.34 0 0 0 0-10.32Z" opacity=".03"/>
  <path d="m1458.12 297.84-25.84-44.68a10.32 10.32 0 0 0-8.94-5.16h-51.68a10.32 10.32 0 0 0-8.94 5.16l-25.84 44.68a10.34 10.34 0 0 0 0 10.32l25.84 44.68a10.32 10.32 0 0 0 8.94 5.16h51.68a10.32 10.32 0 0 0 8.94-5.16l25.84-44.68a10.34 10.34 0 0 0 0-10.32Z" opacity=".01"/>
  <path d="m1458.12 421.84-25.84-44.68a10.32 10.32 0 0 0-8.94-5.16h-51.68a10.32 10.32 0 0 0-8.94 5.16l-25.84 44.68a10.34 10.34 0 0 0 0 10.32l25.84 44.68a10.32 10.32 0 0 0 8.94 5.16h51.68a10.32 10.32 0 0 0 8.94-5.16l25.84-44.68a10.34 10.34 0 0 0 0-10.32Z" opacity=".02"/>
  <path d="m1565.62 359.84-25.84-44.68a10.32 10.32 0 0 0-8.94-5.16h-51.68a10.32 10.32 0 0 0-8.94 5.16l-25.84 44.68a10.34 10.34 0 0 0 0 10.32l25.84 44.68a10.32 10.32 0 0 0 8.94 5.16h51.68a10.32 10.32 0 0 0 8.94-5.16l25.84-44.68a10.34 10.34 0 0 0 0-10.32Z" opacity=".03"/>
  <path d="m1673.12 297.84-25.84-44.68a10.32 10.32 0 0 0-8.94-5.16h-51.68a10.32 10.32 0 0 0-8.94 5.16l-25.84 44.68a10.34 10.34 0 0 0 0 10.32l25.84 44.68a10.32 10.32 0 0 0 8.94 5.16h51.68a10.32 10.32 0 0 0 8.94-5.16l25.84-44.68a10.34 10.34 0 0 0 0-10.32Z" opacity=".02"/>
  <path d="m1673.12 421.84-25.84-44.68a10.32 10.32 0 0 0-8.94-5.16h-51.68a10.32 10.32 0 0 0-8.94 5.16l-25.84 44.68a10.34 10.34 0 0 0 0 10.32l25.84 44.68a10.32 10.32 0 0 0 8.94 5.16h51.68a10.32 10.32 0 0 0 8.94-5.16l25.84-44.68a10.34 10.34 0 0 0 0-10.32Z" opacity=".04"/>
  <path d="m1780.62 359.84-25.84-44.68a10.32 10.32 0 0 0-8.94-5.16h-51.68a10.32 10.32 0 0 0-8.94 5.16l-25.84 44.68a10.34 10.34 0 0 0 0 10.32l25.84 44.68a10.32 10.32 0 0 0 8.94 5.16h51.68a10.32 10.32 0 0 0 8.94-5.16l25.84-44.68a10.34 10.34 0 0 0 0-10.32Z" opacity=".01"/>
  <path d="m1888.12 297.84-25.84-44.68a10.32 10.32 0 0 0-8.94-5.16h-51.68a10.32 10.32 0 0 0-8.94 5.16l-25.84 44.68a10.34 10.34 0 0 0 0 10.32l25.84 44.68a10.32 10.32 0 0 0 8.94 5.16h51.68a10.32 10.32 0 0 0 8.94-5.16l25.84-44.68a10.34 10.34 0 0 0 0-10.32Z" opacity=".05"/>
  <path d="m1888.12 421.84-25.84-44.68a10.32 10.32 0 0 0-8.94-5.16h-51.68a10.32 10.32 0 0 0-8.94 5.16l-25.84 44.68a10.34 10.34 0 0 0 0 10.32l25.84 44.68a10.32 10.32 0 0 0 8.94 5.16h51.68a10.32 10.32 0 0 0 8.94-5.16l25.84-44.68a10.34 10.34 0 0 0 0-10.32Z" opacity=".03"/>
  <path d="m1995.62 235.84-25.84-44.68a10.32 10.32 0 0 0-8.94-5.16h-51.68a10.32 10.32 0 0 0-8.94 5.16l-25.84 44.68a10.34 10.34 0 0 0 0 10.32l25.84 44.68a10.32 10.32 0 0 0 8.94 5.16h51.68a10.32 10.32 0 0 0 8.94-5.16l25.84-44.68a10.34 10.34 0 0 0 0-10.32Z" opacity=".06"/>
  <path d="m1995.62 359.84-25.84-44.68a10.32 10.32 0 0 0-8.94-5.16h-51.68a10.32 10.32 0 0 0-8.94 5.16l-25.84 44.68a10.34 10.34 0 0 0 0 10.32l25.84 44.68a10.32 10.32 0 0 0 8.94 5.16h51.68a10.32 10.32 0 0 0 8.94-5.16l25.84-44.68a10.34 10.34 0 0 0 0-10.32Z" opacity=".02"/>
  <path d="m2103.12 173.84-25.84-44.68a10.32 10.32 0 0 0-8.94-5.16h-51.68a10.32 10.32 0 0 0-8.94 5.16l-25.84 44.68a10.34 10.34 0 0 0 0 10.32l25.84 44.68a10.32 10.32 0 0 0 8.94 5.16h51.68a10.32 10.32 0 0 0 8.94-5.16l25.84-44.68a10.34 10.34 0 0 0 0-10.32Z" opacity=".04"/>
  <path d="m2103.12 297.84-25.84-44.68a10.32 10.32 0 0 0-8.94-5.16h-51.68a10.32 10.32 0 0 0-8.94 5.16l-25.84 44.68a10.34 10.34 0 0 0 0 10.32l25.84 44.68a10.32 10.32 0 0 0 8.94 5.16h51.68a10.32 10.32 0 0 0 8.94-5.16l25.84-44.68a10.34 10.34 0 0 0 0-10.32Z" opacity=".06"/>
  <path d="m2103.12 421.84-25.84-44.68a10.32 10.32 0 0 0-8.94-5.16h-51.68a10.32 10.32 0 0 0-8.94 5.16l-25.84 44.68a10.34 10.34 0 0 0 0 10.32l25.84 44.68a10.32 10.32 0 0 0 8.94 5.16h51.68a10.32 10.32 0 0 0 8.94-5.16l25.84-44.68a10.34 10.34 0 0 0 0-10.32Z" opacity=".03"/>
  <path d="m2210.62 235.84-25.84-44.68a10.32 10.32 0 0 0-8.94-5.16h-51.68a10.32 10.32 0 0 0-8.94 5.16l-25.84 44.68a10.34 10.34 0 0 0 0 10.32l25.84 44.68a10.32 10.32 0 0 0 8.94 5.16h51.68a10.32 10.32 0 0 0 8.94-5.16l25.84-44.68a10.34 10.34 0 0 0 0-10.32Z" opacity=".04"/>
  <path d="m2210.62 359.84-25.84-44.68a10.32 10.32 0 0 0-8.94-5.16h-51.68a10.32 10.32 0 0 0-8.94 5.16l-25.84 44.68a10.34 10.34 0 0 0 0 10.32l25.84 44.68a10.32 10.32 0 0 0 8.94 5.16h51.68a10.32 10.32 0 0 0 8.94-5.16l25.84-44.68a10.34 10.34 0 0 0 0-10.32Zm107.5-186-25.84-44.68a10.32 10.32 0 0 0-8.94-5.16h-51.68a10.32 10.32 0 0 0-8.94 5.16l-25.84 44.68a10.34 10.34 0 0 0 0 10.32l25.84 44.68a10.32 10.32 0 0 0 8.94 5.16h51.68a10.32 10.32 0 0 0 8.94-5.16l25.84-44.68a10.34 10.34 0 0 0 0-10.32Z" opacity=".01"/>
  <path d="m2318.12 297.84-25.84-44.68a10.32 10.32 0 0 0-8.94-5.16h-51.68a10.32 10.32 0 0 0-8.94 5.16l-25.84 44.68a10.34 10.34 0 0 0 0 10.32l25.84 44.68a10.32 10.32 0 0 0 8.94 5.16h51.68a10.32 10.32 0 0 0 8.94-5.16l25.84-44.68a10.34 10.34 0 0 0 0-10.32Z" opacity=".05"/>
  <path d="m2425.62 235.84-25.84-44.68a10.32 10.32 0 0 0-8.94-5.16h-51.68a10.32 10.32 0 0 0-8.94 5.16l-25.84 44.68a10.34 10.34 0 0 0 0 10.32l25.84 44.68a10.32 10.32 0 0 0 8.94 5.16h51.68a10.32 10.32 0 0 0 8.94-5.16l25.84-44.68a10.34 10.34 0 0 0 0-10.32Z" opacity=".03"/>
  <path d="m2425.62 359.84-25.84-44.68a10.32 10.32 0 0 0-8.94-5.16h-51.68a10.32 10.32 0 0 0-8.94 5.16l-25.84 44.68a10.34 10.34 0 0 0 0 10.32l25.84 44.68a10.32 10.32 0 0 0 8.94 5.16h51.68a10.32 10.32 0 0 0 8.94-5.16l25.84-44.68a10.34 10.34 0 0 0 0-10.32Z" opacity=".02"/>
  <path d="m2533.12 173.84-25.84-44.68a10.32 10.32 0 0 0-8.94-5.16h-51.68a10.32 10.32 0 0 0-8.94 5.16l-25.84 44.68a10.34 10.34 0 0 0 0 10.32l25.84 44.68a10.32 10.32 0 0 0 8.94 5.16h51.68a10.32 10.32 0 0 0 8.94-5.16l25.84-44.68a10.34 10.34 0 0 0 0-10.32Z" opacity=".01"/>
  <path d="m2533.12 297.84-25.84-44.68a10.32 10.32 0 0 0-8.94-5.16h-51.68a10.32 10.32 0 0 0-8.94 5.16l-25.84 44.68a10.34 10.34 0 0 0 0 10.32l25.84 44.68a10.32 10.32 0 0 0 8.94 5.16h51.68a10.32 10.32 0 0 0 8.94-5.16l25.84-44.68a10.34 10.34 0 0 0 0-10.32Z" opacity=".02"/>
  <path d="m2533.12 421.84-25.84-44.68a10.32 10.32 0 0 0-8.94-5.16h-51.68a10.32 10.32 0 0 0-8.94 5.16l-25.84 44.68a10.34 10.34 0 0 0 0 10.32l25.84 44.68a10.32 10.32 0 0 0 8.94 5.16h51.68a10.32 10.32 0 0 0 8.94-5.16l25.84-44.68a10.34 10.34 0 0 0 0-10.32Z" opacity=".03"/>
  <path d="m2640.62 111.84-25.84-44.68a10.32 10.32 0 0 0-8.94-5.16h-51.68a10.32 10.32 0 0 0-8.94 5.16l-25.84 44.68a10.34 10.34 0 0 0 0 10.32l25.84 44.68a10.32 10.32 0 0 0 8.94 5.16h51.68a10.32 10.32 0 0 0 8.94-5.16l25.84-44.68a10.34 10.34 0 0 0 0-10.32Z" opacity=".02"/>
  <path d="m2640.62 235.84-25.84-44.68a10.32 10.32 0 0 0-8.94-5.16h-51.68a10.32 10.32 0 0 0-8.94 5.16l-25.84 44.68a10.34 10.34 0 0 0 0 10.32l25.84 44.68a10.32 10.32 0 0 0 8.94 5.16h51.68a10.32 10.32 0 0 0 8.94-5.16l25.84-44.68a10.34 10.34 0 0 0 0-10.32Z" opacity=".03"/>
  <path d="m2640.62 359.84-25.84-44.68a10.32 10.32 0 0 0-8.94-5.16h-51.68a10.32 10.32 0 0 0-8.94 5.16l-25.84 44.68a10.34 10.34 0 0 0 0 10.32l25.84 44.68a10.32 10.32 0 0 0 8.94 5.16h51.68a10.32 10.32 0 0 0 8.94-5.16l25.84-44.68a10.34 10.34 0 0 0 0-10.32Z" opacity=".02"/>
  <path d="m2748.12 173.84-25.84-44.68a10.32 10.32 0 0 0-8.94-5.16h-51.68a10.32 10.32 0 0 0-8.94 5.16l-25.84 44.68a10.34 10.34 0 0 0 0 10.32l25.84 44.68a10.32 10.32 0 0 0 8.94 5.16h51.68a10.32 10.32 0 0 0 8.94-5.16l25.84-44.68a10.34 10.34 0 0 0 0-10.32Z" opacity=".01"/>
  <path d="m2748.12 297.84-25.84-44.68a10.32 10.32 0 0 0-8.94-5.16h-51.68a10.32 10.32 0 0 0-8.94 5.16l-25.84 44.68a10.34 10.34 0 0 0 0 10.32l25.84 44.68a10.32 10.32 0 0 0 8.94 5.16h51.68a10.32 10.32 0 0 0 8.94-5.16l25.84-44.68a10.34 10.34 0 0 0 0-10.32Zm-2687.5 62-25.84-44.68a10.32 10.32 0 0 0-8.94-5.16H0v110h25.84a10.32 10.32 0 0 0 8.94-5.16l25.84-44.68a10.34 10.34 0 0 0 0-10.32Z" opacity=".03"/>
  <path d="m60.62 235.84-25.84-44.68a10.32 10.32 0 0 0-8.94-5.16H0v110h25.84a10.32 10.32 0 0 0 8.94-5.16l25.84-44.68a10.34 10.34 0 0 0 0-10.32Z" opacity=".02"/>
  <path d="M2795 310h-25.84a10.32 10.32 0 0 0-8.94 5.16l-25.84 44.68a10.34 10.34 0 0 0 0 10.32l25.84 44.68a10.32 10.32 0 0 0 8.94 5.16H2795Z" opacity=".03"/>
  <path d="M2795 186h-25.84a10.32 10.32 0 0 0-8.94 5.16l-25.84 44.68a10.34 10.34 0 0 0 0 10.32l25.84 44.68a10.32 10.32 0 0 0 8.94 5.16H2795Z" opacity=".02"/>
  <path d="m1780.62 235.84-25.84-44.68a10.32 10.32 0 0 0-8.94-5.16h-51.68a10.32 10.32 0 0 0-8.94 5.16l-25.84 44.68a10.34 10.34 0 0 0 0 10.32l25.84 44.68a10.32 10.32 0 0 0 8.94 5.16h51.68a10.32 10.32 0 0 0 8.94-5.16l25.84-44.68a10.34 10.34 0 0 0 0-10.32Z" opacity=".04"/>
  <path d="m1888.12 49.84-25.84-44.68a10.32 10.32 0 0 0-8.94-5.16h-51.68a10.32 10.32 0 0 0-8.94 5.16l-25.84 44.68a10.34 10.34 0 0 0 0 10.32l25.84 44.68a10.32 10.32 0 0 0 8.94 5.16h51.68a10.32 10.32 0 0 0 8.94-5.16l25.84-44.68a10.34 10.34 0 0 0 0-10.32Z" opacity=".02"/>
  <path d="m1888.12 173.84-25.84-44.68a10.32 10.32 0 0 0-8.94-5.16h-51.68a10.32 10.32 0 0 0-8.94 5.16l-25.84 44.68a10.34 10.34 0 0 0 0 10.32l25.84 44.68a10.32 10.32 0 0 0 8.94 5.16h51.68a10.32 10.32 0 0 0 8.94-5.16l25.84-44.68a10.34 10.34 0 0 0 0-10.32Z" opacity=".01"/>
  <path d="m1995.62 111.84-25.84-44.68a10.32 10.32 0 0 0-8.94-5.16h-51.68a10.32 10.32 0 0 0-8.94 5.16l-25.84 44.68a10.34 10.34 0 0 0 0 10.32l25.84 44.68a10.32 10.32 0 0 0 8.94 5.16h51.68a10.32 10.32 0 0 0 8.94-5.16l25.84-44.68a10.34 10.34 0 0 0 0-10.32Z" opacity=".03"/>
  <path d="m2103.12 49.84-25.84-44.68a10.32 10.32 0 0 0-8.94-5.16h-51.68a10.32 10.32 0 0 0-8.94 5.16l-25.84 44.68a10.34 10.34 0 0 0 0 10.32l25.84 44.68a10.32 10.32 0 0 0 8.94 5.16h51.68a10.32 10.32 0 0 0 8.94-5.16l25.84-44.68a10.34 10.34 0 0 0 0-10.32Zm107.5 62-25.84-44.68a10.32 10.32 0 0 0-8.94-5.16h-51.68a10.32 10.32 0 0 0-8.94 5.16l-25.84 44.68a10.34 10.34 0 0 0 0 10.32l25.84 44.68a10.32 10.32 0 0 0 8.94 5.16h51.68a10.32 10.32 0 0 0 8.94-5.16l25.84-44.68a10.34 10.34 0 0 0 0-10.32Z" opacity=".02"/>
</svg>
