<svg width="1734" height="1374" viewBox="0 0 1734 1374" fill="none" xmlns="http://www.w3.org/2000/svg"><g filter="url(#a)"><path fill-rule="evenodd" clip-rule="evenodd" d="M1186.74 207.895c-3.26 73.219 38.37 140.058 105.04 183.039 2.48 1.6 2.52 5.261.08 6.925-24.88 16.974-46.16 39.328-61.93 66.646-34.93 60.501-35.28 132.216-7.44 194.987a4.108 4.108 0 0 1-2.02 5.391c-38.41 17.896-71.63 47.025-94.15 86.022-21.7 37.588-30.49 79.202-27.77 119.965a4.116 4.116 0 0 1-3.38 4.318c-57.49 10.319-109.93 44.601-141.134 98.647a206.057 206.057 0 0 0-6.003 11.18 4.105 4.105 0 0 1-3.989 2.262c-36.389-2.789-73.94 5.161-107.776 23.253a4.07 4.07 0 0 1-3.691.09c-46.656-22.077-106.194-22.017-162.702.86-.776.32-1.668.04-2.125-.66-25.483-39.052-70.361-59.7-120.738-60.746-2.006-.042-3.692-1.53-4.023-3.509a95.122 95.122 0 0 0-1.959-9.007c-14.732-54.781-76.234-88.578-150.959-89.56-3.185-.042-5.181-3.591-3.691-6.407 6.612-12.491 9.849-25.819 9.035-39.498-2.834-47.674-54.004-85.273-122.689-95.849-4.181-.644-5.285-7.396-1.698-9.639 12.459-7.791 21.179-18.076 24.842-30.57 12.965-44.22-42.336-99.362-123.518-123.163-81.182-23.801-157.503-7.248-170.467 36.972-12.965 44.221 42.336 99.363 123.518 123.164a282.445 282.445 0 0 0 20.223 5.13c4.291.92 4.709 7.978.567 9.429-58.783 20.596-98.134 60.983-95.516 105.018 3.076 51.749 63.105 91.628 140.668 97.958 3.466.283 5.129 4.565 2.783 7.131-31.162 34.079-45.489 74.646-35.266 112.656 14.965 55.65 78.192 89.64 154.518 89.58 2.515 0 4.457 2.26 4.1 4.75-4.717 32.85 1.056 65.17 18.851 92.43 36.15 55.4 111.334 73.76 185.875 51.67 2.008-.6 4.153.42 4.977 2.35a141.55 141.55 0 0 0 16.357 28.54c51.496 69.64 157.584 80.39 247.752 29.25 1.41-.8 3.177-.69 4.479.28 78.123 58 192.909 41.41 261.339-39.65 5.96-7.06 11.38-14.38 16.26-21.91a4.09 4.09 0 0 1 4.61-1.7c90.09 26.72 189.37-9.57 237.71-93.29 17.47-30.26 26.24-63.19 27.11-95.95.05-2.1 1.69-3.83 3.78-3.99 69.42-5.46 134.16-42.76 170.71-106.062 31.35-54.313 35.76-117.03 17.44-173.442-.69-2.111.44-4.394 2.53-5.14 46.17-16.47 85.99-47.64 111.46-91.751 53.36-92.415 26.02-210.995-59.22-283.898-2.32-1.988-1.74-5.784 1.07-6.977 81.96-34.694 138.9-102.678 142.49-183.169C1738.47 110.898 1620.56 7.069 1469.7.343c-150.86-6.725-277.55 86.199-282.96 207.552zm-1075.422-47.42c18.47-18.469 70.192 3.308 115.526 48.642 45.333 45.334 67.111 97.056 48.642 115.525-18.469 18.469-70.192-3.308-115.525-48.642-45.334-45.334-67.112-97.056-48.643-115.525zM28.393 357.574c17.899-31.001 83.825-26.447 147.25 10.171 63.426 36.619 100.333 91.436 82.434 122.437-17.898 31.001-83.824 26.447-147.25-10.172-63.425-36.619-100.332-91.435-82.434-122.436zM324.805 71.685C290.214 22.471 245.9-5.987 225.826 8.123c-20.074 14.109-8.306 65.442 26.284 114.656 34.591 49.214 78.905 77.672 98.979 63.562 20.074-14.109 8.306-65.442-26.284-114.656z" fill="#fff" fill-opacity=".5"/><mask id="b" style="mask-type:luminance" maskUnits="userSpaceOnUse" x="0" y="0" width="1734" height="1374"><path fill-rule="evenodd" clip-rule="evenodd" d="M1186.74 207.895c-3.26 73.219 38.37 140.058 105.04 183.039 2.48 1.6 2.52 5.261.08 6.925-24.88 16.974-46.16 39.328-61.93 66.646-34.93 60.501-35.28 132.216-7.44 194.987a4.108 4.108 0 0 1-2.02 5.391c-38.41 17.896-71.63 47.025-94.15 86.022-21.7 37.588-30.49 79.202-27.77 119.965a4.116 4.116 0 0 1-3.38 4.318c-57.49 10.319-109.93 44.601-141.134 98.647a206.057 206.057 0 0 0-6.003 11.18 4.105 4.105 0 0 1-3.989 2.262c-36.389-2.789-73.94 5.161-107.776 23.253a4.07 4.07 0 0 1-3.691.09c-46.656-22.077-106.194-22.017-162.702.86-.776.32-1.668.04-2.125-.66-25.483-39.052-70.361-59.7-120.738-60.746-2.006-.042-3.692-1.53-4.023-3.509a95.122 95.122 0 0 0-1.959-9.007c-14.732-54.781-76.234-88.578-150.959-89.56-3.185-.042-5.181-3.591-3.691-6.407 6.612-12.491 9.849-25.819 9.035-39.498-2.834-47.674-54.004-85.273-122.689-95.849-4.181-.644-5.285-7.396-1.698-9.639 12.459-7.791 21.179-18.076 24.842-30.57 12.965-44.22-42.336-99.362-123.518-123.163-81.182-23.801-157.503-7.248-170.467 36.972-12.965 44.221 42.336 99.363 123.518 123.164a282.445 282.445 0 0 0 20.223 5.13c4.291.92 4.709 7.978.567 9.429-58.783 20.596-98.134 60.983-95.516 105.018 3.076 51.749 63.105 91.628 140.668 97.958 3.466.283 5.129 4.565 2.783 7.131-31.162 34.079-45.489 74.646-35.266 112.656 14.965 55.65 78.192 89.64 154.518 89.58 2.515 0 4.457 2.26 4.1 4.75-4.717 32.85 1.056 65.17 18.851 92.43 36.15 55.4 111.334 73.76 185.875 51.67 2.008-.6 4.153.42 4.977 2.35a141.55 141.55 0 0 0 16.357 28.54c51.496 69.64 157.584 80.39 247.752 29.25 1.41-.8 3.177-.69 4.479.28 78.123 58 192.909 41.41 261.339-39.65 5.96-7.06 11.38-14.38 16.26-21.91a4.09 4.09 0 0 1 4.61-1.7c90.09 26.72 189.37-9.57 237.71-93.29 17.47-30.26 26.24-63.19 27.11-95.95.05-2.1 1.69-3.83 3.78-3.99 69.42-5.46 134.16-42.76 170.71-106.062 31.35-54.313 35.76-117.03 17.44-173.442-.69-2.111.44-4.394 2.53-5.14 46.17-16.47 85.99-47.64 111.46-91.751 53.36-92.415 26.02-210.995-59.22-283.898-2.32-1.988-1.74-5.784 1.07-6.977 81.96-34.694 138.9-102.678 142.49-183.169C1738.47 110.898 1620.56 7.069 1469.7.343c-150.86-6.725-277.55 86.199-282.96 207.552zm-1075.422-47.42c18.47-18.469 70.192 3.308 115.526 48.642 45.333 45.334 67.111 97.056 48.642 115.525-18.469 18.469-70.192-3.308-115.525-48.642-45.334-45.334-67.112-97.056-48.643-115.525zM28.393 357.574c17.899-31.001 83.825-26.447 147.25 10.171 63.426 36.619 100.333 91.436 82.434 122.437-17.898 31.001-83.824 26.447-147.25-10.172-63.425-36.619-100.332-91.435-82.434-122.436zM324.805 71.685C290.214 22.471 245.9-5.987 225.826 8.123c-20.074 14.109-8.306 65.442 26.284 114.656 34.591 49.214 78.905 77.672 98.979 63.562 20.074-14.109 8.306-65.442-26.284-114.656z" fill="#fff"/></mask><g mask="url(#b)"><path d="M1292.59 389.673c-66.33-42.763-107.58-109.144-104.35-181.711l-3-.134c-3.29 73.87 38.71 141.167 105.73 184.366l1.62-2.521zm-61.36 75.582c15.65-27.116 36.77-49.305 61.47-66.157l-1.69-2.478c-25.06 17.096-46.49 39.615-62.38 67.135l2.6 1.5zm-7.36 193.629c-27.67-62.383-27.31-133.589 7.36-193.629l-2.6-1.5c-35.2 60.962-35.52 133.186-7.51 196.345l2.75-1.216zm-96.25 92.771c22.36-38.719 55.34-67.641 93.49-85.412l-1.27-2.72c-38.68 18.02-72.14 47.356-94.81 86.632l2.59 1.5zm-27.58 119.115c-2.69-40.479 6.04-81.795 27.58-119.115l-2.59-1.5c-21.86 37.857-30.71 79.768-27.98 120.814l2.99-.199zM955.336 974.585c30.971-53.644 83.024-87.675 140.104-97.921l-.53-2.953c-57.91 10.394-110.736 44.925-142.172 99.374l2.598 1.5zm-5.959 11.098a204.107 204.107 0 0 1 5.959-11.098l-2.598-1.5a206.94 206.94 0 0 0-6.047 11.262l2.686 1.336zm-112.401 26.167c33.593-17.958 70.859-25.844 106.954-23.077l.23-2.991c-36.682-2.812-74.518 5.203-108.598 23.428l1.414 2.64zm-166.537 1.02c56.188-22.747 115.283-22.763 161.497-.89l1.283-2.71c-47.097-22.292-107.078-22.187-163.906.82l1.126 2.78zm-123.457-61.297c49.999 1.039 94.36 21.52 119.513 60.067l2.512-1.64c-25.812-39.556-71.209-60.372-121.963-61.426l-.062 2.999zm-7.4-13.625a93.11 93.11 0 0 1 1.928 8.864l2.959-.495a96.232 96.232 0 0 0-1.99-9.148l-2.897.779zm-149.53-88.45c74.421.977 135.052 34.612 149.53 88.45l2.897-.779c-14.985-55.726-77.357-89.685-152.388-90.671l-.039 3zm3.867-47.316c.795 13.376-2.366 26.432-8.864 38.707l2.652 1.404c6.725-12.707 10.038-26.306 9.207-40.289l-2.995.178zm-121.42-94.455c34.148 5.258 63.861 17.223 85.354 33.72 21.488 16.494 34.682 37.446 36.066 60.735l2.995-.178c-1.45-24.385-15.259-46.069-37.235-62.937-21.972-16.865-52.187-28.988-86.724-34.305l-.456 2.965zm21.933-42.114c-3.537 12.065-11.976 22.078-24.198 29.72l1.591 2.544c12.695-7.939 21.697-18.497 25.486-31.42l-2.879-.844zM171.931 544.311c40.398 11.844 74.284 31.468 96.427 53.547 22.189 22.126 32.329 46.42 26.074 67.755l2.879.844c6.709-22.885-4.319-48.272-26.835-70.723-22.562-22.497-56.917-42.345-97.701-54.302l-.844 2.879zM3.325 580.266c6.255-21.335 27.908-36.308 58.53-42.95 30.56-6.628 69.678-4.849 110.076 6.995l.844-2.879c-40.784-11.957-80.418-13.801-111.556-7.048-31.074 6.74-54.064 22.153-60.773 45.038l2.879.844zm122.501 121.302c-40.398-11.844-74.284-31.468-96.427-53.547-22.19-22.125-32.33-46.419-26.074-67.755l-2.879-.844c-6.71 22.885 4.319 48.272 26.835 70.724 22.562 22.497 56.917 42.344 97.701 54.301l.844-2.879zm20.116 5.103a280.129 280.129 0 0 1-20.116-5.103l-.844 2.879c6.822 2 13.61 3.717 20.331 5.158l.629-2.934zM52.175 822.496c-2.556-43.009 35.946-82.992 94.515-103.513l-.992-2.831c-58.997 20.671-99.196 61.461-96.517 106.522l2.994-.178zm139.293 96.552c-38.574-3.148-72.708-14.635-97.54-31.688-24.832-17.055-40.25-39.586-41.753-64.864l-2.994.178c1.573 26.472 17.708 49.755 43.05 67.159 25.343 17.405 60.004 29.023 98.993 32.205l.244-2.99zm-31.157 120.892c-10.048-37.37 3.987-77.42 34.925-111.254l-2.214-2.024c-31.387 34.324-46.004 75.398-35.608 114.058l2.897-.78zm153.068 88.47c-76.023.06-138.361-33.78-153.068-88.47l-2.897.78c15.223 56.61 79.34 90.75 155.968 90.69l-.003-3zm24.209 97.86c-17.569-26.92-23.294-58.85-18.623-91.4l-2.969-.43c-4.761 33.17 1.06 65.86 19.079 93.47l2.513-1.64zm184.193 51.05c-74.133 21.98-148.52 3.62-184.193-51.05l-2.513 1.64c36.629 56.13 112.61 74.5 187.559 52.29l-.853-2.88zm22.966 31.44a140.093 140.093 0 0 1-16.184-28.24l-2.758 1.18c4.32 10.1 9.817 19.77 16.53 28.84l2.412-1.78zm245.806 28.83c-89.745 50.91-194.905 40-245.806-28.83l-2.412 1.78c52.092 70.45 159.106 81.05 249.698 29.66l-1.48-2.61zm265.417-39.03c-67.983 80.53-181.888 96.89-259.304 39.41l-1.788 2.41c78.83 58.53 194.498 41.71 263.382-39.89l-2.29-1.93zm16.14-21.76a216.458 216.458 0 0 1-16.14 21.76l2.29 1.93c6-7.1 11.45-14.47 16.36-22.06l-2.51-1.63zm242.28-94.92c-47.97 83.09-146.53 119.14-235.98 92.6l-.86 2.88c90.73 26.91 190.74-9.64 239.43-93.98l-2.59-1.5zm26.91-95.24c-.86 32.52-9.57 65.2-26.91 95.24l2.59 1.5c17.6-30.48 26.45-63.65 27.32-96.66l-3-.08zm174.69-110.762c-36.28 62.842-100.57 99.892-169.52 105.312l.23 2.99c69.87-5.49 135.07-43.04 171.89-106.802l-2.6-1.5zm17.31-172.228c18.2 56.034 13.82 118.307-17.31 172.228l2.6 1.5c31.58-54.705 36.01-117.865 17.57-174.655l-2.86.927zm114.12-98.105c-25.28 43.78-64.8 74.729-110.67 91.088l1.01 2.826c46.48-16.581 86.6-47.972 112.26-92.414l-2.6-1.5zm-58.89-282.008c84.77 72.506 111.83 190.311 58.89 282.008l2.6 1.5c53.77-93.133 26.15-212.488-59.54-285.788l-1.95 2.28zm143.03-191.353c-3.55 79.771-60 147.324-141.57 181.855l1.17 2.763c82.34-34.859 139.78-103.273 143.4-184.484l-3-.134zM1469.63 1.841c150.36 6.703 267.29 110.105 261.93 230.343l3 .134c5.46-122.469-113.43-226.725-264.8-233.474l-.13 2.997zm-281.39 206.121c5.36-120.238 131.04-212.824 281.39-206.12l.13-2.998C1318.4-7.904 1190.7 85.36 1185.24 207.828l3 .134zm-960.335.094c-22.769-22.769-47.19-39.674-68.315-48.569-10.559-4.445-20.367-6.921-28.775-7.078-8.414-.158-15.561 2.009-20.556 7.005l2.121 2.121c4.239-4.239 10.484-6.275 18.379-6.127 7.901.148 17.32 2.488 27.667 6.844 20.687 8.71 44.794 25.361 67.358 47.926l2.121-2.122zm48.642 117.647c4.996-4.996 7.164-12.142 7.006-20.556-.158-8.409-2.633-18.217-7.079-28.775-8.895-21.126-25.799-45.546-48.569-68.316l-2.121 2.122c22.564 22.564 39.215 46.671 47.925 67.358 4.357 10.347 6.696 19.766 6.844 27.667.148 7.895-1.888 14.139-6.127 18.378l2.121 2.122zm-117.646-48.642c22.769 22.769 47.19 39.674 68.315 48.569 10.559 4.445 20.367 6.921 28.775 7.078 8.414.158 15.561-2.01 20.556-7.005l-2.121-2.122c-4.239 4.239-10.484 6.276-18.379 6.128-7.9-.148-17.319-2.488-27.667-6.844-20.686-8.711-44.793-25.361-67.358-47.926l-2.121 2.122zm-48.642-117.647c-4.996 4.996-7.163 12.142-7.006 20.556.158 8.409 2.633 18.216 7.079 28.775 8.895 21.125 25.8 45.546 48.569 68.316l2.121-2.122c-22.564-22.564-39.215-46.671-47.925-67.358-4.357-10.347-6.696-19.766-6.844-27.667-.148-7.895 1.888-14.14 6.127-18.379l-2.121-2.121zm66.135 207.032c-31.866-18.398-64.424-28.781-91.344-30.64-26.81-1.852-48.56 4.744-57.955 21.018l2.598 1.5c8.503-14.728 28.666-21.355 55.15-19.525 26.374 1.821 58.492 12.025 90.051 30.245l1.5-2.598zm82.983 124.486c9.396-16.273 4.234-38.408-10.775-60.7-15.071-22.383-40.341-45.387-72.208-63.786l-1.5 2.598c31.559 18.221 56.455 40.935 71.22 62.864 14.826 22.021 19.168 42.796 10.665 57.524l2.598 1.5zm-149.299-9.623c31.867 18.398 64.424 28.781 91.345 30.641 26.809 1.852 48.559-4.745 57.954-21.018l-2.598-1.5c-8.503 14.728-28.665 21.354-55.15 19.525-26.373-1.822-58.492-12.026-90.051-30.246l-1.5 2.598zM27.095 356.824c-9.395 16.273-4.233 38.407 10.775 60.699 15.071 22.384 40.342 45.388 72.208 63.786l1.5-2.598c-31.559-18.221-56.455-40.934-71.22-62.864-14.826-22.021-19.168-42.796-10.665-57.523l-2.598-1.5zM226.69 9.349c4.581-3.22 10.659-4.099 17.922-2.695 7.269 1.404 15.591 5.076 24.45 10.765 17.711 11.374 37.305 30.64 54.516 55.128l2.455-1.725c-17.379-24.726-37.238-44.296-55.35-55.927-9.052-5.813-17.735-9.686-25.502-11.187-7.772-1.502-14.761-.648-20.217 3.187l1.726 2.454zm26.648 112.567c-17.211-24.488-28.703-49.448-33.406-69.965-2.353-10.262-2.989-19.336-1.849-26.651 1.139-7.309 4.025-12.73 8.607-15.95l-1.726-2.455c-5.455 3.835-8.626 10.12-9.845 17.943-1.219 7.816-.515 17.297 1.889 27.783 4.81 20.981 16.497 46.295 33.876 71.021l2.454-1.726zm96.889 63.198c-4.581 3.22-10.66 4.099-17.922 2.696-7.269-1.405-15.591-5.077-24.45-10.766-17.712-11.374-37.305-30.639-54.517-55.128l-2.454 1.726c17.379 24.725 37.238 44.295 55.35 55.926 9.052 5.814 17.734 9.687 25.501 11.187 7.773 1.503 14.762.648 20.217-3.186l-1.725-2.455zM323.578 72.547c17.212 24.488 28.704 49.449 33.407 69.965 2.352 10.263 2.989 19.337 1.849 26.652-1.139 7.309-4.025 12.73-8.607 15.95l1.725 2.455c5.456-3.835 8.627-10.121 9.846-17.943 1.218-7.817.515-17.297-1.889-27.784-4.81-20.981-16.498-46.294-33.876-71.02l-2.455 1.725zM313.382 1131.41c1.594 0 2.842 1.44 2.614 3.03l2.969.43c.486-3.39-2.149-6.46-5.586-6.46l.003 3zm-40.427-426.648c-1.234-.19-2.227-1.328-2.511-2.99-.284-1.663.264-3.197 1.381-3.895l-1.591-2.544c-2.471 1.545-3.164 4.508-2.748 6.944.417 2.436 2.065 4.996 5.013 5.45l.456-2.965zM1590.48 421.257c-1.49-1.268-1.11-3.7.68-4.455l-1.17-2.763c-3.85 1.63-4.63 6.79-1.46 9.498l1.95-2.28zM390.091 846.498c-2-.026-3.379-2.325-2.384-4.205l-2.652-1.404c-1.984 3.751.627 8.552 4.997 8.609l.039-3zM145.313 709.605c1.274.273 2.165 1.505 2.262 3.138.098 1.633-.641 2.976-1.877 3.409l.992 2.831c2.906-1.018 4.029-3.93 3.88-6.419-.148-2.489-1.612-5.246-4.628-5.893l-.629 2.934zM1344.3 1086.72a2.61 2.61 0 0 1 2.4-2.54l-.23-2.99c-2.86.23-5.1 2.58-5.17 5.45l3 .08zm-674.987-76.63a.247.247 0 0 1-.306-.09l-2.512 1.64a3.243 3.243 0 0 0 3.944 1.23l-1.126-2.78zm405.307 268.34a2.62 2.62 0 0 1 2.93-1.07l.86-2.88a5.61 5.61 0 0 0-6.3 2.32l2.51 1.63zM946.691 984.347a2.607 2.607 0 0 1-2.531 1.435l-.23 2.991a5.606 5.606 0 0 0 5.447-3.09l-2.686-1.336zm-111.129 24.863c-.726.39-1.596.41-2.343.06l-1.283 2.71c1.603.76 3.474.71 5.04-.13l-1.414-2.64zM522.634 1280.2a2.635 2.635 0 0 1 3.171 1.5l2.758-1.18c-1.121-2.62-4.039-4.01-6.782-3.2l.853 2.88zm698.486-620.1a2.605 2.605 0 0 1-1.28 3.423l1.27 2.72c2.76-1.289 3.99-4.568 2.76-7.359l-2.75 1.216zm-429.087 680.1c.89-.5 2.017-.43 2.845.18l1.788-2.41a5.63 5.63 0 0 0-6.113-.38l1.48 2.61zm305.017-469.231a2.615 2.615 0 0 1-2.14 2.742l.53 2.953a5.607 5.607 0 0 0 4.6-5.894l-2.99.199zm-905.826 51.069c2.21.18 3.312 2.969 1.798 4.624l2.214 2.024c3.179-3.476.953-9.253-3.768-9.638l-.244 2.99zM1536.16 802.723a2.604 2.604 0 0 1 1.6-3.264l-1.01-2.826c-2.85 1.019-4.38 4.133-3.45 7.017l2.86-.927zM547.044 948.574c-1.269-.026-2.36-.973-2.575-2.257l-2.959.495c.448 2.675 2.729 4.704 5.472 4.761l.062-2.999zm743.926-556.38c1.57 1.016 1.6 3.362.04 4.426l1.69 2.478c3.33-2.265 3.28-7.239-.11-9.425l-1.62 2.521z" fill="url(#c)" fill-opacity=".8"/></g></g><defs><filter id="a" x="-21.209" y="-21.209" width="1775.66" height="1416.04" filterUnits="userSpaceOnUse" color-interpolation-filters="sRGB"><feFlood flood-opacity="0" result="BackgroundImageFix"/><feBlend in="SourceGraphic" in2="BackgroundImageFix" result="shape"/><feColorMatrix in="SourceAlpha" values="0 0 0 0 0 0 0 0 0 0 0 0 0 0 0 0 0 0 127 0" result="hardAlpha"/><feOffset/><feGaussianBlur stdDeviation="60"/><feComposite in2="hardAlpha" operator="arithmetic" k2="-1" k3="1"/><feColorMatrix values="0 0 0 0 1 0 0 0 0 1 0 0 0 0 1 0 0 0 0.4 0"/><feBlend in2="shape" result="effect1_innerShadow_1653_9432"/></filter><linearGradient id="c" x1="947.819" x2="947.819" y2="1373.62" gradientUnits="userSpaceOnUse"><stop stop-color="#fff"/><stop offset="1" stop-color="#fff" stop-opacity="0"/></linearGradient></defs></svg>