<svg xmlns="http://www.w3.org/2000/svg" fill="none" viewBox="0 0 60 32">
  <g filter="url(#a)">
    <mask id="c" fill="#fff">
      <path fill-rule="evenodd" d="M0 21.5C0 27.3 4.7 32 10.5 32h39a10.5 10.5 0 1 0-2.1-20.8A10.5 10.5 0 0 0 32 7.4 10.5 10.5 0 0 0 11.5 11h-1C4.7 11 0 15.7 0 21.5Z" clip-rule="evenodd"/>
    </mask>
    <path fill="#DADBE2" fill-opacity=".1" fill-rule="evenodd" d="M0 21.5C0 27.3 4.7 32 10.5 32h39a10.5 10.5 0 1 0-2.1-20.8A10.5 10.5 0 0 0 32 7.4 10.5 10.5 0 0 0 11.5 11h-1C4.7 11 0 15.7 0 21.5Z" clip-rule="evenodd"/>
    <path fill="url(#b)" fill-opacity=".3" d="m47.4 11.2-.7.4.2.5.6-.1-.1-.8ZM32 7.4l-.7.2.3 1 .9-.6-.5-.6ZM11.5 11v.8h.8V11h-.8Zm-1 20.3a9.7 9.7 0 0 1-9.8-9.8H-.6c0 6.2 5 11.3 11.2 11.3v-1.5Zm39 0h-39v1.4h39v-1.5Zm9.8-9.8c0 5.4-4.4 9.8-9.8 9.8v1.4c6.2 0 11.3-5 11.3-11.2h-1.5Zm-9.8-9.8c5.4 0 9.8 4.4 9.8 9.8h1.5c0-6.2-5-11.3-11.3-11.3v1.6Zm-2 .3c.6-.2 1.3-.3 2-.3v-1.4c-.8 0-1.6 0-2.3.2l.3 1.5ZM38 6.2c3.8 0 7 2.2 8.7 5.4l1.3-.7a11.2 11.2 0 0 0-10-6.2v1.5ZM32.5 8A9.3 9.3 0 0 1 38 6.2V4.8c-2.4 0-4.6.8-6.4 2l.9 1.3ZM22 .7c4.4 0 8 3 9.3 6.9l1.4-.5A11.3 11.3 0 0 0 22-.7V.6Zm-9.8 9.8c0-5.4 4.4-9.8 9.8-9.8V-.6c-6.2 0-11.3 5-11.3 11.2h1.6Zm0 .5v-.5h-1.4v.6h1.5Zm-1.7.8h1v-1.5h-1v1.4ZM.7 21.4c0-5.4 4.4-9.8 9.8-9.8v-1.4c-6.2 0-11.3 5-11.3 11.2H.9Z" mask="url(#c)"/>
  </g>
  <defs>
    <linearGradient id="b" x1="24.9" x2="24.9" y1="1.9" y2="32.6" gradientUnits="userSpaceOnUse">
      <stop stop-color="#E2E2E8"/>
      <stop offset="1" stop-color="#E2E2E8" stop-opacity="0"/>
    </linearGradient>
    <filter id="a" width="64.7" height="36.7" x="-2.3" y="-2.3" color-interpolation-filters="sRGB" filterUnits="userSpaceOnUse">
      <feFlood flood-opacity="0" result="BackgroundImageFix"/>
      <feGaussianBlur in="BackgroundImageFix" stdDeviation="1.2"/>
      <feComposite in2="SourceAlpha" operator="in" result="effect1_backgroundBlur_2241_519920"/>
      <feBlend in="SourceGraphic" in2="effect1_backgroundBlur_2241_519920" result="shape"/>
      <feColorMatrix in="SourceAlpha" result="hardAlpha" values="0 0 0 0 0 0 0 0 0 0 0 0 0 0 0 0 0 0 127 0"/>
      <feOffset/>
      <feGaussianBlur stdDeviation="10"/>
      <feComposite in2="hardAlpha" k2="-1" k3="1" operator="arithmetic"/>
      <feColorMatrix values="0 0 0 0 1 0 0 0 0 1 0 0 0 0 1 0 0 0 0.2 0"/>
      <feBlend in2="shape" result="effect2_innerShadow_2241_519920"/>
    </filter>
  </defs>
</svg>
