<svg xmlns="http://www.w3.org/2000/svg" fill="none" viewBox="0 0 15 20"><g clip-path="url(#a)"><path fill="url(#b)" d="M.031 17.552A2.452 2.452 0 0 0 2.479 20h10.867a1.66 1.66 0 0 0 1.64-1.641V4.929a1.65 1.65 0 0 0-1.64-1.64H2.47a.8.8 0 0 1-.791-.791c0-.466.366-.833.833-.833h11.216a.835.835 0 0 0 .833-.832.83.83 0 0 0-.833-.833H2.513A2.495 2.495 0 0 0 .015 2.498L.03 17.552Zm7.91-5.33h3.331c.342 0 .625.275.625.625a.64.64 0 0 1-.625.624h-3.33a.624.624 0 0 1-.625-.624c0-.35.275-.624.625-.624ZM3.754 9.126a.638.638 0 0 1 .008-.89.608.608 0 0 1 .866 0l2.082 2.081a.618.618 0 0 1-.001.874H6.7l-2.081 2.082a.638.638 0 0 1-.891.008.63.63 0 0 1-.017-.89c0-.009.008-.017.008-.017l1.49-1.49a.228.228 0 0 0 0-.3l-.007-.009-1.448-1.449Z"/></g><defs><radialGradient id="b" cx="0" cy="0" r="1" gradientTransform="rotate(60.057 -1.603 3.103) scale(16.8719 13.929)" gradientUnits="userSpaceOnUse"><stop stop-color="#fff"/><stop offset="1" stop-color="#fff" stop-opacity=".62"/></radialGradient><clipPath id="a"><path fill="#fff" d="M0 0h15v20H0z"/></clipPath></defs></svg>