<svg xmlns="http://www.w3.org/2000/svg" width="225" height="64" fill="none" viewBox="0 0 225 64">
  <path fill="#fff" d="M32.5 64c17.673 0 32-14.327 32-32 0-17.673-14.327-32-32-32C14.827 0 .5 14.327.5 32c0 17.673 14.327 32 32 32Z"/>
  <path stroke="#E9B213" stroke-width="3" d="m51.352 30.408-7.78-13.814A3.106 3.106 0 0 0 40.875 15H25.318c-1.11 0-2.137.606-2.692 1.594l-7.78 13.814a3.26 3.26 0 0 0 0 3.188l7.78 13.814a3.091 3.091 0 0 0 2.692 1.594h15.559a3.09 3.09 0 0 0 2.691-1.594l7.78-13.814c.56-.988.56-2.2.005-3.188Z"/>
  <path fill="#fff" d="M112.5 64c17.673 0 32-14.327 32-32 0-17.673-14.327-32-32-32-17.673 0-32 14.327-32 32 0 17.673 14.327 32 32 32ZM193 2a30.501 30.501 0 1 0 0 61.002A30.501 30.501 0 0 0 193 2Z"/>
  <path stroke="#4180CC" stroke-linecap="round" stroke-linejoin="round" stroke-width="3" d="M183.812 25.467v-.051c0-5.374 4.289-9.714 9.662-9.714a9.647 9.647 0 0 1 9.662 9.662c-.052 5.322-4.34 9.662-9.714 9.662v5.166"/>
  <circle cx="193.5" cy="50.059" r="2.059" fill="#4180CC"/>
  <path stroke="#F7931A" stroke-linecap="round" stroke-linejoin="round" stroke-width="3" d="M105.729 19.746h10.306a6.365 6.365 0 0 1 6.372 6.373 6.365 6.365 0 0 1-6.372 6.373h-10.306V19.746Zm0 12.814h10.78c3.797 0 6.848 3.05 6.915 6.914 0 3.797-3.05 6.848-6.915 6.916h-10.78V32.56Zm2.778-13.018V15m0 36v-4.542m5.9-26.916V15m0 36v-4.542m-7.865 0H102m4.542-26.509H102"/>
</svg>
