<svg width="64" height="64" viewBox="0 0 64 64" fill="none" xmlns="http://www.w3.org/2000/svg">
  <g clip-path="url(#a)">
    <path d="M42.5 41.5a20 20 0 1 0 0-40 20 20 0 0 0 0 40Z" stroke="#fff" stroke-width="3" stroke-linecap="round" stroke-linejoin="round"/>
    <path opacity=".4" fill-rule="evenodd" clip-rule="evenodd" d="M22.5 22.5a20 20 0 0 0 19 19 20 20 0 1 1-19-19Z" fill="#fff"/>
    <path d="M2.6 13.4 8 18.7l5.3-5.3" stroke="#fff" stroke-width="3" stroke-linecap="round" stroke-linejoin="round"/>
    <path d="M21.3 2.7A13.3 13.3 0 0 0 8 16.1v2.6M61.4 50.6 56 45.3l-5.3 5.3" stroke="#fff" stroke-width="3" stroke-linecap="round" stroke-linejoin="round"/>
    <path d="M42.8 61.3A13.3 13.3 0 0 0 56 47.9v-2.6M22.7 52a7.2 7.2 0 0 1-8-8 7.2 7.2 0 0 1 8-8M12 44h8M48 17.4a4.4 4.4 0 0 1-4.5 4.4H38V13h5.5a4.4 4.4 0 0 1 4.4 4.4Z" stroke="#fff" stroke-width="3" stroke-linecap="round" stroke-linejoin="round"/>
    <path d="M48 26.2a4.4 4.4 0 0 1-4.5 4.4H38v-8.8h5.5a4.4 4.4 0 0 1 4.4 4.4ZM41.8 10v2.3M41.8 30.6V33" stroke="#fff" stroke-width="3" stroke-linecap="round" stroke-linejoin="round"/>
  </g>
  <defs>
    <clipPath id="a">
      <path fill="#fff" d="M0 0h64v64H0z"/>
    </clipPath>
  </defs>
</svg>
