<svg xmlns="http://www.w3.org/2000/svg" width="64" height="64" fill="none" viewBox="0 0 64 64">
  <path fill="#1f2348" d="M50 28a2 2 0 012-2h10.5v15H52a2 2 0 01-2-2V28z" opacity=".4"/>
  <rect width="61" height="61" x="1.5" y="1.5" stroke="#1f2348" stroke-linecap="round" stroke-linejoin="round" stroke-width="3" rx="10"/>
  <path fill="#1f2348" d="M36 19.5l4-6.5-8-4-7 4 3 6.5-6 27 10 7 10-7-6-27z" opacity=".4"/>
  <path fill="#1f2348" d="M31 9l.805 1.265 2.235-1.422-2.37-1.185L31 9zm-10 6.364l.805 1.265L21 15.364zM15.33 2.842l15 7.5 1.34-2.684-15-7.5-1.34 2.684zm14.865 4.893l-10 6.363 1.61 2.531 10-6.364-1.61-2.53zm-10.51 6.38l-7.926-4.36-1.446 2.63 7.926 4.358 1.446-2.628zM11.5 9.317V2h-3v7.317h3zm.259.439a.5.5 0 01-.259-.439h-3a3.5 3.5 0 001.813 3.067l1.446-2.628zm8.435 4.342a.5.5 0 01-.51.017l-1.445 2.628a3.5 3.5 0 003.566-.114l-1.61-2.53z"/>
  <path fill="#1f2348" d="M33 9l-.805 1.265-2.235-1.422 2.37-1.185L33 9zm10 6.364l-.805 1.265.806-1.265zm5.67-12.522l-15 7.5-1.34-2.684 15-7.5 1.34 2.684zM33.806 7.735l10 6.363-1.61 2.531-10-6.364 1.61-2.53zm10.51 6.38l7.926-4.36 1.446 2.63-7.926 4.358-1.446-2.628zM52.5 9.317V2h3v7.317h-3zm-.259.439a.5.5 0 00.259-.439h3a3.5 3.5 0 01-1.813 3.067L52.24 9.756zm-8.435 4.342a.5.5 0 00.51.017l1.445 2.628a3.5 3.5 0 01-3.566-.114l1.61-2.53z"/>
</svg>
