<svg width="255" height="120" viewBox="0 0 255 120" fill="none" xmlns="http://www.w3.org/2000/svg">
<path d="M68.1133 58.1647L54.611 34.7067C53.6209 32.9925 51.8206 32 49.9302 32H22.9257C21.0354 32 19.2351 32.9925 18.2449 34.7067L4.74263 58.1647C3.75246 59.8789 3.75246 61.8638 4.74263 63.578L18.2449 87.036C19.2351 88.7502 21.0354 89.7427 22.9257 89.7427H49.9302C51.8206 89.7427 53.6209 88.7502 54.611 87.036L68.1133 63.578C69.1035 61.8638 69.1035 59.8789 68.1133 58.1647Z" fill="url(#paint0_radial_2536_47517)"/>
<path d="M116.092 43.7291H121.943V78.0138H117.442L98.9887 54.1048V78.0138H93.1377V43.7291H97.6385L116.092 67.6382V43.7291Z" fill="#1F2348"/>
<path d="M133.643 78.0138V43.7291H139.944V78.0138H133.643Z" fill="#1F2348"/>
<path d="M180.003 43.7291H184.954V78.0138H179.553V56.8115L170.372 78.0138H166.321L157.049 56.8115V78.0138H151.648V43.7291H156.599L168.301 70.6156L180.003 43.7291Z" fill="#1F2348"/>
<path d="M196.654 78.0138V43.7291H202.955V78.0138H196.654Z" fill="#1F2348"/>
<path d="M245.084 70.1634C243.554 73.231 241.033 75.667 237.883 77.0203C238.603 78.3737 239.593 79.6368 240.583 80.7195C241.663 81.8924 242.923 83.0653 244.184 84.0577L239.863 87.4862C238.243 86.3133 236.802 85.0502 235.542 83.5164C234.102 81.9826 232.932 80.2684 231.852 78.3737C231.582 78.3737 230.861 78.3737 230.411 78.3737C227.351 78.4639 224.2 77.7421 221.5 76.2083C218.979 74.7648 216.999 72.6896 215.739 70.0732C214.389 67.186 213.668 64.0282 213.759 60.7802C213.668 57.5322 214.389 54.3744 215.739 51.4872C216.999 48.8708 218.979 46.7956 221.5 45.3521C227.081 42.5552 233.652 42.5552 239.233 45.3521C241.753 46.7956 243.734 48.8708 244.994 51.4872C246.344 54.3744 247.064 57.6224 246.974 60.7802C247.154 64.1185 246.434 67.2763 245.084 70.1634ZM222.76 70.1634C226.811 74.4039 233.472 74.5843 237.613 70.5243C237.703 70.4341 237.883 70.2536 237.973 70.1634C239.773 67.998 240.673 64.9305 240.673 60.7802C240.673 56.6299 239.773 53.5624 237.973 51.397C233.922 47.1565 227.171 47.0663 222.94 51.1263C222.85 51.2166 222.76 51.3068 222.67 51.397C220.87 53.5624 219.97 56.7202 219.97 60.7802C219.97 64.8402 220.96 67.998 222.76 70.1634Z" fill="#1F2348"/>
<defs>
<radialGradient id="paint0_radial_2536_47517" cx="0" cy="0" r="1" gradientUnits="userSpaceOnUse" gradientTransform="translate(52.7871 88.9938) scale(64.8289 64.9786)">
<stop stop-color="#EC991C"/>
<stop offset="1" stop-color="#E9B213"/>
</radialGradient>
</defs>
</svg>
