<svg xmlns="http://www.w3.org/2000/svg" fill="none" viewBox="0 0 24 24"><path fill="#fff" d="m6.07 7.425 7.915 4.565L18.71 9.27a1.058 1.058 0 0 0 0-1.835L6.07.14a1.059 1.059 0 0 0-1.589.912v7.29a1.057 1.057 0 0 1 1.589-.916ZM18.71 14.717l-4.725-2.72-7.915 4.565a1.059 1.059 0 0 1-1.589-.914v7.29a1.06 1.06 0 0 0 1.589.918l12.64-7.3a1.058 1.058 0 0 0 0-1.833v-.006Z" opacity=".8"/><path fill="#fff" d="M6.07 16.566 13.985 12 6.07 7.436a1.059 1.059 0 0 0-1.589.905v7.307a1.06 1.06 0 0 0 1.589.918Z"/></svg>