<svg xmlns="http://www.w3.org/2000/svg" width="32" height="32" viewBox="0 0 18 18"><path fill="#1f2348" fill-rule="evenodd" d="M0 6.522c0-2.286 0-3.424.444-4.295A4.08 4.08 0 0 1 2.227.444C3.097 0 4.237 0 6.522 0h4.956c2.286 0 3.424 0 4.295.444a4.08 4.08 0 0 1 1.783 1.783c.444.87.444 2.01.444 4.295v4.956c0 2.286 0 3.424-.444 4.295a4.08 4.08 0 0 1-1.783 1.783c-.87.444-2.01.444-4.295.444H6.522c-2.286 0-3.424 0-4.295-.444a4.08 4.08 0 0 1-1.783-1.783C0 14.903 0 13.763 0 11.478zm5.747 7.208-1.117.302a.19.19 0 0 1-.235-.139l-.301-1.117a.2.2 0 0 1 .02-.147l.352-.61-.368-.625a.385.385 0 0 1 .398-.577l.607.104.196-.343-.376-.866a.385.385 0 0 1 .376-.54l.783.046.632-1.089.076-.15-.867-1.482a.5.5 0 0 1 0-.503l1.285-2.197a.52.52 0 0 1 .448-.251h2.57c.185 0 .356.092.444.25l1.29 2.194a.5.5 0 0 1 0 .507L10.67 8.69a.5.5 0 0 1-.444.251h-1.66l-.097.197-2.6 4.504a.2.2 0 0 1-.12.088m3.127-8.573a.971.971 0 1 0 0 1.943.971.971 0 0 0 0-1.943m.419 9.946.816-.82a.2.2 0 0 0 .059-.134V9.712H9.025l-1.097 1.9.218.16v.397l-.578.217a.4.4 0 0 0-.138.084l-.1.176a.385.385 0 0 0 .184.435l.632.356v.712c0 .05.02.098.054.134l.82.82a.19.19 0 0 0 .273 0m1.645-5.6v1.875l.804.092.197.343-.394.477a.386.386 0 0 0 .306.632l.724-.008.352.611a.2.2 0 0 0 .117.088l1.117.301a.193.193 0 0 0 .235-.138l.301-1.117a.2.2 0 0 0-.02-.147l-2.6-4.504-.055-.096-.686 1.172c-.1.167-.239.314-.398.418" clip-rule="evenodd"/></svg>
