<svg width="2443" height="756" fill="none" xmlns="http://www.w3.org/2000/svg">
<path fill="#fff" d="M0 0h2443v756H0z"/><rect width="2443" height="756" rx="8" fill="#F4F4F4"/><circle cx="2299.8" cy="483.8" r="22.8" fill="url(#paint0_radial)"/><path d="M2300.5 481.1c1.3 0 2.4.3 3.4.8 1 .6 1.7 1.3 2.2 2.3.6 1 .8 2.1.8 3.4a6.2 6.2 0 01-3.5 5.9 9 9 0 01-4 .8c-1.3 0-2.5-.2-3.8-.6a9 9 0 01-3-1.8l1.2-2.6a9.2 9.2 0 005.7 2c1.3 0 2.2-.2 2.9-.9.7-.6 1-1.5 1-2.7 0-1.1-.3-2-1-2.7-.7-.7-1.7-1-2.8-1a5.7 5.7 0 00-4.1 1.7h-2.2v-12h12.7v3h-9.2v5.5c1-.7 2.3-1.1 3.7-1.1z" fill="#fff"/><rect x="772" y="260" width="248" height="225" rx="8" fill="url(#paint1_radial)"/><path d="M880.1 309h3.2l-8.7 20.1h-3L863 309h3.4l6.8 16.6 6.9-16.6zM896.3 332.4l-3-.1v.1c1.3.9 2.1 2.6 2.1 4.3 0 4.1-2.8 6-5.4 6-3.1 0-5.4-2.2-5.4-5.8 0-3.8 2.4-6 5.8-6h5.9v1.5zm-2.9 4.3c0-1.9-1-4.3-3.3-4.3-2.4 0-3.4 2.2-3.4 4.4 0 2.5 1.4 4.3 3.4 4.3 1.9 0 3.3-1.8 3.3-4.4zM902.8 326.2a15.3 15.3 0 00-2.9 9.5c0 4.1 1.3 7.1 2.9 9.5h-1.6a14.8 14.8 0 01-3.1-9.5c0-4.6 1.6-7.6 3.1-9.5h1.6zM923.5 345.2c1.7-2.3 2.9-5.3 2.9-9.5a16 16 0 00-2.9-9.5h1.6c1.5 1.9 3.1 4.9 3.1 9.5a15 15 0 01-3.1 9.5h-1.6zM905 334.3l-.1-3.7h1.9l.1 2.3h.1c.5-1.6 1.8-2.6 3.3-2.6l.6.1v2l-.7-.1c-1.5 0-2.6 1.1-2.9 2.8l-.1 1v6.3H905v-8.1zM920.5 344.1c0 4.3-1.6 6.7-4.4 6.7-2.5 0-4.2-2.3-4.2-6.5 0-4.3 1.8-6.6 4.4-6.6 2.7-.1 4.2 2.3 4.2 6.4zm-6.9.2c0 3.3 1 5.2 2.6 5.2 1.8 0 2.6-2.1 2.6-5.3 0-3.1-.8-5.2-2.6-5.2-1.5 0-2.6 1.8-2.6 5.3zM895.5 402.2l-.1 3c-.6-.2-1.3-.3-2.1-.3-1.9 0-3.4.6-4.3 1.8a6.6 6.6 0 00-1.4 4.4v11.5h-3.3v-14.5c0-2.1-.1-4-.3-5.6h3.1l.3 3.7a5.8 5.8 0 012.4-3.1 7.4 7.4 0 015.7-.9zM904.3 434.3h3.7v1.6h-9.3v-1.6h3.7v-12.6l-3.4 2.2V422l4.2-2.7h1.1v15z" fill="#1F2348"/><path opacity=".3" d="M355 415h511" stroke="#1F2348" stroke-width="4" stroke-linecap="round" stroke-linejoin="round" stroke-dasharray="1 10"/><rect x="1093" y="260" width="248" height="225" rx="8" fill="url(#paint2_radial)"/><path d="M1201.1 309h3.2l-8.7 20.1h-3L1184 309h3.4l6.8 16.6 6.9-16.6zM1217.3 332.4l-3-.1v.1c1.3.9 2.1 2.6 2.1 4.3 0 4.1-2.8 6-5.4 6-3.1 0-5.4-2.2-5.4-5.8 0-3.8 2.4-6 5.8-6h5.9v1.5zm-2.9 4.3c0-1.9-1-4.3-3.3-4.3-2.4 0-3.4 2.2-3.4 4.4 0 2.5 1.4 4.3 3.4 4.3 1.9 0 3.3-1.8 3.3-4.4zM1223.8 326.2a15.3 15.3 0 00-2.9 9.5c0 4.1 1.3 7.1 2.9 9.5h-1.6a14.8 14.8 0 01-3.1-9.5c0-4.6 1.6-7.6 3.1-9.5h1.6zM1244.5 345.2c1.7-2.3 2.9-5.3 2.9-9.5a16 16 0 00-2.9-9.5h1.6c1.5 1.9 3.1 4.9 3.1 9.5a15 15 0 01-3.1 9.5h-1.6zM1226 334.3l-.1-3.7h1.9l.1 2.3h.1c.5-1.6 1.8-2.6 3.3-2.6l.6.1v2l-.7-.1c-1.5 0-2.6 1.1-2.9 2.8l-.1 1v6.3h-2.2v-8.1zM1236.8 339.5l-2.3 1.2-.3-1.3 2.8-1.5h1.5v12.7h-1.7v-11.1zM1216.4 402.2l-.1 3c-.6-.2-1.3-.3-2.1-.3-1.9 0-3.4.6-4.3 1.8a7.2 7.2 0 00-1.4 4.4v11.5h-3.2v-14.5c0-2.1-.1-4-.3-5.6h3.1l.3 3.7a5.8 5.8 0 012.4-3.1 6.8 6.8 0 013.8-1.1l1.8.2zM1229.2 434.3v1.6h-10.7v-1.4l5.8-6.4c.8-.9 1.3-1.7 1.7-2.4a4 4 0 00.5-2.1c0-.9-.3-1.6-.8-2.1s-1.3-.7-2.3-.7c-1.6 0-3.2.6-4.7 1.9l-.7-1.5a8.7 8.7 0 015.5-2.1c1.5 0 2.7.4 3.6 1.2.9.8 1.3 1.8 1.3 3.2 0 .9-.2 1.9-.6 2.7-.4.9-1.1 1.9-2.1 3l-4.7 5.1h8.2z" fill="#1F2348"/><path opacity=".3" stroke="#1F2348" stroke-width="4" stroke-linecap="round" stroke-linejoin="round" stroke-dasharray="1 10" d="M926 415h261"/><rect x="1410" y="260" width="248" height="225" rx="8" fill="url(#paint3_radial)"/><path opacity=".3" stroke="#1F2348" stroke-width="4" stroke-linecap="round" stroke-linejoin="round" stroke-dasharray="1 10" d="M1248 415h256"/><path d="M1518.1 309h3.2l-8.7 20.1h-3.1L1501 309h3.4l6.8 16.6 6.9-16.6zM1534.3 332.4l-3-.1v.1c1.3.9 2.1 2.6 2.1 4.3 0 4.1-2.8 6-5.4 6-3.1 0-5.4-2.2-5.4-5.8 0-3.8 2.4-6 5.8-6h5.9v1.5zm-2.9 4.3c0-1.9-1-4.3-3.3-4.3-2.4 0-3.4 2.2-3.4 4.4 0 2.5 1.4 4.3 3.4 4.3 1.9 0 3.3-1.8 3.3-4.4zM1540.8 326.2a15.3 15.3 0 00-2.9 9.5c0 4.1 1.3 7.1 2.9 9.5h-1.6a14.8 14.8 0 01-3.1-9.5c0-4.6 1.6-7.6 3.1-9.5h1.6zM1561.5 345.2c1.7-2.3 2.9-5.3 2.9-9.5a16 16 0 00-2.9-9.5h1.6c1.5 1.9 3.1 4.9 3.1 9.5a15 15 0 01-3.1 9.5h-1.6zM1543 334.3l-.1-3.7h1.9l.1 2.3h.1c.5-1.6 1.8-2.6 3.3-2.6l.6.1v2l-.7-.1c-1.5 0-2.6 1.1-2.9 2.8l-.1 1v6.3h-2.2v-8.1zM1550.1 350.6v-1.1l1.4-1.3c3.2-3.1 4.7-4.7 4.7-6.7 0-1.3-.6-2.5-2.5-2.5-1.2 0-2.1.6-2.7 1.1l-.5-1.2c.9-.7 2.1-1.3 3.6-1.3 2.7 0 3.9 1.9 3.9 3.7 0 2.3-1.7 4.2-4.4 6.8l-1 .9h5.7v1.4h-8.2v.2zM1533.4 402.2l-.1 3c-.6-.2-1.3-.3-2.1-.3-1.9 0-3.4.6-4.3 1.8a7.2 7.2 0 00-1.4 4.4v11.5h-3.2v-14.5c0-2.1-.1-4-.3-5.6h3.1l.3 3.7a5.8 5.8 0 012.4-3.1 7 7 0 013.8-1.1l1.8.2zM1545.1 428.8c.5.7.8 1.5.8 2.6 0 1.4-.5 2.6-1.5 3.4-1 .8-2.3 1.2-4 1.2-1.1 0-2.1-.2-3.1-.5-1-.4-1.8-.9-2.5-1.5l.7-1.5a7.2 7.2 0 004.8 1.9c1.2 0 2.1-.3 2.7-.8.6-.5.9-1.3.9-2.3 0-2-1.3-3.1-3.8-3.1h-1.9v-1.6h1.5c1.2 0 2.2-.3 2.8-.8.7-.5 1-1.3 1-2.3 0-.9-.3-1.6-.8-2.1s-1.3-.7-2.3-.7c-1.6 0-3.2.6-4.7 1.9l-.7-1.5a7.9 7.9 0 015.5-2c1.5 0 2.7.4 3.6 1.1.9.8 1.3 1.8 1.3 3.1 0 .9-.2 1.8-.7 2.5a4 4 0 01-1.9 1.5c1 .4 1.8.8 2.3 1.5z" fill="#1F2348"/><rect x="1731" y="260" width="248" height="225" rx="8" fill="url(#paint4_radial)"/><path opacity=".3" stroke="#1F2348" stroke-width="4" stroke-linecap="round" stroke-linejoin="round" stroke-dasharray="1 10" d="M1564 415h261M1886 415h261"/><path d="M1839.1 309h3.2l-8.7 20.1h-3.1L1822 309h3.4l6.8 16.6 6.9-16.6zM1855.3 332.4l-3-.1v.1c1.3.9 2.1 2.6 2.1 4.3 0 4.1-2.8 6-5.4 6-3.1 0-5.4-2.2-5.4-5.8 0-3.8 2.4-6 5.8-6h5.9v1.5zm-2.9 4.3c0-1.9-1-4.3-3.3-4.3-2.4 0-3.4 2.2-3.4 4.4 0 2.5 1.4 4.3 3.4 4.3 1.9 0 3.3-1.8 3.3-4.4zM1861.8 326.2a15.3 15.3 0 00-2.9 9.5c0 4.1 1.3 7.1 2.9 9.5h-1.6a14.8 14.8 0 01-3.1-9.5c0-4.6 1.6-7.6 3.1-9.5h1.6zM1882.5 345.2c1.7-2.3 2.9-5.3 2.9-9.5a16 16 0 00-2.9-9.5h1.6c1.5 1.9 3.1 4.9 3.1 9.5a15 15 0 01-3.1 9.5h-1.6zM1864 334.3l-.1-3.7h1.9l.1 2.3h.1c.5-1.6 1.8-2.6 3.3-2.6l.6.1v2l-.7-.1c-1.5 0-2.6 1.1-2.9 2.8l-.1 1v6.3h-2.2v-8.1zM1871.5 348.6c.5.3 1.6.8 2.8.8 2.2 0 2.9-1.4 2.9-2.5 0-1.8-1.6-2.5-3.3-2.5h-1v-1.3h1c1.3 0 2.8-.6 2.8-2.2 0-1-.6-1.9-2.2-1.9-1 0-2 .5-2.5.8l-.5-1.3c.7-.5 2-1 3.3-1 2.5 0 3.6 1.5 3.6 3 0 1.3-.8 2.4-2.3 3 1.6.3 2.8 1.5 2.8 3.3 0 2-1.6 3.8-4.6 3.8-1.4 0-2.7-.5-3.3-.9l.5-1.1zM1854.4 402.2l-.1 3c-.6-.2-1.3-.3-2.1-.3-1.9 0-3.4.6-4.3 1.8a7.2 7.2 0 00-1.4 4.4v11.5h-3.2v-14.5c0-2.1-.1-4-.3-5.6h3.1l.3 3.7a5.8 5.8 0 012.4-3.1 7 7 0 013.8-1.1l1.8.2zM1867.8 430.7v1.6h-2.5v3.6h-1.9v-3.6h-7.6v-1.4l8-11.5h1.6v11.4h2.4v-.1zm-10.1 0h5.7v-8.2l-5.7 8.2z" fill="#1F2348"/><g filter="url(#filter0_d)"><path d="M2300 450.2V268a8 8 0 00-8-8h-232a8 8 0 00-8 8v209a8 8 0 008 8h205.2a4 4 0 004-3.5c.7-6.5 3.5-12.5 7.7-17.1a30.5 30.5 0 0119.5-10.1c2.1-.3 3.6-2 3.6-4.1z" fill="#fff"/></g><path d="M2175.4 402.2l-.1 3c-.6-.2-1.3-.3-2.1-.3-1.9 0-3.4.6-4.3 1.8a7.2 7.2 0 00-1.4 4.4v11.5h-3.2v-14.5c0-2.1-.1-4-.3-5.6h3.1l.3 3.7a5.8 5.8 0 012.4-3.1 7 7 0 013.8-1.1l1.8.2zM2186 426.2c.8.4 1.4 1.1 1.8 1.9.4.8.6 1.7.6 2.8 0 1-.2 2-.7 2.8-.5.8-1.1 1.4-2 1.9-.8.4-1.8.7-3 .7-1 0-2-.2-3-.5a7 7 0 01-2.5-1.5l.7-1.5a7.1 7.1 0 004.7 1.9c1.2 0 2.1-.3 2.7-1 .7-.7 1-1.6 1-2.7s-.3-2-1-2.7c-.7-.7-1.5-1-2.6-1-1.6 0-2.9.6-3.8 1.9h-1.3v-9.7h10v1.6h-8v5.9c.9-.9 2.1-1.3 3.5-1.3a4 4 0 012.9.5zM2096 345.7V310h8v2.6h-4.8v30.6h4.8v2.6h-8v-.1zM2121.8 318.4h3.2l-8.7 20.1h-3.1l-8.4-20.1h3.4l6.8 16.5 6.8-16.5zM2132.7 316.2h-2.3l4-8.2h3.8l-5.5 8.2zM2138.1 350.2h3.7v1.6h-9.3v-1.6h3.7v-12.7l-3.4 2.2v-1.8l4.2-2.7h1.1v15zM2150.2 334.3v2.9c0 1.1-.2 2.1-.6 3.1a9 9 0 01-1.9 2.7l-1.5-1.2c1-1.2 1.6-2.3 1.8-3.4h-1.9v-4.1h4.1zM2165.7 334.3h4.1v4.1h-4.1v-4.1zM2175 334.3h4.1v4.1h-4.1v-4.1zM2184.2 334.3h4.1v4.1h-4.1v-4.1zM2197.6 334.3v2.9c0 1.1-.2 2.1-.6 3.1a9 9 0 01-1.9 2.7l-1.5-1.2c1-1.2 1.6-2.3 1.8-3.4h-1.9v-4.1h4.1zM2228.1 318.4h3.2l-8.7 20.1h-3.1l-8.6-20.1h3.4l6.8 16.6 7-16.6zM2239 316.2h-2.3l4-8.2h3.8l-5.5 8.2zM2248 351.8h-2.5l-6-5.6v5.6h-1.9v-17.2h1.9v10.8l5.5-5.4h2.4l-5.9 5.6 6.5 6.2zM2256.1 345.7h-8v-2.6h4.7v-30.6h-4.7V310h8v35.7z" fill="#1F2348"/><path opacity=".3" stroke="#1F2348" stroke-width="4" stroke-linecap="round" stroke-linejoin="round" stroke-dasharray="1 10" d="M2066 415h77M2205 415h79"/><path d="M123.3 426v-25h10c2.6 0 4.7.7 6.1 1.9 1.4 1.2 2.2 2.9 2.2 5.1 0 2.2-.8 3.8-2.2 5a9.3 9.3 0 01-6.2 1.9l2.6-.5c1 0 1.7.3 2.4.8a5 5 0 011.6 2.4l3.1 8.4h-3l-3.1-8.3c-.4-1-1-1.7-1.7-2a6 6 0 00-2.7-.6h-6.2V426h-2.9zm2.9-13.3h6.8c2 0 3.4-.4 4.3-1.2 1-.7 1.4-2 1.4-3.5s-.4-2.6-1.4-3.4c-.9-.8-2.3-1.1-4.3-1.1h-6.8v9.2zm27.8 13.5c-1.6 0-3-.3-4.1-1-1.2-.8-2.1-1.8-2.8-3.2-.6-1.4-.9-3-.9-4.8 0-1.9.3-3.5 1-4.8a7.7 7.7 0 012.7-3.3 7.4 7.4 0 014.1-1.1c1.6 0 3 .4 4.1 1.2 1.1.8 1.9 1.9 2.3 3.4l-.4.2v-4.4h2.8V426H160v-4.6l.4.3a5.9 5.9 0 01-2.3 3.4 6.9 6.9 0 01-4 1.1zm.6-2.3c1.7 0 3-.6 4-1.8a8 8 0 001.4-5c0-2.2-.5-3.8-1.5-5a4.8 4.8 0 00-4-1.7 5 5 0 00-4 1.8 7.8 7.8 0 00-1.4 5c0 2.1.5 3.8 1.4 5a5 5 0 004 1.7zm13.6 2.1v-12.7a43.6 43.6 0 00-.2-5h2.7l.3 3.7-.4.3a6 6 0 012.5-3.2 7 7 0 014-1.1c4.1 0 6.3 2.3 6.3 7v11h-2.9v-11c0-1.6-.3-2.7-1-3.5-.6-.8-1.6-1.1-3-1.1-1.7 0-3 .5-4 1.5s-1.4 2.3-1.4 4V426h-2.9zm36 0h-2.8v-4.7l.4.4a5.9 5.9 0 01-2.2 3.4 6.9 6.9 0 01-4.1 1.1c-1.6 0-3-.3-4.1-1-1.2-.8-2.1-2-2.8-3.3-.6-1.4-1-3-1-4.9 0-1.8.4-3.4 1-4.8a7.5 7.5 0 012.7-3.1 7.6 7.6 0 014.2-1.1c1.6 0 3 .4 4 1.2 1.2.8 2 2 2.3 3.4l-.4.3v-12.7h2.8V426zm-8.2-2.1c1.7 0 3-.6 4-1.8 1-1.1 1.4-2.8 1.4-5 0-2.1-.4-3.8-1.4-5a4.8 4.8 0 00-4-1.7 5 5 0 00-4 1.7 7.6 7.6 0 00-1.5 5 8 8 0 001.5 5 5 5 0 004 1.8zm21 2.3c-1.7 0-3.2-.3-4.4-1a7.7 7.7 0 01-3-3.2c-.6-1.4-1-3-1-4.9 0-1.8.4-3.4 1-4.8a7.7 7.7 0 017.4-4.3c1.7 0 3.1.3 4.4 1.1 1.2.7 2.2 1.8 2.9 3.2.7 1.4 1 3 1 4.8 0 1.9-.3 3.5-1 4.9a7.4 7.4 0 01-3 3.1 8.3 8.3 0 01-4.3 1.1zm0-2.3c1.7 0 3-.6 4-1.7 1-1.2 1.4-2.9 1.4-5 0-2.3-.5-4-1.4-5a4.9 4.9 0 00-4-1.8 5 5 0 00-4 1.7 7.7 7.7 0 00-1.5 5c0 2.2.5 4 1.4 5a5 5 0 004 1.8zm12.7 2.1v-12.7a42.6 42.6 0 00-.3-5h2.7l.4 3.7-.4.3a6 6 0 012.2-3.2c1-.8 2.3-1.1 3.7-1.1 1.7 0 3 .4 4 1.2.9.9 1.5 2.2 1.8 3.9l-.9-.5a6 6 0 012.3-3.4 6.7 6.7 0 014-1.2c2 0 3.5.6 4.4 1.7 1 1.2 1.5 3 1.5 5.2V426h-2.8v-11c0-1.6-.3-2.7-1-3.5-.5-.8-1.4-1.1-2.7-1.1-1.4 0-2.6.5-3.5 1.5-.8 1-1.2 2.3-1.2 4V426H241v-11c0-1.6-.3-2.7-.9-3.5-.6-.8-1.5-1.1-2.7-1.1-1.5 0-2.7.5-3.6 1.5-.8 1-1.2 2.3-1.2 4V426h-2.9zm30.8 0v-12.7a43.6 43.6 0 00-.3-5h2.7l.3 3.7-.3.3a6 6 0 012.4-3.2 7 7 0 014-1.1c4.2 0 6.3 2.3 6.3 7v11h-2.8v-11c0-1.6-.4-2.7-1-3.5-.7-.8-1.7-1.1-3-1.1-1.7 0-3 .5-4 1.5s-1.5 2.3-1.5 4V426h-2.8zm34.9-2.1c-.8.7-1.8 1.3-3 1.7a11 11 0 01-8.4-.4 7.5 7.5 0 01-3-3.2c-.7-1.3-1-3-1-4.9 0-1.8.3-3.4 1-4.8a8 8 0 012.9-3.2 8.2 8.2 0 014.3-1.1c1.6 0 3 .3 4 1 1.2.7 2 1.7 2.6 3 .6 1.2.9 2.8.9 4.6v.5h-13.3v-1.8h11.7l-1 1.3c.1-2.1-.3-3.7-1.1-4.8-.9-1-2.1-1.6-3.8-1.6-1.7 0-3 .6-4 1.8a7.7 7.7 0 00-1.4 5c0 2.3.5 4 1.5 5.1 1 1.2 2.5 1.8 4.5 1.8a8.8 8.8 0 005.6-2l1 2zm10.6 2.3c-3 0-5.4-.7-7-2.2l.9-2.1c.9.7 1.9 1.2 2.8 1.6 1 .3 2.1.5 3.4.5 1.3 0 2.3-.3 3-.7.7-.5 1-1.1 1-2a2 2 0 00-.7-1.6c-.4-.5-1.2-.8-2.3-1l-3-.8c-1.4-.3-2.6-.9-3.4-1.7a4.2 4.2 0 01-1.2-3c0-1 .3-2 .9-2.7.5-.8 1.3-1.4 2.3-1.9 1-.4 2.2-.6 3.6-.6 1.2 0 2.4.2 3.5.6 1 .4 2 1 2.7 1.7l-1 2a8.8 8.8 0 00-2.5-1.5c-.9-.3-1.8-.5-2.7-.5a5 5 0 00-3 .7c-.6.5-1 1.2-1 2 0 .7.2 1.3.6 1.7.5.4 1.2.8 2.1 1l3 .7c1.7.4 2.9 1 3.7 1.8.8.8 1.1 1.8 1.1 3 0 1.6-.6 2.8-1.8 3.7-1.2.9-3 1.3-5 1.3zm17.3 0c-3 0-5.3-.7-7-2.2l1-2.1c.9.7 1.8 1.2 2.8 1.6 1 .3 2.1.5 3.3.5 1.4 0 2.4-.3 3-.7.7-.5 1-1.1 1-2a2 2 0 00-.6-1.6c-.5-.5-1.3-.8-2.3-1l-3-.8c-1.5-.3-2.6-.9-3.4-1.7a4.2 4.2 0 01-1.2-3c0-1 .3-2 .8-2.7.6-.8 1.4-1.4 2.4-1.9a10.2 10.2 0 017 0c1.1.4 2 1 2.8 1.7l-1 2a8.8 8.8 0 00-2.5-1.5c-.9-.3-1.8-.5-2.8-.5a5 5 0 00-3 .7c-.6.5-1 1.2-1 2 0 .7.3 1.3.7 1.7.4.4 1.1.8 2.1 1l3 .7c1.6.4 2.9 1 3.6 1.8.8.8 1.2 1.8 1.2 3 0 1.6-.6 2.8-1.8 3.7-1.3.9-3 1.3-5 1.3zM363.6 634v-25h10c2.6 0 4.5.7 6 1.8a5.7 5.7 0 012.1 4.8 5.7 5.7 0 01-4.4 5.8v-.3a6 6 0 013.7 2c.9 1.1 1.3 2.5 1.3 4.1 0 2.2-.7 3.9-2.2 5a9.5 9.5 0 01-6.1 1.8h-10.4zm2.9-2.4h7.3c2 0 3.3-.3 4.3-1 .9-.8 1.4-2 1.4-3.5s-.5-2.6-1.4-3.4c-1-.8-2.4-1.1-4.3-1.1h-7.3v9zm0-11.5h6.7c1.9 0 3.3-.3 4.2-1 1-.8 1.5-2 1.5-3.4s-.5-2.5-1.4-3.2c-1-.7-2.4-1-4.3-1h-6.7v8.6zM387 634v-25.8h2.8V634h-2.8zm15.6.2c-1.6 0-3.1-.3-4.4-1a7.7 7.7 0 01-2.9-3.2c-.7-1.4-1-3-1-4.9 0-1.8.3-3.4 1-4.8a7.7 7.7 0 017.3-4.3c1.7 0 3.2.3 4.4 1.1 1.3.7 2.2 1.8 3 3.2.6 1.4 1 3 1 4.8 0 1.9-.4 3.5-1 4.9a7.4 7.4 0 01-3 3.1 8.3 8.3 0 01-4.4 1.1zm0-2.3c1.8 0 3-.6 4-1.7 1-1.2 1.5-2.9 1.5-5 0-2.3-.5-4-1.5-5.1a4.9 4.9 0 00-4-1.7 5 5 0 00-4 1.7 7.7 7.7 0 00-1.4 5c0 2.2.4 4 1.4 5a5 5 0 004 1.8zm20.2 2.3c-1.8 0-3.3-.3-4.5-1a7.7 7.7 0 01-3-3.2c-.6-1.4-1-3-1-4.8 0-1.8.4-3.4 1-4.8a7.7 7.7 0 013-3.3 9.5 9.5 0 0110.7 1.2l-.8 2-2.6-1.4c-.8-.4-1.7-.5-2.6-.5-1.7 0-3.1.6-4.2 1.7a7.5 7.5 0 00-1.5 5c0 2.2.5 3.9 1.5 5 1 1.2 2.5 1.8 4.2 1.8a7 7 0 002.6-.5 11 11 0 002.6-1.5l.9 2c-.7.8-1.7 1.3-2.8 1.8-1.2.3-2.3.5-3.5.5zm21.8-.2l-9.6-9 8.8-8.6h3.6l-9.8 9.4.2-1.8 10.5 10h-3.7zm-11.9 0v-25.8h2.8V634h-2.8zm27.5 0v-25h2.2l15.9 21.3-.8.2V609h2.7V634H478l-15.8-21.1.8-.3V634h-2.7zm32 .2c-2.1 0-3.7-.5-4.8-1.7-1-1.2-1.5-2.9-1.5-5.2v-10.9h2.8v10.8c0 1.6.3 2.8 1 3.5.6.8 1.6 1.2 3 1.2a5 5 0 003.7-1.5c1-1 1.5-2.4 1.5-4v-10h2.8V634H498v-3.8l.5-.2a5.8 5.8 0 01-2.4 3.2c-1.1.7-2.4 1-3.8 1zm14-.2v-12.7a42.6 42.6 0 00-.3-4.9h2.7l.3 3.6-.4.3a6 6 0 012.2-3.2c1-.8 2.3-1.1 3.7-1.1 1.7 0 3 .4 4 1.2 1 .9 1.5 2.2 1.8 3.9l-.8-.5a6 6 0 012.2-3.4 6.7 6.7 0 014-1.2c2 0 3.5.6 4.5 1.7 1 1.2 1.4 3 1.4 5.2V634h-2.8v-11c0-1.6-.3-2.7-.9-3.5-.6-.8-1.5-1.1-2.7-1.1-1.5 0-2.7.5-3.5 1.5-.9 1-1.3 2.3-1.3 4V634h-2.8v-11c0-1.6-.3-2.7-1-3.5-.5-.8-1.4-1.1-2.7-1.1-1.5 0-2.7.5-3.5 1.5-.9 1-1.3 2.3-1.3 4V634h-2.8zm30.7 0v-25.8h2.9V621l-.4-.3a5.9 5.9 0 012.3-3.4 6.7 6.7 0 014-1.2c1.6 0 3 .3 4.1 1.1 1.2.7 2 1.8 2.7 3.1.7 1.4 1 3 1 4.8a11 11 0 01-1 4.9 7.6 7.6 0 01-2.7 3.2 7.4 7.4 0 01-4 1.1c-1.7 0-3-.4-4.1-1.1-1.2-.8-2-2-2.3-3.4l.4-.4v4.7H537zm8.3-2.1c1.7 0 3-.6 4-1.8a8 8 0 001.4-5c0-2.2-.5-3.8-1.4-5a4.9 4.9 0 00-4-1.7c-1.8 0-3.1.6-4 1.7a7.8 7.8 0 00-1.4 5 8 8 0 001.4 5c.9 1.2 2.2 1.8 4 1.8zm27.1 0c-.7.7-1.7 1.3-3 1.7a11 11 0 01-8.3-.4 7.5 7.5 0 01-3-3.2c-.8-1.3-1.1-3-1.1-4.9 0-1.8.3-3.4 1-4.8a8 8 0 013-3.2 8.2 8.2 0 014.3-1.1c1.5 0 2.9.3 4 1s2 1.7 2.5 3c.6 1.2 1 2.8 1 4.6v.5h-13.4v-1.8h11.7l-.9 1.3c0-2.1-.3-3.7-1.2-4.8-.8-1-2-1.6-3.7-1.6-1.7 0-3 .6-4 1.8a7.7 7.7 0 00-1.5 5c0 2.3.5 4 1.5 5.1 1 1.2 2.6 1.8 4.5 1.8a8.8 8.8 0 005.7-2l1 2zm4.6 2.1v-12.7a42.6 42.6 0 00-.2-4.9h2.7l.3 4.3h-.3c.3-1.6 1-2.8 2-3.5a6.1 6.1 0 015.3-1v2.6c-.6-.2-1.2-.3-1.9-.3a5 5 0 00-3 .8c-.6.5-1.2 1.2-1.5 2a7 7 0 00-.5 2.7v10H577z" fill="#1F2348"/><path opacity=".2" d="M605 625c73 0 93.5-52 93.5-97.5" stroke="#1F2348" stroke-width="4" stroke-linecap="round" stroke-linejoin="round"/><path d="M480 145v-25h2.4l10.1 23h-1.3l10-23h2.4v25h-2.7v-21.1l1.1.1-9.2 21h-2l-9.3-21 1.2-.1V145H480zm36.1.2c-1.5 0-2.9-.3-4-1-1.3-.8-2.2-1.8-2.8-3.2-.6-1.4-1-3-1-4.8 0-1.9.4-3.5 1-4.8a7.7 7.7 0 012.7-3.3 7.4 7.4 0 014.1-1.1c1.7 0 3 .4 4.1 1.2 1.2.8 2 1.9 2.3 3.4l-.4.2v-4.4h2.8V145H522v-4.6l.4.3a5.9 5.9 0 01-2.3 3.4 6.9 6.9 0 01-4 1.1zm.6-2.3c1.7 0 3-.6 4-1.8a8 8 0 001.4-5c0-2.2-.5-3.8-1.4-5a4.8 4.8 0 00-4-1.7 5 5 0 00-4 1.8 7.8 7.8 0 00-1.5 5c0 2.1.5 3.8 1.4 5a5 5 0 004.1 1.7zm21 2.3c-1.7 0-3.2-.3-4.4-1a7.7 7.7 0 01-3-3.2c-.6-1.4-1-3-1-4.8 0-1.8.4-3.4 1-4.8a7.7 7.7 0 013-3.3 9.5 9.5 0 0110.7 1.2l-.9 2c-.8-.6-1.7-1-2.5-1.4-.8-.4-1.7-.5-2.6-.5-1.7 0-3.1.5-4.2 1.7a7.5 7.5 0 00-1.5 5c0 2.2.5 3.9 1.5 5 1 1.2 2.4 1.8 4.2 1.8a7 7 0 002.6-.5c.8-.3 1.7-.9 2.5-1.5l1 2c-.8.8-1.7 1.3-2.8 1.8-1.2.3-2.3.5-3.5.5zm10-.2v-12.7a43.6 43.6 0 00-.3-5h2.7l.4 4.4h-.4c.3-1.6 1-2.8 2.1-3.5a6.1 6.1 0 015.3-1v2.6c-.6-.2-1.2-.3-2-.3a5 5 0 00-2.9.8c-.7.5-1.2 1.2-1.6 2-.3.9-.5 1.7-.5 2.7v10h-2.8zm19.6.2c-1.7 0-3.1-.3-4.4-1a7.7 7.7 0 01-2.9-3.2c-.7-1.4-1-3-1-4.9 0-1.8.3-3.4 1-4.8a7.7 7.7 0 017.3-4.3c1.7 0 3.2.3 4.4 1 1.3.8 2.2 1.9 2.9 3.3.7 1.4 1 3 1 4.8 0 1.9-.3 3.5-1 4.9a7.4 7.4 0 01-2.9 3.1 8.3 8.3 0 01-4.4 1.1zm0-2.3c1.7 0 3-.6 4-1.7 1-1.2 1.4-2.9 1.4-5 0-2.3-.4-4-1.4-5a4.9 4.9 0 00-4-1.8 5 5 0 00-4 1.7 7.7 7.7 0 00-1.4 5c0 2.2.4 4 1.4 5a5 5 0 004 1.8zm22.2 2.1v-25h10c2.6 0 4.5.7 6 1.8a5.7 5.7 0 012.1 4.8 5.7 5.7 0 01-4.4 5.8v-.3a6 6 0 013.7 2c.9 1.1 1.3 2.5 1.3 4.1 0 2.2-.7 3.9-2.2 5a9.5 9.5 0 01-6 1.8h-10.5zm2.9-2.4h7.3c2 0 3.4-.3 4.3-1 .9-.8 1.4-2 1.4-3.5s-.5-2.6-1.4-3.4c-1-.8-2.4-1.1-4.3-1.1h-7.3v9zm0-11.5h6.7c1.9 0 3.3-.3 4.2-1 1-.8 1.5-2 1.5-3.4s-.5-2.5-1.4-3.2c-1-.7-2.4-1-4.3-1h-6.7v8.6zM613 145v-25.8h2.9V145H613zm15.6.2c-1.6 0-3.1-.3-4.4-1a7.7 7.7 0 01-2.9-3.2c-.7-1.4-1-3-1-4.9 0-1.8.3-3.4 1-4.8a7.7 7.7 0 017.3-4.3c1.7 0 3.2.3 4.4 1 1.3.8 2.2 1.9 3 3.3.6 1.4 1 3 1 4.8 0 1.9-.4 3.5-1 4.9a7.4 7.4 0 01-3 3.1 8.3 8.3 0 01-4.4 1.1zm0-2.3c1.8 0 3.1-.6 4-1.7 1-1.2 1.5-2.9 1.5-5 0-2.3-.5-4-1.5-5a4.9 4.9 0 00-4-1.8 5 5 0 00-4 1.7 7.7 7.7 0 00-1.4 5c0 2.2.4 4 1.4 5a5 5 0 004 1.8zm20.2 2.3c-1.8 0-3.2-.3-4.5-1a7.7 7.7 0 01-3-3.2c-.6-1.4-1-3-1-4.8 0-1.8.4-3.4 1-4.8a7.7 7.7 0 013-3.3 9.5 9.5 0 0110.7 1.2l-.8 2c-.9-.6-1.8-1-2.6-1.4-.8-.4-1.7-.5-2.5-.5-1.8 0-3.2.5-4.3 1.7a7.5 7.5 0 00-1.5 5c0 2.2.5 3.9 1.5 5 1 1.2 2.5 1.8 4.3 1.8a7 7 0 002.5-.5 11 11 0 002.6-1.5l1 2c-.8.8-1.8 1.3-3 1.8-1 .3-2.2.5-3.4.5zm21.8-.2l-9.6-9 8.8-8.6h3.7l-9.8 9.4V135l10.6 10h-3.7zm-11.9 0v-25.8h2.9V145h-2.9zM131 145L120 120h3l9.7 22.7h-1.1l9.7-22.6h3L133.5 145H131zm21 .2c-1.6 0-3-.3-4.2-1-1.2-.8-2-1.8-2.7-3.2-.7-1.4-1-3-1-4.8 0-1.9.4-3.5 1-4.8a7.7 7.7 0 012.7-3.3 7.4 7.4 0 014.1-1.1c1.6 0 3 .4 4.1 1.2 1.1.8 2 1.9 2.3 3.4l-.4.2v-4.4h2.8V145h-2.8v-4.6l.4.3a5.9 5.9 0 01-2.3 3.4 6.9 6.9 0 01-4 1.1zm.5-2.3c1.7 0 3-.6 4-1.8a8 8 0 001.4-5c0-2.2-.5-3.8-1.5-5a4.8 4.8 0 00-4-1.7 5 5 0 00-4 1.8 7.8 7.8 0 00-1.4 5c0 2.1.5 3.8 1.4 5a5 5 0 004 1.7zm13.7 2.1v-25.8h2.8V145h-2.8zm8.3 0v-17.6h2.8V145h-2.8zm-.3-25h3.5v3.2h-3.5v-3.3zm24.1 25h-2.8v-4.7l.5.4a5.9 5.9 0 01-2.3 3.4 6.9 6.9 0 01-4.1 1.1c-1.5 0-3-.3-4.1-1-1.2-.8-2-2-2.7-3.3-.7-1.4-1-3-1-4.9 0-1.8.3-3.4 1-4.8a7.5 7.5 0 012.7-3.1 7.6 7.6 0 014.1-1.1c1.6 0 3 .4 4 1.2 1.2.8 2 2 2.4 3.4l-.5.3v-12.7h2.8V145zm-8.1-2.1c1.7 0 3-.6 4-1.8.9-1.1 1.3-2.8 1.3-5 0-2.1-.4-3.8-1.4-5a4.8 4.8 0 00-4-1.7 5 5 0 00-4 1.7 7.6 7.6 0 00-1.4 5 8 8 0 001.4 5 5 5 0 004 1.8zm20.4 2.3c-1.6 0-3-.3-4.1-1-1.2-.8-2.1-1.8-2.8-3.2-.6-1.4-1-3-1-4.8 0-1.9.4-3.5 1-4.8a7.7 7.7 0 012.8-3.3 7.4 7.4 0 014-1.1c1.7 0 3 .4 4.2 1.2 1.1.8 1.9 1.9 2.3 3.4l-.5.2v-4.4h2.8V145h-2.8v-4.6l.5.3a5.9 5.9 0 01-2.3 3.4 6.9 6.9 0 01-4.1 1.1zm.5-2.3c1.8 0 3.1-.6 4-1.8a8 8 0 001.4-5c0-2.2-.4-3.8-1.4-5a4.8 4.8 0 00-4-1.7 5 5 0 00-4 1.8 7.8 7.8 0 00-1.4 5c0 2.1.4 3.8 1.4 5a5 5 0 004 1.7zm11.2-13.3v-2.2h11.3v2.2h-11.3zm11.3 12.9v2.4l-1.2.2-1.3.1c-1.6 0-3-.4-3.9-1.4-1-.9-1.4-2.3-1.4-4.2V123l2.8-1v17.4c0 .9.1 1.6.4 2.1.3.5.6 1 1.1 1.1.5.2 1 .3 1.6.3a5.7 5.7 0 001.9-.3zm10.7 2.7c-1.6 0-3.1-.3-4.4-1a7.8 7.8 0 01-2.9-3.2c-.7-1.4-1-3-1-4.9 0-1.8.3-3.4 1-4.8a7.7 7.7 0 017.3-4.3c1.7 0 3.2.3 4.4 1 1.3.8 2.2 1.9 3 3.3.6 1.4 1 3 1 4.8 0 1.9-.4 3.5-1 4.9a7.4 7.4 0 01-3 3.1 8.3 8.3 0 01-4.4 1.1zm0-2.3c1.8 0 3-.6 4-1.7 1-1.2 1.5-2.9 1.5-5 0-2.3-.5-4-1.5-5a4.9 4.9 0 00-4-1.8 5 5 0 00-4 1.7 7.7 7.7 0 00-1.4 5c0 2.2.4 4 1.4 5a5 5 0 004 1.8zm12.8 2.1v-12.7a43.6 43.6 0 00-.3-5h2.7l.4 4.4h-.4c.3-1.6 1-2.8 2.1-3.5a6.1 6.1 0 015.3-1v2.6c-.6-.2-1.2-.3-2-.3a5 5 0 00-2.9.8c-.7.5-1.2 1.2-1.6 2-.3.9-.5 1.7-.5 2.7v10h-2.8zm22.1 0v-25h3v22.6h12.4v2.4h-15.4zm18.8 0v-17.6h2.8V145H298zm-.3-25h3.4v3.2h-3.4v-3.3zm14.6 25.2c-3 0-5.4-.7-7-2.2l.9-2.1c.9.7 1.9 1.2 2.8 1.6 1 .3 2.1.5 3.4.5 1.3 0 2.3-.3 3-.7.7-.5 1-1.1 1-2a2 2 0 00-.7-1.6c-.4-.5-1.2-.8-2.3-1l-3-.8c-1.4-.3-2.6-.9-3.4-1.7a4.2 4.2 0 01-1.2-3c0-1 .3-2 .9-2.7.5-.8 1.3-1.4 2.3-1.9 1-.4 2.2-.6 3.6-.6 1.2 0 2.4.2 3.5.6 1 .4 2 1 2.7 1.7l-1 2a8.8 8.8 0 00-2.5-1.5c-.9-.3-1.8-.5-2.7-.5a5 5 0 00-3 .7c-.7.5-1 1.2-1 2 0 .7.2 1.3.6 1.7.5.5 1.2.8 2.1 1l3 .7c1.7.4 2.9 1 3.7 1.8.8.8 1.1 1.8 1.1 3 0 1.6-.6 2.8-1.8 3.7-1.2.9-3 1.3-5 1.3zm8.7-15.6v-2.2h11.3v2.2H321zm11.2 12.9v2.4l-1.1.2-1.3.1c-1.6 0-3-.4-4-1.4-.9-.9-1.4-2.3-1.4-4.2V123l2.9-1v17.4c0 .9.1 1.6.4 2.1.2.5.6 1 1 1.1a5.7 5.7 0 003.5 0zM807.7 145v-25h2.4l10 23h-1.3l10-23h2.4v25h-2.6v-21.1l1 .1-9.1 21h-2l-9.3-21 1.1-.1V145h-2.6zm29.3 0v-17.6h2.9V145H837zm-.2-25h3.4v3.2h-3.4v-3.3zm16 25.2c-1.8 0-3.3-.3-4.5-1a7.7 7.7 0 01-3-3.2c-.6-1.4-1-3-1-4.8 0-1.8.4-3.4 1-4.8a7.7 7.7 0 013-3.3 9.5 9.5 0 0110.7 1.2l-.9 2c-.8-.6-1.7-1-2.5-1.4-.8-.4-1.7-.5-2.6-.5-1.7 0-3.1.5-4.2 1.7a7.5 7.5 0 00-1.5 5c0 2.2.5 3.9 1.5 5 1 1.2 2.4 1.8 4.2 1.8a7 7 0 002.6-.5c.8-.3 1.7-.9 2.5-1.5l1 2c-.8.8-1.7 1.3-2.8 1.8-1.2.3-2.3.5-3.5.5zm9.9-.2v-12.7a43.6 43.6 0 00-.3-5h2.7l.4 4.4h-.4c.3-1.6 1-2.8 2.1-3.5a6.1 6.1 0 015.3-1v2.6c-.6-.2-1.2-.3-2-.3a5 5 0 00-2.9.8c-.7.5-1.2 1.2-1.6 2-.3.9-.5 1.7-.5 2.7v10h-2.8zm19.6.2c-1.7 0-3.1-.3-4.4-1a7.7 7.7 0 01-2.9-3.2c-.7-1.4-1-3-1-4.9 0-1.8.3-3.4 1-4.8a7.7 7.7 0 017.3-4.3c1.7 0 3.2.3 4.4 1 1.3.8 2.2 1.9 2.9 3.3.7 1.4 1 3 1 4.8 0 1.9-.3 3.5-1 4.9a7.4 7.4 0 01-2.9 3.1 8.3 8.3 0 01-4.4 1.1zm0-2.3c1.7 0 3-.6 4-1.7 1-1.2 1.4-2.9 1.4-5 0-2.3-.4-4-1.4-5a4.9 4.9 0 00-4-1.8 5 5 0 00-4 1.7 7.7 7.7 0 00-1.4 5c0 2.2.4 4 1.4 5a5 5 0 004 1.8zm22.2 2.1v-25h10c2.6 0 4.5.7 6 1.8a5.7 5.7 0 012.1 4.8 5.7 5.7 0 01-4.4 5.8v-.3a6 6 0 013.7 2c.9 1.1 1.3 2.5 1.3 4.1 0 2.2-.7 3.9-2.2 5a9.5 9.5 0 01-6 1.8h-10.5zm2.9-2.4h7.3c2 0 3.4-.3 4.3-1 .9-.8 1.4-2 1.4-3.5s-.5-2.6-1.4-3.4c-1-.8-2.4-1.1-4.3-1.1h-7.3v9zm0-11.5h6.7c1.9 0 3.3-.3 4.2-1 1-.8 1.5-2 1.5-3.4s-.5-2.5-1.4-3.2c-1-.7-2.4-1-4.3-1h-6.7v8.6zM928 145v-25.8h2.9V145H928zm15.6.2c-1.6 0-3.1-.3-4.4-1a7.7 7.7 0 01-2.9-3.2c-.7-1.4-1-3-1-4.9 0-1.8.3-3.4 1-4.8a7.7 7.7 0 017.3-4.3c1.7 0 3.2.3 4.4 1 1.3.8 2.2 1.9 3 3.3.6 1.4 1 3 1 4.8 0 1.9-.4 3.5-1 4.9a7.4 7.4 0 01-3 3.1 8.3 8.3 0 01-4.4 1.1zm0-2.3c1.8 0 3.1-.6 4-1.7 1-1.2 1.5-2.9 1.5-5 0-2.3-.5-4-1.5-5a4.9 4.9 0 00-4-1.8 5 5 0 00-4 1.7 7.7 7.7 0 00-1.4 5c0 2.2.4 4 1.4 5a5 5 0 004 1.8zm20.2 2.3c-1.8 0-3.2-.3-4.5-1a7.7 7.7 0 01-3-3.2c-.6-1.4-1-3-1-4.8 0-1.8.4-3.4 1-4.8a7.7 7.7 0 013-3.3 9.5 9.5 0 0110.7 1.2l-.8 2c-.9-.6-1.8-1-2.6-1.4-.8-.4-1.7-.5-2.5-.5-1.8 0-3.2.5-4.3 1.7a7.5 7.5 0 00-1.5 5c0 2.2.5 3.9 1.5 5 1 1.2 2.5 1.8 4.3 1.8a7 7 0 002.5-.5 11 11 0 002.6-1.5l1 2c-.8.8-1.8 1.3-3 1.8-1 .3-2.2.5-3.4.5zm21.8-.2l-9.6-9 8.8-8.6h3.7l-9.8 9.4V135l10.6 10h-3.7zm-11.9 0v-25.8h2.9V145h-2.9z" fill="#1F2348"/><path opacity=".2" stroke="#1F2348" stroke-width="4" stroke-linecap="round" stroke-linejoin="round" d="M570 171v63M898 171v63"/><path d="M1416.4 145v-25h10c2.5 0 4.5.7 5.9 1.8a5.7 5.7 0 012.1 4.8 5.8 5.8 0 01-4.4 5.8v-.3c1.6.3 2.8 1 3.7 2 .9 1.1 1.3 2.5 1.3 4.1 0 2.2-.7 3.9-2.2 5a9.5 9.5 0 01-6 1.8h-10.4zm2.8-2.4h7.3c2 0 3.4-.3 4.3-1 1-.8 1.4-2 1.4-3.5s-.5-2.6-1.4-3.4c-1-.8-2.4-1.1-4.3-1.1h-7.3v9zm0-11.5h6.7c2 0 3.3-.3 4.3-1 1-.8 1.4-2 1.4-3.4s-.5-2.5-1.4-3.2c-1-.7-2.4-1-4.3-1h-6.7v8.6zm20.6 13.9v-25.8h2.9V145h-2.9zm15.7.2c-1.7 0-3.2-.3-4.5-1a7.8 7.8 0 01-2.9-3.2c-.6-1.4-1-3-1-4.9 0-1.8.4-3.4 1-4.8a7.7 7.7 0 013-3.2 8.5 8.5 0 014.4-1.1c1.6 0 3 .3 4.3 1 1.3.8 2.3 1.9 3 3.3.6 1.4 1 3 1 4.8 0 1.9-.4 3.5-1 4.9a7.4 7.4 0 01-3 3.1 8.3 8.3 0 01-4.3 1.1zm0-2.3c1.7 0 3-.6 4-1.7.9-1.2 1.4-2.9 1.4-5 0-2.3-.5-4-1.5-5a4.9 4.9 0 00-4-1.8 5 5 0 00-4 1.7 7.7 7.7 0 00-1.4 5c0 2.2.5 4 1.4 5a5 5 0 004 1.8zm20 2.3c-1.6 0-3.1-.3-4.4-1a7.7 7.7 0 01-3-3.2c-.6-1.4-1-3-1-4.8 0-1.8.4-3.4 1.1-4.8a7.8 7.8 0 013-3.3 9.5 9.5 0 0110.7 1.2l-1 2c-.8-.6-1.6-1-2.5-1.4-.8-.4-1.6-.5-2.5-.5-1.8 0-3.2.5-4.3 1.7a7.5 7.5 0 00-1.5 5c0 2.2.5 3.9 1.5 5 1 1.2 2.5 1.8 4.3 1.8a7 7 0 002.5-.5 11 11 0 002.6-1.5l1 2c-.8.8-1.8 1.3-3 1.8-1 .3-2.2.5-3.4.5zm21.9-.2l-9.6-9 8.9-8.6h3.6l-9.8 9.4V135l10.6 10h-3.7zm-11.9 0v-25.8h2.9V145h-2.9zm27.5 0v-25h10c2.5 0 4.5.7 6 2 1.4 1.2 2.1 2.9 2.1 5 0 2.2-.7 3.9-2.1 5.2a8.8 8.8 0 01-6 1.8h-7.1v11h-2.9zm2.9-13.3h6.8c1.9 0 3.3-.4 4.2-1.2 1-.8 1.4-2 1.4-3.5 0-1.4-.5-2.6-1.4-3.3-1-.8-2.3-1.2-4.2-1.2h-6.8v9.2zM1535 145v-12.7a50 50 0 00-.3-5h2.7l.4 4.4h-.4c.4-1.6 1-2.8 2.1-3.5a6.1 6.1 0 015.3-1v2.6c-.6-.2-1.2-.3-1.9-.3a5 5 0 00-3 .8c-.7.5-1.2 1.2-1.5 2a7 7 0 00-.5 2.7v10h-2.9zm19.7.2c-1.7 0-3.2-.3-4.5-1a7.7 7.7 0 01-2.9-3.2c-.7-1.4-1-3-1-4.9 0-1.8.3-3.4 1-4.8a7.7 7.7 0 017.3-4.3c1.7 0 3.2.3 4.4 1 1.3.8 2.3 1.9 3 3.3.6 1.4 1 3 1 4.8 0 1.9-.4 3.5-1 4.9a7.5 7.5 0 01-3 3.1 8.3 8.3 0 01-4.3 1.1zm0-2.3c1.7 0 3-.6 4-1.7.9-1.2 1.4-2.9 1.4-5 0-2.3-.5-4-1.5-5a4.9 4.9 0 00-4-1.8 5 5 0 00-4 1.7 7.7 7.7 0 00-1.4 5c0 2.2.5 4 1.4 5a5 5 0 004 1.8zm28.2 2.1h-2.8v-4.7l.4.4a5.9 5.9 0 01-2.3 3.4 7 7 0 01-4 1.1c-1.6 0-3-.3-4.1-1-1.2-.8-2.1-2-2.8-3.3-.6-1.4-1-3-1-4.9 0-1.8.4-3.4 1-4.8a7.5 7.5 0 012.7-3.1 7.6 7.6 0 014.2-1.1c1.6 0 3 .4 4 1.2 1.2.8 2 2 2.3 3.4l-.4.3v-12.7h2.8V145zm-8.2-2.1c1.7 0 3-.6 4-1.8 1-1.1 1.4-2.8 1.4-5 0-2.1-.5-3.8-1.4-5a4.8 4.8 0 00-4-1.7 5 5 0 00-4 1.7 7.6 7.6 0 00-1.5 5 8 8 0 001.5 5 5 5 0 004 1.8zm20 2.3c-2.2 0-3.8-.5-4.8-1.7-1.1-1.2-1.6-2.9-1.6-5.2v-11h2.8v11c0 1.5.3 2.7 1 3.4.6.8 1.6 1.2 3 1.2a5 5 0 003.8-1.5c.9-1 1.4-2.4 1.4-4v-10h2.8V145h-2.8v-3.8l.5-.2a5.8 5.8 0 01-2.4 3.2c-1.1.7-2.4 1-3.8 1zm21.3 0c-1.8 0-3.3-.3-4.5-1a7.7 7.7 0 01-3-3.2c-.6-1.4-1-3-1-4.8 0-1.8.4-3.4 1-4.8a7.7 7.7 0 013-3.3 9.5 9.5 0 0110.7 1.2l-.8 2-2.6-1.4c-.8-.4-1.7-.5-2.6-.5-1.7 0-3.1.5-4.2 1.7a7.5 7.5 0 00-1.5 5c0 2.2.5 3.9 1.5 5 1 1.2 2.5 1.8 4.3 1.8a7 7 0 002.5-.5c.8-.3 1.7-.9 2.6-1.5l.9 2c-.7.8-1.7 1.3-2.8 1.8-1.1.3-2.3.5-3.5.5zm24.3-2.3c-.7.7-1.7 1.3-3 1.7a11 11 0 01-8.3-.4 7.5 7.5 0 01-3-3.2c-.8-1.3-1.1-3-1.1-4.9 0-1.8.3-3.4 1-4.8a8 8 0 013-3.2 8.1 8.1 0 014.3-1.1c1.5 0 2.9.3 4 1s2 1.7 2.5 3c.6 1.2 1 2.8 1 4.6v.5h-13.3v-1.8h11.6l-.9 1.3c0-2.1-.3-3.7-1.2-4.8-.8-1-2-1.6-3.7-1.6-1.7 0-3 .6-4 1.8a7.7 7.7 0 00-1.5 5c0 2.3.5 4 1.5 5.2 1 1.1 2.6 1.7 4.5 1.7a8.9 8.9 0 005.7-2l1 2zm4.6 2.1v-12.7a40 40 0 00-.2-5h2.7l.3 4.4h-.3c.3-1.6 1-2.8 2-3.5a6.2 6.2 0 015.3-1v2.6c-.6-.2-1.2-.3-1.9-.3a5 5 0 00-3 .8c-.6.5-1.2 1.2-1.5 2a7 7 0 00-.5 2.7v10h-2.9z" fill="#1F2348"/><path opacity=".5" d="M721 374.6a4 4 0 010-7l21-12a4 4 0 016 3.5v24c0 3.1-3.3 5-6 3.5l-21-12zM1042 374.6a4 4 0 010-7l21-12a4 4 0 016 3.5v24c0 3.1-3.3 5-6 3.5l-21-12z" fill="#1F2348"/><path stroke="#D94432" stroke-width="4" stroke-linecap="round" stroke-linejoin="round" d="M1536 171v101"/><path d="M1537.5 285.6a1.7 1.7 0 01-3 0l-6.8-11.5c-.6-1.2.2-2.6 1.5-2.6h13.6c1.3 0 2.1 1.4 1.5 2.6l-6.8 11.5z" fill="#D94432" stroke="#D94432"/><path opacity=".5" d="M1363 374.6a4 4 0 010-7l21-12a4 4 0 016 3.5v24c0 3.1-3.3 5-6 3.5l-21-12zM1680 374.6a4 4 0 010-7l21-12a4 4 0 016 3.5v24c0 3.1-3.3 5-6 3.5l-21-12zM2001 374.6a4 4 0 010-7l21-12a4 4 0 016 3.5v24c0 3.1-3.3 5-6 3.5l-21-12z" fill="#1F2348"/><circle cx="1019.8" cy="483.8" r="22.8" fill="url(#paint5_radial)"/><path d="M1022.1 491h4.5v3H1014v-3h4.4v-13l-4.1 2.5v-3.3l5.6-3.4h2.1V491z" fill="#fff"/><circle cx="1340.8" cy="483.8" r="22.8" fill="url(#paint6_radial)"/><path d="M1347.5 491v3h-13.6v-2.6l6.9-7.5 1.8-2.4c.3-.8.5-1.5.5-2.2 0-1-.3-1.7-.8-2.1-.5-.5-1.3-.7-2.3-.7-1.8 0-3.6.7-5.5 2l-1.2-2.6c.8-.7 1.8-1.3 3-1.7 1.3-.5 2.6-.7 3.8-.7 2 0 3.7.5 4.9 1.5a5 5 0 011.8 4c0 1.2-.3 2.3-.8 3.3a15 15 0 01-2.5 3.5l-5 5.3h9z" fill="#fff"/><circle cx="1657.8" cy="483.8" r="22.8" fill="url(#paint7_radial)"/><path d="M1660.5 483.6c1.3.4 2.2 1 2.8 1.8.6.9 1 2 1 3.2a5 5 0 01-2 4.2c-1.3 1-3 1.5-5.3 1.5-1.3 0-2.6-.2-4-.6-1.2-.4-2.2-1-3-1.8l1.2-2.6a9.1 9.1 0 005.7 2c1.3 0 2.3-.2 2.9-.7.6-.5 1-1.3 1-2.3 0-1-.4-1.8-1-2.3-.7-.5-1.7-.7-3-.7h-2.7v-3h2.2c2.6 0 4-1 4-3 0-.9-.3-1.6-1-2.1-.5-.5-1.3-.7-2.3-.7a9 9 0 00-5.5 2l-1.2-2.6c.8-.7 1.8-1.3 3-1.7 1.3-.5 2.6-.7 4-.7 2 0 3.5.5 4.7 1.5 1.2 1 1.8 2.3 1.8 3.9 0 1.1-.3 2.1-1 3-.5.8-1.2 1.4-2.3 1.7z" fill="#fff"/><circle cx="1978.8" cy="483.8" r="22.8" fill="url(#paint8_radial)"/><path d="M1986.3 487.2v3h-2.9v3.9h-3.6v-4h-8.8v-2.7l9.5-13.6h3v13.4h2.8zm-11.8 0h5.3v-7.7l-5.3 7.7z" fill="#fff"/><g filter="url(#filter1_d)"><path d="M699 450.2V268a8 8 0 00-8-8H459a8 8 0 00-8 8v209a8 8 0 008 8h205.2a4 4 0 004-3.5c.7-6.5 3.5-12.5 7.7-17.1a30.5 30.5 0 0119.5-10.1c2.1-.3 3.6-2 3.6-4.1z" fill="#fff"/></g><path d="M230 175c28 110 157.1 153.7 243.7 153.7" stroke="#D94432" stroke-width="4" stroke-linecap="round"/><path d="M477 327l-10.8-5.6-.3 13.5 11-8z" fill="#D94432" stroke="#D94432" stroke-width="4" stroke-linecap="round" stroke-linejoin="round"/><path opacity=".3" stroke="#1F2348" stroke-width="4" stroke-linecap="round" stroke-linejoin="round" stroke-dasharray="1 10" d="M465 415h79M603 415h80"/><path d="M499 344.8V309h8v2.6h-4.8v30.6h4.8v2.6h-8zM524.8 317.4h3.2l-8.7 20.1h-3.1l-8.4-20.1h3.4L518 334l6.8-16.6zM537.1 349.2h3.7v1.6h-9.3v-1.6h3.7v-12.6l-3.4 2.2V337l4.2-2.7h1.1v14.9zM549.2 333.4v2.9c0 1.1-.2 2.1-.6 3.1a9 9 0 01-1.9 2.7l-1.5-1.2c1-1.2 1.6-2.3 1.8-3.4h-1.9v-4.1h4.1zM564.7 333.4h4.1v4.1h-4.1v-4.1zM574 333.4h4.1v4.1H574v-4.1zM583.2 333.4h4.1v4.1h-4.1v-4.1zM596.6 333.4v2.9c0 1.1-.2 2.1-.6 3.1a9 9 0 01-1.9 2.7l-1.5-1.2c1-1.2 1.6-2.3 1.8-3.4h-1.9v-4.1h4.1zM627.1 317.4h3.2l-8.7 20.1h-3.1l-8.6-20.1h3.4l6.8 16.6 7-16.6zM643 350.8h-2.5l-6-5.6v5.6h-1.9v-17.2h1.9v10.8l5.5-5.4h2.4l-5.9 5.6 6.5 6.2zM651.1 344.8h-8v-2.6h4.7v-30.6h-4.7V309h8v35.8zM574.5 402.2l-.1 3c-.6-.2-1.3-.3-2.1-.3-1.9 0-3.4.6-4.3 1.8a6.6 6.6 0 00-1.4 4.4v11.5h-3.3v-14.5c0-2.1-.1-4-.3-5.6h3.1l.3 3.7a5.8 5.8 0 012.4-3.1 7.4 7.4 0 015.7-.9zM577.3 433.9c-1-1.4-1.5-3.5-1.5-6.3s.5-4.9 1.5-6.3a5 5 0 014.3-2.2c1.9 0 3.3.7 4.3 2.2 1 1.4 1.5 3.5 1.5 6.3s-.5 4.9-1.5 6.3a5 5 0 01-4.3 2.2c-1.8 0-3.3-.7-4.3-2.2zm7.3-1.1c.6-1.1.9-2.9.9-5.2 0-2.3-.3-4.1-.9-5.2a3.1 3.1 0 00-2.9-1.7c-1.3 0-2.3.6-2.9 1.7-.6 1.1-.9 2.8-.9 5.2 0 2.4.3 4.1.9 5.2a3.1 3.1 0 002.9 1.7c1.3 0 2.3-.6 2.9-1.7z" fill="#1F2348"/><circle cx="698.8" cy="483.8" r="22.8" fill="url(#paint9_radial)"/><path d="M698.4 494.3c-2.4 0-4.2-.9-5.5-2.6a13.5 13.5 0 01-1.9-7.8c0-3.4.6-6 1.9-7.7a6.4 6.4 0 015.5-2.6c2.4 0 4.3.9 5.5 2.6a13 13 0 012 7.7c0 3.4-.7 6-2 7.8a6.3 6.3 0 01-5.5 2.6zm0-2.9a3 3 0 002.9-1.7c.6-1.3.9-3.2.9-5.8a13 13 0 00-1-5.7 3 3 0 00-2.8-1.7 3 3 0 00-2.9 1.7c-.6 1.2-.8 3.1-.8 5.7s.2 4.5.8 5.8a3 3 0 003 1.8z" fill="#fff"/><path d="M1489.7 634v-25h15.7v2.5h-12.9v8.6h12.2v2.5h-12.2v9h13v2.4h-15.8zm20.2 7.6v-20.3a40 40 0 00-.3-4.9h2.7l.3 3.6-.2.6a5.9 5.9 0 012.2-3.4 6.8 6.8 0 014.1-1.2c1.5 0 2.9.4 4 1.1 1.3.8 2.2 1.9 2.8 3.3.7 1.3 1 3 1 4.8 0 1.8-.3 3.4-1 4.8a7.5 7.5 0 01-2.7 3.2c-1.2.7-2.5 1-4.1 1-1.6 0-3-.4-4-1.1-1.2-.8-2-2-2.3-3.4l.3-.4v12.3h-2.8zm8.3-9.7c1.7 0 3-.6 4-1.8 1-1.1 1.4-2.8 1.4-5 0-2-.5-3.7-1.4-5a4.8 4.8 0 00-4-1.7c-1.8 0-3.1.5-4 1.7a7.8 7.8 0 00-1.5 5 8 8 0 001.5 5c.9 1.2 2.2 1.8 4 1.8zm20 2.3c-1.7 0-3.2-.3-4.4-1a7.7 7.7 0 01-3-3.2c-.6-1.4-1-3-1-4.9 0-1.8.4-3.4 1-4.8a7.7 7.7 0 017.4-4.3c1.7 0 3.1.3 4.3 1.1 1.3.7 2.3 1.8 3 3.2.7 1.4 1 3 1 4.8 0 1.9-.3 3.5-1 4.9a7.5 7.5 0 01-3 3.1 8.3 8.3 0 01-4.3 1.1zm0-2.3c1.7 0 3-.6 4-1.7 1-1.2 1.4-2.9 1.4-5 0-2.3-.5-4-1.4-5.1a4.9 4.9 0 00-4-1.7 5 5 0 00-4 1.7 7.7 7.7 0 00-1.5 5c0 2.2.5 4 1.4 5a5 5 0 004 1.8zm20.1 2.3c-1.7 0-3.2-.3-4.5-1a7.7 7.7 0 01-3-3.2c-.6-1.4-1-3-1-4.8 0-1.8.4-3.4 1.1-4.8a7.7 7.7 0 013-3.3 9.5 9.5 0 0110.8 1.2l-1 2a10 10 0 00-2.5-1.4c-.9-.4-1.7-.5-2.6-.5-1.8 0-3.2.6-4.2 1.7a7.5 7.5 0 00-1.6 5c0 2.2.5 3.9 1.6 5 1 1.2 2.4 1.8 4.2 1.8a7 7 0 002.6-.5 11 11 0 002.5-1.5l1 2c-.8.8-1.7 1.3-2.9 1.8-1.1.3-2.3.5-3.5.5zm10-.2v-25.8h2.8V620l-.5.3a6 6 0 012.5-3.2 7 7 0 014-1.1c4.2 0 6.3 2.3 6.3 7v11h-2.9v-11c0-1.6-.3-2.7-1-3.5-.6-.8-1.6-1.1-3-1.1-1.7 0-3 .5-4 1.5s-1.4 2.3-1.4 4V634h-2.8z" fill="#1F2348"/><g opacity=".5"><path stroke="#1F2348" stroke-width="4" stroke-linecap="round" stroke-linejoin="round" stroke-dasharray="20 15" d="M802 573h1468"/><circle cx="780" cy="573" r="8" fill="#1F2348"/><circle cx="2292" cy="573" r="8" fill="#1F2348"/></g><defs><radialGradient id="paint0_radial" cx="0" cy="0" r="1" gradientUnits="userSpaceOnUse" gradientTransform="rotate(-180 1161.3 253.3) scale(45.6246)"><stop stop-color="#265DD7"/><stop offset="1" stop-color="#0582CA"/></radialGradient><radialGradient id="paint1_radial" cx="0" cy="0" r="1" gradientUnits="userSpaceOnUse" gradientTransform="matrix(-248 0 0 -225 1020 485)"><stop stop-color="#EAE9EA"/><stop offset="1" stop-color="#E9E9EA"/></radialGradient><radialGradient id="paint2_radial" cx="0" cy="0" r="1" gradientUnits="userSpaceOnUse" gradientTransform="matrix(-248 0 0 -225 1341 485)"><stop stop-color="#EAE9EA"/><stop offset="1" stop-color="#E9E9EA"/></radialGradient><radialGradient id="paint3_radial" cx="0" cy="0" r="1" gradientUnits="userSpaceOnUse" gradientTransform="matrix(-248 0 0 -225 1658 485)"><stop stop-color="#EAE9EA"/><stop offset="1" stop-color="#E9E9EA"/></radialGradient><radialGradient id="paint4_radial" cx="0" cy="0" r="1" gradientUnits="userSpaceOnUse" gradientTransform="matrix(-248 0 0 -225 1979 485)"><stop stop-color="#EAE9EA"/><stop offset="1" stop-color="#E9E9EA"/></radialGradient><radialGradient id="paint5_radial" cx="0" cy="0" r="1" gradientUnits="userSpaceOnUse" gradientTransform="rotate(-180 521.3 253.3) scale(45.6246)"><stop stop-color="#265DD7"/><stop offset="1" stop-color="#0582CA"/></radialGradient><radialGradient id="paint6_radial" cx="0" cy="0" r="1" gradientUnits="userSpaceOnUse" gradientTransform="rotate(-180 681.8 253.3) scale(45.6246)"><stop stop-color="#265DD7"/><stop offset="1" stop-color="#0582CA"/></radialGradient><radialGradient id="paint7_radial" cx="0" cy="0" r="1" gradientUnits="userSpaceOnUse" gradientTransform="rotate(-180 840.3 253.3) scale(45.6246)"><stop stop-color="#265DD7"/><stop offset="1" stop-color="#0582CA"/></radialGradient><radialGradient id="paint8_radial" cx="0" cy="0" r="1" gradientUnits="userSpaceOnUse" gradientTransform="rotate(-180 1000.8 253.3) scale(45.6246)"><stop stop-color="#265DD7"/><stop offset="1" stop-color="#0582CA"/></radialGradient><radialGradient id="paint9_radial" cx="0" cy="0" r="1" gradientUnits="userSpaceOnUse" gradientTransform="rotate(-180 360.8 253.3) scale(45.6246)"><stop stop-color="#265DD7"/><stop offset="1" stop-color="#0582CA"/></radialGradient><filter id="filter0_d" x="2032" y="250" width="288" height="265" filterUnits="userSpaceOnUse" color-interpolation-filters="sRGB"><feFlood flood-opacity="0" result="BackgroundImageFix"/><feColorMatrix in="SourceAlpha" values="0 0 0 0 0 0 0 0 0 0 0 0 0 0 0 0 0 0 127 0"/><feOffset dy="10"/><feGaussianBlur stdDeviation="10"/><feColorMatrix values="0 0 0 0 0 0 0 0 0 0 0 0 0 0 0 0 0 0 0.111158 0"/><feBlend in2="BackgroundImageFix" result="effect1_dropShadow"/><feBlend in="SourceGraphic" in2="effect1_dropShadow" result="shape"/></filter><filter id="filter1_d" x="431" y="250" width="288" height="265" filterUnits="userSpaceOnUse" color-interpolation-filters="sRGB"><feFlood flood-opacity="0" result="BackgroundImageFix"/><feColorMatrix in="SourceAlpha" values="0 0 0 0 0 0 0 0 0 0 0 0 0 0 0 0 0 0 127 0"/><feOffset dy="10"/><feGaussianBlur stdDeviation="10"/><feColorMatrix values="0 0 0 0 0 0 0 0 0 0 0 0 0 0 0 0 0 0 0.111158 0"/><feBlend in2="BackgroundImageFix" result="effect1_dropShadow"/><feBlend in="SourceGraphic" in2="effect1_dropShadow" result="shape"/></filter></defs>
</svg>
