<svg xmlns="http://www.w3.org/2000/svg" fill="none" viewBox="0 0 41 40">
  <path fill="#28363C" fill-rule="evenodd" d="M35.12 6.204c2.46 2.648 4.19 5.756 5.022 9.287a19.98 19.98 0 0 1-3.643 16.685 20.051 20.051 0 0 1-15.211 7.799l-.09-.282a19.825 19.825 0 0 0-5.11-7.553 19.86 19.86 0 0 0-7.954-4.471c-2.037-.64-4.137-.832-6.25-.819A19.931 19.931 0 0 1 6.863 5.512 20.004 20.004 0 0 1 28.448 1.6l.243.115-.205.128c-1.729 1.228-3.074 2.789-4.2 4.567-1.218 1.919-2.28 3.927-3.254 5.974-.384-.192-.794-.192-1.191-.103-1.627.384-3.023 1.152-4.022 2.559a26.854 26.854 0 0 0-2.626 4.515c-.18.474-.077.768.333.845.692.127 1.358.127 1.883-.474.692-.793 1.28-1.637 1.844-2.52.23-.384.538-.575.961-.614l1.204-.166-.102.435c-.32-.064-.64-.102-.859.23-.23.345-.46.69-.666 1.049-.205.358-.128.614.192.87.167.128.398.166.462.396a29.533 29.533 0 0 0-3.177 6.933c-.256.832-.487 1.689-.448 2.572.025.92.512 1.24 1.383.895a5.126 5.126 0 0 0 1.217-.703 27.478 27.478 0 0 0 6.02-6.524l.179.09c.487.268.743.217 1.05-.244.167-.23.295-.473.461-.69.295-.384.32-.742 0-1.126l.359-.256.384 1.407a.826.826 0 0 1-.128.742 40.93 40.93 0 0 0-1.537 2.61c-.371.665-.282 1.279.039 1.893.32.6.666.665 1.127.179 1.152-1.203 2.05-2.584 2.92-3.991.756-1.215 1.025-2.533.948-3.94-.051-.73-.103-1.471-.73-2.008l.256-.333c1.447-1.663 2.818-3.403 4.022-5.245a15.595 15.595 0 0 0 2.254-5.116c.026-.103-.051-.282.077-.346Z" clip-rule="evenodd"/>
  <path fill="#E5E5E4" fill-rule="evenodd" d="M26.067 8.02a3.12 3.12 0 0 0 3.12 3.128 3.127 3.127 0 0 0 3.13-3.114 3.132 3.132 0 0 0-3.099-3.109 3.116 3.116 0 0 0-2.907 1.901 3.12 3.12 0 0 0-.244 1.195Zm-6.75 8.827.103-.422a61.49 61.49 0 0 1 1.614-4.042c.973-2.047 2.036-4.055 3.253-5.974 1.127-1.778 2.472-3.339 4.201-4.554.576-.422.897-.588 1.486-.857a7.093 7.093 0 0 0 3.074 2.776 5 5 0 0 0 2.305.64c-.077.665-.09 1.164-.307 2.123a15.593 15.593 0 0 1-2.254 5.117c-1.217 1.854-2.562 3.581-4.022 5.257l-.256.333c-.987 1.049-1.96 2.123-3.023 3.108l-.359.256c-.512-.205-.896-.588-1.383-.832l-.474-.294c.167-.55.512-.997.743-1.522.282-.64.602-1.28.666-1.996 0-.179.051-.383-.128-.498-.192-.128-.384-.013-.538.09-.5.293-.897.69-1.28 1.112l-1.32 1.586-.576-.358-1.512-1.036" clip-rule="evenodd"/>
  <path fill="#E6E6E5" fill-rule="evenodd" d="M7.635 28.666c-.807 0-1.384.282-1.55.793-.192.601.115 1.28.768 1.74a2.29 2.29 0 0 0 1.46.384c.564 0 .987-.218 1.243-.73.243-.498.038-.933-.256-1.304a2.241 2.241 0 0 0-1.665-.883Zm4.252 4.848c-.679 0-1.32.384-1.473.883-.166.55.128 1.164.73 1.586.52.323 1.137.45 1.742.358.487-.128.96-.333 1.076-.87.128-.511 0-1.01-.423-1.356a2.503 2.503 0 0 0-1.652-.6Zm.679-1.087c.512.32 1.088.205 1.28-.23.257-.589-.204-1.446-.845-1.6-.269-.242-.563-.217-.858-.076a.69.69 0 0 0-.397.716c.064.512.295.96.82 1.19ZM1.884 26.862c2.113-.012 4.226.18 6.25.82a19.859 19.859 0 0 1 7.954 4.47 19.827 19.827 0 0 1 5.11 7.553l.09.282c-.986.077-1.96-.026-2.946-.128A20.033 20.033 0 0 1 8.27 35.68a19.995 19.995 0 0 1-6.385-8.831" clip-rule="evenodd"/>
  <path fill="#CE4646" fill-rule="evenodd" d="M35.338 4.413a5 5 0 0 1-2.305-.64c-1.281-.626-2.306-1.535-3.061-2.775A8.077 8.077 0 0 1 33.379 0c.64-.039 1.127.217 1.396.87.46 1.15.589 2.328.563 3.543Z" clip-rule="evenodd"/>
  <path fill="#CC4544" fill-rule="evenodd" d="M21.032 12.383a61.456 61.456 0 0 0-1.614 4.042l-1.204.166a1.217 1.217 0 0 0-.96.614 19.55 19.55 0 0 1-1.845 2.52c-.512.589-1.191.602-1.883.474-.41-.064-.512-.384-.333-.845.32-.844.769-1.624 1.23-2.404.435-.73.896-1.433 1.409-2.124a6.559 6.559 0 0 1 3.996-2.545c.397-.09.807-.09 1.191.102m4.47 7.956c1.063-.972 2.05-2.046 3.023-3.095.627.537.679 1.279.73 2.008.077 1.407-.192 2.725-.948 3.94-.87 1.407-1.768 2.789-2.92 3.991-.461.486-.807.422-1.127-.179-.32-.627-.41-1.228-.039-1.893.487-.896.987-1.765 1.537-2.61a.842.842 0 0 0 .128-.755l-.384-1.407Z" clip-rule="evenodd"/>
  <path fill="#FBD44C" fill-rule="evenodd" d="M23.44 22.591a27.478 27.478 0 0 1-6.02 6.511c-.371.29-.78.526-1.217.704-.87.345-1.357.026-1.383-.895-.039-.896.18-1.74.448-2.559a29.39 29.39 0 0 1 3.177-6.946c.256 0 .422.154.576.333-.73.985-1.255 2.072-1.69 3.21-.334.832-.59 1.663-.59 2.559 0 1.177.769 1.637 1.806 1.126.204-.093.4-.2.59-.32a13.744 13.744 0 0 0 3.778-4.08c.205.076.384.191.512.357" clip-rule="evenodd"/>
  <path fill="#CC4544" fill-rule="evenodd" d="M19.022 19.738c-.154-.18-.32-.333-.576-.333-.064-.23-.295-.281-.462-.397-.32-.255-.397-.511-.192-.87.205-.358.436-.703.666-1.048.218-.333.538-.294.859-.23l1.511 1.036c-.013.09-.013.204-.064.268-.448.576-.781 1.228-1.191 1.842-.192-.064-.32-.256-.551-.268Zm4.419 2.852a1.19 1.19 0 0 0-.525-.358l-.513-.397c.513-.652.948-1.343 1.345-2.059.487.243.884.627 1.383.831.32.384.295.742 0 1.126-.166.218-.294.46-.46.69-.308.461-.564.513-1.05.244-.052-.039-.129-.051-.18-.077Z" clip-rule="evenodd"/>
  <path fill="#28353E" fill-rule="evenodd" d="M29.216 6.167a1.86 1.86 0 0 0-1.908 1.854c0 1.05.82 1.88 1.857 1.894a1.885 1.885 0 0 0 1.883-1.842c.026-1.024-.82-1.894-1.845-1.906h.013Zm-3.15 1.854c0-1.726 1.408-3.108 3.15-3.095 1.704 0 3.1 1.407 3.1 3.108a3.118 3.118 0 0 1-1.941 2.876 3.128 3.128 0 0 1-4.077-1.706 3.117 3.117 0 0 1-.232-1.195" clip-rule="evenodd"/>
  <path fill="#CD4645" fill-rule="evenodd" d="m21.417 18.253 1.32-1.586c.384-.422.78-.819 1.28-1.113.154-.102.346-.217.538-.09.18.129.128.32.128.5-.064.716-.384 1.343-.666 1.995-.217.512-.576.972-.742 1.522-.474.563-.795 1.216-1.217 1.817-.052.077-.039.179-.064.281-.192 0-.282.154-.384.282-.513.729-1.115 1.368-1.755 1.982a2.241 2.241 0 0 1-.68.474c-.358.14-.511.038-.511-.358-.026-.474.153-.909.32-1.356.294-.78.743-1.497 1.088-2.265l1.332-2.085" clip-rule="evenodd"/>
  <path fill="#C04140" fill-rule="evenodd" d="m21.417 18.254-1.358 2.085c-.166-.128-.333-.23-.5-.333.41-.614.743-1.266 1.192-1.842.051-.064.051-.179.064-.256l.576.346m.602 3.325c.026-.102.013-.204.064-.281.423-.601.743-1.254 1.217-1.816l.474.294a15.673 15.673 0 0 1-1.345 2.047c-.128-.064-.295-.128-.41-.256" clip-rule="evenodd"/>
  <path fill="#CACAC6" fill-rule="evenodd" d="M7.635 28.666c.68.051 1.255.345 1.665.883.295.383.5.806.256 1.304-.256.512-.678.742-1.242.73-.243-.103-.5-.18-.704-.32-.82-.576-1.14-1.177-.871-1.855.166-.435.563-.537.896-.742Zm4.253 4.848a2.427 2.427 0 0 1 1.652.588c.41.346.538.845.423 1.357-.129.537-.59.729-1.076.87-.602-.167-1.179-.359-1.576-.883-.294-.358-.397-.73-.256-1.177.14-.435.538-.537.833-.768m1.114-2.929c.64.166 1.101 1.023.845 1.612-.192.435-.768.55-1.28.23.09-.18-.129-.205-.18-.307-.192-.333-.333-.678-.18-1.049.142-.332.41-.512.795-.473" clip-rule="evenodd"/>
  <path fill="#B2B1B1" fill-rule="evenodd" d="M7.635 28.666c-.333.205-.73.308-.897.742-.269.678.051 1.28.871 1.855.205.141.461.218.705.32a2.27 2.27 0 0 1-1.46-.384c-.654-.447-.961-1.138-.77-1.74.167-.511.744-.805 1.55-.793Zm4.252 4.849c-.295.217-.692.32-.82.754-.153.448-.051.819.244 1.177.397.525.973.717 1.575.883a2.564 2.564 0 0 1-1.742-.358c-.602-.422-.896-1.036-.73-1.586.154-.5.794-.883 1.473-.883m1.114-2.93c-.384-.012-.64.154-.794.487-.154.383-.013.716.18 1.049.05.102.256.128.179.306-.525-.23-.769-.665-.82-1.19a.688.688 0 0 1 .397-.715c.295-.141.59-.167.858.076" clip-rule="evenodd"/>
  <path fill="#EDA940" fill-rule="evenodd" d="M21.992 21.58c.115.128.269.18.41.256l.512.397c-1.024 1.586-2.203 3.019-3.778 4.093a4.626 4.626 0 0 1-.59.307c-1.05.512-1.793.051-1.793-1.113-.012-.895.256-1.74.577-2.571.435-1.138.96-2.226 1.69-3.21.231 0 .36.204.551.255l.5.346c-.346.767-.794 1.483-1.089 2.264-.166.447-.346.882-.333 1.356.013.396.166.511.525.358a2.31 2.31 0 0 0 .679-.474c.64-.614 1.255-1.253 1.755-1.982.102-.128.192-.282.384-.282Z" clip-rule="evenodd"/>
  <path fill="#C5E3F1" fill-rule="evenodd" d="M29.215 6.164c1.025.013 1.87.896 1.845 1.919a1.883 1.883 0 0 1-1.883 1.83 1.858 1.858 0 0 1-1.857-1.894c0-1.036.845-1.868 1.895-1.855Z" clip-rule="evenodd"/>
  <path fill="#EAC647" fill-rule="evenodd" d="M8.378 8.135c.577-.09.91-.384 1.012-.985.128.55.397.895 1 .972-.564.115-.897.422-.987.998-.128-.576-.423-.908-1.025-.985Zm6.225 2.226c.564-.09.897-.384.999-.985.128.537.41.895 1 .972-.564.115-.898.41-.974.997-.128-.575-.436-.908-1.025-.985ZM4.356 17.23c.577-.103.897-.384 1.012-.985.116.537.397.895 1 .972-.577.115-.897.41-.987.985-.128-.563-.435-.896-1.025-.972Zm4.38 5.628c.564-.09.897-.384 1-.985.115.55.397.896.999.972-.576.116-.897.422-.986.998-.128-.576-.436-.908-1.025-.985m16.535 10.195c.564-.09.897-.383 1-.985.128.55.41.896 1.011.972-.576.116-.896.423-.986.998-.128-.575-.435-.908-1.025-.985Zm10.695-7.125c.564-.102.897-.384 1-.985.127.537.41.896.998.972-.563.103-.896.41-.973.985-.128-.575-.436-.895-1.025-.972ZM35.34 15.17c.576-.09.909-.383 1.011-.985.128.538.397.896 1 .973-.577.115-.897.409-.987.997-.128-.575-.435-.908-1.024-.985ZM19.88 3.798c.576-.09.91-.383 1.012-.972.128.537.397.896.999.972-.564.103-.897.41-.986.985-.128-.575-.423-.895-1.025-.985Z" clip-rule="evenodd"/>
</svg>
