<svg xmlns="http://www.w3.org/2000/svg" fill="none" viewBox="0 0 39 40">
  <path fill="url(#a)" d="M26.303 14.874a7.794 7.794 0 0 0-10.942 0c-3.025 3.04-2.97 7.987.035 11.027 3.005 3.04 7.932 3.074 10.957.034.05-.05.262-.277.648-.688l-3.639-3.674c-.361.446-.579.674-.599.674a2.63 2.63 0 0 1-3.723 0c-1.03-1.03-1.03-2.713-.035-3.724.996-.995 2.664-.995 3.704.035 0 0 3.258 3.258 9.753 9.788-2.673 3.877-7.154 6.328-11.976 6.328-7.986 0-14.477-6.545-14.477-14.63 0-8.086 6.496-14.621 14.477-14.621a14.31 14.31 0 0 1 11.605 5.921c-.43.495-1.525 1.753-3.292 3.773l3.604 3.604 5.971-6.763C35.264 4.923 28.294.254 20.466.254 9.638.254.845 9.13.845 20.054c0 10.922 8.773 19.819 19.621 19.819 4.926 0 9.011-1.56 12.997-4.976 3.619-3.09 5.337-7.387 5.337-7.387L26.303 14.874Z"/>
  <defs>
    <linearGradient id="a" x1="38.798" x2=".845" y1="20.06" y2="20.06" gradientUnits="userSpaceOnUse">
      <stop stop-color="#22E6B8"/>
      <stop offset="1" stop-color="#00C1CE"/>
    </linearGradient>
  </defs>
</svg>
