<svg xmlns="http://www.w3.org/2000/svg" fill="none" viewBox="0 0 40 40">
  <path fill="#12D078" fill-rule="evenodd" d="M18.558 32.559c-.298.268-.61.52-.935.754-.643.485-1.325.917-2.038 1.29a17.356 17.356 0 0 1-4.506 1.586c-.392.09-.755.143-1.177.219l-.589.075h-.596l-.604.06-.604.174H6.325a32.485 32.485 0 0 1-3.51-.158l.4-.597c.377-.586.715-1.196 1.011-1.826a24.906 24.906 0 0 0 1.366-3.849 36.37 36.37 0 0 1 1.23-3.774 35.473 35.473 0 0 1 1.63-3.63 16.615 16.615 0 0 0-1.207 1.608c-.377.558-.754 1.14-1.041 1.728a26.418 26.418 0 0 0-1.69 3.706 32.457 32.457 0 0 1-1.51 3.577 18.116 18.116 0 0 1-2.166 3.215L0 37.713l1.343.197c1.671.248 3.36.349 5.05.302.422 0 .845 0 1.267-.076l.604-.06.634-.083c.423-.053.845-.144 1.253-.22.415-.075.838-.18 1.245-.309l1.215-.385c.408-.135.8-.309 1.185-.49a14.6 14.6 0 0 0 2.25-1.253 12.077 12.077 0 0 0 1.886-1.638 8.452 8.452 0 0 0 1.464-2.045 7.55 7.55 0 0 1-.838.906Zm9.299-22.506a2.483 2.483 0 0 1 4.196 1.283 2.505 2.505 0 0 1-1.057 2.566 2.482 2.482 0 0 1-3.683-1.132 2.505 2.505 0 0 1 .544-2.717Zm1.758 5.804a3.954 3.954 0 0 0 2.83-1.185 4.03 4.03 0 0 0 .287-5.411 4 4 0 0 0-5.336-.8 4 4 0 0 0-1.313 1.449 4.046 4.046 0 0 0-.475 1.902 4.045 4.045 0 0 0 1.17 2.852 4.014 4.014 0 0 0 2.837 1.185v.008Zm1.208 5.766c-5.736 5.08-8.129 5.562-10.529 4.453l2.597-3.299a4.19 4.19 0 0 0 .8-1.652l1.049-4.393-4.37 1.057a4.151 4.151 0 0 0-1.646.815l-3.275 2.604c-1.11-2.385-.626-4.793 4.415-10.566 4.77-5.45 14.853-6.702 17.842-6.959-.257 3.004-1.495 13.155-6.89 17.94h.007Zm-3.85 7.871a.944.944 0 0 1-.392.604c-.611.415-1.51.997-2.362 1.51.01-.054.022-.107.038-.159.407-1.585.4-2.807 0-3.645a13.545 13.545 0 0 0 3.554-1.864c-.294 1.23-.671 2.694-.845 3.554h.008Zm-9.086-2.845a1.683 1.683 0 0 1-1.42.65h-1.32l4.506-5.472-5.434 4.528v-1.313a1.72 1.72 0 0 1 .649-1.434l4.785-3.812a2.64 2.64 0 0 1 1.049-.513l1.955-.468-.468 1.962a2.68 2.68 0 0 1-.521 1.057l-3.774 4.815h-.007Zm-7.774-9.434-.15.038c.49-.83 1.071-1.766 1.501-2.37a.95.95 0 0 1 .596-.4c.853-.173 2.31-.543 3.532-.868a13.431 13.431 0 0 0-1.841 3.608c-.845-.408-2.06-.408-3.638-.008ZM38.491 2.091c-.559 0-13.736.634-19.774 7.547a52.8 52.8 0 0 0-1.668 2c-.875.241-3.947 1.08-5.306 1.35a2.48 2.48 0 0 0-1.547 1.035c-.928 1.35-2.536 4.136-2.611 4.249l-1.162 2.015 2.128-.928c1.404-.604 3.758-1.238 4.581-.717a.672.672 0 0 1 .302.619 6.64 6.64 0 0 0 .755 2.928l-.295.226a3.245 3.245 0 0 0-1.207 2.695v3.773h3.698a3.222 3.222 0 0 0 2.68-1.23l.226-.294a6.415 6.415 0 0 0 2.913.754.679.679 0 0 1 .619.302c.505.846-.114 3.2-.755 4.604l-.868 2.143 2.008-1.184c.12-.068 2.883-1.691 4.226-2.62a2.49 2.49 0 0 0 1.034-1.562c.264-1.366 1.102-4.452 1.343-5.335a59.976 59.976 0 0 0 1.985-1.683c6.868-6.038 7.464-19.33 7.517-19.888l.038-.83-.86.03Z" clip-rule="evenodd"/>
</svg>
