<svg width="124" height="124" viewBox="0 0 32.808 32.808" xml:space="preserve" xmlns="http://www.w3.org/2000/svg">
  <rect width="32.808" height="32.808" fill="#1f2348" rx="7.946"/>
  <path fill="#fff" d="m21.984 10.056-2.382-4.142a.955.955 0 0 0-.826-.477h-4.765a.95.95 0 0 0-.824.477l-2.383 4.142a.96.96 0 0 0 0 .956l2.383 4.142a.95.95 0 0 0 .824.478h4.765a.95.95 0 0 0 .824-.478l2.383-4.142a.956.956 0 0 0 .001-.956zM8.818 25.425V19.38h2.684c.663 0 1.169.16 1.517.48.35.32.524.76.524 1.32 0 .555-.175.995-.524 1.321-.348.326-.854.49-1.517.49H9.924v2.434zm1.106-3.31h1.45c.365 0 .64-.08.822-.24.183-.165.275-.397.275-.694 0-.297-.092-.526-.275-.686-.183-.166-.457-.249-.823-.249H9.924Zm5.992 3.396c-.377 0-.709-.089-.995-.266a1.832 1.832 0 0 1-.668-.78c-.16-.337-.24-.74-.24-1.21 0-.468.08-.868.24-1.2.16-.337.383-.594.668-.771.286-.183.618-.275.995-.275.366 0 .686.092.96.275.28.177.466.417.558.72h-.095l.095-.909h1.029l-.052.54a8.663 8.663 0 0 0-.017.54v3.25h-1.063l-.009-.891h.103a1.265 1.265 0 0 1-.557.711c-.28.177-.598.266-.952.266zm.3-.823c.337 0 .609-.117.815-.352.206-.24.308-.6.308-1.08 0-.48-.102-.838-.308-1.072-.206-.234-.478-.352-.815-.352-.337 0-.609.118-.814.352-.206.234-.31.592-.31 1.072 0 .48.1.84.301 1.08.206.235.48.352.823.352zm3.599 2.684-.25-.85c.27-.056.495-.122.678-.196.183-.075.335-.172.455-.292s.22-.274.3-.463l.214-.506-.025.42-1.887-4.39h1.14l1.355 3.379h-.248l1.363-3.379h1.08l-1.972 4.57a3.488 3.488 0 0 1-.428.764 2.143 2.143 0 0 1-1.08.78 4.588 4.588 0 0 1-.695.163z"/>
</svg>
