<svg xmlns="http://www.w3.org/2000/svg" viewBox="0 0 984 368">
    <g fill-rule="evenodd" clip-rule="evenodd" enable-background="new" fill="currentColor">
        <path
            d="M400.74 83.03c.08.85-1.1 1.61-2.46 1.78-1.36.08-2.54-.42-2.46-1.36-.08-.85 1.1-1.69 2.46-1.78 1.36 0 2.54.59 2.46 1.36zM393.71 87.85c.08.85-1.1 1.69-2.46 1.78-1.36.17-2.54-.42-2.46-1.27.08-.93 1.1-1.69 2.46-1.78 1.36-.17 2.54.43 2.46 1.27zM379.65 89.29c-.08.93-1.1 1.69-2.46 1.78-1.35.17-2.54-.42-2.46-1.27 0-.93 1.02-1.69 2.46-1.86 1.36-.09 2.37.51 2.46 1.35zM386.68 88.53c-.08.93-1.1 1.69-2.46 1.78-1.35.17-2.54-.42-2.46-1.27.08-.93 1.1-1.69 2.46-1.78 1.27-.17 2.46.42 2.46 1.27zM393.79 83.87c.08.85-1.1 1.69-2.46 1.78-1.36.17-2.54-.42-2.46-1.27.08-.93 1.1-1.69 2.46-1.78 1.36-.17 2.38.43 2.46 1.27zM379.65 85.31c-.08.93-1.1 1.69-2.46 1.78-1.35.17-2.54-.42-2.46-1.27 0-.93 1.1-1.69 2.46-1.86 1.36-.09 2.54.42 2.46 1.35zM373.21 85.99c0 .93-1.02 1.69-2.46 1.86-1.36.17-2.37-.42-2.54-1.27 0-.93 1.02-1.69 2.46-1.86s2.45.42 2.54 1.27zM386.68 84.55c-.08.93-1.1 1.69-2.46 1.78-1.35.17-2.54-.42-2.46-1.27.08-.93 1.1-1.69 2.46-1.78 1.27-.17 2.46.42 2.46 1.27zM400.66 78.45c.08.85-1.1 1.61-2.46 1.78-1.36.08-2.54-.42-2.46-1.36-.08-.85 1.1-1.69 2.46-1.78 1.35-.08 2.46.51 2.46 1.36zM407.77 77.86c.09.85-1.1 1.61-2.46 1.78-1.35.08-2.54-.42-2.46-1.36-.08-.85 1.1-1.61 2.46-1.78 1.36-.08 2.38.6 2.46 1.36zM400.49 74.3c.08.85-1.1 1.61-2.46 1.78-1.35.08-2.37-.42-2.46-1.36-.08-.85 1.1-1.69 2.46-1.78 1.44 0 2.54.51 2.46 1.36zM407.69 73.62c.08.85-1.1 1.61-2.37 1.78-1.35.08-2.54-.42-2.46-1.36-.08-.85 1.1-1.61 2.37-1.78 1.27.09 2.46.6 2.46 1.36zM414.38 73.11c.08.85-1.02 1.61-2.37 1.69-1.36.08-2.54-.42-2.46-1.36-.08-.85 1.1-1.61 2.37-1.78 1.36.1 2.54.69 2.46 1.45zM421.58 72.69c.08.85-1.02 1.61-2.37 1.69s-2.54-.51-2.46-1.36c-.08-.85 1.02-1.61 2.37-1.69 1.19-.08 2.37.51 2.46 1.36zM400.57 70.15c.08.85-1.1 1.61-2.37 1.78-1.36.08-2.46-.42-2.46-1.36-.08-.85 1.1-1.69 2.37-1.78 1.19-.08 2.38.51 2.46 1.36zM407.52 69.56c.08.85-1.1 1.61-2.37 1.78-1.36.08-2.37-.42-2.46-1.36-.09-.85 1.1-1.61 2.37-1.78 1.36-.08 2.54.51 2.46 1.36zM414.29 69.05c.08.85-1.02 1.61-2.37 1.69s-2.37-.51-2.46-1.36c-.08-.85 1.02-1.61 2.37-1.78 1.28.01 2.38.6 2.46 1.45zM421.41 68.54c.09.85-1.02 1.61-2.37 1.69-1.36.08-2.37-.51-2.46-1.36-.08-.85 1.02-1.61 2.37-1.69 1.19-.17 2.37.43 2.46 1.36zM400.49 66c.08.85-1.1 1.61-2.37 1.78-1.36.08-2.46-.42-2.54-1.36-.08-.85 1.1-1.69 2.37-1.78 1.43-.08 2.45.43 2.54 1.36zM393.37 66.59c.09.85-1.1 1.69-2.37 1.78-1.36.17-2.46-.42-2.54-1.27.08-.93 1.1-1.69 2.37-1.78 1.44-.17 2.63.42 2.54 1.27zM386.51 54.22c-.08.93-1.1 1.69-2.37 1.78-1.27.17-2.46-.42-2.37-1.27.08-.93 1.1-1.69 2.37-1.78 1.44-.17 2.45.34 2.37 1.27zM379.65 54.9c-.08.93-1.1 1.69-2.37 1.78-1.27.17-2.46-.42-2.37-1.27.08-.93 1.1-1.69 2.37-1.78 1.35-.17 2.45.42 2.37 1.27zM400.23 57.02c.08.85-1.1 1.61-2.37 1.78-1.44.08-2.46-.42-2.37-1.36-.08-.85 1.1-1.69 2.37-1.78 1.27 0 2.46.6 2.37 1.36zM393.29 57.7c.08.85-1.1 1.69-2.37 1.78-1.44.17-2.46-.42-2.37-1.36.08-.93 1.1-1.69 2.37-1.78 1.35 0 2.37.51 2.37 1.36zM379.39 59.05c-.08.93-1.1 1.69-2.37 1.78-1.44.17-2.46-.42-2.37-1.27.08-.93 1.1-1.69 2.37-1.78 1.36-.17 2.46.51 2.37 1.27zM407.43 65.4c.08.85-1.02 1.61-2.37 1.78-1.35.08-2.46-.42-2.46-1.36-.08-.85 1.1-1.61 2.37-1.78 1.36-.16 2.55.52 2.46 1.36zM414.12 64.81c.09.85-1.02 1.61-2.37 1.69-1.36.08-2.46-.51-2.46-1.36-.08-.85 1.02-1.61 2.37-1.78 1.36.01 2.38.69 2.46 1.45zM421.24 64.3c.09.85-1.02 1.61-2.37 1.69-1.36.08-2.46-.51-2.46-1.36-.08-.85 1.02-1.61 2.37-1.69 1.28.01 2.38.6 2.46 1.36zM407.35 61.09c.08.85-1.02 1.61-2.37 1.78-1.36.08-2.46-.42-2.54-1.36-.09-.85 1.02-1.61 2.37-1.78 1.44-.09 2.45.42 2.54 1.36zM393.88 49.06c.09.85-1.1 1.69-2.37 1.78-1.27.08-2.46-.42-2.37-1.36.08-.93 1.1-1.69 2.37-1.78 1.27 0 2.28.59 2.37 1.36zM400.15 52.95c.08.85-1.02 1.61-2.37 1.78-1.27.08-2.46-.42-2.37-1.36-.09-.85 1.02-1.61 2.37-1.78 1.27-.08 2.37.43 2.37 1.36zM413.95 60.58c.08.85-1.02 1.61-2.37 1.69-1.35.08-2.46-.51-2.46-1.36-.08-.85 1.02-1.61 2.37-1.78 1.36-.08 2.55.51 2.46 1.45zM421.07 60.07c.08.85-1.02 1.61-2.37 1.69-1.36.08-2.46-.51-2.46-1.36-.08-.85 1.02-1.61 2.37-1.69 1.36-.17 2.38.43 2.46 1.36zM393.62 79.38c.09.85-1.1 1.69-2.46 1.78-1.36.17-2.54-.42-2.46-1.27.09-.93 1.1-1.69 2.46-1.78 1.36-.25 2.55.34 2.46 1.27zM379.56 80.65c-.08.93-1.1 1.69-2.46 1.78-1.36.17-2.37-.42-2.54-1.27 0-.93 1.1-1.69 2.46-1.86 1.61 0 2.63.59 2.54 1.35zM386.59 80.06c-.09.93-1.1 1.69-2.46 1.78-1.36.17-2.37-.42-2.46-1.27.08-.93 1.1-1.69 2.46-1.78 1.36-.17 2.55.34 2.46 1.27zM379.56 76.84c-.08.93-1.1 1.69-2.46 1.78-1.36.17-2.37-.42-2.54-1.27 0-.93 1.1-1.69 2.46-1.86 1.61.08 2.63.59 2.54 1.35zM386.68 76.25c-.08.93-1.1 1.69-2.46 1.78-1.36.17-2.37-.42-2.54-1.27.08-.93 1.1-1.69 2.46-1.78 1.35-.17 2.45.42 2.54 1.27zM450.64 79.64c0 .85-1.02 1.61-2.37 1.69-1.36.08-2.54-.51-2.54-1.44-.08-.85 1.02-1.61 2.37-1.69 1.35-.09 2.45.51 2.54 1.44zM443.18 84.64c.09.85-1.02 1.61-2.37 1.69-1.36.08-2.46-.51-2.54-1.44-.08-.85 1.02-1.61 2.37-1.69 1.36-.09 2.46.59 2.54 1.44zM429.04 80.91c.08.85-1.02 1.61-2.37 1.69-1.36.08-2.54-.51-2.54-1.36-.08-.85 1.02-1.61 2.37-1.69s2.45.51 2.54 1.36zM464.36 74.64c0 .85-1.02 1.61-2.29 1.61-1.36.08-2.54-.59-2.54-1.44s1.02-1.61 2.29-1.61c1.35.08 2.46.68 2.54 1.44zM464.78 79.04c0 .85-1.02 1.61-2.46 1.61-1.36.08-2.46-.59-2.54-1.44 0-.85 1.02-1.61 2.46-1.61 1.19-.08 2.46.6 2.54 1.44zM471.48 74.38c0 .85-.93 1.61-2.29 1.61-1.36 0-2.54-.59-2.54-1.44s.93-1.61 2.29-1.61c1.43.09 2.54.68 2.54 1.44zM478.59 74.38c0 .85-.93 1.52-2.29 1.61-1.35 0-2.46-.59-2.63-1.44 0-.85.93-1.61 2.29-1.61 1.28-.08 2.55.51 2.63 1.44zM472.32 83.19c0 .85-1.02 1.61-2.46 1.61-1.35 0-2.46-.59-2.63-1.44 0-.85 1.02-1.61 2.46-1.61 1.36-.08 2.46.6 2.63 1.44zM479.78 87.35c0 .85-.93 1.52-2.46 1.61-1.36 0-2.63-.59-2.63-1.44s1.02-1.61 2.46-1.61c1.36-.09 2.54.67 2.63 1.44zM485.62 74.22c0 .85-.93 1.52-2.29 1.61-1.36 0-2.46-.59-2.63-1.52 0-.85.93-1.52 2.29-1.61 1.36-.01 2.55.58 2.63 1.52zM486.05 78.54c0 .85-.93 1.52-2.29 1.61-1.36 0-2.46-.59-2.63-1.52 0-.85.93-1.52 2.29-1.61 1.36-.01 2.54.67 2.63 1.52zM493.08 78.37c.17.85-.93 1.52-2.29 1.61-1.36 0-2.46-.59-2.63-1.52-.17-.85.93-1.52 2.29-1.61 1.36.16 2.46.75 2.63 1.52zM499.69 74.05c.17.85-.93 1.52-2.37 1.52-1.36 0-2.46-.68-2.63-1.52-.17-.85.93-1.52 2.37-1.52 1.35-.01 2.63.67 2.63 1.52zM500.28 78.37c.17.85-.93 1.52-2.29 1.52-1.36 0-2.63-.68-2.63-1.52-.17-.85.93-1.52 2.29-1.52 1.19.08 2.46.75 2.63 1.52zM506.89 74.05c.17.85-.93 1.52-2.37 1.52-1.36 0-2.63-.68-2.63-1.52-.17-.85.93-1.52 2.37-1.52 1.36-.01 2.46.67 2.63 1.52zM507.39 78.37c.17.85-.93 1.52-2.37 1.52-1.36 0-2.63-.68-2.63-1.52-.17-.85.93-1.52 2.37-1.52 1.45-.09 2.47.75 2.63 1.52zM486.39 82.94c0 .85-.93 1.52-2.29 1.61-1.35 0-2.63-.59-2.63-1.52 0-.85.93-1.52 2.29-1.61 1.44 0 2.63.59 2.63 1.52zM493.59 82.77c.17.85-.93 1.52-2.29 1.61-1.35 0-2.63-.59-2.63-1.52-.17-.85.93-1.52 2.29-1.61 1.35 0 2.46.67 2.63 1.52zM500.7 82.77c.17.85-.93 1.52-2.29 1.52-1.36 0-2.63-.68-2.63-1.52-.17-.85.93-1.52 2.29-1.52 1.36 0 2.46.59 2.63 1.52zM507.9 82.77c.17.85-.93 1.52-2.37 1.52-1.36 0-2.63-.68-2.63-1.52-.17-.85.93-1.52 2.37-1.52 1.28 0 2.55.59 2.63 1.52zM449.7 66.76c0 .85-1.02 1.61-2.29 1.69-1.36.08-2.54-.51-2.54-1.44-.08-.85 1.02-1.61 2.29-1.69 1.36-.08 2.54.51 2.54 1.44zM450.04 71.17c0 .85-1.02 1.61-2.46 1.69-1.36.08-2.54-.51-2.54-1.44-.08-.85 1.02-1.61 2.46-1.69 1.36-.09 2.54.5 2.54 1.44zM456.65 66.42c0 .85-1.02 1.61-2.29 1.61-1.36.08-2.54-.59-2.54-1.44s1.02-1.61 2.29-1.61c1.36-.08 2.54.68 2.54 1.44zM456.99 70.83c0 .85-1.02 1.61-2.29 1.61-1.36.08-2.54-.59-2.54-1.44s1.02-1.61 2.29-1.61c1.36-.09 2.54.59 2.54 1.44zM463.77 66.17c0 .85-.93 1.61-2.29 1.61-1.36.08-2.54-.59-2.54-1.44s1.02-1.61 2.29-1.61c1.18-.09 2.54.68 2.54 1.44zM464.02 70.57c0 .85-1.02 1.61-2.29 1.61-1.36.08-2.54-.59-2.54-1.44s1.02-1.61 2.29-1.61c1.44-.08 2.54.6 2.54 1.44zM470.88 65.91c0 .85-.93 1.61-2.29 1.61-1.36.08-2.54-.59-2.54-1.44s.93-1.61 2.29-1.61c1.19.09 2.37.68 2.54 1.44zM471.22 70.32c0 .85-.93 1.61-2.29 1.61-1.36.08-2.54-.59-2.54-1.44s.93-1.61 2.29-1.61c1.27-.09 2.37.59 2.54 1.44zM477.83 65.74c0 .85-.93 1.52-2.29 1.61-1.36 0-2.54-.59-2.54-1.44s.93-1.61 2.29-1.61c1.18.09 2.37.68 2.54 1.44zM478.17 70.15c0 .85-.93 1.52-2.29 1.61-1.36 0-2.54-.59-2.54-1.44s.93-1.61 2.29-1.61c1.27-.09 2.54.59 2.54 1.44zM484.78 65.57c0 .85-.93 1.52-2.37 1.61-1.35 0-2.54-.59-2.54-1.52 0-.85.93-1.52 2.37-1.61 1.27.17 2.54.76 2.54 1.52zM485.28 69.98c0 .85-.93 1.52-2.29 1.61-1.36 0-2.54-.59-2.63-1.52 0-.85.93-1.52 2.29-1.61 1.36.08 2.47.67 2.63 1.52zM498.84 65.57c.17.85-.93 1.52-2.37 1.52-1.35 0-2.54-.68-2.63-1.52-.17-.85.93-1.52 2.37-1.52 1.36 0 2.46.59 2.63 1.52zM449.2 57.87c0 .85-1.02 1.61-2.29 1.69-1.36.08-2.37-.51-2.63-1.44-.08-.85 1.02-1.61 2.29-1.69 1.44 0 2.54.59 2.63 1.44zM449.54 62.19c0 .85-1.02 1.61-2.29 1.69-1.36.08-2.54-.51-2.63-1.44-.08-.85 1.02-1.61 2.29-1.69 1.44 0 2.46.59 2.63 1.44zM456.06 57.53c0 .85-.93 1.61-2.29 1.61-1.44.08-2.54-.51-2.63-1.44 0-.85.93-1.61 2.29-1.61 1.44.08 2.54.67 2.63 1.44zM456.31 61.93c0 .85-1.02 1.61-2.29 1.61-1.35.08-2.54-.51-2.54-1.44 0-.85 1.02-1.61 2.29-1.61 1.36-.08 2.54.51 2.54 1.44zM463 57.27c0 .85-.93 1.61-2.29 1.61-1.44.08-2.54-.59-2.54-1.44s.93-1.61 2.29-1.61 2.54.68 2.54 1.44zM463.34 61.68c0 .85-.93 1.61-2.29 1.61-1.36.08-2.54-.59-2.54-1.44s.93-1.61 2.29-1.61c1.36-.09 2.46.51 2.54 1.44zM470.04 57.02c0 .85-.93 1.61-2.37 1.61-1.44.08-2.54-.59-2.54-1.44s.93-1.61 2.37-1.61c1.35.08 2.54.68 2.54 1.44zM470.46 61.42c0 .85-.93 1.61-2.29 1.61-1.35.08-2.54-.59-2.54-1.44s.93-1.61 2.29-1.61c1.18-.08 2.46.6 2.54 1.44zM476.9 56.93c0 .85-.93 1.52-2.37 1.61-1.44 0-2.54-.59-2.54-1.44s.93-1.61 2.37-1.61c1.35-.08 2.54.6 2.54 1.44zM477.41 61.25c0 .85-.93 1.52-2.37 1.61-1.36 0-2.54-.59-2.54-1.44s.93-1.61 2.37-1.61c1.27-.08 2.37.68 2.54 1.44zM483.93 56.76c0 .85-.93 1.52-2.37 1.61-1.44 0-2.54-.59-2.54-1.52 0-.85.93-1.52 2.37-1.61 1.18.08 2.45.68 2.54 1.52zM484.44 61.08c0 .85-.93 1.52-2.37 1.61-1.36 0-2.54-.59-2.54-1.52 0-.85.93-1.52 2.37-1.61 1.18 0 2.37.76 2.54 1.52zM490.79 56.68c.17.85-.93 1.52-2.2 1.61-1.44 0-2.54-.59-2.54-1.52-.17-.85.93-1.52 2.2-1.61 1.35-.01 2.54.67 2.54 1.52zM491.21 61c.17.85-.93 1.52-2.37 1.61-1.36 0-2.54-.59-2.54-1.52-.17-.85.93-1.52 2.37-1.61 1.27.08 2.54.76 2.54 1.52zM497.74 56.68c.17.85-.93 1.52-2.2 1.52-1.44 0-2.54-.68-2.54-1.52-.17-.85.93-1.52 2.2-1.52 1.27-.09 2.45.59 2.54 1.52zM498.24 60.92c.17.85-.93 1.52-2.2 1.52-1.36 0-2.54-.68-2.63-1.52-.17-.85.93-1.52 2.2-1.52 1.36.08 2.63.75 2.63 1.52zM503.75 48.46c.17.85-.85 1.52-2.29 1.52-1.27 0-2.54-.68-2.54-1.52-.17-.85.85-1.52 2.29-1.52 1.27 0 2.46.59 2.54 1.52zM448.86 53.71c0 .85-1.02 1.61-2.29 1.69-1.44.08-2.46-.51-2.46-1.44-.09-.85 1.02-1.61 2.29-1.69 1.36 0 2.37.68 2.46 1.44zM455.72 53.46c0 .85-.93 1.61-2.29 1.61-1.44.08-2.46-.59-2.63-1.44 0-.85.93-1.61 2.29-1.61 1.44-.08 2.63.68 2.63 1.44zM462.75 53.21c0 .85-.93 1.61-2.37 1.61-1.44.08-2.37-.59-2.63-1.44 0-.85.93-1.61 2.37-1.61 1.44-.09 2.46.67 2.63 1.44zM469.61 52.95c0 .85-.93 1.61-2.37 1.61-1.44.08-2.54-.59-2.54-1.44s.93-1.61 2.37-1.61c1.36.09 2.54.68 2.54 1.44zM476.47 52.78c0 .85-.93 1.52-2.37 1.61-1.44 0-2.54-.59-2.54-1.44s.93-1.61 2.37-1.61 2.54.68 2.54 1.44zM483.51 52.61c0 .85-.93 1.52-2.2 1.61-1.44 0-2.54-.59-2.54-1.52 0-.85.93-1.52 2.2-1.61 1.27.08 2.45.76 2.54 1.52zM490.28 52.53c.17.85-.93 1.52-2.2 1.61-1.44 0-2.54-.59-2.54-1.52-.17-.85.93-1.52 2.2-1.61 1.44.08 2.54.76 2.54 1.52zM497.31 52.53c.17.85-.93 1.52-2.2 1.52-1.44 0-2.54-.68-2.54-1.52-.17-.85.93-1.52 2.2-1.52 1.27-.01 2.37.67 2.54 1.52zM448.6 49.48c0 .85-.93 1.61-2.29 1.69-1.27.08-2.46-.51-2.46-1.44-.09-.85 1.02-1.61 2.29-1.69 1.28-.09 2.46.51 2.46 1.44zM455.38 49.14c0 .85-.93 1.61-2.37 1.61-1.27.08-2.46-.59-2.46-1.44s.93-1.61 2.29-1.61c1.35 0 2.54.59 2.54 1.44zM435.81 67.44c.08.85-1.02 1.61-2.37 1.69s-2.54-.51-2.63-1.36 1.02-1.61 2.37-1.69c1.61-.08 2.63.51 2.63 1.36zM436.07 71.76c.08.85-1.02 1.61-2.37 1.69s-2.54-.51-2.63-1.36 1.02-1.61 2.37-1.69c1.44 0 2.63.6 2.63 1.36zM442.76 67.1c.08.85-1.02 1.61-2.46 1.69-1.36.08-2.54-.51-2.63-1.44-.08-.85 1.02-1.61 2.46-1.69 1.61-.09 2.63.51 2.63 1.44zM443.35 75.91c.08.85-1.02 1.61-2.37 1.69-1.36.08-2.54-.51-2.54-1.44-.09-.85 1.02-1.61 2.37-1.69 1.36-.09 2.54.68 2.54 1.44zM435.47 58.54c.09.85-1.02 1.61-2.29 1.69-1.36.08-2.46-.51-2.46-1.36-.08-.85 1.02-1.61 2.29-1.69 1.19-.08 2.38.6 2.46 1.36zM435.73 62.95c.08.85-1.02 1.61-2.46 1.69-1.36.08-2.37-.51-2.46-1.36s1.02-1.61 2.46-1.69c1.19-.08 2.37.51 2.46 1.36zM442.33 58.2c.08.85-1.02 1.61-2.29 1.69-1.35.08-2.37-.51-2.46-1.44-.08-.85 1.02-1.61 2.29-1.69 1.19 0 2.38.6 2.46 1.44zM442.5 62.61c.08.85-1.02 1.61-2.29 1.69-1.36.08-2.54-.51-2.63-1.44-.08-.85 1.02-1.61 2.29-1.69 1.45-.09 2.63.51 2.63 1.44zM435.22 54.48c.09.85-1.02 1.61-2.29 1.69-1.44.08-2.46-.51-2.46-1.36-.08-.85 1.02-1.61 2.29-1.69 1.19-.08 2.37.51 2.46 1.36zM442.08 54.05c.08.85-1.02 1.61-2.29 1.69-1.44.08-2.46-.51-2.46-1.44-.08-.85 1.02-1.61 2.29-1.69 1.27 0 2.38.6 2.46 1.44zM434.97 50.07c.09.85-1.02 1.61-2.29 1.69-1.27.08-2.46-.51-2.46-1.36-.08-.85 1.02-1.61 2.29-1.69 1.35.01 2.37.6 2.46 1.36zM427.76 46.43c.08.85-1.02 1.61-2.29 1.69-1.27.08-2.46-.51-2.54-1.36-.09-.85 1.02-1.61 2.29-1.69 1.44-.17 2.63.43 2.54 1.36zM428.78 67.95c.09.85-1.02 1.61-2.37 1.69-1.36.08-2.54-.51-2.46-1.36-.08-.85 1.02-1.61 2.37-1.69 1.19-.17 2.38.42 2.46 1.36zM428.27 58.97c.09.85-1.02 1.61-2.46 1.69-1.36.08-2.46-.51-2.46-1.36-.08-.85 1.02-1.61 2.46-1.69 1.28-.08 2.46.59 2.46 1.36zM428.44 63.37c.08.85-1.02 1.61-2.37 1.69-1.36.08-2.37-.51-2.46-1.36s1.02-1.61 2.37-1.69c1.36-.08 2.38.51 2.46 1.36zM428.19 54.9c.08.85-1.02 1.61-2.29 1.69-1.44.08-2.46-.51-2.46-1.36-.08-.85 1.02-1.61 2.29-1.69 1.27-.08 2.37.51 2.46 1.36zM421.33 55.32c.08.85-1.02 1.61-2.46 1.69s-2.46-.51-2.46-1.36c-.08-.85 1.02-1.61 2.37-1.69 1.28-.08 2.46.52 2.55 1.36zM414.13 55.92c.08.85-1.02 1.61-2.37 1.69-1.44.08-2.46-.51-2.54-1.36-.08-.85 1.02-1.61 2.37-1.78 1.43-.08 2.54.52 2.54 1.45zM427.93 50.5c.08.85-1.02 1.61-2.29 1.69-1.27.08-2.46-.51-2.46-1.36-.08-.85 1.02-1.61 2.29-1.69 1.36 0 2.38.59 2.46 1.36zM441.83 49.82c.08.85-1.02 1.61-2.29 1.69-1.27.08-2.46-.51-2.46-1.44-.08-.85 1.02-1.61 2.29-1.69 1.27-.09 2.46.51 2.46 1.44zM462.33 48.89c0 .85-.93 1.61-2.37 1.61-1.27.08-2.46-.59-2.63-1.44 0-.85.93-1.61 2.37-1.61 1.44-.09 2.54.59 2.63 1.44zM469.36 48.63c0 .85-.93 1.61-2.37 1.61-1.27 0-2.46-.59-2.63-1.44 0-.85.93-1.61 2.37-1.61 1.27 0 2.46.59 2.63 1.44zM476.13 48.46c0 .85-.93 1.61-2.2 1.61s-2.46-.59-2.54-1.44c0-.85.93-1.61 2.2-1.61 1.36-.08 2.54.6 2.54 1.44zM483.08 48.29c0 .85-.93 1.52-2.2 1.61-1.27 0-2.54-.59-2.54-1.52 0-.85.93-1.52 2.2-1.61 1.36 0 2.46.68 2.54 1.52zM489.94 48.21c.17.85-.93 1.52-2.2 1.61-1.27 0-2.54-.59-2.54-1.52-.17-.85.93-1.52 2.2-1.61 1.27-.01 2.37.67 2.54 1.52zM496.72 48.12c.17.85-1.02 1.52-2.2 1.52-1.27 0-2.54-.68-2.54-1.52-.17-.85.93-1.52 2.2-1.61 1.44.09 2.54.77 2.54 1.61zM511.88 56.85c.17.85-.85 1.52-2.29 1.52s-2.54-.68-2.63-1.52c-.17-.85.85-1.52 2.29-1.52 1.45-.01 2.55.67 2.63 1.52zM511.38 52.7c.17.85-.85 1.52-2.29 1.52s-2.54-.68-2.63-1.52c-.17-.85.85-1.52 2.29-1.52 1.35.08 2.46.67 2.63 1.52zM504.77 56.85c.17.85-.85 1.52-2.2 1.52-1.44 0-2.54-.68-2.63-1.52-.17-.85 1.02-1.52 2.2-1.52 1.36-.01 2.63.59 2.63 1.52zM505.36 61.51c.17.85-1.02 1.52-2.2 1.52-1.36 0-2.54-.68-2.63-1.52-.17-.85.93-1.52 2.2-1.52 1.36-.09 2.63.59 2.63 1.52zM510.87 48.38c.17.85-.85 1.52-2.29 1.52-1.27 0-2.54-.68-2.54-1.52-.17-.85.85-1.52 2.29-1.52 1.27-.09 2.37.59 2.54 1.52zM461.99 44.74c0 .85-.93 1.61-2.37 1.61-1.27.08-2.46-.59-2.46-1.44s.93-1.61 2.37-1.61c1.27-.09 2.46.5 2.46 1.44zM468.93 44.48c0 .85-.93 1.61-2.2 1.61s-2.46-.59-2.63-1.44c0-.85.93-1.61 2.2-1.61 1.45-.08 2.63.59 2.63 1.44zM475.71 44.31c0 .85-.93 1.61-2.2 1.61s-2.46-.59-2.63-1.44c0-.85.93-1.61 2.2-1.61 1.53-.08 2.63.51 2.63 1.44zM482.66 44.14c0 .85-.93 1.52-2.2 1.61-1.27 0-2.46-.59-2.54-1.52 0-.85.93-1.52 2.2-1.61 1.27 0 2.37.67 2.54 1.52zM489.44 44.06c.17.85-.93 1.52-2.2 1.61-1.27 0-2.37-.59-2.54-1.52-.17-.85.93-1.52 2.2-1.61 1.26-.01 2.45.75 2.54 1.52zM496.3 43.97c.17.85-.85 1.52-2.29 1.52-1.27 0-2.37-.68-2.54-1.52-.17-.85 1.02-1.52 2.29-1.61 1.35.09 2.54.85 2.54 1.61zM503.24 43.97c.17.85-.85 1.52-2.29 1.52-1.27 0-2.54-.68-2.54-1.52-.17-.85.85-1.52 2.29-1.52 1.27.08 2.54.68 2.54 1.52zM468.51 40.41c0 .85-.93 1.61-2.2 1.61s-2.46-.59-2.46-1.44.93-1.61 2.2-1.61c1.28-.08 2.46.6 2.46 1.44zM475.37 40.25c0 .85-.93 1.61-2.2 1.61s-2.46-.59-2.63-1.44c0-.85.93-1.61 2.2-1.61 1.45-.09 2.63.5 2.63 1.44zM482.15 40.08c0 .85-.93 1.52-2.2 1.61-1.27 0-2.46-.59-2.63-1.52 0-.85.93-1.52 2.2-1.61 1.53-.01 2.63.67 2.63 1.52zM489.01 39.99c.17.85-.93 1.52-2.29 1.61-1.27 0-2.46-.59-2.54-1.52-.17-.85.93-1.52 2.29-1.61 1.19 0 2.37.59 2.54 1.52zM495.79 39.91c.17.85-.85 1.52-2.29 1.52-1.27 0-2.46-.68-2.54-1.52-.17-.85.85-1.52 2.29-1.61 1.27.08 2.54.67 2.54 1.61zM447.76 36.77c0 .85-.93 1.61-2.37 1.69-1.27.08-2.46-.51-2.54-1.44-.09-.85.93-1.61 2.37-1.69 1.44 0 2.45.68 2.54 1.44zM447.5 32.54c0 .85-.93 1.61-2.2 1.69-1.27.08-2.46-.51-2.54-1.44-.08-.85.93-1.61 2.2-1.69 1.36-.09 2.37.67 2.54 1.44zM434.71 46.01c.09.85-1.02 1.61-2.29 1.69-1.27.08-2.46-.51-2.46-1.36-.08-.85 1.02-1.61 2.29-1.69 1.36-.17 2.38.42 2.46 1.36zM441.66 45.58c.08.85-1.02 1.61-2.29 1.69-1.27.08-2.46-.51-2.46-1.44-.08-.85 1.02-1.61 2.29-1.69 1.19 0 2.29.59 2.46 1.44zM434.63 41.77c.08.85-1.02 1.61-2.29 1.69-1.27.08-2.46-.51-2.54-1.36-.08-.85 1.02-1.61 2.29-1.69 1.27 0 2.45.6 2.54 1.36zM441.32 41.52c.08.85-1.02 1.61-2.29 1.69-1.27.08-2.46-.51-2.46-1.44-.08-.85 1.02-1.61 2.29-1.69 1.36 0 2.37.59 2.46 1.44zM434.37 37.53c.08.85-1.02 1.61-2.29 1.69-1.27.08-2.46-.51-2.54-1.36-.08-.85 1.02-1.61 2.29-1.69 1.27-.16 2.46.43 2.54 1.36zM427.26 33.72c.08.85-1.02 1.61-2.29 1.69-1.27.08-2.29-.51-2.37-1.36s1.02-1.61 2.29-1.69c1.26.01 2.28.6 2.37 1.36zM427.34 37.96c.08.85-1.02 1.61-2.29 1.69-1.27.08-2.46-.51-2.37-1.36-.08-.85 1.02-1.61 2.29-1.69 1.27-.17 2.37.43 2.37 1.36zM420.39 34.23c.08.85-1.02 1.61-2.29 1.69-1.27.08-2.37-.51-2.37-1.36-.09-.85 1.02-1.61 2.29-1.69 1.27.01 2.29.6 2.37 1.36zM420.39 38.38c.08.85-1.02 1.61-2.29 1.69-1.27.08-2.46-.51-2.37-1.36-.09-.85 1.02-1.61 2.29-1.69 1.27-.08 2.46.51 2.37 1.36zM441.06 37.11c.08.85-.93 1.61-2.37 1.69-1.27.08-2.46-.51-2.54-1.44-.09-.85.93-1.61 2.37-1.69 1.44 0 2.46.59 2.54 1.44zM434.12 33.13c.08.85-.93 1.61-2.37 1.69-1.27.08-2.46-.51-2.37-1.44-.08-.85 1.02-1.61 2.37-1.69 1.27-.09 2.28.51 2.37 1.44zM440.81 32.71c.08.85-.93 1.61-2.37 1.69-1.27.08-2.46-.51-2.54-1.44-.08-.85.93-1.61 2.37-1.69 1.35 0 2.54.59 2.54 1.44zM433.86 28.81c.09.85-.93 1.61-2.37 1.69-1.27.08-2.37-.51-2.37-1.44-.08-.85.93-1.61 2.37-1.69 1.27-.09 2.29.59 2.37 1.44zM440.56 28.47c.08.85-.93 1.61-2.2 1.69-1.27.08-2.29-.51-2.37-1.44-.08-.85.93-1.61 2.2-1.69 1.18-.08 2.37.51 2.37 1.44zM440.39 24.15c.08.85-.93 1.61-2.2 1.69-1.27.08-2.37-.51-2.37-1.44-.08-.85.93-1.61 2.2-1.69 1.1-.08 2.28.51 2.37 1.44zM461.31 36.26c0 .85-.93 1.61-2.2 1.61-1.27.08-2.46-.59-2.46-1.44s.93-1.61 2.2-1.61c1.19-.08 2.38.68 2.46 1.44zM468.26 36.01c0 .85-.93 1.61-2.2 1.61s-2.46-.59-2.46-1.44.93-1.61 2.2-1.61 2.29.68 2.46 1.44zM474.95 35.84c0 .85-.93 1.61-2.2 1.61s-2.46-.59-2.46-1.44.93-1.61 2.2-1.61 2.46.68 2.46 1.44zM481.81 35.67c0 .85-.93 1.52-2.29 1.61-1.27 0-2.46-.59-2.63-1.52 0-.85.93-1.61 2.29-1.61 1.28.08 2.46.76 2.63 1.52zM488.5 35.59c.17.85-.85 1.52-2.29 1.61-1.27 0-2.46-.59-2.63-1.52-.17-.85.93-1.52 2.29-1.61 1.45.08 2.46.75 2.63 1.52zM495.36 35.5c.17.85-.85 1.52-2.29 1.52-1.27 0-2.46-.59-2.54-1.52-.17-.85.85-1.52 2.29-1.61 1.27.17 2.38.85 2.54 1.61zM510.28 44.14c.17.85-.85 1.52-2.29 1.52-1.27 0-2.54-.68-2.54-1.52-.17-.85.85-1.52 2.29-1.52 1.26 0 2.45.76 2.54 1.52zM509.77 40.08c.17.85-.85 1.52-2.12 1.52s-2.37-.68-2.54-1.52c-.17-.85.85-1.52 2.12-1.52s2.37.67 2.54 1.52zM509.17 35.67c.17.85-.85 1.52-2.12 1.52s-2.46-.68-2.54-1.52c-.17-.85.85-1.52 2.12-1.52 1.27.08 2.37.76 2.54 1.52zM508.66 31.01c.17.85-.85 1.52-2.12 1.52s-2.46-.68-2.54-1.52c-.17-.85.85-1.52 2.12-1.52 1.19.08 2.37.76 2.54 1.52zM507.9 26.69c.17.85-.85 1.52-2.12 1.52s-2.46-.68-2.63-1.52c-.17-.85.85-1.52 2.12-1.52 1.53 0 2.63.67 2.63 1.52zM507.31 22.46c.17.85-.85 1.52-2.2 1.52-1.27 0-2.46-.68-2.63-1.52-.17-.85.85-1.52 2.2-1.52 1.53-.09 2.71.58 2.63 1.52zM493.67 22.46c.17.85-.85 1.52-2.12 1.52s-2.46-.59-2.46-1.52c0-.85.85-1.52 2.12-1.61 1.11.08 2.29.76 2.46 1.61zM502.9 40.08c.17.85-.85 1.52-2.29 1.52-1.27 0-2.46-.68-2.54-1.52-.17-.85.85-1.52 2.29-1.52 1.27-.01 2.54.67 2.54 1.52zM502.31 35.67c.17.85-.85 1.52-2.12 1.52s-2.46-.68-2.54-1.52c-.17-.85.85-1.52 2.12-1.52 1.44.08 2.54.76 2.54 1.52zM501.89 31.01c.17.85-.85 1.52-2.12 1.52s-2.46-.68-2.54-1.52c-.17-.85.85-1.52 2.12-1.52 1.27.08 2.37.76 2.54 1.52zM494.6 31.1c.17.85-.85 1.52-2.12 1.52s-2.46-.59-2.63-1.52c-.17-.85.85-1.52 2.12-1.61 1.45.17 2.63.84 2.63 1.61zM501.3 26.69c.17.85-.85 1.52-2.12 1.52s-2.46-.68-2.63-1.52c-.17-.85.85-1.52 2.12-1.52 1.36 0 2.46.67 2.63 1.52zM481.3 31.27c0 .85-.93 1.52-2.29 1.61-1.27 0-2.46-.59-2.46-1.52 0-.85.93-1.61 2.29-1.61 1.11-.01 2.29.75 2.46 1.52zM487.99 31.18c.17.85-.85 1.52-2.29 1.61-1.27 0-2.46-.59-2.63-1.52-.17-.85.85-1.52 2.29-1.61 1.36.08 2.47.76 2.63 1.52zM480.79 26.95c0 .85-.85 1.52-2.29 1.61-1.27 0-2.46-.59-2.46-1.52 0-.85.93-1.61 2.29-1.61 1.28-.01 2.46.67 2.46 1.52zM487.49 26.86c.17.85-.85 1.52-2.12 1.61-1.27 0-2.46-.59-2.46-1.52 0-.85.85-1.52 2.12-1.61 1.19 0 2.37.67 2.46 1.52zM467.83 31.6c0 .85-.93 1.61-2.2 1.61s-2.46-.59-2.46-1.44.93-1.61 2.2-1.61c1.28-.08 2.46.68 2.46 1.44zM474.61 31.44c0 .85-.93 1.61-2.29 1.61-1.27 0-2.46-.59-2.46-1.44s.93-1.61 2.29-1.61c1.28-.09 2.38.67 2.46 1.44zM467.41 27.28c0 .85-.93 1.61-2.29 1.61-1.27 0-2.46-.59-2.46-1.44s.93-1.61 2.29-1.61c1.27 0 2.46.6 2.46 1.44zM474.19 27.11c0 .85-.93 1.61-2.29 1.61-1.27 0-2.46-.59-2.46-1.44s.93-1.61 2.29-1.61c1.27-.08 2.46.6 2.46 1.44zM461.14 31.86c0 .85-.93 1.61-2.2 1.61-1.27.08-2.46-.59-2.46-1.44s.93-1.61 2.2-1.61c1.27-.09 2.38.68 2.46 1.44zM460.8 27.54c0 .85-.93 1.61-2.2 1.61-1.27.08-2.46-.59-2.46-1.44s.93-1.61 2.2-1.61c1.28-.09 2.29.59 2.46 1.44zM480.37 22.71c0 .85-.85 1.52-2.12 1.61-1.27 0-2.46-.59-2.46-1.52 0-.85.85-1.52 2.12-1.61 1.28 0 2.29.59 2.46 1.52zM487.06 22.54c.17.85-.85 1.52-2.12 1.61-1.27 0-2.46-.59-2.46-1.52-.17-.85.85-1.52 2.12-1.61 1.28 0 2.29.67 2.46 1.52zM467.16 23.05c0 .85-.93 1.61-2.29 1.61-1.27.08-2.46-.59-2.54-1.44 0-.85.93-1.61 2.29-1.61 1.35-.09 2.37.51 2.54 1.44zM473.76 22.79c0 .85-.93 1.61-2.29 1.61-1.27 0-2.46-.59-2.46-1.44s.93-1.61 2.29-1.61c1.28 0 2.29.6 2.46 1.44zM460.38 23.22c0 .85-.93 1.61-2.2 1.61-1.27.08-2.29-.59-2.54-1.44 0-.85.93-1.61 2.2-1.61 1.44 0 2.54.59 2.54 1.44zM479.86 18.39c0 .85-.85 1.52-2.12 1.61-1.27 0-2.46-.59-2.46-1.52 0-.85.85-1.52 2.12-1.61 1.28.08 2.46.76 2.46 1.52zM486.55 18.3c.17.85-.85 1.52-2.12 1.61-1.27 0-2.46-.59-2.46-1.52-.17-.85.85-1.52 2.12-1.61 1.28.08 2.29.68 2.46 1.52zM466.73 18.73c0 .85-.93 1.61-2.29 1.61-1.27.08-2.37-.59-2.54-1.44 0-.85.93-1.61 2.29-1.61 1.36 0 2.54.68 2.54 1.44zM473.34 18.56c0 .85-.93 1.61-2.12 1.61-1.27 0-2.29-.59-2.54-1.44 0-.85.93-1.61 2.12-1.61 1.35 0 2.37.68 2.54 1.44zM460.04 18.98c0 .85-.93 1.61-2.29 1.61-1.27.08-2.37-.59-2.54-1.44 0-.85.93-1.61 2.29-1.61 1.35 0 2.54.68 2.54 1.44zM453.94 27.79c0 .85-.93 1.61-2.2 1.61-1.27.08-2.46-.59-2.54-1.44 0-.85.93-1.61 2.2-1.61 1.35-.08 2.45.6 2.54 1.44zM453.6 23.47c0 .85-.93 1.61-2.2 1.61-1.27.08-2.37-.59-2.54-1.44 0-.85.93-1.61 2.2-1.61 1.36 0 2.54.6 2.54 1.44zM453.26 19.24c0 .85-.93 1.61-2.29 1.61-1.27.08-2.37-.59-2.37-1.44s.93-1.61 2.2-1.61c1.28 0 2.46.67 2.46 1.44zM447.16 28.13c0 .85-.93 1.61-2.2 1.69-1.27.08-2.46-.51-2.54-1.44-.08-.85.93-1.61 2.2-1.69 1.36-.08 2.54.51 2.54 1.44zM446.99 23.81c0 .85-.93 1.61-2.2 1.69-1.27.08-2.37-.51-2.37-1.44-.08-.85.93-1.61 2.2-1.69 1.1-.08 2.29.59 2.37 1.44zM446.65 19.49c0 .85-.93 1.61-2.2 1.69-1.27.08-2.37-.51-2.37-1.44-.08-.85.93-1.61 2.2-1.69 1.27.09 2.29.68 2.37 1.44zM459.02 6.19c0 .85-.93 1.61-2.12 1.61-1.27.08-2.37-.59-2.37-1.44s.93-1.61 2.12-1.61c1.19-.08 2.37.59 2.37 1.44zM452.33 6.44c0 .85-.93 1.61-2.12 1.61-1.27.08-2.37-.59-2.37-1.44S448.77 5 449.96 5c1.27-.08 2.29.6 2.37 1.44zM458.52 1.45c0 .85-.93 1.61-2.12 1.61-1.36.08-2.37-.59-2.37-1.44s.93-1.61 2.12-1.61c1.35-.09 2.37.67 2.37 1.44zM451.99 1.7c0 .85-.93 1.61-2.12 1.61-1.36.08-2.37-.59-2.37-1.44s.93-1.61 2.12-1.61c1.27 0 2.29.68 2.37 1.44zM445.72 6.78c0 .85-.93 1.61-2.29 1.69-1.27.08-2.37-.51-2.37-1.44-.08-.85.93-1.61 2.29-1.69 1.27-.08 2.37.51 2.37 1.44zM438.69 7.12c.08.85-.93 1.61-2.29 1.69-1.27.08-2.37-.51-2.46-1.44-.08-.85.93-1.61 2.29-1.69 1.36-.08 2.46.51 2.46 1.44zM504.35 52.87c.17.85-.85 1.52-2.29 1.52s-2.54-.68-2.54-1.52c-.17-.85 1.02-1.52 2.2-1.52 1.35-.01 2.46.67 2.63 1.52z" />
    </g>
</svg>
