<svg xmlns="http://www.w3.org/2000/svg" width="65" height="64" fill="none"><g clip-path="url(#a)"><mask id="b" width="64" height="64" x="0" y="0" maskUnits="userSpaceOnUse" style="mask-type:luminance"><path fill="#fff" d="M63.63 0H.62v64h63.01V0Z"/></mask><g mask="url(#b)"><path fill="#1F2348" fill-rule="evenodd" d="M6.45 27.68a20.96 20.96 0 0 1 23.06-5.2 15.63 15.63 0 0 0 1.63-6.98C31.14 6.94 24.31 0 15.88 0A15.38 15.38 0 0 0 .62 15.5c0 4.94 2.28 9.35 5.83 12.18Z" clip-rule="evenodd" opacity=".4"/><path fill="#A4A6B6" fill-rule="evenodd" d="M42.81 39.97a21.35 21.35 0 0 0-18.53-18.82c-.22-3.98.73-7.93 2.73-11.36a19.8 19.8 0 0 1 8.75-7.98 19.42 19.42 0 0 1 22.1 4.05 20.28 20.28 0 0 1 4 22.45A19.9 19.9 0 0 1 54 37.2c-3.38 2.03-7.27 3-11.19 2.77Z" clip-rule="evenodd"/><mask id="c" width="46" height="46" x="21" y="-3" maskUnits="userSpaceOnUse" style="mask-type:luminance"><path fill="#fff" d="M66.59-3h-45.3v46h45.3V-3Z"/><path fill="#000" fill-rule="evenodd" d="M42.81 39.97a21.35 21.35 0 0 0-18.53-18.82c-.22-3.98.73-7.93 2.73-11.36a19.8 19.8 0 0 1 8.75-7.98 19.42 19.42 0 0 1 22.1 4.05 20.28 20.28 0 0 1 4 22.45A19.9 19.9 0 0 1 54 37.2c-3.38 2.03-7.27 3-11.19 2.77Z" clip-rule="evenodd"/></mask><g mask="url(#c)"><path fill="#fff" d="m42.81 39.97-2.93.35a2.97 2.97 0 0 0 2.76 2.64l.17-3ZM24.28 21.15l-2.95.17a2.98 2.98 0 0 0 2.6 2.8l.35-2.97Zm21.47 18.47a24.32 24.32 0 0 0-21.12-21.45l-.7 5.96c8.35 1 14.97 7.72 15.95 16.19l5.87-.7ZM27.23 20.98c-.19-3.38.62-6.74 2.32-9.66l-5.08-3.06a23.29 23.29 0 0 0-3.14 13.06l5.9-.34Zm2.32-9.66a16.83 16.83 0 0 1 7.44-6.78L34.54-.92a22.77 22.77 0 0 0-10.07 9.18l5.08 3.06Zm7.44-6.78a16.5 16.5 0 0 1 9.92-1.27l1.05-5.9a22.33 22.33 0 0 0-13.42 1.7l2.45 5.47Zm9.92-1.27c3.36.62 6.45 2.26 8.87 4.7l4.17-4.23a22.53 22.53 0 0 0-11.99-6.37l-1.05 5.9Zm8.87 4.7a17.09 17.09 0 0 1 4.63 9l5.82-1.06c-.82-4.61-3.01-8.86-6.28-12.17l-4.17 4.24Zm4.63 9c.61 3.42.18 6.94-1.24 10.09l5.37 2.49a23.33 23.33 0 0 0 1.69-13.64l-5.82 1.07Zm-1.24 10.09a16.91 16.91 0 0 1-6.68 7.56l3.01 5.16a22.88 22.88 0 0 0 9.04-10.23l-5.37-2.5Zm-6.68 7.56a16.54 16.54 0 0 1-9.5 2.35l-.35 6c4.5.25 8.98-.85 12.86-3.2l-3.01-5.15Z"/></g><path fill="#fff" d="M39.77 31.73c-6.38-2.35-9.66-9.64-7.29-16.09a12.26 12.26 0 0 1 7.29-7.46c.33-.17.49-.42.49-.84V6.17c0-.33-.16-.59-.5-.67-.07 0-.24 0-.32.08-7.77 2.52-12.03 10.98-9.57 18.94.71 2.3 1.95 4.4 3.62 6.1 1.66 1.7 3.7 2.98 5.95 3.7.33.18.66 0 .74-.33.08-.08.08-.16.08-.33v-1.17c0-.26-.25-.6-.5-.76ZM48.44 5.6c-.33-.17-.65 0-.73.33-.09.09-.09.17-.09.34v1.17c0 .33.25.67.5.84 6.38 2.34 9.65 9.63 7.28 16.09a12.27 12.27 0 0 1-7.29 7.46c-.32.17-.49.42-.49.84v1.17c0 .34.17.59.5.67.08 0 .24 0 .32-.08 7.78-2.52 12.03-10.99 9.58-18.95a15.27 15.27 0 0 0-3.62-6.13c-1.66-1.72-3.7-3-5.96-3.75Z"/><path fill="#fff" d="M48.86 23.1c0-3.06-1.54-4.1-4.63-4.54-2.2-.35-2.64-1.04-2.64-2.26 0-1.22.73-2 2.2-2 1.33 0 2.06.52 2.43 1.82.04.13.1.24.2.32.09.07.2.12.31.12h1.18c.07 0 .13-.01.2-.04a.5.5 0 0 0 .16-.14.62.62 0 0 0 .12-.2.7.7 0 0 0 .03-.23v-.09a4.63 4.63 0 0 0-1.14-2.45 3.42 3.42 0 0 0-2.16-1.12v-2.1c0-.34-.22-.6-.6-.69h-1.1c-.29 0-.5.26-.58.7v2c-2.2.35-3.6 2.1-3.6 4.27 0 2.88 1.47 4.01 4.55 4.45 2.06.43 2.72.95 2.72 2.35 0 1.4-1.03 2.35-2.42 2.35-1.91 0-2.58-.96-2.8-2.27-.07-.34-.29-.52-.5-.52h-1.26a.43.43 0 0 0-.2.04.5.5 0 0 0-.16.14.61.61 0 0 0-.11.2.7.7 0 0 0-.04.23v.09c.3 2.18 1.47 3.75 3.9 4.18v2.1c0 .34.22.6.58.69h1.1c.3 0 .52-.26.6-.7v-2.09a4.53 4.53 0 0 0 3.67-4.62Z"/><path fill="#fff" stroke="#1F2348" stroke-linecap="round" stroke-linejoin="round" stroke-width="3" d="M21.79 62.5c10.87 0 19.7-8.95 19.7-20s-8.83-20-19.7-20c-10.88 0-19.7 8.95-19.7 20s8.82 20 19.7 20Z"/><path stroke="#1F2348" stroke-linecap="round" stroke-linejoin="round" stroke-width="3" d="M27.14 38.38c0 1.17-.46 2.3-1.27 3.13a4.31 4.31 0 0 1-3.08 1.29h-5.43v-8.83h5.43c1.15 0 2.26.46 3.08 1.3a4.45 4.45 0 0 1 1.27 3.11Z"/><path stroke="#1F2348" stroke-linecap="round" stroke-linejoin="round" stroke-width="3" d="M27.14 47.22c0 1.17-.46 2.29-1.27 3.12a4.31 4.31 0 0 1-3.08 1.29h-5.43V42.8h5.43c1.15 0 2.26.47 3.08 1.3a4.45 4.45 0 0 1 1.27 3.12ZM21.12 31v2.3M21.12 51.63v2.3"/></g></g><defs><clipPath id="a"><path fill="#fff" d="M.57 0h64v64h-64z"/></clipPath></defs></svg>