<svg xmlns="http://www.w3.org/2000/svg" width="132" height="80" fill="none" viewBox="0 0 132 80">
  <g clip-path="url(#a)">
    <path fill="url(#b)" fill-opacity=".6" d="M0 62h132v10a8 8 0 0 1-8 8H8a8 8 0 0 1-8-8V62Z"/>
    <path fill="url(#c)" d="M0 62h132v10a8 8 0 0 1-8 8H8a8 8 0 0 1-8-8V62Z"/>
    <path fill="url(#d)" fill-rule="evenodd" d="M130.618 3.504A7.965 7.965 0 0 1 132 8v54H0V8a8 8 0 0 1 7.933-8H124c1.273 0 2.477.297 3.545.826a8.038 8.038 0 0 1 3.073 2.678ZM14 18a2 2 0 0 0-2 2v12a2 2 0 0 0 2 2h12a2 2 0 0 0 2-2V20a2 2 0 0 0-2-2H14Z" clip-rule="evenodd"/>
  </g>
  <defs>
    <radialGradient id="b" cx="0" cy="0" r="1" gradientTransform="matrix(74.24995 13.15789 -4.3152 24.3507 16.5 64.65)" gradientUnits="userSpaceOnUse">
      <stop stop-color="#fff"/>
      <stop offset="1" stop-color="#fff" stop-opacity=".62"/>
    </radialGradient>
    <radialGradient id="c" cx="0" cy="0" r="1" gradientTransform="matrix(74.24995 13.15789 -4.3152 24.3507 16.5 64.65)" gradientUnits="userSpaceOnUse">
      <stop stop-color="#24CCA2"/>
      <stop offset="1" stop-color="#24CCA2" stop-opacity=".62"/>
    </radialGradient>
    <radialGradient id="d" cx="0" cy="0" r="1" gradientTransform="matrix(131.73987 62.28103 -49.15936 103.98427 0 -.049)" gradientUnits="userSpaceOnUse">
      <stop stop-color="#fff" stop-opacity=".6"/>
      <stop offset="1" stop-color="#fff" stop-opacity=".1"/>
    </radialGradient>
    <clipPath id="a">
      <rect width="132" height="80" fill="#fff" rx="8"/>
    </clipPath>
  </defs>
</svg>
